M48
; DRILL file {KiCad 5.1.4-e60b266~84~ubuntu18.04.1} date dim. 13 oct. 2019 11:44:24 CEST
; FORMAT={-:-/ absolute / metric / decimal}
; #@! TF.CreationDate,2019-10-13T11:44:24+02:00
; #@! TF.GenerationSoftware,Kicad,Pcbnew,5.1.4-e60b266~84~ubuntu18.04.1
; #@! TF.FileFunction,Plated,1,2,PTH
FMAT,2
METRIC
T1C0.400
T2C0.600
T3C2.000
%
G90
G05
T1
X130.9Y-94.8
X130.9Y-95.8
X130.9Y-96.8
X130.9Y-97.8
X130.9Y-142.2
X130.9Y-143.2
X130.9Y-144.2
X130.9Y-145.2
X131.15Y-124.309
X131.9Y-94.8
X131.9Y-95.8
X131.9Y-122.7
X131.9Y-144.2
X131.9Y-145.2
X132.6Y-113.8
X132.6Y-114.6
X132.9Y-94.8
X132.9Y-145.2
X133.4Y-113.4
X133.4Y-114.2
X133.4Y-115.0
X133.6Y-110.6
X133.6Y-111.4
X133.6Y-112.2
X133.9Y-94.8
X133.9Y-145.2
X134.4Y-110.2
X134.4Y-111.0
X134.4Y-111.8
X134.4Y-112.6
X135.0Y-113.1
X135.1Y-109.6
X135.5Y-108.8
X135.8Y-112.9
X135.9Y-109.6
X136.2Y-119.9
X136.2Y-120.7
X136.2Y-121.5
X136.3Y-108.8
X136.6Y-112.9
X136.7Y-109.6
X137.0Y-119.9
X137.0Y-120.7
X137.0Y-121.5
X137.7Y-120.3
X137.7Y-121.1
X137.7Y-121.9
X138.3Y-129.0
X138.3Y-129.8
X138.3Y-130.6
X138.3Y-131.4
X138.5Y-120.3
X138.5Y-121.1
X138.5Y-121.9
X139.1Y-129.0
X139.1Y-129.8
X139.1Y-130.6
X139.3Y-120.3
X139.3Y-121.1
X139.3Y-121.9
X139.9Y-128.2
X139.9Y-129.0
X140.1Y-119.5
X140.1Y-120.3
X140.1Y-121.1
X140.1Y-121.9
X140.6Y-129.4
X140.9Y-119.5
X140.9Y-120.3
X140.9Y-121.1
X140.9Y-121.9
X141.0Y-130.3
X141.4Y-129.5
X141.7Y-119.5
X141.7Y-120.3
X141.7Y-121.1
X141.7Y-121.9
X141.8Y-130.3
X142.2Y-129.5
X142.229Y-112.329
X142.5Y-120.3
X142.5Y-121.1
X142.6Y-130.3
X142.971Y-113.071
X143.0Y-129.5
X143.5Y-127.3
X143.5Y-128.1
X143.5Y-128.9
X144.3Y-127.7
X144.3Y-128.5
X149.2Y-127.9
X149.2Y-128.9
X149.2Y-129.9
X149.2Y-130.9
X149.2Y-131.9
X149.2Y-132.9
X149.2Y-133.9
X149.2Y-134.9
X149.2Y-135.9
X149.2Y-136.9
X149.6Y-112.8
X149.6Y-113.6
X149.7Y-114.5
X150.0Y-127.4
X150.0Y-128.4
X150.0Y-129.4
X150.0Y-130.4
X150.0Y-131.4
X150.0Y-132.4
X150.0Y-133.4
X150.0Y-134.4
X150.0Y-135.4
X150.0Y-136.4
X150.3Y-112.4
X150.3Y-113.2
X150.5Y-114.0
X150.5Y-115.4
X150.9Y-114.7
X151.2Y-111.2
X151.3Y-114.0
X151.3Y-115.4
X151.7Y-114.7
X152.0Y-111.2
X152.1Y-114.0
X152.1Y-115.4
X152.4Y-110.5
X152.5Y-114.7
X152.8Y-109.8
X152.8Y-111.2
X152.9Y-114.0
X153.2Y-110.5
X153.3Y-114.7
X153.6Y-109.8
X153.6Y-111.2
X153.7Y-114.0
X154.0Y-110.5
X154.3Y-120.0
X154.3Y-120.8
X154.4Y-109.8
X154.4Y-111.2
X154.4Y-112.0
X154.4Y-112.8
X154.4Y-113.6
X154.8Y-110.5
X155.0Y-119.6
X155.0Y-120.4
X155.0Y-121.2
X155.1Y-111.6
X155.1Y-112.4
X155.7Y-119.2
X155.7Y-120.0
X155.7Y-120.8
X156.4Y-118.2
X156.4Y-119.6
X156.4Y-120.4
X156.4Y-121.2
X156.8Y-118.9
X157.2Y-118.2
X157.2Y-119.6
X157.6Y-118.9
X158.0Y-118.2
X158.0Y-119.6
X158.2Y-139.8
X158.2Y-140.8
X158.2Y-141.8
X158.2Y-142.8
X158.2Y-143.8
X158.4Y-118.9
X158.8Y-118.2
X158.8Y-119.6
X159.0Y-140.3
X159.0Y-141.3
X159.0Y-142.3
X159.0Y-143.3
X159.0Y-144.3
X159.2Y-118.9
X159.6Y-118.2
X159.6Y-119.6
X160.0Y-118.9
X160.4Y-118.2
X160.4Y-119.6
X160.4Y-120.4
X160.4Y-121.2
X161.1Y-119.2
X161.1Y-120.0
X161.1Y-120.8
X163.0Y-140.3
X163.0Y-141.3
X163.0Y-142.3
X163.0Y-143.3
X163.0Y-144.3
X163.8Y-139.8
X163.8Y-140.8
X163.8Y-141.8
X163.8Y-142.8
X163.8Y-143.8
X167.975Y-108.8
X169.025Y-108.8
X170.775Y-134.6
X171.825Y-134.6
X178.9Y-139.8
X178.9Y-140.8
X178.9Y-141.8
X178.9Y-142.8
X178.9Y-143.8
X179.7Y-139.3
X179.7Y-140.3
X179.7Y-141.3
X179.7Y-142.3
X179.7Y-143.3
X179.7Y-144.3
X183.7Y-139.3
X183.7Y-140.3
X183.7Y-141.3
X183.7Y-142.3
X183.7Y-143.3
X183.7Y-144.3
X184.5Y-139.8
X184.5Y-140.8
X184.5Y-141.8
X184.5Y-142.8
X184.5Y-143.8
X189.9Y-139.8
X189.9Y-140.8
X189.9Y-141.8
X189.9Y-142.8
X189.9Y-143.8
X190.7Y-139.3
X190.7Y-140.3
X190.7Y-141.3
X190.7Y-142.3
X190.7Y-143.3
X190.7Y-144.3
X194.7Y-139.3
X194.7Y-140.3
X194.7Y-141.3
X194.7Y-142.3
X194.7Y-143.3
X194.7Y-144.3
X195.5Y-139.8
X195.5Y-140.8
X195.5Y-141.8
X195.5Y-142.8
X195.5Y-143.8
X201.4Y-132.1
X201.4Y-132.9
X201.4Y-133.7
X201.4Y-134.5
X201.4Y-135.3
X201.4Y-136.1
X201.4Y-136.9
X202.1Y-131.7
X202.1Y-132.5
X202.1Y-133.3
X202.1Y-134.1
X202.1Y-134.9
X202.1Y-135.7
X202.1Y-136.5
X202.8Y-132.1
X202.8Y-132.9
X202.8Y-133.7
X202.8Y-134.5
X202.8Y-135.3
X202.8Y-136.1
X202.8Y-136.9
X203.9Y-107.5
X203.9Y-108.9
X204.3Y-108.2
X204.7Y-107.5
X204.7Y-108.9
X205.1Y-108.2
X205.5Y-107.5
X205.5Y-108.9
X205.9Y-108.2
X206.1Y-145.3
X206.3Y-107.5
X206.3Y-108.9
X206.5Y-94.8
X206.7Y-108.2
X207.1Y-107.5
X207.1Y-108.9
X207.1Y-145.3
X207.4Y-94.8
X207.5Y-108.2
X207.9Y-107.5
X207.9Y-108.9
X208.1Y-144.3
X208.1Y-145.3
X208.3Y-94.8
X208.3Y-95.7
X208.3Y-108.2
X208.7Y-107.5
X208.7Y-108.9
X209.1Y-108.2
X209.1Y-142.3
X209.1Y-143.3
X209.1Y-144.3
X209.1Y-145.3
X209.2Y-94.8
X209.2Y-95.7
X209.2Y-96.6
X209.2Y-97.5
T2
X156.0Y-124.7
X156.0Y-126.7
X156.0Y-128.7
X156.6Y-123.7
X156.6Y-125.7
X156.6Y-127.7
X156.9Y-107.8
X156.9Y-109.8
X156.9Y-111.8
X157.2Y-124.7
X157.2Y-126.7
X157.2Y-128.7
X157.5Y-108.8
X157.5Y-110.8
X157.5Y-112.8
X157.8Y-123.7
X157.8Y-125.7
X157.8Y-127.7
X158.1Y-107.8
X158.1Y-109.8
X158.1Y-111.8
X158.4Y-124.7
X158.4Y-126.7
X158.4Y-128.7
X158.7Y-108.8
X158.7Y-110.8
X158.7Y-112.8
X159.0Y-123.7
X159.0Y-125.7
X159.0Y-127.7
X159.3Y-107.8
X159.3Y-109.8
X159.3Y-111.8
X159.6Y-124.7
X159.6Y-126.7
X159.6Y-128.7
X159.9Y-108.8
X159.9Y-110.8
X159.9Y-112.8
X160.2Y-123.7
X160.2Y-125.7
X160.2Y-127.7
X160.5Y-107.8
X160.5Y-109.8
X160.5Y-111.8
X160.8Y-124.7
X160.8Y-126.7
X160.8Y-128.7
X161.1Y-108.8
X161.1Y-110.8
X161.1Y-112.8
X161.4Y-123.7
X161.4Y-125.7
X161.4Y-127.7
X161.7Y-107.8
X161.7Y-109.8
X161.7Y-111.8
X162.0Y-124.7
X162.0Y-126.7
X162.0Y-128.7
X162.3Y-108.8
X162.3Y-110.8
X162.3Y-112.8
X162.6Y-123.7
X162.6Y-125.7
X162.6Y-127.7
X162.8Y-116.0
X162.8Y-118.0
X162.8Y-120.0
X162.9Y-107.8
X162.9Y-109.8
X162.9Y-111.8
X163.4Y-117.0
X163.4Y-119.0
X163.4Y-121.0
X163.5Y-108.8
X163.5Y-110.8
X163.5Y-112.8
X164.0Y-116.0
X164.0Y-118.0
X164.0Y-120.0
X164.6Y-117.0
X164.6Y-119.0
X164.6Y-121.0
X165.2Y-116.0
X165.2Y-118.0
X165.2Y-120.0
X165.8Y-117.0
X165.8Y-119.0
X165.8Y-121.0
X166.4Y-116.0
X166.4Y-118.0
X166.4Y-120.0
X167.0Y-117.0
X167.0Y-119.0
X167.0Y-121.0
X167.6Y-116.0
X167.6Y-118.0
X167.6Y-120.0
X168.2Y-117.0
X168.2Y-119.0
X168.2Y-121.0
X168.8Y-116.0
X168.8Y-118.0
X168.8Y-120.0
X169.4Y-117.0
X169.4Y-119.0
X169.4Y-121.0
X169.9Y-100.2
X169.9Y-102.2
X169.9Y-104.2
X170.5Y-101.2
X170.5Y-103.2
X170.5Y-105.2
X171.1Y-100.2
X171.1Y-102.2
X171.1Y-104.2
X171.7Y-101.2
X171.7Y-103.2
X171.7Y-105.2
X172.3Y-100.2
X172.3Y-102.2
X172.3Y-104.2
X172.9Y-101.2
X172.9Y-103.2
X172.9Y-105.2
X173.5Y-100.2
X173.5Y-102.2
X173.5Y-104.2
X174.1Y-101.2
X174.1Y-103.2
X174.1Y-105.2
X174.7Y-100.2
X174.7Y-102.2
X174.7Y-104.2
X175.3Y-101.2
X175.3Y-103.2
X175.3Y-105.2
X175.9Y-100.2
X175.9Y-102.2
X175.9Y-104.2
X176.5Y-101.2
X176.5Y-103.2
X176.5Y-105.2
T3
X204.8Y-125.6
X204.8Y-128.7
X204.9Y-111.1
X204.9Y-114.2
X204.9Y-118.2
X204.9Y-121.3
X204.9Y-132.8
X204.9Y-135.9
X207.9Y-125.6
X207.9Y-128.7
X208.0Y-111.1
X208.0Y-114.2
X208.0Y-118.2
X208.0Y-121.3
X208.0Y-132.8
X208.0Y-135.9
T0
M30
