G04 #@! TF.GenerationSoftware,KiCad,Pcbnew,5.1.4-e60b266~84~ubuntu18.04.1*
G04 #@! TF.CreationDate,2019-10-13T11:44:25+02:00*
G04 #@! TF.ProjectId,Buck_boost,4275636b-5f62-46f6-9f73-742e6b696361,rev?*
G04 #@! TF.SameCoordinates,Original*
G04 #@! TF.FileFunction,Legend,Top*
G04 #@! TF.FilePolarity,Positive*
%FSLAX46Y46*%
G04 Gerber Fmt 4.6, Leading zero omitted, Abs format (unit mm)*
G04 Created by KiCad (PCBNEW 5.1.4-e60b266~84~ubuntu18.04.1) date 2019-10-13 11:44:25*
%MOMM*%
%LPD*%
G04 APERTURE LIST*
%ADD10C,0.150000*%
%ADD11C,0.100000*%
%ADD12C,0.300000*%
%ADD13C,0.120000*%
G04 APERTURE END LIST*
D10*
X141485714Y-142328571D02*
X141628571Y-142376190D01*
X141676190Y-142423809D01*
X141723809Y-142519047D01*
X141723809Y-142661904D01*
X141676190Y-142757142D01*
X141628571Y-142804761D01*
X141533333Y-142852380D01*
X141152380Y-142852380D01*
X141152380Y-141852380D01*
X141485714Y-141852380D01*
X141580952Y-141900000D01*
X141628571Y-141947619D01*
X141676190Y-142042857D01*
X141676190Y-142138095D01*
X141628571Y-142233333D01*
X141580952Y-142280952D01*
X141485714Y-142328571D01*
X141152380Y-142328571D01*
X142057142Y-142185714D02*
X142295238Y-142852380D01*
X142533333Y-142185714D02*
X142295238Y-142852380D01*
X142200000Y-143090476D01*
X142152380Y-143138095D01*
X142057142Y-143185714D01*
X143533333Y-141852380D02*
X144104761Y-141852380D01*
X143819047Y-142852380D02*
X143819047Y-141852380D01*
X144438095Y-142852380D02*
X144438095Y-142185714D01*
X144438095Y-142376190D02*
X144485714Y-142280952D01*
X144533333Y-142233333D01*
X144628571Y-142185714D01*
X144723809Y-142185714D01*
X145057142Y-142852380D02*
X145057142Y-142185714D01*
X145057142Y-141852380D02*
X145009523Y-141900000D01*
X145057142Y-141947619D01*
X145104761Y-141900000D01*
X145057142Y-141852380D01*
X145057142Y-141947619D01*
X145485714Y-142804761D02*
X145580952Y-142852380D01*
X145771428Y-142852380D01*
X145866666Y-142804761D01*
X145914285Y-142709523D01*
X145914285Y-142661904D01*
X145866666Y-142566666D01*
X145771428Y-142519047D01*
X145628571Y-142519047D01*
X145533333Y-142471428D01*
X145485714Y-142376190D01*
X145485714Y-142328571D01*
X145533333Y-142233333D01*
X145628571Y-142185714D01*
X145771428Y-142185714D01*
X145866666Y-142233333D01*
X146200000Y-142185714D02*
X146580952Y-142185714D01*
X146342857Y-141852380D02*
X146342857Y-142709523D01*
X146390476Y-142804761D01*
X146485714Y-142852380D01*
X146580952Y-142852380D01*
X147342857Y-142852380D02*
X147342857Y-142328571D01*
X147295238Y-142233333D01*
X147200000Y-142185714D01*
X147009523Y-142185714D01*
X146914285Y-142233333D01*
X147342857Y-142804761D02*
X147247619Y-142852380D01*
X147009523Y-142852380D01*
X146914285Y-142804761D01*
X146866666Y-142709523D01*
X146866666Y-142614285D01*
X146914285Y-142519047D01*
X147009523Y-142471428D01*
X147247619Y-142471428D01*
X147342857Y-142423809D01*
X147819047Y-142185714D02*
X147819047Y-142852380D01*
X147819047Y-142280952D02*
X147866666Y-142233333D01*
X147961904Y-142185714D01*
X148104761Y-142185714D01*
X148200000Y-142233333D01*
X148247619Y-142328571D01*
X148247619Y-142852380D01*
X135573809Y-102177380D02*
X135573809Y-101177380D01*
X135573809Y-101653571D02*
X136145238Y-101653571D01*
X136145238Y-102177380D02*
X136145238Y-101177380D01*
X136621428Y-102177380D02*
X136621428Y-101510714D01*
X136621428Y-101177380D02*
X136573809Y-101225000D01*
X136621428Y-101272619D01*
X136669047Y-101225000D01*
X136621428Y-101177380D01*
X136621428Y-101272619D01*
X137526190Y-101510714D02*
X137526190Y-102320238D01*
X137478571Y-102415476D01*
X137430952Y-102463095D01*
X137335714Y-102510714D01*
X137192857Y-102510714D01*
X137097619Y-102463095D01*
X137526190Y-102129761D02*
X137430952Y-102177380D01*
X137240476Y-102177380D01*
X137145238Y-102129761D01*
X137097619Y-102082142D01*
X137050000Y-101986904D01*
X137050000Y-101701190D01*
X137097619Y-101605952D01*
X137145238Y-101558333D01*
X137240476Y-101510714D01*
X137430952Y-101510714D01*
X137526190Y-101558333D01*
X138002380Y-102177380D02*
X138002380Y-101177380D01*
X138430952Y-102177380D02*
X138430952Y-101653571D01*
X138383333Y-101558333D01*
X138288095Y-101510714D01*
X138145238Y-101510714D01*
X138050000Y-101558333D01*
X138002380Y-101605952D01*
X139669047Y-101510714D02*
X139669047Y-102510714D01*
X139669047Y-101558333D02*
X139764285Y-101510714D01*
X139954761Y-101510714D01*
X140050000Y-101558333D01*
X140097619Y-101605952D01*
X140145238Y-101701190D01*
X140145238Y-101986904D01*
X140097619Y-102082142D01*
X140050000Y-102129761D01*
X139954761Y-102177380D01*
X139764285Y-102177380D01*
X139669047Y-102129761D01*
X140716666Y-102177380D02*
X140621428Y-102129761D01*
X140573809Y-102082142D01*
X140526190Y-101986904D01*
X140526190Y-101701190D01*
X140573809Y-101605952D01*
X140621428Y-101558333D01*
X140716666Y-101510714D01*
X140859523Y-101510714D01*
X140954761Y-101558333D01*
X141002380Y-101605952D01*
X141050000Y-101701190D01*
X141050000Y-101986904D01*
X141002380Y-102082142D01*
X140954761Y-102129761D01*
X140859523Y-102177380D01*
X140716666Y-102177380D01*
X141383333Y-101510714D02*
X141573809Y-102177380D01*
X141764285Y-101701190D01*
X141954761Y-102177380D01*
X142145238Y-101510714D01*
X142907142Y-102129761D02*
X142811904Y-102177380D01*
X142621428Y-102177380D01*
X142526190Y-102129761D01*
X142478571Y-102034523D01*
X142478571Y-101653571D01*
X142526190Y-101558333D01*
X142621428Y-101510714D01*
X142811904Y-101510714D01*
X142907142Y-101558333D01*
X142954761Y-101653571D01*
X142954761Y-101748809D01*
X142478571Y-101844047D01*
X143383333Y-102177380D02*
X143383333Y-101510714D01*
X143383333Y-101701190D02*
X143430952Y-101605952D01*
X143478571Y-101558333D01*
X143573809Y-101510714D01*
X143669047Y-101510714D01*
X134930952Y-103827380D02*
X134930952Y-102827380D01*
X135169047Y-102827380D01*
X135311904Y-102875000D01*
X135407142Y-102970238D01*
X135454761Y-103065476D01*
X135502380Y-103255952D01*
X135502380Y-103398809D01*
X135454761Y-103589285D01*
X135407142Y-103684523D01*
X135311904Y-103779761D01*
X135169047Y-103827380D01*
X134930952Y-103827380D01*
X136502380Y-103732142D02*
X136454761Y-103779761D01*
X136311904Y-103827380D01*
X136216666Y-103827380D01*
X136073809Y-103779761D01*
X135978571Y-103684523D01*
X135930952Y-103589285D01*
X135883333Y-103398809D01*
X135883333Y-103255952D01*
X135930952Y-103065476D01*
X135978571Y-102970238D01*
X136073809Y-102875000D01*
X136216666Y-102827380D01*
X136311904Y-102827380D01*
X136454761Y-102875000D01*
X136502380Y-102922619D01*
X138121428Y-103779761D02*
X138026190Y-103827380D01*
X137835714Y-103827380D01*
X137740476Y-103779761D01*
X137692857Y-103732142D01*
X137645238Y-103636904D01*
X137645238Y-103351190D01*
X137692857Y-103255952D01*
X137740476Y-103208333D01*
X137835714Y-103160714D01*
X138026190Y-103160714D01*
X138121428Y-103208333D01*
X138692857Y-103827380D02*
X138597619Y-103779761D01*
X138550000Y-103732142D01*
X138502380Y-103636904D01*
X138502380Y-103351190D01*
X138550000Y-103255952D01*
X138597619Y-103208333D01*
X138692857Y-103160714D01*
X138835714Y-103160714D01*
X138930952Y-103208333D01*
X138978571Y-103255952D01*
X139026190Y-103351190D01*
X139026190Y-103636904D01*
X138978571Y-103732142D01*
X138930952Y-103779761D01*
X138835714Y-103827380D01*
X138692857Y-103827380D01*
X139454761Y-103160714D02*
X139454761Y-103827380D01*
X139454761Y-103255952D02*
X139502380Y-103208333D01*
X139597619Y-103160714D01*
X139740476Y-103160714D01*
X139835714Y-103208333D01*
X139883333Y-103303571D01*
X139883333Y-103827380D01*
X140264285Y-103160714D02*
X140502380Y-103827380D01*
X140740476Y-103160714D01*
X141502380Y-103779761D02*
X141407142Y-103827380D01*
X141216666Y-103827380D01*
X141121428Y-103779761D01*
X141073809Y-103684523D01*
X141073809Y-103303571D01*
X141121428Y-103208333D01*
X141216666Y-103160714D01*
X141407142Y-103160714D01*
X141502380Y-103208333D01*
X141550000Y-103303571D01*
X141550000Y-103398809D01*
X141073809Y-103494047D01*
X141978571Y-103827380D02*
X141978571Y-103160714D01*
X141978571Y-103351190D02*
X142026190Y-103255952D01*
X142073809Y-103208333D01*
X142169047Y-103160714D01*
X142264285Y-103160714D01*
X142454761Y-103160714D02*
X142835714Y-103160714D01*
X142597619Y-102827380D02*
X142597619Y-103684523D01*
X142645238Y-103779761D01*
X142740476Y-103827380D01*
X142835714Y-103827380D01*
X143550000Y-103779761D02*
X143454761Y-103827380D01*
X143264285Y-103827380D01*
X143169047Y-103779761D01*
X143121428Y-103684523D01*
X143121428Y-103303571D01*
X143169047Y-103208333D01*
X143264285Y-103160714D01*
X143454761Y-103160714D01*
X143550000Y-103208333D01*
X143597619Y-103303571D01*
X143597619Y-103398809D01*
X143121428Y-103494047D01*
X144026190Y-103827380D02*
X144026190Y-103160714D01*
X144026190Y-103351190D02*
X144073809Y-103255952D01*
X144121428Y-103208333D01*
X144216666Y-103160714D01*
X144311904Y-103160714D01*
D11*
G36*
X208550000Y-143550000D02*
G01*
X200050000Y-143550000D01*
X200050000Y-141050000D01*
X208550000Y-141050000D01*
X208550000Y-143550000D01*
G37*
X208550000Y-143550000D02*
X200050000Y-143550000D01*
X200050000Y-141050000D01*
X208550000Y-141050000D01*
X208550000Y-143550000D01*
D12*
X195114285Y-108253571D02*
X195614285Y-109753571D01*
X196114285Y-108253571D01*
X196614285Y-109753571D02*
X196614285Y-108753571D01*
X196614285Y-108253571D02*
X196542857Y-108325000D01*
X196614285Y-108396428D01*
X196685714Y-108325000D01*
X196614285Y-108253571D01*
X196614285Y-108396428D01*
X197328571Y-108753571D02*
X197328571Y-109753571D01*
X197328571Y-108896428D02*
X197400000Y-108825000D01*
X197542857Y-108753571D01*
X197757142Y-108753571D01*
X197900000Y-108825000D01*
X197971428Y-108967857D01*
X197971428Y-109753571D01*
X192435714Y-110803571D02*
X193364285Y-110803571D01*
X192864285Y-111375000D01*
X193078571Y-111375000D01*
X193221428Y-111446428D01*
X193292857Y-111517857D01*
X193364285Y-111660714D01*
X193364285Y-112017857D01*
X193292857Y-112160714D01*
X193221428Y-112232142D01*
X193078571Y-112303571D01*
X192650000Y-112303571D01*
X192507142Y-112232142D01*
X192435714Y-112160714D01*
X194292857Y-110803571D02*
X194435714Y-110803571D01*
X194578571Y-110875000D01*
X194650000Y-110946428D01*
X194721428Y-111089285D01*
X194792857Y-111375000D01*
X194792857Y-111732142D01*
X194721428Y-112017857D01*
X194650000Y-112160714D01*
X194578571Y-112232142D01*
X194435714Y-112303571D01*
X194292857Y-112303571D01*
X194150000Y-112232142D01*
X194078571Y-112160714D01*
X194007142Y-112017857D01*
X193935714Y-111732142D01*
X193935714Y-111375000D01*
X194007142Y-111089285D01*
X194078571Y-110946428D01*
X194150000Y-110875000D01*
X194292857Y-110803571D01*
X195435714Y-111732142D02*
X196578571Y-111732142D01*
X197935714Y-111303571D02*
X197935714Y-112303571D01*
X197578571Y-110732142D02*
X197221428Y-111803571D01*
X198150000Y-111803571D01*
X198650000Y-110946428D02*
X198721428Y-110875000D01*
X198864285Y-110803571D01*
X199221428Y-110803571D01*
X199364285Y-110875000D01*
X199435714Y-110946428D01*
X199507142Y-111089285D01*
X199507142Y-111232142D01*
X199435714Y-111446428D01*
X198578571Y-112303571D01*
X199507142Y-112303571D01*
X199935714Y-110803571D02*
X200435714Y-112303571D01*
X200935714Y-110803571D01*
X201864285Y-138828571D02*
X202364285Y-140328571D01*
X202864285Y-138828571D01*
X203578571Y-140328571D02*
X203435714Y-140257142D01*
X203364285Y-140185714D01*
X203292857Y-140042857D01*
X203292857Y-139614285D01*
X203364285Y-139471428D01*
X203435714Y-139400000D01*
X203578571Y-139328571D01*
X203792857Y-139328571D01*
X203935714Y-139400000D01*
X204007142Y-139471428D01*
X204078571Y-139614285D01*
X204078571Y-140042857D01*
X204007142Y-140185714D01*
X203935714Y-140257142D01*
X203792857Y-140328571D01*
X203578571Y-140328571D01*
X205364285Y-139328571D02*
X205364285Y-140328571D01*
X204721428Y-139328571D02*
X204721428Y-140114285D01*
X204792857Y-140257142D01*
X204935714Y-140328571D01*
X205150000Y-140328571D01*
X205292857Y-140257142D01*
X205364285Y-140185714D01*
X205864285Y-139328571D02*
X206435714Y-139328571D01*
X206078571Y-138828571D02*
X206078571Y-140114285D01*
X206150000Y-140257142D01*
X206292857Y-140328571D01*
X206435714Y-140328571D01*
D10*
X175200000Y-108900000D02*
X173250000Y-108900000D01*
X175200000Y-108300000D02*
X175200000Y-108900000D01*
X188200000Y-108300000D02*
X175200000Y-108300000D01*
X188200000Y-108900000D02*
X188200000Y-108300000D01*
X190150000Y-108900000D02*
X188200000Y-108900000D01*
X190150000Y-126700000D02*
X190150000Y-108900000D01*
X188200000Y-126700000D02*
X190150000Y-126700000D01*
X188200000Y-127300000D02*
X188200000Y-126700000D01*
X175200000Y-127300000D02*
X188200000Y-127300000D01*
X175200000Y-126700000D02*
X175200000Y-127300000D01*
X173250000Y-126700000D02*
X175200000Y-126700000D01*
X173250000Y-108900000D02*
X173250000Y-126700000D01*
D13*
X201390000Y-106400000D02*
X202390000Y-106400000D01*
X201890000Y-106900000D02*
X201890000Y-105900000D01*
X207595563Y-105660000D02*
X208660000Y-104595563D01*
X201204437Y-105660000D02*
X200140000Y-104595563D01*
X201204437Y-105660000D02*
X202890000Y-105660000D01*
X207595563Y-105660000D02*
X205910000Y-105660000D01*
X208660000Y-104595563D02*
X208660000Y-97140000D01*
X200140000Y-104595563D02*
X200140000Y-97140000D01*
X200140000Y-97140000D02*
X202890000Y-97140000D01*
X208660000Y-97140000D02*
X205910000Y-97140000D01*
X192390000Y-106400000D02*
X193390000Y-106400000D01*
X192890000Y-106900000D02*
X192890000Y-105900000D01*
X198595563Y-105660000D02*
X199660000Y-104595563D01*
X192204437Y-105660000D02*
X191140000Y-104595563D01*
X192204437Y-105660000D02*
X193890000Y-105660000D01*
X198595563Y-105660000D02*
X196910000Y-105660000D01*
X199660000Y-104595563D02*
X199660000Y-97140000D01*
X191140000Y-104595563D02*
X191140000Y-97140000D01*
X191140000Y-97140000D02*
X193890000Y-97140000D01*
X199660000Y-97140000D02*
X196910000Y-97140000D01*
X183390000Y-106400000D02*
X184390000Y-106400000D01*
X183890000Y-106900000D02*
X183890000Y-105900000D01*
X189595563Y-105660000D02*
X190660000Y-104595563D01*
X183204437Y-105660000D02*
X182140000Y-104595563D01*
X183204437Y-105660000D02*
X184890000Y-105660000D01*
X189595563Y-105660000D02*
X187910000Y-105660000D01*
X190660000Y-104595563D02*
X190660000Y-97140000D01*
X182140000Y-104595563D02*
X182140000Y-97140000D01*
X182140000Y-97140000D02*
X184890000Y-97140000D01*
X190660000Y-97140000D02*
X187910000Y-97140000D01*
X179110000Y-100402064D02*
X179110000Y-99197936D01*
X177290000Y-100402064D02*
X177290000Y-99197936D01*
X181610000Y-100402064D02*
X181610000Y-99197936D01*
X179790000Y-100402064D02*
X179790000Y-99197936D01*
X138958578Y-113090000D02*
X138441422Y-113090000D01*
X138958578Y-114510000D02*
X138441422Y-114510000D01*
X137802064Y-110390000D02*
X136597936Y-110390000D01*
X137802064Y-112210000D02*
X136597936Y-112210000D01*
X135110000Y-115362779D02*
X135110000Y-115037221D01*
X134090000Y-115362779D02*
X134090000Y-115037221D01*
X134362779Y-124590000D02*
X134037221Y-124590000D01*
X134362779Y-125610000D02*
X134037221Y-125610000D01*
X137990000Y-126837221D02*
X137990000Y-127162779D01*
X139010000Y-126837221D02*
X139010000Y-127162779D01*
X136490000Y-129837221D02*
X136490000Y-130162779D01*
X137510000Y-129837221D02*
X137510000Y-130162779D01*
X141090000Y-127041422D02*
X141090000Y-127558578D01*
X142510000Y-127041422D02*
X142510000Y-127558578D01*
X146610000Y-119258578D02*
X146610000Y-118741422D01*
X145190000Y-119258578D02*
X145190000Y-118741422D01*
X145190000Y-122141422D02*
X145190000Y-122658578D01*
X146610000Y-122141422D02*
X146610000Y-122658578D01*
X153402064Y-127540000D02*
X152197936Y-127540000D01*
X153402064Y-130260000D02*
X152197936Y-130260000D01*
X153402064Y-131040000D02*
X152197936Y-131040000D01*
X153402064Y-133760000D02*
X152197936Y-133760000D01*
X153402064Y-134540000D02*
X152197936Y-134540000D01*
X153402064Y-137260000D02*
X152197936Y-137260000D01*
X164385000Y-131575000D02*
X163135000Y-131575000D01*
X163760000Y-130950000D02*
X163760000Y-132200000D01*
X156704437Y-132440000D02*
X155640000Y-133504437D01*
X165295563Y-132440000D02*
X166360000Y-133504437D01*
X165295563Y-132440000D02*
X162510000Y-132440000D01*
X156704437Y-132440000D02*
X159490000Y-132440000D01*
X155640000Y-133504437D02*
X155640000Y-143160000D01*
X166360000Y-133504437D02*
X166360000Y-143160000D01*
X166360000Y-143160000D02*
X162510000Y-143160000D01*
X155640000Y-143160000D02*
X159490000Y-143160000D01*
X185085000Y-131475000D02*
X183835000Y-131475000D01*
X184460000Y-130850000D02*
X184460000Y-132100000D01*
X177404437Y-132340000D02*
X176340000Y-133404437D01*
X185995563Y-132340000D02*
X187060000Y-133404437D01*
X185995563Y-132340000D02*
X183210000Y-132340000D01*
X177404437Y-132340000D02*
X180190000Y-132340000D01*
X176340000Y-133404437D02*
X176340000Y-143060000D01*
X187060000Y-133404437D02*
X187060000Y-143060000D01*
X187060000Y-143060000D02*
X183210000Y-143060000D01*
X176340000Y-143060000D02*
X180190000Y-143060000D01*
X196085000Y-131475000D02*
X194835000Y-131475000D01*
X195460000Y-130850000D02*
X195460000Y-132100000D01*
X188404437Y-132340000D02*
X187340000Y-133404437D01*
X196995563Y-132340000D02*
X198060000Y-133404437D01*
X196995563Y-132340000D02*
X194210000Y-132340000D01*
X188404437Y-132340000D02*
X191190000Y-132340000D01*
X187340000Y-133404437D02*
X187340000Y-143060000D01*
X198060000Y-133404437D02*
X198060000Y-143060000D01*
X198060000Y-143060000D02*
X194210000Y-143060000D01*
X187340000Y-143060000D02*
X191190000Y-143060000D01*
D10*
X163600000Y-99310000D02*
X163600000Y-101650000D01*
X169100000Y-99300000D02*
X169100000Y-101170000D01*
X172100000Y-99300000D02*
X169100000Y-99300000D01*
X150600000Y-106910000D02*
X150600000Y-109250000D01*
X156100000Y-106900000D02*
X156100000Y-108770000D01*
X159100000Y-106900000D02*
X156100000Y-106900000D01*
X156500000Y-115110000D02*
X156500000Y-117450000D01*
X162000000Y-115100000D02*
X162000000Y-116970000D01*
X165000000Y-115100000D02*
X162000000Y-115100000D01*
X168900000Y-129590000D02*
X168900000Y-127250000D01*
X163400000Y-129600000D02*
X163400000Y-127730000D01*
X160400000Y-129600000D02*
X163400000Y-129600000D01*
D13*
X138537221Y-116110000D02*
X138862779Y-116110000D01*
X138537221Y-115090000D02*
X138862779Y-115090000D01*
X135690000Y-114637221D02*
X135690000Y-114962779D01*
X136710000Y-114637221D02*
X136710000Y-114962779D01*
X134310000Y-120862779D02*
X134310000Y-120537221D01*
X133290000Y-120862779D02*
X133290000Y-120537221D01*
X140510000Y-126162779D02*
X140510000Y-125837221D01*
X139490000Y-126162779D02*
X139490000Y-125837221D01*
X137525001Y-127157778D02*
X137525001Y-126832220D01*
X136505001Y-127157778D02*
X136505001Y-126832220D01*
X170452064Y-108490000D02*
X166347936Y-108490000D01*
X170452064Y-111910000D02*
X166347936Y-111910000D01*
X173352064Y-131890000D02*
X169247936Y-131890000D01*
X173352064Y-135310000D02*
X169247936Y-135310000D01*
X134875279Y-126090000D02*
X134549721Y-126090000D01*
X134875279Y-127110000D02*
X134549721Y-127110000D01*
X136010000Y-129062779D02*
X136010000Y-128737221D01*
X134990000Y-129062779D02*
X134990000Y-128737221D01*
D10*
X144454999Y-118380001D02*
X144454999Y-117305001D01*
X134729999Y-118380001D02*
X134729999Y-123030001D01*
X144679999Y-118380001D02*
X144679999Y-123030001D01*
X134729999Y-118380001D02*
X135054999Y-118380001D01*
X134729999Y-123030001D02*
X135054999Y-123030001D01*
X144679999Y-123030001D02*
X144354999Y-123030001D01*
X144679999Y-118380001D02*
X144454999Y-118380001D01*
X181057142Y-118752380D02*
X180580952Y-118752380D01*
X180580952Y-117752380D01*
X181342857Y-117847619D02*
X181390476Y-117800000D01*
X181485714Y-117752380D01*
X181723809Y-117752380D01*
X181819047Y-117800000D01*
X181866666Y-117847619D01*
X181914285Y-117942857D01*
X181914285Y-118038095D01*
X181866666Y-118180952D01*
X181295238Y-118752380D01*
X181914285Y-118752380D01*
X182866666Y-118752380D02*
X182295238Y-118752380D01*
X182580952Y-118752380D02*
X182580952Y-117752380D01*
X182485714Y-117895238D01*
X182390476Y-117990476D01*
X182295238Y-118038095D01*
X203757142Y-101757142D02*
X203709523Y-101804761D01*
X203566666Y-101852380D01*
X203471428Y-101852380D01*
X203328571Y-101804761D01*
X203233333Y-101709523D01*
X203185714Y-101614285D01*
X203138095Y-101423809D01*
X203138095Y-101280952D01*
X203185714Y-101090476D01*
X203233333Y-100995238D01*
X203328571Y-100900000D01*
X203471428Y-100852380D01*
X203566666Y-100852380D01*
X203709523Y-100900000D01*
X203757142Y-100947619D01*
X204376190Y-100852380D02*
X204471428Y-100852380D01*
X204566666Y-100900000D01*
X204614285Y-100947619D01*
X204661904Y-101042857D01*
X204709523Y-101233333D01*
X204709523Y-101471428D01*
X204661904Y-101661904D01*
X204614285Y-101757142D01*
X204566666Y-101804761D01*
X204471428Y-101852380D01*
X204376190Y-101852380D01*
X204280952Y-101804761D01*
X204233333Y-101757142D01*
X204185714Y-101661904D01*
X204138095Y-101471428D01*
X204138095Y-101233333D01*
X204185714Y-101042857D01*
X204233333Y-100947619D01*
X204280952Y-100900000D01*
X204376190Y-100852380D01*
X205661904Y-101852380D02*
X205090476Y-101852380D01*
X205376190Y-101852380D02*
X205376190Y-100852380D01*
X205280952Y-100995238D01*
X205185714Y-101090476D01*
X205090476Y-101138095D01*
X194757142Y-101757142D02*
X194709523Y-101804761D01*
X194566666Y-101852380D01*
X194471428Y-101852380D01*
X194328571Y-101804761D01*
X194233333Y-101709523D01*
X194185714Y-101614285D01*
X194138095Y-101423809D01*
X194138095Y-101280952D01*
X194185714Y-101090476D01*
X194233333Y-100995238D01*
X194328571Y-100900000D01*
X194471428Y-100852380D01*
X194566666Y-100852380D01*
X194709523Y-100900000D01*
X194757142Y-100947619D01*
X195376190Y-100852380D02*
X195471428Y-100852380D01*
X195566666Y-100900000D01*
X195614285Y-100947619D01*
X195661904Y-101042857D01*
X195709523Y-101233333D01*
X195709523Y-101471428D01*
X195661904Y-101661904D01*
X195614285Y-101757142D01*
X195566666Y-101804761D01*
X195471428Y-101852380D01*
X195376190Y-101852380D01*
X195280952Y-101804761D01*
X195233333Y-101757142D01*
X195185714Y-101661904D01*
X195138095Y-101471428D01*
X195138095Y-101233333D01*
X195185714Y-101042857D01*
X195233333Y-100947619D01*
X195280952Y-100900000D01*
X195376190Y-100852380D01*
X196090476Y-100947619D02*
X196138095Y-100900000D01*
X196233333Y-100852380D01*
X196471428Y-100852380D01*
X196566666Y-100900000D01*
X196614285Y-100947619D01*
X196661904Y-101042857D01*
X196661904Y-101138095D01*
X196614285Y-101280952D01*
X196042857Y-101852380D01*
X196661904Y-101852380D01*
X185757142Y-101757142D02*
X185709523Y-101804761D01*
X185566666Y-101852380D01*
X185471428Y-101852380D01*
X185328571Y-101804761D01*
X185233333Y-101709523D01*
X185185714Y-101614285D01*
X185138095Y-101423809D01*
X185138095Y-101280952D01*
X185185714Y-101090476D01*
X185233333Y-100995238D01*
X185328571Y-100900000D01*
X185471428Y-100852380D01*
X185566666Y-100852380D01*
X185709523Y-100900000D01*
X185757142Y-100947619D01*
X186376190Y-100852380D02*
X186471428Y-100852380D01*
X186566666Y-100900000D01*
X186614285Y-100947619D01*
X186661904Y-101042857D01*
X186709523Y-101233333D01*
X186709523Y-101471428D01*
X186661904Y-101661904D01*
X186614285Y-101757142D01*
X186566666Y-101804761D01*
X186471428Y-101852380D01*
X186376190Y-101852380D01*
X186280952Y-101804761D01*
X186233333Y-101757142D01*
X186185714Y-101661904D01*
X186138095Y-101471428D01*
X186138095Y-101233333D01*
X186185714Y-101042857D01*
X186233333Y-100947619D01*
X186280952Y-100900000D01*
X186376190Y-100852380D01*
X187042857Y-100852380D02*
X187661904Y-100852380D01*
X187328571Y-101233333D01*
X187471428Y-101233333D01*
X187566666Y-101280952D01*
X187614285Y-101328571D01*
X187661904Y-101423809D01*
X187661904Y-101661904D01*
X187614285Y-101757142D01*
X187566666Y-101804761D01*
X187471428Y-101852380D01*
X187185714Y-101852380D01*
X187090476Y-101804761D01*
X187042857Y-101757142D01*
X178557142Y-96892857D02*
X178604761Y-96940476D01*
X178652380Y-97083333D01*
X178652380Y-97178571D01*
X178604761Y-97321428D01*
X178509523Y-97416666D01*
X178414285Y-97464285D01*
X178223809Y-97511904D01*
X178080952Y-97511904D01*
X177890476Y-97464285D01*
X177795238Y-97416666D01*
X177700000Y-97321428D01*
X177652380Y-97178571D01*
X177652380Y-97083333D01*
X177700000Y-96940476D01*
X177747619Y-96892857D01*
X177652380Y-96273809D02*
X177652380Y-96178571D01*
X177700000Y-96083333D01*
X177747619Y-96035714D01*
X177842857Y-95988095D01*
X178033333Y-95940476D01*
X178271428Y-95940476D01*
X178461904Y-95988095D01*
X178557142Y-96035714D01*
X178604761Y-96083333D01*
X178652380Y-96178571D01*
X178652380Y-96273809D01*
X178604761Y-96369047D01*
X178557142Y-96416666D01*
X178461904Y-96464285D01*
X178271428Y-96511904D01*
X178033333Y-96511904D01*
X177842857Y-96464285D01*
X177747619Y-96416666D01*
X177700000Y-96369047D01*
X177652380Y-96273809D01*
X177985714Y-95083333D02*
X178652380Y-95083333D01*
X177604761Y-95321428D02*
X178319047Y-95559523D01*
X178319047Y-94940476D01*
X181057142Y-96892857D02*
X181104761Y-96940476D01*
X181152380Y-97083333D01*
X181152380Y-97178571D01*
X181104761Y-97321428D01*
X181009523Y-97416666D01*
X180914285Y-97464285D01*
X180723809Y-97511904D01*
X180580952Y-97511904D01*
X180390476Y-97464285D01*
X180295238Y-97416666D01*
X180200000Y-97321428D01*
X180152380Y-97178571D01*
X180152380Y-97083333D01*
X180200000Y-96940476D01*
X180247619Y-96892857D01*
X180152380Y-96273809D02*
X180152380Y-96178571D01*
X180200000Y-96083333D01*
X180247619Y-96035714D01*
X180342857Y-95988095D01*
X180533333Y-95940476D01*
X180771428Y-95940476D01*
X180961904Y-95988095D01*
X181057142Y-96035714D01*
X181104761Y-96083333D01*
X181152380Y-96178571D01*
X181152380Y-96273809D01*
X181104761Y-96369047D01*
X181057142Y-96416666D01*
X180961904Y-96464285D01*
X180771428Y-96511904D01*
X180533333Y-96511904D01*
X180342857Y-96464285D01*
X180247619Y-96416666D01*
X180200000Y-96369047D01*
X180152380Y-96273809D01*
X180152380Y-95035714D02*
X180152380Y-95511904D01*
X180628571Y-95559523D01*
X180580952Y-95511904D01*
X180533333Y-95416666D01*
X180533333Y-95178571D01*
X180580952Y-95083333D01*
X180628571Y-95035714D01*
X180723809Y-94988095D01*
X180961904Y-94988095D01*
X181057142Y-95035714D01*
X181104761Y-95083333D01*
X181152380Y-95178571D01*
X181152380Y-95416666D01*
X181104761Y-95511904D01*
X181057142Y-95559523D01*
X141307142Y-114157142D02*
X141259523Y-114204761D01*
X141116666Y-114252380D01*
X141021428Y-114252380D01*
X140878571Y-114204761D01*
X140783333Y-114109523D01*
X140735714Y-114014285D01*
X140688095Y-113823809D01*
X140688095Y-113680952D01*
X140735714Y-113490476D01*
X140783333Y-113395238D01*
X140878571Y-113300000D01*
X141021428Y-113252380D01*
X141116666Y-113252380D01*
X141259523Y-113300000D01*
X141307142Y-113347619D01*
X142259523Y-114252380D02*
X141688095Y-114252380D01*
X141973809Y-114252380D02*
X141973809Y-113252380D01*
X141878571Y-113395238D01*
X141783333Y-113490476D01*
X141688095Y-113538095D01*
X143211904Y-114252380D02*
X142640476Y-114252380D01*
X142926190Y-114252380D02*
X142926190Y-113252380D01*
X142830952Y-113395238D01*
X142735714Y-113490476D01*
X142640476Y-113538095D01*
X136557142Y-109807142D02*
X136509523Y-109854761D01*
X136366666Y-109902380D01*
X136271428Y-109902380D01*
X136128571Y-109854761D01*
X136033333Y-109759523D01*
X135985714Y-109664285D01*
X135938095Y-109473809D01*
X135938095Y-109330952D01*
X135985714Y-109140476D01*
X136033333Y-109045238D01*
X136128571Y-108950000D01*
X136271428Y-108902380D01*
X136366666Y-108902380D01*
X136509523Y-108950000D01*
X136557142Y-108997619D01*
X137509523Y-109902380D02*
X136938095Y-109902380D01*
X137223809Y-109902380D02*
X137223809Y-108902380D01*
X137128571Y-109045238D01*
X137033333Y-109140476D01*
X136938095Y-109188095D01*
X137890476Y-108997619D02*
X137938095Y-108950000D01*
X138033333Y-108902380D01*
X138271428Y-108902380D01*
X138366666Y-108950000D01*
X138414285Y-108997619D01*
X138461904Y-109092857D01*
X138461904Y-109188095D01*
X138414285Y-109330952D01*
X137842857Y-109902380D01*
X138461904Y-109902380D01*
X133527142Y-115842857D02*
X133574761Y-115890476D01*
X133622380Y-116033333D01*
X133622380Y-116128571D01*
X133574761Y-116271428D01*
X133479523Y-116366666D01*
X133384285Y-116414285D01*
X133193809Y-116461904D01*
X133050952Y-116461904D01*
X132860476Y-116414285D01*
X132765238Y-116366666D01*
X132670000Y-116271428D01*
X132622380Y-116128571D01*
X132622380Y-116033333D01*
X132670000Y-115890476D01*
X132717619Y-115842857D01*
X133622380Y-114890476D02*
X133622380Y-115461904D01*
X133622380Y-115176190D02*
X132622380Y-115176190D01*
X132765238Y-115271428D01*
X132860476Y-115366666D01*
X132908095Y-115461904D01*
X132622380Y-114557142D02*
X132622380Y-113938095D01*
X133003333Y-114271428D01*
X133003333Y-114128571D01*
X133050952Y-114033333D01*
X133098571Y-113985714D01*
X133193809Y-113938095D01*
X133431904Y-113938095D01*
X133527142Y-113985714D01*
X133574761Y-114033333D01*
X133622380Y-114128571D01*
X133622380Y-114414285D01*
X133574761Y-114509523D01*
X133527142Y-114557142D01*
X132307142Y-124207142D02*
X132259523Y-124254761D01*
X132116666Y-124302380D01*
X132021428Y-124302380D01*
X131878571Y-124254761D01*
X131783333Y-124159523D01*
X131735714Y-124064285D01*
X131688095Y-123873809D01*
X131688095Y-123730952D01*
X131735714Y-123540476D01*
X131783333Y-123445238D01*
X131878571Y-123350000D01*
X132021428Y-123302380D01*
X132116666Y-123302380D01*
X132259523Y-123350000D01*
X132307142Y-123397619D01*
X133259523Y-124302380D02*
X132688095Y-124302380D01*
X132973809Y-124302380D02*
X132973809Y-123302380D01*
X132878571Y-123445238D01*
X132783333Y-123540476D01*
X132688095Y-123588095D01*
X134116666Y-123635714D02*
X134116666Y-124302380D01*
X133878571Y-123254761D02*
X133640476Y-123969047D01*
X134259523Y-123969047D01*
X138857142Y-130492857D02*
X138904761Y-130540476D01*
X138952380Y-130683333D01*
X138952380Y-130778571D01*
X138904761Y-130921428D01*
X138809523Y-131016666D01*
X138714285Y-131064285D01*
X138523809Y-131111904D01*
X138380952Y-131111904D01*
X138190476Y-131064285D01*
X138095238Y-131016666D01*
X138000000Y-130921428D01*
X137952380Y-130778571D01*
X137952380Y-130683333D01*
X138000000Y-130540476D01*
X138047619Y-130492857D01*
X138952380Y-129540476D02*
X138952380Y-130111904D01*
X138952380Y-129826190D02*
X137952380Y-129826190D01*
X138095238Y-129921428D01*
X138190476Y-130016666D01*
X138238095Y-130111904D01*
X137952380Y-128635714D02*
X137952380Y-129111904D01*
X138428571Y-129159523D01*
X138380952Y-129111904D01*
X138333333Y-129016666D01*
X138333333Y-128778571D01*
X138380952Y-128683333D01*
X138428571Y-128635714D01*
X138523809Y-128588095D01*
X138761904Y-128588095D01*
X138857142Y-128635714D01*
X138904761Y-128683333D01*
X138952380Y-128778571D01*
X138952380Y-129016666D01*
X138904761Y-129111904D01*
X138857142Y-129159523D01*
X137357142Y-133492857D02*
X137404761Y-133540476D01*
X137452380Y-133683333D01*
X137452380Y-133778571D01*
X137404761Y-133921428D01*
X137309523Y-134016666D01*
X137214285Y-134064285D01*
X137023809Y-134111904D01*
X136880952Y-134111904D01*
X136690476Y-134064285D01*
X136595238Y-134016666D01*
X136500000Y-133921428D01*
X136452380Y-133778571D01*
X136452380Y-133683333D01*
X136500000Y-133540476D01*
X136547619Y-133492857D01*
X137452380Y-132540476D02*
X137452380Y-133111904D01*
X137452380Y-132826190D02*
X136452380Y-132826190D01*
X136595238Y-132921428D01*
X136690476Y-133016666D01*
X136738095Y-133111904D01*
X136452380Y-131683333D02*
X136452380Y-131873809D01*
X136500000Y-131969047D01*
X136547619Y-132016666D01*
X136690476Y-132111904D01*
X136880952Y-132159523D01*
X137261904Y-132159523D01*
X137357142Y-132111904D01*
X137404761Y-132064285D01*
X137452380Y-131969047D01*
X137452380Y-131778571D01*
X137404761Y-131683333D01*
X137357142Y-131635714D01*
X137261904Y-131588095D01*
X137023809Y-131588095D01*
X136928571Y-131635714D01*
X136880952Y-131683333D01*
X136833333Y-131778571D01*
X136833333Y-131969047D01*
X136880952Y-132064285D01*
X136928571Y-132111904D01*
X137023809Y-132159523D01*
X142157142Y-130942857D02*
X142204761Y-130990476D01*
X142252380Y-131133333D01*
X142252380Y-131228571D01*
X142204761Y-131371428D01*
X142109523Y-131466666D01*
X142014285Y-131514285D01*
X141823809Y-131561904D01*
X141680952Y-131561904D01*
X141490476Y-131514285D01*
X141395238Y-131466666D01*
X141300000Y-131371428D01*
X141252380Y-131228571D01*
X141252380Y-131133333D01*
X141300000Y-130990476D01*
X141347619Y-130942857D01*
X142252380Y-129990476D02*
X142252380Y-130561904D01*
X142252380Y-130276190D02*
X141252380Y-130276190D01*
X141395238Y-130371428D01*
X141490476Y-130466666D01*
X141538095Y-130561904D01*
X141252380Y-129657142D02*
X141252380Y-128990476D01*
X142252380Y-129419047D01*
X147857142Y-119642857D02*
X147904761Y-119690476D01*
X147952380Y-119833333D01*
X147952380Y-119928571D01*
X147904761Y-120071428D01*
X147809523Y-120166666D01*
X147714285Y-120214285D01*
X147523809Y-120261904D01*
X147380952Y-120261904D01*
X147190476Y-120214285D01*
X147095238Y-120166666D01*
X147000000Y-120071428D01*
X146952380Y-119928571D01*
X146952380Y-119833333D01*
X147000000Y-119690476D01*
X147047619Y-119642857D01*
X147047619Y-119261904D02*
X147000000Y-119214285D01*
X146952380Y-119119047D01*
X146952380Y-118880952D01*
X147000000Y-118785714D01*
X147047619Y-118738095D01*
X147142857Y-118690476D01*
X147238095Y-118690476D01*
X147380952Y-118738095D01*
X147952380Y-119309523D01*
X147952380Y-118690476D01*
X147952380Y-117738095D02*
X147952380Y-118309523D01*
X147952380Y-118023809D02*
X146952380Y-118023809D01*
X147095238Y-118119047D01*
X147190476Y-118214285D01*
X147238095Y-118309523D01*
X147907142Y-123042857D02*
X147954761Y-123090476D01*
X148002380Y-123233333D01*
X148002380Y-123328571D01*
X147954761Y-123471428D01*
X147859523Y-123566666D01*
X147764285Y-123614285D01*
X147573809Y-123661904D01*
X147430952Y-123661904D01*
X147240476Y-123614285D01*
X147145238Y-123566666D01*
X147050000Y-123471428D01*
X147002380Y-123328571D01*
X147002380Y-123233333D01*
X147050000Y-123090476D01*
X147097619Y-123042857D01*
X147097619Y-122661904D02*
X147050000Y-122614285D01*
X147002380Y-122519047D01*
X147002380Y-122280952D01*
X147050000Y-122185714D01*
X147097619Y-122138095D01*
X147192857Y-122090476D01*
X147288095Y-122090476D01*
X147430952Y-122138095D01*
X148002380Y-122709523D01*
X148002380Y-122090476D01*
X147097619Y-121709523D02*
X147050000Y-121661904D01*
X147002380Y-121566666D01*
X147002380Y-121328571D01*
X147050000Y-121233333D01*
X147097619Y-121185714D01*
X147192857Y-121138095D01*
X147288095Y-121138095D01*
X147430952Y-121185714D01*
X148002380Y-121757142D01*
X148002380Y-121138095D01*
X148607142Y-129257142D02*
X148559523Y-129304761D01*
X148416666Y-129352380D01*
X148321428Y-129352380D01*
X148178571Y-129304761D01*
X148083333Y-129209523D01*
X148035714Y-129114285D01*
X147988095Y-128923809D01*
X147988095Y-128780952D01*
X148035714Y-128590476D01*
X148083333Y-128495238D01*
X148178571Y-128400000D01*
X148321428Y-128352380D01*
X148416666Y-128352380D01*
X148559523Y-128400000D01*
X148607142Y-128447619D01*
X148940476Y-128352380D02*
X149559523Y-128352380D01*
X149226190Y-128733333D01*
X149369047Y-128733333D01*
X149464285Y-128780952D01*
X149511904Y-128828571D01*
X149559523Y-128923809D01*
X149559523Y-129161904D01*
X149511904Y-129257142D01*
X149464285Y-129304761D01*
X149369047Y-129352380D01*
X149083333Y-129352380D01*
X148988095Y-129304761D01*
X148940476Y-129257142D01*
X150511904Y-129352380D02*
X149940476Y-129352380D01*
X150226190Y-129352380D02*
X150226190Y-128352380D01*
X150130952Y-128495238D01*
X150035714Y-128590476D01*
X149940476Y-128638095D01*
X148507142Y-132757142D02*
X148459523Y-132804761D01*
X148316666Y-132852380D01*
X148221428Y-132852380D01*
X148078571Y-132804761D01*
X147983333Y-132709523D01*
X147935714Y-132614285D01*
X147888095Y-132423809D01*
X147888095Y-132280952D01*
X147935714Y-132090476D01*
X147983333Y-131995238D01*
X148078571Y-131900000D01*
X148221428Y-131852380D01*
X148316666Y-131852380D01*
X148459523Y-131900000D01*
X148507142Y-131947619D01*
X148840476Y-131852380D02*
X149459523Y-131852380D01*
X149126190Y-132233333D01*
X149269047Y-132233333D01*
X149364285Y-132280952D01*
X149411904Y-132328571D01*
X149459523Y-132423809D01*
X149459523Y-132661904D01*
X149411904Y-132757142D01*
X149364285Y-132804761D01*
X149269047Y-132852380D01*
X148983333Y-132852380D01*
X148888095Y-132804761D01*
X148840476Y-132757142D01*
X149840476Y-131947619D02*
X149888095Y-131900000D01*
X149983333Y-131852380D01*
X150221428Y-131852380D01*
X150316666Y-131900000D01*
X150364285Y-131947619D01*
X150411904Y-132042857D01*
X150411904Y-132138095D01*
X150364285Y-132280952D01*
X149792857Y-132852380D01*
X150411904Y-132852380D01*
X148457142Y-136257142D02*
X148409523Y-136304761D01*
X148266666Y-136352380D01*
X148171428Y-136352380D01*
X148028571Y-136304761D01*
X147933333Y-136209523D01*
X147885714Y-136114285D01*
X147838095Y-135923809D01*
X147838095Y-135780952D01*
X147885714Y-135590476D01*
X147933333Y-135495238D01*
X148028571Y-135400000D01*
X148171428Y-135352380D01*
X148266666Y-135352380D01*
X148409523Y-135400000D01*
X148457142Y-135447619D01*
X148790476Y-135352380D02*
X149409523Y-135352380D01*
X149076190Y-135733333D01*
X149219047Y-135733333D01*
X149314285Y-135780952D01*
X149361904Y-135828571D01*
X149409523Y-135923809D01*
X149409523Y-136161904D01*
X149361904Y-136257142D01*
X149314285Y-136304761D01*
X149219047Y-136352380D01*
X148933333Y-136352380D01*
X148838095Y-136304761D01*
X148790476Y-136257142D01*
X149742857Y-135352380D02*
X150361904Y-135352380D01*
X150028571Y-135733333D01*
X150171428Y-135733333D01*
X150266666Y-135780952D01*
X150314285Y-135828571D01*
X150361904Y-135923809D01*
X150361904Y-136161904D01*
X150314285Y-136257142D01*
X150266666Y-136304761D01*
X150171428Y-136352380D01*
X149885714Y-136352380D01*
X149790476Y-136304761D01*
X149742857Y-136257142D01*
X167657142Y-138442857D02*
X167704761Y-138490476D01*
X167752380Y-138633333D01*
X167752380Y-138728571D01*
X167704761Y-138871428D01*
X167609523Y-138966666D01*
X167514285Y-139014285D01*
X167323809Y-139061904D01*
X167180952Y-139061904D01*
X166990476Y-139014285D01*
X166895238Y-138966666D01*
X166800000Y-138871428D01*
X166752380Y-138728571D01*
X166752380Y-138633333D01*
X166800000Y-138490476D01*
X166847619Y-138442857D01*
X166752380Y-138109523D02*
X166752380Y-137490476D01*
X167133333Y-137823809D01*
X167133333Y-137680952D01*
X167180952Y-137585714D01*
X167228571Y-137538095D01*
X167323809Y-137490476D01*
X167561904Y-137490476D01*
X167657142Y-137538095D01*
X167704761Y-137585714D01*
X167752380Y-137680952D01*
X167752380Y-137966666D01*
X167704761Y-138061904D01*
X167657142Y-138109523D01*
X167085714Y-136633333D02*
X167752380Y-136633333D01*
X166704761Y-136871428D02*
X167419047Y-137109523D01*
X167419047Y-136490476D01*
X181057142Y-138057142D02*
X181009523Y-138104761D01*
X180866666Y-138152380D01*
X180771428Y-138152380D01*
X180628571Y-138104761D01*
X180533333Y-138009523D01*
X180485714Y-137914285D01*
X180438095Y-137723809D01*
X180438095Y-137580952D01*
X180485714Y-137390476D01*
X180533333Y-137295238D01*
X180628571Y-137200000D01*
X180771428Y-137152380D01*
X180866666Y-137152380D01*
X181009523Y-137200000D01*
X181057142Y-137247619D01*
X181390476Y-137152380D02*
X182009523Y-137152380D01*
X181676190Y-137533333D01*
X181819047Y-137533333D01*
X181914285Y-137580952D01*
X181961904Y-137628571D01*
X182009523Y-137723809D01*
X182009523Y-137961904D01*
X181961904Y-138057142D01*
X181914285Y-138104761D01*
X181819047Y-138152380D01*
X181533333Y-138152380D01*
X181438095Y-138104761D01*
X181390476Y-138057142D01*
X182914285Y-137152380D02*
X182438095Y-137152380D01*
X182390476Y-137628571D01*
X182438095Y-137580952D01*
X182533333Y-137533333D01*
X182771428Y-137533333D01*
X182866666Y-137580952D01*
X182914285Y-137628571D01*
X182961904Y-137723809D01*
X182961904Y-137961904D01*
X182914285Y-138057142D01*
X182866666Y-138104761D01*
X182771428Y-138152380D01*
X182533333Y-138152380D01*
X182438095Y-138104761D01*
X182390476Y-138057142D01*
X192057142Y-138057142D02*
X192009523Y-138104761D01*
X191866666Y-138152380D01*
X191771428Y-138152380D01*
X191628571Y-138104761D01*
X191533333Y-138009523D01*
X191485714Y-137914285D01*
X191438095Y-137723809D01*
X191438095Y-137580952D01*
X191485714Y-137390476D01*
X191533333Y-137295238D01*
X191628571Y-137200000D01*
X191771428Y-137152380D01*
X191866666Y-137152380D01*
X192009523Y-137200000D01*
X192057142Y-137247619D01*
X192390476Y-137152380D02*
X193009523Y-137152380D01*
X192676190Y-137533333D01*
X192819047Y-137533333D01*
X192914285Y-137580952D01*
X192961904Y-137628571D01*
X193009523Y-137723809D01*
X193009523Y-137961904D01*
X192961904Y-138057142D01*
X192914285Y-138104761D01*
X192819047Y-138152380D01*
X192533333Y-138152380D01*
X192438095Y-138104761D01*
X192390476Y-138057142D01*
X193866666Y-137152380D02*
X193676190Y-137152380D01*
X193580952Y-137200000D01*
X193533333Y-137247619D01*
X193438095Y-137390476D01*
X193390476Y-137580952D01*
X193390476Y-137961904D01*
X193438095Y-138057142D01*
X193485714Y-138104761D01*
X193580952Y-138152380D01*
X193771428Y-138152380D01*
X193866666Y-138104761D01*
X193914285Y-138057142D01*
X193961904Y-137961904D01*
X193961904Y-137723809D01*
X193914285Y-137628571D01*
X193866666Y-137580952D01*
X193771428Y-137533333D01*
X193580952Y-137533333D01*
X193485714Y-137580952D01*
X193438095Y-137628571D01*
X193390476Y-137723809D01*
X168507619Y-103321428D02*
X168460000Y-103416666D01*
X168364761Y-103511904D01*
X168221904Y-103654761D01*
X168174285Y-103750000D01*
X168174285Y-103845238D01*
X168412380Y-103797619D02*
X168364761Y-103892857D01*
X168269523Y-103988095D01*
X168079047Y-104035714D01*
X167745714Y-104035714D01*
X167555238Y-103988095D01*
X167460000Y-103892857D01*
X167412380Y-103797619D01*
X167412380Y-103607142D01*
X167460000Y-103511904D01*
X167555238Y-103416666D01*
X167745714Y-103369047D01*
X168079047Y-103369047D01*
X168269523Y-103416666D01*
X168364761Y-103511904D01*
X168412380Y-103607142D01*
X168412380Y-103797619D01*
X167507619Y-102988095D02*
X167460000Y-102940476D01*
X167412380Y-102845238D01*
X167412380Y-102607142D01*
X167460000Y-102511904D01*
X167507619Y-102464285D01*
X167602857Y-102416666D01*
X167698095Y-102416666D01*
X167840952Y-102464285D01*
X168412380Y-103035714D01*
X168412380Y-102416666D01*
X168412380Y-101464285D02*
X168412380Y-102035714D01*
X168412380Y-101750000D02*
X167412380Y-101750000D01*
X167555238Y-101845238D01*
X167650476Y-101940476D01*
X167698095Y-102035714D01*
X155507619Y-110921428D02*
X155460000Y-111016666D01*
X155364761Y-111111904D01*
X155221904Y-111254761D01*
X155174285Y-111350000D01*
X155174285Y-111445238D01*
X155412380Y-111397619D02*
X155364761Y-111492857D01*
X155269523Y-111588095D01*
X155079047Y-111635714D01*
X154745714Y-111635714D01*
X154555238Y-111588095D01*
X154460000Y-111492857D01*
X154412380Y-111397619D01*
X154412380Y-111207142D01*
X154460000Y-111111904D01*
X154555238Y-111016666D01*
X154745714Y-110969047D01*
X155079047Y-110969047D01*
X155269523Y-111016666D01*
X155364761Y-111111904D01*
X155412380Y-111207142D01*
X155412380Y-111397619D01*
X154507619Y-110588095D02*
X154460000Y-110540476D01*
X154412380Y-110445238D01*
X154412380Y-110207142D01*
X154460000Y-110111904D01*
X154507619Y-110064285D01*
X154602857Y-110016666D01*
X154698095Y-110016666D01*
X154840952Y-110064285D01*
X155412380Y-110635714D01*
X155412380Y-110016666D01*
X154507619Y-109635714D02*
X154460000Y-109588095D01*
X154412380Y-109492857D01*
X154412380Y-109254761D01*
X154460000Y-109159523D01*
X154507619Y-109111904D01*
X154602857Y-109064285D01*
X154698095Y-109064285D01*
X154840952Y-109111904D01*
X155412380Y-109683333D01*
X155412380Y-109064285D01*
X161407619Y-119121428D02*
X161360000Y-119216666D01*
X161264761Y-119311904D01*
X161121904Y-119454761D01*
X161074285Y-119550000D01*
X161074285Y-119645238D01*
X161312380Y-119597619D02*
X161264761Y-119692857D01*
X161169523Y-119788095D01*
X160979047Y-119835714D01*
X160645714Y-119835714D01*
X160455238Y-119788095D01*
X160360000Y-119692857D01*
X160312380Y-119597619D01*
X160312380Y-119407142D01*
X160360000Y-119311904D01*
X160455238Y-119216666D01*
X160645714Y-119169047D01*
X160979047Y-119169047D01*
X161169523Y-119216666D01*
X161264761Y-119311904D01*
X161312380Y-119407142D01*
X161312380Y-119597619D01*
X160407619Y-118788095D02*
X160360000Y-118740476D01*
X160312380Y-118645238D01*
X160312380Y-118407142D01*
X160360000Y-118311904D01*
X160407619Y-118264285D01*
X160502857Y-118216666D01*
X160598095Y-118216666D01*
X160740952Y-118264285D01*
X161312380Y-118835714D01*
X161312380Y-118216666D01*
X160312380Y-117883333D02*
X160312380Y-117264285D01*
X160693333Y-117597619D01*
X160693333Y-117454761D01*
X160740952Y-117359523D01*
X160788571Y-117311904D01*
X160883809Y-117264285D01*
X161121904Y-117264285D01*
X161217142Y-117311904D01*
X161264761Y-117359523D01*
X161312380Y-117454761D01*
X161312380Y-117740476D01*
X161264761Y-117835714D01*
X161217142Y-117883333D01*
X165087619Y-126721428D02*
X165040000Y-126816666D01*
X164944761Y-126911904D01*
X164801904Y-127054761D01*
X164754285Y-127150000D01*
X164754285Y-127245238D01*
X164992380Y-127197619D02*
X164944761Y-127292857D01*
X164849523Y-127388095D01*
X164659047Y-127435714D01*
X164325714Y-127435714D01*
X164135238Y-127388095D01*
X164040000Y-127292857D01*
X163992380Y-127197619D01*
X163992380Y-127007142D01*
X164040000Y-126911904D01*
X164135238Y-126816666D01*
X164325714Y-126769047D01*
X164659047Y-126769047D01*
X164849523Y-126816666D01*
X164944761Y-126911904D01*
X164992380Y-127007142D01*
X164992380Y-127197619D01*
X164087619Y-126388095D02*
X164040000Y-126340476D01*
X163992380Y-126245238D01*
X163992380Y-126007142D01*
X164040000Y-125911904D01*
X164087619Y-125864285D01*
X164182857Y-125816666D01*
X164278095Y-125816666D01*
X164420952Y-125864285D01*
X164992380Y-126435714D01*
X164992380Y-125816666D01*
X164325714Y-124959523D02*
X164992380Y-124959523D01*
X163944761Y-125197619D02*
X164659047Y-125435714D01*
X164659047Y-124816666D01*
X140957142Y-116052380D02*
X140623809Y-115576190D01*
X140385714Y-116052380D02*
X140385714Y-115052380D01*
X140766666Y-115052380D01*
X140861904Y-115100000D01*
X140909523Y-115147619D01*
X140957142Y-115242857D01*
X140957142Y-115385714D01*
X140909523Y-115480952D01*
X140861904Y-115528571D01*
X140766666Y-115576190D01*
X140385714Y-115576190D01*
X141576190Y-115052380D02*
X141671428Y-115052380D01*
X141766666Y-115100000D01*
X141814285Y-115147619D01*
X141861904Y-115242857D01*
X141909523Y-115433333D01*
X141909523Y-115671428D01*
X141861904Y-115861904D01*
X141814285Y-115957142D01*
X141766666Y-116004761D01*
X141671428Y-116052380D01*
X141576190Y-116052380D01*
X141480952Y-116004761D01*
X141433333Y-115957142D01*
X141385714Y-115861904D01*
X141338095Y-115671428D01*
X141338095Y-115433333D01*
X141385714Y-115242857D01*
X141433333Y-115147619D01*
X141480952Y-115100000D01*
X141576190Y-115052380D01*
X142861904Y-116052380D02*
X142290476Y-116052380D01*
X142576190Y-116052380D02*
X142576190Y-115052380D01*
X142480952Y-115195238D01*
X142385714Y-115290476D01*
X142290476Y-115338095D01*
X135107142Y-113402380D02*
X134773809Y-112926190D01*
X134535714Y-113402380D02*
X134535714Y-112402380D01*
X134916666Y-112402380D01*
X135011904Y-112450000D01*
X135059523Y-112497619D01*
X135107142Y-112592857D01*
X135107142Y-112735714D01*
X135059523Y-112830952D01*
X135011904Y-112878571D01*
X134916666Y-112926190D01*
X134535714Y-112926190D01*
X135726190Y-112402380D02*
X135821428Y-112402380D01*
X135916666Y-112450000D01*
X135964285Y-112497619D01*
X136011904Y-112592857D01*
X136059523Y-112783333D01*
X136059523Y-113021428D01*
X136011904Y-113211904D01*
X135964285Y-113307142D01*
X135916666Y-113354761D01*
X135821428Y-113402380D01*
X135726190Y-113402380D01*
X135630952Y-113354761D01*
X135583333Y-113307142D01*
X135535714Y-113211904D01*
X135488095Y-113021428D01*
X135488095Y-112783333D01*
X135535714Y-112592857D01*
X135583333Y-112497619D01*
X135630952Y-112450000D01*
X135726190Y-112402380D01*
X136440476Y-112497619D02*
X136488095Y-112450000D01*
X136583333Y-112402380D01*
X136821428Y-112402380D01*
X136916666Y-112450000D01*
X136964285Y-112497619D01*
X137011904Y-112592857D01*
X137011904Y-112688095D01*
X136964285Y-112830952D01*
X136392857Y-113402380D01*
X137011904Y-113402380D01*
X132822380Y-121342857D02*
X132346190Y-121676190D01*
X132822380Y-121914285D02*
X131822380Y-121914285D01*
X131822380Y-121533333D01*
X131870000Y-121438095D01*
X131917619Y-121390476D01*
X132012857Y-121342857D01*
X132155714Y-121342857D01*
X132250952Y-121390476D01*
X132298571Y-121438095D01*
X132346190Y-121533333D01*
X132346190Y-121914285D01*
X132822380Y-120390476D02*
X132822380Y-120961904D01*
X132822380Y-120676190D02*
X131822380Y-120676190D01*
X131965238Y-120771428D01*
X132060476Y-120866666D01*
X132108095Y-120961904D01*
X132822380Y-119438095D02*
X132822380Y-120009523D01*
X132822380Y-119723809D02*
X131822380Y-119723809D01*
X131965238Y-119819047D01*
X132060476Y-119914285D01*
X132108095Y-120009523D01*
X140452380Y-129442857D02*
X139976190Y-129776190D01*
X140452380Y-130014285D02*
X139452380Y-130014285D01*
X139452380Y-129633333D01*
X139500000Y-129538095D01*
X139547619Y-129490476D01*
X139642857Y-129442857D01*
X139785714Y-129442857D01*
X139880952Y-129490476D01*
X139928571Y-129538095D01*
X139976190Y-129633333D01*
X139976190Y-130014285D01*
X140452380Y-128490476D02*
X140452380Y-129061904D01*
X140452380Y-128776190D02*
X139452380Y-128776190D01*
X139595238Y-128871428D01*
X139690476Y-128966666D01*
X139738095Y-129061904D01*
X139547619Y-128109523D02*
X139500000Y-128061904D01*
X139452380Y-127966666D01*
X139452380Y-127728571D01*
X139500000Y-127633333D01*
X139547619Y-127585714D01*
X139642857Y-127538095D01*
X139738095Y-127538095D01*
X139880952Y-127585714D01*
X140452380Y-128157142D01*
X140452380Y-127538095D01*
X136407142Y-125502380D02*
X136073809Y-125026190D01*
X135835714Y-125502380D02*
X135835714Y-124502380D01*
X136216666Y-124502380D01*
X136311904Y-124550000D01*
X136359523Y-124597619D01*
X136407142Y-124692857D01*
X136407142Y-124835714D01*
X136359523Y-124930952D01*
X136311904Y-124978571D01*
X136216666Y-125026190D01*
X135835714Y-125026190D01*
X137359523Y-125502380D02*
X136788095Y-125502380D01*
X137073809Y-125502380D02*
X137073809Y-124502380D01*
X136978571Y-124645238D01*
X136883333Y-124740476D01*
X136788095Y-124788095D01*
X137692857Y-124502380D02*
X138311904Y-124502380D01*
X137978571Y-124883333D01*
X138121428Y-124883333D01*
X138216666Y-124930952D01*
X138264285Y-124978571D01*
X138311904Y-125073809D01*
X138311904Y-125311904D01*
X138264285Y-125407142D01*
X138216666Y-125454761D01*
X138121428Y-125502380D01*
X137835714Y-125502380D01*
X137740476Y-125454761D01*
X137692857Y-125407142D01*
X167757142Y-113272380D02*
X167423809Y-112796190D01*
X167185714Y-113272380D02*
X167185714Y-112272380D01*
X167566666Y-112272380D01*
X167661904Y-112320000D01*
X167709523Y-112367619D01*
X167757142Y-112462857D01*
X167757142Y-112605714D01*
X167709523Y-112700952D01*
X167661904Y-112748571D01*
X167566666Y-112796190D01*
X167185714Y-112796190D01*
X168138095Y-112367619D02*
X168185714Y-112320000D01*
X168280952Y-112272380D01*
X168519047Y-112272380D01*
X168614285Y-112320000D01*
X168661904Y-112367619D01*
X168709523Y-112462857D01*
X168709523Y-112558095D01*
X168661904Y-112700952D01*
X168090476Y-113272380D01*
X168709523Y-113272380D01*
X169661904Y-113272380D02*
X169090476Y-113272380D01*
X169376190Y-113272380D02*
X169376190Y-112272380D01*
X169280952Y-112415238D01*
X169185714Y-112510476D01*
X169090476Y-112558095D01*
X170657142Y-136672380D02*
X170323809Y-136196190D01*
X170085714Y-136672380D02*
X170085714Y-135672380D01*
X170466666Y-135672380D01*
X170561904Y-135720000D01*
X170609523Y-135767619D01*
X170657142Y-135862857D01*
X170657142Y-136005714D01*
X170609523Y-136100952D01*
X170561904Y-136148571D01*
X170466666Y-136196190D01*
X170085714Y-136196190D01*
X170990476Y-135672380D02*
X171609523Y-135672380D01*
X171276190Y-136053333D01*
X171419047Y-136053333D01*
X171514285Y-136100952D01*
X171561904Y-136148571D01*
X171609523Y-136243809D01*
X171609523Y-136481904D01*
X171561904Y-136577142D01*
X171514285Y-136624761D01*
X171419047Y-136672380D01*
X171133333Y-136672380D01*
X171038095Y-136624761D01*
X170990476Y-136577142D01*
X172561904Y-136672380D02*
X171990476Y-136672380D01*
X172276190Y-136672380D02*
X172276190Y-135672380D01*
X172180952Y-135815238D01*
X172085714Y-135910476D01*
X171990476Y-135958095D01*
X131307142Y-127052380D02*
X130973809Y-126576190D01*
X130735714Y-127052380D02*
X130735714Y-126052380D01*
X131116666Y-126052380D01*
X131211904Y-126100000D01*
X131259523Y-126147619D01*
X131307142Y-126242857D01*
X131307142Y-126385714D01*
X131259523Y-126480952D01*
X131211904Y-126528571D01*
X131116666Y-126576190D01*
X130735714Y-126576190D01*
X131640476Y-126052380D02*
X132259523Y-126052380D01*
X131926190Y-126433333D01*
X132069047Y-126433333D01*
X132164285Y-126480952D01*
X132211904Y-126528571D01*
X132259523Y-126623809D01*
X132259523Y-126861904D01*
X132211904Y-126957142D01*
X132164285Y-127004761D01*
X132069047Y-127052380D01*
X131783333Y-127052380D01*
X131688095Y-127004761D01*
X131640476Y-126957142D01*
X132640476Y-126147619D02*
X132688095Y-126100000D01*
X132783333Y-126052380D01*
X133021428Y-126052380D01*
X133116666Y-126100000D01*
X133164285Y-126147619D01*
X133211904Y-126242857D01*
X133211904Y-126338095D01*
X133164285Y-126480952D01*
X132592857Y-127052380D01*
X133211904Y-127052380D01*
X136002380Y-132342857D02*
X135526190Y-132676190D01*
X136002380Y-132914285D02*
X135002380Y-132914285D01*
X135002380Y-132533333D01*
X135050000Y-132438095D01*
X135097619Y-132390476D01*
X135192857Y-132342857D01*
X135335714Y-132342857D01*
X135430952Y-132390476D01*
X135478571Y-132438095D01*
X135526190Y-132533333D01*
X135526190Y-132914285D01*
X135002380Y-132009523D02*
X135002380Y-131390476D01*
X135383333Y-131723809D01*
X135383333Y-131580952D01*
X135430952Y-131485714D01*
X135478571Y-131438095D01*
X135573809Y-131390476D01*
X135811904Y-131390476D01*
X135907142Y-131438095D01*
X135954761Y-131485714D01*
X136002380Y-131580952D01*
X136002380Y-131866666D01*
X135954761Y-131961904D01*
X135907142Y-132009523D01*
X135002380Y-131057142D02*
X135002380Y-130438095D01*
X135383333Y-130771428D01*
X135383333Y-130628571D01*
X135430952Y-130533333D01*
X135478571Y-130485714D01*
X135573809Y-130438095D01*
X135811904Y-130438095D01*
X135907142Y-130485714D01*
X135954761Y-130533333D01*
X136002380Y-130628571D01*
X136002380Y-130914285D01*
X135954761Y-131009523D01*
X135907142Y-131057142D01*
X143452380Y-121943096D02*
X144261904Y-121943096D01*
X144357142Y-121895477D01*
X144404761Y-121847858D01*
X144452380Y-121752620D01*
X144452380Y-121562143D01*
X144404761Y-121466905D01*
X144357142Y-121419286D01*
X144261904Y-121371667D01*
X143452380Y-121371667D01*
X144452380Y-120371667D02*
X144452380Y-120943096D01*
X144452380Y-120657381D02*
X143452380Y-120657381D01*
X143595238Y-120752620D01*
X143690476Y-120847858D01*
X143738095Y-120943096D01*
X144452380Y-119419286D02*
X144452380Y-119990715D01*
X144452380Y-119705001D02*
X143452380Y-119705001D01*
X143595238Y-119800239D01*
X143690476Y-119895477D01*
X143738095Y-119990715D01*
X195738095Y-116752380D02*
X195738095Y-115752380D01*
X195738095Y-116228571D02*
X196309523Y-116228571D01*
X196309523Y-116752380D02*
X196309523Y-115752380D01*
X197309523Y-116752380D02*
X196738095Y-116752380D01*
X197023809Y-116752380D02*
X197023809Y-115752380D01*
X196928571Y-115895238D01*
X196833333Y-115990476D01*
X196738095Y-116038095D01*
X132738095Y-139452380D02*
X132738095Y-138452380D01*
X132738095Y-138928571D02*
X133309523Y-138928571D01*
X133309523Y-139452380D02*
X133309523Y-138452380D01*
X133738095Y-138547619D02*
X133785714Y-138500000D01*
X133880952Y-138452380D01*
X134119047Y-138452380D01*
X134214285Y-138500000D01*
X134261904Y-138547619D01*
X134309523Y-138642857D01*
X134309523Y-138738095D01*
X134261904Y-138880952D01*
X133690476Y-139452380D01*
X134309523Y-139452380D01*
X135688095Y-97752380D02*
X135688095Y-96752380D01*
X135688095Y-97228571D02*
X136259523Y-97228571D01*
X136259523Y-97752380D02*
X136259523Y-96752380D01*
X136640476Y-96752380D02*
X137259523Y-96752380D01*
X136926190Y-97133333D01*
X137069047Y-97133333D01*
X137164285Y-97180952D01*
X137211904Y-97228571D01*
X137259523Y-97323809D01*
X137259523Y-97561904D01*
X137211904Y-97657142D01*
X137164285Y-97704761D01*
X137069047Y-97752380D01*
X136783333Y-97752380D01*
X136688095Y-97704761D01*
X136640476Y-97657142D01*
M02*
