G04 #@! TF.GenerationSoftware,KiCad,Pcbnew,5.1.4-e60b266~84~ubuntu18.04.1*
G04 #@! TF.CreationDate,2019-10-13T11:44:25+02:00*
G04 #@! TF.ProjectId,Buck_boost,4275636b-5f62-46f6-9f73-742e6b696361,rev?*
G04 #@! TF.SameCoordinates,Original*
G04 #@! TF.FileFunction,Soldermask,Top*
G04 #@! TF.FilePolarity,Negative*
%FSLAX46Y46*%
G04 Gerber Fmt 4.6, Leading zero omitted, Abs format (unit mm)*
G04 Created by KiCad (PCBNEW 5.1.4-e60b266~84~ubuntu18.04.1) date 2019-10-13 11:44:25*
%MOMM*%
%LPD*%
G04 APERTURE LIST*
%ADD10C,0.100000*%
G04 APERTURE END LIST*
D10*
G36*
X209750000Y-131300000D02*
G01*
X209750000Y-137300000D01*
X209350000Y-137700000D01*
X203350000Y-137700000D01*
X203350000Y-130900000D01*
X209350000Y-130900000D01*
X209750000Y-131300000D01*
G37*
X209750000Y-131300000D02*
X209750000Y-137300000D01*
X209350000Y-137700000D01*
X203350000Y-137700000D01*
X203350000Y-130900000D01*
X209350000Y-130900000D01*
X209750000Y-131300000D01*
G36*
X209750000Y-130550000D02*
G01*
X203000000Y-130550000D01*
X203000000Y-116350000D01*
X209750000Y-116350000D01*
X209750000Y-130550000D01*
G37*
X209750000Y-130550000D02*
X203000000Y-130550000D01*
X203000000Y-116350000D01*
X209750000Y-116350000D01*
X209750000Y-130550000D01*
G36*
X209750000Y-115600000D02*
G01*
X209350000Y-116000000D01*
X203650000Y-116000000D01*
X203000000Y-115350000D01*
X203000000Y-109500000D01*
X209750000Y-109500000D01*
X209750000Y-115600000D01*
G37*
X209750000Y-115600000D02*
X209350000Y-116000000D01*
X203650000Y-116000000D01*
X203000000Y-115350000D01*
X203000000Y-109500000D01*
X209750000Y-109500000D01*
X209750000Y-115600000D01*
G36*
X162171934Y-139752671D02*
G01*
X162201877Y-139761754D01*
X162229465Y-139776500D01*
X162253651Y-139796349D01*
X162273500Y-139820535D01*
X162288246Y-139848123D01*
X162297329Y-139878066D01*
X162301000Y-139915340D01*
X162301000Y-144084660D01*
X162297329Y-144121934D01*
X162288246Y-144151877D01*
X162273500Y-144179465D01*
X162253651Y-144203651D01*
X162229465Y-144223500D01*
X162201877Y-144238246D01*
X162171934Y-144247329D01*
X162134660Y-144251000D01*
X159865340Y-144251000D01*
X159828066Y-144247329D01*
X159798123Y-144238246D01*
X159770535Y-144223500D01*
X159746349Y-144203651D01*
X159726500Y-144179465D01*
X159711754Y-144151877D01*
X159702671Y-144121934D01*
X159699000Y-144084660D01*
X159699000Y-139915340D01*
X159702671Y-139878066D01*
X159711754Y-139848123D01*
X159726500Y-139820535D01*
X159746349Y-139796349D01*
X159770535Y-139776500D01*
X159798123Y-139761754D01*
X159828066Y-139752671D01*
X159865340Y-139749000D01*
X162134660Y-139749000D01*
X162171934Y-139752671D01*
X162171934Y-139752671D01*
G37*
G36*
X193871934Y-139652671D02*
G01*
X193901877Y-139661754D01*
X193929465Y-139676500D01*
X193953651Y-139696349D01*
X193973500Y-139720535D01*
X193988246Y-139748123D01*
X193997329Y-139778066D01*
X194001000Y-139815340D01*
X194001000Y-143984660D01*
X193997329Y-144021934D01*
X193988246Y-144051877D01*
X193973500Y-144079465D01*
X193953651Y-144103651D01*
X193929465Y-144123500D01*
X193901877Y-144138246D01*
X193871934Y-144147329D01*
X193834660Y-144151000D01*
X191565340Y-144151000D01*
X191528066Y-144147329D01*
X191498123Y-144138246D01*
X191470535Y-144123500D01*
X191446349Y-144103651D01*
X191426500Y-144079465D01*
X191411754Y-144051877D01*
X191402671Y-144021934D01*
X191399000Y-143984660D01*
X191399000Y-139815340D01*
X191402671Y-139778066D01*
X191411754Y-139748123D01*
X191426500Y-139720535D01*
X191446349Y-139696349D01*
X191470535Y-139676500D01*
X191498123Y-139661754D01*
X191528066Y-139652671D01*
X191565340Y-139649000D01*
X193834660Y-139649000D01*
X193871934Y-139652671D01*
X193871934Y-139652671D01*
G37*
G36*
X182871934Y-139652671D02*
G01*
X182901877Y-139661754D01*
X182929465Y-139676500D01*
X182953651Y-139696349D01*
X182973500Y-139720535D01*
X182988246Y-139748123D01*
X182997329Y-139778066D01*
X183001000Y-139815340D01*
X183001000Y-143984660D01*
X182997329Y-144021934D01*
X182988246Y-144051877D01*
X182973500Y-144079465D01*
X182953651Y-144103651D01*
X182929465Y-144123500D01*
X182901877Y-144138246D01*
X182871934Y-144147329D01*
X182834660Y-144151000D01*
X180565340Y-144151000D01*
X180528066Y-144147329D01*
X180498123Y-144138246D01*
X180470535Y-144123500D01*
X180446349Y-144103651D01*
X180426500Y-144079465D01*
X180411754Y-144051877D01*
X180402671Y-144021934D01*
X180399000Y-143984660D01*
X180399000Y-139815340D01*
X180402671Y-139778066D01*
X180411754Y-139748123D01*
X180426500Y-139720535D01*
X180446349Y-139696349D01*
X180470535Y-139676500D01*
X180498123Y-139661754D01*
X180528066Y-139652671D01*
X180565340Y-139649000D01*
X182834660Y-139649000D01*
X182871934Y-139652671D01*
X182871934Y-139652671D01*
G37*
G36*
X133818433Y-141334893D02*
G01*
X133908657Y-141352839D01*
X134014267Y-141396585D01*
X134163621Y-141458449D01*
X134163622Y-141458450D01*
X134393086Y-141611772D01*
X134588228Y-141806914D01*
X134690675Y-141960237D01*
X134741551Y-142036379D01*
X134847161Y-142291344D01*
X134901000Y-142562012D01*
X134901000Y-142837988D01*
X134847161Y-143108656D01*
X134741551Y-143363621D01*
X134741550Y-143363622D01*
X134588228Y-143593086D01*
X134393086Y-143788228D01*
X134239763Y-143890675D01*
X134163621Y-143941551D01*
X134045752Y-143990374D01*
X133908657Y-144047161D01*
X133818433Y-144065107D01*
X133637988Y-144101000D01*
X133362012Y-144101000D01*
X133181567Y-144065107D01*
X133091343Y-144047161D01*
X132954248Y-143990374D01*
X132836379Y-143941551D01*
X132760237Y-143890675D01*
X132606914Y-143788228D01*
X132411772Y-143593086D01*
X132258450Y-143363622D01*
X132258449Y-143363621D01*
X132152839Y-143108656D01*
X132099000Y-142837988D01*
X132099000Y-142562012D01*
X132152839Y-142291344D01*
X132258449Y-142036379D01*
X132309325Y-141960237D01*
X132411772Y-141806914D01*
X132606914Y-141611772D01*
X132836378Y-141458450D01*
X132836379Y-141458449D01*
X132985733Y-141396585D01*
X133091343Y-141352839D01*
X133181567Y-141334893D01*
X133362012Y-141299000D01*
X133637988Y-141299000D01*
X133818433Y-141334893D01*
X133818433Y-141334893D01*
G37*
G36*
X154718604Y-134528347D02*
G01*
X154755144Y-134539432D01*
X154788821Y-134557433D01*
X154818341Y-134581659D01*
X154842567Y-134611179D01*
X154860568Y-134644856D01*
X154871653Y-134681396D01*
X154876000Y-134725538D01*
X154876000Y-137074462D01*
X154871653Y-137118604D01*
X154860568Y-137155144D01*
X154842567Y-137188821D01*
X154818341Y-137218341D01*
X154788821Y-137242567D01*
X154755144Y-137260568D01*
X154718604Y-137271653D01*
X154674462Y-137276000D01*
X153725538Y-137276000D01*
X153681396Y-137271653D01*
X153644856Y-137260568D01*
X153611179Y-137242567D01*
X153581659Y-137218341D01*
X153557433Y-137188821D01*
X153539432Y-137155144D01*
X153528347Y-137118604D01*
X153524000Y-137074462D01*
X153524000Y-134725538D01*
X153528347Y-134681396D01*
X153539432Y-134644856D01*
X153557433Y-134611179D01*
X153581659Y-134581659D01*
X153611179Y-134557433D01*
X153644856Y-134539432D01*
X153681396Y-134528347D01*
X153725538Y-134524000D01*
X154674462Y-134524000D01*
X154718604Y-134528347D01*
X154718604Y-134528347D01*
G37*
G36*
X151918604Y-134528347D02*
G01*
X151955144Y-134539432D01*
X151988821Y-134557433D01*
X152018341Y-134581659D01*
X152042567Y-134611179D01*
X152060568Y-134644856D01*
X152071653Y-134681396D01*
X152076000Y-134725538D01*
X152076000Y-137074462D01*
X152071653Y-137118604D01*
X152060568Y-137155144D01*
X152042567Y-137188821D01*
X152018341Y-137218341D01*
X151988821Y-137242567D01*
X151955144Y-137260568D01*
X151918604Y-137271653D01*
X151874462Y-137276000D01*
X150925538Y-137276000D01*
X150881396Y-137271653D01*
X150844856Y-137260568D01*
X150811179Y-137242567D01*
X150781659Y-137218341D01*
X150757433Y-137188821D01*
X150739432Y-137155144D01*
X150728347Y-137118604D01*
X150724000Y-137074462D01*
X150724000Y-134725538D01*
X150728347Y-134681396D01*
X150739432Y-134644856D01*
X150757433Y-134611179D01*
X150781659Y-134581659D01*
X150811179Y-134557433D01*
X150844856Y-134539432D01*
X150881396Y-134528347D01*
X150925538Y-134524000D01*
X151874462Y-134524000D01*
X151918604Y-134528347D01*
X151918604Y-134528347D01*
G37*
G36*
X162171934Y-131352671D02*
G01*
X162201877Y-131361754D01*
X162229465Y-131376500D01*
X162253651Y-131396349D01*
X162273500Y-131420535D01*
X162288246Y-131448123D01*
X162297329Y-131478066D01*
X162301000Y-131515340D01*
X162301000Y-135684660D01*
X162297329Y-135721934D01*
X162288246Y-135751877D01*
X162273500Y-135779465D01*
X162253651Y-135803651D01*
X162229465Y-135823500D01*
X162201877Y-135838246D01*
X162171934Y-135847329D01*
X162134660Y-135851000D01*
X159865340Y-135851000D01*
X159828066Y-135847329D01*
X159798123Y-135838246D01*
X159770535Y-135823500D01*
X159746349Y-135803651D01*
X159726500Y-135779465D01*
X159711754Y-135751877D01*
X159702671Y-135721934D01*
X159699000Y-135684660D01*
X159699000Y-131515340D01*
X159702671Y-131478066D01*
X159711754Y-131448123D01*
X159726500Y-131420535D01*
X159746349Y-131396349D01*
X159770535Y-131376500D01*
X159798123Y-131361754D01*
X159828066Y-131352671D01*
X159865340Y-131349000D01*
X162134660Y-131349000D01*
X162171934Y-131352671D01*
X162171934Y-131352671D01*
G37*
G36*
X182871934Y-131252671D02*
G01*
X182901877Y-131261754D01*
X182929465Y-131276500D01*
X182953651Y-131296349D01*
X182973500Y-131320535D01*
X182988246Y-131348123D01*
X182997329Y-131378066D01*
X183001000Y-131415340D01*
X183001000Y-135584660D01*
X182997329Y-135621934D01*
X182988246Y-135651877D01*
X182973500Y-135679465D01*
X182953651Y-135703651D01*
X182929465Y-135723500D01*
X182901877Y-135738246D01*
X182871934Y-135747329D01*
X182834660Y-135751000D01*
X180565340Y-135751000D01*
X180528066Y-135747329D01*
X180498123Y-135738246D01*
X180470535Y-135723500D01*
X180446349Y-135703651D01*
X180426500Y-135679465D01*
X180411754Y-135651877D01*
X180402671Y-135621934D01*
X180399000Y-135584660D01*
X180399000Y-131415340D01*
X180402671Y-131378066D01*
X180411754Y-131348123D01*
X180426500Y-131320535D01*
X180446349Y-131296349D01*
X180470535Y-131276500D01*
X180498123Y-131261754D01*
X180528066Y-131252671D01*
X180565340Y-131249000D01*
X182834660Y-131249000D01*
X182871934Y-131252671D01*
X182871934Y-131252671D01*
G37*
G36*
X193871934Y-131252671D02*
G01*
X193901877Y-131261754D01*
X193929465Y-131276500D01*
X193953651Y-131296349D01*
X193973500Y-131320535D01*
X193988246Y-131348123D01*
X193997329Y-131378066D01*
X194001000Y-131415340D01*
X194001000Y-135584660D01*
X193997329Y-135621934D01*
X193988246Y-135651877D01*
X193973500Y-135679465D01*
X193953651Y-135703651D01*
X193929465Y-135723500D01*
X193901877Y-135738246D01*
X193871934Y-135747329D01*
X193834660Y-135751000D01*
X191565340Y-135751000D01*
X191528066Y-135747329D01*
X191498123Y-135738246D01*
X191470535Y-135723500D01*
X191446349Y-135703651D01*
X191426500Y-135679465D01*
X191411754Y-135651877D01*
X191402671Y-135621934D01*
X191399000Y-135584660D01*
X191399000Y-131415340D01*
X191402671Y-131378066D01*
X191411754Y-131348123D01*
X191426500Y-131320535D01*
X191446349Y-131296349D01*
X191470535Y-131276500D01*
X191498123Y-131261754D01*
X191528066Y-131252671D01*
X191565340Y-131249000D01*
X193834660Y-131249000D01*
X193871934Y-131252671D01*
X193871934Y-131252671D01*
G37*
G36*
X174772798Y-131878247D02*
G01*
X174808367Y-131889037D01*
X174841139Y-131906554D01*
X174869869Y-131930131D01*
X174893446Y-131958861D01*
X174910963Y-131991633D01*
X174921753Y-132027202D01*
X174926000Y-132070325D01*
X174926000Y-135129675D01*
X174921753Y-135172798D01*
X174910963Y-135208367D01*
X174893446Y-135241139D01*
X174869869Y-135269869D01*
X174841139Y-135293446D01*
X174808367Y-135310963D01*
X174772798Y-135321753D01*
X174729675Y-135326000D01*
X173670325Y-135326000D01*
X173627202Y-135321753D01*
X173591633Y-135310963D01*
X173558861Y-135293446D01*
X173530131Y-135269869D01*
X173506554Y-135241139D01*
X173489037Y-135208367D01*
X173478247Y-135172798D01*
X173474000Y-135129675D01*
X173474000Y-132070325D01*
X173478247Y-132027202D01*
X173489037Y-131991633D01*
X173506554Y-131958861D01*
X173530131Y-131930131D01*
X173558861Y-131906554D01*
X173591633Y-131889037D01*
X173627202Y-131878247D01*
X173670325Y-131874000D01*
X174729675Y-131874000D01*
X174772798Y-131878247D01*
X174772798Y-131878247D01*
G37*
G36*
X168972798Y-131878247D02*
G01*
X169008367Y-131889037D01*
X169041139Y-131906554D01*
X169069869Y-131930131D01*
X169093446Y-131958861D01*
X169110963Y-131991633D01*
X169121753Y-132027202D01*
X169126000Y-132070325D01*
X169126000Y-135129675D01*
X169121753Y-135172798D01*
X169110963Y-135208367D01*
X169093446Y-135241139D01*
X169069869Y-135269869D01*
X169041139Y-135293446D01*
X169008367Y-135310963D01*
X168972798Y-135321753D01*
X168929675Y-135326000D01*
X167870325Y-135326000D01*
X167827202Y-135321753D01*
X167791633Y-135310963D01*
X167758861Y-135293446D01*
X167730131Y-135269869D01*
X167706554Y-135241139D01*
X167689037Y-135208367D01*
X167678247Y-135172798D01*
X167674000Y-135129675D01*
X167674000Y-132070325D01*
X167678247Y-132027202D01*
X167689037Y-131991633D01*
X167706554Y-131958861D01*
X167730131Y-131930131D01*
X167758861Y-131906554D01*
X167791633Y-131889037D01*
X167827202Y-131878247D01*
X167870325Y-131874000D01*
X168929675Y-131874000D01*
X168972798Y-131878247D01*
X168972798Y-131878247D01*
G37*
G36*
X151918604Y-131028347D02*
G01*
X151955144Y-131039432D01*
X151988821Y-131057433D01*
X152018341Y-131081659D01*
X152042567Y-131111179D01*
X152060568Y-131144856D01*
X152071653Y-131181396D01*
X152076000Y-131225538D01*
X152076000Y-133574462D01*
X152071653Y-133618604D01*
X152060568Y-133655144D01*
X152042567Y-133688821D01*
X152018341Y-133718341D01*
X151988821Y-133742567D01*
X151955144Y-133760568D01*
X151918604Y-133771653D01*
X151874462Y-133776000D01*
X150925538Y-133776000D01*
X150881396Y-133771653D01*
X150844856Y-133760568D01*
X150811179Y-133742567D01*
X150781659Y-133718341D01*
X150757433Y-133688821D01*
X150739432Y-133655144D01*
X150728347Y-133618604D01*
X150724000Y-133574462D01*
X150724000Y-131225538D01*
X150728347Y-131181396D01*
X150739432Y-131144856D01*
X150757433Y-131111179D01*
X150781659Y-131081659D01*
X150811179Y-131057433D01*
X150844856Y-131039432D01*
X150881396Y-131028347D01*
X150925538Y-131024000D01*
X151874462Y-131024000D01*
X151918604Y-131028347D01*
X151918604Y-131028347D01*
G37*
G36*
X154718604Y-131028347D02*
G01*
X154755144Y-131039432D01*
X154788821Y-131057433D01*
X154818341Y-131081659D01*
X154842567Y-131111179D01*
X154860568Y-131144856D01*
X154871653Y-131181396D01*
X154876000Y-131225538D01*
X154876000Y-133574462D01*
X154871653Y-133618604D01*
X154860568Y-133655144D01*
X154842567Y-133688821D01*
X154818341Y-133718341D01*
X154788821Y-133742567D01*
X154755144Y-133760568D01*
X154718604Y-133771653D01*
X154674462Y-133776000D01*
X153725538Y-133776000D01*
X153681396Y-133771653D01*
X153644856Y-133760568D01*
X153611179Y-133742567D01*
X153581659Y-133718341D01*
X153557433Y-133688821D01*
X153539432Y-133655144D01*
X153528347Y-133618604D01*
X153524000Y-133574462D01*
X153524000Y-131225538D01*
X153528347Y-131181396D01*
X153539432Y-131144856D01*
X153557433Y-131111179D01*
X153581659Y-131081659D01*
X153611179Y-131057433D01*
X153644856Y-131039432D01*
X153681396Y-131028347D01*
X153725538Y-131024000D01*
X154674462Y-131024000D01*
X154718604Y-131028347D01*
X154718604Y-131028347D01*
G37*
G36*
X137379591Y-130303085D02*
G01*
X137413569Y-130313393D01*
X137444890Y-130330134D01*
X137472339Y-130352661D01*
X137494866Y-130380110D01*
X137511607Y-130411431D01*
X137521915Y-130445409D01*
X137526000Y-130486890D01*
X137526000Y-131088110D01*
X137521915Y-131129591D01*
X137511607Y-131163569D01*
X137494866Y-131194890D01*
X137472339Y-131222339D01*
X137444890Y-131244866D01*
X137413569Y-131261607D01*
X137379591Y-131271915D01*
X137338110Y-131276000D01*
X136661890Y-131276000D01*
X136620409Y-131271915D01*
X136586431Y-131261607D01*
X136555110Y-131244866D01*
X136527661Y-131222339D01*
X136505134Y-131194890D01*
X136488393Y-131163569D01*
X136478085Y-131129591D01*
X136474000Y-131088110D01*
X136474000Y-130486890D01*
X136478085Y-130445409D01*
X136488393Y-130411431D01*
X136505134Y-130380110D01*
X136527661Y-130352661D01*
X136555110Y-130330134D01*
X136586431Y-130313393D01*
X136620409Y-130303085D01*
X136661890Y-130299000D01*
X137338110Y-130299000D01*
X137379591Y-130303085D01*
X137379591Y-130303085D01*
G37*
G36*
X154718604Y-127528347D02*
G01*
X154755144Y-127539432D01*
X154788821Y-127557433D01*
X154818341Y-127581659D01*
X154842567Y-127611179D01*
X154860568Y-127644856D01*
X154871653Y-127681396D01*
X154876000Y-127725538D01*
X154876000Y-130074462D01*
X154871653Y-130118604D01*
X154860568Y-130155144D01*
X154842567Y-130188821D01*
X154818341Y-130218341D01*
X154788821Y-130242567D01*
X154755144Y-130260568D01*
X154718604Y-130271653D01*
X154674462Y-130276000D01*
X153725538Y-130276000D01*
X153681396Y-130271653D01*
X153644856Y-130260568D01*
X153611179Y-130242567D01*
X153581659Y-130218341D01*
X153557433Y-130188821D01*
X153539432Y-130155144D01*
X153528347Y-130118604D01*
X153524000Y-130074462D01*
X153524000Y-127725538D01*
X153528347Y-127681396D01*
X153539432Y-127644856D01*
X153557433Y-127611179D01*
X153581659Y-127581659D01*
X153611179Y-127557433D01*
X153644856Y-127539432D01*
X153681396Y-127528347D01*
X153725538Y-127524000D01*
X154674462Y-127524000D01*
X154718604Y-127528347D01*
X154718604Y-127528347D01*
G37*
G36*
X151918604Y-127528347D02*
G01*
X151955144Y-127539432D01*
X151988821Y-127557433D01*
X152018341Y-127581659D01*
X152042567Y-127611179D01*
X152060568Y-127644856D01*
X152071653Y-127681396D01*
X152076000Y-127725538D01*
X152076000Y-130074462D01*
X152071653Y-130118604D01*
X152060568Y-130155144D01*
X152042567Y-130188821D01*
X152018341Y-130218341D01*
X151988821Y-130242567D01*
X151955144Y-130260568D01*
X151918604Y-130271653D01*
X151874462Y-130276000D01*
X150925538Y-130276000D01*
X150881396Y-130271653D01*
X150844856Y-130260568D01*
X150811179Y-130242567D01*
X150781659Y-130218341D01*
X150757433Y-130188821D01*
X150739432Y-130155144D01*
X150728347Y-130118604D01*
X150724000Y-130074462D01*
X150724000Y-127725538D01*
X150728347Y-127681396D01*
X150739432Y-127644856D01*
X150757433Y-127611179D01*
X150781659Y-127581659D01*
X150811179Y-127557433D01*
X150844856Y-127539432D01*
X150881396Y-127528347D01*
X150925538Y-127524000D01*
X151874462Y-127524000D01*
X151918604Y-127528347D01*
X151918604Y-127528347D01*
G37*
G36*
X135879591Y-129203085D02*
G01*
X135913569Y-129213393D01*
X135944890Y-129230134D01*
X135972339Y-129252661D01*
X135994866Y-129280110D01*
X136011607Y-129311431D01*
X136021915Y-129345409D01*
X136026000Y-129386890D01*
X136026000Y-129988110D01*
X136021915Y-130029591D01*
X136011607Y-130063569D01*
X135994866Y-130094890D01*
X135972339Y-130122339D01*
X135944890Y-130144866D01*
X135913569Y-130161607D01*
X135879591Y-130171915D01*
X135838110Y-130176000D01*
X135161890Y-130176000D01*
X135120409Y-130171915D01*
X135086431Y-130161607D01*
X135055110Y-130144866D01*
X135027661Y-130122339D01*
X135005134Y-130094890D01*
X134988393Y-130063569D01*
X134978085Y-130029591D01*
X134974000Y-129988110D01*
X134974000Y-129386890D01*
X134978085Y-129345409D01*
X134988393Y-129311431D01*
X135005134Y-129280110D01*
X135027661Y-129252661D01*
X135055110Y-129230134D01*
X135086431Y-129213393D01*
X135120409Y-129203085D01*
X135161890Y-129199000D01*
X135838110Y-129199000D01*
X135879591Y-129203085D01*
X135879591Y-129203085D01*
G37*
G36*
X137379591Y-128728085D02*
G01*
X137413569Y-128738393D01*
X137444890Y-128755134D01*
X137472339Y-128777661D01*
X137494866Y-128805110D01*
X137511607Y-128836431D01*
X137521915Y-128870409D01*
X137526000Y-128911890D01*
X137526000Y-129513110D01*
X137521915Y-129554591D01*
X137511607Y-129588569D01*
X137494866Y-129619890D01*
X137472339Y-129647339D01*
X137444890Y-129669866D01*
X137413569Y-129686607D01*
X137379591Y-129696915D01*
X137338110Y-129701000D01*
X136661890Y-129701000D01*
X136620409Y-129696915D01*
X136586431Y-129686607D01*
X136555110Y-129669866D01*
X136527661Y-129647339D01*
X136505134Y-129619890D01*
X136488393Y-129588569D01*
X136478085Y-129554591D01*
X136474000Y-129513110D01*
X136474000Y-128911890D01*
X136478085Y-128870409D01*
X136488393Y-128836431D01*
X136505134Y-128805110D01*
X136527661Y-128777661D01*
X136555110Y-128755134D01*
X136586431Y-128738393D01*
X136620409Y-128728085D01*
X136661890Y-128724000D01*
X137338110Y-128724000D01*
X137379591Y-128728085D01*
X137379591Y-128728085D01*
G37*
G36*
X168631000Y-129336000D02*
G01*
X165529000Y-129336000D01*
X165529000Y-127634000D01*
X168631000Y-127634000D01*
X168631000Y-129336000D01*
X168631000Y-129336000D01*
G37*
G36*
X163051000Y-129151000D02*
G01*
X156749000Y-129151000D01*
X156749000Y-123249000D01*
X163051000Y-123249000D01*
X163051000Y-129151000D01*
X163051000Y-129151000D01*
G37*
G36*
X142384468Y-127703565D02*
G01*
X142423138Y-127715296D01*
X142458777Y-127734346D01*
X142490017Y-127759983D01*
X142515654Y-127791223D01*
X142534704Y-127826862D01*
X142546435Y-127865532D01*
X142551000Y-127911888D01*
X142551000Y-128563112D01*
X142546435Y-128609468D01*
X142534704Y-128648138D01*
X142515654Y-128683777D01*
X142490017Y-128715017D01*
X142458777Y-128740654D01*
X142423138Y-128759704D01*
X142384468Y-128771435D01*
X142338112Y-128776000D01*
X141261888Y-128776000D01*
X141215532Y-128771435D01*
X141176862Y-128759704D01*
X141141223Y-128740654D01*
X141109983Y-128715017D01*
X141084346Y-128683777D01*
X141065296Y-128648138D01*
X141053565Y-128609468D01*
X141049000Y-128563112D01*
X141049000Y-127911888D01*
X141053565Y-127865532D01*
X141065296Y-127826862D01*
X141084346Y-127791223D01*
X141109983Y-127759983D01*
X141141223Y-127734346D01*
X141176862Y-127715296D01*
X141215532Y-127703565D01*
X141261888Y-127699000D01*
X142338112Y-127699000D01*
X142384468Y-127703565D01*
X142384468Y-127703565D01*
G37*
G36*
X135879591Y-127628085D02*
G01*
X135913569Y-127638393D01*
X135944890Y-127655134D01*
X135972339Y-127677661D01*
X135994866Y-127705110D01*
X136011607Y-127736431D01*
X136021915Y-127770409D01*
X136026000Y-127811890D01*
X136026000Y-128413110D01*
X136021915Y-128454591D01*
X136011607Y-128488569D01*
X135994866Y-128519890D01*
X135972339Y-128547339D01*
X135944890Y-128569866D01*
X135913569Y-128586607D01*
X135879591Y-128596915D01*
X135838110Y-128601000D01*
X135161890Y-128601000D01*
X135120409Y-128596915D01*
X135086431Y-128586607D01*
X135055110Y-128569866D01*
X135027661Y-128547339D01*
X135005134Y-128519890D01*
X134988393Y-128488569D01*
X134978085Y-128454591D01*
X134974000Y-128413110D01*
X134974000Y-127811890D01*
X134978085Y-127770409D01*
X134988393Y-127736431D01*
X135005134Y-127705110D01*
X135027661Y-127677661D01*
X135055110Y-127655134D01*
X135086431Y-127638393D01*
X135120409Y-127628085D01*
X135161890Y-127624000D01*
X135838110Y-127624000D01*
X135879591Y-127628085D01*
X135879591Y-127628085D01*
G37*
G36*
X138879591Y-127303085D02*
G01*
X138913569Y-127313393D01*
X138944890Y-127330134D01*
X138972339Y-127352661D01*
X138994866Y-127380110D01*
X139011607Y-127411431D01*
X139021915Y-127445409D01*
X139026000Y-127486890D01*
X139026000Y-128088110D01*
X139021915Y-128129591D01*
X139011607Y-128163569D01*
X138994866Y-128194890D01*
X138972339Y-128222339D01*
X138944890Y-128244866D01*
X138913569Y-128261607D01*
X138879591Y-128271915D01*
X138838110Y-128276000D01*
X138161890Y-128276000D01*
X138120409Y-128271915D01*
X138086431Y-128261607D01*
X138055110Y-128244866D01*
X138027661Y-128222339D01*
X138005134Y-128194890D01*
X137988393Y-128163569D01*
X137978085Y-128129591D01*
X137974000Y-128088110D01*
X137974000Y-127486890D01*
X137978085Y-127445409D01*
X137988393Y-127411431D01*
X138005134Y-127380110D01*
X138027661Y-127352661D01*
X138055110Y-127330134D01*
X138086431Y-127313393D01*
X138120409Y-127303085D01*
X138161890Y-127299000D01*
X138838110Y-127299000D01*
X138879591Y-127303085D01*
X138879591Y-127303085D01*
G37*
G36*
X137394592Y-127298084D02*
G01*
X137428570Y-127308392D01*
X137459891Y-127325133D01*
X137487340Y-127347660D01*
X137509867Y-127375109D01*
X137526608Y-127406430D01*
X137536916Y-127440408D01*
X137541001Y-127481889D01*
X137541001Y-128083109D01*
X137536916Y-128124590D01*
X137526608Y-128158568D01*
X137509867Y-128189889D01*
X137487340Y-128217338D01*
X137459891Y-128239865D01*
X137428570Y-128256606D01*
X137394592Y-128266914D01*
X137353111Y-128270999D01*
X136676891Y-128270999D01*
X136635410Y-128266914D01*
X136601432Y-128256606D01*
X136570111Y-128239865D01*
X136542662Y-128217338D01*
X136520135Y-128189889D01*
X136503394Y-128158568D01*
X136493086Y-128124590D01*
X136489001Y-128083109D01*
X136489001Y-127481889D01*
X136493086Y-127440408D01*
X136503394Y-127406430D01*
X136520135Y-127375109D01*
X136542662Y-127347660D01*
X136570111Y-127325133D01*
X136601432Y-127308392D01*
X136635410Y-127298084D01*
X136676891Y-127293999D01*
X137353111Y-127293999D01*
X137394592Y-127298084D01*
X137394592Y-127298084D01*
G37*
G36*
X140379591Y-126303085D02*
G01*
X140413569Y-126313393D01*
X140444890Y-126330134D01*
X140472339Y-126352661D01*
X140494866Y-126380110D01*
X140511607Y-126411431D01*
X140521915Y-126445409D01*
X140526000Y-126486890D01*
X140526000Y-127088110D01*
X140521915Y-127129591D01*
X140511607Y-127163569D01*
X140494866Y-127194890D01*
X140472339Y-127222339D01*
X140444890Y-127244866D01*
X140413569Y-127261607D01*
X140379591Y-127271915D01*
X140338110Y-127276000D01*
X139661890Y-127276000D01*
X139620409Y-127271915D01*
X139586431Y-127261607D01*
X139555110Y-127244866D01*
X139527661Y-127222339D01*
X139505134Y-127194890D01*
X139488393Y-127163569D01*
X139478085Y-127129591D01*
X139474000Y-127088110D01*
X139474000Y-126486890D01*
X139478085Y-126445409D01*
X139488393Y-126411431D01*
X139505134Y-126380110D01*
X139527661Y-126352661D01*
X139555110Y-126330134D01*
X139586431Y-126313393D01*
X139620409Y-126303085D01*
X139661890Y-126299000D01*
X140338110Y-126299000D01*
X140379591Y-126303085D01*
X140379591Y-126303085D01*
G37*
G36*
X135842091Y-126078085D02*
G01*
X135876069Y-126088393D01*
X135907390Y-126105134D01*
X135934839Y-126127661D01*
X135957366Y-126155110D01*
X135974107Y-126186431D01*
X135984415Y-126220409D01*
X135988500Y-126261890D01*
X135988500Y-126938110D01*
X135984415Y-126979591D01*
X135974107Y-127013569D01*
X135957366Y-127044890D01*
X135934839Y-127072339D01*
X135907390Y-127094866D01*
X135876069Y-127111607D01*
X135842091Y-127121915D01*
X135800610Y-127126000D01*
X135199390Y-127126000D01*
X135157909Y-127121915D01*
X135123931Y-127111607D01*
X135092610Y-127094866D01*
X135065161Y-127072339D01*
X135042634Y-127044890D01*
X135025893Y-127013569D01*
X135015585Y-126979591D01*
X135011500Y-126938110D01*
X135011500Y-126261890D01*
X135015585Y-126220409D01*
X135025893Y-126186431D01*
X135042634Y-126155110D01*
X135065161Y-126127661D01*
X135092610Y-126105134D01*
X135123931Y-126088393D01*
X135157909Y-126078085D01*
X135199390Y-126074000D01*
X135800610Y-126074000D01*
X135842091Y-126078085D01*
X135842091Y-126078085D01*
G37*
G36*
X134267091Y-126078085D02*
G01*
X134301069Y-126088393D01*
X134332390Y-126105134D01*
X134359839Y-126127661D01*
X134382366Y-126155110D01*
X134399107Y-126186431D01*
X134409415Y-126220409D01*
X134413500Y-126261890D01*
X134413500Y-126938110D01*
X134409415Y-126979591D01*
X134399107Y-127013569D01*
X134382366Y-127044890D01*
X134359839Y-127072339D01*
X134332390Y-127094866D01*
X134301069Y-127111607D01*
X134267091Y-127121915D01*
X134225610Y-127126000D01*
X133624390Y-127126000D01*
X133582909Y-127121915D01*
X133548931Y-127111607D01*
X133517610Y-127094866D01*
X133490161Y-127072339D01*
X133467634Y-127044890D01*
X133450893Y-127013569D01*
X133440585Y-126979591D01*
X133436500Y-126938110D01*
X133436500Y-126261890D01*
X133440585Y-126220409D01*
X133450893Y-126186431D01*
X133467634Y-126155110D01*
X133490161Y-126127661D01*
X133517610Y-126105134D01*
X133548931Y-126088393D01*
X133582909Y-126078085D01*
X133624390Y-126074000D01*
X134225610Y-126074000D01*
X134267091Y-126078085D01*
X134267091Y-126078085D01*
G37*
G36*
X188001000Y-127101000D02*
G01*
X175399000Y-127101000D01*
X175399000Y-123849000D01*
X188001000Y-123849000D01*
X188001000Y-127101000D01*
X188001000Y-127101000D01*
G37*
G36*
X142384468Y-125828565D02*
G01*
X142423138Y-125840296D01*
X142458777Y-125859346D01*
X142490017Y-125884983D01*
X142515654Y-125916223D01*
X142534704Y-125951862D01*
X142546435Y-125990532D01*
X142551000Y-126036888D01*
X142551000Y-126688112D01*
X142546435Y-126734468D01*
X142534704Y-126773138D01*
X142515654Y-126808777D01*
X142490017Y-126840017D01*
X142458777Y-126865654D01*
X142423138Y-126884704D01*
X142384468Y-126896435D01*
X142338112Y-126901000D01*
X141261888Y-126901000D01*
X141215532Y-126896435D01*
X141176862Y-126884704D01*
X141141223Y-126865654D01*
X141109983Y-126840017D01*
X141084346Y-126808777D01*
X141065296Y-126773138D01*
X141053565Y-126734468D01*
X141049000Y-126688112D01*
X141049000Y-126036888D01*
X141053565Y-125990532D01*
X141065296Y-125951862D01*
X141084346Y-125916223D01*
X141109983Y-125884983D01*
X141141223Y-125859346D01*
X141176862Y-125840296D01*
X141215532Y-125828565D01*
X141261888Y-125824000D01*
X142338112Y-125824000D01*
X142384468Y-125828565D01*
X142384468Y-125828565D01*
G37*
G36*
X138879591Y-125728085D02*
G01*
X138913569Y-125738393D01*
X138944890Y-125755134D01*
X138972339Y-125777661D01*
X138994866Y-125805110D01*
X139011607Y-125836431D01*
X139021915Y-125870409D01*
X139026000Y-125911890D01*
X139026000Y-126513110D01*
X139021915Y-126554591D01*
X139011607Y-126588569D01*
X138994866Y-126619890D01*
X138972339Y-126647339D01*
X138944890Y-126669866D01*
X138913569Y-126686607D01*
X138879591Y-126696915D01*
X138838110Y-126701000D01*
X138161890Y-126701000D01*
X138120409Y-126696915D01*
X138086431Y-126686607D01*
X138055110Y-126669866D01*
X138027661Y-126647339D01*
X138005134Y-126619890D01*
X137988393Y-126588569D01*
X137978085Y-126554591D01*
X137974000Y-126513110D01*
X137974000Y-125911890D01*
X137978085Y-125870409D01*
X137988393Y-125836431D01*
X138005134Y-125805110D01*
X138027661Y-125777661D01*
X138055110Y-125755134D01*
X138086431Y-125738393D01*
X138120409Y-125728085D01*
X138161890Y-125724000D01*
X138838110Y-125724000D01*
X138879591Y-125728085D01*
X138879591Y-125728085D01*
G37*
G36*
X137394592Y-125723084D02*
G01*
X137428570Y-125733392D01*
X137459891Y-125750133D01*
X137487340Y-125772660D01*
X137509867Y-125800109D01*
X137526608Y-125831430D01*
X137536916Y-125865408D01*
X137541001Y-125906889D01*
X137541001Y-126508109D01*
X137536916Y-126549590D01*
X137526608Y-126583568D01*
X137509867Y-126614889D01*
X137487340Y-126642338D01*
X137459891Y-126664865D01*
X137428570Y-126681606D01*
X137394592Y-126691914D01*
X137353111Y-126695999D01*
X136676891Y-126695999D01*
X136635410Y-126691914D01*
X136601432Y-126681606D01*
X136570111Y-126664865D01*
X136542662Y-126642338D01*
X136520135Y-126614889D01*
X136503394Y-126583568D01*
X136493086Y-126549590D01*
X136489001Y-126508109D01*
X136489001Y-125906889D01*
X136493086Y-125865408D01*
X136503394Y-125831430D01*
X136520135Y-125800109D01*
X136542662Y-125772660D01*
X136570111Y-125750133D01*
X136601432Y-125733392D01*
X136635410Y-125723084D01*
X136676891Y-125718999D01*
X137353111Y-125718999D01*
X137394592Y-125723084D01*
X137394592Y-125723084D01*
G37*
G36*
X140379591Y-124728085D02*
G01*
X140413569Y-124738393D01*
X140444890Y-124755134D01*
X140472339Y-124777661D01*
X140494866Y-124805110D01*
X140511607Y-124836431D01*
X140521915Y-124870409D01*
X140526000Y-124911890D01*
X140526000Y-125513110D01*
X140521915Y-125554591D01*
X140511607Y-125588569D01*
X140494866Y-125619890D01*
X140472339Y-125647339D01*
X140444890Y-125669866D01*
X140413569Y-125686607D01*
X140379591Y-125696915D01*
X140338110Y-125701000D01*
X139661890Y-125701000D01*
X139620409Y-125696915D01*
X139586431Y-125686607D01*
X139555110Y-125669866D01*
X139527661Y-125647339D01*
X139505134Y-125619890D01*
X139488393Y-125588569D01*
X139478085Y-125554591D01*
X139474000Y-125513110D01*
X139474000Y-124911890D01*
X139478085Y-124870409D01*
X139488393Y-124836431D01*
X139505134Y-124805110D01*
X139527661Y-124777661D01*
X139555110Y-124755134D01*
X139586431Y-124738393D01*
X139620409Y-124728085D01*
X139661890Y-124724000D01*
X140338110Y-124724000D01*
X140379591Y-124728085D01*
X140379591Y-124728085D01*
G37*
G36*
X135329591Y-124578085D02*
G01*
X135363569Y-124588393D01*
X135394890Y-124605134D01*
X135422339Y-124627661D01*
X135444866Y-124655110D01*
X135461607Y-124686431D01*
X135471915Y-124720409D01*
X135476000Y-124761890D01*
X135476000Y-125438110D01*
X135471915Y-125479591D01*
X135461607Y-125513569D01*
X135444866Y-125544890D01*
X135422339Y-125572339D01*
X135394890Y-125594866D01*
X135363569Y-125611607D01*
X135329591Y-125621915D01*
X135288110Y-125626000D01*
X134686890Y-125626000D01*
X134645409Y-125621915D01*
X134611431Y-125611607D01*
X134580110Y-125594866D01*
X134552661Y-125572339D01*
X134530134Y-125544890D01*
X134513393Y-125513569D01*
X134503085Y-125479591D01*
X134499000Y-125438110D01*
X134499000Y-124761890D01*
X134503085Y-124720409D01*
X134513393Y-124686431D01*
X134530134Y-124655110D01*
X134552661Y-124627661D01*
X134580110Y-124605134D01*
X134611431Y-124588393D01*
X134645409Y-124578085D01*
X134686890Y-124574000D01*
X135288110Y-124574000D01*
X135329591Y-124578085D01*
X135329591Y-124578085D01*
G37*
G36*
X133754591Y-124578085D02*
G01*
X133788569Y-124588393D01*
X133819890Y-124605134D01*
X133847339Y-124627661D01*
X133869866Y-124655110D01*
X133886607Y-124686431D01*
X133896915Y-124720409D01*
X133901000Y-124761890D01*
X133901000Y-125438110D01*
X133896915Y-125479591D01*
X133886607Y-125513569D01*
X133869866Y-125544890D01*
X133847339Y-125572339D01*
X133819890Y-125594866D01*
X133788569Y-125611607D01*
X133754591Y-125621915D01*
X133713110Y-125626000D01*
X133111890Y-125626000D01*
X133070409Y-125621915D01*
X133036431Y-125611607D01*
X133005110Y-125594866D01*
X132977661Y-125572339D01*
X132955134Y-125544890D01*
X132938393Y-125513569D01*
X132928085Y-125479591D01*
X132924000Y-125438110D01*
X132924000Y-124761890D01*
X132928085Y-124720409D01*
X132938393Y-124686431D01*
X132955134Y-124655110D01*
X132977661Y-124627661D01*
X133005110Y-124605134D01*
X133036431Y-124588393D01*
X133070409Y-124578085D01*
X133111890Y-124574000D01*
X133713110Y-124574000D01*
X133754591Y-124578085D01*
X133754591Y-124578085D01*
G37*
G36*
X168631000Y-124766000D02*
G01*
X165529000Y-124766000D01*
X165529000Y-123064000D01*
X168631000Y-123064000D01*
X168631000Y-124766000D01*
X168631000Y-124766000D01*
G37*
G36*
X144180999Y-124156001D02*
G01*
X135228999Y-124156001D01*
X135228999Y-122954001D01*
X144180999Y-122954001D01*
X144180999Y-124156001D01*
X144180999Y-124156001D01*
G37*
G36*
X146484468Y-122803565D02*
G01*
X146523138Y-122815296D01*
X146558777Y-122834346D01*
X146590017Y-122859983D01*
X146615654Y-122891223D01*
X146634704Y-122926862D01*
X146646435Y-122965532D01*
X146651000Y-123011888D01*
X146651000Y-123663112D01*
X146646435Y-123709468D01*
X146634704Y-123748138D01*
X146615654Y-123783777D01*
X146590017Y-123815017D01*
X146558777Y-123840654D01*
X146523138Y-123859704D01*
X146484468Y-123871435D01*
X146438112Y-123876000D01*
X145361888Y-123876000D01*
X145315532Y-123871435D01*
X145276862Y-123859704D01*
X145241223Y-123840654D01*
X145209983Y-123815017D01*
X145184346Y-123783777D01*
X145165296Y-123748138D01*
X145153565Y-123709468D01*
X145149000Y-123663112D01*
X145149000Y-123011888D01*
X145153565Y-122965532D01*
X145165296Y-122926862D01*
X145184346Y-122891223D01*
X145209983Y-122859983D01*
X145241223Y-122834346D01*
X145276862Y-122815296D01*
X145315532Y-122803565D01*
X145361888Y-122799000D01*
X146438112Y-122799000D01*
X146484468Y-122803565D01*
X146484468Y-122803565D01*
G37*
G36*
X142130999Y-122126001D02*
G01*
X137278999Y-122126001D01*
X137278999Y-119284001D01*
X142130999Y-119284001D01*
X142130999Y-122126001D01*
X142130999Y-122126001D01*
G37*
G36*
X146484468Y-120928565D02*
G01*
X146523138Y-120940296D01*
X146558777Y-120959346D01*
X146590017Y-120984983D01*
X146615654Y-121016223D01*
X146634704Y-121051862D01*
X146646435Y-121090532D01*
X146651000Y-121136888D01*
X146651000Y-121788112D01*
X146646435Y-121834468D01*
X146634704Y-121873138D01*
X146615654Y-121908777D01*
X146590017Y-121940017D01*
X146558777Y-121965654D01*
X146523138Y-121984704D01*
X146484468Y-121996435D01*
X146438112Y-122001000D01*
X145361888Y-122001000D01*
X145315532Y-121996435D01*
X145276862Y-121984704D01*
X145241223Y-121965654D01*
X145209983Y-121940017D01*
X145184346Y-121908777D01*
X145165296Y-121873138D01*
X145153565Y-121834468D01*
X145149000Y-121788112D01*
X145149000Y-121136888D01*
X145153565Y-121090532D01*
X145165296Y-121051862D01*
X145184346Y-121016223D01*
X145209983Y-120984983D01*
X145241223Y-120959346D01*
X145276862Y-120940296D01*
X145315532Y-120928565D01*
X145361888Y-120924000D01*
X146438112Y-120924000D01*
X146484468Y-120928565D01*
X146484468Y-120928565D01*
G37*
G36*
X134179591Y-121003085D02*
G01*
X134213569Y-121013393D01*
X134244890Y-121030134D01*
X134272339Y-121052661D01*
X134294866Y-121080110D01*
X134311607Y-121111431D01*
X134321915Y-121145409D01*
X134326000Y-121186890D01*
X134326000Y-121788110D01*
X134321915Y-121829591D01*
X134311607Y-121863569D01*
X134294866Y-121894890D01*
X134272339Y-121922339D01*
X134244890Y-121944866D01*
X134213569Y-121961607D01*
X134179591Y-121971915D01*
X134138110Y-121976000D01*
X133461890Y-121976000D01*
X133420409Y-121971915D01*
X133386431Y-121961607D01*
X133355110Y-121944866D01*
X133327661Y-121922339D01*
X133305134Y-121894890D01*
X133288393Y-121863569D01*
X133278085Y-121829591D01*
X133274000Y-121788110D01*
X133274000Y-121186890D01*
X133278085Y-121145409D01*
X133288393Y-121111431D01*
X133305134Y-121080110D01*
X133327661Y-121052661D01*
X133355110Y-121030134D01*
X133386431Y-121013393D01*
X133420409Y-121003085D01*
X133461890Y-120999000D01*
X134138110Y-120999000D01*
X134179591Y-121003085D01*
X134179591Y-121003085D01*
G37*
G36*
X159871000Y-121636000D02*
G01*
X156769000Y-121636000D01*
X156769000Y-119934000D01*
X159871000Y-119934000D01*
X159871000Y-121636000D01*
X159871000Y-121636000D01*
G37*
G36*
X168651000Y-121451000D02*
G01*
X162349000Y-121451000D01*
X162349000Y-115549000D01*
X168651000Y-115549000D01*
X168651000Y-121451000D01*
X168651000Y-121451000D01*
G37*
G36*
X196818433Y-118634893D02*
G01*
X196908657Y-118652839D01*
X197014267Y-118696585D01*
X197163621Y-118758449D01*
X197163622Y-118758450D01*
X197393086Y-118911772D01*
X197588228Y-119106914D01*
X197690675Y-119260237D01*
X197741551Y-119336379D01*
X197800072Y-119477661D01*
X197847161Y-119591343D01*
X197865107Y-119681567D01*
X197901000Y-119862012D01*
X197901000Y-120137988D01*
X197887322Y-120206750D01*
X197847161Y-120408657D01*
X197821157Y-120471435D01*
X197741551Y-120663621D01*
X197741550Y-120663622D01*
X197588228Y-120893086D01*
X197393086Y-121088228D01*
X197307508Y-121145409D01*
X197163621Y-121241551D01*
X197014267Y-121303415D01*
X196908657Y-121347161D01*
X196818433Y-121365107D01*
X196637988Y-121401000D01*
X196362012Y-121401000D01*
X196181567Y-121365107D01*
X196091343Y-121347161D01*
X195985733Y-121303415D01*
X195836379Y-121241551D01*
X195692492Y-121145409D01*
X195606914Y-121088228D01*
X195411772Y-120893086D01*
X195258450Y-120663622D01*
X195258449Y-120663621D01*
X195178843Y-120471435D01*
X195152839Y-120408657D01*
X195112678Y-120206750D01*
X195099000Y-120137988D01*
X195099000Y-119862012D01*
X195134893Y-119681567D01*
X195152839Y-119591343D01*
X195199928Y-119477661D01*
X195258449Y-119336379D01*
X195309325Y-119260237D01*
X195411772Y-119106914D01*
X195606914Y-118911772D01*
X195836378Y-118758450D01*
X195836379Y-118758449D01*
X195985733Y-118696585D01*
X196091343Y-118652839D01*
X196181567Y-118634893D01*
X196362012Y-118599000D01*
X196637988Y-118599000D01*
X196818433Y-118634893D01*
X196818433Y-118634893D01*
G37*
G36*
X146484468Y-119403565D02*
G01*
X146523138Y-119415296D01*
X146558777Y-119434346D01*
X146590017Y-119459983D01*
X146615654Y-119491223D01*
X146634704Y-119526862D01*
X146646435Y-119565532D01*
X146651000Y-119611888D01*
X146651000Y-120263112D01*
X146646435Y-120309468D01*
X146634704Y-120348138D01*
X146615654Y-120383777D01*
X146590017Y-120415017D01*
X146558777Y-120440654D01*
X146523138Y-120459704D01*
X146484468Y-120471435D01*
X146438112Y-120476000D01*
X145361888Y-120476000D01*
X145315532Y-120471435D01*
X145276862Y-120459704D01*
X145241223Y-120440654D01*
X145209983Y-120415017D01*
X145184346Y-120383777D01*
X145165296Y-120348138D01*
X145153565Y-120309468D01*
X145149000Y-120263112D01*
X145149000Y-119611888D01*
X145153565Y-119565532D01*
X145165296Y-119526862D01*
X145184346Y-119491223D01*
X145209983Y-119459983D01*
X145241223Y-119434346D01*
X145276862Y-119415296D01*
X145315532Y-119403565D01*
X145361888Y-119399000D01*
X146438112Y-119399000D01*
X146484468Y-119403565D01*
X146484468Y-119403565D01*
G37*
G36*
X134179591Y-119428085D02*
G01*
X134213569Y-119438393D01*
X134244890Y-119455134D01*
X134272339Y-119477661D01*
X134294866Y-119505110D01*
X134311607Y-119536431D01*
X134321915Y-119570409D01*
X134326000Y-119611890D01*
X134326000Y-120213110D01*
X134321915Y-120254591D01*
X134311607Y-120288569D01*
X134294866Y-120319890D01*
X134272339Y-120347339D01*
X134244890Y-120369866D01*
X134213569Y-120386607D01*
X134179591Y-120396915D01*
X134138110Y-120401000D01*
X133461890Y-120401000D01*
X133420409Y-120396915D01*
X133386431Y-120386607D01*
X133355110Y-120369866D01*
X133327661Y-120347339D01*
X133305134Y-120319890D01*
X133288393Y-120288569D01*
X133278085Y-120254591D01*
X133274000Y-120213110D01*
X133274000Y-119611890D01*
X133278085Y-119570409D01*
X133288393Y-119536431D01*
X133305134Y-119505110D01*
X133327661Y-119477661D01*
X133355110Y-119455134D01*
X133386431Y-119438393D01*
X133420409Y-119428085D01*
X133461890Y-119424000D01*
X134138110Y-119424000D01*
X134179591Y-119428085D01*
X134179591Y-119428085D01*
G37*
G36*
X146484468Y-117528565D02*
G01*
X146523138Y-117540296D01*
X146558777Y-117559346D01*
X146590017Y-117584983D01*
X146615654Y-117616223D01*
X146634704Y-117651862D01*
X146646435Y-117690532D01*
X146651000Y-117736888D01*
X146651000Y-118388112D01*
X146646435Y-118434468D01*
X146634704Y-118473138D01*
X146615654Y-118508777D01*
X146590017Y-118540017D01*
X146558777Y-118565654D01*
X146523138Y-118584704D01*
X146484468Y-118596435D01*
X146438112Y-118601000D01*
X145361888Y-118601000D01*
X145315532Y-118596435D01*
X145276862Y-118584704D01*
X145241223Y-118565654D01*
X145209983Y-118540017D01*
X145184346Y-118508777D01*
X145165296Y-118473138D01*
X145153565Y-118434468D01*
X145149000Y-118388112D01*
X145149000Y-117736888D01*
X145153565Y-117690532D01*
X145165296Y-117651862D01*
X145184346Y-117616223D01*
X145209983Y-117584983D01*
X145241223Y-117559346D01*
X145276862Y-117540296D01*
X145315532Y-117528565D01*
X145361888Y-117524000D01*
X146438112Y-117524000D01*
X146484468Y-117528565D01*
X146484468Y-117528565D01*
G37*
G36*
X144180999Y-118456001D02*
G01*
X135228999Y-118456001D01*
X135228999Y-117254001D01*
X144180999Y-117254001D01*
X144180999Y-118456001D01*
X144180999Y-118456001D01*
G37*
G36*
X159871000Y-117066000D02*
G01*
X156769000Y-117066000D01*
X156769000Y-115364000D01*
X159871000Y-115364000D01*
X159871000Y-117066000D01*
X159871000Y-117066000D01*
G37*
G36*
X134979591Y-115503085D02*
G01*
X135013569Y-115513393D01*
X135044890Y-115530134D01*
X135072339Y-115552661D01*
X135094866Y-115580110D01*
X135111607Y-115611431D01*
X135121915Y-115645409D01*
X135126000Y-115686890D01*
X135126000Y-116288110D01*
X135121915Y-116329591D01*
X135111607Y-116363569D01*
X135094866Y-116394890D01*
X135072339Y-116422339D01*
X135044890Y-116444866D01*
X135013569Y-116461607D01*
X134979591Y-116471915D01*
X134938110Y-116476000D01*
X134261890Y-116476000D01*
X134220409Y-116471915D01*
X134186431Y-116461607D01*
X134155110Y-116444866D01*
X134127661Y-116422339D01*
X134105134Y-116394890D01*
X134088393Y-116363569D01*
X134078085Y-116329591D01*
X134074000Y-116288110D01*
X134074000Y-115686890D01*
X134078085Y-115645409D01*
X134088393Y-115611431D01*
X134105134Y-115580110D01*
X134127661Y-115552661D01*
X134155110Y-115530134D01*
X134186431Y-115513393D01*
X134220409Y-115503085D01*
X134261890Y-115499000D01*
X134938110Y-115499000D01*
X134979591Y-115503085D01*
X134979591Y-115503085D01*
G37*
G36*
X138254591Y-115078085D02*
G01*
X138288569Y-115088393D01*
X138319890Y-115105134D01*
X138347339Y-115127661D01*
X138369866Y-115155110D01*
X138386607Y-115186431D01*
X138396915Y-115220409D01*
X138401000Y-115261890D01*
X138401000Y-115938110D01*
X138396915Y-115979591D01*
X138386607Y-116013569D01*
X138369866Y-116044890D01*
X138347339Y-116072339D01*
X138319890Y-116094866D01*
X138288569Y-116111607D01*
X138254591Y-116121915D01*
X138213110Y-116126000D01*
X137611890Y-116126000D01*
X137570409Y-116121915D01*
X137536431Y-116111607D01*
X137505110Y-116094866D01*
X137477661Y-116072339D01*
X137455134Y-116044890D01*
X137438393Y-116013569D01*
X137428085Y-115979591D01*
X137424000Y-115938110D01*
X137424000Y-115261890D01*
X137428085Y-115220409D01*
X137438393Y-115186431D01*
X137455134Y-115155110D01*
X137477661Y-115127661D01*
X137505110Y-115105134D01*
X137536431Y-115088393D01*
X137570409Y-115078085D01*
X137611890Y-115074000D01*
X138213110Y-115074000D01*
X138254591Y-115078085D01*
X138254591Y-115078085D01*
G37*
G36*
X139829591Y-115078085D02*
G01*
X139863569Y-115088393D01*
X139894890Y-115105134D01*
X139922339Y-115127661D01*
X139944866Y-115155110D01*
X139961607Y-115186431D01*
X139971915Y-115220409D01*
X139976000Y-115261890D01*
X139976000Y-115938110D01*
X139971915Y-115979591D01*
X139961607Y-116013569D01*
X139944866Y-116044890D01*
X139922339Y-116072339D01*
X139894890Y-116094866D01*
X139863569Y-116111607D01*
X139829591Y-116121915D01*
X139788110Y-116126000D01*
X139186890Y-116126000D01*
X139145409Y-116121915D01*
X139111431Y-116111607D01*
X139080110Y-116094866D01*
X139052661Y-116072339D01*
X139030134Y-116044890D01*
X139013393Y-116013569D01*
X139003085Y-115979591D01*
X138999000Y-115938110D01*
X138999000Y-115261890D01*
X139003085Y-115220409D01*
X139013393Y-115186431D01*
X139030134Y-115155110D01*
X139052661Y-115127661D01*
X139080110Y-115105134D01*
X139111431Y-115088393D01*
X139145409Y-115078085D01*
X139186890Y-115074000D01*
X139788110Y-115074000D01*
X139829591Y-115078085D01*
X139829591Y-115078085D01*
G37*
G36*
X136579591Y-115103085D02*
G01*
X136613569Y-115113393D01*
X136644890Y-115130134D01*
X136672339Y-115152661D01*
X136694866Y-115180110D01*
X136711607Y-115211431D01*
X136721915Y-115245409D01*
X136726000Y-115286890D01*
X136726000Y-115888110D01*
X136721915Y-115929591D01*
X136711607Y-115963569D01*
X136694866Y-115994890D01*
X136672339Y-116022339D01*
X136644890Y-116044866D01*
X136613569Y-116061607D01*
X136579591Y-116071915D01*
X136538110Y-116076000D01*
X135861890Y-116076000D01*
X135820409Y-116071915D01*
X135786431Y-116061607D01*
X135755110Y-116044866D01*
X135727661Y-116022339D01*
X135705134Y-115994890D01*
X135688393Y-115963569D01*
X135678085Y-115929591D01*
X135674000Y-115888110D01*
X135674000Y-115286890D01*
X135678085Y-115245409D01*
X135688393Y-115211431D01*
X135705134Y-115180110D01*
X135727661Y-115152661D01*
X135755110Y-115130134D01*
X135786431Y-115113393D01*
X135820409Y-115103085D01*
X135861890Y-115099000D01*
X136538110Y-115099000D01*
X136579591Y-115103085D01*
X136579591Y-115103085D01*
G37*
G36*
X134979591Y-113928085D02*
G01*
X135013569Y-113938393D01*
X135044890Y-113955134D01*
X135072339Y-113977661D01*
X135094866Y-114005110D01*
X135111607Y-114036431D01*
X135121915Y-114070409D01*
X135126000Y-114111890D01*
X135126000Y-114713110D01*
X135121915Y-114754591D01*
X135111607Y-114788569D01*
X135094866Y-114819890D01*
X135072339Y-114847339D01*
X135044890Y-114869866D01*
X135013569Y-114886607D01*
X134979591Y-114896915D01*
X134938110Y-114901000D01*
X134261890Y-114901000D01*
X134220409Y-114896915D01*
X134186431Y-114886607D01*
X134155110Y-114869866D01*
X134127661Y-114847339D01*
X134105134Y-114819890D01*
X134088393Y-114788569D01*
X134078085Y-114754591D01*
X134074000Y-114713110D01*
X134074000Y-114111890D01*
X134078085Y-114070409D01*
X134088393Y-114036431D01*
X134105134Y-114005110D01*
X134127661Y-113977661D01*
X134155110Y-113955134D01*
X134186431Y-113938393D01*
X134220409Y-113928085D01*
X134261890Y-113924000D01*
X134938110Y-113924000D01*
X134979591Y-113928085D01*
X134979591Y-113928085D01*
G37*
G36*
X140009468Y-113053565D02*
G01*
X140048138Y-113065296D01*
X140083777Y-113084346D01*
X140115017Y-113109983D01*
X140140654Y-113141223D01*
X140159704Y-113176862D01*
X140171435Y-113215532D01*
X140176000Y-113261888D01*
X140176000Y-114338112D01*
X140171435Y-114384468D01*
X140159704Y-114423138D01*
X140140654Y-114458777D01*
X140115017Y-114490017D01*
X140083777Y-114515654D01*
X140048138Y-114534704D01*
X140009468Y-114546435D01*
X139963112Y-114551000D01*
X139311888Y-114551000D01*
X139265532Y-114546435D01*
X139226862Y-114534704D01*
X139191223Y-114515654D01*
X139159983Y-114490017D01*
X139134346Y-114458777D01*
X139115296Y-114423138D01*
X139103565Y-114384468D01*
X139099000Y-114338112D01*
X139099000Y-113261888D01*
X139103565Y-113215532D01*
X139115296Y-113176862D01*
X139134346Y-113141223D01*
X139159983Y-113109983D01*
X139191223Y-113084346D01*
X139226862Y-113065296D01*
X139265532Y-113053565D01*
X139311888Y-113049000D01*
X139963112Y-113049000D01*
X140009468Y-113053565D01*
X140009468Y-113053565D01*
G37*
G36*
X138134468Y-113053565D02*
G01*
X138173138Y-113065296D01*
X138208777Y-113084346D01*
X138240017Y-113109983D01*
X138265654Y-113141223D01*
X138284704Y-113176862D01*
X138296435Y-113215532D01*
X138301000Y-113261888D01*
X138301000Y-114338112D01*
X138296435Y-114384468D01*
X138284704Y-114423138D01*
X138265654Y-114458777D01*
X138240017Y-114490017D01*
X138208777Y-114515654D01*
X138173138Y-114534704D01*
X138134468Y-114546435D01*
X138088112Y-114551000D01*
X137436888Y-114551000D01*
X137390532Y-114546435D01*
X137351862Y-114534704D01*
X137316223Y-114515654D01*
X137284983Y-114490017D01*
X137259346Y-114458777D01*
X137240296Y-114423138D01*
X137228565Y-114384468D01*
X137224000Y-114338112D01*
X137224000Y-113261888D01*
X137228565Y-113215532D01*
X137240296Y-113176862D01*
X137259346Y-113141223D01*
X137284983Y-113109983D01*
X137316223Y-113084346D01*
X137351862Y-113065296D01*
X137390532Y-113053565D01*
X137436888Y-113049000D01*
X138088112Y-113049000D01*
X138134468Y-113053565D01*
X138134468Y-113053565D01*
G37*
G36*
X136579591Y-113528085D02*
G01*
X136613569Y-113538393D01*
X136644890Y-113555134D01*
X136672339Y-113577661D01*
X136694866Y-113605110D01*
X136711607Y-113636431D01*
X136721915Y-113670409D01*
X136726000Y-113711890D01*
X136726000Y-114313110D01*
X136721915Y-114354591D01*
X136711607Y-114388569D01*
X136694866Y-114419890D01*
X136672339Y-114447339D01*
X136644890Y-114469866D01*
X136613569Y-114486607D01*
X136579591Y-114496915D01*
X136538110Y-114501000D01*
X135861890Y-114501000D01*
X135820409Y-114496915D01*
X135786431Y-114486607D01*
X135755110Y-114469866D01*
X135727661Y-114447339D01*
X135705134Y-114419890D01*
X135688393Y-114388569D01*
X135678085Y-114354591D01*
X135674000Y-114313110D01*
X135674000Y-113711890D01*
X135678085Y-113670409D01*
X135688393Y-113636431D01*
X135705134Y-113605110D01*
X135727661Y-113577661D01*
X135755110Y-113555134D01*
X135786431Y-113538393D01*
X135820409Y-113528085D01*
X135861890Y-113524000D01*
X136538110Y-113524000D01*
X136579591Y-113528085D01*
X136579591Y-113528085D01*
G37*
G36*
X153971000Y-113436000D02*
G01*
X150869000Y-113436000D01*
X150869000Y-111734000D01*
X153971000Y-111734000D01*
X153971000Y-113436000D01*
X153971000Y-113436000D01*
G37*
G36*
X162751000Y-113251000D02*
G01*
X156449000Y-113251000D01*
X156449000Y-107349000D01*
X162751000Y-107349000D01*
X162751000Y-113251000D01*
X162751000Y-113251000D01*
G37*
G36*
X139118604Y-110378347D02*
G01*
X139155144Y-110389432D01*
X139188821Y-110407433D01*
X139218341Y-110431659D01*
X139242567Y-110461179D01*
X139260568Y-110494856D01*
X139271653Y-110531396D01*
X139276000Y-110575538D01*
X139276000Y-112024462D01*
X139271653Y-112068604D01*
X139260568Y-112105144D01*
X139242567Y-112138821D01*
X139218341Y-112168341D01*
X139188821Y-112192567D01*
X139155144Y-112210568D01*
X139118604Y-112221653D01*
X139074462Y-112226000D01*
X138125538Y-112226000D01*
X138081396Y-112221653D01*
X138044856Y-112210568D01*
X138011179Y-112192567D01*
X137981659Y-112168341D01*
X137957433Y-112138821D01*
X137939432Y-112105144D01*
X137928347Y-112068604D01*
X137924000Y-112024462D01*
X137924000Y-110575538D01*
X137928347Y-110531396D01*
X137939432Y-110494856D01*
X137957433Y-110461179D01*
X137981659Y-110431659D01*
X138011179Y-110407433D01*
X138044856Y-110389432D01*
X138081396Y-110378347D01*
X138125538Y-110374000D01*
X139074462Y-110374000D01*
X139118604Y-110378347D01*
X139118604Y-110378347D01*
G37*
G36*
X136318604Y-110378347D02*
G01*
X136355144Y-110389432D01*
X136388821Y-110407433D01*
X136418341Y-110431659D01*
X136442567Y-110461179D01*
X136460568Y-110494856D01*
X136471653Y-110531396D01*
X136476000Y-110575538D01*
X136476000Y-112024462D01*
X136471653Y-112068604D01*
X136460568Y-112105144D01*
X136442567Y-112138821D01*
X136418341Y-112168341D01*
X136388821Y-112192567D01*
X136355144Y-112210568D01*
X136318604Y-112221653D01*
X136274462Y-112226000D01*
X135325538Y-112226000D01*
X135281396Y-112221653D01*
X135244856Y-112210568D01*
X135211179Y-112192567D01*
X135181659Y-112168341D01*
X135157433Y-112138821D01*
X135139432Y-112105144D01*
X135128347Y-112068604D01*
X135124000Y-112024462D01*
X135124000Y-110575538D01*
X135128347Y-110531396D01*
X135139432Y-110494856D01*
X135157433Y-110461179D01*
X135181659Y-110431659D01*
X135211179Y-110407433D01*
X135244856Y-110389432D01*
X135281396Y-110378347D01*
X135325538Y-110374000D01*
X136274462Y-110374000D01*
X136318604Y-110378347D01*
X136318604Y-110378347D01*
G37*
G36*
X171872798Y-108478247D02*
G01*
X171908367Y-108489037D01*
X171941139Y-108506554D01*
X171969869Y-108530131D01*
X171993446Y-108558861D01*
X172010963Y-108591633D01*
X172021753Y-108627202D01*
X172026000Y-108670325D01*
X172026000Y-111729675D01*
X172021753Y-111772798D01*
X172010963Y-111808367D01*
X171993446Y-111841139D01*
X171969869Y-111869869D01*
X171941139Y-111893446D01*
X171908367Y-111910963D01*
X171872798Y-111921753D01*
X171829675Y-111926000D01*
X170770325Y-111926000D01*
X170727202Y-111921753D01*
X170691633Y-111910963D01*
X170658861Y-111893446D01*
X170630131Y-111869869D01*
X170606554Y-111841139D01*
X170589037Y-111808367D01*
X170578247Y-111772798D01*
X170574000Y-111729675D01*
X170574000Y-108670325D01*
X170578247Y-108627202D01*
X170589037Y-108591633D01*
X170606554Y-108558861D01*
X170630131Y-108530131D01*
X170658861Y-108506554D01*
X170691633Y-108489037D01*
X170727202Y-108478247D01*
X170770325Y-108474000D01*
X171829675Y-108474000D01*
X171872798Y-108478247D01*
X171872798Y-108478247D01*
G37*
G36*
X166072798Y-108478247D02*
G01*
X166108367Y-108489037D01*
X166141139Y-108506554D01*
X166169869Y-108530131D01*
X166193446Y-108558861D01*
X166210963Y-108591633D01*
X166221753Y-108627202D01*
X166226000Y-108670325D01*
X166226000Y-111729675D01*
X166221753Y-111772798D01*
X166210963Y-111808367D01*
X166193446Y-111841139D01*
X166169869Y-111869869D01*
X166141139Y-111893446D01*
X166108367Y-111910963D01*
X166072798Y-111921753D01*
X166029675Y-111926000D01*
X164970325Y-111926000D01*
X164927202Y-111921753D01*
X164891633Y-111910963D01*
X164858861Y-111893446D01*
X164830131Y-111869869D01*
X164806554Y-111841139D01*
X164789037Y-111808367D01*
X164778247Y-111772798D01*
X164774000Y-111729675D01*
X164774000Y-108670325D01*
X164778247Y-108627202D01*
X164789037Y-108591633D01*
X164806554Y-108558861D01*
X164830131Y-108530131D01*
X164858861Y-108506554D01*
X164891633Y-108489037D01*
X164927202Y-108478247D01*
X164970325Y-108474000D01*
X166029675Y-108474000D01*
X166072798Y-108478247D01*
X166072798Y-108478247D01*
G37*
G36*
X188001000Y-111751000D02*
G01*
X175399000Y-111751000D01*
X175399000Y-108499000D01*
X188001000Y-108499000D01*
X188001000Y-111751000D01*
X188001000Y-111751000D01*
G37*
G36*
X153971000Y-108866000D02*
G01*
X150869000Y-108866000D01*
X150869000Y-107164000D01*
X153971000Y-107164000D01*
X153971000Y-108866000D01*
X153971000Y-108866000D01*
G37*
G36*
X196571934Y-102402671D02*
G01*
X196601877Y-102411754D01*
X196629465Y-102426500D01*
X196653651Y-102446349D01*
X196673500Y-102470535D01*
X196688246Y-102498123D01*
X196697329Y-102528066D01*
X196701000Y-102565340D01*
X196701000Y-106334660D01*
X196697329Y-106371934D01*
X196688246Y-106401877D01*
X196673500Y-106429465D01*
X196653651Y-106453651D01*
X196629465Y-106473500D01*
X196601877Y-106488246D01*
X196571934Y-106497329D01*
X196534660Y-106501000D01*
X194265340Y-106501000D01*
X194228066Y-106497329D01*
X194198123Y-106488246D01*
X194170535Y-106473500D01*
X194146349Y-106453651D01*
X194126500Y-106429465D01*
X194111754Y-106401877D01*
X194102671Y-106371934D01*
X194099000Y-106334660D01*
X194099000Y-102565340D01*
X194102671Y-102528066D01*
X194111754Y-102498123D01*
X194126500Y-102470535D01*
X194146349Y-102446349D01*
X194170535Y-102426500D01*
X194198123Y-102411754D01*
X194228066Y-102402671D01*
X194265340Y-102399000D01*
X196534660Y-102399000D01*
X196571934Y-102402671D01*
X196571934Y-102402671D01*
G37*
G36*
X187571934Y-102402671D02*
G01*
X187601877Y-102411754D01*
X187629465Y-102426500D01*
X187653651Y-102446349D01*
X187673500Y-102470535D01*
X187688246Y-102498123D01*
X187697329Y-102528066D01*
X187701000Y-102565340D01*
X187701000Y-106334660D01*
X187697329Y-106371934D01*
X187688246Y-106401877D01*
X187673500Y-106429465D01*
X187653651Y-106453651D01*
X187629465Y-106473500D01*
X187601877Y-106488246D01*
X187571934Y-106497329D01*
X187534660Y-106501000D01*
X185265340Y-106501000D01*
X185228066Y-106497329D01*
X185198123Y-106488246D01*
X185170535Y-106473500D01*
X185146349Y-106453651D01*
X185126500Y-106429465D01*
X185111754Y-106401877D01*
X185102671Y-106371934D01*
X185099000Y-106334660D01*
X185099000Y-102565340D01*
X185102671Y-102528066D01*
X185111754Y-102498123D01*
X185126500Y-102470535D01*
X185146349Y-102446349D01*
X185170535Y-102426500D01*
X185198123Y-102411754D01*
X185228066Y-102402671D01*
X185265340Y-102399000D01*
X187534660Y-102399000D01*
X187571934Y-102402671D01*
X187571934Y-102402671D01*
G37*
G36*
X205571934Y-102402671D02*
G01*
X205601877Y-102411754D01*
X205629465Y-102426500D01*
X205653651Y-102446349D01*
X205673500Y-102470535D01*
X205688246Y-102498123D01*
X205697329Y-102528066D01*
X205701000Y-102565340D01*
X205701000Y-106334660D01*
X205697329Y-106371934D01*
X205688246Y-106401877D01*
X205673500Y-106429465D01*
X205653651Y-106453651D01*
X205629465Y-106473500D01*
X205601877Y-106488246D01*
X205571934Y-106497329D01*
X205534660Y-106501000D01*
X203265340Y-106501000D01*
X203228066Y-106497329D01*
X203198123Y-106488246D01*
X203170535Y-106473500D01*
X203146349Y-106453651D01*
X203126500Y-106429465D01*
X203111754Y-106401877D01*
X203102671Y-106371934D01*
X203099000Y-106334660D01*
X203099000Y-102565340D01*
X203102671Y-102528066D01*
X203111754Y-102498123D01*
X203126500Y-102470535D01*
X203146349Y-102446349D01*
X203170535Y-102426500D01*
X203198123Y-102411754D01*
X203228066Y-102402671D01*
X203265340Y-102399000D01*
X205534660Y-102399000D01*
X205571934Y-102402671D01*
X205571934Y-102402671D01*
G37*
G36*
X166971000Y-105836000D02*
G01*
X163869000Y-105836000D01*
X163869000Y-104134000D01*
X166971000Y-104134000D01*
X166971000Y-105836000D01*
X166971000Y-105836000D01*
G37*
G36*
X175751000Y-105651000D02*
G01*
X169449000Y-105651000D01*
X169449000Y-99749000D01*
X175751000Y-99749000D01*
X175751000Y-105651000D01*
X175751000Y-105651000D01*
G37*
G36*
X178968604Y-100528347D02*
G01*
X179005144Y-100539432D01*
X179038821Y-100557433D01*
X179068341Y-100581659D01*
X179092567Y-100611179D01*
X179110568Y-100644856D01*
X179121653Y-100681396D01*
X179126000Y-100725538D01*
X179126000Y-101674462D01*
X179121653Y-101718604D01*
X179110568Y-101755144D01*
X179092567Y-101788821D01*
X179068341Y-101818341D01*
X179038821Y-101842567D01*
X179005144Y-101860568D01*
X178968604Y-101871653D01*
X178924462Y-101876000D01*
X177475538Y-101876000D01*
X177431396Y-101871653D01*
X177394856Y-101860568D01*
X177361179Y-101842567D01*
X177331659Y-101818341D01*
X177307433Y-101788821D01*
X177289432Y-101755144D01*
X177278347Y-101718604D01*
X177274000Y-101674462D01*
X177274000Y-100725538D01*
X177278347Y-100681396D01*
X177289432Y-100644856D01*
X177307433Y-100611179D01*
X177331659Y-100581659D01*
X177361179Y-100557433D01*
X177394856Y-100539432D01*
X177431396Y-100528347D01*
X177475538Y-100524000D01*
X178924462Y-100524000D01*
X178968604Y-100528347D01*
X178968604Y-100528347D01*
G37*
G36*
X181468604Y-100528347D02*
G01*
X181505144Y-100539432D01*
X181538821Y-100557433D01*
X181568341Y-100581659D01*
X181592567Y-100611179D01*
X181610568Y-100644856D01*
X181621653Y-100681396D01*
X181626000Y-100725538D01*
X181626000Y-101674462D01*
X181621653Y-101718604D01*
X181610568Y-101755144D01*
X181592567Y-101788821D01*
X181568341Y-101818341D01*
X181538821Y-101842567D01*
X181505144Y-101860568D01*
X181468604Y-101871653D01*
X181424462Y-101876000D01*
X179975538Y-101876000D01*
X179931396Y-101871653D01*
X179894856Y-101860568D01*
X179861179Y-101842567D01*
X179831659Y-101818341D01*
X179807433Y-101788821D01*
X179789432Y-101755144D01*
X179778347Y-101718604D01*
X179774000Y-101674462D01*
X179774000Y-100725538D01*
X179778347Y-100681396D01*
X179789432Y-100644856D01*
X179807433Y-100611179D01*
X179831659Y-100581659D01*
X179861179Y-100557433D01*
X179894856Y-100539432D01*
X179931396Y-100528347D01*
X179975538Y-100524000D01*
X181424462Y-100524000D01*
X181468604Y-100528347D01*
X181468604Y-100528347D01*
G37*
G36*
X166971000Y-101266000D02*
G01*
X163869000Y-101266000D01*
X163869000Y-99564000D01*
X166971000Y-99564000D01*
X166971000Y-101266000D01*
X166971000Y-101266000D01*
G37*
G36*
X187571934Y-96302671D02*
G01*
X187601877Y-96311754D01*
X187629465Y-96326500D01*
X187653651Y-96346349D01*
X187673500Y-96370535D01*
X187688246Y-96398123D01*
X187697329Y-96428066D01*
X187701000Y-96465340D01*
X187701000Y-100234660D01*
X187697329Y-100271934D01*
X187688246Y-100301877D01*
X187673500Y-100329465D01*
X187653651Y-100353651D01*
X187629465Y-100373500D01*
X187601877Y-100388246D01*
X187571934Y-100397329D01*
X187534660Y-100401000D01*
X185265340Y-100401000D01*
X185228066Y-100397329D01*
X185198123Y-100388246D01*
X185170535Y-100373500D01*
X185146349Y-100353651D01*
X185126500Y-100329465D01*
X185111754Y-100301877D01*
X185102671Y-100271934D01*
X185099000Y-100234660D01*
X185099000Y-96465340D01*
X185102671Y-96428066D01*
X185111754Y-96398123D01*
X185126500Y-96370535D01*
X185146349Y-96346349D01*
X185170535Y-96326500D01*
X185198123Y-96311754D01*
X185228066Y-96302671D01*
X185265340Y-96299000D01*
X187534660Y-96299000D01*
X187571934Y-96302671D01*
X187571934Y-96302671D01*
G37*
G36*
X205571934Y-96302671D02*
G01*
X205601877Y-96311754D01*
X205629465Y-96326500D01*
X205653651Y-96346349D01*
X205673500Y-96370535D01*
X205688246Y-96398123D01*
X205697329Y-96428066D01*
X205701000Y-96465340D01*
X205701000Y-100234660D01*
X205697329Y-100271934D01*
X205688246Y-100301877D01*
X205673500Y-100329465D01*
X205653651Y-100353651D01*
X205629465Y-100373500D01*
X205601877Y-100388246D01*
X205571934Y-100397329D01*
X205534660Y-100401000D01*
X203265340Y-100401000D01*
X203228066Y-100397329D01*
X203198123Y-100388246D01*
X203170535Y-100373500D01*
X203146349Y-100353651D01*
X203126500Y-100329465D01*
X203111754Y-100301877D01*
X203102671Y-100271934D01*
X203099000Y-100234660D01*
X203099000Y-96465340D01*
X203102671Y-96428066D01*
X203111754Y-96398123D01*
X203126500Y-96370535D01*
X203146349Y-96346349D01*
X203170535Y-96326500D01*
X203198123Y-96311754D01*
X203228066Y-96302671D01*
X203265340Y-96299000D01*
X205534660Y-96299000D01*
X205571934Y-96302671D01*
X205571934Y-96302671D01*
G37*
G36*
X196571934Y-96302671D02*
G01*
X196601877Y-96311754D01*
X196629465Y-96326500D01*
X196653651Y-96346349D01*
X196673500Y-96370535D01*
X196688246Y-96398123D01*
X196697329Y-96428066D01*
X196701000Y-96465340D01*
X196701000Y-100234660D01*
X196697329Y-100271934D01*
X196688246Y-100301877D01*
X196673500Y-100329465D01*
X196653651Y-100353651D01*
X196629465Y-100373500D01*
X196601877Y-100388246D01*
X196571934Y-100397329D01*
X196534660Y-100401000D01*
X194265340Y-100401000D01*
X194228066Y-100397329D01*
X194198123Y-100388246D01*
X194170535Y-100373500D01*
X194146349Y-100353651D01*
X194126500Y-100329465D01*
X194111754Y-100301877D01*
X194102671Y-100271934D01*
X194099000Y-100234660D01*
X194099000Y-96465340D01*
X194102671Y-96428066D01*
X194111754Y-96398123D01*
X194126500Y-96370535D01*
X194146349Y-96346349D01*
X194170535Y-96326500D01*
X194198123Y-96311754D01*
X194228066Y-96302671D01*
X194265340Y-96299000D01*
X196534660Y-96299000D01*
X196571934Y-96302671D01*
X196571934Y-96302671D01*
G37*
G36*
X178968604Y-97728347D02*
G01*
X179005144Y-97739432D01*
X179038821Y-97757433D01*
X179068341Y-97781659D01*
X179092567Y-97811179D01*
X179110568Y-97844856D01*
X179121653Y-97881396D01*
X179126000Y-97925538D01*
X179126000Y-98874462D01*
X179121653Y-98918604D01*
X179110568Y-98955144D01*
X179092567Y-98988821D01*
X179068341Y-99018341D01*
X179038821Y-99042567D01*
X179005144Y-99060568D01*
X178968604Y-99071653D01*
X178924462Y-99076000D01*
X177475538Y-99076000D01*
X177431396Y-99071653D01*
X177394856Y-99060568D01*
X177361179Y-99042567D01*
X177331659Y-99018341D01*
X177307433Y-98988821D01*
X177289432Y-98955144D01*
X177278347Y-98918604D01*
X177274000Y-98874462D01*
X177274000Y-97925538D01*
X177278347Y-97881396D01*
X177289432Y-97844856D01*
X177307433Y-97811179D01*
X177331659Y-97781659D01*
X177361179Y-97757433D01*
X177394856Y-97739432D01*
X177431396Y-97728347D01*
X177475538Y-97724000D01*
X178924462Y-97724000D01*
X178968604Y-97728347D01*
X178968604Y-97728347D01*
G37*
G36*
X181468604Y-97728347D02*
G01*
X181505144Y-97739432D01*
X181538821Y-97757433D01*
X181568341Y-97781659D01*
X181592567Y-97811179D01*
X181610568Y-97844856D01*
X181621653Y-97881396D01*
X181626000Y-97925538D01*
X181626000Y-98874462D01*
X181621653Y-98918604D01*
X181610568Y-98955144D01*
X181592567Y-98988821D01*
X181568341Y-99018341D01*
X181538821Y-99042567D01*
X181505144Y-99060568D01*
X181468604Y-99071653D01*
X181424462Y-99076000D01*
X179975538Y-99076000D01*
X179931396Y-99071653D01*
X179894856Y-99060568D01*
X179861179Y-99042567D01*
X179831659Y-99018341D01*
X179807433Y-98988821D01*
X179789432Y-98955144D01*
X179778347Y-98918604D01*
X179774000Y-98874462D01*
X179774000Y-97925538D01*
X179778347Y-97881396D01*
X179789432Y-97844856D01*
X179807433Y-97811179D01*
X179831659Y-97781659D01*
X179861179Y-97757433D01*
X179894856Y-97739432D01*
X179931396Y-97728347D01*
X179975538Y-97724000D01*
X181424462Y-97724000D01*
X181468604Y-97728347D01*
X181468604Y-97728347D01*
G37*
G36*
X133818433Y-95934893D02*
G01*
X133908657Y-95952839D01*
X134014267Y-95996585D01*
X134163621Y-96058449D01*
X134163622Y-96058450D01*
X134393086Y-96211772D01*
X134588228Y-96406914D01*
X134656063Y-96508437D01*
X134741551Y-96636379D01*
X134803415Y-96785733D01*
X134847161Y-96891343D01*
X134901000Y-97162014D01*
X134901000Y-97437986D01*
X134847161Y-97708657D01*
X134839005Y-97728347D01*
X134741551Y-97963621D01*
X134741550Y-97963622D01*
X134588228Y-98193086D01*
X134393086Y-98388228D01*
X134239763Y-98490675D01*
X134163621Y-98541551D01*
X134014267Y-98603415D01*
X133908657Y-98647161D01*
X133818433Y-98665107D01*
X133637988Y-98701000D01*
X133362012Y-98701000D01*
X133181567Y-98665107D01*
X133091343Y-98647161D01*
X132985733Y-98603415D01*
X132836379Y-98541551D01*
X132760237Y-98490675D01*
X132606914Y-98388228D01*
X132411772Y-98193086D01*
X132258450Y-97963622D01*
X132258449Y-97963621D01*
X132160995Y-97728347D01*
X132152839Y-97708657D01*
X132099000Y-97437986D01*
X132099000Y-97162014D01*
X132152839Y-96891343D01*
X132196585Y-96785733D01*
X132258449Y-96636379D01*
X132343937Y-96508437D01*
X132411772Y-96406914D01*
X132606914Y-96211772D01*
X132836378Y-96058450D01*
X132836379Y-96058449D01*
X132985733Y-95996585D01*
X133091343Y-95952839D01*
X133181567Y-95934893D01*
X133362012Y-95899000D01*
X133637988Y-95899000D01*
X133818433Y-95934893D01*
X133818433Y-95934893D01*
G37*
M02*
