G04 #@! TF.GenerationSoftware,KiCad,Pcbnew,5.1.4-e60b266~84~ubuntu18.04.1*
G04 #@! TF.CreationDate,2019-10-13T11:44:25+02:00*
G04 #@! TF.ProjectId,Buck_boost,4275636b-5f62-46f6-9f73-742e6b696361,rev?*
G04 #@! TF.SameCoordinates,Original*
G04 #@! TF.FileFunction,Soldermask,Bot*
G04 #@! TF.FilePolarity,Negative*
%FSLAX46Y46*%
G04 Gerber Fmt 4.6, Leading zero omitted, Abs format (unit mm)*
G04 Created by KiCad (PCBNEW 5.1.4-e60b266~84~ubuntu18.04.1) date 2019-10-13 11:44:25*
%MOMM*%
%LPD*%
G04 APERTURE LIST*
%ADD10C,0.100000*%
G04 APERTURE END LIST*
D10*
G36*
X209750000Y-130550000D02*
G01*
X203000000Y-130550000D01*
X203000000Y-116350000D01*
X209750000Y-116350000D01*
X209750000Y-130550000D01*
G37*
X209750000Y-130550000D02*
X203000000Y-130550000D01*
X203000000Y-116350000D01*
X209750000Y-116350000D01*
X209750000Y-130550000D01*
G36*
X209750000Y-131300000D02*
G01*
X209750000Y-137300000D01*
X209350000Y-137700000D01*
X203350000Y-137700000D01*
X203350000Y-130900000D01*
X209350000Y-130900000D01*
X209750000Y-131300000D01*
G37*
X209750000Y-131300000D02*
X209750000Y-137300000D01*
X209350000Y-137700000D01*
X203350000Y-137700000D01*
X203350000Y-130900000D01*
X209350000Y-130900000D01*
X209750000Y-131300000D01*
G36*
X209750000Y-115600000D02*
G01*
X209350000Y-116000000D01*
X203650000Y-116000000D01*
X203000000Y-115350000D01*
X203000000Y-109500000D01*
X209750000Y-109500000D01*
X209750000Y-115600000D01*
G37*
X209750000Y-115600000D02*
X209350000Y-116000000D01*
X203650000Y-116000000D01*
X203000000Y-115350000D01*
X203000000Y-109500000D01*
X209750000Y-109500000D01*
X209750000Y-115600000D01*
G36*
X163500000Y-123450000D02*
G01*
X163500000Y-128950000D01*
X162850000Y-129600000D01*
X155750000Y-129600000D01*
X155100000Y-128950000D01*
X155100000Y-123450000D01*
X155750000Y-122800000D01*
X162850000Y-122800000D01*
X163500000Y-123450000D01*
G37*
X163500000Y-123450000D02*
X163500000Y-128950000D01*
X162850000Y-129600000D01*
X155750000Y-129600000D01*
X155100000Y-128950000D01*
X155100000Y-123450000D01*
X155750000Y-122800000D01*
X162850000Y-122800000D01*
X163500000Y-123450000D01*
G36*
X170300000Y-115750000D02*
G01*
X170300000Y-121250000D01*
X169650000Y-121900000D01*
X162550000Y-121900000D01*
X161900000Y-121250000D01*
X161900000Y-115750000D01*
X162550000Y-115100000D01*
X169650000Y-115100000D01*
X170300000Y-115750000D01*
G37*
X170300000Y-115750000D02*
X170300000Y-121250000D01*
X169650000Y-121900000D01*
X162550000Y-121900000D01*
X161900000Y-121250000D01*
X161900000Y-115750000D01*
X162550000Y-115100000D01*
X169650000Y-115100000D01*
X170300000Y-115750000D01*
G36*
X164400000Y-107550000D02*
G01*
X164400000Y-113050000D01*
X163750000Y-113700000D01*
X156650000Y-113700000D01*
X156000000Y-113050000D01*
X156000000Y-107550000D01*
X156650000Y-106900000D01*
X163750000Y-106900000D01*
X164400000Y-107550000D01*
G37*
X164400000Y-107550000D02*
X164400000Y-113050000D01*
X163750000Y-113700000D01*
X156650000Y-113700000D01*
X156000000Y-113050000D01*
X156000000Y-107550000D01*
X156650000Y-106900000D01*
X163750000Y-106900000D01*
X164400000Y-107550000D01*
G36*
X177400000Y-99950000D02*
G01*
X177400000Y-105450000D01*
X176750000Y-106100000D01*
X169650000Y-106100000D01*
X169000000Y-105450000D01*
X169000000Y-99950000D01*
X169650000Y-99300000D01*
X176750000Y-99300000D01*
X177400000Y-99950000D01*
G37*
X177400000Y-99950000D02*
X177400000Y-105450000D01*
X176750000Y-106100000D01*
X169650000Y-106100000D01*
X169000000Y-105450000D01*
X169000000Y-99950000D01*
X169650000Y-99300000D01*
X176750000Y-99300000D01*
X177400000Y-99950000D01*
G36*
X133818433Y-141334893D02*
G01*
X133908657Y-141352839D01*
X134014267Y-141396585D01*
X134163621Y-141458449D01*
X134163622Y-141458450D01*
X134393086Y-141611772D01*
X134588228Y-141806914D01*
X134690675Y-141960237D01*
X134741551Y-142036379D01*
X134847161Y-142291344D01*
X134901000Y-142562012D01*
X134901000Y-142837988D01*
X134847161Y-143108656D01*
X134741551Y-143363621D01*
X134741550Y-143363622D01*
X134588228Y-143593086D01*
X134393086Y-143788228D01*
X134239763Y-143890675D01*
X134163621Y-143941551D01*
X134014267Y-144003415D01*
X133908657Y-144047161D01*
X133818433Y-144065107D01*
X133637988Y-144101000D01*
X133362012Y-144101000D01*
X133181567Y-144065107D01*
X133091343Y-144047161D01*
X132985733Y-144003415D01*
X132836379Y-143941551D01*
X132760237Y-143890675D01*
X132606914Y-143788228D01*
X132411772Y-143593086D01*
X132258450Y-143363622D01*
X132258449Y-143363621D01*
X132152839Y-143108656D01*
X132099000Y-142837988D01*
X132099000Y-142562012D01*
X132152839Y-142291344D01*
X132258449Y-142036379D01*
X132309325Y-141960237D01*
X132411772Y-141806914D01*
X132606914Y-141611772D01*
X132836378Y-141458450D01*
X132836379Y-141458449D01*
X132985733Y-141396585D01*
X133091343Y-141352839D01*
X133181567Y-141334893D01*
X133362012Y-141299000D01*
X133637988Y-141299000D01*
X133818433Y-141334893D01*
X133818433Y-141334893D01*
G37*
G36*
X196818433Y-118634893D02*
G01*
X196908657Y-118652839D01*
X197014267Y-118696585D01*
X197163621Y-118758449D01*
X197163622Y-118758450D01*
X197393086Y-118911772D01*
X197588228Y-119106914D01*
X197690675Y-119260237D01*
X197741551Y-119336379D01*
X197847161Y-119591344D01*
X197901000Y-119862012D01*
X197901000Y-120137988D01*
X197847161Y-120408656D01*
X197741551Y-120663621D01*
X197741550Y-120663622D01*
X197588228Y-120893086D01*
X197393086Y-121088228D01*
X197239763Y-121190675D01*
X197163621Y-121241551D01*
X197014267Y-121303415D01*
X196908657Y-121347161D01*
X196818433Y-121365107D01*
X196637988Y-121401000D01*
X196362012Y-121401000D01*
X196181567Y-121365107D01*
X196091343Y-121347161D01*
X195985733Y-121303415D01*
X195836379Y-121241551D01*
X195760237Y-121190675D01*
X195606914Y-121088228D01*
X195411772Y-120893086D01*
X195258450Y-120663622D01*
X195258449Y-120663621D01*
X195152839Y-120408656D01*
X195099000Y-120137988D01*
X195099000Y-119862012D01*
X195152839Y-119591344D01*
X195258449Y-119336379D01*
X195309325Y-119260237D01*
X195411772Y-119106914D01*
X195606914Y-118911772D01*
X195836378Y-118758450D01*
X195836379Y-118758449D01*
X195985733Y-118696585D01*
X196091343Y-118652839D01*
X196181567Y-118634893D01*
X196362012Y-118599000D01*
X196637988Y-118599000D01*
X196818433Y-118634893D01*
X196818433Y-118634893D01*
G37*
G36*
X133818433Y-95934893D02*
G01*
X133908657Y-95952839D01*
X134014267Y-95996585D01*
X134163621Y-96058449D01*
X134163622Y-96058450D01*
X134393086Y-96211772D01*
X134588228Y-96406914D01*
X134690675Y-96560237D01*
X134741551Y-96636379D01*
X134847161Y-96891344D01*
X134901000Y-97162012D01*
X134901000Y-97437988D01*
X134847161Y-97708656D01*
X134741551Y-97963621D01*
X134741550Y-97963622D01*
X134588228Y-98193086D01*
X134393086Y-98388228D01*
X134239763Y-98490675D01*
X134163621Y-98541551D01*
X134014267Y-98603415D01*
X133908657Y-98647161D01*
X133818433Y-98665107D01*
X133637988Y-98701000D01*
X133362012Y-98701000D01*
X133181567Y-98665107D01*
X133091343Y-98647161D01*
X132985733Y-98603415D01*
X132836379Y-98541551D01*
X132760237Y-98490675D01*
X132606914Y-98388228D01*
X132411772Y-98193086D01*
X132258450Y-97963622D01*
X132258449Y-97963621D01*
X132152839Y-97708656D01*
X132099000Y-97437988D01*
X132099000Y-97162012D01*
X132152839Y-96891344D01*
X132258449Y-96636379D01*
X132309325Y-96560237D01*
X132411772Y-96406914D01*
X132606914Y-96211772D01*
X132836378Y-96058450D01*
X132836379Y-96058449D01*
X132985733Y-95996585D01*
X133091343Y-95952839D01*
X133181567Y-95934893D01*
X133362012Y-95899000D01*
X133637988Y-95899000D01*
X133818433Y-95934893D01*
X133818433Y-95934893D01*
G37*
M02*
