M48
; DRILL file {KiCad (5.1.4)-1} date 12/11/2019 14:47:30
; FORMAT={-:-/ absolute / inch / decimal}
; #@! TF.CreationDate,2019-11-12T14:47:30+09:00
; #@! TF.GenerationSoftware,Kicad,Pcbnew,(5.1.4)-1
FMAT,2
INCH
T1C0.0157
T2C0.0276
T3C0.0315
T4C0.0354
T5C0.0394
T6C0.0400
T7C0.0512
T8C0.0650
T9C0.0669
T10C0.0866
T11C0.1260
%
G90
G05
T1
X1.2724Y-10.1378
X1.2724Y-12.6969
X1.7646Y-13.2087
X1.7843Y-12.0472
X1.7843Y-13.0118
X1.8236Y-12.0276
X1.8827Y-13.0906
X1.922Y-13.189
X1.9614Y-9.9213
X1.9614Y-12.6181
X1.9713Y-10.561
X1.9811Y-9.8425
X2.0008Y-10.4134
X2.0402Y-10.0394
X2.0598Y-10.4724
X2.3748Y-12.3819
X2.4142Y-10.0
X2.4339Y-12.4213
X2.4929Y-9.9606
X2.7882Y-12.4606
X2.8866Y-7.2638
X3.0047Y-12.3819
X3.0047Y-7.3031
X3.2409Y-8.3661
X3.3Y-8.4055
X3.3394Y-8.0118
X3.3591Y-7.7559
X3.4004Y-8.0118
X3.4181Y-7.3425
X3.4181Y-7.4016
X3.4449Y-7.7559
X3.4772Y-11.1614
X3.5165Y-7.7559
X3.5165Y-11.0827
X3.5217Y-9.9213
X3.5559Y-9.8019
X3.5559Y-7.6575
X3.8709Y-11.2205
X3.9693Y-7.1063
X4.0087Y-9.2126
X4.0087Y-10.4331
X4.0087Y-11.752
X4.0087Y-13.0118
X4.048Y-6.9291
X4.0874Y-7.0472
X4.1661Y-9.252
X4.422Y-9.4291
X4.422Y-9.6063
X4.422Y-9.8031
X4.422Y-10.0
X4.422Y-10.689
X4.422Y-10.8858
X4.422Y-11.0827
X4.422Y-11.2795
X4.422Y-11.9488
X4.422Y-12.1654
X4.422Y-12.3622
X4.422Y-12.5591
X4.422Y-13.248
X4.422Y-13.4449
X4.422Y-13.6417
X4.4614Y-8.7205
X4.5205Y-6.2402
X4.5205Y-13.4252
X4.5402Y-8.9567
X4.5402Y-9.2323
X4.5402Y-13.1496
X4.5598Y-9.2913
X4.6189Y-11.3386
X4.6386Y-12.5787
X4.7173Y-9.1732
X5.0717Y-11.1811
X5.0717Y-12.0472
X5.0717Y-13.7008
X5.0913Y-12.2638
X5.1701Y-9.5866
X5.2882Y-11.2992
X5.2882Y-12.5787
X5.3276Y-9.9803
X5.4654Y-10.8465
X5.5244Y-10.4724
X5.6228Y-11.0433
X6.5874Y-11.6535
X6.6287Y-12.0374
X6.6858Y-8.5827
X6.7055Y-7.874
X6.7646Y-7.9134
X6.7646Y-8.826
X6.8236Y-10.7874
X6.8236Y-13.3465
X6.863Y-7.8346
X6.9178Y-7.7996
X6.922Y-11.0236
X6.922Y-13.5827
X7.178Y-9.2913
X7.237Y-11.9882
X7.2961Y-11.021
X7.7291Y-10.4331
X7.7291Y-13.0118
X7.8472Y-10.315
X7.8866Y-12.8543
X7.9654Y-7.2047
X7.9654Y-7.3031
X8.0441Y-10.9646
X8.0835Y-13.5236
T2
X0.9719Y-10.6677
X0.9719Y-10.7177
X0.9719Y-10.7677
X0.9719Y-10.8177
X0.9719Y-10.8677
X1.0219Y-10.6677
X1.0219Y-10.7177
X1.0219Y-10.7677
X1.0219Y-10.8177
X1.0219Y-10.8677
X8.0585Y-13.2268
X8.0585Y-13.2768
X8.0585Y-13.3268
X8.0585Y-13.3768
X8.0585Y-13.4268
X8.1085Y-13.2268
X8.1085Y-13.2768
X8.1085Y-13.3268
X8.1085Y-13.3768
X8.1085Y-13.4268
X8.0585Y-10.6677
X8.0585Y-10.7177
X8.0585Y-10.7677
X8.0585Y-10.8177
X8.0585Y-10.8677
X8.1085Y-10.6677
X8.1085Y-10.7177
X8.1085Y-10.7677
X8.1085Y-10.8177
X8.1085Y-10.8677
X0.9719Y-13.2268
X0.9719Y-13.2768
X0.9719Y-13.3268
X0.9719Y-13.3768
X0.9719Y-13.4268
X1.0219Y-13.2268
X1.0219Y-13.2768
X1.0219Y-13.3268
X1.0219Y-13.3768
X1.0219Y-13.4268
T3
X2.5606Y-12.9134
X2.5606Y-13.2134
X2.6606Y-12.9134
X2.6606Y-13.2134
X2.7606Y-12.9134
X2.7606Y-13.2134
X2.8606Y-12.9134
X2.8606Y-13.2134
X2.9606Y-12.9134
X2.9606Y-13.2134
X3.0606Y-12.9134
X3.0606Y-13.2134
X3.1606Y-12.9134
X3.1606Y-13.2134
X3.2606Y-12.9134
X3.2606Y-13.2134
X5.8087Y-12.9134
X5.8087Y-13.2134
X5.9087Y-12.9134
X5.9087Y-13.2134
X6.0087Y-12.9134
X6.0087Y-13.2134
X6.1087Y-12.9134
X6.1087Y-13.2134
X6.2087Y-12.9134
X6.2087Y-13.2134
X6.3087Y-12.9134
X6.3087Y-13.2134
X6.4087Y-12.9134
X6.4087Y-13.2134
X6.5087Y-12.9134
X6.5087Y-13.2134
X5.8087Y-10.3543
X5.8087Y-10.6543
X5.9087Y-10.3543
X5.9087Y-10.6543
X6.0087Y-10.3543
X6.0087Y-10.6543
X6.1087Y-10.3543
X6.1087Y-10.6543
X6.2087Y-10.3543
X6.2087Y-10.6543
X6.3087Y-10.3543
X6.3087Y-10.6543
X6.4087Y-10.3543
X6.4087Y-10.6543
X6.5087Y-10.3543
X6.5087Y-10.6543
X2.5606Y-10.3543
X2.5606Y-10.6543
X2.6606Y-10.3543
X2.6606Y-10.6543
X2.7606Y-10.3543
X2.7606Y-10.6543
X2.8606Y-10.3543
X2.8606Y-10.6543
X2.9606Y-10.3543
X2.9606Y-10.6543
X3.0606Y-10.3543
X3.0606Y-10.6543
X3.1606Y-10.3543
X3.1606Y-10.6543
X3.2606Y-10.3543
X3.2606Y-10.6543
T4
X2.8276Y-6.122
X2.926Y-6.122
X3.0244Y-6.122
X3.1228Y-6.122
X3.2213Y-6.122
X3.3197Y-6.122
X3.4181Y-6.122
X3.5165Y-6.122
X3.615Y-6.122
X3.7134Y-6.122
X3.8118Y-6.122
X3.9102Y-6.122
X4.9831Y-8.0906
X5.0815Y-8.0906
X5.1799Y-8.0906
X5.2783Y-8.0906
X5.3768Y-8.0906
X5.4752Y-8.0906
X5.5736Y-8.0906
X5.672Y-8.0906
X5.7705Y-8.0906
X5.8689Y-8.0906
X1.4398Y-8.7795
X1.5382Y-8.7795
X1.6366Y-8.7795
X1.735Y-8.7795
X1.8335Y-8.7795
X1.9319Y-8.7795
X2.0303Y-8.7795
X2.1287Y-8.7795
X2.2272Y-8.7795
X2.3256Y-8.7795
X4.2154Y-10.6988
X4.2154Y-10.7972
X4.2154Y-10.8957
X4.2154Y-10.9941
X4.2154Y-11.0925
X4.2154Y-11.1909
X4.2154Y-11.2894
X4.2154Y-11.3878
X4.2154Y-11.4862
X4.2154Y-11.5846
X4.9831Y-7.5984
X5.0815Y-7.5984
X5.1799Y-7.5984
X5.2783Y-7.5984
X5.3768Y-7.5984
X5.4752Y-7.5984
X5.5736Y-7.5984
X5.672Y-7.5984
X5.7705Y-7.5984
X5.8689Y-7.5984
X0.9969Y-8.7795
X0.9969Y-8.878
X0.9969Y-8.9764
X8.0835Y-8.7795
X8.0835Y-8.878
X8.0835Y-8.9764
X4.9831Y-6.122
X5.0815Y-6.122
X5.1799Y-6.122
X5.2783Y-6.122
X5.3768Y-6.122
X5.4752Y-6.122
X5.5736Y-6.122
X5.672Y-6.122
X5.7705Y-6.122
X5.8689Y-6.122
X4.2449Y-8.1398
X4.2449Y-8.2382
X4.865Y-13.2579
X4.865Y-13.3563
X4.865Y-13.4547
X4.865Y-13.5531
X4.865Y-13.6516
X4.865Y-13.75
X4.865Y-13.8484
X4.865Y-13.9469
X4.865Y-14.0453
X4.865Y-14.1437
X1.4398Y-7.1063
X1.5382Y-7.1063
X1.6366Y-7.1063
X1.735Y-7.1063
X1.8335Y-7.1063
X1.9319Y-7.1063
X2.0303Y-7.1063
X2.1287Y-7.1063
X2.2272Y-7.1063
X2.3256Y-7.1063
X7.7882Y-8.1398
X7.7882Y-8.2382
X4.865Y-9.4193
X4.865Y-9.5177
X4.865Y-9.6161
X4.865Y-9.7146
X4.865Y-9.813
X4.865Y-9.9114
X4.865Y-10.0098
X4.865Y-10.1083
X4.865Y-10.2067
X4.865Y-10.3051
X4.9831Y-7.1063
X5.0815Y-7.1063
X5.1799Y-7.1063
X5.2783Y-7.1063
X5.3768Y-7.1063
X5.4752Y-7.1063
X5.5736Y-7.1063
X5.672Y-7.1063
X5.7705Y-7.1063
X5.8689Y-7.1063
X4.9831Y-6.6142
X5.0815Y-6.6142
X5.1799Y-6.6142
X5.2783Y-6.6142
X5.3768Y-6.6142
X5.4752Y-6.6142
X5.5736Y-6.6142
X5.672Y-6.6142
X5.7705Y-6.6142
X5.8689Y-6.6142
X7.7882Y-6.6142
X7.7882Y-6.7126
X7.7882Y-6.811
X7.7882Y-6.9094
X7.7882Y-7.0079
X7.7882Y-7.1063
X7.7882Y-7.2047
X7.7882Y-7.3031
X7.7882Y-7.4016
X7.7882Y-7.5
X7.7882Y-7.5984
X7.7882Y-7.6969
X4.2449Y-6.6142
X4.2449Y-6.7126
X4.2449Y-6.811
X4.2449Y-6.9094
X4.2449Y-7.0079
X4.2449Y-7.1063
X4.2449Y-7.2047
X4.2449Y-7.3031
X4.2449Y-7.4016
X4.2449Y-7.5
X4.2449Y-7.5984
X4.2449Y-7.6969
X4.2154Y-11.9783
X4.2154Y-12.0768
X4.2154Y-12.1752
X4.2154Y-12.2736
X4.2154Y-12.372
X4.2154Y-12.4705
X4.2154Y-12.5689
X4.2154Y-12.6673
X4.2154Y-12.7657
X4.2154Y-12.8642
X4.865Y-11.9783
X4.865Y-12.0768
X4.865Y-12.1752
X4.865Y-12.2736
X4.865Y-12.372
X4.865Y-12.4705
X4.865Y-12.5689
X4.865Y-12.6673
X4.865Y-12.7657
X4.865Y-12.8642
X1.4398Y-6.6142
X1.5382Y-6.6142
X1.6366Y-6.6142
X1.735Y-6.6142
X1.8335Y-6.6142
X1.9319Y-6.6142
X2.0303Y-6.6142
X2.1287Y-6.6142
X2.2272Y-6.6142
X2.3256Y-6.6142
X1.4398Y-7.5984
X1.5382Y-7.5984
X1.6366Y-7.5984
X1.735Y-7.5984
X1.8335Y-7.5984
X1.9319Y-7.5984
X2.0303Y-7.5984
X2.1287Y-7.5984
X2.2272Y-7.5984
X2.3256Y-7.5984
X4.2154Y-13.2579
X4.2154Y-13.3563
X4.2154Y-13.4547
X4.2154Y-13.5531
X4.2154Y-13.6516
X4.2154Y-13.75
X4.2154Y-13.8484
X4.2154Y-13.9469
X4.2154Y-14.0453
X4.2154Y-14.1437
X4.2154Y-9.4193
X4.2154Y-9.5177
X4.2154Y-9.6161
X4.2154Y-9.7146
X4.2154Y-9.813
X4.2154Y-9.9114
X4.2154Y-10.0098
X4.2154Y-10.1083
X4.2154Y-10.2067
X4.2154Y-10.3051
X6.2626Y-6.122
X6.361Y-6.122
X6.4594Y-6.122
X6.5579Y-6.122
X6.6563Y-6.122
X6.7547Y-6.122
X6.8531Y-6.122
X6.9516Y-6.122
X7.05Y-6.122
X7.1484Y-6.122
X7.2469Y-6.122
X7.3453Y-6.122
X1.4398Y-6.122
X1.5382Y-6.122
X1.6366Y-6.122
X1.735Y-6.122
X1.8335Y-6.122
X1.9319Y-6.122
X2.0303Y-6.122
X2.1287Y-6.122
X2.2272Y-6.122
X2.3256Y-6.122
X4.865Y-10.6988
X4.865Y-10.7972
X4.865Y-10.8957
X4.865Y-10.9941
X4.865Y-11.0925
X4.865Y-11.1909
X4.865Y-11.2894
X4.865Y-11.3878
X4.865Y-11.4862
X4.865Y-11.5846
T5
X2.8138Y-5.6299
X2.9138Y-5.6299
X3.0138Y-5.6299
X3.1138Y-5.6299
X3.2138Y-5.6299
X3.3138Y-5.6299
X8.1819Y-4.9409
X8.1819Y-5.0409
X8.1819Y-5.1409
X8.1819Y-5.2409
X8.1819Y-5.3409
X8.1819Y-5.4409
X8.1819Y-5.5409
X8.1819Y-5.6409
X8.1819Y-5.7409
X8.1819Y-5.8409
X8.2819Y-4.9409
X8.2819Y-5.0409
X8.2819Y-5.1409
X8.2819Y-5.2409
X8.2819Y-5.3409
X8.2819Y-5.4409
X8.2819Y-5.5409
X8.2819Y-5.6409
X8.2819Y-5.7409
X8.2819Y-5.8409
X0.8Y-4.9409
X0.8Y-5.0409
X0.8Y-5.1409
X0.8Y-5.2409
X0.8Y-5.3409
X0.8Y-5.4409
X0.8Y-5.5409
X0.8Y-5.6409
X0.8Y-5.7409
X0.8Y-5.8409
X0.9Y-4.9409
X0.9Y-5.0409
X0.9Y-5.1409
X0.9Y-5.2409
X0.9Y-5.3409
X0.9Y-5.4409
X0.9Y-5.5409
X0.9Y-5.6409
X0.9Y-5.7409
X0.9Y-5.8409
X1.8295Y-5.6299
X1.9295Y-5.6299
X2.0295Y-5.6299
X2.1295Y-5.6299
X2.2295Y-5.6299
X2.3295Y-5.6299
X5.6681Y-5.5709
X5.7681Y-5.5709
X5.8681Y-5.5709
X5.9681Y-5.5709
X6.0681Y-5.5709
X6.1681Y-5.5709
X6.6524Y-5.5709
X6.7524Y-5.5709
X6.8524Y-5.5709
X6.9524Y-5.5709
X7.0524Y-5.5709
X7.1524Y-5.5709
T6
X0.8787Y-12.2244
X0.8787Y-12.3244
X0.8787Y-12.4244
X0.8787Y-12.5244
X0.8787Y-12.6244
X0.9787Y-12.2244
X0.9787Y-12.3244
X0.9787Y-12.4244
X0.9787Y-12.5244
X0.9787Y-12.6244
X0.8787Y-9.6622
X0.8787Y-9.7622
X0.8787Y-9.8622
X0.8787Y-9.9622
X0.8787Y-10.0622
X0.9787Y-9.6622
X0.9787Y-9.7622
X0.9787Y-9.8622
X0.9787Y-9.9622
X0.9787Y-10.0622
X8.0622Y-9.6622
X8.0622Y-9.7622
X8.0622Y-9.8622
X8.0622Y-9.9622
X8.0622Y-10.0622
X8.1622Y-9.6622
X8.1622Y-9.7622
X8.1622Y-9.8622
X8.1622Y-9.9622
X8.1622Y-10.0622
X8.0622Y-12.2213
X8.0622Y-12.3213
X8.0622Y-12.4213
X8.0622Y-12.5213
X8.0622Y-12.6213
X8.1622Y-12.2213
X8.1622Y-12.3213
X8.1622Y-12.4213
X8.1622Y-12.5213
X8.1622Y-12.6213
T7
X0.7213Y-13.7008
X1.2724Y-9.2717
X1.5087Y-10.5709
X1.5087Y-11.752
X1.7843Y-13.6417
X1.863Y-12.3425
X2.178Y-11.1614
X2.2961Y-9.626
X2.8276Y-11.752
X3.3394Y-6.3386
X3.7528Y-8.8189
X6.9024Y-9.8425
X6.9024Y-11.378
X7.2173Y-12.3425
X7.237Y-13.937
X7.5717Y-11.6929
X7.7685Y-9.4882
X7.8079Y-12.0276
X7.9134Y-6.3976
X8.1622Y-10.4528
X8.1693Y-13.0315
T8
X7.5717Y-13.4669
X7.5717Y-13.6228
X7.5717Y-13.7787
X7.5717Y-13.9346
X7.5717Y-9.6283
X7.5717Y-9.7843
X7.5717Y-9.9402
X7.5717Y-10.0961
X1.5087Y-12.1874
X1.5087Y-12.3433
X1.5087Y-12.4992
X1.5087Y-12.6551
X7.5717Y-12.1874
X7.5717Y-12.3433
X7.5717Y-12.4992
X7.5717Y-12.6551
X1.5087Y-13.4669
X1.5087Y-13.6228
X1.5087Y-13.7787
X1.5087Y-13.9346
X1.5087Y-9.6283
X1.5087Y-9.7843
X1.5087Y-9.9402
X1.5087Y-10.0961
X7.5717Y-10.9079
X7.5717Y-11.0638
X7.5717Y-11.2197
X7.5717Y-11.3756
X1.5087Y-10.9079
X1.5087Y-11.0638
X1.5087Y-11.2197
X1.5087Y-11.3756
T9
X0.8787Y-13.8976
X0.8787Y-14.0535
X8.1622Y-11.3386
X8.1622Y-11.4945
X0.8787Y-11.3386
X0.8787Y-11.4945
X8.1622Y-13.8976
X8.1622Y-14.0535
X3.826Y-5.1378
X3.9819Y-5.1378
X4.1378Y-5.1378
X4.2937Y-5.1378
X4.4496Y-5.1378
X4.6055Y-5.1378
X4.7614Y-5.1378
X4.9173Y-5.1378
X5.0732Y-5.1378
X5.2291Y-5.1378
T10
X5.3276Y-13.2087
X5.3276Y-14.1929
X6.9024Y-13.2087
X6.9024Y-14.1929
X5.3276Y-9.3701
X5.3276Y-10.3543
X6.9024Y-9.3701
X6.9024Y-10.3543
X6.3118Y-6.7126
X6.3118Y-8.2874
X7.2961Y-6.7126
X7.2961Y-8.2874
X2.178Y-11.9291
X2.178Y-12.9134
X3.7528Y-11.9291
X3.7528Y-12.9134
X5.3276Y-11.9291
X5.3276Y-12.9134
X6.9024Y-11.9291
X6.9024Y-12.9134
X2.8669Y-6.7126
X2.8669Y-8.2874
X3.8512Y-6.7126
X3.8512Y-8.2874
X2.178Y-13.2087
X2.178Y-14.1929
X3.7528Y-13.2087
X3.7528Y-14.1929
X2.178Y-9.3701
X2.178Y-10.3543
X3.7528Y-9.3701
X3.7528Y-10.3543
X5.3276Y-10.6496
X5.3276Y-11.6339
X6.9024Y-10.6496
X6.9024Y-11.6339
X2.178Y-10.6496
X2.178Y-11.6339
X3.7528Y-10.6496
X3.7528Y-11.6339
T11
X7.6402Y-4.7835
X7.6402Y-9.1504
X7.6402Y-14.3504
X1.4402Y-4.7835
X1.4402Y-8.2504
X1.4402Y-14.3504
T0
M30
