M48
; DRILL file {KiCad (5.1.4)-1} date 13/11/2019 17:45:31
; FORMAT={-:-/ absolute / inch / decimal}
; #@! TF.CreationDate,2019-11-13T17:45:31+09:00
; #@! TF.GenerationSoftware,Kicad,Pcbnew,(5.1.4)-1
FMAT,2
INCH
T1C0.0354
T2C0.0669
T3C0.0709
T4C0.1181
T5C0.1260
%
G90
G05
T1
X1.5748Y-4.124
X1.5748Y-3.75
X3.4154Y-2.7559
X3.5138Y-2.7559
X1.998Y-2.7559
X2.0965Y-2.7559
X2.9429Y-2.7559
X3.0413Y-2.7559
X1.5748Y-3.1791
X1.5748Y-3.2776
X1.5748Y-4.2224
X1.5748Y-3.6516
X2.4705Y-2.7559
X2.5689Y-2.7559
T2
X2.7953Y-4.2661
X2.7953Y-4.422
X2.7953Y-4.578
X2.7953Y-4.7339
X2.7953Y-4.8898
X2.7953Y-5.0457
X2.7953Y-5.2016
X2.7953Y-5.3575
X2.7953Y-5.5134
X2.7953Y-5.6693
X2.7953Y-3.7024
X2.7953Y-3.8583
T3
X1.939Y-4.6417
X1.939Y-4.8071
X2.1555Y-4.6417
X2.1555Y-4.8071
X3.3563Y-5.3504
X3.3563Y-5.5157
X3.5728Y-5.3504
X3.5728Y-5.5157
X3.3563Y-3.2244
X3.3563Y-3.3898
X3.5728Y-3.2244
X3.5728Y-3.3898
X1.939Y-5.3504
X1.939Y-5.5157
X2.1555Y-5.3504
X2.1555Y-5.5157
X3.3563Y-3.9331
X3.3563Y-4.0984
X3.5728Y-3.9331
X3.5728Y-4.0984
X3.3563Y-4.6417
X3.3563Y-4.8071
X3.5728Y-4.6417
X3.5728Y-4.8071
T4
X3.8602Y-4.7244
X3.8602Y-5.4331
X3.8602Y-3.3071
X1.6516Y-5.4331
X3.8602Y-4.0157
X1.6516Y-4.7244
T5
X1.5354Y-5.9449
X3.9764Y-2.7165
X1.5354Y-2.7165
X3.9764Y-5.9449
T0
M30
