G04 #@! TF.GenerationSoftware,KiCad,Pcbnew,(5.1.4)-1*
G04 #@! TF.CreationDate,2019-11-13T17:45:08+09:00*
G04 #@! TF.ProjectId,PowerDistributionUnit,506f7765-7244-4697-9374-726962757469,rev?*
G04 #@! TF.SameCoordinates,Original*
G04 #@! TF.FileFunction,Legend,Top*
G04 #@! TF.FilePolarity,Positive*
%FSLAX46Y46*%
G04 Gerber Fmt 4.6, Leading zero omitted, Abs format (unit mm)*
G04 Created by KiCad (PCBNEW (5.1.4)-1) date 2019-11-13 17:45:08*
%MOMM*%
%LPD*%
G04 APERTURE LIST*
%ADD10C,0.200000*%
G04 APERTURE END LIST*
D10*
X96298571Y-90678571D02*
X95441428Y-90678571D01*
X95870000Y-90678571D02*
X95870000Y-89178571D01*
X95727142Y-89392857D01*
X95584285Y-89535714D01*
X95441428Y-89607142D01*
X97584285Y-89678571D02*
X97584285Y-90678571D01*
X97227142Y-89107142D02*
X96870000Y-90178571D01*
X97798571Y-90178571D01*
X98370000Y-90535714D02*
X98441428Y-90607142D01*
X98370000Y-90678571D01*
X98298571Y-90607142D01*
X98370000Y-90535714D01*
X98370000Y-90678571D01*
X99798571Y-89178571D02*
X99084285Y-89178571D01*
X99012857Y-89892857D01*
X99084285Y-89821428D01*
X99227142Y-89750000D01*
X99584285Y-89750000D01*
X99727142Y-89821428D01*
X99798571Y-89892857D01*
X99870000Y-90035714D01*
X99870000Y-90392857D01*
X99798571Y-90535714D01*
X99727142Y-90607142D01*
X99584285Y-90678571D01*
X99227142Y-90678571D01*
X99084285Y-90607142D01*
X99012857Y-90535714D01*
X100298571Y-89178571D02*
X100798571Y-90678571D01*
X101298571Y-89178571D01*
X102941428Y-90678571D02*
X102941428Y-89178571D01*
X103655714Y-90678571D02*
X103655714Y-89178571D01*
X104512857Y-90678571D01*
X104512857Y-89178571D01*
X97584285Y-107321428D02*
X97655714Y-107250000D01*
X97798571Y-107178571D01*
X98155714Y-107178571D01*
X98298571Y-107250000D01*
X98370000Y-107321428D01*
X98441428Y-107464285D01*
X98441428Y-107607142D01*
X98370000Y-107821428D01*
X97512857Y-108678571D01*
X98441428Y-108678571D01*
X99727142Y-107678571D02*
X99727142Y-108678571D01*
X99370000Y-107107142D02*
X99012857Y-108178571D01*
X99941428Y-108178571D01*
X100298571Y-107178571D02*
X100798571Y-108678571D01*
X101298571Y-107178571D01*
X102941428Y-108678571D02*
X102941428Y-107178571D01*
X103655714Y-108678571D02*
X103655714Y-107178571D01*
X104512857Y-108678571D01*
X104512857Y-107178571D01*
X97512857Y-125178571D02*
X98441428Y-125178571D01*
X97941428Y-125750000D01*
X98155714Y-125750000D01*
X98298571Y-125821428D01*
X98370000Y-125892857D01*
X98441428Y-126035714D01*
X98441428Y-126392857D01*
X98370000Y-126535714D01*
X98298571Y-126607142D01*
X98155714Y-126678571D01*
X97727142Y-126678571D01*
X97584285Y-126607142D01*
X97512857Y-126535714D01*
X99727142Y-125178571D02*
X99441428Y-125178571D01*
X99298571Y-125250000D01*
X99227142Y-125321428D01*
X99084285Y-125535714D01*
X99012857Y-125821428D01*
X99012857Y-126392857D01*
X99084285Y-126535714D01*
X99155714Y-126607142D01*
X99298571Y-126678571D01*
X99584285Y-126678571D01*
X99727142Y-126607142D01*
X99798571Y-126535714D01*
X99870000Y-126392857D01*
X99870000Y-126035714D01*
X99798571Y-125892857D01*
X99727142Y-125821428D01*
X99584285Y-125750000D01*
X99298571Y-125750000D01*
X99155714Y-125821428D01*
X99084285Y-125892857D01*
X99012857Y-126035714D01*
X100298571Y-125178571D02*
X100798571Y-126678571D01*
X101298571Y-125178571D01*
X102941428Y-126678571D02*
X102941428Y-125178571D01*
X103655714Y-126678571D02*
X103655714Y-125178571D01*
X104512857Y-126678571D01*
X104512857Y-125178571D01*
X97512857Y-143178571D02*
X98441428Y-143178571D01*
X97941428Y-143750000D01*
X98155714Y-143750000D01*
X98298571Y-143821428D01*
X98370000Y-143892857D01*
X98441428Y-144035714D01*
X98441428Y-144392857D01*
X98370000Y-144535714D01*
X98298571Y-144607142D01*
X98155714Y-144678571D01*
X97727142Y-144678571D01*
X97584285Y-144607142D01*
X97512857Y-144535714D01*
X99727142Y-143178571D02*
X99441428Y-143178571D01*
X99298571Y-143250000D01*
X99227142Y-143321428D01*
X99084285Y-143535714D01*
X99012857Y-143821428D01*
X99012857Y-144392857D01*
X99084285Y-144535714D01*
X99155714Y-144607142D01*
X99298571Y-144678571D01*
X99584285Y-144678571D01*
X99727142Y-144607142D01*
X99798571Y-144535714D01*
X99870000Y-144392857D01*
X99870000Y-144035714D01*
X99798571Y-143892857D01*
X99727142Y-143821428D01*
X99584285Y-143750000D01*
X99298571Y-143750000D01*
X99155714Y-143821428D01*
X99084285Y-143892857D01*
X99012857Y-144035714D01*
X100298571Y-143178571D02*
X100798571Y-144678571D01*
X101298571Y-143178571D01*
X102941428Y-144678571D02*
X102941428Y-143178571D01*
X103655714Y-144678571D02*
X103655714Y-143178571D01*
X104512857Y-144678571D01*
X104512857Y-143178571D01*
X36272857Y-144678571D02*
X35415714Y-144678571D01*
X35844285Y-144678571D02*
X35844285Y-143178571D01*
X35701428Y-143392857D01*
X35558571Y-143535714D01*
X35415714Y-143607142D01*
X36844285Y-143321428D02*
X36915714Y-143250000D01*
X37058571Y-143178571D01*
X37415714Y-143178571D01*
X37558571Y-143250000D01*
X37630000Y-143321428D01*
X37701428Y-143464285D01*
X37701428Y-143607142D01*
X37630000Y-143821428D01*
X36772857Y-144678571D01*
X37701428Y-144678571D01*
X38130000Y-143178571D02*
X38630000Y-144678571D01*
X39130000Y-143178571D01*
X40772857Y-144678571D02*
X40772857Y-143178571D01*
X41487142Y-144678571D02*
X41487142Y-143178571D01*
X42344285Y-144678571D01*
X42344285Y-143178571D01*
X36201428Y-125178571D02*
X35487142Y-125178571D01*
X35415714Y-125892857D01*
X35487142Y-125821428D01*
X35630000Y-125750000D01*
X35987142Y-125750000D01*
X36130000Y-125821428D01*
X36201428Y-125892857D01*
X36272857Y-126035714D01*
X36272857Y-126392857D01*
X36201428Y-126535714D01*
X36130000Y-126607142D01*
X35987142Y-126678571D01*
X35630000Y-126678571D01*
X35487142Y-126607142D01*
X35415714Y-126535714D01*
X36701428Y-125178571D02*
X37201428Y-126678571D01*
X37701428Y-125178571D01*
X39344285Y-126678571D02*
X39344285Y-125178571D01*
X40058571Y-126678571D02*
X40058571Y-125178571D01*
X40915714Y-126678571D01*
X40915714Y-125178571D01*
X71095238Y-105904761D02*
X70428571Y-104952380D01*
X69952380Y-105904761D02*
X69952380Y-103904761D01*
X70714285Y-103904761D01*
X70904761Y-104000000D01*
X71000000Y-104095238D01*
X71095238Y-104285714D01*
X71095238Y-104571428D01*
X71000000Y-104761904D01*
X70904761Y-104857142D01*
X70714285Y-104952380D01*
X69952380Y-104952380D01*
X71952380Y-105904761D02*
X71952380Y-103904761D01*
X72904761Y-103904761D02*
X72904761Y-105523809D01*
X73000000Y-105714285D01*
X73095238Y-105809523D01*
X73285714Y-105904761D01*
X73666666Y-105904761D01*
X73857142Y-105809523D01*
X73952380Y-105714285D01*
X74047619Y-105523809D01*
X74047619Y-103904761D01*
X69333333Y-90904761D02*
X68190476Y-90904761D01*
X68761904Y-90904761D02*
X68761904Y-88904761D01*
X68571428Y-89190476D01*
X68380952Y-89380952D01*
X68190476Y-89476190D01*
X71047619Y-89571428D02*
X71047619Y-90904761D01*
X70571428Y-88809523D02*
X70095238Y-90238095D01*
X71333333Y-90238095D01*
X72095238Y-90714285D02*
X72190476Y-90809523D01*
X72095238Y-90904761D01*
X72000000Y-90809523D01*
X72095238Y-90714285D01*
X72095238Y-90904761D01*
X74000000Y-88904761D02*
X73047619Y-88904761D01*
X72952380Y-89857142D01*
X73047619Y-89761904D01*
X73238095Y-89666666D01*
X73714285Y-89666666D01*
X73904761Y-89761904D01*
X74000000Y-89857142D01*
X74095238Y-90047619D01*
X74095238Y-90523809D01*
X74000000Y-90714285D01*
X73904761Y-90809523D01*
X73714285Y-90904761D01*
X73238095Y-90904761D01*
X73047619Y-90809523D01*
X72952380Y-90714285D01*
X74666666Y-88904761D02*
X75333333Y-90904761D01*
X76000000Y-88904761D01*
X47904761Y-101761904D02*
X47904761Y-102714285D01*
X48857142Y-102809523D01*
X48761904Y-102714285D01*
X48666666Y-102523809D01*
X48666666Y-102047619D01*
X48761904Y-101857142D01*
X48857142Y-101761904D01*
X49047619Y-101666666D01*
X49523809Y-101666666D01*
X49714285Y-101761904D01*
X49809523Y-101857142D01*
X49904761Y-102047619D01*
X49904761Y-102523809D01*
X49809523Y-102714285D01*
X49714285Y-102809523D01*
X47904761Y-101095238D02*
X49904761Y-100428571D01*
X47904761Y-99761904D01*
X47904761Y-97190476D02*
X47904761Y-96809523D01*
X48000000Y-96619047D01*
X48190476Y-96428571D01*
X48571428Y-96333333D01*
X49238095Y-96333333D01*
X49619047Y-96428571D01*
X49809523Y-96619047D01*
X49904761Y-96809523D01*
X49904761Y-97190476D01*
X49809523Y-97380952D01*
X49619047Y-97571428D01*
X49238095Y-97666666D01*
X48571428Y-97666666D01*
X48190476Y-97571428D01*
X48000000Y-97380952D01*
X47904761Y-97190476D01*
X47904761Y-95476190D02*
X49523809Y-95476190D01*
X49714285Y-95380952D01*
X49809523Y-95285714D01*
X49904761Y-95095238D01*
X49904761Y-94714285D01*
X49809523Y-94523809D01*
X49714285Y-94428571D01*
X49523809Y-94333333D01*
X47904761Y-94333333D01*
X47904761Y-93666666D02*
X47904761Y-92523809D01*
X49904761Y-93095238D02*
X47904761Y-93095238D01*
X49904761Y-91857142D02*
X47904761Y-91857142D01*
X47904761Y-91095238D01*
X48000000Y-90904761D01*
X48095238Y-90809523D01*
X48285714Y-90714285D01*
X48571428Y-90714285D01*
X48761904Y-90809523D01*
X48857142Y-90904761D01*
X48952380Y-91095238D01*
X48952380Y-91857142D01*
X47904761Y-89857142D02*
X49523809Y-89857142D01*
X49714285Y-89761904D01*
X49809523Y-89666666D01*
X49904761Y-89476190D01*
X49904761Y-89095238D01*
X49809523Y-88904761D01*
X49714285Y-88809523D01*
X49523809Y-88714285D01*
X47904761Y-88714285D01*
X47904761Y-88047619D02*
X47904761Y-86904761D01*
X49904761Y-87476190D02*
X47904761Y-87476190D01*
X49809523Y-86333333D02*
X49904761Y-86047619D01*
X49904761Y-85571428D01*
X49809523Y-85380952D01*
X49714285Y-85285714D01*
X49523809Y-85190476D01*
X49333333Y-85190476D01*
X49142857Y-85285714D01*
X49047619Y-85380952D01*
X48952380Y-85571428D01*
X48857142Y-85952380D01*
X48761904Y-86142857D01*
X48666666Y-86238095D01*
X48476190Y-86333333D01*
X48285714Y-86333333D01*
X48095238Y-86238095D01*
X48000000Y-86142857D01*
X47904761Y-85952380D01*
X47904761Y-85476190D01*
X48000000Y-85190476D01*
X47000000Y-81000000D02*
X47000000Y-108000000D01*
X61380952Y-79904761D02*
X60238095Y-79904761D01*
X60809523Y-79904761D02*
X60809523Y-77904761D01*
X60619047Y-78190476D01*
X60428571Y-78380952D01*
X60238095Y-78476190D01*
X62142857Y-78095238D02*
X62238095Y-78000000D01*
X62428571Y-77904761D01*
X62904761Y-77904761D01*
X63095238Y-78000000D01*
X63190476Y-78095238D01*
X63285714Y-78285714D01*
X63285714Y-78476190D01*
X63190476Y-78761904D01*
X62047619Y-79904761D01*
X63285714Y-79904761D01*
X63857142Y-77904761D02*
X64523809Y-79904761D01*
X65190476Y-77904761D01*
X67761904Y-77904761D02*
X68142857Y-77904761D01*
X68333333Y-78000000D01*
X68523809Y-78190476D01*
X68619047Y-78571428D01*
X68619047Y-79238095D01*
X68523809Y-79619047D01*
X68333333Y-79809523D01*
X68142857Y-79904761D01*
X67761904Y-79904761D01*
X67571428Y-79809523D01*
X67380952Y-79619047D01*
X67285714Y-79238095D01*
X67285714Y-78571428D01*
X67380952Y-78190476D01*
X67571428Y-78000000D01*
X67761904Y-77904761D01*
X69476190Y-77904761D02*
X69476190Y-79523809D01*
X69571428Y-79714285D01*
X69666666Y-79809523D01*
X69857142Y-79904761D01*
X70238095Y-79904761D01*
X70428571Y-79809523D01*
X70523809Y-79714285D01*
X70619047Y-79523809D01*
X70619047Y-77904761D01*
X71285714Y-77904761D02*
X72428571Y-77904761D01*
X71857142Y-79904761D02*
X71857142Y-77904761D01*
X73095238Y-79904761D02*
X73095238Y-77904761D01*
X73857142Y-77904761D01*
X74047619Y-78000000D01*
X74142857Y-78095238D01*
X74238095Y-78285714D01*
X74238095Y-78571428D01*
X74142857Y-78761904D01*
X74047619Y-78857142D01*
X73857142Y-78952380D01*
X73095238Y-78952380D01*
X75095238Y-77904761D02*
X75095238Y-79523809D01*
X75190476Y-79714285D01*
X75285714Y-79809523D01*
X75476190Y-79904761D01*
X75857142Y-79904761D01*
X76047619Y-79809523D01*
X76142857Y-79714285D01*
X76238095Y-79523809D01*
X76238095Y-77904761D01*
X76904761Y-77904761D02*
X78047619Y-77904761D01*
X77476190Y-79904761D02*
X77476190Y-77904761D01*
X78619047Y-79809523D02*
X78904761Y-79904761D01*
X79380952Y-79904761D01*
X79571428Y-79809523D01*
X79666666Y-79714285D01*
X79761904Y-79523809D01*
X79761904Y-79333333D01*
X79666666Y-79142857D01*
X79571428Y-79047619D01*
X79380952Y-78952380D01*
X79000000Y-78857142D01*
X78809523Y-78761904D01*
X78714285Y-78666666D01*
X78619047Y-78476190D01*
X78619047Y-78285714D01*
X78714285Y-78095238D01*
X78809523Y-78000000D01*
X79000000Y-77904761D01*
X79476190Y-77904761D01*
X79761904Y-78000000D01*
X94000000Y-77000000D02*
X94000000Y-66000000D01*
X46000000Y-77000000D02*
X94000000Y-77000000D01*
X46000000Y-66000000D02*
X46000000Y-77000000D01*
X37500000Y-122100000D02*
X35350000Y-122100000D01*
X37500000Y-117900000D02*
X37500000Y-122100000D01*
X35350000Y-117900000D02*
X37500000Y-117900000D01*
X35350000Y-115500000D02*
X35350000Y-120000000D01*
X48150000Y-115500000D02*
X35350000Y-115500000D01*
X48150000Y-116500000D02*
X48150000Y-115500000D01*
X47500000Y-116500000D02*
X48150000Y-116500000D01*
X47500000Y-123500000D02*
X47500000Y-116500000D01*
X48150000Y-123500000D02*
X47500000Y-123500000D01*
X48150000Y-124500000D02*
X48150000Y-123500000D01*
X35350000Y-124500000D02*
X48150000Y-124500000D01*
X35350000Y-120000000D02*
X35350000Y-124500000D01*
X102500000Y-81900000D02*
X104650000Y-81900000D01*
X102500000Y-86100000D02*
X102500000Y-81900000D01*
X104650000Y-86100000D02*
X102500000Y-86100000D01*
X104650000Y-88500000D02*
X104650000Y-84000000D01*
X91850000Y-88500000D02*
X104650000Y-88500000D01*
X91850000Y-87500000D02*
X91850000Y-88500000D01*
X92500000Y-87500000D02*
X91850000Y-87500000D01*
X92500000Y-80500000D02*
X92500000Y-87500000D01*
X91850000Y-80500000D02*
X92500000Y-80500000D01*
X91850000Y-79500000D02*
X91850000Y-80500000D01*
X104650000Y-79500000D02*
X91850000Y-79500000D01*
X104650000Y-84000000D02*
X104650000Y-79500000D01*
X102500000Y-99900000D02*
X104650000Y-99900000D01*
X102500000Y-104100000D02*
X102500000Y-99900000D01*
X104650000Y-104100000D02*
X102500000Y-104100000D01*
X104650000Y-106500000D02*
X104650000Y-102000000D01*
X91850000Y-106500000D02*
X104650000Y-106500000D01*
X91850000Y-105500000D02*
X91850000Y-106500000D01*
X92500000Y-105500000D02*
X91850000Y-105500000D01*
X92500000Y-98500000D02*
X92500000Y-105500000D01*
X91850000Y-98500000D02*
X92500000Y-98500000D01*
X91850000Y-97500000D02*
X91850000Y-98500000D01*
X104650000Y-97500000D02*
X91850000Y-97500000D01*
X104650000Y-102000000D02*
X104650000Y-97500000D01*
X102500000Y-117900000D02*
X104650000Y-117900000D01*
X102500000Y-122100000D02*
X102500000Y-117900000D01*
X104650000Y-122100000D02*
X102500000Y-122100000D01*
X104650000Y-124500000D02*
X104650000Y-120000000D01*
X91850000Y-124500000D02*
X104650000Y-124500000D01*
X91850000Y-123500000D02*
X91850000Y-124500000D01*
X92500000Y-123500000D02*
X91850000Y-123500000D01*
X92500000Y-116500000D02*
X92500000Y-123500000D01*
X91850000Y-116500000D02*
X92500000Y-116500000D01*
X91850000Y-115500000D02*
X91850000Y-116500000D01*
X104650000Y-115500000D02*
X91850000Y-115500000D01*
X104650000Y-120000000D02*
X104650000Y-115500000D01*
X102500000Y-135900000D02*
X104650000Y-135900000D01*
X102500000Y-140100000D02*
X102500000Y-135900000D01*
X104650000Y-140100000D02*
X102500000Y-140100000D01*
X104650000Y-142500000D02*
X104650000Y-138000000D01*
X91850000Y-142500000D02*
X104650000Y-142500000D01*
X91850000Y-141500000D02*
X91850000Y-142500000D01*
X92500000Y-141500000D02*
X91850000Y-141500000D01*
X92500000Y-134500000D02*
X92500000Y-141500000D01*
X91850000Y-134500000D02*
X92500000Y-134500000D01*
X91850000Y-133500000D02*
X91850000Y-134500000D01*
X104650000Y-133500000D02*
X91850000Y-133500000D01*
X104650000Y-138000000D02*
X104650000Y-133500000D01*
X37500000Y-140100000D02*
X35350000Y-140100000D01*
X37500000Y-135900000D02*
X37500000Y-140100000D01*
X35350000Y-135900000D02*
X37500000Y-135900000D01*
X35350000Y-133500000D02*
X35350000Y-138000000D01*
X48150000Y-133500000D02*
X35350000Y-133500000D01*
X48150000Y-134500000D02*
X48150000Y-133500000D01*
X47500000Y-134500000D02*
X48150000Y-134500000D01*
X47500000Y-141500000D02*
X47500000Y-134500000D01*
X48150000Y-141500000D02*
X47500000Y-141500000D01*
X48150000Y-142500000D02*
X48150000Y-141500000D01*
X35350000Y-142500000D02*
X48150000Y-142500000D01*
X35350000Y-138000000D02*
X35350000Y-142500000D01*
X71300000Y-146860000D02*
X70700000Y-146860000D01*
X75910000Y-106300000D02*
X75910000Y-146060000D01*
X75910000Y-146060000D02*
X68890000Y-146060000D01*
X70700000Y-146860000D02*
X71000000Y-146260000D01*
X68890000Y-106300000D02*
X75910000Y-106300000D01*
X67190000Y-144860000D02*
X67190000Y-107500000D01*
X71000000Y-146260000D02*
X71300000Y-146860000D01*
X68890000Y-107500000D02*
X68890000Y-106300000D01*
X67190000Y-107500000D02*
X68890000Y-107500000D01*
X68890000Y-144860000D02*
X67190000Y-144860000D01*
X68890000Y-146060000D02*
X68890000Y-144860000D01*
X68890000Y-98860000D02*
X67190000Y-98860000D01*
X67190000Y-98860000D02*
X67190000Y-93180000D01*
X75910000Y-100060000D02*
X68890000Y-100060000D01*
X68890000Y-100060000D02*
X68890000Y-98860000D01*
X75910000Y-91980000D02*
X75910000Y-100060000D01*
X68890000Y-93180000D02*
X68890000Y-91980000D01*
X67190000Y-93180000D02*
X68890000Y-93180000D01*
X68890000Y-91980000D02*
X75910000Y-91980000D01*
X55750000Y-73200000D02*
X48250000Y-73200000D01*
X48250000Y-73200000D02*
X48250000Y-66800000D01*
X48250000Y-68070000D02*
X55750000Y-68070000D01*
X55750000Y-66800000D02*
X55750000Y-73200000D01*
X48250000Y-66800000D02*
X55750000Y-66800000D01*
X84250000Y-66800000D02*
X91750000Y-66800000D01*
X91750000Y-66800000D02*
X91750000Y-73200000D01*
X84250000Y-68070000D02*
X91750000Y-68070000D01*
X84250000Y-73200000D02*
X84250000Y-66800000D01*
X91750000Y-73200000D02*
X84250000Y-73200000D01*
X79750000Y-73200000D02*
X72250000Y-73200000D01*
X72250000Y-73200000D02*
X72250000Y-66800000D01*
X72250000Y-68070000D02*
X79750000Y-68070000D01*
X79750000Y-66800000D02*
X79750000Y-73200000D01*
X72250000Y-66800000D02*
X79750000Y-66800000D01*
X60250000Y-66800000D02*
X67750000Y-66800000D01*
X67750000Y-66800000D02*
X67750000Y-73200000D01*
X60250000Y-68070000D02*
X67750000Y-68070000D01*
X60250000Y-73200000D02*
X60250000Y-66800000D01*
X67750000Y-73200000D02*
X60250000Y-73200000D01*
X43200000Y-90250000D02*
X43200000Y-97750000D01*
X43200000Y-97750000D02*
X36800000Y-97750000D01*
X38070000Y-97750000D02*
X38070000Y-90250000D01*
X36800000Y-90250000D02*
X43200000Y-90250000D01*
X36800000Y-97750000D02*
X36800000Y-90250000D01*
X36800000Y-109750000D02*
X36800000Y-102250000D01*
X36800000Y-102250000D02*
X43200000Y-102250000D01*
X38070000Y-109750000D02*
X38070000Y-102250000D01*
X43200000Y-109750000D02*
X36800000Y-109750000D01*
X43200000Y-102250000D02*
X43200000Y-109750000D01*
X43200000Y-78250000D02*
X43200000Y-85750000D01*
X43200000Y-85750000D02*
X36800000Y-85750000D01*
X38070000Y-85750000D02*
X38070000Y-78250000D01*
X36800000Y-78250000D02*
X43200000Y-78250000D01*
X36800000Y-85750000D02*
X36800000Y-78250000D01*
X36333333Y-112904761D02*
X36333333Y-114333333D01*
X36238095Y-114619047D01*
X36047619Y-114809523D01*
X35761904Y-114904761D01*
X35571428Y-114904761D01*
X38142857Y-112904761D02*
X37761904Y-112904761D01*
X37571428Y-113000000D01*
X37476190Y-113095238D01*
X37285714Y-113380952D01*
X37190476Y-113761904D01*
X37190476Y-114523809D01*
X37285714Y-114714285D01*
X37380952Y-114809523D01*
X37571428Y-114904761D01*
X37952380Y-114904761D01*
X38142857Y-114809523D01*
X38238095Y-114714285D01*
X38333333Y-114523809D01*
X38333333Y-114047619D01*
X38238095Y-113857142D01*
X38142857Y-113761904D01*
X37952380Y-113666666D01*
X37571428Y-113666666D01*
X37380952Y-113761904D01*
X37285714Y-113857142D01*
X37190476Y-114047619D01*
X102333333Y-76904761D02*
X102333333Y-78333333D01*
X102238095Y-78619047D01*
X102047619Y-78809523D01*
X101761904Y-78904761D01*
X101571428Y-78904761D01*
X104142857Y-77571428D02*
X104142857Y-78904761D01*
X103666666Y-76809523D02*
X103190476Y-78238095D01*
X104428571Y-78238095D01*
X102333333Y-94904761D02*
X102333333Y-96333333D01*
X102238095Y-96619047D01*
X102047619Y-96809523D01*
X101761904Y-96904761D01*
X101571428Y-96904761D01*
X103095238Y-94904761D02*
X104333333Y-94904761D01*
X103666666Y-95666666D01*
X103952380Y-95666666D01*
X104142857Y-95761904D01*
X104238095Y-95857142D01*
X104333333Y-96047619D01*
X104333333Y-96523809D01*
X104238095Y-96714285D01*
X104142857Y-96809523D01*
X103952380Y-96904761D01*
X103380952Y-96904761D01*
X103190476Y-96809523D01*
X103095238Y-96714285D01*
X102333333Y-112904761D02*
X102333333Y-114333333D01*
X102238095Y-114619047D01*
X102047619Y-114809523D01*
X101761904Y-114904761D01*
X101571428Y-114904761D01*
X103190476Y-113095238D02*
X103285714Y-113000000D01*
X103476190Y-112904761D01*
X103952380Y-112904761D01*
X104142857Y-113000000D01*
X104238095Y-113095238D01*
X104333333Y-113285714D01*
X104333333Y-113476190D01*
X104238095Y-113761904D01*
X103095238Y-114904761D01*
X104333333Y-114904761D01*
X102333333Y-129904761D02*
X102333333Y-131333333D01*
X102238095Y-131619047D01*
X102047619Y-131809523D01*
X101761904Y-131904761D01*
X101571428Y-131904761D01*
X104333333Y-131904761D02*
X103190476Y-131904761D01*
X103761904Y-131904761D02*
X103761904Y-129904761D01*
X103571428Y-130190476D01*
X103380952Y-130380952D01*
X103190476Y-130476190D01*
X36333333Y-130904761D02*
X36333333Y-132333333D01*
X36238095Y-132619047D01*
X36047619Y-132809523D01*
X35761904Y-132904761D01*
X35571428Y-132904761D01*
X38238095Y-130904761D02*
X37285714Y-130904761D01*
X37190476Y-131857142D01*
X37285714Y-131761904D01*
X37476190Y-131666666D01*
X37952380Y-131666666D01*
X38142857Y-131761904D01*
X38238095Y-131857142D01*
X38333333Y-132047619D01*
X38333333Y-132523809D01*
X38238095Y-132714285D01*
X38142857Y-132809523D01*
X37952380Y-132904761D01*
X37476190Y-132904761D01*
X37285714Y-132809523D01*
X37190476Y-132714285D01*
X77333333Y-105904761D02*
X77333333Y-107333333D01*
X77238095Y-107619047D01*
X77047619Y-107809523D01*
X76761904Y-107904761D01*
X76571428Y-107904761D01*
X78095238Y-105904761D02*
X79428571Y-105904761D01*
X78571428Y-107904761D01*
X77333333Y-91904761D02*
X77333333Y-93333333D01*
X77238095Y-93619047D01*
X77047619Y-93809523D01*
X76761904Y-93904761D01*
X76571428Y-93904761D01*
X78571428Y-92761904D02*
X78380952Y-92666666D01*
X78285714Y-92571428D01*
X78190476Y-92380952D01*
X78190476Y-92285714D01*
X78285714Y-92095238D01*
X78380952Y-92000000D01*
X78571428Y-91904761D01*
X78952380Y-91904761D01*
X79142857Y-92000000D01*
X79238095Y-92095238D01*
X79333333Y-92285714D01*
X79333333Y-92380952D01*
X79238095Y-92571428D01*
X79142857Y-92666666D01*
X78952380Y-92761904D01*
X78571428Y-92761904D01*
X78380952Y-92857142D01*
X78285714Y-92952380D01*
X78190476Y-93142857D01*
X78190476Y-93523809D01*
X78285714Y-93714285D01*
X78380952Y-93809523D01*
X78571428Y-93904761D01*
X78952380Y-93904761D01*
X79142857Y-93809523D01*
X79238095Y-93714285D01*
X79333333Y-93523809D01*
X79333333Y-93142857D01*
X79238095Y-92952380D01*
X79142857Y-92857142D01*
X78952380Y-92761904D01*
X48333333Y-73904761D02*
X48333333Y-75333333D01*
X48238095Y-75619047D01*
X48047619Y-75809523D01*
X47761904Y-75904761D01*
X47571428Y-75904761D01*
X49380952Y-75904761D02*
X49761904Y-75904761D01*
X49952380Y-75809523D01*
X50047619Y-75714285D01*
X50238095Y-75428571D01*
X50333333Y-75047619D01*
X50333333Y-74285714D01*
X50238095Y-74095238D01*
X50142857Y-74000000D01*
X49952380Y-73904761D01*
X49571428Y-73904761D01*
X49380952Y-74000000D01*
X49285714Y-74095238D01*
X49190476Y-74285714D01*
X49190476Y-74761904D01*
X49285714Y-74952380D01*
X49380952Y-75047619D01*
X49571428Y-75142857D01*
X49952380Y-75142857D01*
X50142857Y-75047619D01*
X50238095Y-74952380D01*
X50333333Y-74761904D01*
X84380952Y-73904761D02*
X84380952Y-75333333D01*
X84285714Y-75619047D01*
X84095238Y-75809523D01*
X83809523Y-75904761D01*
X83619047Y-75904761D01*
X86380952Y-75904761D02*
X85238095Y-75904761D01*
X85809523Y-75904761D02*
X85809523Y-73904761D01*
X85619047Y-74190476D01*
X85428571Y-74380952D01*
X85238095Y-74476190D01*
X87619047Y-73904761D02*
X87809523Y-73904761D01*
X88000000Y-74000000D01*
X88095238Y-74095238D01*
X88190476Y-74285714D01*
X88285714Y-74666666D01*
X88285714Y-75142857D01*
X88190476Y-75523809D01*
X88095238Y-75714285D01*
X88000000Y-75809523D01*
X87809523Y-75904761D01*
X87619047Y-75904761D01*
X87428571Y-75809523D01*
X87333333Y-75714285D01*
X87238095Y-75523809D01*
X87142857Y-75142857D01*
X87142857Y-74666666D01*
X87238095Y-74285714D01*
X87333333Y-74095238D01*
X87428571Y-74000000D01*
X87619047Y-73904761D01*
X72380952Y-73904761D02*
X72380952Y-75333333D01*
X72285714Y-75619047D01*
X72095238Y-75809523D01*
X71809523Y-75904761D01*
X71619047Y-75904761D01*
X74380952Y-75904761D02*
X73238095Y-75904761D01*
X73809523Y-75904761D02*
X73809523Y-73904761D01*
X73619047Y-74190476D01*
X73428571Y-74380952D01*
X73238095Y-74476190D01*
X76285714Y-75904761D02*
X75142857Y-75904761D01*
X75714285Y-75904761D02*
X75714285Y-73904761D01*
X75523809Y-74190476D01*
X75333333Y-74380952D01*
X75142857Y-74476190D01*
X60380952Y-73904761D02*
X60380952Y-75333333D01*
X60285714Y-75619047D01*
X60095238Y-75809523D01*
X59809523Y-75904761D01*
X59619047Y-75904761D01*
X62380952Y-75904761D02*
X61238095Y-75904761D01*
X61809523Y-75904761D02*
X61809523Y-73904761D01*
X61619047Y-74190476D01*
X61428571Y-74380952D01*
X61238095Y-74476190D01*
X63142857Y-74095238D02*
X63238095Y-74000000D01*
X63428571Y-73904761D01*
X63904761Y-73904761D01*
X64095238Y-74000000D01*
X64190476Y-74095238D01*
X64285714Y-74285714D01*
X64285714Y-74476190D01*
X64190476Y-74761904D01*
X63047619Y-75904761D01*
X64285714Y-75904761D01*
X37380952Y-87904761D02*
X37380952Y-89333333D01*
X37285714Y-89619047D01*
X37095238Y-89809523D01*
X36809523Y-89904761D01*
X36619047Y-89904761D01*
X39380952Y-89904761D02*
X38238095Y-89904761D01*
X38809523Y-89904761D02*
X38809523Y-87904761D01*
X38619047Y-88190476D01*
X38428571Y-88380952D01*
X38238095Y-88476190D01*
X40047619Y-87904761D02*
X41285714Y-87904761D01*
X40619047Y-88666666D01*
X40904761Y-88666666D01*
X41095238Y-88761904D01*
X41190476Y-88857142D01*
X41285714Y-89047619D01*
X41285714Y-89523809D01*
X41190476Y-89714285D01*
X41095238Y-89809523D01*
X40904761Y-89904761D01*
X40333333Y-89904761D01*
X40142857Y-89809523D01*
X40047619Y-89714285D01*
X37380952Y-99904761D02*
X37380952Y-101333333D01*
X37285714Y-101619047D01*
X37095238Y-101809523D01*
X36809523Y-101904761D01*
X36619047Y-101904761D01*
X39380952Y-101904761D02*
X38238095Y-101904761D01*
X38809523Y-101904761D02*
X38809523Y-99904761D01*
X38619047Y-100190476D01*
X38428571Y-100380952D01*
X38238095Y-100476190D01*
X41095238Y-100571428D02*
X41095238Y-101904761D01*
X40619047Y-99809523D02*
X40142857Y-101238095D01*
X41380952Y-101238095D01*
X37380952Y-75904761D02*
X37380952Y-77333333D01*
X37285714Y-77619047D01*
X37095238Y-77809523D01*
X36809523Y-77904761D01*
X36619047Y-77904761D01*
X39380952Y-77904761D02*
X38238095Y-77904761D01*
X38809523Y-77904761D02*
X38809523Y-75904761D01*
X38619047Y-76190476D01*
X38428571Y-76380952D01*
X38238095Y-76476190D01*
X41190476Y-75904761D02*
X40238095Y-75904761D01*
X40142857Y-76857142D01*
X40238095Y-76761904D01*
X40428571Y-76666666D01*
X40904761Y-76666666D01*
X41095238Y-76761904D01*
X41190476Y-76857142D01*
X41285714Y-77047619D01*
X41285714Y-77523809D01*
X41190476Y-77714285D01*
X41095238Y-77809523D01*
X40904761Y-77904761D01*
X40428571Y-77904761D01*
X40238095Y-77809523D01*
X40142857Y-77714285D01*
M02*
