G04 #@! TF.GenerationSoftware,KiCad,Pcbnew,(5.1.4)-1*
G04 #@! TF.CreationDate,2019-11-12T14:47:24+09:00*
G04 #@! TF.ProjectId,doubleRocketInterfacingUnit,646f7562-6c65-4526-9f63-6b6574496e74,rev?*
G04 #@! TF.SameCoordinates,Original*
G04 #@! TF.FileFunction,Paste,Top*
G04 #@! TF.FilePolarity,Positive*
%FSLAX46Y46*%
G04 Gerber Fmt 4.6, Leading zero omitted, Abs format (unit mm)*
G04 Created by KiCad (PCBNEW (5.1.4)-1) date 2019-11-12 14:47:24*
%MOMM*%
%LPD*%
G04 APERTURE LIST*
%ADD10C,0.100000*%
%ADD11C,0.600000*%
%ADD12C,1.250000*%
G04 APERTURE END LIST*
D10*
G36*
X128134703Y-225795722D02*
G01*
X128149264Y-225797882D01*
X128163543Y-225801459D01*
X128177403Y-225806418D01*
X128190710Y-225812712D01*
X128203336Y-225820280D01*
X128215159Y-225829048D01*
X128226066Y-225838934D01*
X128235952Y-225849841D01*
X128244720Y-225861664D01*
X128252288Y-225874290D01*
X128258582Y-225887597D01*
X128263541Y-225901457D01*
X128267118Y-225915736D01*
X128269278Y-225930297D01*
X128270000Y-225945000D01*
X128270000Y-226245000D01*
X128269278Y-226259703D01*
X128267118Y-226274264D01*
X128263541Y-226288543D01*
X128258582Y-226302403D01*
X128252288Y-226315710D01*
X128244720Y-226328336D01*
X128235952Y-226340159D01*
X128226066Y-226351066D01*
X128215159Y-226360952D01*
X128203336Y-226369720D01*
X128190710Y-226377288D01*
X128177403Y-226383582D01*
X128163543Y-226388541D01*
X128149264Y-226392118D01*
X128134703Y-226394278D01*
X128120000Y-226395000D01*
X126470000Y-226395000D01*
X126455297Y-226394278D01*
X126440736Y-226392118D01*
X126426457Y-226388541D01*
X126412597Y-226383582D01*
X126399290Y-226377288D01*
X126386664Y-226369720D01*
X126374841Y-226360952D01*
X126363934Y-226351066D01*
X126354048Y-226340159D01*
X126345280Y-226328336D01*
X126337712Y-226315710D01*
X126331418Y-226302403D01*
X126326459Y-226288543D01*
X126322882Y-226274264D01*
X126320722Y-226259703D01*
X126320000Y-226245000D01*
X126320000Y-225945000D01*
X126320722Y-225930297D01*
X126322882Y-225915736D01*
X126326459Y-225901457D01*
X126331418Y-225887597D01*
X126337712Y-225874290D01*
X126345280Y-225861664D01*
X126354048Y-225849841D01*
X126363934Y-225838934D01*
X126374841Y-225829048D01*
X126386664Y-225820280D01*
X126399290Y-225812712D01*
X126412597Y-225806418D01*
X126426457Y-225801459D01*
X126440736Y-225797882D01*
X126455297Y-225795722D01*
X126470000Y-225795000D01*
X128120000Y-225795000D01*
X128134703Y-225795722D01*
X128134703Y-225795722D01*
G37*
D11*
X127295000Y-226095000D03*
D10*
G36*
X128134703Y-227065722D02*
G01*
X128149264Y-227067882D01*
X128163543Y-227071459D01*
X128177403Y-227076418D01*
X128190710Y-227082712D01*
X128203336Y-227090280D01*
X128215159Y-227099048D01*
X128226066Y-227108934D01*
X128235952Y-227119841D01*
X128244720Y-227131664D01*
X128252288Y-227144290D01*
X128258582Y-227157597D01*
X128263541Y-227171457D01*
X128267118Y-227185736D01*
X128269278Y-227200297D01*
X128270000Y-227215000D01*
X128270000Y-227515000D01*
X128269278Y-227529703D01*
X128267118Y-227544264D01*
X128263541Y-227558543D01*
X128258582Y-227572403D01*
X128252288Y-227585710D01*
X128244720Y-227598336D01*
X128235952Y-227610159D01*
X128226066Y-227621066D01*
X128215159Y-227630952D01*
X128203336Y-227639720D01*
X128190710Y-227647288D01*
X128177403Y-227653582D01*
X128163543Y-227658541D01*
X128149264Y-227662118D01*
X128134703Y-227664278D01*
X128120000Y-227665000D01*
X126470000Y-227665000D01*
X126455297Y-227664278D01*
X126440736Y-227662118D01*
X126426457Y-227658541D01*
X126412597Y-227653582D01*
X126399290Y-227647288D01*
X126386664Y-227639720D01*
X126374841Y-227630952D01*
X126363934Y-227621066D01*
X126354048Y-227610159D01*
X126345280Y-227598336D01*
X126337712Y-227585710D01*
X126331418Y-227572403D01*
X126326459Y-227558543D01*
X126322882Y-227544264D01*
X126320722Y-227529703D01*
X126320000Y-227515000D01*
X126320000Y-227215000D01*
X126320722Y-227200297D01*
X126322882Y-227185736D01*
X126326459Y-227171457D01*
X126331418Y-227157597D01*
X126337712Y-227144290D01*
X126345280Y-227131664D01*
X126354048Y-227119841D01*
X126363934Y-227108934D01*
X126374841Y-227099048D01*
X126386664Y-227090280D01*
X126399290Y-227082712D01*
X126412597Y-227076418D01*
X126426457Y-227071459D01*
X126440736Y-227067882D01*
X126455297Y-227065722D01*
X126470000Y-227065000D01*
X128120000Y-227065000D01*
X128134703Y-227065722D01*
X128134703Y-227065722D01*
G37*
D11*
X127295000Y-227365000D03*
D10*
G36*
X128134703Y-228335722D02*
G01*
X128149264Y-228337882D01*
X128163543Y-228341459D01*
X128177403Y-228346418D01*
X128190710Y-228352712D01*
X128203336Y-228360280D01*
X128215159Y-228369048D01*
X128226066Y-228378934D01*
X128235952Y-228389841D01*
X128244720Y-228401664D01*
X128252288Y-228414290D01*
X128258582Y-228427597D01*
X128263541Y-228441457D01*
X128267118Y-228455736D01*
X128269278Y-228470297D01*
X128270000Y-228485000D01*
X128270000Y-228785000D01*
X128269278Y-228799703D01*
X128267118Y-228814264D01*
X128263541Y-228828543D01*
X128258582Y-228842403D01*
X128252288Y-228855710D01*
X128244720Y-228868336D01*
X128235952Y-228880159D01*
X128226066Y-228891066D01*
X128215159Y-228900952D01*
X128203336Y-228909720D01*
X128190710Y-228917288D01*
X128177403Y-228923582D01*
X128163543Y-228928541D01*
X128149264Y-228932118D01*
X128134703Y-228934278D01*
X128120000Y-228935000D01*
X126470000Y-228935000D01*
X126455297Y-228934278D01*
X126440736Y-228932118D01*
X126426457Y-228928541D01*
X126412597Y-228923582D01*
X126399290Y-228917288D01*
X126386664Y-228909720D01*
X126374841Y-228900952D01*
X126363934Y-228891066D01*
X126354048Y-228880159D01*
X126345280Y-228868336D01*
X126337712Y-228855710D01*
X126331418Y-228842403D01*
X126326459Y-228828543D01*
X126322882Y-228814264D01*
X126320722Y-228799703D01*
X126320000Y-228785000D01*
X126320000Y-228485000D01*
X126320722Y-228470297D01*
X126322882Y-228455736D01*
X126326459Y-228441457D01*
X126331418Y-228427597D01*
X126337712Y-228414290D01*
X126345280Y-228401664D01*
X126354048Y-228389841D01*
X126363934Y-228378934D01*
X126374841Y-228369048D01*
X126386664Y-228360280D01*
X126399290Y-228352712D01*
X126412597Y-228346418D01*
X126426457Y-228341459D01*
X126440736Y-228337882D01*
X126455297Y-228335722D01*
X126470000Y-228335000D01*
X128120000Y-228335000D01*
X128134703Y-228335722D01*
X128134703Y-228335722D01*
G37*
D11*
X127295000Y-228635000D03*
D10*
G36*
X128134703Y-229605722D02*
G01*
X128149264Y-229607882D01*
X128163543Y-229611459D01*
X128177403Y-229616418D01*
X128190710Y-229622712D01*
X128203336Y-229630280D01*
X128215159Y-229639048D01*
X128226066Y-229648934D01*
X128235952Y-229659841D01*
X128244720Y-229671664D01*
X128252288Y-229684290D01*
X128258582Y-229697597D01*
X128263541Y-229711457D01*
X128267118Y-229725736D01*
X128269278Y-229740297D01*
X128270000Y-229755000D01*
X128270000Y-230055000D01*
X128269278Y-230069703D01*
X128267118Y-230084264D01*
X128263541Y-230098543D01*
X128258582Y-230112403D01*
X128252288Y-230125710D01*
X128244720Y-230138336D01*
X128235952Y-230150159D01*
X128226066Y-230161066D01*
X128215159Y-230170952D01*
X128203336Y-230179720D01*
X128190710Y-230187288D01*
X128177403Y-230193582D01*
X128163543Y-230198541D01*
X128149264Y-230202118D01*
X128134703Y-230204278D01*
X128120000Y-230205000D01*
X126470000Y-230205000D01*
X126455297Y-230204278D01*
X126440736Y-230202118D01*
X126426457Y-230198541D01*
X126412597Y-230193582D01*
X126399290Y-230187288D01*
X126386664Y-230179720D01*
X126374841Y-230170952D01*
X126363934Y-230161066D01*
X126354048Y-230150159D01*
X126345280Y-230138336D01*
X126337712Y-230125710D01*
X126331418Y-230112403D01*
X126326459Y-230098543D01*
X126322882Y-230084264D01*
X126320722Y-230069703D01*
X126320000Y-230055000D01*
X126320000Y-229755000D01*
X126320722Y-229740297D01*
X126322882Y-229725736D01*
X126326459Y-229711457D01*
X126331418Y-229697597D01*
X126337712Y-229684290D01*
X126345280Y-229671664D01*
X126354048Y-229659841D01*
X126363934Y-229648934D01*
X126374841Y-229639048D01*
X126386664Y-229630280D01*
X126399290Y-229622712D01*
X126412597Y-229616418D01*
X126426457Y-229611459D01*
X126440736Y-229607882D01*
X126455297Y-229605722D01*
X126470000Y-229605000D01*
X128120000Y-229605000D01*
X128134703Y-229605722D01*
X128134703Y-229605722D01*
G37*
D11*
X127295000Y-229905000D03*
D10*
G36*
X123184703Y-229605722D02*
G01*
X123199264Y-229607882D01*
X123213543Y-229611459D01*
X123227403Y-229616418D01*
X123240710Y-229622712D01*
X123253336Y-229630280D01*
X123265159Y-229639048D01*
X123276066Y-229648934D01*
X123285952Y-229659841D01*
X123294720Y-229671664D01*
X123302288Y-229684290D01*
X123308582Y-229697597D01*
X123313541Y-229711457D01*
X123317118Y-229725736D01*
X123319278Y-229740297D01*
X123320000Y-229755000D01*
X123320000Y-230055000D01*
X123319278Y-230069703D01*
X123317118Y-230084264D01*
X123313541Y-230098543D01*
X123308582Y-230112403D01*
X123302288Y-230125710D01*
X123294720Y-230138336D01*
X123285952Y-230150159D01*
X123276066Y-230161066D01*
X123265159Y-230170952D01*
X123253336Y-230179720D01*
X123240710Y-230187288D01*
X123227403Y-230193582D01*
X123213543Y-230198541D01*
X123199264Y-230202118D01*
X123184703Y-230204278D01*
X123170000Y-230205000D01*
X121520000Y-230205000D01*
X121505297Y-230204278D01*
X121490736Y-230202118D01*
X121476457Y-230198541D01*
X121462597Y-230193582D01*
X121449290Y-230187288D01*
X121436664Y-230179720D01*
X121424841Y-230170952D01*
X121413934Y-230161066D01*
X121404048Y-230150159D01*
X121395280Y-230138336D01*
X121387712Y-230125710D01*
X121381418Y-230112403D01*
X121376459Y-230098543D01*
X121372882Y-230084264D01*
X121370722Y-230069703D01*
X121370000Y-230055000D01*
X121370000Y-229755000D01*
X121370722Y-229740297D01*
X121372882Y-229725736D01*
X121376459Y-229711457D01*
X121381418Y-229697597D01*
X121387712Y-229684290D01*
X121395280Y-229671664D01*
X121404048Y-229659841D01*
X121413934Y-229648934D01*
X121424841Y-229639048D01*
X121436664Y-229630280D01*
X121449290Y-229622712D01*
X121462597Y-229616418D01*
X121476457Y-229611459D01*
X121490736Y-229607882D01*
X121505297Y-229605722D01*
X121520000Y-229605000D01*
X123170000Y-229605000D01*
X123184703Y-229605722D01*
X123184703Y-229605722D01*
G37*
D11*
X122345000Y-229905000D03*
D10*
G36*
X123184703Y-228335722D02*
G01*
X123199264Y-228337882D01*
X123213543Y-228341459D01*
X123227403Y-228346418D01*
X123240710Y-228352712D01*
X123253336Y-228360280D01*
X123265159Y-228369048D01*
X123276066Y-228378934D01*
X123285952Y-228389841D01*
X123294720Y-228401664D01*
X123302288Y-228414290D01*
X123308582Y-228427597D01*
X123313541Y-228441457D01*
X123317118Y-228455736D01*
X123319278Y-228470297D01*
X123320000Y-228485000D01*
X123320000Y-228785000D01*
X123319278Y-228799703D01*
X123317118Y-228814264D01*
X123313541Y-228828543D01*
X123308582Y-228842403D01*
X123302288Y-228855710D01*
X123294720Y-228868336D01*
X123285952Y-228880159D01*
X123276066Y-228891066D01*
X123265159Y-228900952D01*
X123253336Y-228909720D01*
X123240710Y-228917288D01*
X123227403Y-228923582D01*
X123213543Y-228928541D01*
X123199264Y-228932118D01*
X123184703Y-228934278D01*
X123170000Y-228935000D01*
X121520000Y-228935000D01*
X121505297Y-228934278D01*
X121490736Y-228932118D01*
X121476457Y-228928541D01*
X121462597Y-228923582D01*
X121449290Y-228917288D01*
X121436664Y-228909720D01*
X121424841Y-228900952D01*
X121413934Y-228891066D01*
X121404048Y-228880159D01*
X121395280Y-228868336D01*
X121387712Y-228855710D01*
X121381418Y-228842403D01*
X121376459Y-228828543D01*
X121372882Y-228814264D01*
X121370722Y-228799703D01*
X121370000Y-228785000D01*
X121370000Y-228485000D01*
X121370722Y-228470297D01*
X121372882Y-228455736D01*
X121376459Y-228441457D01*
X121381418Y-228427597D01*
X121387712Y-228414290D01*
X121395280Y-228401664D01*
X121404048Y-228389841D01*
X121413934Y-228378934D01*
X121424841Y-228369048D01*
X121436664Y-228360280D01*
X121449290Y-228352712D01*
X121462597Y-228346418D01*
X121476457Y-228341459D01*
X121490736Y-228337882D01*
X121505297Y-228335722D01*
X121520000Y-228335000D01*
X123170000Y-228335000D01*
X123184703Y-228335722D01*
X123184703Y-228335722D01*
G37*
D11*
X122345000Y-228635000D03*
D10*
G36*
X123184703Y-227065722D02*
G01*
X123199264Y-227067882D01*
X123213543Y-227071459D01*
X123227403Y-227076418D01*
X123240710Y-227082712D01*
X123253336Y-227090280D01*
X123265159Y-227099048D01*
X123276066Y-227108934D01*
X123285952Y-227119841D01*
X123294720Y-227131664D01*
X123302288Y-227144290D01*
X123308582Y-227157597D01*
X123313541Y-227171457D01*
X123317118Y-227185736D01*
X123319278Y-227200297D01*
X123320000Y-227215000D01*
X123320000Y-227515000D01*
X123319278Y-227529703D01*
X123317118Y-227544264D01*
X123313541Y-227558543D01*
X123308582Y-227572403D01*
X123302288Y-227585710D01*
X123294720Y-227598336D01*
X123285952Y-227610159D01*
X123276066Y-227621066D01*
X123265159Y-227630952D01*
X123253336Y-227639720D01*
X123240710Y-227647288D01*
X123227403Y-227653582D01*
X123213543Y-227658541D01*
X123199264Y-227662118D01*
X123184703Y-227664278D01*
X123170000Y-227665000D01*
X121520000Y-227665000D01*
X121505297Y-227664278D01*
X121490736Y-227662118D01*
X121476457Y-227658541D01*
X121462597Y-227653582D01*
X121449290Y-227647288D01*
X121436664Y-227639720D01*
X121424841Y-227630952D01*
X121413934Y-227621066D01*
X121404048Y-227610159D01*
X121395280Y-227598336D01*
X121387712Y-227585710D01*
X121381418Y-227572403D01*
X121376459Y-227558543D01*
X121372882Y-227544264D01*
X121370722Y-227529703D01*
X121370000Y-227515000D01*
X121370000Y-227215000D01*
X121370722Y-227200297D01*
X121372882Y-227185736D01*
X121376459Y-227171457D01*
X121381418Y-227157597D01*
X121387712Y-227144290D01*
X121395280Y-227131664D01*
X121404048Y-227119841D01*
X121413934Y-227108934D01*
X121424841Y-227099048D01*
X121436664Y-227090280D01*
X121449290Y-227082712D01*
X121462597Y-227076418D01*
X121476457Y-227071459D01*
X121490736Y-227067882D01*
X121505297Y-227065722D01*
X121520000Y-227065000D01*
X123170000Y-227065000D01*
X123184703Y-227065722D01*
X123184703Y-227065722D01*
G37*
D11*
X122345000Y-227365000D03*
D10*
G36*
X123184703Y-225795722D02*
G01*
X123199264Y-225797882D01*
X123213543Y-225801459D01*
X123227403Y-225806418D01*
X123240710Y-225812712D01*
X123253336Y-225820280D01*
X123265159Y-225829048D01*
X123276066Y-225838934D01*
X123285952Y-225849841D01*
X123294720Y-225861664D01*
X123302288Y-225874290D01*
X123308582Y-225887597D01*
X123313541Y-225901457D01*
X123317118Y-225915736D01*
X123319278Y-225930297D01*
X123320000Y-225945000D01*
X123320000Y-226245000D01*
X123319278Y-226259703D01*
X123317118Y-226274264D01*
X123313541Y-226288543D01*
X123308582Y-226302403D01*
X123302288Y-226315710D01*
X123294720Y-226328336D01*
X123285952Y-226340159D01*
X123276066Y-226351066D01*
X123265159Y-226360952D01*
X123253336Y-226369720D01*
X123240710Y-226377288D01*
X123227403Y-226383582D01*
X123213543Y-226388541D01*
X123199264Y-226392118D01*
X123184703Y-226394278D01*
X123170000Y-226395000D01*
X121520000Y-226395000D01*
X121505297Y-226394278D01*
X121490736Y-226392118D01*
X121476457Y-226388541D01*
X121462597Y-226383582D01*
X121449290Y-226377288D01*
X121436664Y-226369720D01*
X121424841Y-226360952D01*
X121413934Y-226351066D01*
X121404048Y-226340159D01*
X121395280Y-226328336D01*
X121387712Y-226315710D01*
X121381418Y-226302403D01*
X121376459Y-226288543D01*
X121372882Y-226274264D01*
X121370722Y-226259703D01*
X121370000Y-226245000D01*
X121370000Y-225945000D01*
X121370722Y-225930297D01*
X121372882Y-225915736D01*
X121376459Y-225901457D01*
X121381418Y-225887597D01*
X121387712Y-225874290D01*
X121395280Y-225861664D01*
X121404048Y-225849841D01*
X121413934Y-225838934D01*
X121424841Y-225829048D01*
X121436664Y-225820280D01*
X121449290Y-225812712D01*
X121462597Y-225806418D01*
X121476457Y-225801459D01*
X121490736Y-225797882D01*
X121505297Y-225795722D01*
X121520000Y-225795000D01*
X123170000Y-225795000D01*
X123184703Y-225795722D01*
X123184703Y-225795722D01*
G37*
D11*
X122345000Y-226095000D03*
D10*
G36*
X112634703Y-225795722D02*
G01*
X112649264Y-225797882D01*
X112663543Y-225801459D01*
X112677403Y-225806418D01*
X112690710Y-225812712D01*
X112703336Y-225820280D01*
X112715159Y-225829048D01*
X112726066Y-225838934D01*
X112735952Y-225849841D01*
X112744720Y-225861664D01*
X112752288Y-225874290D01*
X112758582Y-225887597D01*
X112763541Y-225901457D01*
X112767118Y-225915736D01*
X112769278Y-225930297D01*
X112770000Y-225945000D01*
X112770000Y-226245000D01*
X112769278Y-226259703D01*
X112767118Y-226274264D01*
X112763541Y-226288543D01*
X112758582Y-226302403D01*
X112752288Y-226315710D01*
X112744720Y-226328336D01*
X112735952Y-226340159D01*
X112726066Y-226351066D01*
X112715159Y-226360952D01*
X112703336Y-226369720D01*
X112690710Y-226377288D01*
X112677403Y-226383582D01*
X112663543Y-226388541D01*
X112649264Y-226392118D01*
X112634703Y-226394278D01*
X112620000Y-226395000D01*
X110970000Y-226395000D01*
X110955297Y-226394278D01*
X110940736Y-226392118D01*
X110926457Y-226388541D01*
X110912597Y-226383582D01*
X110899290Y-226377288D01*
X110886664Y-226369720D01*
X110874841Y-226360952D01*
X110863934Y-226351066D01*
X110854048Y-226340159D01*
X110845280Y-226328336D01*
X110837712Y-226315710D01*
X110831418Y-226302403D01*
X110826459Y-226288543D01*
X110822882Y-226274264D01*
X110820722Y-226259703D01*
X110820000Y-226245000D01*
X110820000Y-225945000D01*
X110820722Y-225930297D01*
X110822882Y-225915736D01*
X110826459Y-225901457D01*
X110831418Y-225887597D01*
X110837712Y-225874290D01*
X110845280Y-225861664D01*
X110854048Y-225849841D01*
X110863934Y-225838934D01*
X110874841Y-225829048D01*
X110886664Y-225820280D01*
X110899290Y-225812712D01*
X110912597Y-225806418D01*
X110926457Y-225801459D01*
X110940736Y-225797882D01*
X110955297Y-225795722D01*
X110970000Y-225795000D01*
X112620000Y-225795000D01*
X112634703Y-225795722D01*
X112634703Y-225795722D01*
G37*
D11*
X111795000Y-226095000D03*
D10*
G36*
X112634703Y-227065722D02*
G01*
X112649264Y-227067882D01*
X112663543Y-227071459D01*
X112677403Y-227076418D01*
X112690710Y-227082712D01*
X112703336Y-227090280D01*
X112715159Y-227099048D01*
X112726066Y-227108934D01*
X112735952Y-227119841D01*
X112744720Y-227131664D01*
X112752288Y-227144290D01*
X112758582Y-227157597D01*
X112763541Y-227171457D01*
X112767118Y-227185736D01*
X112769278Y-227200297D01*
X112770000Y-227215000D01*
X112770000Y-227515000D01*
X112769278Y-227529703D01*
X112767118Y-227544264D01*
X112763541Y-227558543D01*
X112758582Y-227572403D01*
X112752288Y-227585710D01*
X112744720Y-227598336D01*
X112735952Y-227610159D01*
X112726066Y-227621066D01*
X112715159Y-227630952D01*
X112703336Y-227639720D01*
X112690710Y-227647288D01*
X112677403Y-227653582D01*
X112663543Y-227658541D01*
X112649264Y-227662118D01*
X112634703Y-227664278D01*
X112620000Y-227665000D01*
X110970000Y-227665000D01*
X110955297Y-227664278D01*
X110940736Y-227662118D01*
X110926457Y-227658541D01*
X110912597Y-227653582D01*
X110899290Y-227647288D01*
X110886664Y-227639720D01*
X110874841Y-227630952D01*
X110863934Y-227621066D01*
X110854048Y-227610159D01*
X110845280Y-227598336D01*
X110837712Y-227585710D01*
X110831418Y-227572403D01*
X110826459Y-227558543D01*
X110822882Y-227544264D01*
X110820722Y-227529703D01*
X110820000Y-227515000D01*
X110820000Y-227215000D01*
X110820722Y-227200297D01*
X110822882Y-227185736D01*
X110826459Y-227171457D01*
X110831418Y-227157597D01*
X110837712Y-227144290D01*
X110845280Y-227131664D01*
X110854048Y-227119841D01*
X110863934Y-227108934D01*
X110874841Y-227099048D01*
X110886664Y-227090280D01*
X110899290Y-227082712D01*
X110912597Y-227076418D01*
X110926457Y-227071459D01*
X110940736Y-227067882D01*
X110955297Y-227065722D01*
X110970000Y-227065000D01*
X112620000Y-227065000D01*
X112634703Y-227065722D01*
X112634703Y-227065722D01*
G37*
D11*
X111795000Y-227365000D03*
D10*
G36*
X112634703Y-228335722D02*
G01*
X112649264Y-228337882D01*
X112663543Y-228341459D01*
X112677403Y-228346418D01*
X112690710Y-228352712D01*
X112703336Y-228360280D01*
X112715159Y-228369048D01*
X112726066Y-228378934D01*
X112735952Y-228389841D01*
X112744720Y-228401664D01*
X112752288Y-228414290D01*
X112758582Y-228427597D01*
X112763541Y-228441457D01*
X112767118Y-228455736D01*
X112769278Y-228470297D01*
X112770000Y-228485000D01*
X112770000Y-228785000D01*
X112769278Y-228799703D01*
X112767118Y-228814264D01*
X112763541Y-228828543D01*
X112758582Y-228842403D01*
X112752288Y-228855710D01*
X112744720Y-228868336D01*
X112735952Y-228880159D01*
X112726066Y-228891066D01*
X112715159Y-228900952D01*
X112703336Y-228909720D01*
X112690710Y-228917288D01*
X112677403Y-228923582D01*
X112663543Y-228928541D01*
X112649264Y-228932118D01*
X112634703Y-228934278D01*
X112620000Y-228935000D01*
X110970000Y-228935000D01*
X110955297Y-228934278D01*
X110940736Y-228932118D01*
X110926457Y-228928541D01*
X110912597Y-228923582D01*
X110899290Y-228917288D01*
X110886664Y-228909720D01*
X110874841Y-228900952D01*
X110863934Y-228891066D01*
X110854048Y-228880159D01*
X110845280Y-228868336D01*
X110837712Y-228855710D01*
X110831418Y-228842403D01*
X110826459Y-228828543D01*
X110822882Y-228814264D01*
X110820722Y-228799703D01*
X110820000Y-228785000D01*
X110820000Y-228485000D01*
X110820722Y-228470297D01*
X110822882Y-228455736D01*
X110826459Y-228441457D01*
X110831418Y-228427597D01*
X110837712Y-228414290D01*
X110845280Y-228401664D01*
X110854048Y-228389841D01*
X110863934Y-228378934D01*
X110874841Y-228369048D01*
X110886664Y-228360280D01*
X110899290Y-228352712D01*
X110912597Y-228346418D01*
X110926457Y-228341459D01*
X110940736Y-228337882D01*
X110955297Y-228335722D01*
X110970000Y-228335000D01*
X112620000Y-228335000D01*
X112634703Y-228335722D01*
X112634703Y-228335722D01*
G37*
D11*
X111795000Y-228635000D03*
D10*
G36*
X112634703Y-229605722D02*
G01*
X112649264Y-229607882D01*
X112663543Y-229611459D01*
X112677403Y-229616418D01*
X112690710Y-229622712D01*
X112703336Y-229630280D01*
X112715159Y-229639048D01*
X112726066Y-229648934D01*
X112735952Y-229659841D01*
X112744720Y-229671664D01*
X112752288Y-229684290D01*
X112758582Y-229697597D01*
X112763541Y-229711457D01*
X112767118Y-229725736D01*
X112769278Y-229740297D01*
X112770000Y-229755000D01*
X112770000Y-230055000D01*
X112769278Y-230069703D01*
X112767118Y-230084264D01*
X112763541Y-230098543D01*
X112758582Y-230112403D01*
X112752288Y-230125710D01*
X112744720Y-230138336D01*
X112735952Y-230150159D01*
X112726066Y-230161066D01*
X112715159Y-230170952D01*
X112703336Y-230179720D01*
X112690710Y-230187288D01*
X112677403Y-230193582D01*
X112663543Y-230198541D01*
X112649264Y-230202118D01*
X112634703Y-230204278D01*
X112620000Y-230205000D01*
X110970000Y-230205000D01*
X110955297Y-230204278D01*
X110940736Y-230202118D01*
X110926457Y-230198541D01*
X110912597Y-230193582D01*
X110899290Y-230187288D01*
X110886664Y-230179720D01*
X110874841Y-230170952D01*
X110863934Y-230161066D01*
X110854048Y-230150159D01*
X110845280Y-230138336D01*
X110837712Y-230125710D01*
X110831418Y-230112403D01*
X110826459Y-230098543D01*
X110822882Y-230084264D01*
X110820722Y-230069703D01*
X110820000Y-230055000D01*
X110820000Y-229755000D01*
X110820722Y-229740297D01*
X110822882Y-229725736D01*
X110826459Y-229711457D01*
X110831418Y-229697597D01*
X110837712Y-229684290D01*
X110845280Y-229671664D01*
X110854048Y-229659841D01*
X110863934Y-229648934D01*
X110874841Y-229639048D01*
X110886664Y-229630280D01*
X110899290Y-229622712D01*
X110912597Y-229616418D01*
X110926457Y-229611459D01*
X110940736Y-229607882D01*
X110955297Y-229605722D01*
X110970000Y-229605000D01*
X112620000Y-229605000D01*
X112634703Y-229605722D01*
X112634703Y-229605722D01*
G37*
D11*
X111795000Y-229905000D03*
D10*
G36*
X107684703Y-229605722D02*
G01*
X107699264Y-229607882D01*
X107713543Y-229611459D01*
X107727403Y-229616418D01*
X107740710Y-229622712D01*
X107753336Y-229630280D01*
X107765159Y-229639048D01*
X107776066Y-229648934D01*
X107785952Y-229659841D01*
X107794720Y-229671664D01*
X107802288Y-229684290D01*
X107808582Y-229697597D01*
X107813541Y-229711457D01*
X107817118Y-229725736D01*
X107819278Y-229740297D01*
X107820000Y-229755000D01*
X107820000Y-230055000D01*
X107819278Y-230069703D01*
X107817118Y-230084264D01*
X107813541Y-230098543D01*
X107808582Y-230112403D01*
X107802288Y-230125710D01*
X107794720Y-230138336D01*
X107785952Y-230150159D01*
X107776066Y-230161066D01*
X107765159Y-230170952D01*
X107753336Y-230179720D01*
X107740710Y-230187288D01*
X107727403Y-230193582D01*
X107713543Y-230198541D01*
X107699264Y-230202118D01*
X107684703Y-230204278D01*
X107670000Y-230205000D01*
X106020000Y-230205000D01*
X106005297Y-230204278D01*
X105990736Y-230202118D01*
X105976457Y-230198541D01*
X105962597Y-230193582D01*
X105949290Y-230187288D01*
X105936664Y-230179720D01*
X105924841Y-230170952D01*
X105913934Y-230161066D01*
X105904048Y-230150159D01*
X105895280Y-230138336D01*
X105887712Y-230125710D01*
X105881418Y-230112403D01*
X105876459Y-230098543D01*
X105872882Y-230084264D01*
X105870722Y-230069703D01*
X105870000Y-230055000D01*
X105870000Y-229755000D01*
X105870722Y-229740297D01*
X105872882Y-229725736D01*
X105876459Y-229711457D01*
X105881418Y-229697597D01*
X105887712Y-229684290D01*
X105895280Y-229671664D01*
X105904048Y-229659841D01*
X105913934Y-229648934D01*
X105924841Y-229639048D01*
X105936664Y-229630280D01*
X105949290Y-229622712D01*
X105962597Y-229616418D01*
X105976457Y-229611459D01*
X105990736Y-229607882D01*
X106005297Y-229605722D01*
X106020000Y-229605000D01*
X107670000Y-229605000D01*
X107684703Y-229605722D01*
X107684703Y-229605722D01*
G37*
D11*
X106845000Y-229905000D03*
D10*
G36*
X107684703Y-228335722D02*
G01*
X107699264Y-228337882D01*
X107713543Y-228341459D01*
X107727403Y-228346418D01*
X107740710Y-228352712D01*
X107753336Y-228360280D01*
X107765159Y-228369048D01*
X107776066Y-228378934D01*
X107785952Y-228389841D01*
X107794720Y-228401664D01*
X107802288Y-228414290D01*
X107808582Y-228427597D01*
X107813541Y-228441457D01*
X107817118Y-228455736D01*
X107819278Y-228470297D01*
X107820000Y-228485000D01*
X107820000Y-228785000D01*
X107819278Y-228799703D01*
X107817118Y-228814264D01*
X107813541Y-228828543D01*
X107808582Y-228842403D01*
X107802288Y-228855710D01*
X107794720Y-228868336D01*
X107785952Y-228880159D01*
X107776066Y-228891066D01*
X107765159Y-228900952D01*
X107753336Y-228909720D01*
X107740710Y-228917288D01*
X107727403Y-228923582D01*
X107713543Y-228928541D01*
X107699264Y-228932118D01*
X107684703Y-228934278D01*
X107670000Y-228935000D01*
X106020000Y-228935000D01*
X106005297Y-228934278D01*
X105990736Y-228932118D01*
X105976457Y-228928541D01*
X105962597Y-228923582D01*
X105949290Y-228917288D01*
X105936664Y-228909720D01*
X105924841Y-228900952D01*
X105913934Y-228891066D01*
X105904048Y-228880159D01*
X105895280Y-228868336D01*
X105887712Y-228855710D01*
X105881418Y-228842403D01*
X105876459Y-228828543D01*
X105872882Y-228814264D01*
X105870722Y-228799703D01*
X105870000Y-228785000D01*
X105870000Y-228485000D01*
X105870722Y-228470297D01*
X105872882Y-228455736D01*
X105876459Y-228441457D01*
X105881418Y-228427597D01*
X105887712Y-228414290D01*
X105895280Y-228401664D01*
X105904048Y-228389841D01*
X105913934Y-228378934D01*
X105924841Y-228369048D01*
X105936664Y-228360280D01*
X105949290Y-228352712D01*
X105962597Y-228346418D01*
X105976457Y-228341459D01*
X105990736Y-228337882D01*
X106005297Y-228335722D01*
X106020000Y-228335000D01*
X107670000Y-228335000D01*
X107684703Y-228335722D01*
X107684703Y-228335722D01*
G37*
D11*
X106845000Y-228635000D03*
D10*
G36*
X107684703Y-227065722D02*
G01*
X107699264Y-227067882D01*
X107713543Y-227071459D01*
X107727403Y-227076418D01*
X107740710Y-227082712D01*
X107753336Y-227090280D01*
X107765159Y-227099048D01*
X107776066Y-227108934D01*
X107785952Y-227119841D01*
X107794720Y-227131664D01*
X107802288Y-227144290D01*
X107808582Y-227157597D01*
X107813541Y-227171457D01*
X107817118Y-227185736D01*
X107819278Y-227200297D01*
X107820000Y-227215000D01*
X107820000Y-227515000D01*
X107819278Y-227529703D01*
X107817118Y-227544264D01*
X107813541Y-227558543D01*
X107808582Y-227572403D01*
X107802288Y-227585710D01*
X107794720Y-227598336D01*
X107785952Y-227610159D01*
X107776066Y-227621066D01*
X107765159Y-227630952D01*
X107753336Y-227639720D01*
X107740710Y-227647288D01*
X107727403Y-227653582D01*
X107713543Y-227658541D01*
X107699264Y-227662118D01*
X107684703Y-227664278D01*
X107670000Y-227665000D01*
X106020000Y-227665000D01*
X106005297Y-227664278D01*
X105990736Y-227662118D01*
X105976457Y-227658541D01*
X105962597Y-227653582D01*
X105949290Y-227647288D01*
X105936664Y-227639720D01*
X105924841Y-227630952D01*
X105913934Y-227621066D01*
X105904048Y-227610159D01*
X105895280Y-227598336D01*
X105887712Y-227585710D01*
X105881418Y-227572403D01*
X105876459Y-227558543D01*
X105872882Y-227544264D01*
X105870722Y-227529703D01*
X105870000Y-227515000D01*
X105870000Y-227215000D01*
X105870722Y-227200297D01*
X105872882Y-227185736D01*
X105876459Y-227171457D01*
X105881418Y-227157597D01*
X105887712Y-227144290D01*
X105895280Y-227131664D01*
X105904048Y-227119841D01*
X105913934Y-227108934D01*
X105924841Y-227099048D01*
X105936664Y-227090280D01*
X105949290Y-227082712D01*
X105962597Y-227076418D01*
X105976457Y-227071459D01*
X105990736Y-227067882D01*
X106005297Y-227065722D01*
X106020000Y-227065000D01*
X107670000Y-227065000D01*
X107684703Y-227065722D01*
X107684703Y-227065722D01*
G37*
D11*
X106845000Y-227365000D03*
D10*
G36*
X107684703Y-225795722D02*
G01*
X107699264Y-225797882D01*
X107713543Y-225801459D01*
X107727403Y-225806418D01*
X107740710Y-225812712D01*
X107753336Y-225820280D01*
X107765159Y-225829048D01*
X107776066Y-225838934D01*
X107785952Y-225849841D01*
X107794720Y-225861664D01*
X107802288Y-225874290D01*
X107808582Y-225887597D01*
X107813541Y-225901457D01*
X107817118Y-225915736D01*
X107819278Y-225930297D01*
X107820000Y-225945000D01*
X107820000Y-226245000D01*
X107819278Y-226259703D01*
X107817118Y-226274264D01*
X107813541Y-226288543D01*
X107808582Y-226302403D01*
X107802288Y-226315710D01*
X107794720Y-226328336D01*
X107785952Y-226340159D01*
X107776066Y-226351066D01*
X107765159Y-226360952D01*
X107753336Y-226369720D01*
X107740710Y-226377288D01*
X107727403Y-226383582D01*
X107713543Y-226388541D01*
X107699264Y-226392118D01*
X107684703Y-226394278D01*
X107670000Y-226395000D01*
X106020000Y-226395000D01*
X106005297Y-226394278D01*
X105990736Y-226392118D01*
X105976457Y-226388541D01*
X105962597Y-226383582D01*
X105949290Y-226377288D01*
X105936664Y-226369720D01*
X105924841Y-226360952D01*
X105913934Y-226351066D01*
X105904048Y-226340159D01*
X105895280Y-226328336D01*
X105887712Y-226315710D01*
X105881418Y-226302403D01*
X105876459Y-226288543D01*
X105872882Y-226274264D01*
X105870722Y-226259703D01*
X105870000Y-226245000D01*
X105870000Y-225945000D01*
X105870722Y-225930297D01*
X105872882Y-225915736D01*
X105876459Y-225901457D01*
X105881418Y-225887597D01*
X105887712Y-225874290D01*
X105895280Y-225861664D01*
X105904048Y-225849841D01*
X105913934Y-225838934D01*
X105924841Y-225829048D01*
X105936664Y-225820280D01*
X105949290Y-225812712D01*
X105962597Y-225806418D01*
X105976457Y-225801459D01*
X105990736Y-225797882D01*
X106005297Y-225795722D01*
X106020000Y-225795000D01*
X107670000Y-225795000D01*
X107684703Y-225795722D01*
X107684703Y-225795722D01*
G37*
D11*
X106845000Y-226095000D03*
D10*
G36*
X119469504Y-225976204D02*
G01*
X119493773Y-225979804D01*
X119517571Y-225985765D01*
X119540671Y-225994030D01*
X119562849Y-226004520D01*
X119583893Y-226017133D01*
X119603598Y-226031747D01*
X119621777Y-226048223D01*
X119638253Y-226066402D01*
X119652867Y-226086107D01*
X119665480Y-226107151D01*
X119675970Y-226129329D01*
X119684235Y-226152429D01*
X119690196Y-226176227D01*
X119693796Y-226200496D01*
X119695000Y-226225000D01*
X119695000Y-226975000D01*
X119693796Y-226999504D01*
X119690196Y-227023773D01*
X119684235Y-227047571D01*
X119675970Y-227070671D01*
X119665480Y-227092849D01*
X119652867Y-227113893D01*
X119638253Y-227133598D01*
X119621777Y-227151777D01*
X119603598Y-227168253D01*
X119583893Y-227182867D01*
X119562849Y-227195480D01*
X119540671Y-227205970D01*
X119517571Y-227214235D01*
X119493773Y-227220196D01*
X119469504Y-227223796D01*
X119445000Y-227225000D01*
X118195000Y-227225000D01*
X118170496Y-227223796D01*
X118146227Y-227220196D01*
X118122429Y-227214235D01*
X118099329Y-227205970D01*
X118077151Y-227195480D01*
X118056107Y-227182867D01*
X118036402Y-227168253D01*
X118018223Y-227151777D01*
X118001747Y-227133598D01*
X117987133Y-227113893D01*
X117974520Y-227092849D01*
X117964030Y-227070671D01*
X117955765Y-227047571D01*
X117949804Y-227023773D01*
X117946204Y-226999504D01*
X117945000Y-226975000D01*
X117945000Y-226225000D01*
X117946204Y-226200496D01*
X117949804Y-226176227D01*
X117955765Y-226152429D01*
X117964030Y-226129329D01*
X117974520Y-226107151D01*
X117987133Y-226086107D01*
X118001747Y-226066402D01*
X118018223Y-226048223D01*
X118036402Y-226031747D01*
X118056107Y-226017133D01*
X118077151Y-226004520D01*
X118099329Y-225994030D01*
X118122429Y-225985765D01*
X118146227Y-225979804D01*
X118170496Y-225976204D01*
X118195000Y-225975000D01*
X119445000Y-225975000D01*
X119469504Y-225976204D01*
X119469504Y-225976204D01*
G37*
D12*
X118820000Y-226600000D03*
D10*
G36*
X119469504Y-228776204D02*
G01*
X119493773Y-228779804D01*
X119517571Y-228785765D01*
X119540671Y-228794030D01*
X119562849Y-228804520D01*
X119583893Y-228817133D01*
X119603598Y-228831747D01*
X119621777Y-228848223D01*
X119638253Y-228866402D01*
X119652867Y-228886107D01*
X119665480Y-228907151D01*
X119675970Y-228929329D01*
X119684235Y-228952429D01*
X119690196Y-228976227D01*
X119693796Y-229000496D01*
X119695000Y-229025000D01*
X119695000Y-229775000D01*
X119693796Y-229799504D01*
X119690196Y-229823773D01*
X119684235Y-229847571D01*
X119675970Y-229870671D01*
X119665480Y-229892849D01*
X119652867Y-229913893D01*
X119638253Y-229933598D01*
X119621777Y-229951777D01*
X119603598Y-229968253D01*
X119583893Y-229982867D01*
X119562849Y-229995480D01*
X119540671Y-230005970D01*
X119517571Y-230014235D01*
X119493773Y-230020196D01*
X119469504Y-230023796D01*
X119445000Y-230025000D01*
X118195000Y-230025000D01*
X118170496Y-230023796D01*
X118146227Y-230020196D01*
X118122429Y-230014235D01*
X118099329Y-230005970D01*
X118077151Y-229995480D01*
X118056107Y-229982867D01*
X118036402Y-229968253D01*
X118018223Y-229951777D01*
X118001747Y-229933598D01*
X117987133Y-229913893D01*
X117974520Y-229892849D01*
X117964030Y-229870671D01*
X117955765Y-229847571D01*
X117949804Y-229823773D01*
X117946204Y-229799504D01*
X117945000Y-229775000D01*
X117945000Y-229025000D01*
X117946204Y-229000496D01*
X117949804Y-228976227D01*
X117955765Y-228952429D01*
X117964030Y-228929329D01*
X117974520Y-228907151D01*
X117987133Y-228886107D01*
X118001747Y-228866402D01*
X118018223Y-228848223D01*
X118036402Y-228831747D01*
X118056107Y-228817133D01*
X118077151Y-228804520D01*
X118099329Y-228794030D01*
X118122429Y-228785765D01*
X118146227Y-228779804D01*
X118170496Y-228776204D01*
X118195000Y-228775000D01*
X119445000Y-228775000D01*
X119469504Y-228776204D01*
X119469504Y-228776204D01*
G37*
D12*
X118820000Y-229400000D03*
D10*
G36*
X108319504Y-232126204D02*
G01*
X108343773Y-232129804D01*
X108367571Y-232135765D01*
X108390671Y-232144030D01*
X108412849Y-232154520D01*
X108433893Y-232167133D01*
X108453598Y-232181747D01*
X108471777Y-232198223D01*
X108488253Y-232216402D01*
X108502867Y-232236107D01*
X108515480Y-232257151D01*
X108525970Y-232279329D01*
X108534235Y-232302429D01*
X108540196Y-232326227D01*
X108543796Y-232350496D01*
X108545000Y-232375000D01*
X108545000Y-233625000D01*
X108543796Y-233649504D01*
X108540196Y-233673773D01*
X108534235Y-233697571D01*
X108525970Y-233720671D01*
X108515480Y-233742849D01*
X108502867Y-233763893D01*
X108488253Y-233783598D01*
X108471777Y-233801777D01*
X108453598Y-233818253D01*
X108433893Y-233832867D01*
X108412849Y-233845480D01*
X108390671Y-233855970D01*
X108367571Y-233864235D01*
X108343773Y-233870196D01*
X108319504Y-233873796D01*
X108295000Y-233875000D01*
X107545000Y-233875000D01*
X107520496Y-233873796D01*
X107496227Y-233870196D01*
X107472429Y-233864235D01*
X107449329Y-233855970D01*
X107427151Y-233845480D01*
X107406107Y-233832867D01*
X107386402Y-233818253D01*
X107368223Y-233801777D01*
X107351747Y-233783598D01*
X107337133Y-233763893D01*
X107324520Y-233742849D01*
X107314030Y-233720671D01*
X107305765Y-233697571D01*
X107299804Y-233673773D01*
X107296204Y-233649504D01*
X107295000Y-233625000D01*
X107295000Y-232375000D01*
X107296204Y-232350496D01*
X107299804Y-232326227D01*
X107305765Y-232302429D01*
X107314030Y-232279329D01*
X107324520Y-232257151D01*
X107337133Y-232236107D01*
X107351747Y-232216402D01*
X107368223Y-232198223D01*
X107386402Y-232181747D01*
X107406107Y-232167133D01*
X107427151Y-232154520D01*
X107449329Y-232144030D01*
X107472429Y-232135765D01*
X107496227Y-232129804D01*
X107520496Y-232126204D01*
X107545000Y-232125000D01*
X108295000Y-232125000D01*
X108319504Y-232126204D01*
X108319504Y-232126204D01*
G37*
D12*
X107920000Y-233000000D03*
D10*
G36*
X111119504Y-232126204D02*
G01*
X111143773Y-232129804D01*
X111167571Y-232135765D01*
X111190671Y-232144030D01*
X111212849Y-232154520D01*
X111233893Y-232167133D01*
X111253598Y-232181747D01*
X111271777Y-232198223D01*
X111288253Y-232216402D01*
X111302867Y-232236107D01*
X111315480Y-232257151D01*
X111325970Y-232279329D01*
X111334235Y-232302429D01*
X111340196Y-232326227D01*
X111343796Y-232350496D01*
X111345000Y-232375000D01*
X111345000Y-233625000D01*
X111343796Y-233649504D01*
X111340196Y-233673773D01*
X111334235Y-233697571D01*
X111325970Y-233720671D01*
X111315480Y-233742849D01*
X111302867Y-233763893D01*
X111288253Y-233783598D01*
X111271777Y-233801777D01*
X111253598Y-233818253D01*
X111233893Y-233832867D01*
X111212849Y-233845480D01*
X111190671Y-233855970D01*
X111167571Y-233864235D01*
X111143773Y-233870196D01*
X111119504Y-233873796D01*
X111095000Y-233875000D01*
X110345000Y-233875000D01*
X110320496Y-233873796D01*
X110296227Y-233870196D01*
X110272429Y-233864235D01*
X110249329Y-233855970D01*
X110227151Y-233845480D01*
X110206107Y-233832867D01*
X110186402Y-233818253D01*
X110168223Y-233801777D01*
X110151747Y-233783598D01*
X110137133Y-233763893D01*
X110124520Y-233742849D01*
X110114030Y-233720671D01*
X110105765Y-233697571D01*
X110099804Y-233673773D01*
X110096204Y-233649504D01*
X110095000Y-233625000D01*
X110095000Y-232375000D01*
X110096204Y-232350496D01*
X110099804Y-232326227D01*
X110105765Y-232302429D01*
X110114030Y-232279329D01*
X110124520Y-232257151D01*
X110137133Y-232236107D01*
X110151747Y-232216402D01*
X110168223Y-232198223D01*
X110186402Y-232181747D01*
X110206107Y-232167133D01*
X110227151Y-232154520D01*
X110249329Y-232144030D01*
X110272429Y-232135765D01*
X110296227Y-232129804D01*
X110320496Y-232126204D01*
X110345000Y-232125000D01*
X111095000Y-232125000D01*
X111119504Y-232126204D01*
X111119504Y-232126204D01*
G37*
D12*
X110720000Y-233000000D03*
D10*
G36*
X103969504Y-225976204D02*
G01*
X103993773Y-225979804D01*
X104017571Y-225985765D01*
X104040671Y-225994030D01*
X104062849Y-226004520D01*
X104083893Y-226017133D01*
X104103598Y-226031747D01*
X104121777Y-226048223D01*
X104138253Y-226066402D01*
X104152867Y-226086107D01*
X104165480Y-226107151D01*
X104175970Y-226129329D01*
X104184235Y-226152429D01*
X104190196Y-226176227D01*
X104193796Y-226200496D01*
X104195000Y-226225000D01*
X104195000Y-226975000D01*
X104193796Y-226999504D01*
X104190196Y-227023773D01*
X104184235Y-227047571D01*
X104175970Y-227070671D01*
X104165480Y-227092849D01*
X104152867Y-227113893D01*
X104138253Y-227133598D01*
X104121777Y-227151777D01*
X104103598Y-227168253D01*
X104083893Y-227182867D01*
X104062849Y-227195480D01*
X104040671Y-227205970D01*
X104017571Y-227214235D01*
X103993773Y-227220196D01*
X103969504Y-227223796D01*
X103945000Y-227225000D01*
X102695000Y-227225000D01*
X102670496Y-227223796D01*
X102646227Y-227220196D01*
X102622429Y-227214235D01*
X102599329Y-227205970D01*
X102577151Y-227195480D01*
X102556107Y-227182867D01*
X102536402Y-227168253D01*
X102518223Y-227151777D01*
X102501747Y-227133598D01*
X102487133Y-227113893D01*
X102474520Y-227092849D01*
X102464030Y-227070671D01*
X102455765Y-227047571D01*
X102449804Y-227023773D01*
X102446204Y-226999504D01*
X102445000Y-226975000D01*
X102445000Y-226225000D01*
X102446204Y-226200496D01*
X102449804Y-226176227D01*
X102455765Y-226152429D01*
X102464030Y-226129329D01*
X102474520Y-226107151D01*
X102487133Y-226086107D01*
X102501747Y-226066402D01*
X102518223Y-226048223D01*
X102536402Y-226031747D01*
X102556107Y-226017133D01*
X102577151Y-226004520D01*
X102599329Y-225994030D01*
X102622429Y-225985765D01*
X102646227Y-225979804D01*
X102670496Y-225976204D01*
X102695000Y-225975000D01*
X103945000Y-225975000D01*
X103969504Y-225976204D01*
X103969504Y-225976204D01*
G37*
D12*
X103320000Y-226600000D03*
D10*
G36*
X103969504Y-228776204D02*
G01*
X103993773Y-228779804D01*
X104017571Y-228785765D01*
X104040671Y-228794030D01*
X104062849Y-228804520D01*
X104083893Y-228817133D01*
X104103598Y-228831747D01*
X104121777Y-228848223D01*
X104138253Y-228866402D01*
X104152867Y-228886107D01*
X104165480Y-228907151D01*
X104175970Y-228929329D01*
X104184235Y-228952429D01*
X104190196Y-228976227D01*
X104193796Y-229000496D01*
X104195000Y-229025000D01*
X104195000Y-229775000D01*
X104193796Y-229799504D01*
X104190196Y-229823773D01*
X104184235Y-229847571D01*
X104175970Y-229870671D01*
X104165480Y-229892849D01*
X104152867Y-229913893D01*
X104138253Y-229933598D01*
X104121777Y-229951777D01*
X104103598Y-229968253D01*
X104083893Y-229982867D01*
X104062849Y-229995480D01*
X104040671Y-230005970D01*
X104017571Y-230014235D01*
X103993773Y-230020196D01*
X103969504Y-230023796D01*
X103945000Y-230025000D01*
X102695000Y-230025000D01*
X102670496Y-230023796D01*
X102646227Y-230020196D01*
X102622429Y-230014235D01*
X102599329Y-230005970D01*
X102577151Y-229995480D01*
X102556107Y-229982867D01*
X102536402Y-229968253D01*
X102518223Y-229951777D01*
X102501747Y-229933598D01*
X102487133Y-229913893D01*
X102474520Y-229892849D01*
X102464030Y-229870671D01*
X102455765Y-229847571D01*
X102449804Y-229823773D01*
X102446204Y-229799504D01*
X102445000Y-229775000D01*
X102445000Y-229025000D01*
X102446204Y-229000496D01*
X102449804Y-228976227D01*
X102455765Y-228952429D01*
X102464030Y-228929329D01*
X102474520Y-228907151D01*
X102487133Y-228886107D01*
X102501747Y-228866402D01*
X102518223Y-228848223D01*
X102536402Y-228831747D01*
X102556107Y-228817133D01*
X102577151Y-228804520D01*
X102599329Y-228794030D01*
X102622429Y-228785765D01*
X102646227Y-228779804D01*
X102670496Y-228776204D01*
X102695000Y-228775000D01*
X103945000Y-228775000D01*
X103969504Y-228776204D01*
X103969504Y-228776204D01*
G37*
D12*
X103320000Y-229400000D03*
D10*
G36*
X123319504Y-232126204D02*
G01*
X123343773Y-232129804D01*
X123367571Y-232135765D01*
X123390671Y-232144030D01*
X123412849Y-232154520D01*
X123433893Y-232167133D01*
X123453598Y-232181747D01*
X123471777Y-232198223D01*
X123488253Y-232216402D01*
X123502867Y-232236107D01*
X123515480Y-232257151D01*
X123525970Y-232279329D01*
X123534235Y-232302429D01*
X123540196Y-232326227D01*
X123543796Y-232350496D01*
X123545000Y-232375000D01*
X123545000Y-233625000D01*
X123543796Y-233649504D01*
X123540196Y-233673773D01*
X123534235Y-233697571D01*
X123525970Y-233720671D01*
X123515480Y-233742849D01*
X123502867Y-233763893D01*
X123488253Y-233783598D01*
X123471777Y-233801777D01*
X123453598Y-233818253D01*
X123433893Y-233832867D01*
X123412849Y-233845480D01*
X123390671Y-233855970D01*
X123367571Y-233864235D01*
X123343773Y-233870196D01*
X123319504Y-233873796D01*
X123295000Y-233875000D01*
X122545000Y-233875000D01*
X122520496Y-233873796D01*
X122496227Y-233870196D01*
X122472429Y-233864235D01*
X122449329Y-233855970D01*
X122427151Y-233845480D01*
X122406107Y-233832867D01*
X122386402Y-233818253D01*
X122368223Y-233801777D01*
X122351747Y-233783598D01*
X122337133Y-233763893D01*
X122324520Y-233742849D01*
X122314030Y-233720671D01*
X122305765Y-233697571D01*
X122299804Y-233673773D01*
X122296204Y-233649504D01*
X122295000Y-233625000D01*
X122295000Y-232375000D01*
X122296204Y-232350496D01*
X122299804Y-232326227D01*
X122305765Y-232302429D01*
X122314030Y-232279329D01*
X122324520Y-232257151D01*
X122337133Y-232236107D01*
X122351747Y-232216402D01*
X122368223Y-232198223D01*
X122386402Y-232181747D01*
X122406107Y-232167133D01*
X122427151Y-232154520D01*
X122449329Y-232144030D01*
X122472429Y-232135765D01*
X122496227Y-232129804D01*
X122520496Y-232126204D01*
X122545000Y-232125000D01*
X123295000Y-232125000D01*
X123319504Y-232126204D01*
X123319504Y-232126204D01*
G37*
D12*
X122920000Y-233000000D03*
D10*
G36*
X126119504Y-232126204D02*
G01*
X126143773Y-232129804D01*
X126167571Y-232135765D01*
X126190671Y-232144030D01*
X126212849Y-232154520D01*
X126233893Y-232167133D01*
X126253598Y-232181747D01*
X126271777Y-232198223D01*
X126288253Y-232216402D01*
X126302867Y-232236107D01*
X126315480Y-232257151D01*
X126325970Y-232279329D01*
X126334235Y-232302429D01*
X126340196Y-232326227D01*
X126343796Y-232350496D01*
X126345000Y-232375000D01*
X126345000Y-233625000D01*
X126343796Y-233649504D01*
X126340196Y-233673773D01*
X126334235Y-233697571D01*
X126325970Y-233720671D01*
X126315480Y-233742849D01*
X126302867Y-233763893D01*
X126288253Y-233783598D01*
X126271777Y-233801777D01*
X126253598Y-233818253D01*
X126233893Y-233832867D01*
X126212849Y-233845480D01*
X126190671Y-233855970D01*
X126167571Y-233864235D01*
X126143773Y-233870196D01*
X126119504Y-233873796D01*
X126095000Y-233875000D01*
X125345000Y-233875000D01*
X125320496Y-233873796D01*
X125296227Y-233870196D01*
X125272429Y-233864235D01*
X125249329Y-233855970D01*
X125227151Y-233845480D01*
X125206107Y-233832867D01*
X125186402Y-233818253D01*
X125168223Y-233801777D01*
X125151747Y-233783598D01*
X125137133Y-233763893D01*
X125124520Y-233742849D01*
X125114030Y-233720671D01*
X125105765Y-233697571D01*
X125099804Y-233673773D01*
X125096204Y-233649504D01*
X125095000Y-233625000D01*
X125095000Y-232375000D01*
X125096204Y-232350496D01*
X125099804Y-232326227D01*
X125105765Y-232302429D01*
X125114030Y-232279329D01*
X125124520Y-232257151D01*
X125137133Y-232236107D01*
X125151747Y-232216402D01*
X125168223Y-232198223D01*
X125186402Y-232181747D01*
X125206107Y-232167133D01*
X125227151Y-232154520D01*
X125249329Y-232144030D01*
X125272429Y-232135765D01*
X125296227Y-232129804D01*
X125320496Y-232126204D01*
X125345000Y-232125000D01*
X126095000Y-232125000D01*
X126119504Y-232126204D01*
X126119504Y-232126204D01*
G37*
D12*
X125720000Y-233000000D03*
D10*
G36*
X102469504Y-276776204D02*
G01*
X102493773Y-276779804D01*
X102517571Y-276785765D01*
X102540671Y-276794030D01*
X102562849Y-276804520D01*
X102583893Y-276817133D01*
X102603598Y-276831747D01*
X102621777Y-276848223D01*
X102638253Y-276866402D01*
X102652867Y-276886107D01*
X102665480Y-276907151D01*
X102675970Y-276929329D01*
X102684235Y-276952429D01*
X102690196Y-276976227D01*
X102693796Y-277000496D01*
X102695000Y-277025000D01*
X102695000Y-277775000D01*
X102693796Y-277799504D01*
X102690196Y-277823773D01*
X102684235Y-277847571D01*
X102675970Y-277870671D01*
X102665480Y-277892849D01*
X102652867Y-277913893D01*
X102638253Y-277933598D01*
X102621777Y-277951777D01*
X102603598Y-277968253D01*
X102583893Y-277982867D01*
X102562849Y-277995480D01*
X102540671Y-278005970D01*
X102517571Y-278014235D01*
X102493773Y-278020196D01*
X102469504Y-278023796D01*
X102445000Y-278025000D01*
X101195000Y-278025000D01*
X101170496Y-278023796D01*
X101146227Y-278020196D01*
X101122429Y-278014235D01*
X101099329Y-278005970D01*
X101077151Y-277995480D01*
X101056107Y-277982867D01*
X101036402Y-277968253D01*
X101018223Y-277951777D01*
X101001747Y-277933598D01*
X100987133Y-277913893D01*
X100974520Y-277892849D01*
X100964030Y-277870671D01*
X100955765Y-277847571D01*
X100949804Y-277823773D01*
X100946204Y-277799504D01*
X100945000Y-277775000D01*
X100945000Y-277025000D01*
X100946204Y-277000496D01*
X100949804Y-276976227D01*
X100955765Y-276952429D01*
X100964030Y-276929329D01*
X100974520Y-276907151D01*
X100987133Y-276886107D01*
X101001747Y-276866402D01*
X101018223Y-276848223D01*
X101036402Y-276831747D01*
X101056107Y-276817133D01*
X101077151Y-276804520D01*
X101099329Y-276794030D01*
X101122429Y-276785765D01*
X101146227Y-276779804D01*
X101170496Y-276776204D01*
X101195000Y-276775000D01*
X102445000Y-276775000D01*
X102469504Y-276776204D01*
X102469504Y-276776204D01*
G37*
D12*
X101820000Y-277400000D03*
D10*
G36*
X102469504Y-273976204D02*
G01*
X102493773Y-273979804D01*
X102517571Y-273985765D01*
X102540671Y-273994030D01*
X102562849Y-274004520D01*
X102583893Y-274017133D01*
X102603598Y-274031747D01*
X102621777Y-274048223D01*
X102638253Y-274066402D01*
X102652867Y-274086107D01*
X102665480Y-274107151D01*
X102675970Y-274129329D01*
X102684235Y-274152429D01*
X102690196Y-274176227D01*
X102693796Y-274200496D01*
X102695000Y-274225000D01*
X102695000Y-274975000D01*
X102693796Y-274999504D01*
X102690196Y-275023773D01*
X102684235Y-275047571D01*
X102675970Y-275070671D01*
X102665480Y-275092849D01*
X102652867Y-275113893D01*
X102638253Y-275133598D01*
X102621777Y-275151777D01*
X102603598Y-275168253D01*
X102583893Y-275182867D01*
X102562849Y-275195480D01*
X102540671Y-275205970D01*
X102517571Y-275214235D01*
X102493773Y-275220196D01*
X102469504Y-275223796D01*
X102445000Y-275225000D01*
X101195000Y-275225000D01*
X101170496Y-275223796D01*
X101146227Y-275220196D01*
X101122429Y-275214235D01*
X101099329Y-275205970D01*
X101077151Y-275195480D01*
X101056107Y-275182867D01*
X101036402Y-275168253D01*
X101018223Y-275151777D01*
X101001747Y-275133598D01*
X100987133Y-275113893D01*
X100974520Y-275092849D01*
X100964030Y-275070671D01*
X100955765Y-275047571D01*
X100949804Y-275023773D01*
X100946204Y-274999504D01*
X100945000Y-274975000D01*
X100945000Y-274225000D01*
X100946204Y-274200496D01*
X100949804Y-274176227D01*
X100955765Y-274152429D01*
X100964030Y-274129329D01*
X100974520Y-274107151D01*
X100987133Y-274086107D01*
X101001747Y-274066402D01*
X101018223Y-274048223D01*
X101036402Y-274031747D01*
X101056107Y-274017133D01*
X101077151Y-274004520D01*
X101099329Y-273994030D01*
X101122429Y-273985765D01*
X101146227Y-273979804D01*
X101170496Y-273976204D01*
X101195000Y-273975000D01*
X102445000Y-273975000D01*
X102469504Y-273976204D01*
X102469504Y-273976204D01*
G37*
D12*
X101820000Y-274600000D03*
D10*
G36*
X102469504Y-271776204D02*
G01*
X102493773Y-271779804D01*
X102517571Y-271785765D01*
X102540671Y-271794030D01*
X102562849Y-271804520D01*
X102583893Y-271817133D01*
X102603598Y-271831747D01*
X102621777Y-271848223D01*
X102638253Y-271866402D01*
X102652867Y-271886107D01*
X102665480Y-271907151D01*
X102675970Y-271929329D01*
X102684235Y-271952429D01*
X102690196Y-271976227D01*
X102693796Y-272000496D01*
X102695000Y-272025000D01*
X102695000Y-272775000D01*
X102693796Y-272799504D01*
X102690196Y-272823773D01*
X102684235Y-272847571D01*
X102675970Y-272870671D01*
X102665480Y-272892849D01*
X102652867Y-272913893D01*
X102638253Y-272933598D01*
X102621777Y-272951777D01*
X102603598Y-272968253D01*
X102583893Y-272982867D01*
X102562849Y-272995480D01*
X102540671Y-273005970D01*
X102517571Y-273014235D01*
X102493773Y-273020196D01*
X102469504Y-273023796D01*
X102445000Y-273025000D01*
X101195000Y-273025000D01*
X101170496Y-273023796D01*
X101146227Y-273020196D01*
X101122429Y-273014235D01*
X101099329Y-273005970D01*
X101077151Y-272995480D01*
X101056107Y-272982867D01*
X101036402Y-272968253D01*
X101018223Y-272951777D01*
X101001747Y-272933598D01*
X100987133Y-272913893D01*
X100974520Y-272892849D01*
X100964030Y-272870671D01*
X100955765Y-272847571D01*
X100949804Y-272823773D01*
X100946204Y-272799504D01*
X100945000Y-272775000D01*
X100945000Y-272025000D01*
X100946204Y-272000496D01*
X100949804Y-271976227D01*
X100955765Y-271952429D01*
X100964030Y-271929329D01*
X100974520Y-271907151D01*
X100987133Y-271886107D01*
X101001747Y-271866402D01*
X101018223Y-271848223D01*
X101036402Y-271831747D01*
X101056107Y-271817133D01*
X101077151Y-271804520D01*
X101099329Y-271794030D01*
X101122429Y-271785765D01*
X101146227Y-271779804D01*
X101170496Y-271776204D01*
X101195000Y-271775000D01*
X102445000Y-271775000D01*
X102469504Y-271776204D01*
X102469504Y-271776204D01*
G37*
D12*
X101820000Y-272400000D03*
D10*
G36*
X102469504Y-268976204D02*
G01*
X102493773Y-268979804D01*
X102517571Y-268985765D01*
X102540671Y-268994030D01*
X102562849Y-269004520D01*
X102583893Y-269017133D01*
X102603598Y-269031747D01*
X102621777Y-269048223D01*
X102638253Y-269066402D01*
X102652867Y-269086107D01*
X102665480Y-269107151D01*
X102675970Y-269129329D01*
X102684235Y-269152429D01*
X102690196Y-269176227D01*
X102693796Y-269200496D01*
X102695000Y-269225000D01*
X102695000Y-269975000D01*
X102693796Y-269999504D01*
X102690196Y-270023773D01*
X102684235Y-270047571D01*
X102675970Y-270070671D01*
X102665480Y-270092849D01*
X102652867Y-270113893D01*
X102638253Y-270133598D01*
X102621777Y-270151777D01*
X102603598Y-270168253D01*
X102583893Y-270182867D01*
X102562849Y-270195480D01*
X102540671Y-270205970D01*
X102517571Y-270214235D01*
X102493773Y-270220196D01*
X102469504Y-270223796D01*
X102445000Y-270225000D01*
X101195000Y-270225000D01*
X101170496Y-270223796D01*
X101146227Y-270220196D01*
X101122429Y-270214235D01*
X101099329Y-270205970D01*
X101077151Y-270195480D01*
X101056107Y-270182867D01*
X101036402Y-270168253D01*
X101018223Y-270151777D01*
X101001747Y-270133598D01*
X100987133Y-270113893D01*
X100974520Y-270092849D01*
X100964030Y-270070671D01*
X100955765Y-270047571D01*
X100949804Y-270023773D01*
X100946204Y-269999504D01*
X100945000Y-269975000D01*
X100945000Y-269225000D01*
X100946204Y-269200496D01*
X100949804Y-269176227D01*
X100955765Y-269152429D01*
X100964030Y-269129329D01*
X100974520Y-269107151D01*
X100987133Y-269086107D01*
X101001747Y-269066402D01*
X101018223Y-269048223D01*
X101036402Y-269031747D01*
X101056107Y-269017133D01*
X101077151Y-269004520D01*
X101099329Y-268994030D01*
X101122429Y-268985765D01*
X101146227Y-268979804D01*
X101170496Y-268976204D01*
X101195000Y-268975000D01*
X102445000Y-268975000D01*
X102469504Y-268976204D01*
X102469504Y-268976204D01*
G37*
D12*
X101820000Y-269600000D03*
D10*
G36*
X102469504Y-341776204D02*
G01*
X102493773Y-341779804D01*
X102517571Y-341785765D01*
X102540671Y-341794030D01*
X102562849Y-341804520D01*
X102583893Y-341817133D01*
X102603598Y-341831747D01*
X102621777Y-341848223D01*
X102638253Y-341866402D01*
X102652867Y-341886107D01*
X102665480Y-341907151D01*
X102675970Y-341929329D01*
X102684235Y-341952429D01*
X102690196Y-341976227D01*
X102693796Y-342000496D01*
X102695000Y-342025000D01*
X102695000Y-342775000D01*
X102693796Y-342799504D01*
X102690196Y-342823773D01*
X102684235Y-342847571D01*
X102675970Y-342870671D01*
X102665480Y-342892849D01*
X102652867Y-342913893D01*
X102638253Y-342933598D01*
X102621777Y-342951777D01*
X102603598Y-342968253D01*
X102583893Y-342982867D01*
X102562849Y-342995480D01*
X102540671Y-343005970D01*
X102517571Y-343014235D01*
X102493773Y-343020196D01*
X102469504Y-343023796D01*
X102445000Y-343025000D01*
X101195000Y-343025000D01*
X101170496Y-343023796D01*
X101146227Y-343020196D01*
X101122429Y-343014235D01*
X101099329Y-343005970D01*
X101077151Y-342995480D01*
X101056107Y-342982867D01*
X101036402Y-342968253D01*
X101018223Y-342951777D01*
X101001747Y-342933598D01*
X100987133Y-342913893D01*
X100974520Y-342892849D01*
X100964030Y-342870671D01*
X100955765Y-342847571D01*
X100949804Y-342823773D01*
X100946204Y-342799504D01*
X100945000Y-342775000D01*
X100945000Y-342025000D01*
X100946204Y-342000496D01*
X100949804Y-341976227D01*
X100955765Y-341952429D01*
X100964030Y-341929329D01*
X100974520Y-341907151D01*
X100987133Y-341886107D01*
X101001747Y-341866402D01*
X101018223Y-341848223D01*
X101036402Y-341831747D01*
X101056107Y-341817133D01*
X101077151Y-341804520D01*
X101099329Y-341794030D01*
X101122429Y-341785765D01*
X101146227Y-341779804D01*
X101170496Y-341776204D01*
X101195000Y-341775000D01*
X102445000Y-341775000D01*
X102469504Y-341776204D01*
X102469504Y-341776204D01*
G37*
D12*
X101820000Y-342400000D03*
D10*
G36*
X102469504Y-338976204D02*
G01*
X102493773Y-338979804D01*
X102517571Y-338985765D01*
X102540671Y-338994030D01*
X102562849Y-339004520D01*
X102583893Y-339017133D01*
X102603598Y-339031747D01*
X102621777Y-339048223D01*
X102638253Y-339066402D01*
X102652867Y-339086107D01*
X102665480Y-339107151D01*
X102675970Y-339129329D01*
X102684235Y-339152429D01*
X102690196Y-339176227D01*
X102693796Y-339200496D01*
X102695000Y-339225000D01*
X102695000Y-339975000D01*
X102693796Y-339999504D01*
X102690196Y-340023773D01*
X102684235Y-340047571D01*
X102675970Y-340070671D01*
X102665480Y-340092849D01*
X102652867Y-340113893D01*
X102638253Y-340133598D01*
X102621777Y-340151777D01*
X102603598Y-340168253D01*
X102583893Y-340182867D01*
X102562849Y-340195480D01*
X102540671Y-340205970D01*
X102517571Y-340214235D01*
X102493773Y-340220196D01*
X102469504Y-340223796D01*
X102445000Y-340225000D01*
X101195000Y-340225000D01*
X101170496Y-340223796D01*
X101146227Y-340220196D01*
X101122429Y-340214235D01*
X101099329Y-340205970D01*
X101077151Y-340195480D01*
X101056107Y-340182867D01*
X101036402Y-340168253D01*
X101018223Y-340151777D01*
X101001747Y-340133598D01*
X100987133Y-340113893D01*
X100974520Y-340092849D01*
X100964030Y-340070671D01*
X100955765Y-340047571D01*
X100949804Y-340023773D01*
X100946204Y-339999504D01*
X100945000Y-339975000D01*
X100945000Y-339225000D01*
X100946204Y-339200496D01*
X100949804Y-339176227D01*
X100955765Y-339152429D01*
X100964030Y-339129329D01*
X100974520Y-339107151D01*
X100987133Y-339086107D01*
X101001747Y-339066402D01*
X101018223Y-339048223D01*
X101036402Y-339031747D01*
X101056107Y-339017133D01*
X101077151Y-339004520D01*
X101099329Y-338994030D01*
X101122429Y-338985765D01*
X101146227Y-338979804D01*
X101170496Y-338976204D01*
X101195000Y-338975000D01*
X102445000Y-338975000D01*
X102469504Y-338976204D01*
X102469504Y-338976204D01*
G37*
D12*
X101820000Y-339600000D03*
D10*
G36*
X102469504Y-336776204D02*
G01*
X102493773Y-336779804D01*
X102517571Y-336785765D01*
X102540671Y-336794030D01*
X102562849Y-336804520D01*
X102583893Y-336817133D01*
X102603598Y-336831747D01*
X102621777Y-336848223D01*
X102638253Y-336866402D01*
X102652867Y-336886107D01*
X102665480Y-336907151D01*
X102675970Y-336929329D01*
X102684235Y-336952429D01*
X102690196Y-336976227D01*
X102693796Y-337000496D01*
X102695000Y-337025000D01*
X102695000Y-337775000D01*
X102693796Y-337799504D01*
X102690196Y-337823773D01*
X102684235Y-337847571D01*
X102675970Y-337870671D01*
X102665480Y-337892849D01*
X102652867Y-337913893D01*
X102638253Y-337933598D01*
X102621777Y-337951777D01*
X102603598Y-337968253D01*
X102583893Y-337982867D01*
X102562849Y-337995480D01*
X102540671Y-338005970D01*
X102517571Y-338014235D01*
X102493773Y-338020196D01*
X102469504Y-338023796D01*
X102445000Y-338025000D01*
X101195000Y-338025000D01*
X101170496Y-338023796D01*
X101146227Y-338020196D01*
X101122429Y-338014235D01*
X101099329Y-338005970D01*
X101077151Y-337995480D01*
X101056107Y-337982867D01*
X101036402Y-337968253D01*
X101018223Y-337951777D01*
X101001747Y-337933598D01*
X100987133Y-337913893D01*
X100974520Y-337892849D01*
X100964030Y-337870671D01*
X100955765Y-337847571D01*
X100949804Y-337823773D01*
X100946204Y-337799504D01*
X100945000Y-337775000D01*
X100945000Y-337025000D01*
X100946204Y-337000496D01*
X100949804Y-336976227D01*
X100955765Y-336952429D01*
X100964030Y-336929329D01*
X100974520Y-336907151D01*
X100987133Y-336886107D01*
X101001747Y-336866402D01*
X101018223Y-336848223D01*
X101036402Y-336831747D01*
X101056107Y-336817133D01*
X101077151Y-336804520D01*
X101099329Y-336794030D01*
X101122429Y-336785765D01*
X101146227Y-336779804D01*
X101170496Y-336776204D01*
X101195000Y-336775000D01*
X102445000Y-336775000D01*
X102469504Y-336776204D01*
X102469504Y-336776204D01*
G37*
D12*
X101820000Y-337400000D03*
D10*
G36*
X102469504Y-333976204D02*
G01*
X102493773Y-333979804D01*
X102517571Y-333985765D01*
X102540671Y-333994030D01*
X102562849Y-334004520D01*
X102583893Y-334017133D01*
X102603598Y-334031747D01*
X102621777Y-334048223D01*
X102638253Y-334066402D01*
X102652867Y-334086107D01*
X102665480Y-334107151D01*
X102675970Y-334129329D01*
X102684235Y-334152429D01*
X102690196Y-334176227D01*
X102693796Y-334200496D01*
X102695000Y-334225000D01*
X102695000Y-334975000D01*
X102693796Y-334999504D01*
X102690196Y-335023773D01*
X102684235Y-335047571D01*
X102675970Y-335070671D01*
X102665480Y-335092849D01*
X102652867Y-335113893D01*
X102638253Y-335133598D01*
X102621777Y-335151777D01*
X102603598Y-335168253D01*
X102583893Y-335182867D01*
X102562849Y-335195480D01*
X102540671Y-335205970D01*
X102517571Y-335214235D01*
X102493773Y-335220196D01*
X102469504Y-335223796D01*
X102445000Y-335225000D01*
X101195000Y-335225000D01*
X101170496Y-335223796D01*
X101146227Y-335220196D01*
X101122429Y-335214235D01*
X101099329Y-335205970D01*
X101077151Y-335195480D01*
X101056107Y-335182867D01*
X101036402Y-335168253D01*
X101018223Y-335151777D01*
X101001747Y-335133598D01*
X100987133Y-335113893D01*
X100974520Y-335092849D01*
X100964030Y-335070671D01*
X100955765Y-335047571D01*
X100949804Y-335023773D01*
X100946204Y-334999504D01*
X100945000Y-334975000D01*
X100945000Y-334225000D01*
X100946204Y-334200496D01*
X100949804Y-334176227D01*
X100955765Y-334152429D01*
X100964030Y-334129329D01*
X100974520Y-334107151D01*
X100987133Y-334086107D01*
X101001747Y-334066402D01*
X101018223Y-334048223D01*
X101036402Y-334031747D01*
X101056107Y-334017133D01*
X101077151Y-334004520D01*
X101099329Y-333994030D01*
X101122429Y-333985765D01*
X101146227Y-333979804D01*
X101170496Y-333976204D01*
X101195000Y-333975000D01*
X102445000Y-333975000D01*
X102469504Y-333976204D01*
X102469504Y-333976204D01*
G37*
D12*
X101820000Y-334600000D03*
D10*
G36*
X102469504Y-306476204D02*
G01*
X102493773Y-306479804D01*
X102517571Y-306485765D01*
X102540671Y-306494030D01*
X102562849Y-306504520D01*
X102583893Y-306517133D01*
X102603598Y-306531747D01*
X102621777Y-306548223D01*
X102638253Y-306566402D01*
X102652867Y-306586107D01*
X102665480Y-306607151D01*
X102675970Y-306629329D01*
X102684235Y-306652429D01*
X102690196Y-306676227D01*
X102693796Y-306700496D01*
X102695000Y-306725000D01*
X102695000Y-307475000D01*
X102693796Y-307499504D01*
X102690196Y-307523773D01*
X102684235Y-307547571D01*
X102675970Y-307570671D01*
X102665480Y-307592849D01*
X102652867Y-307613893D01*
X102638253Y-307633598D01*
X102621777Y-307651777D01*
X102603598Y-307668253D01*
X102583893Y-307682867D01*
X102562849Y-307695480D01*
X102540671Y-307705970D01*
X102517571Y-307714235D01*
X102493773Y-307720196D01*
X102469504Y-307723796D01*
X102445000Y-307725000D01*
X101195000Y-307725000D01*
X101170496Y-307723796D01*
X101146227Y-307720196D01*
X101122429Y-307714235D01*
X101099329Y-307705970D01*
X101077151Y-307695480D01*
X101056107Y-307682867D01*
X101036402Y-307668253D01*
X101018223Y-307651777D01*
X101001747Y-307633598D01*
X100987133Y-307613893D01*
X100974520Y-307592849D01*
X100964030Y-307570671D01*
X100955765Y-307547571D01*
X100949804Y-307523773D01*
X100946204Y-307499504D01*
X100945000Y-307475000D01*
X100945000Y-306725000D01*
X100946204Y-306700496D01*
X100949804Y-306676227D01*
X100955765Y-306652429D01*
X100964030Y-306629329D01*
X100974520Y-306607151D01*
X100987133Y-306586107D01*
X101001747Y-306566402D01*
X101018223Y-306548223D01*
X101036402Y-306531747D01*
X101056107Y-306517133D01*
X101077151Y-306504520D01*
X101099329Y-306494030D01*
X101122429Y-306485765D01*
X101146227Y-306479804D01*
X101170496Y-306476204D01*
X101195000Y-306475000D01*
X102445000Y-306475000D01*
X102469504Y-306476204D01*
X102469504Y-306476204D01*
G37*
D12*
X101820000Y-307100000D03*
D10*
G36*
X102469504Y-309276204D02*
G01*
X102493773Y-309279804D01*
X102517571Y-309285765D01*
X102540671Y-309294030D01*
X102562849Y-309304520D01*
X102583893Y-309317133D01*
X102603598Y-309331747D01*
X102621777Y-309348223D01*
X102638253Y-309366402D01*
X102652867Y-309386107D01*
X102665480Y-309407151D01*
X102675970Y-309429329D01*
X102684235Y-309452429D01*
X102690196Y-309476227D01*
X102693796Y-309500496D01*
X102695000Y-309525000D01*
X102695000Y-310275000D01*
X102693796Y-310299504D01*
X102690196Y-310323773D01*
X102684235Y-310347571D01*
X102675970Y-310370671D01*
X102665480Y-310392849D01*
X102652867Y-310413893D01*
X102638253Y-310433598D01*
X102621777Y-310451777D01*
X102603598Y-310468253D01*
X102583893Y-310482867D01*
X102562849Y-310495480D01*
X102540671Y-310505970D01*
X102517571Y-310514235D01*
X102493773Y-310520196D01*
X102469504Y-310523796D01*
X102445000Y-310525000D01*
X101195000Y-310525000D01*
X101170496Y-310523796D01*
X101146227Y-310520196D01*
X101122429Y-310514235D01*
X101099329Y-310505970D01*
X101077151Y-310495480D01*
X101056107Y-310482867D01*
X101036402Y-310468253D01*
X101018223Y-310451777D01*
X101001747Y-310433598D01*
X100987133Y-310413893D01*
X100974520Y-310392849D01*
X100964030Y-310370671D01*
X100955765Y-310347571D01*
X100949804Y-310323773D01*
X100946204Y-310299504D01*
X100945000Y-310275000D01*
X100945000Y-309525000D01*
X100946204Y-309500496D01*
X100949804Y-309476227D01*
X100955765Y-309452429D01*
X100964030Y-309429329D01*
X100974520Y-309407151D01*
X100987133Y-309386107D01*
X101001747Y-309366402D01*
X101018223Y-309348223D01*
X101036402Y-309331747D01*
X101056107Y-309317133D01*
X101077151Y-309304520D01*
X101099329Y-309294030D01*
X101122429Y-309285765D01*
X101146227Y-309279804D01*
X101170496Y-309276204D01*
X101195000Y-309275000D01*
X102445000Y-309275000D01*
X102469504Y-309276204D01*
X102469504Y-309276204D01*
G37*
D12*
X101820000Y-309900000D03*
D10*
G36*
X102469504Y-301476204D02*
G01*
X102493773Y-301479804D01*
X102517571Y-301485765D01*
X102540671Y-301494030D01*
X102562849Y-301504520D01*
X102583893Y-301517133D01*
X102603598Y-301531747D01*
X102621777Y-301548223D01*
X102638253Y-301566402D01*
X102652867Y-301586107D01*
X102665480Y-301607151D01*
X102675970Y-301629329D01*
X102684235Y-301652429D01*
X102690196Y-301676227D01*
X102693796Y-301700496D01*
X102695000Y-301725000D01*
X102695000Y-302475000D01*
X102693796Y-302499504D01*
X102690196Y-302523773D01*
X102684235Y-302547571D01*
X102675970Y-302570671D01*
X102665480Y-302592849D01*
X102652867Y-302613893D01*
X102638253Y-302633598D01*
X102621777Y-302651777D01*
X102603598Y-302668253D01*
X102583893Y-302682867D01*
X102562849Y-302695480D01*
X102540671Y-302705970D01*
X102517571Y-302714235D01*
X102493773Y-302720196D01*
X102469504Y-302723796D01*
X102445000Y-302725000D01*
X101195000Y-302725000D01*
X101170496Y-302723796D01*
X101146227Y-302720196D01*
X101122429Y-302714235D01*
X101099329Y-302705970D01*
X101077151Y-302695480D01*
X101056107Y-302682867D01*
X101036402Y-302668253D01*
X101018223Y-302651777D01*
X101001747Y-302633598D01*
X100987133Y-302613893D01*
X100974520Y-302592849D01*
X100964030Y-302570671D01*
X100955765Y-302547571D01*
X100949804Y-302523773D01*
X100946204Y-302499504D01*
X100945000Y-302475000D01*
X100945000Y-301725000D01*
X100946204Y-301700496D01*
X100949804Y-301676227D01*
X100955765Y-301652429D01*
X100964030Y-301629329D01*
X100974520Y-301607151D01*
X100987133Y-301586107D01*
X101001747Y-301566402D01*
X101018223Y-301548223D01*
X101036402Y-301531747D01*
X101056107Y-301517133D01*
X101077151Y-301504520D01*
X101099329Y-301494030D01*
X101122429Y-301485765D01*
X101146227Y-301479804D01*
X101170496Y-301476204D01*
X101195000Y-301475000D01*
X102445000Y-301475000D01*
X102469504Y-301476204D01*
X102469504Y-301476204D01*
G37*
D12*
X101820000Y-302100000D03*
D10*
G36*
X102469504Y-304276204D02*
G01*
X102493773Y-304279804D01*
X102517571Y-304285765D01*
X102540671Y-304294030D01*
X102562849Y-304304520D01*
X102583893Y-304317133D01*
X102603598Y-304331747D01*
X102621777Y-304348223D01*
X102638253Y-304366402D01*
X102652867Y-304386107D01*
X102665480Y-304407151D01*
X102675970Y-304429329D01*
X102684235Y-304452429D01*
X102690196Y-304476227D01*
X102693796Y-304500496D01*
X102695000Y-304525000D01*
X102695000Y-305275000D01*
X102693796Y-305299504D01*
X102690196Y-305323773D01*
X102684235Y-305347571D01*
X102675970Y-305370671D01*
X102665480Y-305392849D01*
X102652867Y-305413893D01*
X102638253Y-305433598D01*
X102621777Y-305451777D01*
X102603598Y-305468253D01*
X102583893Y-305482867D01*
X102562849Y-305495480D01*
X102540671Y-305505970D01*
X102517571Y-305514235D01*
X102493773Y-305520196D01*
X102469504Y-305523796D01*
X102445000Y-305525000D01*
X101195000Y-305525000D01*
X101170496Y-305523796D01*
X101146227Y-305520196D01*
X101122429Y-305514235D01*
X101099329Y-305505970D01*
X101077151Y-305495480D01*
X101056107Y-305482867D01*
X101036402Y-305468253D01*
X101018223Y-305451777D01*
X101001747Y-305433598D01*
X100987133Y-305413893D01*
X100974520Y-305392849D01*
X100964030Y-305370671D01*
X100955765Y-305347571D01*
X100949804Y-305323773D01*
X100946204Y-305299504D01*
X100945000Y-305275000D01*
X100945000Y-304525000D01*
X100946204Y-304500496D01*
X100949804Y-304476227D01*
X100955765Y-304452429D01*
X100964030Y-304429329D01*
X100974520Y-304407151D01*
X100987133Y-304386107D01*
X101001747Y-304366402D01*
X101018223Y-304348223D01*
X101036402Y-304331747D01*
X101056107Y-304317133D01*
X101077151Y-304304520D01*
X101099329Y-304294030D01*
X101122429Y-304285765D01*
X101146227Y-304279804D01*
X101170496Y-304276204D01*
X101195000Y-304275000D01*
X102445000Y-304275000D01*
X102469504Y-304276204D01*
X102469504Y-304276204D01*
G37*
D12*
X101820000Y-304900000D03*
D10*
G36*
X102469504Y-244276204D02*
G01*
X102493773Y-244279804D01*
X102517571Y-244285765D01*
X102540671Y-244294030D01*
X102562849Y-244304520D01*
X102583893Y-244317133D01*
X102603598Y-244331747D01*
X102621777Y-244348223D01*
X102638253Y-244366402D01*
X102652867Y-244386107D01*
X102665480Y-244407151D01*
X102675970Y-244429329D01*
X102684235Y-244452429D01*
X102690196Y-244476227D01*
X102693796Y-244500496D01*
X102695000Y-244525000D01*
X102695000Y-245275000D01*
X102693796Y-245299504D01*
X102690196Y-245323773D01*
X102684235Y-245347571D01*
X102675970Y-245370671D01*
X102665480Y-245392849D01*
X102652867Y-245413893D01*
X102638253Y-245433598D01*
X102621777Y-245451777D01*
X102603598Y-245468253D01*
X102583893Y-245482867D01*
X102562849Y-245495480D01*
X102540671Y-245505970D01*
X102517571Y-245514235D01*
X102493773Y-245520196D01*
X102469504Y-245523796D01*
X102445000Y-245525000D01*
X101195000Y-245525000D01*
X101170496Y-245523796D01*
X101146227Y-245520196D01*
X101122429Y-245514235D01*
X101099329Y-245505970D01*
X101077151Y-245495480D01*
X101056107Y-245482867D01*
X101036402Y-245468253D01*
X101018223Y-245451777D01*
X101001747Y-245433598D01*
X100987133Y-245413893D01*
X100974520Y-245392849D01*
X100964030Y-245370671D01*
X100955765Y-245347571D01*
X100949804Y-245323773D01*
X100946204Y-245299504D01*
X100945000Y-245275000D01*
X100945000Y-244525000D01*
X100946204Y-244500496D01*
X100949804Y-244476227D01*
X100955765Y-244452429D01*
X100964030Y-244429329D01*
X100974520Y-244407151D01*
X100987133Y-244386107D01*
X101001747Y-244366402D01*
X101018223Y-244348223D01*
X101036402Y-244331747D01*
X101056107Y-244317133D01*
X101077151Y-244304520D01*
X101099329Y-244294030D01*
X101122429Y-244285765D01*
X101146227Y-244279804D01*
X101170496Y-244276204D01*
X101195000Y-244275000D01*
X102445000Y-244275000D01*
X102469504Y-244276204D01*
X102469504Y-244276204D01*
G37*
D12*
X101820000Y-244900000D03*
D10*
G36*
X102469504Y-241476204D02*
G01*
X102493773Y-241479804D01*
X102517571Y-241485765D01*
X102540671Y-241494030D01*
X102562849Y-241504520D01*
X102583893Y-241517133D01*
X102603598Y-241531747D01*
X102621777Y-241548223D01*
X102638253Y-241566402D01*
X102652867Y-241586107D01*
X102665480Y-241607151D01*
X102675970Y-241629329D01*
X102684235Y-241652429D01*
X102690196Y-241676227D01*
X102693796Y-241700496D01*
X102695000Y-241725000D01*
X102695000Y-242475000D01*
X102693796Y-242499504D01*
X102690196Y-242523773D01*
X102684235Y-242547571D01*
X102675970Y-242570671D01*
X102665480Y-242592849D01*
X102652867Y-242613893D01*
X102638253Y-242633598D01*
X102621777Y-242651777D01*
X102603598Y-242668253D01*
X102583893Y-242682867D01*
X102562849Y-242695480D01*
X102540671Y-242705970D01*
X102517571Y-242714235D01*
X102493773Y-242720196D01*
X102469504Y-242723796D01*
X102445000Y-242725000D01*
X101195000Y-242725000D01*
X101170496Y-242723796D01*
X101146227Y-242720196D01*
X101122429Y-242714235D01*
X101099329Y-242705970D01*
X101077151Y-242695480D01*
X101056107Y-242682867D01*
X101036402Y-242668253D01*
X101018223Y-242651777D01*
X101001747Y-242633598D01*
X100987133Y-242613893D01*
X100974520Y-242592849D01*
X100964030Y-242570671D01*
X100955765Y-242547571D01*
X100949804Y-242523773D01*
X100946204Y-242499504D01*
X100945000Y-242475000D01*
X100945000Y-241725000D01*
X100946204Y-241700496D01*
X100949804Y-241676227D01*
X100955765Y-241652429D01*
X100964030Y-241629329D01*
X100974520Y-241607151D01*
X100987133Y-241586107D01*
X101001747Y-241566402D01*
X101018223Y-241548223D01*
X101036402Y-241531747D01*
X101056107Y-241517133D01*
X101077151Y-241504520D01*
X101099329Y-241494030D01*
X101122429Y-241485765D01*
X101146227Y-241479804D01*
X101170496Y-241476204D01*
X101195000Y-241475000D01*
X102445000Y-241475000D01*
X102469504Y-241476204D01*
X102469504Y-241476204D01*
G37*
D12*
X101820000Y-242100000D03*
D10*
G36*
X102469504Y-236476204D02*
G01*
X102493773Y-236479804D01*
X102517571Y-236485765D01*
X102540671Y-236494030D01*
X102562849Y-236504520D01*
X102583893Y-236517133D01*
X102603598Y-236531747D01*
X102621777Y-236548223D01*
X102638253Y-236566402D01*
X102652867Y-236586107D01*
X102665480Y-236607151D01*
X102675970Y-236629329D01*
X102684235Y-236652429D01*
X102690196Y-236676227D01*
X102693796Y-236700496D01*
X102695000Y-236725000D01*
X102695000Y-237475000D01*
X102693796Y-237499504D01*
X102690196Y-237523773D01*
X102684235Y-237547571D01*
X102675970Y-237570671D01*
X102665480Y-237592849D01*
X102652867Y-237613893D01*
X102638253Y-237633598D01*
X102621777Y-237651777D01*
X102603598Y-237668253D01*
X102583893Y-237682867D01*
X102562849Y-237695480D01*
X102540671Y-237705970D01*
X102517571Y-237714235D01*
X102493773Y-237720196D01*
X102469504Y-237723796D01*
X102445000Y-237725000D01*
X101195000Y-237725000D01*
X101170496Y-237723796D01*
X101146227Y-237720196D01*
X101122429Y-237714235D01*
X101099329Y-237705970D01*
X101077151Y-237695480D01*
X101056107Y-237682867D01*
X101036402Y-237668253D01*
X101018223Y-237651777D01*
X101001747Y-237633598D01*
X100987133Y-237613893D01*
X100974520Y-237592849D01*
X100964030Y-237570671D01*
X100955765Y-237547571D01*
X100949804Y-237523773D01*
X100946204Y-237499504D01*
X100945000Y-237475000D01*
X100945000Y-236725000D01*
X100946204Y-236700496D01*
X100949804Y-236676227D01*
X100955765Y-236652429D01*
X100964030Y-236629329D01*
X100974520Y-236607151D01*
X100987133Y-236586107D01*
X101001747Y-236566402D01*
X101018223Y-236548223D01*
X101036402Y-236531747D01*
X101056107Y-236517133D01*
X101077151Y-236504520D01*
X101099329Y-236494030D01*
X101122429Y-236485765D01*
X101146227Y-236479804D01*
X101170496Y-236476204D01*
X101195000Y-236475000D01*
X102445000Y-236475000D01*
X102469504Y-236476204D01*
X102469504Y-236476204D01*
G37*
D12*
X101820000Y-237100000D03*
D10*
G36*
X102469504Y-239276204D02*
G01*
X102493773Y-239279804D01*
X102517571Y-239285765D01*
X102540671Y-239294030D01*
X102562849Y-239304520D01*
X102583893Y-239317133D01*
X102603598Y-239331747D01*
X102621777Y-239348223D01*
X102638253Y-239366402D01*
X102652867Y-239386107D01*
X102665480Y-239407151D01*
X102675970Y-239429329D01*
X102684235Y-239452429D01*
X102690196Y-239476227D01*
X102693796Y-239500496D01*
X102695000Y-239525000D01*
X102695000Y-240275000D01*
X102693796Y-240299504D01*
X102690196Y-240323773D01*
X102684235Y-240347571D01*
X102675970Y-240370671D01*
X102665480Y-240392849D01*
X102652867Y-240413893D01*
X102638253Y-240433598D01*
X102621777Y-240451777D01*
X102603598Y-240468253D01*
X102583893Y-240482867D01*
X102562849Y-240495480D01*
X102540671Y-240505970D01*
X102517571Y-240514235D01*
X102493773Y-240520196D01*
X102469504Y-240523796D01*
X102445000Y-240525000D01*
X101195000Y-240525000D01*
X101170496Y-240523796D01*
X101146227Y-240520196D01*
X101122429Y-240514235D01*
X101099329Y-240505970D01*
X101077151Y-240495480D01*
X101056107Y-240482867D01*
X101036402Y-240468253D01*
X101018223Y-240451777D01*
X101001747Y-240433598D01*
X100987133Y-240413893D01*
X100974520Y-240392849D01*
X100964030Y-240370671D01*
X100955765Y-240347571D01*
X100949804Y-240323773D01*
X100946204Y-240299504D01*
X100945000Y-240275000D01*
X100945000Y-239525000D01*
X100946204Y-239500496D01*
X100949804Y-239476227D01*
X100955765Y-239452429D01*
X100964030Y-239429329D01*
X100974520Y-239407151D01*
X100987133Y-239386107D01*
X101001747Y-239366402D01*
X101018223Y-239348223D01*
X101036402Y-239331747D01*
X101056107Y-239317133D01*
X101077151Y-239304520D01*
X101099329Y-239294030D01*
X101122429Y-239285765D01*
X101146227Y-239279804D01*
X101170496Y-239276204D01*
X101195000Y-239275000D01*
X102445000Y-239275000D01*
X102469504Y-239276204D01*
X102469504Y-239276204D01*
G37*
D12*
X101820000Y-239900000D03*
D10*
G36*
X129469504Y-294276204D02*
G01*
X129493773Y-294279804D01*
X129517571Y-294285765D01*
X129540671Y-294294030D01*
X129562849Y-294304520D01*
X129583893Y-294317133D01*
X129603598Y-294331747D01*
X129621777Y-294348223D01*
X129638253Y-294366402D01*
X129652867Y-294386107D01*
X129665480Y-294407151D01*
X129675970Y-294429329D01*
X129684235Y-294452429D01*
X129690196Y-294476227D01*
X129693796Y-294500496D01*
X129695000Y-294525000D01*
X129695000Y-295275000D01*
X129693796Y-295299504D01*
X129690196Y-295323773D01*
X129684235Y-295347571D01*
X129675970Y-295370671D01*
X129665480Y-295392849D01*
X129652867Y-295413893D01*
X129638253Y-295433598D01*
X129621777Y-295451777D01*
X129603598Y-295468253D01*
X129583893Y-295482867D01*
X129562849Y-295495480D01*
X129540671Y-295505970D01*
X129517571Y-295514235D01*
X129493773Y-295520196D01*
X129469504Y-295523796D01*
X129445000Y-295525000D01*
X128195000Y-295525000D01*
X128170496Y-295523796D01*
X128146227Y-295520196D01*
X128122429Y-295514235D01*
X128099329Y-295505970D01*
X128077151Y-295495480D01*
X128056107Y-295482867D01*
X128036402Y-295468253D01*
X128018223Y-295451777D01*
X128001747Y-295433598D01*
X127987133Y-295413893D01*
X127974520Y-295392849D01*
X127964030Y-295370671D01*
X127955765Y-295347571D01*
X127949804Y-295323773D01*
X127946204Y-295299504D01*
X127945000Y-295275000D01*
X127945000Y-294525000D01*
X127946204Y-294500496D01*
X127949804Y-294476227D01*
X127955765Y-294452429D01*
X127964030Y-294429329D01*
X127974520Y-294407151D01*
X127987133Y-294386107D01*
X128001747Y-294366402D01*
X128018223Y-294348223D01*
X128036402Y-294331747D01*
X128056107Y-294317133D01*
X128077151Y-294304520D01*
X128099329Y-294294030D01*
X128122429Y-294285765D01*
X128146227Y-294279804D01*
X128170496Y-294276204D01*
X128195000Y-294275000D01*
X129445000Y-294275000D01*
X129469504Y-294276204D01*
X129469504Y-294276204D01*
G37*
D12*
X128820000Y-294900000D03*
D10*
G36*
X129469504Y-291476204D02*
G01*
X129493773Y-291479804D01*
X129517571Y-291485765D01*
X129540671Y-291494030D01*
X129562849Y-291504520D01*
X129583893Y-291517133D01*
X129603598Y-291531747D01*
X129621777Y-291548223D01*
X129638253Y-291566402D01*
X129652867Y-291586107D01*
X129665480Y-291607151D01*
X129675970Y-291629329D01*
X129684235Y-291652429D01*
X129690196Y-291676227D01*
X129693796Y-291700496D01*
X129695000Y-291725000D01*
X129695000Y-292475000D01*
X129693796Y-292499504D01*
X129690196Y-292523773D01*
X129684235Y-292547571D01*
X129675970Y-292570671D01*
X129665480Y-292592849D01*
X129652867Y-292613893D01*
X129638253Y-292633598D01*
X129621777Y-292651777D01*
X129603598Y-292668253D01*
X129583893Y-292682867D01*
X129562849Y-292695480D01*
X129540671Y-292705970D01*
X129517571Y-292714235D01*
X129493773Y-292720196D01*
X129469504Y-292723796D01*
X129445000Y-292725000D01*
X128195000Y-292725000D01*
X128170496Y-292723796D01*
X128146227Y-292720196D01*
X128122429Y-292714235D01*
X128099329Y-292705970D01*
X128077151Y-292695480D01*
X128056107Y-292682867D01*
X128036402Y-292668253D01*
X128018223Y-292651777D01*
X128001747Y-292633598D01*
X127987133Y-292613893D01*
X127974520Y-292592849D01*
X127964030Y-292570671D01*
X127955765Y-292547571D01*
X127949804Y-292523773D01*
X127946204Y-292499504D01*
X127945000Y-292475000D01*
X127945000Y-291725000D01*
X127946204Y-291700496D01*
X127949804Y-291676227D01*
X127955765Y-291652429D01*
X127964030Y-291629329D01*
X127974520Y-291607151D01*
X127987133Y-291586107D01*
X128001747Y-291566402D01*
X128018223Y-291548223D01*
X128036402Y-291531747D01*
X128056107Y-291517133D01*
X128077151Y-291504520D01*
X128099329Y-291494030D01*
X128122429Y-291485765D01*
X128146227Y-291479804D01*
X128170496Y-291476204D01*
X128195000Y-291475000D01*
X129445000Y-291475000D01*
X129469504Y-291476204D01*
X129469504Y-291476204D01*
G37*
D12*
X128820000Y-292100000D03*
D10*
G36*
X129469504Y-289276204D02*
G01*
X129493773Y-289279804D01*
X129517571Y-289285765D01*
X129540671Y-289294030D01*
X129562849Y-289304520D01*
X129583893Y-289317133D01*
X129603598Y-289331747D01*
X129621777Y-289348223D01*
X129638253Y-289366402D01*
X129652867Y-289386107D01*
X129665480Y-289407151D01*
X129675970Y-289429329D01*
X129684235Y-289452429D01*
X129690196Y-289476227D01*
X129693796Y-289500496D01*
X129695000Y-289525000D01*
X129695000Y-290275000D01*
X129693796Y-290299504D01*
X129690196Y-290323773D01*
X129684235Y-290347571D01*
X129675970Y-290370671D01*
X129665480Y-290392849D01*
X129652867Y-290413893D01*
X129638253Y-290433598D01*
X129621777Y-290451777D01*
X129603598Y-290468253D01*
X129583893Y-290482867D01*
X129562849Y-290495480D01*
X129540671Y-290505970D01*
X129517571Y-290514235D01*
X129493773Y-290520196D01*
X129469504Y-290523796D01*
X129445000Y-290525000D01*
X128195000Y-290525000D01*
X128170496Y-290523796D01*
X128146227Y-290520196D01*
X128122429Y-290514235D01*
X128099329Y-290505970D01*
X128077151Y-290495480D01*
X128056107Y-290482867D01*
X128036402Y-290468253D01*
X128018223Y-290451777D01*
X128001747Y-290433598D01*
X127987133Y-290413893D01*
X127974520Y-290392849D01*
X127964030Y-290370671D01*
X127955765Y-290347571D01*
X127949804Y-290323773D01*
X127946204Y-290299504D01*
X127945000Y-290275000D01*
X127945000Y-289525000D01*
X127946204Y-289500496D01*
X127949804Y-289476227D01*
X127955765Y-289452429D01*
X127964030Y-289429329D01*
X127974520Y-289407151D01*
X127987133Y-289386107D01*
X128001747Y-289366402D01*
X128018223Y-289348223D01*
X128036402Y-289331747D01*
X128056107Y-289317133D01*
X128077151Y-289304520D01*
X128099329Y-289294030D01*
X128122429Y-289285765D01*
X128146227Y-289279804D01*
X128170496Y-289276204D01*
X128195000Y-289275000D01*
X129445000Y-289275000D01*
X129469504Y-289276204D01*
X129469504Y-289276204D01*
G37*
D12*
X128820000Y-289900000D03*
D10*
G36*
X129469504Y-286476204D02*
G01*
X129493773Y-286479804D01*
X129517571Y-286485765D01*
X129540671Y-286494030D01*
X129562849Y-286504520D01*
X129583893Y-286517133D01*
X129603598Y-286531747D01*
X129621777Y-286548223D01*
X129638253Y-286566402D01*
X129652867Y-286586107D01*
X129665480Y-286607151D01*
X129675970Y-286629329D01*
X129684235Y-286652429D01*
X129690196Y-286676227D01*
X129693796Y-286700496D01*
X129695000Y-286725000D01*
X129695000Y-287475000D01*
X129693796Y-287499504D01*
X129690196Y-287523773D01*
X129684235Y-287547571D01*
X129675970Y-287570671D01*
X129665480Y-287592849D01*
X129652867Y-287613893D01*
X129638253Y-287633598D01*
X129621777Y-287651777D01*
X129603598Y-287668253D01*
X129583893Y-287682867D01*
X129562849Y-287695480D01*
X129540671Y-287705970D01*
X129517571Y-287714235D01*
X129493773Y-287720196D01*
X129469504Y-287723796D01*
X129445000Y-287725000D01*
X128195000Y-287725000D01*
X128170496Y-287723796D01*
X128146227Y-287720196D01*
X128122429Y-287714235D01*
X128099329Y-287705970D01*
X128077151Y-287695480D01*
X128056107Y-287682867D01*
X128036402Y-287668253D01*
X128018223Y-287651777D01*
X128001747Y-287633598D01*
X127987133Y-287613893D01*
X127974520Y-287592849D01*
X127964030Y-287570671D01*
X127955765Y-287547571D01*
X127949804Y-287523773D01*
X127946204Y-287499504D01*
X127945000Y-287475000D01*
X127945000Y-286725000D01*
X127946204Y-286700496D01*
X127949804Y-286676227D01*
X127955765Y-286652429D01*
X127964030Y-286629329D01*
X127974520Y-286607151D01*
X127987133Y-286586107D01*
X128001747Y-286566402D01*
X128018223Y-286548223D01*
X128036402Y-286531747D01*
X128056107Y-286517133D01*
X128077151Y-286504520D01*
X128099329Y-286494030D01*
X128122429Y-286485765D01*
X128146227Y-286479804D01*
X128170496Y-286476204D01*
X128195000Y-286475000D01*
X129445000Y-286475000D01*
X129469504Y-286476204D01*
X129469504Y-286476204D01*
G37*
D12*
X128820000Y-287100000D03*
D10*
G36*
X129469504Y-258976204D02*
G01*
X129493773Y-258979804D01*
X129517571Y-258985765D01*
X129540671Y-258994030D01*
X129562849Y-259004520D01*
X129583893Y-259017133D01*
X129603598Y-259031747D01*
X129621777Y-259048223D01*
X129638253Y-259066402D01*
X129652867Y-259086107D01*
X129665480Y-259107151D01*
X129675970Y-259129329D01*
X129684235Y-259152429D01*
X129690196Y-259176227D01*
X129693796Y-259200496D01*
X129695000Y-259225000D01*
X129695000Y-259975000D01*
X129693796Y-259999504D01*
X129690196Y-260023773D01*
X129684235Y-260047571D01*
X129675970Y-260070671D01*
X129665480Y-260092849D01*
X129652867Y-260113893D01*
X129638253Y-260133598D01*
X129621777Y-260151777D01*
X129603598Y-260168253D01*
X129583893Y-260182867D01*
X129562849Y-260195480D01*
X129540671Y-260205970D01*
X129517571Y-260214235D01*
X129493773Y-260220196D01*
X129469504Y-260223796D01*
X129445000Y-260225000D01*
X128195000Y-260225000D01*
X128170496Y-260223796D01*
X128146227Y-260220196D01*
X128122429Y-260214235D01*
X128099329Y-260205970D01*
X128077151Y-260195480D01*
X128056107Y-260182867D01*
X128036402Y-260168253D01*
X128018223Y-260151777D01*
X128001747Y-260133598D01*
X127987133Y-260113893D01*
X127974520Y-260092849D01*
X127964030Y-260070671D01*
X127955765Y-260047571D01*
X127949804Y-260023773D01*
X127946204Y-259999504D01*
X127945000Y-259975000D01*
X127945000Y-259225000D01*
X127946204Y-259200496D01*
X127949804Y-259176227D01*
X127955765Y-259152429D01*
X127964030Y-259129329D01*
X127974520Y-259107151D01*
X127987133Y-259086107D01*
X128001747Y-259066402D01*
X128018223Y-259048223D01*
X128036402Y-259031747D01*
X128056107Y-259017133D01*
X128077151Y-259004520D01*
X128099329Y-258994030D01*
X128122429Y-258985765D01*
X128146227Y-258979804D01*
X128170496Y-258976204D01*
X128195000Y-258975000D01*
X129445000Y-258975000D01*
X129469504Y-258976204D01*
X129469504Y-258976204D01*
G37*
D12*
X128820000Y-259600000D03*
D10*
G36*
X129469504Y-261776204D02*
G01*
X129493773Y-261779804D01*
X129517571Y-261785765D01*
X129540671Y-261794030D01*
X129562849Y-261804520D01*
X129583893Y-261817133D01*
X129603598Y-261831747D01*
X129621777Y-261848223D01*
X129638253Y-261866402D01*
X129652867Y-261886107D01*
X129665480Y-261907151D01*
X129675970Y-261929329D01*
X129684235Y-261952429D01*
X129690196Y-261976227D01*
X129693796Y-262000496D01*
X129695000Y-262025000D01*
X129695000Y-262775000D01*
X129693796Y-262799504D01*
X129690196Y-262823773D01*
X129684235Y-262847571D01*
X129675970Y-262870671D01*
X129665480Y-262892849D01*
X129652867Y-262913893D01*
X129638253Y-262933598D01*
X129621777Y-262951777D01*
X129603598Y-262968253D01*
X129583893Y-262982867D01*
X129562849Y-262995480D01*
X129540671Y-263005970D01*
X129517571Y-263014235D01*
X129493773Y-263020196D01*
X129469504Y-263023796D01*
X129445000Y-263025000D01*
X128195000Y-263025000D01*
X128170496Y-263023796D01*
X128146227Y-263020196D01*
X128122429Y-263014235D01*
X128099329Y-263005970D01*
X128077151Y-262995480D01*
X128056107Y-262982867D01*
X128036402Y-262968253D01*
X128018223Y-262951777D01*
X128001747Y-262933598D01*
X127987133Y-262913893D01*
X127974520Y-262892849D01*
X127964030Y-262870671D01*
X127955765Y-262847571D01*
X127949804Y-262823773D01*
X127946204Y-262799504D01*
X127945000Y-262775000D01*
X127945000Y-262025000D01*
X127946204Y-262000496D01*
X127949804Y-261976227D01*
X127955765Y-261952429D01*
X127964030Y-261929329D01*
X127974520Y-261907151D01*
X127987133Y-261886107D01*
X128001747Y-261866402D01*
X128018223Y-261848223D01*
X128036402Y-261831747D01*
X128056107Y-261817133D01*
X128077151Y-261804520D01*
X128099329Y-261794030D01*
X128122429Y-261785765D01*
X128146227Y-261779804D01*
X128170496Y-261776204D01*
X128195000Y-261775000D01*
X129445000Y-261775000D01*
X129469504Y-261776204D01*
X129469504Y-261776204D01*
G37*
D12*
X128820000Y-262400000D03*
D10*
G36*
X129469504Y-253976204D02*
G01*
X129493773Y-253979804D01*
X129517571Y-253985765D01*
X129540671Y-253994030D01*
X129562849Y-254004520D01*
X129583893Y-254017133D01*
X129603598Y-254031747D01*
X129621777Y-254048223D01*
X129638253Y-254066402D01*
X129652867Y-254086107D01*
X129665480Y-254107151D01*
X129675970Y-254129329D01*
X129684235Y-254152429D01*
X129690196Y-254176227D01*
X129693796Y-254200496D01*
X129695000Y-254225000D01*
X129695000Y-254975000D01*
X129693796Y-254999504D01*
X129690196Y-255023773D01*
X129684235Y-255047571D01*
X129675970Y-255070671D01*
X129665480Y-255092849D01*
X129652867Y-255113893D01*
X129638253Y-255133598D01*
X129621777Y-255151777D01*
X129603598Y-255168253D01*
X129583893Y-255182867D01*
X129562849Y-255195480D01*
X129540671Y-255205970D01*
X129517571Y-255214235D01*
X129493773Y-255220196D01*
X129469504Y-255223796D01*
X129445000Y-255225000D01*
X128195000Y-255225000D01*
X128170496Y-255223796D01*
X128146227Y-255220196D01*
X128122429Y-255214235D01*
X128099329Y-255205970D01*
X128077151Y-255195480D01*
X128056107Y-255182867D01*
X128036402Y-255168253D01*
X128018223Y-255151777D01*
X128001747Y-255133598D01*
X127987133Y-255113893D01*
X127974520Y-255092849D01*
X127964030Y-255070671D01*
X127955765Y-255047571D01*
X127949804Y-255023773D01*
X127946204Y-254999504D01*
X127945000Y-254975000D01*
X127945000Y-254225000D01*
X127946204Y-254200496D01*
X127949804Y-254176227D01*
X127955765Y-254152429D01*
X127964030Y-254129329D01*
X127974520Y-254107151D01*
X127987133Y-254086107D01*
X128001747Y-254066402D01*
X128018223Y-254048223D01*
X128036402Y-254031747D01*
X128056107Y-254017133D01*
X128077151Y-254004520D01*
X128099329Y-253994030D01*
X128122429Y-253985765D01*
X128146227Y-253979804D01*
X128170496Y-253976204D01*
X128195000Y-253975000D01*
X129445000Y-253975000D01*
X129469504Y-253976204D01*
X129469504Y-253976204D01*
G37*
D12*
X128820000Y-254600000D03*
D10*
G36*
X129469504Y-256776204D02*
G01*
X129493773Y-256779804D01*
X129517571Y-256785765D01*
X129540671Y-256794030D01*
X129562849Y-256804520D01*
X129583893Y-256817133D01*
X129603598Y-256831747D01*
X129621777Y-256848223D01*
X129638253Y-256866402D01*
X129652867Y-256886107D01*
X129665480Y-256907151D01*
X129675970Y-256929329D01*
X129684235Y-256952429D01*
X129690196Y-256976227D01*
X129693796Y-257000496D01*
X129695000Y-257025000D01*
X129695000Y-257775000D01*
X129693796Y-257799504D01*
X129690196Y-257823773D01*
X129684235Y-257847571D01*
X129675970Y-257870671D01*
X129665480Y-257892849D01*
X129652867Y-257913893D01*
X129638253Y-257933598D01*
X129621777Y-257951777D01*
X129603598Y-257968253D01*
X129583893Y-257982867D01*
X129562849Y-257995480D01*
X129540671Y-258005970D01*
X129517571Y-258014235D01*
X129493773Y-258020196D01*
X129469504Y-258023796D01*
X129445000Y-258025000D01*
X128195000Y-258025000D01*
X128170496Y-258023796D01*
X128146227Y-258020196D01*
X128122429Y-258014235D01*
X128099329Y-258005970D01*
X128077151Y-257995480D01*
X128056107Y-257982867D01*
X128036402Y-257968253D01*
X128018223Y-257951777D01*
X128001747Y-257933598D01*
X127987133Y-257913893D01*
X127974520Y-257892849D01*
X127964030Y-257870671D01*
X127955765Y-257847571D01*
X127949804Y-257823773D01*
X127946204Y-257799504D01*
X127945000Y-257775000D01*
X127945000Y-257025000D01*
X127946204Y-257000496D01*
X127949804Y-256976227D01*
X127955765Y-256952429D01*
X127964030Y-256929329D01*
X127974520Y-256907151D01*
X127987133Y-256886107D01*
X128001747Y-256866402D01*
X128018223Y-256848223D01*
X128036402Y-256831747D01*
X128056107Y-256817133D01*
X128077151Y-256804520D01*
X128099329Y-256794030D01*
X128122429Y-256785765D01*
X128146227Y-256779804D01*
X128170496Y-256776204D01*
X128195000Y-256775000D01*
X129445000Y-256775000D01*
X129469504Y-256776204D01*
X129469504Y-256776204D01*
G37*
D12*
X128820000Y-257400000D03*
D10*
G36*
X129469504Y-356476204D02*
G01*
X129493773Y-356479804D01*
X129517571Y-356485765D01*
X129540671Y-356494030D01*
X129562849Y-356504520D01*
X129583893Y-356517133D01*
X129603598Y-356531747D01*
X129621777Y-356548223D01*
X129638253Y-356566402D01*
X129652867Y-356586107D01*
X129665480Y-356607151D01*
X129675970Y-356629329D01*
X129684235Y-356652429D01*
X129690196Y-356676227D01*
X129693796Y-356700496D01*
X129695000Y-356725000D01*
X129695000Y-357475000D01*
X129693796Y-357499504D01*
X129690196Y-357523773D01*
X129684235Y-357547571D01*
X129675970Y-357570671D01*
X129665480Y-357592849D01*
X129652867Y-357613893D01*
X129638253Y-357633598D01*
X129621777Y-357651777D01*
X129603598Y-357668253D01*
X129583893Y-357682867D01*
X129562849Y-357695480D01*
X129540671Y-357705970D01*
X129517571Y-357714235D01*
X129493773Y-357720196D01*
X129469504Y-357723796D01*
X129445000Y-357725000D01*
X128195000Y-357725000D01*
X128170496Y-357723796D01*
X128146227Y-357720196D01*
X128122429Y-357714235D01*
X128099329Y-357705970D01*
X128077151Y-357695480D01*
X128056107Y-357682867D01*
X128036402Y-357668253D01*
X128018223Y-357651777D01*
X128001747Y-357633598D01*
X127987133Y-357613893D01*
X127974520Y-357592849D01*
X127964030Y-357570671D01*
X127955765Y-357547571D01*
X127949804Y-357523773D01*
X127946204Y-357499504D01*
X127945000Y-357475000D01*
X127945000Y-356725000D01*
X127946204Y-356700496D01*
X127949804Y-356676227D01*
X127955765Y-356652429D01*
X127964030Y-356629329D01*
X127974520Y-356607151D01*
X127987133Y-356586107D01*
X128001747Y-356566402D01*
X128018223Y-356548223D01*
X128036402Y-356531747D01*
X128056107Y-356517133D01*
X128077151Y-356504520D01*
X128099329Y-356494030D01*
X128122429Y-356485765D01*
X128146227Y-356479804D01*
X128170496Y-356476204D01*
X128195000Y-356475000D01*
X129445000Y-356475000D01*
X129469504Y-356476204D01*
X129469504Y-356476204D01*
G37*
D12*
X128820000Y-357100000D03*
D10*
G36*
X129469504Y-359276204D02*
G01*
X129493773Y-359279804D01*
X129517571Y-359285765D01*
X129540671Y-359294030D01*
X129562849Y-359304520D01*
X129583893Y-359317133D01*
X129603598Y-359331747D01*
X129621777Y-359348223D01*
X129638253Y-359366402D01*
X129652867Y-359386107D01*
X129665480Y-359407151D01*
X129675970Y-359429329D01*
X129684235Y-359452429D01*
X129690196Y-359476227D01*
X129693796Y-359500496D01*
X129695000Y-359525000D01*
X129695000Y-360275000D01*
X129693796Y-360299504D01*
X129690196Y-360323773D01*
X129684235Y-360347571D01*
X129675970Y-360370671D01*
X129665480Y-360392849D01*
X129652867Y-360413893D01*
X129638253Y-360433598D01*
X129621777Y-360451777D01*
X129603598Y-360468253D01*
X129583893Y-360482867D01*
X129562849Y-360495480D01*
X129540671Y-360505970D01*
X129517571Y-360514235D01*
X129493773Y-360520196D01*
X129469504Y-360523796D01*
X129445000Y-360525000D01*
X128195000Y-360525000D01*
X128170496Y-360523796D01*
X128146227Y-360520196D01*
X128122429Y-360514235D01*
X128099329Y-360505970D01*
X128077151Y-360495480D01*
X128056107Y-360482867D01*
X128036402Y-360468253D01*
X128018223Y-360451777D01*
X128001747Y-360433598D01*
X127987133Y-360413893D01*
X127974520Y-360392849D01*
X127964030Y-360370671D01*
X127955765Y-360347571D01*
X127949804Y-360323773D01*
X127946204Y-360299504D01*
X127945000Y-360275000D01*
X127945000Y-359525000D01*
X127946204Y-359500496D01*
X127949804Y-359476227D01*
X127955765Y-359452429D01*
X127964030Y-359429329D01*
X127974520Y-359407151D01*
X127987133Y-359386107D01*
X128001747Y-359366402D01*
X128018223Y-359348223D01*
X128036402Y-359331747D01*
X128056107Y-359317133D01*
X128077151Y-359304520D01*
X128099329Y-359294030D01*
X128122429Y-359285765D01*
X128146227Y-359279804D01*
X128170496Y-359276204D01*
X128195000Y-359275000D01*
X129445000Y-359275000D01*
X129469504Y-359276204D01*
X129469504Y-359276204D01*
G37*
D12*
X128820000Y-359900000D03*
D10*
G36*
X129469504Y-351476204D02*
G01*
X129493773Y-351479804D01*
X129517571Y-351485765D01*
X129540671Y-351494030D01*
X129562849Y-351504520D01*
X129583893Y-351517133D01*
X129603598Y-351531747D01*
X129621777Y-351548223D01*
X129638253Y-351566402D01*
X129652867Y-351586107D01*
X129665480Y-351607151D01*
X129675970Y-351629329D01*
X129684235Y-351652429D01*
X129690196Y-351676227D01*
X129693796Y-351700496D01*
X129695000Y-351725000D01*
X129695000Y-352475000D01*
X129693796Y-352499504D01*
X129690196Y-352523773D01*
X129684235Y-352547571D01*
X129675970Y-352570671D01*
X129665480Y-352592849D01*
X129652867Y-352613893D01*
X129638253Y-352633598D01*
X129621777Y-352651777D01*
X129603598Y-352668253D01*
X129583893Y-352682867D01*
X129562849Y-352695480D01*
X129540671Y-352705970D01*
X129517571Y-352714235D01*
X129493773Y-352720196D01*
X129469504Y-352723796D01*
X129445000Y-352725000D01*
X128195000Y-352725000D01*
X128170496Y-352723796D01*
X128146227Y-352720196D01*
X128122429Y-352714235D01*
X128099329Y-352705970D01*
X128077151Y-352695480D01*
X128056107Y-352682867D01*
X128036402Y-352668253D01*
X128018223Y-352651777D01*
X128001747Y-352633598D01*
X127987133Y-352613893D01*
X127974520Y-352592849D01*
X127964030Y-352570671D01*
X127955765Y-352547571D01*
X127949804Y-352523773D01*
X127946204Y-352499504D01*
X127945000Y-352475000D01*
X127945000Y-351725000D01*
X127946204Y-351700496D01*
X127949804Y-351676227D01*
X127955765Y-351652429D01*
X127964030Y-351629329D01*
X127974520Y-351607151D01*
X127987133Y-351586107D01*
X128001747Y-351566402D01*
X128018223Y-351548223D01*
X128036402Y-351531747D01*
X128056107Y-351517133D01*
X128077151Y-351504520D01*
X128099329Y-351494030D01*
X128122429Y-351485765D01*
X128146227Y-351479804D01*
X128170496Y-351476204D01*
X128195000Y-351475000D01*
X129445000Y-351475000D01*
X129469504Y-351476204D01*
X129469504Y-351476204D01*
G37*
D12*
X128820000Y-352100000D03*
D10*
G36*
X129469504Y-354276204D02*
G01*
X129493773Y-354279804D01*
X129517571Y-354285765D01*
X129540671Y-354294030D01*
X129562849Y-354304520D01*
X129583893Y-354317133D01*
X129603598Y-354331747D01*
X129621777Y-354348223D01*
X129638253Y-354366402D01*
X129652867Y-354386107D01*
X129665480Y-354407151D01*
X129675970Y-354429329D01*
X129684235Y-354452429D01*
X129690196Y-354476227D01*
X129693796Y-354500496D01*
X129695000Y-354525000D01*
X129695000Y-355275000D01*
X129693796Y-355299504D01*
X129690196Y-355323773D01*
X129684235Y-355347571D01*
X129675970Y-355370671D01*
X129665480Y-355392849D01*
X129652867Y-355413893D01*
X129638253Y-355433598D01*
X129621777Y-355451777D01*
X129603598Y-355468253D01*
X129583893Y-355482867D01*
X129562849Y-355495480D01*
X129540671Y-355505970D01*
X129517571Y-355514235D01*
X129493773Y-355520196D01*
X129469504Y-355523796D01*
X129445000Y-355525000D01*
X128195000Y-355525000D01*
X128170496Y-355523796D01*
X128146227Y-355520196D01*
X128122429Y-355514235D01*
X128099329Y-355505970D01*
X128077151Y-355495480D01*
X128056107Y-355482867D01*
X128036402Y-355468253D01*
X128018223Y-355451777D01*
X128001747Y-355433598D01*
X127987133Y-355413893D01*
X127974520Y-355392849D01*
X127964030Y-355370671D01*
X127955765Y-355347571D01*
X127949804Y-355323773D01*
X127946204Y-355299504D01*
X127945000Y-355275000D01*
X127945000Y-354525000D01*
X127946204Y-354500496D01*
X127949804Y-354476227D01*
X127955765Y-354452429D01*
X127964030Y-354429329D01*
X127974520Y-354407151D01*
X127987133Y-354386107D01*
X128001747Y-354366402D01*
X128018223Y-354348223D01*
X128036402Y-354331747D01*
X128056107Y-354317133D01*
X128077151Y-354304520D01*
X128099329Y-354294030D01*
X128122429Y-354285765D01*
X128146227Y-354279804D01*
X128170496Y-354276204D01*
X128195000Y-354275000D01*
X129445000Y-354275000D01*
X129469504Y-354276204D01*
X129469504Y-354276204D01*
G37*
D12*
X128820000Y-354900000D03*
D10*
G36*
X129469504Y-323976204D02*
G01*
X129493773Y-323979804D01*
X129517571Y-323985765D01*
X129540671Y-323994030D01*
X129562849Y-324004520D01*
X129583893Y-324017133D01*
X129603598Y-324031747D01*
X129621777Y-324048223D01*
X129638253Y-324066402D01*
X129652867Y-324086107D01*
X129665480Y-324107151D01*
X129675970Y-324129329D01*
X129684235Y-324152429D01*
X129690196Y-324176227D01*
X129693796Y-324200496D01*
X129695000Y-324225000D01*
X129695000Y-324975000D01*
X129693796Y-324999504D01*
X129690196Y-325023773D01*
X129684235Y-325047571D01*
X129675970Y-325070671D01*
X129665480Y-325092849D01*
X129652867Y-325113893D01*
X129638253Y-325133598D01*
X129621777Y-325151777D01*
X129603598Y-325168253D01*
X129583893Y-325182867D01*
X129562849Y-325195480D01*
X129540671Y-325205970D01*
X129517571Y-325214235D01*
X129493773Y-325220196D01*
X129469504Y-325223796D01*
X129445000Y-325225000D01*
X128195000Y-325225000D01*
X128170496Y-325223796D01*
X128146227Y-325220196D01*
X128122429Y-325214235D01*
X128099329Y-325205970D01*
X128077151Y-325195480D01*
X128056107Y-325182867D01*
X128036402Y-325168253D01*
X128018223Y-325151777D01*
X128001747Y-325133598D01*
X127987133Y-325113893D01*
X127974520Y-325092849D01*
X127964030Y-325070671D01*
X127955765Y-325047571D01*
X127949804Y-325023773D01*
X127946204Y-324999504D01*
X127945000Y-324975000D01*
X127945000Y-324225000D01*
X127946204Y-324200496D01*
X127949804Y-324176227D01*
X127955765Y-324152429D01*
X127964030Y-324129329D01*
X127974520Y-324107151D01*
X127987133Y-324086107D01*
X128001747Y-324066402D01*
X128018223Y-324048223D01*
X128036402Y-324031747D01*
X128056107Y-324017133D01*
X128077151Y-324004520D01*
X128099329Y-323994030D01*
X128122429Y-323985765D01*
X128146227Y-323979804D01*
X128170496Y-323976204D01*
X128195000Y-323975000D01*
X129445000Y-323975000D01*
X129469504Y-323976204D01*
X129469504Y-323976204D01*
G37*
D12*
X128820000Y-324600000D03*
D10*
G36*
X129469504Y-326776204D02*
G01*
X129493773Y-326779804D01*
X129517571Y-326785765D01*
X129540671Y-326794030D01*
X129562849Y-326804520D01*
X129583893Y-326817133D01*
X129603598Y-326831747D01*
X129621777Y-326848223D01*
X129638253Y-326866402D01*
X129652867Y-326886107D01*
X129665480Y-326907151D01*
X129675970Y-326929329D01*
X129684235Y-326952429D01*
X129690196Y-326976227D01*
X129693796Y-327000496D01*
X129695000Y-327025000D01*
X129695000Y-327775000D01*
X129693796Y-327799504D01*
X129690196Y-327823773D01*
X129684235Y-327847571D01*
X129675970Y-327870671D01*
X129665480Y-327892849D01*
X129652867Y-327913893D01*
X129638253Y-327933598D01*
X129621777Y-327951777D01*
X129603598Y-327968253D01*
X129583893Y-327982867D01*
X129562849Y-327995480D01*
X129540671Y-328005970D01*
X129517571Y-328014235D01*
X129493773Y-328020196D01*
X129469504Y-328023796D01*
X129445000Y-328025000D01*
X128195000Y-328025000D01*
X128170496Y-328023796D01*
X128146227Y-328020196D01*
X128122429Y-328014235D01*
X128099329Y-328005970D01*
X128077151Y-327995480D01*
X128056107Y-327982867D01*
X128036402Y-327968253D01*
X128018223Y-327951777D01*
X128001747Y-327933598D01*
X127987133Y-327913893D01*
X127974520Y-327892849D01*
X127964030Y-327870671D01*
X127955765Y-327847571D01*
X127949804Y-327823773D01*
X127946204Y-327799504D01*
X127945000Y-327775000D01*
X127945000Y-327025000D01*
X127946204Y-327000496D01*
X127949804Y-326976227D01*
X127955765Y-326952429D01*
X127964030Y-326929329D01*
X127974520Y-326907151D01*
X127987133Y-326886107D01*
X128001747Y-326866402D01*
X128018223Y-326848223D01*
X128036402Y-326831747D01*
X128056107Y-326817133D01*
X128077151Y-326804520D01*
X128099329Y-326794030D01*
X128122429Y-326785765D01*
X128146227Y-326779804D01*
X128170496Y-326776204D01*
X128195000Y-326775000D01*
X129445000Y-326775000D01*
X129469504Y-326776204D01*
X129469504Y-326776204D01*
G37*
D12*
X128820000Y-327400000D03*
D10*
G36*
X129469504Y-321776204D02*
G01*
X129493773Y-321779804D01*
X129517571Y-321785765D01*
X129540671Y-321794030D01*
X129562849Y-321804520D01*
X129583893Y-321817133D01*
X129603598Y-321831747D01*
X129621777Y-321848223D01*
X129638253Y-321866402D01*
X129652867Y-321886107D01*
X129665480Y-321907151D01*
X129675970Y-321929329D01*
X129684235Y-321952429D01*
X129690196Y-321976227D01*
X129693796Y-322000496D01*
X129695000Y-322025000D01*
X129695000Y-322775000D01*
X129693796Y-322799504D01*
X129690196Y-322823773D01*
X129684235Y-322847571D01*
X129675970Y-322870671D01*
X129665480Y-322892849D01*
X129652867Y-322913893D01*
X129638253Y-322933598D01*
X129621777Y-322951777D01*
X129603598Y-322968253D01*
X129583893Y-322982867D01*
X129562849Y-322995480D01*
X129540671Y-323005970D01*
X129517571Y-323014235D01*
X129493773Y-323020196D01*
X129469504Y-323023796D01*
X129445000Y-323025000D01*
X128195000Y-323025000D01*
X128170496Y-323023796D01*
X128146227Y-323020196D01*
X128122429Y-323014235D01*
X128099329Y-323005970D01*
X128077151Y-322995480D01*
X128056107Y-322982867D01*
X128036402Y-322968253D01*
X128018223Y-322951777D01*
X128001747Y-322933598D01*
X127987133Y-322913893D01*
X127974520Y-322892849D01*
X127964030Y-322870671D01*
X127955765Y-322847571D01*
X127949804Y-322823773D01*
X127946204Y-322799504D01*
X127945000Y-322775000D01*
X127945000Y-322025000D01*
X127946204Y-322000496D01*
X127949804Y-321976227D01*
X127955765Y-321952429D01*
X127964030Y-321929329D01*
X127974520Y-321907151D01*
X127987133Y-321886107D01*
X128001747Y-321866402D01*
X128018223Y-321848223D01*
X128036402Y-321831747D01*
X128056107Y-321817133D01*
X128077151Y-321804520D01*
X128099329Y-321794030D01*
X128122429Y-321785765D01*
X128146227Y-321779804D01*
X128170496Y-321776204D01*
X128195000Y-321775000D01*
X129445000Y-321775000D01*
X129469504Y-321776204D01*
X129469504Y-321776204D01*
G37*
D12*
X128820000Y-322400000D03*
D10*
G36*
X129469504Y-318976204D02*
G01*
X129493773Y-318979804D01*
X129517571Y-318985765D01*
X129540671Y-318994030D01*
X129562849Y-319004520D01*
X129583893Y-319017133D01*
X129603598Y-319031747D01*
X129621777Y-319048223D01*
X129638253Y-319066402D01*
X129652867Y-319086107D01*
X129665480Y-319107151D01*
X129675970Y-319129329D01*
X129684235Y-319152429D01*
X129690196Y-319176227D01*
X129693796Y-319200496D01*
X129695000Y-319225000D01*
X129695000Y-319975000D01*
X129693796Y-319999504D01*
X129690196Y-320023773D01*
X129684235Y-320047571D01*
X129675970Y-320070671D01*
X129665480Y-320092849D01*
X129652867Y-320113893D01*
X129638253Y-320133598D01*
X129621777Y-320151777D01*
X129603598Y-320168253D01*
X129583893Y-320182867D01*
X129562849Y-320195480D01*
X129540671Y-320205970D01*
X129517571Y-320214235D01*
X129493773Y-320220196D01*
X129469504Y-320223796D01*
X129445000Y-320225000D01*
X128195000Y-320225000D01*
X128170496Y-320223796D01*
X128146227Y-320220196D01*
X128122429Y-320214235D01*
X128099329Y-320205970D01*
X128077151Y-320195480D01*
X128056107Y-320182867D01*
X128036402Y-320168253D01*
X128018223Y-320151777D01*
X128001747Y-320133598D01*
X127987133Y-320113893D01*
X127974520Y-320092849D01*
X127964030Y-320070671D01*
X127955765Y-320047571D01*
X127949804Y-320023773D01*
X127946204Y-319999504D01*
X127945000Y-319975000D01*
X127945000Y-319225000D01*
X127946204Y-319200496D01*
X127949804Y-319176227D01*
X127955765Y-319152429D01*
X127964030Y-319129329D01*
X127974520Y-319107151D01*
X127987133Y-319086107D01*
X128001747Y-319066402D01*
X128018223Y-319048223D01*
X128036402Y-319031747D01*
X128056107Y-319017133D01*
X128077151Y-319004520D01*
X128099329Y-318994030D01*
X128122429Y-318985765D01*
X128146227Y-318979804D01*
X128170496Y-318976204D01*
X128195000Y-318975000D01*
X129445000Y-318975000D01*
X129469504Y-318976204D01*
X129469504Y-318976204D01*
G37*
D12*
X128820000Y-319600000D03*
M02*
