G04 #@! TF.GenerationSoftware,KiCad,Pcbnew,(5.1.4)-1*
G04 #@! TF.CreationDate,2019-10-29T10:52:23+09:00*
G04 #@! TF.ProjectId,High_power__DC_DC_board,48696768-5f70-46f7-9765-725f5f44435f,rev?*
G04 #@! TF.SameCoordinates,Original*
G04 #@! TF.FileFunction,Legend,Top*
G04 #@! TF.FilePolarity,Positive*
%FSLAX46Y46*%
G04 Gerber Fmt 4.6, Leading zero omitted, Abs format (unit mm)*
G04 Created by KiCad (PCBNEW (5.1.4)-1) date 2019-10-29 10:52:23*
%MOMM*%
%LPD*%
G04 APERTURE LIST*
%ADD10C,0.120000*%
%ADD11C,0.150000*%
G04 APERTURE END LIST*
D10*
X82197936Y-37560000D02*
X83402064Y-37560000D01*
X82197936Y-34840000D02*
X83402064Y-34840000D01*
X88760000Y-36102064D02*
X88760000Y-34897936D01*
X86040000Y-36102064D02*
X86040000Y-34897936D01*
X28197936Y-37660000D02*
X29402064Y-37660000D01*
X28197936Y-34940000D02*
X29402064Y-34940000D01*
X34760000Y-36202064D02*
X34760000Y-34997936D01*
X32040000Y-36202064D02*
X32040000Y-34997936D01*
X193347936Y-31310000D02*
X194552064Y-31310000D01*
X193347936Y-28590000D02*
X194552064Y-28590000D01*
X199252064Y-28590000D02*
X198047936Y-28590000D01*
X199252064Y-31310000D02*
X198047936Y-31310000D01*
X139247936Y-31310000D02*
X140452064Y-31310000D01*
X139247936Y-28590000D02*
X140452064Y-28590000D01*
X145252064Y-28590000D02*
X144047936Y-28590000D01*
X145252064Y-31310000D02*
X144047936Y-31310000D01*
X90808578Y-141190000D02*
X90291422Y-141190000D01*
X90808578Y-142610000D02*
X90291422Y-142610000D01*
X174858578Y-141190000D02*
X174341422Y-141190000D01*
X174858578Y-142610000D02*
X174341422Y-142610000D01*
X96805001Y-147312779D02*
X96805001Y-146987221D01*
X95785001Y-147312779D02*
X95785001Y-146987221D01*
X98310000Y-147312779D02*
X98310000Y-146987221D01*
X97290000Y-147312779D02*
X97290000Y-146987221D01*
X180910000Y-147312779D02*
X180910000Y-146987221D01*
X179890000Y-147312779D02*
X179890000Y-146987221D01*
X182410000Y-147312779D02*
X182410000Y-146987221D01*
X181390000Y-147312779D02*
X181390000Y-146987221D01*
X81640000Y-145647936D02*
X81640000Y-146852064D01*
X84360000Y-145647936D02*
X84360000Y-146852064D01*
X78440000Y-145647936D02*
X78440000Y-146852064D01*
X81160000Y-145647936D02*
X81160000Y-146852064D01*
X165640000Y-145647936D02*
X165640000Y-146852064D01*
X168360000Y-145647936D02*
X168360000Y-146852064D01*
X162440000Y-145647936D02*
X162440000Y-146852064D01*
X165160000Y-145647936D02*
X165160000Y-146852064D01*
X122990000Y-142490000D02*
X122990000Y-150550000D01*
X127510000Y-142490000D02*
X122990000Y-142490000D01*
X127510000Y-150550000D02*
X127510000Y-142490000D01*
X128040000Y-145391422D02*
X128040000Y-145908578D01*
X129460000Y-145391422D02*
X129460000Y-145908578D01*
X203040000Y-140740000D02*
X203040000Y-148800000D01*
X207560000Y-140740000D02*
X203040000Y-140740000D01*
X207560000Y-148800000D02*
X207560000Y-140740000D01*
X208140000Y-144291422D02*
X208140000Y-144808578D01*
X209560000Y-144291422D02*
X209560000Y-144808578D01*
X103200000Y-142350000D02*
X103200000Y-148050000D01*
X98900000Y-142350000D02*
X98900000Y-148050000D01*
X103200000Y-142350000D02*
X98900000Y-142350000D01*
X187250000Y-142350000D02*
X187250000Y-148050000D01*
X182950000Y-142350000D02*
X182950000Y-148050000D01*
X187250000Y-142350000D02*
X182950000Y-142350000D01*
D11*
X104500000Y-137150000D02*
X104500000Y-135150000D01*
X103800000Y-137150000D02*
X104500000Y-137150000D01*
X103800000Y-150350000D02*
X103800000Y-137150000D01*
X104500000Y-150350000D02*
X103800000Y-150350000D01*
X104500000Y-152350000D02*
X104500000Y-150350000D01*
X121700000Y-152350000D02*
X104500000Y-152350000D01*
X121700000Y-150350000D02*
X121700000Y-152350000D01*
X122400000Y-150350000D02*
X121700000Y-150350000D01*
X122400000Y-137150000D02*
X122400000Y-150350000D01*
X121700000Y-137150000D02*
X122400000Y-137150000D01*
X121700000Y-135150000D02*
X121700000Y-137150000D01*
X104500000Y-135150000D02*
X121700000Y-135150000D01*
X80950000Y-39625000D02*
X80950000Y-38200000D01*
X80325000Y-39625000D02*
X80950000Y-39625000D01*
X80325000Y-43375000D02*
X80325000Y-39625000D01*
X80950000Y-43375000D02*
X80325000Y-43375000D01*
X80950000Y-44800000D02*
X80950000Y-43375000D01*
X88050000Y-44800000D02*
X80950000Y-44800000D01*
X88050000Y-43375000D02*
X88050000Y-44800000D01*
X88675000Y-43375000D02*
X88050000Y-43375000D01*
X88675000Y-39625000D02*
X88675000Y-43375000D01*
X88050000Y-39625000D02*
X88675000Y-39625000D01*
X88050000Y-38200000D02*
X88050000Y-39625000D01*
X80950000Y-38200000D02*
X88050000Y-38200000D01*
X26950000Y-39725000D02*
X26950000Y-38300000D01*
X26325000Y-39725000D02*
X26950000Y-39725000D01*
X26325000Y-43475000D02*
X26325000Y-39725000D01*
X26950000Y-43475000D02*
X26325000Y-43475000D01*
X26950000Y-44900000D02*
X26950000Y-43475000D01*
X34050000Y-44900000D02*
X26950000Y-44900000D01*
X34050000Y-43475000D02*
X34050000Y-44900000D01*
X34675000Y-43475000D02*
X34050000Y-43475000D01*
X34675000Y-39725000D02*
X34675000Y-43475000D01*
X34050000Y-39725000D02*
X34675000Y-39725000D01*
X34050000Y-38300000D02*
X34050000Y-39725000D01*
X26950000Y-38300000D02*
X34050000Y-38300000D01*
X188400000Y-140800000D02*
X188400000Y-137450000D01*
X187675000Y-140800000D02*
X188400000Y-140800000D01*
X187675000Y-146700000D02*
X187675000Y-140800000D01*
X188400000Y-146700000D02*
X187675000Y-146700000D01*
X188400000Y-150050000D02*
X188400000Y-146700000D01*
X201850000Y-150050000D02*
X188400000Y-150050000D01*
X201850000Y-146700000D02*
X201850000Y-150050000D01*
X202575000Y-146700000D02*
X201850000Y-146700000D01*
X202575000Y-140800000D02*
X202575000Y-146700000D01*
X201850000Y-140800000D02*
X202575000Y-140800000D01*
X201850000Y-137450000D02*
X201850000Y-140800000D01*
X188400000Y-137450000D02*
X201850000Y-137450000D01*
X187450000Y-35475000D02*
X187450000Y-31900000D01*
X186925000Y-35475000D02*
X187450000Y-35475000D01*
X186925000Y-40825000D02*
X186925000Y-35475000D01*
X187450000Y-40825000D02*
X186925000Y-40825000D01*
X187450000Y-44400000D02*
X187450000Y-40825000D01*
X200950000Y-44400000D02*
X187450000Y-44400000D01*
X200950000Y-40825000D02*
X200950000Y-44400000D01*
X201475000Y-40825000D02*
X200950000Y-40825000D01*
X201475000Y-35475000D02*
X201475000Y-40825000D01*
X200950000Y-35475000D02*
X201475000Y-35475000D01*
X200950000Y-31900000D02*
X200950000Y-35475000D01*
X187450000Y-31900000D02*
X200950000Y-31900000D01*
X133450000Y-35525000D02*
X133450000Y-31950000D01*
X132925000Y-35525000D02*
X133450000Y-35525000D01*
X132925000Y-40875000D02*
X132925000Y-35525000D01*
X133450000Y-40875000D02*
X132925000Y-40875000D01*
X133450000Y-44450000D02*
X133450000Y-40875000D01*
X146950000Y-44450000D02*
X133450000Y-44450000D01*
X146950000Y-40875000D02*
X146950000Y-44450000D01*
X147475000Y-40875000D02*
X146950000Y-40875000D01*
X147475000Y-35525000D02*
X147475000Y-40875000D01*
X146950000Y-35525000D02*
X147475000Y-35525000D01*
X146950000Y-31950000D02*
X146950000Y-35525000D01*
X133450000Y-31950000D02*
X146950000Y-31950000D01*
D10*
X95790000Y-149987221D02*
X95790000Y-150312779D01*
X96810000Y-149987221D02*
X96810000Y-150312779D01*
X179890000Y-149987221D02*
X179890000Y-150312779D01*
X180910000Y-149987221D02*
X180910000Y-150312779D01*
X92962779Y-148540000D02*
X92637221Y-148540000D01*
X92962779Y-149560000D02*
X92637221Y-149560000D01*
X177062779Y-148490000D02*
X176737221Y-148490000D01*
X177062779Y-149510000D02*
X176737221Y-149510000D01*
X91357780Y-150095001D02*
X91032222Y-150095001D01*
X91357780Y-151115001D02*
X91032222Y-151115001D01*
X175462779Y-150040000D02*
X175137221Y-150040000D01*
X175462779Y-151060000D02*
X175137221Y-151060000D01*
X86640000Y-149474721D02*
X86640000Y-149800279D01*
X87660000Y-149474721D02*
X87660000Y-149800279D01*
X170740000Y-149487221D02*
X170740000Y-149812779D01*
X171760000Y-149487221D02*
X171760000Y-149812779D01*
X84890000Y-145487221D02*
X84890000Y-145812779D01*
X85910000Y-145487221D02*
X85910000Y-145812779D01*
X84890000Y-148487221D02*
X84890000Y-148812779D01*
X85910000Y-148487221D02*
X85910000Y-148812779D01*
X169040000Y-145487221D02*
X169040000Y-145812779D01*
X170060000Y-145487221D02*
X170060000Y-145812779D01*
X169040000Y-148487221D02*
X169040000Y-148812779D01*
X170060000Y-148487221D02*
X170060000Y-148812779D01*
D11*
X231850000Y-131150000D02*
X234000000Y-131150000D01*
X231850000Y-135350000D02*
X231850000Y-131150000D01*
X234000000Y-135350000D02*
X231850000Y-135350000D01*
X234000000Y-137750000D02*
X234000000Y-133250000D01*
X221200000Y-137750000D02*
X234000000Y-137750000D01*
X221200000Y-136750000D02*
X221200000Y-137750000D01*
X221850000Y-136750000D02*
X221200000Y-136750000D01*
X221850000Y-129750000D02*
X221850000Y-136750000D01*
X221200000Y-129750000D02*
X221850000Y-129750000D01*
X221200000Y-128750000D02*
X221200000Y-129750000D01*
X234000000Y-128750000D02*
X221200000Y-128750000D01*
X234000000Y-133250000D02*
X234000000Y-128750000D01*
X137250000Y-157550000D02*
X137250000Y-159700000D01*
X133050000Y-157550000D02*
X137250000Y-157550000D01*
X133050000Y-159700000D02*
X133050000Y-157550000D01*
X130650000Y-159700000D02*
X135150000Y-159700000D01*
X130650000Y-146900000D02*
X130650000Y-159700000D01*
X131650000Y-146900000D02*
X130650000Y-146900000D01*
X131650000Y-147550000D02*
X131650000Y-146900000D01*
X138650000Y-147550000D02*
X131650000Y-147550000D01*
X138650000Y-146900000D02*
X138650000Y-147550000D01*
X139650000Y-146900000D02*
X138650000Y-146900000D01*
X139650000Y-159700000D02*
X139650000Y-146900000D01*
X135150000Y-159700000D02*
X139650000Y-159700000D01*
X89125000Y-143475000D02*
G75*
G03X89125000Y-143475000I-100000J0D01*
G01*
X88450000Y-148050000D02*
X88450000Y-147875000D01*
X92450000Y-148050000D02*
X88450000Y-148050000D01*
X92450000Y-148050000D02*
X92450000Y-147875000D01*
X88450000Y-143050000D02*
X88450000Y-143225000D01*
X92450000Y-143050000D02*
X88450000Y-143050000D01*
X92450000Y-143050000D02*
X92450000Y-143225000D01*
X173275000Y-143475000D02*
G75*
G03X173275000Y-143475000I-100000J0D01*
G01*
X172600000Y-148050000D02*
X172600000Y-147875000D01*
X176600000Y-148050000D02*
X172600000Y-148050000D01*
X176600000Y-148050000D02*
X176600000Y-147875000D01*
X172600000Y-143050000D02*
X172600000Y-143225000D01*
X176600000Y-143050000D02*
X172600000Y-143050000D01*
X176600000Y-143050000D02*
X176600000Y-143225000D01*
X59300000Y-26050000D02*
X59300000Y-23900000D01*
X63500000Y-26050000D02*
X59300000Y-26050000D01*
X63500000Y-23900000D02*
X63500000Y-26050000D01*
X65900000Y-23900000D02*
X61400000Y-23900000D01*
X65900000Y-36700000D02*
X65900000Y-23900000D01*
X64900000Y-36700000D02*
X65900000Y-36700000D01*
X64900000Y-36050000D02*
X64900000Y-36700000D01*
X57900000Y-36050000D02*
X64900000Y-36050000D01*
X57900000Y-36700000D02*
X57900000Y-36050000D01*
X56900000Y-36700000D02*
X57900000Y-36700000D01*
X56900000Y-23900000D02*
X56900000Y-36700000D01*
X61400000Y-23900000D02*
X56900000Y-23900000D01*
X113300000Y-26050000D02*
X113300000Y-23900000D01*
X117500000Y-26050000D02*
X113300000Y-26050000D01*
X117500000Y-23900000D02*
X117500000Y-26050000D01*
X119900000Y-23900000D02*
X115400000Y-23900000D01*
X119900000Y-36700000D02*
X119900000Y-23900000D01*
X118900000Y-36700000D02*
X119900000Y-36700000D01*
X118900000Y-36050000D02*
X118900000Y-36700000D01*
X111900000Y-36050000D02*
X118900000Y-36050000D01*
X111900000Y-36700000D02*
X111900000Y-36050000D01*
X110900000Y-36700000D02*
X111900000Y-36700000D01*
X110900000Y-23900000D02*
X110900000Y-36700000D01*
X115400000Y-23900000D02*
X110900000Y-23900000D01*
X221300000Y-26050000D02*
X221300000Y-23900000D01*
X225500000Y-26050000D02*
X221300000Y-26050000D01*
X225500000Y-23900000D02*
X225500000Y-26050000D01*
X227900000Y-23900000D02*
X223400000Y-23900000D01*
X227900000Y-36700000D02*
X227900000Y-23900000D01*
X226900000Y-36700000D02*
X227900000Y-36700000D01*
X226900000Y-36050000D02*
X226900000Y-36700000D01*
X219900000Y-36050000D02*
X226900000Y-36050000D01*
X219900000Y-36700000D02*
X219900000Y-36050000D01*
X218900000Y-36700000D02*
X219900000Y-36700000D01*
X218900000Y-23900000D02*
X218900000Y-36700000D01*
X223400000Y-23900000D02*
X218900000Y-23900000D01*
X167300000Y-26050000D02*
X167300000Y-23900000D01*
X171500000Y-26050000D02*
X167300000Y-26050000D01*
X171500000Y-23900000D02*
X171500000Y-26050000D01*
X173900000Y-23900000D02*
X169400000Y-23900000D01*
X173900000Y-36700000D02*
X173900000Y-23900000D01*
X172900000Y-36700000D02*
X173900000Y-36700000D01*
X172900000Y-36050000D02*
X172900000Y-36700000D01*
X165900000Y-36050000D02*
X172900000Y-36050000D01*
X165900000Y-36700000D02*
X165900000Y-36050000D01*
X164900000Y-36700000D02*
X165900000Y-36700000D01*
X164900000Y-23900000D02*
X164900000Y-36700000D01*
X169400000Y-23900000D02*
X164900000Y-23900000D01*
X125000000Y-126500000D02*
X73000000Y-126500000D01*
X125000000Y-46500000D02*
X125000000Y-126500000D01*
X73000000Y-46500000D02*
X125000000Y-46500000D01*
X73000000Y-126500000D02*
X73000000Y-46500000D01*
X71000000Y-126500000D02*
X19000000Y-126500000D01*
X71000000Y-46500000D02*
X71000000Y-126500000D01*
X19000000Y-46500000D02*
X71000000Y-46500000D01*
X19000000Y-126500000D02*
X19000000Y-46500000D01*
X217800000Y-157550000D02*
X217800000Y-159700000D01*
X213600000Y-157550000D02*
X217800000Y-157550000D01*
X213600000Y-159700000D02*
X213600000Y-157550000D01*
X211200000Y-159700000D02*
X215700000Y-159700000D01*
X211200000Y-146900000D02*
X211200000Y-159700000D01*
X212200000Y-146900000D02*
X211200000Y-146900000D01*
X212200000Y-147550000D02*
X212200000Y-146900000D01*
X219200000Y-147550000D02*
X212200000Y-147550000D01*
X219200000Y-146900000D02*
X219200000Y-147550000D01*
X220200000Y-146900000D02*
X219200000Y-146900000D01*
X220200000Y-159700000D02*
X220200000Y-146900000D01*
X215700000Y-159700000D02*
X220200000Y-159700000D01*
X233000000Y-126500000D02*
X181000000Y-126500000D01*
X233000000Y-46500000D02*
X233000000Y-126500000D01*
X181000000Y-46500000D02*
X233000000Y-46500000D01*
X181000000Y-126500000D02*
X181000000Y-46500000D01*
X179000000Y-126500000D02*
X127000000Y-126500000D01*
X179000000Y-46500000D02*
X179000000Y-126500000D01*
X127000000Y-46500000D02*
X179000000Y-46500000D01*
X127000000Y-126500000D02*
X127000000Y-46500000D01*
X225288095Y-156702380D02*
X225288095Y-155702380D01*
X225288095Y-156178571D02*
X225859523Y-156178571D01*
X225859523Y-156702380D02*
X225859523Y-155702380D01*
X226240476Y-155702380D02*
X226859523Y-155702380D01*
X226526190Y-156083333D01*
X226669047Y-156083333D01*
X226764285Y-156130952D01*
X226811904Y-156178571D01*
X226859523Y-156273809D01*
X226859523Y-156511904D01*
X226811904Y-156607142D01*
X226764285Y-156654761D01*
X226669047Y-156702380D01*
X226383333Y-156702380D01*
X226288095Y-156654761D01*
X226240476Y-156607142D01*
X118638095Y-156702380D02*
X118638095Y-155702380D01*
X118638095Y-156178571D02*
X119209523Y-156178571D01*
X119209523Y-156702380D02*
X119209523Y-155702380D01*
X119638095Y-155797619D02*
X119685714Y-155750000D01*
X119780952Y-155702380D01*
X120019047Y-155702380D01*
X120114285Y-155750000D01*
X120161904Y-155797619D01*
X120209523Y-155892857D01*
X120209523Y-155988095D01*
X120161904Y-156130952D01*
X119590476Y-156702380D01*
X120209523Y-156702380D01*
X25138095Y-156702380D02*
X25138095Y-155702380D01*
X25138095Y-156178571D02*
X25709523Y-156178571D01*
X25709523Y-156702380D02*
X25709523Y-155702380D01*
X26709523Y-156702380D02*
X26138095Y-156702380D01*
X26423809Y-156702380D02*
X26423809Y-155702380D01*
X26328571Y-155845238D01*
X26233333Y-155940476D01*
X26138095Y-155988095D01*
X80007142Y-36892857D02*
X80054761Y-36940476D01*
X80102380Y-37083333D01*
X80102380Y-37178571D01*
X80054761Y-37321428D01*
X79959523Y-37416666D01*
X79864285Y-37464285D01*
X79673809Y-37511904D01*
X79530952Y-37511904D01*
X79340476Y-37464285D01*
X79245238Y-37416666D01*
X79150000Y-37321428D01*
X79102380Y-37178571D01*
X79102380Y-37083333D01*
X79150000Y-36940476D01*
X79197619Y-36892857D01*
X79197619Y-36511904D02*
X79150000Y-36464285D01*
X79102380Y-36369047D01*
X79102380Y-36130952D01*
X79150000Y-36035714D01*
X79197619Y-35988095D01*
X79292857Y-35940476D01*
X79388095Y-35940476D01*
X79530952Y-35988095D01*
X80102380Y-36559523D01*
X80102380Y-35940476D01*
X80102380Y-34988095D02*
X80102380Y-35559523D01*
X80102380Y-35273809D02*
X79102380Y-35273809D01*
X79245238Y-35369047D01*
X79340476Y-35464285D01*
X79388095Y-35559523D01*
X90007142Y-35342857D02*
X90054761Y-35390476D01*
X90102380Y-35533333D01*
X90102380Y-35628571D01*
X90054761Y-35771428D01*
X89959523Y-35866666D01*
X89864285Y-35914285D01*
X89673809Y-35961904D01*
X89530952Y-35961904D01*
X89340476Y-35914285D01*
X89245238Y-35866666D01*
X89150000Y-35771428D01*
X89102380Y-35628571D01*
X89102380Y-35533333D01*
X89150000Y-35390476D01*
X89197619Y-35342857D01*
X89197619Y-34961904D02*
X89150000Y-34914285D01*
X89102380Y-34819047D01*
X89102380Y-34580952D01*
X89150000Y-34485714D01*
X89197619Y-34438095D01*
X89292857Y-34390476D01*
X89388095Y-34390476D01*
X89530952Y-34438095D01*
X90102380Y-35009523D01*
X90102380Y-34390476D01*
X89197619Y-34009523D02*
X89150000Y-33961904D01*
X89102380Y-33866666D01*
X89102380Y-33628571D01*
X89150000Y-33533333D01*
X89197619Y-33485714D01*
X89292857Y-33438095D01*
X89388095Y-33438095D01*
X89530952Y-33485714D01*
X90102380Y-34057142D01*
X90102380Y-33438095D01*
X26057142Y-36942857D02*
X26104761Y-36990476D01*
X26152380Y-37133333D01*
X26152380Y-37228571D01*
X26104761Y-37371428D01*
X26009523Y-37466666D01*
X25914285Y-37514285D01*
X25723809Y-37561904D01*
X25580952Y-37561904D01*
X25390476Y-37514285D01*
X25295238Y-37466666D01*
X25200000Y-37371428D01*
X25152380Y-37228571D01*
X25152380Y-37133333D01*
X25200000Y-36990476D01*
X25247619Y-36942857D01*
X25152380Y-36609523D02*
X25152380Y-35990476D01*
X25533333Y-36323809D01*
X25533333Y-36180952D01*
X25580952Y-36085714D01*
X25628571Y-36038095D01*
X25723809Y-35990476D01*
X25961904Y-35990476D01*
X26057142Y-36038095D01*
X26104761Y-36085714D01*
X26152380Y-36180952D01*
X26152380Y-36466666D01*
X26104761Y-36561904D01*
X26057142Y-36609523D01*
X26152380Y-35038095D02*
X26152380Y-35609523D01*
X26152380Y-35323809D02*
X25152380Y-35323809D01*
X25295238Y-35419047D01*
X25390476Y-35514285D01*
X25438095Y-35609523D01*
X36007142Y-35092857D02*
X36054761Y-35140476D01*
X36102380Y-35283333D01*
X36102380Y-35378571D01*
X36054761Y-35521428D01*
X35959523Y-35616666D01*
X35864285Y-35664285D01*
X35673809Y-35711904D01*
X35530952Y-35711904D01*
X35340476Y-35664285D01*
X35245238Y-35616666D01*
X35150000Y-35521428D01*
X35102380Y-35378571D01*
X35102380Y-35283333D01*
X35150000Y-35140476D01*
X35197619Y-35092857D01*
X35102380Y-34759523D02*
X35102380Y-34140476D01*
X35483333Y-34473809D01*
X35483333Y-34330952D01*
X35530952Y-34235714D01*
X35578571Y-34188095D01*
X35673809Y-34140476D01*
X35911904Y-34140476D01*
X36007142Y-34188095D01*
X36054761Y-34235714D01*
X36102380Y-34330952D01*
X36102380Y-34616666D01*
X36054761Y-34711904D01*
X36007142Y-34759523D01*
X35197619Y-33759523D02*
X35150000Y-33711904D01*
X35102380Y-33616666D01*
X35102380Y-33378571D01*
X35150000Y-33283333D01*
X35197619Y-33235714D01*
X35292857Y-33188095D01*
X35388095Y-33188095D01*
X35530952Y-33235714D01*
X36102380Y-33807142D01*
X36102380Y-33188095D01*
X191157142Y-31069047D02*
X191204761Y-31116666D01*
X191252380Y-31259523D01*
X191252380Y-31354761D01*
X191204761Y-31497619D01*
X191109523Y-31592857D01*
X191014285Y-31640476D01*
X190823809Y-31688095D01*
X190680952Y-31688095D01*
X190490476Y-31640476D01*
X190395238Y-31592857D01*
X190300000Y-31497619D01*
X190252380Y-31354761D01*
X190252380Y-31259523D01*
X190300000Y-31116666D01*
X190347619Y-31069047D01*
X191252380Y-30116666D02*
X191252380Y-30688095D01*
X191252380Y-30402380D02*
X190252380Y-30402380D01*
X190395238Y-30497619D01*
X190490476Y-30592857D01*
X190538095Y-30688095D01*
X191252380Y-29164285D02*
X191252380Y-29735714D01*
X191252380Y-29450000D02*
X190252380Y-29450000D01*
X190395238Y-29545238D01*
X190490476Y-29640476D01*
X190538095Y-29735714D01*
X191252380Y-28211904D02*
X191252380Y-28783333D01*
X191252380Y-28497619D02*
X190252380Y-28497619D01*
X190395238Y-28592857D01*
X190490476Y-28688095D01*
X190538095Y-28783333D01*
X200307142Y-27319047D02*
X200354761Y-27366666D01*
X200402380Y-27509523D01*
X200402380Y-27604761D01*
X200354761Y-27747619D01*
X200259523Y-27842857D01*
X200164285Y-27890476D01*
X199973809Y-27938095D01*
X199830952Y-27938095D01*
X199640476Y-27890476D01*
X199545238Y-27842857D01*
X199450000Y-27747619D01*
X199402380Y-27604761D01*
X199402380Y-27509523D01*
X199450000Y-27366666D01*
X199497619Y-27319047D01*
X200402380Y-26366666D02*
X200402380Y-26938095D01*
X200402380Y-26652380D02*
X199402380Y-26652380D01*
X199545238Y-26747619D01*
X199640476Y-26842857D01*
X199688095Y-26938095D01*
X200402380Y-25414285D02*
X200402380Y-25985714D01*
X200402380Y-25700000D02*
X199402380Y-25700000D01*
X199545238Y-25795238D01*
X199640476Y-25890476D01*
X199688095Y-25985714D01*
X199497619Y-25033333D02*
X199450000Y-24985714D01*
X199402380Y-24890476D01*
X199402380Y-24652380D01*
X199450000Y-24557142D01*
X199497619Y-24509523D01*
X199592857Y-24461904D01*
X199688095Y-24461904D01*
X199830952Y-24509523D01*
X200402380Y-25080952D01*
X200402380Y-24461904D01*
X137007142Y-31119047D02*
X137054761Y-31166666D01*
X137102380Y-31309523D01*
X137102380Y-31404761D01*
X137054761Y-31547619D01*
X136959523Y-31642857D01*
X136864285Y-31690476D01*
X136673809Y-31738095D01*
X136530952Y-31738095D01*
X136340476Y-31690476D01*
X136245238Y-31642857D01*
X136150000Y-31547619D01*
X136102380Y-31404761D01*
X136102380Y-31309523D01*
X136150000Y-31166666D01*
X136197619Y-31119047D01*
X137102380Y-30166666D02*
X137102380Y-30738095D01*
X137102380Y-30452380D02*
X136102380Y-30452380D01*
X136245238Y-30547619D01*
X136340476Y-30642857D01*
X136388095Y-30738095D01*
X136197619Y-29785714D02*
X136150000Y-29738095D01*
X136102380Y-29642857D01*
X136102380Y-29404761D01*
X136150000Y-29309523D01*
X136197619Y-29261904D01*
X136292857Y-29214285D01*
X136388095Y-29214285D01*
X136530952Y-29261904D01*
X137102380Y-29833333D01*
X137102380Y-29214285D01*
X137102380Y-28261904D02*
X137102380Y-28833333D01*
X137102380Y-28547619D02*
X136102380Y-28547619D01*
X136245238Y-28642857D01*
X136340476Y-28738095D01*
X136388095Y-28833333D01*
X146207142Y-27319047D02*
X146254761Y-27366666D01*
X146302380Y-27509523D01*
X146302380Y-27604761D01*
X146254761Y-27747619D01*
X146159523Y-27842857D01*
X146064285Y-27890476D01*
X145873809Y-27938095D01*
X145730952Y-27938095D01*
X145540476Y-27890476D01*
X145445238Y-27842857D01*
X145350000Y-27747619D01*
X145302380Y-27604761D01*
X145302380Y-27509523D01*
X145350000Y-27366666D01*
X145397619Y-27319047D01*
X146302380Y-26366666D02*
X146302380Y-26938095D01*
X146302380Y-26652380D02*
X145302380Y-26652380D01*
X145445238Y-26747619D01*
X145540476Y-26842857D01*
X145588095Y-26938095D01*
X145397619Y-25985714D02*
X145350000Y-25938095D01*
X145302380Y-25842857D01*
X145302380Y-25604761D01*
X145350000Y-25509523D01*
X145397619Y-25461904D01*
X145492857Y-25414285D01*
X145588095Y-25414285D01*
X145730952Y-25461904D01*
X146302380Y-26033333D01*
X146302380Y-25414285D01*
X145397619Y-25033333D02*
X145350000Y-24985714D01*
X145302380Y-24890476D01*
X145302380Y-24652380D01*
X145350000Y-24557142D01*
X145397619Y-24509523D01*
X145492857Y-24461904D01*
X145588095Y-24461904D01*
X145730952Y-24509523D01*
X146302380Y-25080952D01*
X146302380Y-24461904D01*
X88264285Y-140407142D02*
X88216666Y-140454761D01*
X88073809Y-140502380D01*
X87978571Y-140502380D01*
X87835714Y-140454761D01*
X87740476Y-140359523D01*
X87692857Y-140264285D01*
X87645238Y-140073809D01*
X87645238Y-139930952D01*
X87692857Y-139740476D01*
X87740476Y-139645238D01*
X87835714Y-139550000D01*
X87978571Y-139502380D01*
X88073809Y-139502380D01*
X88216666Y-139550000D01*
X88264285Y-139597619D01*
X88692857Y-140502380D02*
X88692857Y-139502380D01*
X88692857Y-139883333D02*
X88788095Y-139835714D01*
X88978571Y-139835714D01*
X89073809Y-139883333D01*
X89121428Y-139930952D01*
X89169047Y-140026190D01*
X89169047Y-140311904D01*
X89121428Y-140407142D01*
X89073809Y-140454761D01*
X88978571Y-140502380D01*
X88788095Y-140502380D01*
X88692857Y-140454761D01*
X89740476Y-140502380D02*
X89645238Y-140454761D01*
X89597619Y-140407142D01*
X89550000Y-140311904D01*
X89550000Y-140026190D01*
X89597619Y-139930952D01*
X89645238Y-139883333D01*
X89740476Y-139835714D01*
X89883333Y-139835714D01*
X89978571Y-139883333D01*
X90026190Y-139930952D01*
X90073809Y-140026190D01*
X90073809Y-140311904D01*
X90026190Y-140407142D01*
X89978571Y-140454761D01*
X89883333Y-140502380D01*
X89740476Y-140502380D01*
X90645238Y-140502380D02*
X90550000Y-140454761D01*
X90502380Y-140407142D01*
X90454761Y-140311904D01*
X90454761Y-140026190D01*
X90502380Y-139930952D01*
X90550000Y-139883333D01*
X90645238Y-139835714D01*
X90788095Y-139835714D01*
X90883333Y-139883333D01*
X90930952Y-139930952D01*
X90978571Y-140026190D01*
X90978571Y-140311904D01*
X90930952Y-140407142D01*
X90883333Y-140454761D01*
X90788095Y-140502380D01*
X90645238Y-140502380D01*
X91264285Y-139835714D02*
X91645238Y-139835714D01*
X91407142Y-139502380D02*
X91407142Y-140359523D01*
X91454761Y-140454761D01*
X91550000Y-140502380D01*
X91645238Y-140502380D01*
X92169047Y-139502380D02*
X92264285Y-139502380D01*
X92359523Y-139550000D01*
X92407142Y-139597619D01*
X92454761Y-139692857D01*
X92502380Y-139883333D01*
X92502380Y-140121428D01*
X92454761Y-140311904D01*
X92407142Y-140407142D01*
X92359523Y-140454761D01*
X92264285Y-140502380D01*
X92169047Y-140502380D01*
X92073809Y-140454761D01*
X92026190Y-140407142D01*
X91978571Y-140311904D01*
X91930952Y-140121428D01*
X91930952Y-139883333D01*
X91978571Y-139692857D01*
X92026190Y-139597619D01*
X92073809Y-139550000D01*
X92169047Y-139502380D01*
X93454761Y-140502380D02*
X92883333Y-140502380D01*
X93169047Y-140502380D02*
X93169047Y-139502380D01*
X93073809Y-139645238D01*
X92978571Y-139740476D01*
X92883333Y-139788095D01*
X172314285Y-140707142D02*
X172266666Y-140754761D01*
X172123809Y-140802380D01*
X172028571Y-140802380D01*
X171885714Y-140754761D01*
X171790476Y-140659523D01*
X171742857Y-140564285D01*
X171695238Y-140373809D01*
X171695238Y-140230952D01*
X171742857Y-140040476D01*
X171790476Y-139945238D01*
X171885714Y-139850000D01*
X172028571Y-139802380D01*
X172123809Y-139802380D01*
X172266666Y-139850000D01*
X172314285Y-139897619D01*
X172742857Y-140802380D02*
X172742857Y-139802380D01*
X172742857Y-140183333D02*
X172838095Y-140135714D01*
X173028571Y-140135714D01*
X173123809Y-140183333D01*
X173171428Y-140230952D01*
X173219047Y-140326190D01*
X173219047Y-140611904D01*
X173171428Y-140707142D01*
X173123809Y-140754761D01*
X173028571Y-140802380D01*
X172838095Y-140802380D01*
X172742857Y-140754761D01*
X173790476Y-140802380D02*
X173695238Y-140754761D01*
X173647619Y-140707142D01*
X173600000Y-140611904D01*
X173600000Y-140326190D01*
X173647619Y-140230952D01*
X173695238Y-140183333D01*
X173790476Y-140135714D01*
X173933333Y-140135714D01*
X174028571Y-140183333D01*
X174076190Y-140230952D01*
X174123809Y-140326190D01*
X174123809Y-140611904D01*
X174076190Y-140707142D01*
X174028571Y-140754761D01*
X173933333Y-140802380D01*
X173790476Y-140802380D01*
X174695238Y-140802380D02*
X174600000Y-140754761D01*
X174552380Y-140707142D01*
X174504761Y-140611904D01*
X174504761Y-140326190D01*
X174552380Y-140230952D01*
X174600000Y-140183333D01*
X174695238Y-140135714D01*
X174838095Y-140135714D01*
X174933333Y-140183333D01*
X174980952Y-140230952D01*
X175028571Y-140326190D01*
X175028571Y-140611904D01*
X174980952Y-140707142D01*
X174933333Y-140754761D01*
X174838095Y-140802380D01*
X174695238Y-140802380D01*
X175314285Y-140135714D02*
X175695238Y-140135714D01*
X175457142Y-139802380D02*
X175457142Y-140659523D01*
X175504761Y-140754761D01*
X175600000Y-140802380D01*
X175695238Y-140802380D01*
X176552380Y-140802380D02*
X175980952Y-140802380D01*
X176266666Y-140802380D02*
X176266666Y-139802380D01*
X176171428Y-139945238D01*
X176076190Y-140040476D01*
X175980952Y-140088095D01*
X177504761Y-140802380D02*
X176933333Y-140802380D01*
X177219047Y-140802380D02*
X177219047Y-139802380D01*
X177123809Y-139945238D01*
X177028571Y-140040476D01*
X176933333Y-140088095D01*
X95528571Y-145207142D02*
X95480952Y-145254761D01*
X95338095Y-145302380D01*
X95242857Y-145302380D01*
X95100000Y-145254761D01*
X95004761Y-145159523D01*
X94957142Y-145064285D01*
X94909523Y-144873809D01*
X94909523Y-144730952D01*
X94957142Y-144540476D01*
X95004761Y-144445238D01*
X95100000Y-144350000D01*
X95242857Y-144302380D01*
X95338095Y-144302380D01*
X95480952Y-144350000D01*
X95528571Y-144397619D01*
X96385714Y-145254761D02*
X96290476Y-145302380D01*
X96100000Y-145302380D01*
X96004761Y-145254761D01*
X95957142Y-145207142D01*
X95909523Y-145111904D01*
X95909523Y-144826190D01*
X95957142Y-144730952D01*
X96004761Y-144683333D01*
X96100000Y-144635714D01*
X96290476Y-144635714D01*
X96385714Y-144683333D01*
X97004761Y-144302380D02*
X97100000Y-144302380D01*
X97195238Y-144350000D01*
X97242857Y-144397619D01*
X97290476Y-144492857D01*
X97338095Y-144683333D01*
X97338095Y-144921428D01*
X97290476Y-145111904D01*
X97242857Y-145207142D01*
X97195238Y-145254761D01*
X97100000Y-145302380D01*
X97004761Y-145302380D01*
X96909523Y-145254761D01*
X96861904Y-145207142D01*
X96814285Y-145111904D01*
X96766666Y-144921428D01*
X96766666Y-144683333D01*
X96814285Y-144492857D01*
X96861904Y-144397619D01*
X96909523Y-144350000D01*
X97004761Y-144302380D01*
X98290476Y-145302380D02*
X97719047Y-145302380D01*
X98004761Y-145302380D02*
X98004761Y-144302380D01*
X97909523Y-144445238D01*
X97814285Y-144540476D01*
X97719047Y-144588095D01*
X98157142Y-151621428D02*
X98204761Y-151669047D01*
X98252380Y-151811904D01*
X98252380Y-151907142D01*
X98204761Y-152050000D01*
X98109523Y-152145238D01*
X98014285Y-152192857D01*
X97823809Y-152240476D01*
X97680952Y-152240476D01*
X97490476Y-152192857D01*
X97395238Y-152145238D01*
X97300000Y-152050000D01*
X97252380Y-151907142D01*
X97252380Y-151811904D01*
X97300000Y-151669047D01*
X97347619Y-151621428D01*
X98204761Y-150764285D02*
X98252380Y-150859523D01*
X98252380Y-151050000D01*
X98204761Y-151145238D01*
X98157142Y-151192857D01*
X98061904Y-151240476D01*
X97776190Y-151240476D01*
X97680952Y-151192857D01*
X97633333Y-151145238D01*
X97585714Y-151050000D01*
X97585714Y-150859523D01*
X97633333Y-150764285D01*
X97252380Y-150145238D02*
X97252380Y-150050000D01*
X97300000Y-149954761D01*
X97347619Y-149907142D01*
X97442857Y-149859523D01*
X97633333Y-149811904D01*
X97871428Y-149811904D01*
X98061904Y-149859523D01*
X98157142Y-149907142D01*
X98204761Y-149954761D01*
X98252380Y-150050000D01*
X98252380Y-150145238D01*
X98204761Y-150240476D01*
X98157142Y-150288095D01*
X98061904Y-150335714D01*
X97871428Y-150383333D01*
X97633333Y-150383333D01*
X97442857Y-150335714D01*
X97347619Y-150288095D01*
X97300000Y-150240476D01*
X97252380Y-150145238D01*
X97347619Y-149430952D02*
X97300000Y-149383333D01*
X97252380Y-149288095D01*
X97252380Y-149050000D01*
X97300000Y-148954761D01*
X97347619Y-148907142D01*
X97442857Y-148859523D01*
X97538095Y-148859523D01*
X97680952Y-148907142D01*
X98252380Y-149478571D01*
X98252380Y-148859523D01*
X179628571Y-145357142D02*
X179580952Y-145404761D01*
X179438095Y-145452380D01*
X179342857Y-145452380D01*
X179200000Y-145404761D01*
X179104761Y-145309523D01*
X179057142Y-145214285D01*
X179009523Y-145023809D01*
X179009523Y-144880952D01*
X179057142Y-144690476D01*
X179104761Y-144595238D01*
X179200000Y-144500000D01*
X179342857Y-144452380D01*
X179438095Y-144452380D01*
X179580952Y-144500000D01*
X179628571Y-144547619D01*
X180485714Y-145404761D02*
X180390476Y-145452380D01*
X180200000Y-145452380D01*
X180104761Y-145404761D01*
X180057142Y-145357142D01*
X180009523Y-145261904D01*
X180009523Y-144976190D01*
X180057142Y-144880952D01*
X180104761Y-144833333D01*
X180200000Y-144785714D01*
X180390476Y-144785714D01*
X180485714Y-144833333D01*
X181438095Y-145452380D02*
X180866666Y-145452380D01*
X181152380Y-145452380D02*
X181152380Y-144452380D01*
X181057142Y-144595238D01*
X180961904Y-144690476D01*
X180866666Y-144738095D01*
X182390476Y-145452380D02*
X181819047Y-145452380D01*
X182104761Y-145452380D02*
X182104761Y-144452380D01*
X182009523Y-144595238D01*
X181914285Y-144690476D01*
X181819047Y-144738095D01*
X182307142Y-151621428D02*
X182354761Y-151669047D01*
X182402380Y-151811904D01*
X182402380Y-151907142D01*
X182354761Y-152050000D01*
X182259523Y-152145238D01*
X182164285Y-152192857D01*
X181973809Y-152240476D01*
X181830952Y-152240476D01*
X181640476Y-152192857D01*
X181545238Y-152145238D01*
X181450000Y-152050000D01*
X181402380Y-151907142D01*
X181402380Y-151811904D01*
X181450000Y-151669047D01*
X181497619Y-151621428D01*
X182354761Y-150764285D02*
X182402380Y-150859523D01*
X182402380Y-151050000D01*
X182354761Y-151145238D01*
X182307142Y-151192857D01*
X182211904Y-151240476D01*
X181926190Y-151240476D01*
X181830952Y-151192857D01*
X181783333Y-151145238D01*
X181735714Y-151050000D01*
X181735714Y-150859523D01*
X181783333Y-150764285D01*
X182402380Y-149811904D02*
X182402380Y-150383333D01*
X182402380Y-150097619D02*
X181402380Y-150097619D01*
X181545238Y-150192857D01*
X181640476Y-150288095D01*
X181688095Y-150383333D01*
X181497619Y-149430952D02*
X181450000Y-149383333D01*
X181402380Y-149288095D01*
X181402380Y-149050000D01*
X181450000Y-148954761D01*
X181497619Y-148907142D01*
X181592857Y-148859523D01*
X181688095Y-148859523D01*
X181830952Y-148907142D01*
X182402380Y-149478571D01*
X182402380Y-148859523D01*
X81166666Y-149657142D02*
X81119047Y-149704761D01*
X80976190Y-149752380D01*
X80880952Y-149752380D01*
X80738095Y-149704761D01*
X80642857Y-149609523D01*
X80595238Y-149514285D01*
X80547619Y-149323809D01*
X80547619Y-149180952D01*
X80595238Y-148990476D01*
X80642857Y-148895238D01*
X80738095Y-148800000D01*
X80880952Y-148752380D01*
X80976190Y-148752380D01*
X81119047Y-148800000D01*
X81166666Y-148847619D01*
X81595238Y-149752380D02*
X81595238Y-149085714D01*
X81595238Y-148752380D02*
X81547619Y-148800000D01*
X81595238Y-148847619D01*
X81642857Y-148800000D01*
X81595238Y-148752380D01*
X81595238Y-148847619D01*
X82071428Y-149085714D02*
X82071428Y-149752380D01*
X82071428Y-149180952D02*
X82119047Y-149133333D01*
X82214285Y-149085714D01*
X82357142Y-149085714D01*
X82452380Y-149133333D01*
X82500000Y-149228571D01*
X82500000Y-149752380D01*
X83166666Y-148752380D02*
X83261904Y-148752380D01*
X83357142Y-148800000D01*
X83404761Y-148847619D01*
X83452380Y-148942857D01*
X83500000Y-149133333D01*
X83500000Y-149371428D01*
X83452380Y-149561904D01*
X83404761Y-149657142D01*
X83357142Y-149704761D01*
X83261904Y-149752380D01*
X83166666Y-149752380D01*
X83071428Y-149704761D01*
X83023809Y-149657142D01*
X82976190Y-149561904D01*
X82928571Y-149371428D01*
X82928571Y-149133333D01*
X82976190Y-148942857D01*
X83023809Y-148847619D01*
X83071428Y-148800000D01*
X83166666Y-148752380D01*
X84452380Y-149752380D02*
X83880952Y-149752380D01*
X84166666Y-149752380D02*
X84166666Y-148752380D01*
X84071428Y-148895238D01*
X83976190Y-148990476D01*
X83880952Y-149038095D01*
X77866666Y-143707142D02*
X77819047Y-143754761D01*
X77676190Y-143802380D01*
X77580952Y-143802380D01*
X77438095Y-143754761D01*
X77342857Y-143659523D01*
X77295238Y-143564285D01*
X77247619Y-143373809D01*
X77247619Y-143230952D01*
X77295238Y-143040476D01*
X77342857Y-142945238D01*
X77438095Y-142850000D01*
X77580952Y-142802380D01*
X77676190Y-142802380D01*
X77819047Y-142850000D01*
X77866666Y-142897619D01*
X78295238Y-143802380D02*
X78295238Y-143135714D01*
X78295238Y-142802380D02*
X78247619Y-142850000D01*
X78295238Y-142897619D01*
X78342857Y-142850000D01*
X78295238Y-142802380D01*
X78295238Y-142897619D01*
X78771428Y-143135714D02*
X78771428Y-143802380D01*
X78771428Y-143230952D02*
X78819047Y-143183333D01*
X78914285Y-143135714D01*
X79057142Y-143135714D01*
X79152380Y-143183333D01*
X79200000Y-143278571D01*
X79200000Y-143802380D01*
X79866666Y-142802380D02*
X79961904Y-142802380D01*
X80057142Y-142850000D01*
X80104761Y-142897619D01*
X80152380Y-142992857D01*
X80200000Y-143183333D01*
X80200000Y-143421428D01*
X80152380Y-143611904D01*
X80104761Y-143707142D01*
X80057142Y-143754761D01*
X79961904Y-143802380D01*
X79866666Y-143802380D01*
X79771428Y-143754761D01*
X79723809Y-143707142D01*
X79676190Y-143611904D01*
X79628571Y-143421428D01*
X79628571Y-143183333D01*
X79676190Y-142992857D01*
X79723809Y-142897619D01*
X79771428Y-142850000D01*
X79866666Y-142802380D01*
X80580952Y-142897619D02*
X80628571Y-142850000D01*
X80723809Y-142802380D01*
X80961904Y-142802380D01*
X81057142Y-142850000D01*
X81104761Y-142897619D01*
X81152380Y-142992857D01*
X81152380Y-143088095D01*
X81104761Y-143230952D01*
X80533333Y-143802380D01*
X81152380Y-143802380D01*
X165266666Y-149607142D02*
X165219047Y-149654761D01*
X165076190Y-149702380D01*
X164980952Y-149702380D01*
X164838095Y-149654761D01*
X164742857Y-149559523D01*
X164695238Y-149464285D01*
X164647619Y-149273809D01*
X164647619Y-149130952D01*
X164695238Y-148940476D01*
X164742857Y-148845238D01*
X164838095Y-148750000D01*
X164980952Y-148702380D01*
X165076190Y-148702380D01*
X165219047Y-148750000D01*
X165266666Y-148797619D01*
X165695238Y-149702380D02*
X165695238Y-149035714D01*
X165695238Y-148702380D02*
X165647619Y-148750000D01*
X165695238Y-148797619D01*
X165742857Y-148750000D01*
X165695238Y-148702380D01*
X165695238Y-148797619D01*
X166171428Y-149035714D02*
X166171428Y-149702380D01*
X166171428Y-149130952D02*
X166219047Y-149083333D01*
X166314285Y-149035714D01*
X166457142Y-149035714D01*
X166552380Y-149083333D01*
X166600000Y-149178571D01*
X166600000Y-149702380D01*
X167600000Y-149702380D02*
X167028571Y-149702380D01*
X167314285Y-149702380D02*
X167314285Y-148702380D01*
X167219047Y-148845238D01*
X167123809Y-148940476D01*
X167028571Y-148988095D01*
X168552380Y-149702380D02*
X167980952Y-149702380D01*
X168266666Y-149702380D02*
X168266666Y-148702380D01*
X168171428Y-148845238D01*
X168076190Y-148940476D01*
X167980952Y-148988095D01*
X161916666Y-143657142D02*
X161869047Y-143704761D01*
X161726190Y-143752380D01*
X161630952Y-143752380D01*
X161488095Y-143704761D01*
X161392857Y-143609523D01*
X161345238Y-143514285D01*
X161297619Y-143323809D01*
X161297619Y-143180952D01*
X161345238Y-142990476D01*
X161392857Y-142895238D01*
X161488095Y-142800000D01*
X161630952Y-142752380D01*
X161726190Y-142752380D01*
X161869047Y-142800000D01*
X161916666Y-142847619D01*
X162345238Y-143752380D02*
X162345238Y-143085714D01*
X162345238Y-142752380D02*
X162297619Y-142800000D01*
X162345238Y-142847619D01*
X162392857Y-142800000D01*
X162345238Y-142752380D01*
X162345238Y-142847619D01*
X162821428Y-143085714D02*
X162821428Y-143752380D01*
X162821428Y-143180952D02*
X162869047Y-143133333D01*
X162964285Y-143085714D01*
X163107142Y-143085714D01*
X163202380Y-143133333D01*
X163250000Y-143228571D01*
X163250000Y-143752380D01*
X164250000Y-143752380D02*
X163678571Y-143752380D01*
X163964285Y-143752380D02*
X163964285Y-142752380D01*
X163869047Y-142895238D01*
X163773809Y-142990476D01*
X163678571Y-143038095D01*
X164630952Y-142847619D02*
X164678571Y-142800000D01*
X164773809Y-142752380D01*
X165011904Y-142752380D01*
X165107142Y-142800000D01*
X165154761Y-142847619D01*
X165202380Y-142942857D01*
X165202380Y-143038095D01*
X165154761Y-143180952D01*
X164583333Y-143752380D01*
X165202380Y-143752380D01*
X123366666Y-142107142D02*
X123319047Y-142154761D01*
X123176190Y-142202380D01*
X123080952Y-142202380D01*
X122938095Y-142154761D01*
X122842857Y-142059523D01*
X122795238Y-141964285D01*
X122747619Y-141773809D01*
X122747619Y-141630952D01*
X122795238Y-141440476D01*
X122842857Y-141345238D01*
X122938095Y-141250000D01*
X123080952Y-141202380D01*
X123176190Y-141202380D01*
X123319047Y-141250000D01*
X123366666Y-141297619D01*
X123938095Y-142202380D02*
X123842857Y-142154761D01*
X123795238Y-142107142D01*
X123747619Y-142011904D01*
X123747619Y-141726190D01*
X123795238Y-141630952D01*
X123842857Y-141583333D01*
X123938095Y-141535714D01*
X124080952Y-141535714D01*
X124176190Y-141583333D01*
X124223809Y-141630952D01*
X124271428Y-141726190D01*
X124271428Y-142011904D01*
X124223809Y-142107142D01*
X124176190Y-142154761D01*
X124080952Y-142202380D01*
X123938095Y-142202380D01*
X125128571Y-141535714D02*
X125128571Y-142202380D01*
X124700000Y-141535714D02*
X124700000Y-142059523D01*
X124747619Y-142154761D01*
X124842857Y-142202380D01*
X124985714Y-142202380D01*
X125080952Y-142154761D01*
X125128571Y-142107142D01*
X125461904Y-141535714D02*
X125842857Y-141535714D01*
X125604761Y-141202380D02*
X125604761Y-142059523D01*
X125652380Y-142154761D01*
X125747619Y-142202380D01*
X125842857Y-142202380D01*
X126366666Y-141202380D02*
X126461904Y-141202380D01*
X126557142Y-141250000D01*
X126604761Y-141297619D01*
X126652380Y-141392857D01*
X126700000Y-141583333D01*
X126700000Y-141821428D01*
X126652380Y-142011904D01*
X126604761Y-142107142D01*
X126557142Y-142154761D01*
X126461904Y-142202380D01*
X126366666Y-142202380D01*
X126271428Y-142154761D01*
X126223809Y-142107142D01*
X126176190Y-142011904D01*
X126128571Y-141821428D01*
X126128571Y-141583333D01*
X126176190Y-141392857D01*
X126223809Y-141297619D01*
X126271428Y-141250000D01*
X126366666Y-141202380D01*
X127652380Y-142202380D02*
X127080952Y-142202380D01*
X127366666Y-142202380D02*
X127366666Y-141202380D01*
X127271428Y-141345238D01*
X127176190Y-141440476D01*
X127080952Y-141488095D01*
X128516666Y-143557142D02*
X128469047Y-143604761D01*
X128326190Y-143652380D01*
X128230952Y-143652380D01*
X128088095Y-143604761D01*
X127992857Y-143509523D01*
X127945238Y-143414285D01*
X127897619Y-143223809D01*
X127897619Y-143080952D01*
X127945238Y-142890476D01*
X127992857Y-142795238D01*
X128088095Y-142700000D01*
X128230952Y-142652380D01*
X128326190Y-142652380D01*
X128469047Y-142700000D01*
X128516666Y-142747619D01*
X129088095Y-143652380D02*
X128992857Y-143604761D01*
X128945238Y-143557142D01*
X128897619Y-143461904D01*
X128897619Y-143176190D01*
X128945238Y-143080952D01*
X128992857Y-143033333D01*
X129088095Y-142985714D01*
X129230952Y-142985714D01*
X129326190Y-143033333D01*
X129373809Y-143080952D01*
X129421428Y-143176190D01*
X129421428Y-143461904D01*
X129373809Y-143557142D01*
X129326190Y-143604761D01*
X129230952Y-143652380D01*
X129088095Y-143652380D01*
X130278571Y-142985714D02*
X130278571Y-143652380D01*
X129850000Y-142985714D02*
X129850000Y-143509523D01*
X129897619Y-143604761D01*
X129992857Y-143652380D01*
X130135714Y-143652380D01*
X130230952Y-143604761D01*
X130278571Y-143557142D01*
X130611904Y-142985714D02*
X130992857Y-142985714D01*
X130754761Y-142652380D02*
X130754761Y-143509523D01*
X130802380Y-143604761D01*
X130897619Y-143652380D01*
X130992857Y-143652380D01*
X131516666Y-142652380D02*
X131611904Y-142652380D01*
X131707142Y-142700000D01*
X131754761Y-142747619D01*
X131802380Y-142842857D01*
X131850000Y-143033333D01*
X131850000Y-143271428D01*
X131802380Y-143461904D01*
X131754761Y-143557142D01*
X131707142Y-143604761D01*
X131611904Y-143652380D01*
X131516666Y-143652380D01*
X131421428Y-143604761D01*
X131373809Y-143557142D01*
X131326190Y-143461904D01*
X131278571Y-143271428D01*
X131278571Y-143033333D01*
X131326190Y-142842857D01*
X131373809Y-142747619D01*
X131421428Y-142700000D01*
X131516666Y-142652380D01*
X132230952Y-142747619D02*
X132278571Y-142700000D01*
X132373809Y-142652380D01*
X132611904Y-142652380D01*
X132707142Y-142700000D01*
X132754761Y-142747619D01*
X132802380Y-142842857D01*
X132802380Y-142938095D01*
X132754761Y-143080952D01*
X132183333Y-143652380D01*
X132802380Y-143652380D01*
X203466666Y-140107142D02*
X203419047Y-140154761D01*
X203276190Y-140202380D01*
X203180952Y-140202380D01*
X203038095Y-140154761D01*
X202942857Y-140059523D01*
X202895238Y-139964285D01*
X202847619Y-139773809D01*
X202847619Y-139630952D01*
X202895238Y-139440476D01*
X202942857Y-139345238D01*
X203038095Y-139250000D01*
X203180952Y-139202380D01*
X203276190Y-139202380D01*
X203419047Y-139250000D01*
X203466666Y-139297619D01*
X204038095Y-140202380D02*
X203942857Y-140154761D01*
X203895238Y-140107142D01*
X203847619Y-140011904D01*
X203847619Y-139726190D01*
X203895238Y-139630952D01*
X203942857Y-139583333D01*
X204038095Y-139535714D01*
X204180952Y-139535714D01*
X204276190Y-139583333D01*
X204323809Y-139630952D01*
X204371428Y-139726190D01*
X204371428Y-140011904D01*
X204323809Y-140107142D01*
X204276190Y-140154761D01*
X204180952Y-140202380D01*
X204038095Y-140202380D01*
X205228571Y-139535714D02*
X205228571Y-140202380D01*
X204800000Y-139535714D02*
X204800000Y-140059523D01*
X204847619Y-140154761D01*
X204942857Y-140202380D01*
X205085714Y-140202380D01*
X205180952Y-140154761D01*
X205228571Y-140107142D01*
X205561904Y-139535714D02*
X205942857Y-139535714D01*
X205704761Y-139202380D02*
X205704761Y-140059523D01*
X205752380Y-140154761D01*
X205847619Y-140202380D01*
X205942857Y-140202380D01*
X206800000Y-140202380D02*
X206228571Y-140202380D01*
X206514285Y-140202380D02*
X206514285Y-139202380D01*
X206419047Y-139345238D01*
X206323809Y-139440476D01*
X206228571Y-139488095D01*
X207752380Y-140202380D02*
X207180952Y-140202380D01*
X207466666Y-140202380D02*
X207466666Y-139202380D01*
X207371428Y-139345238D01*
X207276190Y-139440476D01*
X207180952Y-139488095D01*
X209257142Y-151033333D02*
X209304761Y-151080952D01*
X209352380Y-151223809D01*
X209352380Y-151319047D01*
X209304761Y-151461904D01*
X209209523Y-151557142D01*
X209114285Y-151604761D01*
X208923809Y-151652380D01*
X208780952Y-151652380D01*
X208590476Y-151604761D01*
X208495238Y-151557142D01*
X208400000Y-151461904D01*
X208352380Y-151319047D01*
X208352380Y-151223809D01*
X208400000Y-151080952D01*
X208447619Y-151033333D01*
X209352380Y-150461904D02*
X209304761Y-150557142D01*
X209257142Y-150604761D01*
X209161904Y-150652380D01*
X208876190Y-150652380D01*
X208780952Y-150604761D01*
X208733333Y-150557142D01*
X208685714Y-150461904D01*
X208685714Y-150319047D01*
X208733333Y-150223809D01*
X208780952Y-150176190D01*
X208876190Y-150128571D01*
X209161904Y-150128571D01*
X209257142Y-150176190D01*
X209304761Y-150223809D01*
X209352380Y-150319047D01*
X209352380Y-150461904D01*
X208685714Y-149271428D02*
X209352380Y-149271428D01*
X208685714Y-149700000D02*
X209209523Y-149700000D01*
X209304761Y-149652380D01*
X209352380Y-149557142D01*
X209352380Y-149414285D01*
X209304761Y-149319047D01*
X209257142Y-149271428D01*
X208685714Y-148938095D02*
X208685714Y-148557142D01*
X208352380Y-148795238D02*
X209209523Y-148795238D01*
X209304761Y-148747619D01*
X209352380Y-148652380D01*
X209352380Y-148557142D01*
X209352380Y-147700000D02*
X209352380Y-148271428D01*
X209352380Y-147985714D02*
X208352380Y-147985714D01*
X208495238Y-148080952D01*
X208590476Y-148176190D01*
X208638095Y-148271428D01*
X208447619Y-147319047D02*
X208400000Y-147271428D01*
X208352380Y-147176190D01*
X208352380Y-146938095D01*
X208400000Y-146842857D01*
X208447619Y-146795238D01*
X208542857Y-146747619D01*
X208638095Y-146747619D01*
X208780952Y-146795238D01*
X209352380Y-147366666D01*
X209352380Y-146747619D01*
X99835714Y-150852380D02*
X99835714Y-149852380D01*
X100073809Y-149852380D01*
X100216666Y-149900000D01*
X100311904Y-149995238D01*
X100359523Y-150090476D01*
X100407142Y-150280952D01*
X100407142Y-150423809D01*
X100359523Y-150614285D01*
X100311904Y-150709523D01*
X100216666Y-150804761D01*
X100073809Y-150852380D01*
X99835714Y-150852380D01*
X101026190Y-149852380D02*
X101121428Y-149852380D01*
X101216666Y-149900000D01*
X101264285Y-149947619D01*
X101311904Y-150042857D01*
X101359523Y-150233333D01*
X101359523Y-150471428D01*
X101311904Y-150661904D01*
X101264285Y-150757142D01*
X101216666Y-150804761D01*
X101121428Y-150852380D01*
X101026190Y-150852380D01*
X100930952Y-150804761D01*
X100883333Y-150757142D01*
X100835714Y-150661904D01*
X100788095Y-150471428D01*
X100788095Y-150233333D01*
X100835714Y-150042857D01*
X100883333Y-149947619D01*
X100930952Y-149900000D01*
X101026190Y-149852380D01*
X102311904Y-150852380D02*
X101740476Y-150852380D01*
X102026190Y-150852380D02*
X102026190Y-149852380D01*
X101930952Y-149995238D01*
X101835714Y-150090476D01*
X101740476Y-150138095D01*
X183885714Y-150702380D02*
X183885714Y-149702380D01*
X184123809Y-149702380D01*
X184266666Y-149750000D01*
X184361904Y-149845238D01*
X184409523Y-149940476D01*
X184457142Y-150130952D01*
X184457142Y-150273809D01*
X184409523Y-150464285D01*
X184361904Y-150559523D01*
X184266666Y-150654761D01*
X184123809Y-150702380D01*
X183885714Y-150702380D01*
X185409523Y-150702380D02*
X184838095Y-150702380D01*
X185123809Y-150702380D02*
X185123809Y-149702380D01*
X185028571Y-149845238D01*
X184933333Y-149940476D01*
X184838095Y-149988095D01*
X186361904Y-150702380D02*
X185790476Y-150702380D01*
X186076190Y-150702380D02*
X186076190Y-149702380D01*
X185980952Y-149845238D01*
X185885714Y-149940476D01*
X185790476Y-149988095D01*
X105007142Y-153652380D02*
X104530952Y-153652380D01*
X104530952Y-152652380D01*
X105530952Y-152652380D02*
X105626190Y-152652380D01*
X105721428Y-152700000D01*
X105769047Y-152747619D01*
X105816666Y-152842857D01*
X105864285Y-153033333D01*
X105864285Y-153271428D01*
X105816666Y-153461904D01*
X105769047Y-153557142D01*
X105721428Y-153604761D01*
X105626190Y-153652380D01*
X105530952Y-153652380D01*
X105435714Y-153604761D01*
X105388095Y-153557142D01*
X105340476Y-153461904D01*
X105292857Y-153271428D01*
X105292857Y-153033333D01*
X105340476Y-152842857D01*
X105388095Y-152747619D01*
X105435714Y-152700000D01*
X105530952Y-152652380D01*
X106816666Y-153652380D02*
X106245238Y-153652380D01*
X106530952Y-153652380D02*
X106530952Y-152652380D01*
X106435714Y-152795238D01*
X106340476Y-152890476D01*
X106245238Y-152938095D01*
X80552380Y-44516666D02*
X80552380Y-44992857D01*
X79552380Y-44992857D01*
X79647619Y-44230952D02*
X79600000Y-44183333D01*
X79552380Y-44088095D01*
X79552380Y-43850000D01*
X79600000Y-43754761D01*
X79647619Y-43707142D01*
X79742857Y-43659523D01*
X79838095Y-43659523D01*
X79980952Y-43707142D01*
X80552380Y-44278571D01*
X80552380Y-43659523D01*
X26502380Y-44666666D02*
X26502380Y-45142857D01*
X25502380Y-45142857D01*
X25502380Y-44428571D02*
X25502380Y-43809523D01*
X25883333Y-44142857D01*
X25883333Y-44000000D01*
X25930952Y-43904761D01*
X25978571Y-43857142D01*
X26073809Y-43809523D01*
X26311904Y-43809523D01*
X26407142Y-43857142D01*
X26454761Y-43904761D01*
X26502380Y-44000000D01*
X26502380Y-44285714D01*
X26454761Y-44380952D01*
X26407142Y-44428571D01*
X188907142Y-151352380D02*
X188430952Y-151352380D01*
X188430952Y-150352380D01*
X189764285Y-151352380D02*
X189192857Y-151352380D01*
X189478571Y-151352380D02*
X189478571Y-150352380D01*
X189383333Y-150495238D01*
X189288095Y-150590476D01*
X189192857Y-150638095D01*
X190716666Y-151352380D02*
X190145238Y-151352380D01*
X190430952Y-151352380D02*
X190430952Y-150352380D01*
X190335714Y-150495238D01*
X190240476Y-150590476D01*
X190145238Y-150638095D01*
X186952380Y-43919047D02*
X186952380Y-44395238D01*
X185952380Y-44395238D01*
X186952380Y-43061904D02*
X186952380Y-43633333D01*
X186952380Y-43347619D02*
X185952380Y-43347619D01*
X186095238Y-43442857D01*
X186190476Y-43538095D01*
X186238095Y-43633333D01*
X186952380Y-42109523D02*
X186952380Y-42680952D01*
X186952380Y-42395238D02*
X185952380Y-42395238D01*
X186095238Y-42490476D01*
X186190476Y-42585714D01*
X186238095Y-42680952D01*
X186952380Y-41157142D02*
X186952380Y-41728571D01*
X186952380Y-41442857D02*
X185952380Y-41442857D01*
X186095238Y-41538095D01*
X186190476Y-41633333D01*
X186238095Y-41728571D01*
X132952380Y-44019047D02*
X132952380Y-44495238D01*
X131952380Y-44495238D01*
X132952380Y-43161904D02*
X132952380Y-43733333D01*
X132952380Y-43447619D02*
X131952380Y-43447619D01*
X132095238Y-43542857D01*
X132190476Y-43638095D01*
X132238095Y-43733333D01*
X132047619Y-42780952D02*
X132000000Y-42733333D01*
X131952380Y-42638095D01*
X131952380Y-42400000D01*
X132000000Y-42304761D01*
X132047619Y-42257142D01*
X132142857Y-42209523D01*
X132238095Y-42209523D01*
X132380952Y-42257142D01*
X132952380Y-42828571D01*
X132952380Y-42209523D01*
X132047619Y-41828571D02*
X132000000Y-41780952D01*
X131952380Y-41685714D01*
X131952380Y-41447619D01*
X132000000Y-41352380D01*
X132047619Y-41304761D01*
X132142857Y-41257142D01*
X132238095Y-41257142D01*
X132380952Y-41304761D01*
X132952380Y-41876190D01*
X132952380Y-41257142D01*
X96752380Y-154571428D02*
X96276190Y-154904761D01*
X96752380Y-155142857D02*
X95752380Y-155142857D01*
X95752380Y-154761904D01*
X95800000Y-154666666D01*
X95847619Y-154619047D01*
X95942857Y-154571428D01*
X96085714Y-154571428D01*
X96180952Y-154619047D01*
X96228571Y-154666666D01*
X96276190Y-154761904D01*
X96276190Y-155142857D01*
X96704761Y-153714285D02*
X96752380Y-153809523D01*
X96752380Y-154000000D01*
X96704761Y-154095238D01*
X96657142Y-154142857D01*
X96561904Y-154190476D01*
X96276190Y-154190476D01*
X96180952Y-154142857D01*
X96133333Y-154095238D01*
X96085714Y-154000000D01*
X96085714Y-153809523D01*
X96133333Y-153714285D01*
X95752380Y-153095238D02*
X95752380Y-153000000D01*
X95800000Y-152904761D01*
X95847619Y-152857142D01*
X95942857Y-152809523D01*
X96133333Y-152761904D01*
X96371428Y-152761904D01*
X96561904Y-152809523D01*
X96657142Y-152857142D01*
X96704761Y-152904761D01*
X96752380Y-153000000D01*
X96752380Y-153095238D01*
X96704761Y-153190476D01*
X96657142Y-153238095D01*
X96561904Y-153285714D01*
X96371428Y-153333333D01*
X96133333Y-153333333D01*
X95942857Y-153285714D01*
X95847619Y-153238095D01*
X95800000Y-153190476D01*
X95752380Y-153095238D01*
X96752380Y-151809523D02*
X96752380Y-152380952D01*
X96752380Y-152095238D02*
X95752380Y-152095238D01*
X95895238Y-152190476D01*
X95990476Y-152285714D01*
X96038095Y-152380952D01*
X180902380Y-154521428D02*
X180426190Y-154854761D01*
X180902380Y-155092857D02*
X179902380Y-155092857D01*
X179902380Y-154711904D01*
X179950000Y-154616666D01*
X179997619Y-154569047D01*
X180092857Y-154521428D01*
X180235714Y-154521428D01*
X180330952Y-154569047D01*
X180378571Y-154616666D01*
X180426190Y-154711904D01*
X180426190Y-155092857D01*
X180854761Y-153664285D02*
X180902380Y-153759523D01*
X180902380Y-153950000D01*
X180854761Y-154045238D01*
X180807142Y-154092857D01*
X180711904Y-154140476D01*
X180426190Y-154140476D01*
X180330952Y-154092857D01*
X180283333Y-154045238D01*
X180235714Y-153950000D01*
X180235714Y-153759523D01*
X180283333Y-153664285D01*
X180902380Y-152711904D02*
X180902380Y-153283333D01*
X180902380Y-152997619D02*
X179902380Y-152997619D01*
X180045238Y-153092857D01*
X180140476Y-153188095D01*
X180188095Y-153283333D01*
X180902380Y-151759523D02*
X180902380Y-152330952D01*
X180902380Y-152045238D02*
X179902380Y-152045238D01*
X180045238Y-152140476D01*
X180140476Y-152235714D01*
X180188095Y-152330952D01*
X94002380Y-153700000D02*
X93526190Y-154033333D01*
X94002380Y-154271428D02*
X93002380Y-154271428D01*
X93002380Y-153890476D01*
X93050000Y-153795238D01*
X93097619Y-153747619D01*
X93192857Y-153700000D01*
X93335714Y-153700000D01*
X93430952Y-153747619D01*
X93478571Y-153795238D01*
X93526190Y-153890476D01*
X93526190Y-154271428D01*
X94002380Y-153271428D02*
X93002380Y-153271428D01*
X94002380Y-152842857D02*
X93478571Y-152842857D01*
X93383333Y-152890476D01*
X93335714Y-152985714D01*
X93335714Y-153128571D01*
X93383333Y-153223809D01*
X93430952Y-153271428D01*
X93954761Y-152414285D02*
X94002380Y-152319047D01*
X94002380Y-152128571D01*
X93954761Y-152033333D01*
X93859523Y-151985714D01*
X93811904Y-151985714D01*
X93716666Y-152033333D01*
X93669047Y-152128571D01*
X93669047Y-152271428D01*
X93621428Y-152366666D01*
X93526190Y-152414285D01*
X93478571Y-152414285D01*
X93383333Y-152366666D01*
X93335714Y-152271428D01*
X93335714Y-152128571D01*
X93383333Y-152033333D01*
X93002380Y-151366666D02*
X93002380Y-151271428D01*
X93050000Y-151176190D01*
X93097619Y-151128571D01*
X93192857Y-151080952D01*
X93383333Y-151033333D01*
X93621428Y-151033333D01*
X93811904Y-151080952D01*
X93907142Y-151128571D01*
X93954761Y-151176190D01*
X94002380Y-151271428D01*
X94002380Y-151366666D01*
X93954761Y-151461904D01*
X93907142Y-151509523D01*
X93811904Y-151557142D01*
X93621428Y-151604761D01*
X93383333Y-151604761D01*
X93192857Y-151557142D01*
X93097619Y-151509523D01*
X93050000Y-151461904D01*
X93002380Y-151366666D01*
X94002380Y-150080952D02*
X94002380Y-150652380D01*
X94002380Y-150366666D02*
X93002380Y-150366666D01*
X93145238Y-150461904D01*
X93240476Y-150557142D01*
X93288095Y-150652380D01*
X178352380Y-153550000D02*
X177876190Y-153883333D01*
X178352380Y-154121428D02*
X177352380Y-154121428D01*
X177352380Y-153740476D01*
X177400000Y-153645238D01*
X177447619Y-153597619D01*
X177542857Y-153550000D01*
X177685714Y-153550000D01*
X177780952Y-153597619D01*
X177828571Y-153645238D01*
X177876190Y-153740476D01*
X177876190Y-154121428D01*
X178352380Y-153121428D02*
X177352380Y-153121428D01*
X178352380Y-152692857D02*
X177828571Y-152692857D01*
X177733333Y-152740476D01*
X177685714Y-152835714D01*
X177685714Y-152978571D01*
X177733333Y-153073809D01*
X177780952Y-153121428D01*
X178304761Y-152264285D02*
X178352380Y-152169047D01*
X178352380Y-151978571D01*
X178304761Y-151883333D01*
X178209523Y-151835714D01*
X178161904Y-151835714D01*
X178066666Y-151883333D01*
X178019047Y-151978571D01*
X178019047Y-152121428D01*
X177971428Y-152216666D01*
X177876190Y-152264285D01*
X177828571Y-152264285D01*
X177733333Y-152216666D01*
X177685714Y-152121428D01*
X177685714Y-151978571D01*
X177733333Y-151883333D01*
X178352380Y-150883333D02*
X178352380Y-151454761D01*
X178352380Y-151169047D02*
X177352380Y-151169047D01*
X177495238Y-151264285D01*
X177590476Y-151359523D01*
X177638095Y-151454761D01*
X178352380Y-149930952D02*
X178352380Y-150502380D01*
X178352380Y-150216666D02*
X177352380Y-150216666D01*
X177495238Y-150311904D01*
X177590476Y-150407142D01*
X177638095Y-150502380D01*
X92552380Y-154759523D02*
X92076190Y-155092857D01*
X92552380Y-155330952D02*
X91552380Y-155330952D01*
X91552380Y-154950000D01*
X91600000Y-154854761D01*
X91647619Y-154807142D01*
X91742857Y-154759523D01*
X91885714Y-154759523D01*
X91980952Y-154807142D01*
X92028571Y-154854761D01*
X92076190Y-154950000D01*
X92076190Y-155330952D01*
X92552380Y-154188095D02*
X92504761Y-154283333D01*
X92409523Y-154330952D01*
X91552380Y-154330952D01*
X92504761Y-153854761D02*
X92552380Y-153759523D01*
X92552380Y-153569047D01*
X92504761Y-153473809D01*
X92409523Y-153426190D01*
X92361904Y-153426190D01*
X92266666Y-153473809D01*
X92219047Y-153569047D01*
X92219047Y-153711904D01*
X92171428Y-153807142D01*
X92076190Y-153854761D01*
X92028571Y-153854761D01*
X91933333Y-153807142D01*
X91885714Y-153711904D01*
X91885714Y-153569047D01*
X91933333Y-153473809D01*
X91552380Y-152807142D02*
X91552380Y-152711904D01*
X91600000Y-152616666D01*
X91647619Y-152569047D01*
X91742857Y-152521428D01*
X91933333Y-152473809D01*
X92171428Y-152473809D01*
X92361904Y-152521428D01*
X92457142Y-152569047D01*
X92504761Y-152616666D01*
X92552380Y-152711904D01*
X92552380Y-152807142D01*
X92504761Y-152902380D01*
X92457142Y-152950000D01*
X92361904Y-152997619D01*
X92171428Y-153045238D01*
X91933333Y-153045238D01*
X91742857Y-152997619D01*
X91647619Y-152950000D01*
X91600000Y-152902380D01*
X91552380Y-152807142D01*
X92552380Y-151521428D02*
X92552380Y-152092857D01*
X92552380Y-151807142D02*
X91552380Y-151807142D01*
X91695238Y-151902380D01*
X91790476Y-151997619D01*
X91838095Y-152092857D01*
X176702380Y-154709523D02*
X176226190Y-155042857D01*
X176702380Y-155280952D02*
X175702380Y-155280952D01*
X175702380Y-154900000D01*
X175750000Y-154804761D01*
X175797619Y-154757142D01*
X175892857Y-154709523D01*
X176035714Y-154709523D01*
X176130952Y-154757142D01*
X176178571Y-154804761D01*
X176226190Y-154900000D01*
X176226190Y-155280952D01*
X176702380Y-154138095D02*
X176654761Y-154233333D01*
X176559523Y-154280952D01*
X175702380Y-154280952D01*
X176654761Y-153804761D02*
X176702380Y-153709523D01*
X176702380Y-153519047D01*
X176654761Y-153423809D01*
X176559523Y-153376190D01*
X176511904Y-153376190D01*
X176416666Y-153423809D01*
X176369047Y-153519047D01*
X176369047Y-153661904D01*
X176321428Y-153757142D01*
X176226190Y-153804761D01*
X176178571Y-153804761D01*
X176083333Y-153757142D01*
X176035714Y-153661904D01*
X176035714Y-153519047D01*
X176083333Y-153423809D01*
X176702380Y-152423809D02*
X176702380Y-152995238D01*
X176702380Y-152709523D02*
X175702380Y-152709523D01*
X175845238Y-152804761D01*
X175940476Y-152900000D01*
X175988095Y-152995238D01*
X176702380Y-151471428D02*
X176702380Y-152042857D01*
X176702380Y-151757142D02*
X175702380Y-151757142D01*
X175845238Y-151852380D01*
X175940476Y-151947619D01*
X175988095Y-152042857D01*
X87602380Y-153923809D02*
X87126190Y-154257142D01*
X87602380Y-154495238D02*
X86602380Y-154495238D01*
X86602380Y-154114285D01*
X86650000Y-154019047D01*
X86697619Y-153971428D01*
X86792857Y-153923809D01*
X86935714Y-153923809D01*
X87030952Y-153971428D01*
X87078571Y-154019047D01*
X87126190Y-154114285D01*
X87126190Y-154495238D01*
X86602380Y-153638095D02*
X86602380Y-153066666D01*
X87602380Y-153352380D02*
X86602380Y-153352380D01*
X86602380Y-152542857D02*
X86602380Y-152447619D01*
X86650000Y-152352380D01*
X86697619Y-152304761D01*
X86792857Y-152257142D01*
X86983333Y-152209523D01*
X87221428Y-152209523D01*
X87411904Y-152257142D01*
X87507142Y-152304761D01*
X87554761Y-152352380D01*
X87602380Y-152447619D01*
X87602380Y-152542857D01*
X87554761Y-152638095D01*
X87507142Y-152685714D01*
X87411904Y-152733333D01*
X87221428Y-152780952D01*
X86983333Y-152780952D01*
X86792857Y-152733333D01*
X86697619Y-152685714D01*
X86650000Y-152638095D01*
X86602380Y-152542857D01*
X87602380Y-151257142D02*
X87602380Y-151828571D01*
X87602380Y-151542857D02*
X86602380Y-151542857D01*
X86745238Y-151638095D01*
X86840476Y-151733333D01*
X86888095Y-151828571D01*
X171702380Y-153873809D02*
X171226190Y-154207142D01*
X171702380Y-154445238D02*
X170702380Y-154445238D01*
X170702380Y-154064285D01*
X170750000Y-153969047D01*
X170797619Y-153921428D01*
X170892857Y-153873809D01*
X171035714Y-153873809D01*
X171130952Y-153921428D01*
X171178571Y-153969047D01*
X171226190Y-154064285D01*
X171226190Y-154445238D01*
X170702380Y-153588095D02*
X170702380Y-153016666D01*
X171702380Y-153302380D02*
X170702380Y-153302380D01*
X171702380Y-152159523D02*
X171702380Y-152730952D01*
X171702380Y-152445238D02*
X170702380Y-152445238D01*
X170845238Y-152540476D01*
X170940476Y-152635714D01*
X170988095Y-152730952D01*
X171702380Y-151207142D02*
X171702380Y-151778571D01*
X171702380Y-151492857D02*
X170702380Y-151492857D01*
X170845238Y-151588095D01*
X170940476Y-151683333D01*
X170988095Y-151778571D01*
X85852380Y-143376190D02*
X85376190Y-143709523D01*
X85852380Y-143947619D02*
X84852380Y-143947619D01*
X84852380Y-143566666D01*
X84900000Y-143471428D01*
X84947619Y-143423809D01*
X85042857Y-143376190D01*
X85185714Y-143376190D01*
X85280952Y-143423809D01*
X85328571Y-143471428D01*
X85376190Y-143566666D01*
X85376190Y-143947619D01*
X85185714Y-142519047D02*
X85852380Y-142519047D01*
X85185714Y-142947619D02*
X85709523Y-142947619D01*
X85804761Y-142900000D01*
X85852380Y-142804761D01*
X85852380Y-142661904D01*
X85804761Y-142566666D01*
X85757142Y-142519047D01*
X85185714Y-142138095D02*
X85852380Y-141900000D01*
X85185714Y-141661904D01*
X84852380Y-141090476D02*
X84852380Y-140995238D01*
X84900000Y-140900000D01*
X84947619Y-140852380D01*
X85042857Y-140804761D01*
X85233333Y-140757142D01*
X85471428Y-140757142D01*
X85661904Y-140804761D01*
X85757142Y-140852380D01*
X85804761Y-140900000D01*
X85852380Y-140995238D01*
X85852380Y-141090476D01*
X85804761Y-141185714D01*
X85757142Y-141233333D01*
X85661904Y-141280952D01*
X85471428Y-141328571D01*
X85233333Y-141328571D01*
X85042857Y-141280952D01*
X84947619Y-141233333D01*
X84900000Y-141185714D01*
X84852380Y-141090476D01*
X85852380Y-139804761D02*
X85852380Y-140376190D01*
X85852380Y-140090476D02*
X84852380Y-140090476D01*
X84995238Y-140185714D01*
X85090476Y-140280952D01*
X85138095Y-140376190D01*
X85852380Y-154026190D02*
X85376190Y-154359523D01*
X85852380Y-154597619D02*
X84852380Y-154597619D01*
X84852380Y-154216666D01*
X84900000Y-154121428D01*
X84947619Y-154073809D01*
X85042857Y-154026190D01*
X85185714Y-154026190D01*
X85280952Y-154073809D01*
X85328571Y-154121428D01*
X85376190Y-154216666D01*
X85376190Y-154597619D01*
X85185714Y-153169047D02*
X85852380Y-153169047D01*
X85185714Y-153597619D02*
X85709523Y-153597619D01*
X85804761Y-153550000D01*
X85852380Y-153454761D01*
X85852380Y-153311904D01*
X85804761Y-153216666D01*
X85757142Y-153169047D01*
X85185714Y-152788095D02*
X85852380Y-152550000D01*
X85185714Y-152311904D01*
X84852380Y-151740476D02*
X84852380Y-151645238D01*
X84900000Y-151550000D01*
X84947619Y-151502380D01*
X85042857Y-151454761D01*
X85233333Y-151407142D01*
X85471428Y-151407142D01*
X85661904Y-151454761D01*
X85757142Y-151502380D01*
X85804761Y-151550000D01*
X85852380Y-151645238D01*
X85852380Y-151740476D01*
X85804761Y-151835714D01*
X85757142Y-151883333D01*
X85661904Y-151930952D01*
X85471428Y-151978571D01*
X85233333Y-151978571D01*
X85042857Y-151930952D01*
X84947619Y-151883333D01*
X84900000Y-151835714D01*
X84852380Y-151740476D01*
X84947619Y-151026190D02*
X84900000Y-150978571D01*
X84852380Y-150883333D01*
X84852380Y-150645238D01*
X84900000Y-150550000D01*
X84947619Y-150502380D01*
X85042857Y-150454761D01*
X85138095Y-150454761D01*
X85280952Y-150502380D01*
X85852380Y-151073809D01*
X85852380Y-150454761D01*
X170002380Y-143326190D02*
X169526190Y-143659523D01*
X170002380Y-143897619D02*
X169002380Y-143897619D01*
X169002380Y-143516666D01*
X169050000Y-143421428D01*
X169097619Y-143373809D01*
X169192857Y-143326190D01*
X169335714Y-143326190D01*
X169430952Y-143373809D01*
X169478571Y-143421428D01*
X169526190Y-143516666D01*
X169526190Y-143897619D01*
X169335714Y-142469047D02*
X170002380Y-142469047D01*
X169335714Y-142897619D02*
X169859523Y-142897619D01*
X169954761Y-142850000D01*
X170002380Y-142754761D01*
X170002380Y-142611904D01*
X169954761Y-142516666D01*
X169907142Y-142469047D01*
X169335714Y-142088095D02*
X170002380Y-141850000D01*
X169335714Y-141611904D01*
X170002380Y-140707142D02*
X170002380Y-141278571D01*
X170002380Y-140992857D02*
X169002380Y-140992857D01*
X169145238Y-141088095D01*
X169240476Y-141183333D01*
X169288095Y-141278571D01*
X170002380Y-139754761D02*
X170002380Y-140326190D01*
X170002380Y-140040476D02*
X169002380Y-140040476D01*
X169145238Y-140135714D01*
X169240476Y-140230952D01*
X169288095Y-140326190D01*
X170002380Y-154076190D02*
X169526190Y-154409523D01*
X170002380Y-154647619D02*
X169002380Y-154647619D01*
X169002380Y-154266666D01*
X169050000Y-154171428D01*
X169097619Y-154123809D01*
X169192857Y-154076190D01*
X169335714Y-154076190D01*
X169430952Y-154123809D01*
X169478571Y-154171428D01*
X169526190Y-154266666D01*
X169526190Y-154647619D01*
X169335714Y-153219047D02*
X170002380Y-153219047D01*
X169335714Y-153647619D02*
X169859523Y-153647619D01*
X169954761Y-153600000D01*
X170002380Y-153504761D01*
X170002380Y-153361904D01*
X169954761Y-153266666D01*
X169907142Y-153219047D01*
X169335714Y-152838095D02*
X170002380Y-152600000D01*
X169335714Y-152361904D01*
X170002380Y-151457142D02*
X170002380Y-152028571D01*
X170002380Y-151742857D02*
X169002380Y-151742857D01*
X169145238Y-151838095D01*
X169240476Y-151933333D01*
X169288095Y-152028571D01*
X169097619Y-151076190D02*
X169050000Y-151028571D01*
X169002380Y-150933333D01*
X169002380Y-150695238D01*
X169050000Y-150600000D01*
X169097619Y-150552380D01*
X169192857Y-150504761D01*
X169288095Y-150504761D01*
X169430952Y-150552380D01*
X170002380Y-151123809D01*
X170002380Y-150504761D01*
X217302380Y-134059523D02*
X218016666Y-134059523D01*
X218159523Y-134107142D01*
X218254761Y-134202380D01*
X218302380Y-134345238D01*
X218302380Y-134440476D01*
X217302380Y-133392857D02*
X217302380Y-133297619D01*
X217350000Y-133202380D01*
X217397619Y-133154761D01*
X217492857Y-133107142D01*
X217683333Y-133059523D01*
X217921428Y-133059523D01*
X218111904Y-133107142D01*
X218207142Y-133154761D01*
X218254761Y-133202380D01*
X218302380Y-133297619D01*
X218302380Y-133392857D01*
X218254761Y-133488095D01*
X218207142Y-133535714D01*
X218111904Y-133583333D01*
X217921428Y-133630952D01*
X217683333Y-133630952D01*
X217492857Y-133583333D01*
X217397619Y-133535714D01*
X217350000Y-133488095D01*
X217302380Y-133392857D01*
X217302380Y-132440476D02*
X217302380Y-132345238D01*
X217350000Y-132250000D01*
X217397619Y-132202380D01*
X217492857Y-132154761D01*
X217683333Y-132107142D01*
X217921428Y-132107142D01*
X218111904Y-132154761D01*
X218207142Y-132202380D01*
X218254761Y-132250000D01*
X218302380Y-132345238D01*
X218302380Y-132440476D01*
X218254761Y-132535714D01*
X218207142Y-132583333D01*
X218111904Y-132630952D01*
X217921428Y-132678571D01*
X217683333Y-132678571D01*
X217492857Y-132630952D01*
X217397619Y-132583333D01*
X217350000Y-132535714D01*
X217302380Y-132440476D01*
X140252380Y-148859523D02*
X140966666Y-148859523D01*
X141109523Y-148907142D01*
X141204761Y-149002380D01*
X141252380Y-149145238D01*
X141252380Y-149240476D01*
X140252380Y-148192857D02*
X140252380Y-148097619D01*
X140300000Y-148002380D01*
X140347619Y-147954761D01*
X140442857Y-147907142D01*
X140633333Y-147859523D01*
X140871428Y-147859523D01*
X141061904Y-147907142D01*
X141157142Y-147954761D01*
X141204761Y-148002380D01*
X141252380Y-148097619D01*
X141252380Y-148192857D01*
X141204761Y-148288095D01*
X141157142Y-148335714D01*
X141061904Y-148383333D01*
X140871428Y-148430952D01*
X140633333Y-148430952D01*
X140442857Y-148383333D01*
X140347619Y-148335714D01*
X140300000Y-148288095D01*
X140252380Y-148192857D01*
X140585714Y-147002380D02*
X141252380Y-147002380D01*
X140204761Y-147240476D02*
X140919047Y-147478571D01*
X140919047Y-146859523D01*
X88561904Y-148402380D02*
X88561904Y-149211904D01*
X88609523Y-149307142D01*
X88657142Y-149354761D01*
X88752380Y-149402380D01*
X88942857Y-149402380D01*
X89038095Y-149354761D01*
X89085714Y-149307142D01*
X89133333Y-149211904D01*
X89133333Y-148402380D01*
X89800000Y-148402380D02*
X89895238Y-148402380D01*
X89990476Y-148450000D01*
X90038095Y-148497619D01*
X90085714Y-148592857D01*
X90133333Y-148783333D01*
X90133333Y-149021428D01*
X90085714Y-149211904D01*
X90038095Y-149307142D01*
X89990476Y-149354761D01*
X89895238Y-149402380D01*
X89800000Y-149402380D01*
X89704761Y-149354761D01*
X89657142Y-149307142D01*
X89609523Y-149211904D01*
X89561904Y-149021428D01*
X89561904Y-148783333D01*
X89609523Y-148592857D01*
X89657142Y-148497619D01*
X89704761Y-148450000D01*
X89800000Y-148402380D01*
X90990476Y-148735714D02*
X90990476Y-149402380D01*
X90752380Y-148354761D02*
X90514285Y-149069047D01*
X91133333Y-149069047D01*
X172461904Y-148427380D02*
X172461904Y-149236904D01*
X172509523Y-149332142D01*
X172557142Y-149379761D01*
X172652380Y-149427380D01*
X172842857Y-149427380D01*
X172938095Y-149379761D01*
X172985714Y-149332142D01*
X173033333Y-149236904D01*
X173033333Y-148427380D01*
X174033333Y-149427380D02*
X173461904Y-149427380D01*
X173747619Y-149427380D02*
X173747619Y-148427380D01*
X173652380Y-148570238D01*
X173557142Y-148665476D01*
X173461904Y-148713095D01*
X174890476Y-148760714D02*
X174890476Y-149427380D01*
X174652380Y-148379761D02*
X174414285Y-149094047D01*
X175033333Y-149094047D01*
X25788095Y-27352380D02*
X25788095Y-26352380D01*
X25788095Y-26828571D02*
X26359523Y-26828571D01*
X26359523Y-27352380D02*
X26359523Y-26352380D01*
X27264285Y-26685714D02*
X27264285Y-27352380D01*
X27026190Y-26304761D02*
X26788095Y-27019047D01*
X27407142Y-27019047D01*
X130038095Y-27352380D02*
X130038095Y-26352380D01*
X130038095Y-26828571D02*
X130609523Y-26828571D01*
X130609523Y-27352380D02*
X130609523Y-26352380D01*
X131561904Y-26352380D02*
X131085714Y-26352380D01*
X131038095Y-26828571D01*
X131085714Y-26780952D01*
X131180952Y-26733333D01*
X131419047Y-26733333D01*
X131514285Y-26780952D01*
X131561904Y-26828571D01*
X131609523Y-26923809D01*
X131609523Y-27161904D01*
X131561904Y-27257142D01*
X131514285Y-27304761D01*
X131419047Y-27352380D01*
X131180952Y-27352380D01*
X131085714Y-27304761D01*
X131038095Y-27257142D01*
X206788095Y-27352380D02*
X206788095Y-26352380D01*
X206788095Y-26828571D02*
X207359523Y-26828571D01*
X207359523Y-27352380D02*
X207359523Y-26352380D01*
X208264285Y-26352380D02*
X208073809Y-26352380D01*
X207978571Y-26400000D01*
X207930952Y-26447619D01*
X207835714Y-26590476D01*
X207788095Y-26780952D01*
X207788095Y-27161904D01*
X207835714Y-27257142D01*
X207883333Y-27304761D01*
X207978571Y-27352380D01*
X208169047Y-27352380D01*
X208264285Y-27304761D01*
X208311904Y-27257142D01*
X208359523Y-27161904D01*
X208359523Y-26923809D01*
X208311904Y-26828571D01*
X208264285Y-26780952D01*
X208169047Y-26733333D01*
X207978571Y-26733333D01*
X207883333Y-26780952D01*
X207835714Y-26828571D01*
X207788095Y-26923809D01*
X61066666Y-39502380D02*
X61066666Y-40216666D01*
X61019047Y-40359523D01*
X60923809Y-40454761D01*
X60780952Y-40502380D01*
X60685714Y-40502380D01*
X61495238Y-39597619D02*
X61542857Y-39550000D01*
X61638095Y-39502380D01*
X61876190Y-39502380D01*
X61971428Y-39550000D01*
X62019047Y-39597619D01*
X62066666Y-39692857D01*
X62066666Y-39788095D01*
X62019047Y-39930952D01*
X61447619Y-40502380D01*
X62066666Y-40502380D01*
X115066666Y-39502380D02*
X115066666Y-40216666D01*
X115019047Y-40359523D01*
X114923809Y-40454761D01*
X114780952Y-40502380D01*
X114685714Y-40502380D01*
X115447619Y-39502380D02*
X116066666Y-39502380D01*
X115733333Y-39883333D01*
X115876190Y-39883333D01*
X115971428Y-39930952D01*
X116019047Y-39978571D01*
X116066666Y-40073809D01*
X116066666Y-40311904D01*
X116019047Y-40407142D01*
X115971428Y-40454761D01*
X115876190Y-40502380D01*
X115590476Y-40502380D01*
X115495238Y-40454761D01*
X115447619Y-40407142D01*
X222590476Y-39502380D02*
X222590476Y-40216666D01*
X222542857Y-40359523D01*
X222447619Y-40454761D01*
X222304761Y-40502380D01*
X222209523Y-40502380D01*
X223590476Y-40502380D02*
X223019047Y-40502380D01*
X223304761Y-40502380D02*
X223304761Y-39502380D01*
X223209523Y-39645238D01*
X223114285Y-39740476D01*
X223019047Y-39788095D01*
X224542857Y-40502380D02*
X223971428Y-40502380D01*
X224257142Y-40502380D02*
X224257142Y-39502380D01*
X224161904Y-39645238D01*
X224066666Y-39740476D01*
X223971428Y-39788095D01*
X168590476Y-39502380D02*
X168590476Y-40216666D01*
X168542857Y-40359523D01*
X168447619Y-40454761D01*
X168304761Y-40502380D01*
X168209523Y-40502380D01*
X169590476Y-40502380D02*
X169019047Y-40502380D01*
X169304761Y-40502380D02*
X169304761Y-39502380D01*
X169209523Y-39645238D01*
X169114285Y-39740476D01*
X169019047Y-39788095D01*
X169971428Y-39597619D02*
X170019047Y-39550000D01*
X170114285Y-39502380D01*
X170352380Y-39502380D01*
X170447619Y-39550000D01*
X170495238Y-39597619D01*
X170542857Y-39692857D01*
X170542857Y-39788095D01*
X170495238Y-39930952D01*
X169923809Y-40502380D01*
X170542857Y-40502380D01*
X72988095Y-126802380D02*
X72988095Y-127611904D01*
X73035714Y-127707142D01*
X73083333Y-127754761D01*
X73178571Y-127802380D01*
X73369047Y-127802380D01*
X73464285Y-127754761D01*
X73511904Y-127707142D01*
X73559523Y-127611904D01*
X73559523Y-126802380D01*
X73988095Y-126897619D02*
X74035714Y-126850000D01*
X74130952Y-126802380D01*
X74369047Y-126802380D01*
X74464285Y-126850000D01*
X74511904Y-126897619D01*
X74559523Y-126992857D01*
X74559523Y-127088095D01*
X74511904Y-127230952D01*
X73940476Y-127802380D01*
X74559523Y-127802380D01*
X18988095Y-126752380D02*
X18988095Y-127561904D01*
X19035714Y-127657142D01*
X19083333Y-127704761D01*
X19178571Y-127752380D01*
X19369047Y-127752380D01*
X19464285Y-127704761D01*
X19511904Y-127657142D01*
X19559523Y-127561904D01*
X19559523Y-126752380D01*
X19940476Y-126752380D02*
X20559523Y-126752380D01*
X20226190Y-127133333D01*
X20369047Y-127133333D01*
X20464285Y-127180952D01*
X20511904Y-127228571D01*
X20559523Y-127323809D01*
X20559523Y-127561904D01*
X20511904Y-127657142D01*
X20464285Y-127704761D01*
X20369047Y-127752380D01*
X20083333Y-127752380D01*
X19988095Y-127704761D01*
X19940476Y-127657142D01*
X214890476Y-143002380D02*
X214890476Y-143716666D01*
X214842857Y-143859523D01*
X214747619Y-143954761D01*
X214604761Y-144002380D01*
X214509523Y-144002380D01*
X215890476Y-144002380D02*
X215319047Y-144002380D01*
X215604761Y-144002380D02*
X215604761Y-143002380D01*
X215509523Y-143145238D01*
X215414285Y-143240476D01*
X215319047Y-143288095D01*
X216747619Y-143335714D02*
X216747619Y-144002380D01*
X216509523Y-142954761D02*
X216271428Y-143669047D01*
X216890476Y-143669047D01*
X181011904Y-126802380D02*
X181011904Y-127611904D01*
X181059523Y-127707142D01*
X181107142Y-127754761D01*
X181202380Y-127802380D01*
X181392857Y-127802380D01*
X181488095Y-127754761D01*
X181535714Y-127707142D01*
X181583333Y-127611904D01*
X181583333Y-126802380D01*
X182583333Y-127802380D02*
X182011904Y-127802380D01*
X182297619Y-127802380D02*
X182297619Y-126802380D01*
X182202380Y-126945238D01*
X182107142Y-127040476D01*
X182011904Y-127088095D01*
X183535714Y-127802380D02*
X182964285Y-127802380D01*
X183250000Y-127802380D02*
X183250000Y-126802380D01*
X183154761Y-126945238D01*
X183059523Y-127040476D01*
X182964285Y-127088095D01*
X127011904Y-126802380D02*
X127011904Y-127611904D01*
X127059523Y-127707142D01*
X127107142Y-127754761D01*
X127202380Y-127802380D01*
X127392857Y-127802380D01*
X127488095Y-127754761D01*
X127535714Y-127707142D01*
X127583333Y-127611904D01*
X127583333Y-126802380D01*
X128583333Y-127802380D02*
X128011904Y-127802380D01*
X128297619Y-127802380D02*
X128297619Y-126802380D01*
X128202380Y-126945238D01*
X128107142Y-127040476D01*
X128011904Y-127088095D01*
X128964285Y-126897619D02*
X129011904Y-126850000D01*
X129107142Y-126802380D01*
X129345238Y-126802380D01*
X129440476Y-126850000D01*
X129488095Y-126897619D01*
X129535714Y-126992857D01*
X129535714Y-127088095D01*
X129488095Y-127230952D01*
X128916666Y-127802380D01*
X129535714Y-127802380D01*
M02*
