G04 #@! TF.GenerationSoftware,KiCad,Pcbnew,(5.1.4)-1*
G04 #@! TF.CreationDate,2019-10-29T10:52:23+09:00*
G04 #@! TF.ProjectId,High_power__DC_DC_board,48696768-5f70-46f7-9765-725f5f44435f,rev?*
G04 #@! TF.SameCoordinates,Original*
G04 #@! TF.FileFunction,Legend,Bot*
G04 #@! TF.FilePolarity,Positive*
%FSLAX46Y46*%
G04 Gerber Fmt 4.6, Leading zero omitted, Abs format (unit mm)*
G04 Created by KiCad (PCBNEW (5.1.4)-1) date 2019-10-29 10:52:23*
%MOMM*%
%LPD*%
G04 APERTURE LIST*
%ADD10C,0.120000*%
%ADD11C,0.300000*%
G04 APERTURE END LIST*
D10*
X125950000Y-126100000D02*
X126050000Y-126100000D01*
X126050000Y-126100000D02*
X126050000Y-122350000D01*
X125850000Y-122500000D02*
X126150000Y-122500000D01*
X125750000Y-122600000D02*
X126250000Y-122600000D01*
X125650000Y-122700000D02*
X126350000Y-122700000D01*
X126500000Y-122800000D02*
X126000000Y-122300000D01*
X125500000Y-122800000D02*
X126500000Y-122800000D01*
X126000000Y-122300000D02*
X125500000Y-122800000D01*
X125950000Y-126100000D02*
X125950000Y-122350000D01*
D11*
X144338095Y-129304761D02*
X144338095Y-127304761D01*
X144338095Y-128257142D02*
X143195238Y-128257142D01*
X143195238Y-129304761D02*
X143195238Y-127304761D01*
X141480952Y-129209523D02*
X141671428Y-129304761D01*
X142052380Y-129304761D01*
X142242857Y-129209523D01*
X142338095Y-129019047D01*
X142338095Y-128257142D01*
X142242857Y-128066666D01*
X142052380Y-127971428D01*
X141671428Y-127971428D01*
X141480952Y-128066666D01*
X141385714Y-128257142D01*
X141385714Y-128447619D01*
X142338095Y-128638095D01*
X139671428Y-129304761D02*
X139671428Y-128257142D01*
X139766666Y-128066666D01*
X139957142Y-127971428D01*
X140338095Y-127971428D01*
X140528571Y-128066666D01*
X139671428Y-129209523D02*
X139861904Y-129304761D01*
X140338095Y-129304761D01*
X140528571Y-129209523D01*
X140623809Y-129019047D01*
X140623809Y-128828571D01*
X140528571Y-128638095D01*
X140338095Y-128542857D01*
X139861904Y-128542857D01*
X139671428Y-128447619D01*
X139004761Y-127971428D02*
X138242857Y-127971428D01*
X138719047Y-127304761D02*
X138719047Y-129019047D01*
X138623809Y-129209523D01*
X138433333Y-129304761D01*
X138242857Y-129304761D01*
X137671428Y-129209523D02*
X137480952Y-129304761D01*
X137100000Y-129304761D01*
X136909523Y-129209523D01*
X136814285Y-129019047D01*
X136814285Y-128923809D01*
X136909523Y-128733333D01*
X137100000Y-128638095D01*
X137385714Y-128638095D01*
X137576190Y-128542857D01*
X137671428Y-128352380D01*
X137671428Y-128257142D01*
X137576190Y-128066666D01*
X137385714Y-127971428D01*
X137100000Y-127971428D01*
X136909523Y-128066666D01*
X135957142Y-129304761D02*
X135957142Y-127971428D01*
X135957142Y-127304761D02*
X136052380Y-127400000D01*
X135957142Y-127495238D01*
X135861904Y-127400000D01*
X135957142Y-127304761D01*
X135957142Y-127495238D01*
X135004761Y-127971428D02*
X135004761Y-129304761D01*
X135004761Y-128161904D02*
X134909523Y-128066666D01*
X134719047Y-127971428D01*
X134433333Y-127971428D01*
X134242857Y-128066666D01*
X134147619Y-128257142D01*
X134147619Y-129304761D01*
X133195238Y-129304761D02*
X133195238Y-127304761D01*
X133004761Y-128542857D02*
X132433333Y-129304761D01*
X132433333Y-127971428D02*
X133195238Y-128733333D01*
X130052380Y-129304761D02*
X130052380Y-127971428D01*
X130052380Y-128161904D02*
X129957142Y-128066666D01*
X129766666Y-127971428D01*
X129480952Y-127971428D01*
X129290476Y-128066666D01*
X129195238Y-128257142D01*
X129195238Y-129304761D01*
X129195238Y-128257142D02*
X129100000Y-128066666D01*
X128909523Y-127971428D01*
X128623809Y-127971428D01*
X128433333Y-128066666D01*
X128338095Y-128257142D01*
X128338095Y-129304761D01*
X126528571Y-129304761D02*
X126528571Y-128257142D01*
X126623809Y-128066666D01*
X126814285Y-127971428D01*
X127195238Y-127971428D01*
X127385714Y-128066666D01*
X126528571Y-129209523D02*
X126719047Y-129304761D01*
X127195238Y-129304761D01*
X127385714Y-129209523D01*
X127480952Y-129019047D01*
X127480952Y-128828571D01*
X127385714Y-128638095D01*
X127195238Y-128542857D01*
X126719047Y-128542857D01*
X126528571Y-128447619D01*
X125766666Y-127971428D02*
X125290476Y-129304761D01*
X124814285Y-127971428D02*
X125290476Y-129304761D01*
X125480952Y-129780952D01*
X125576190Y-129876190D01*
X125766666Y-129971428D01*
X122528571Y-129304761D02*
X122528571Y-127304761D01*
X122528571Y-128066666D02*
X122338095Y-127971428D01*
X121957142Y-127971428D01*
X121766666Y-128066666D01*
X121671428Y-128161904D01*
X121576190Y-128352380D01*
X121576190Y-128923809D01*
X121671428Y-129114285D01*
X121766666Y-129209523D01*
X121957142Y-129304761D01*
X122338095Y-129304761D01*
X122528571Y-129209523D01*
X119957142Y-129209523D02*
X120147619Y-129304761D01*
X120528571Y-129304761D01*
X120719047Y-129209523D01*
X120814285Y-129019047D01*
X120814285Y-128257142D01*
X120719047Y-128066666D01*
X120528571Y-127971428D01*
X120147619Y-127971428D01*
X119957142Y-128066666D01*
X119861904Y-128257142D01*
X119861904Y-128447619D01*
X120814285Y-128638095D01*
X117480952Y-127971428D02*
X117480952Y-129304761D01*
X117480952Y-128161904D02*
X117385714Y-128066666D01*
X117195238Y-127971428D01*
X116909523Y-127971428D01*
X116719047Y-128066666D01*
X116623809Y-128257142D01*
X116623809Y-129304761D01*
X114909523Y-129209523D02*
X115100000Y-129304761D01*
X115480952Y-129304761D01*
X115671428Y-129209523D01*
X115766666Y-129019047D01*
X115766666Y-128257142D01*
X115671428Y-128066666D01*
X115480952Y-127971428D01*
X115100000Y-127971428D01*
X114909523Y-128066666D01*
X114814285Y-128257142D01*
X114814285Y-128447619D01*
X115766666Y-128638095D01*
X113195238Y-129209523D02*
X113385714Y-129304761D01*
X113766666Y-129304761D01*
X113957142Y-129209523D01*
X114052380Y-129019047D01*
X114052380Y-128257142D01*
X113957142Y-128066666D01*
X113766666Y-127971428D01*
X113385714Y-127971428D01*
X113195238Y-128066666D01*
X113100000Y-128257142D01*
X113100000Y-128447619D01*
X114052380Y-128638095D01*
X111385714Y-129304761D02*
X111385714Y-127304761D01*
X111385714Y-129209523D02*
X111576190Y-129304761D01*
X111957142Y-129304761D01*
X112147619Y-129209523D01*
X112242857Y-129114285D01*
X112338095Y-128923809D01*
X112338095Y-128352380D01*
X112242857Y-128161904D01*
X112147619Y-128066666D01*
X111957142Y-127971428D01*
X111576190Y-127971428D01*
X111385714Y-128066666D01*
X109671428Y-129209523D02*
X109861904Y-129304761D01*
X110242857Y-129304761D01*
X110433333Y-129209523D01*
X110528571Y-129019047D01*
X110528571Y-128257142D01*
X110433333Y-128066666D01*
X110242857Y-127971428D01*
X109861904Y-127971428D01*
X109671428Y-128066666D01*
X109576190Y-128257142D01*
X109576190Y-128447619D01*
X110528571Y-128638095D01*
X107861904Y-129304761D02*
X107861904Y-127304761D01*
X107861904Y-129209523D02*
X108052380Y-129304761D01*
X108433333Y-129304761D01*
X108623809Y-129209523D01*
X108719047Y-129114285D01*
X108814285Y-128923809D01*
X108814285Y-128352380D01*
X108719047Y-128161904D01*
X108623809Y-128066666D01*
X108433333Y-127971428D01*
X108052380Y-127971428D01*
X107861904Y-128066666D01*
M02*
