%FSLAX45Y45*%
G04 Gerber Fmt 4.5, Leading zero omitted, Abs format (unit mm)*
G04 Created by KiCad (PCBNEW (5.1.4)-1) date 2019-10-29 10:52:41*
%MOMM*%
%LPD*%
G04 APERTURE LIST*
%ADD10C,0.050000*%
%ADD11C,0.200000*%
%ADD12C,0.300000*%
G04 APERTURE END LIST*
D10*
X23400000Y-2345000D02*
X1800000Y-2345000D01*
X1800000Y-15970000D02*
X1800000Y-2345000D01*
X23400000Y-15970000D02*
X1800000Y-15970000D01*
X23400000Y-2345000D02*
X23400000Y-15970000D01*
D11*
X3020000Y-3305000D02*
X3060000Y-3345000D01*
X3060000Y-3305000D02*
X3020000Y-3345000D01*
X3020000Y-3390000D02*
X3060000Y-3430000D01*
X3060000Y-3390000D02*
X3020000Y-3430000D01*
X3105000Y-3305000D02*
X3145000Y-3345000D01*
X3145000Y-3305000D02*
X3105000Y-3345000D01*
X3105000Y-3390000D02*
X3145000Y-3430000D01*
X3145000Y-3390000D02*
X3105000Y-3430000D01*
X3190000Y-3170000D02*
X3230000Y-3210000D01*
X3230000Y-3170000D02*
X3190000Y-3210000D01*
X3190000Y-3255000D02*
X3230000Y-3295000D01*
X3230000Y-3255000D02*
X3190000Y-3295000D01*
X3275000Y-3170000D02*
X3315000Y-3210000D01*
X3315000Y-3170000D02*
X3275000Y-3210000D01*
X3275000Y-3255000D02*
X3315000Y-3295000D01*
X3315000Y-3255000D02*
X3275000Y-3295000D01*
X3285000Y-12405000D02*
X3325000Y-12445000D01*
X3325000Y-12405000D02*
X3285000Y-12445000D01*
X3285000Y-12490000D02*
X3325000Y-12530000D01*
X3325000Y-12490000D02*
X3285000Y-12530000D01*
X3285000Y-12575000D02*
X3325000Y-12615000D01*
X3325000Y-12575000D02*
X3285000Y-12615000D01*
X3285000Y-12660000D02*
X3325000Y-12700000D01*
X3325000Y-12660000D02*
X3285000Y-12700000D01*
X3370000Y-12405000D02*
X3410000Y-12445000D01*
X3410000Y-12405000D02*
X3370000Y-12445000D01*
X3370000Y-12490000D02*
X3410000Y-12530000D01*
X3410000Y-12490000D02*
X3370000Y-12530000D01*
X3370000Y-12575000D02*
X3410000Y-12615000D01*
X3410000Y-12575000D02*
X3370000Y-12615000D01*
X3370000Y-12660000D02*
X3410000Y-12700000D01*
X3410000Y-12660000D02*
X3370000Y-12700000D01*
X3455000Y-12405000D02*
X3495000Y-12445000D01*
X3495000Y-12405000D02*
X3455000Y-12445000D01*
X3455000Y-12490000D02*
X3495000Y-12530000D01*
X3495000Y-12490000D02*
X3455000Y-12530000D01*
X3455000Y-12575000D02*
X3495000Y-12615000D01*
X3495000Y-12575000D02*
X3455000Y-12615000D01*
X3455000Y-12660000D02*
X3495000Y-12700000D01*
X3495000Y-12660000D02*
X3455000Y-12700000D01*
X3540000Y-12405000D02*
X3580000Y-12445000D01*
X3580000Y-12405000D02*
X3540000Y-12445000D01*
X3540000Y-12490000D02*
X3580000Y-12530000D01*
X3580000Y-12490000D02*
X3540000Y-12530000D01*
X3540000Y-12575000D02*
X3580000Y-12615000D01*
X3580000Y-12575000D02*
X3540000Y-12615000D01*
X3540000Y-12660000D02*
X3580000Y-12700000D01*
X3580000Y-12660000D02*
X3540000Y-12700000D01*
X3625000Y-12405000D02*
X3665000Y-12445000D01*
X3665000Y-12405000D02*
X3625000Y-12445000D01*
X3625000Y-12490000D02*
X3665000Y-12530000D01*
X3665000Y-12490000D02*
X3625000Y-12530000D01*
X3625000Y-12575000D02*
X3665000Y-12615000D01*
X3665000Y-12575000D02*
X3625000Y-12615000D01*
X3625000Y-12660000D02*
X3665000Y-12700000D01*
X3665000Y-12660000D02*
X3625000Y-12700000D01*
X3710000Y-12405000D02*
X3750000Y-12445000D01*
X3750000Y-12405000D02*
X3710000Y-12445000D01*
X3710000Y-12490000D02*
X3750000Y-12530000D01*
X3750000Y-12490000D02*
X3710000Y-12530000D01*
X3710000Y-12575000D02*
X3750000Y-12615000D01*
X3750000Y-12575000D02*
X3710000Y-12615000D01*
X3710000Y-12660000D02*
X3750000Y-12700000D01*
X3750000Y-12660000D02*
X3710000Y-12700000D01*
X3795000Y-12405000D02*
X3835000Y-12445000D01*
X3835000Y-12405000D02*
X3795000Y-12445000D01*
X3795000Y-12490000D02*
X3835000Y-12530000D01*
X3835000Y-12490000D02*
X3795000Y-12530000D01*
X3795000Y-12575000D02*
X3835000Y-12615000D01*
X3835000Y-12575000D02*
X3795000Y-12615000D01*
X3795000Y-12660000D02*
X3835000Y-12700000D01*
X3835000Y-12660000D02*
X3795000Y-12700000D01*
X3880000Y-12405000D02*
X3920000Y-12445000D01*
X3920000Y-12405000D02*
X3880000Y-12445000D01*
X3880000Y-12490000D02*
X3920000Y-12530000D01*
X3920000Y-12490000D02*
X3880000Y-12530000D01*
X3880000Y-12575000D02*
X3920000Y-12615000D01*
X3920000Y-12575000D02*
X3880000Y-12615000D01*
X3880000Y-12660000D02*
X3920000Y-12700000D01*
X3920000Y-12660000D02*
X3880000Y-12700000D01*
X3965000Y-12405000D02*
X4005000Y-12445000D01*
X4005000Y-12405000D02*
X3965000Y-12445000D01*
X3965000Y-12490000D02*
X4005000Y-12530000D01*
X4005000Y-12490000D02*
X3965000Y-12530000D01*
X3965000Y-12575000D02*
X4005000Y-12615000D01*
X4005000Y-12575000D02*
X3965000Y-12615000D01*
X3965000Y-12660000D02*
X4005000Y-12700000D01*
X4005000Y-12660000D02*
X3965000Y-12700000D01*
X4050000Y-12405000D02*
X4090000Y-12445000D01*
X4090000Y-12405000D02*
X4050000Y-12445000D01*
X4050000Y-12490000D02*
X4090000Y-12530000D01*
X4090000Y-12490000D02*
X4050000Y-12530000D01*
X4050000Y-12575000D02*
X4090000Y-12615000D01*
X4090000Y-12575000D02*
X4050000Y-12615000D01*
X4050000Y-12660000D02*
X4090000Y-12700000D01*
X4090000Y-12660000D02*
X4050000Y-12700000D01*
X4135000Y-12405000D02*
X4175000Y-12445000D01*
X4175000Y-12405000D02*
X4135000Y-12445000D01*
X4135000Y-12490000D02*
X4175000Y-12530000D01*
X4175000Y-12490000D02*
X4135000Y-12530000D01*
X4135000Y-12575000D02*
X4175000Y-12615000D01*
X4175000Y-12575000D02*
X4135000Y-12615000D01*
X4135000Y-12660000D02*
X4175000Y-12700000D01*
X4175000Y-12660000D02*
X4135000Y-12700000D01*
X4220000Y-12405000D02*
X4260000Y-12445000D01*
X4260000Y-12405000D02*
X4220000Y-12445000D01*
X4220000Y-12490000D02*
X4260000Y-12530000D01*
X4260000Y-12490000D02*
X4220000Y-12530000D01*
X4220000Y-12575000D02*
X4260000Y-12615000D01*
X4260000Y-12575000D02*
X4220000Y-12615000D01*
X4220000Y-12660000D02*
X4260000Y-12700000D01*
X4260000Y-12660000D02*
X4220000Y-12700000D01*
X4305000Y-12405000D02*
X4345000Y-12445000D01*
X4345000Y-12405000D02*
X4305000Y-12445000D01*
X4305000Y-12490000D02*
X4345000Y-12530000D01*
X4345000Y-12490000D02*
X4305000Y-12530000D01*
X4305000Y-12575000D02*
X4345000Y-12615000D01*
X4345000Y-12575000D02*
X4305000Y-12615000D01*
X4305000Y-12660000D02*
X4345000Y-12700000D01*
X4345000Y-12660000D02*
X4305000Y-12700000D01*
X4360000Y-5385000D02*
X4400000Y-5425000D01*
X4400000Y-5385000D02*
X4360000Y-5425000D01*
X4360000Y-5470000D02*
X4400000Y-5510000D01*
X4400000Y-5470000D02*
X4360000Y-5510000D01*
X4360000Y-5555000D02*
X4400000Y-5595000D01*
X4400000Y-5555000D02*
X4360000Y-5595000D01*
X4360000Y-5640000D02*
X4400000Y-5680000D01*
X4400000Y-5640000D02*
X4360000Y-5680000D01*
X4390000Y-12405000D02*
X4430000Y-12445000D01*
X4430000Y-12405000D02*
X4390000Y-12445000D01*
X4390000Y-12490000D02*
X4430000Y-12530000D01*
X4430000Y-12490000D02*
X4390000Y-12530000D01*
X4390000Y-12575000D02*
X4430000Y-12615000D01*
X4430000Y-12575000D02*
X4390000Y-12615000D01*
X4390000Y-12660000D02*
X4430000Y-12700000D01*
X4430000Y-12660000D02*
X4390000Y-12700000D01*
X4445000Y-5385000D02*
X4485000Y-5425000D01*
X4485000Y-5385000D02*
X4445000Y-5425000D01*
X4445000Y-5470000D02*
X4485000Y-5510000D01*
X4485000Y-5470000D02*
X4445000Y-5510000D01*
X4445000Y-5555000D02*
X4485000Y-5595000D01*
X4485000Y-5555000D02*
X4445000Y-5595000D01*
X4445000Y-5640000D02*
X4485000Y-5680000D01*
X4485000Y-5640000D02*
X4445000Y-5680000D01*
X4475000Y-12405000D02*
X4515000Y-12445000D01*
X4515000Y-12405000D02*
X4475000Y-12445000D01*
X4475000Y-12490000D02*
X4515000Y-12530000D01*
X4515000Y-12490000D02*
X4475000Y-12530000D01*
X4475000Y-12575000D02*
X4515000Y-12615000D01*
X4515000Y-12575000D02*
X4475000Y-12615000D01*
X4475000Y-12660000D02*
X4515000Y-12700000D01*
X4515000Y-12660000D02*
X4475000Y-12700000D01*
X4530000Y-5385000D02*
X4570000Y-5425000D01*
X4570000Y-5385000D02*
X4530000Y-5425000D01*
X4530000Y-5470000D02*
X4570000Y-5510000D01*
X4570000Y-5470000D02*
X4530000Y-5510000D01*
X4530000Y-5555000D02*
X4570000Y-5595000D01*
X4570000Y-5555000D02*
X4530000Y-5595000D01*
X4530000Y-5640000D02*
X4570000Y-5680000D01*
X4570000Y-5640000D02*
X4530000Y-5680000D01*
X4560000Y-12405000D02*
X4600000Y-12445000D01*
X4600000Y-12405000D02*
X4560000Y-12445000D01*
X4560000Y-12490000D02*
X4600000Y-12530000D01*
X4600000Y-12490000D02*
X4560000Y-12530000D01*
X4560000Y-12575000D02*
X4600000Y-12615000D01*
X4600000Y-12575000D02*
X4560000Y-12615000D01*
X4560000Y-12660000D02*
X4600000Y-12700000D01*
X4600000Y-12660000D02*
X4560000Y-12700000D01*
X4615000Y-5385000D02*
X4655000Y-5425000D01*
X4655000Y-5385000D02*
X4615000Y-5425000D01*
X4615000Y-5470000D02*
X4655000Y-5510000D01*
X4655000Y-5470000D02*
X4615000Y-5510000D01*
X4615000Y-5555000D02*
X4655000Y-5595000D01*
X4655000Y-5555000D02*
X4615000Y-5595000D01*
X4615000Y-5640000D02*
X4655000Y-5680000D01*
X4655000Y-5640000D02*
X4615000Y-5680000D01*
X4645000Y-12405000D02*
X4685000Y-12445000D01*
X4685000Y-12405000D02*
X4645000Y-12445000D01*
X4645000Y-12490000D02*
X4685000Y-12530000D01*
X4685000Y-12490000D02*
X4645000Y-12530000D01*
X4645000Y-12575000D02*
X4685000Y-12615000D01*
X4685000Y-12575000D02*
X4645000Y-12615000D01*
X4645000Y-12660000D02*
X4685000Y-12700000D01*
X4685000Y-12660000D02*
X4645000Y-12700000D01*
X4700000Y-5385000D02*
X4740000Y-5425000D01*
X4740000Y-5385000D02*
X4700000Y-5425000D01*
X4700000Y-5470000D02*
X4740000Y-5510000D01*
X4740000Y-5470000D02*
X4700000Y-5510000D01*
X4700000Y-5555000D02*
X4740000Y-5595000D01*
X4740000Y-5555000D02*
X4700000Y-5595000D01*
X4700000Y-5640000D02*
X4740000Y-5680000D01*
X4740000Y-5640000D02*
X4700000Y-5680000D01*
X4730000Y-12405000D02*
X4770000Y-12445000D01*
X4770000Y-12405000D02*
X4730000Y-12445000D01*
X4730000Y-12490000D02*
X4770000Y-12530000D01*
X4770000Y-12490000D02*
X4730000Y-12530000D01*
X4730000Y-12575000D02*
X4770000Y-12615000D01*
X4770000Y-12575000D02*
X4730000Y-12615000D01*
X4730000Y-12660000D02*
X4770000Y-12700000D01*
X4770000Y-12660000D02*
X4730000Y-12700000D01*
X4785000Y-5385000D02*
X4825000Y-5425000D01*
X4825000Y-5385000D02*
X4785000Y-5425000D01*
X4785000Y-5470000D02*
X4825000Y-5510000D01*
X4825000Y-5470000D02*
X4785000Y-5510000D01*
X4785000Y-5555000D02*
X4825000Y-5595000D01*
X4825000Y-5555000D02*
X4785000Y-5595000D01*
X4785000Y-5640000D02*
X4825000Y-5680000D01*
X4825000Y-5640000D02*
X4785000Y-5680000D01*
X4815000Y-12405000D02*
X4855000Y-12445000D01*
X4855000Y-12405000D02*
X4815000Y-12445000D01*
X4815000Y-12490000D02*
X4855000Y-12530000D01*
X4855000Y-12490000D02*
X4815000Y-12530000D01*
X4815000Y-12575000D02*
X4855000Y-12615000D01*
X4855000Y-12575000D02*
X4815000Y-12615000D01*
X4815000Y-12660000D02*
X4855000Y-12700000D01*
X4855000Y-12660000D02*
X4815000Y-12700000D01*
X4870000Y-5385000D02*
X4910000Y-5425000D01*
X4910000Y-5385000D02*
X4870000Y-5425000D01*
X4870000Y-5470000D02*
X4910000Y-5510000D01*
X4910000Y-5470000D02*
X4870000Y-5510000D01*
X4870000Y-5555000D02*
X4910000Y-5595000D01*
X4910000Y-5555000D02*
X4870000Y-5595000D01*
X4870000Y-5640000D02*
X4910000Y-5680000D01*
X4910000Y-5640000D02*
X4870000Y-5680000D01*
X4900000Y-12405000D02*
X4940000Y-12445000D01*
X4940000Y-12405000D02*
X4900000Y-12445000D01*
X4900000Y-12490000D02*
X4940000Y-12530000D01*
X4940000Y-12490000D02*
X4900000Y-12530000D01*
X4900000Y-12575000D02*
X4940000Y-12615000D01*
X4940000Y-12575000D02*
X4900000Y-12615000D01*
X4900000Y-12660000D02*
X4940000Y-12700000D01*
X4940000Y-12660000D02*
X4900000Y-12700000D01*
X4955000Y-5385000D02*
X4995000Y-5425000D01*
X4995000Y-5385000D02*
X4955000Y-5425000D01*
X4955000Y-5470000D02*
X4995000Y-5510000D01*
X4995000Y-5470000D02*
X4955000Y-5510000D01*
X4955000Y-5555000D02*
X4995000Y-5595000D01*
X4995000Y-5555000D02*
X4955000Y-5595000D01*
X4955000Y-5640000D02*
X4995000Y-5680000D01*
X4995000Y-5640000D02*
X4955000Y-5680000D01*
X4985000Y-12405000D02*
X5025000Y-12445000D01*
X5025000Y-12405000D02*
X4985000Y-12445000D01*
X4985000Y-12490000D02*
X5025000Y-12530000D01*
X5025000Y-12490000D02*
X4985000Y-12530000D01*
X4985000Y-12575000D02*
X5025000Y-12615000D01*
X5025000Y-12575000D02*
X4985000Y-12615000D01*
X4985000Y-12660000D02*
X5025000Y-12700000D01*
X5025000Y-12660000D02*
X4985000Y-12700000D01*
X5040000Y-5385000D02*
X5080000Y-5425000D01*
X5080000Y-5385000D02*
X5040000Y-5425000D01*
X5040000Y-5470000D02*
X5080000Y-5510000D01*
X5080000Y-5470000D02*
X5040000Y-5510000D01*
X5040000Y-5555000D02*
X5080000Y-5595000D01*
X5080000Y-5555000D02*
X5040000Y-5595000D01*
X5040000Y-5640000D02*
X5080000Y-5680000D01*
X5080000Y-5640000D02*
X5040000Y-5680000D01*
X5070000Y-12405000D02*
X5110000Y-12445000D01*
X5110000Y-12405000D02*
X5070000Y-12445000D01*
X5070000Y-12490000D02*
X5110000Y-12530000D01*
X5110000Y-12490000D02*
X5070000Y-12530000D01*
X5070000Y-12575000D02*
X5110000Y-12615000D01*
X5110000Y-12575000D02*
X5070000Y-12615000D01*
X5070000Y-12660000D02*
X5110000Y-12700000D01*
X5110000Y-12660000D02*
X5070000Y-12700000D01*
X5125000Y-5385000D02*
X5165000Y-5425000D01*
X5165000Y-5385000D02*
X5125000Y-5425000D01*
X5125000Y-5470000D02*
X5165000Y-5510000D01*
X5165000Y-5470000D02*
X5125000Y-5510000D01*
X5125000Y-5555000D02*
X5165000Y-5595000D01*
X5165000Y-5555000D02*
X5125000Y-5595000D01*
X5125000Y-5640000D02*
X5165000Y-5680000D01*
X5165000Y-5640000D02*
X5125000Y-5680000D01*
X5155000Y-12405000D02*
X5195000Y-12445000D01*
X5195000Y-12405000D02*
X5155000Y-12445000D01*
X5155000Y-12490000D02*
X5195000Y-12530000D01*
X5195000Y-12490000D02*
X5155000Y-12530000D01*
X5155000Y-12575000D02*
X5195000Y-12615000D01*
X5195000Y-12575000D02*
X5155000Y-12615000D01*
X5155000Y-12660000D02*
X5195000Y-12700000D01*
X5195000Y-12660000D02*
X5155000Y-12700000D01*
X5210000Y-5385000D02*
X5250000Y-5425000D01*
X5250000Y-5385000D02*
X5210000Y-5425000D01*
X5210000Y-5470000D02*
X5250000Y-5510000D01*
X5250000Y-5470000D02*
X5210000Y-5510000D01*
X5210000Y-5555000D02*
X5250000Y-5595000D01*
X5250000Y-5555000D02*
X5210000Y-5595000D01*
X5210000Y-5640000D02*
X5250000Y-5680000D01*
X5250000Y-5640000D02*
X5210000Y-5680000D01*
X5240000Y-12405000D02*
X5280000Y-12445000D01*
X5280000Y-12405000D02*
X5240000Y-12445000D01*
X5240000Y-12490000D02*
X5280000Y-12530000D01*
X5280000Y-12490000D02*
X5240000Y-12530000D01*
X5240000Y-12575000D02*
X5280000Y-12615000D01*
X5280000Y-12575000D02*
X5240000Y-12615000D01*
X5240000Y-12660000D02*
X5280000Y-12700000D01*
X5280000Y-12660000D02*
X5240000Y-12700000D01*
X5295000Y-5385000D02*
X5335000Y-5425000D01*
X5335000Y-5385000D02*
X5295000Y-5425000D01*
X5295000Y-5470000D02*
X5335000Y-5510000D01*
X5335000Y-5470000D02*
X5295000Y-5510000D01*
X5295000Y-5555000D02*
X5335000Y-5595000D01*
X5335000Y-5555000D02*
X5295000Y-5595000D01*
X5295000Y-5640000D02*
X5335000Y-5680000D01*
X5335000Y-5640000D02*
X5295000Y-5680000D01*
X5325000Y-12405000D02*
X5365000Y-12445000D01*
X5365000Y-12405000D02*
X5325000Y-12445000D01*
X5325000Y-12490000D02*
X5365000Y-12530000D01*
X5365000Y-12490000D02*
X5325000Y-12530000D01*
X5325000Y-12575000D02*
X5365000Y-12615000D01*
X5365000Y-12575000D02*
X5325000Y-12615000D01*
X5325000Y-12660000D02*
X5365000Y-12700000D01*
X5365000Y-12660000D02*
X5325000Y-12700000D01*
X5410000Y-12405000D02*
X5450000Y-12445000D01*
X5450000Y-12405000D02*
X5410000Y-12445000D01*
X5410000Y-12490000D02*
X5450000Y-12530000D01*
X5450000Y-12490000D02*
X5410000Y-12530000D01*
X5410000Y-12575000D02*
X5450000Y-12615000D01*
X5450000Y-12575000D02*
X5410000Y-12615000D01*
X5410000Y-12660000D02*
X5450000Y-12700000D01*
X5450000Y-12660000D02*
X5410000Y-12700000D01*
X5495000Y-12405000D02*
X5535000Y-12445000D01*
X5535000Y-12405000D02*
X5495000Y-12445000D01*
X5495000Y-12490000D02*
X5535000Y-12530000D01*
X5535000Y-12490000D02*
X5495000Y-12530000D01*
X5495000Y-12575000D02*
X5535000Y-12615000D01*
X5535000Y-12575000D02*
X5495000Y-12615000D01*
X5495000Y-12660000D02*
X5535000Y-12700000D01*
X5535000Y-12660000D02*
X5495000Y-12700000D01*
X5580000Y-12405000D02*
X5620000Y-12445000D01*
X5620000Y-12405000D02*
X5580000Y-12445000D01*
X5580000Y-12490000D02*
X5620000Y-12530000D01*
X5620000Y-12490000D02*
X5580000Y-12530000D01*
X5580000Y-12575000D02*
X5620000Y-12615000D01*
X5620000Y-12575000D02*
X5580000Y-12615000D01*
X5580000Y-12660000D02*
X5620000Y-12700000D01*
X5620000Y-12660000D02*
X5580000Y-12700000D01*
X8425000Y-3300000D02*
X8465000Y-3340000D01*
X8465000Y-3300000D02*
X8425000Y-3340000D01*
X8425000Y-3385000D02*
X8465000Y-3425000D01*
X8465000Y-3385000D02*
X8425000Y-3425000D01*
X8450000Y-12415000D02*
X8490000Y-12455000D01*
X8490000Y-12415000D02*
X8450000Y-12455000D01*
X8450000Y-12500000D02*
X8490000Y-12540000D01*
X8490000Y-12500000D02*
X8450000Y-12540000D01*
X8450000Y-12585000D02*
X8490000Y-12625000D01*
X8490000Y-12585000D02*
X8450000Y-12625000D01*
X8450000Y-12670000D02*
X8490000Y-12710000D01*
X8490000Y-12670000D02*
X8450000Y-12710000D01*
X8510000Y-3300000D02*
X8550000Y-3340000D01*
X8550000Y-3300000D02*
X8510000Y-3340000D01*
X8510000Y-3385000D02*
X8550000Y-3425000D01*
X8550000Y-3385000D02*
X8510000Y-3425000D01*
X8535000Y-12415000D02*
X8575000Y-12455000D01*
X8575000Y-12415000D02*
X8535000Y-12455000D01*
X8535000Y-12500000D02*
X8575000Y-12540000D01*
X8575000Y-12500000D02*
X8535000Y-12540000D01*
X8535000Y-12585000D02*
X8575000Y-12625000D01*
X8575000Y-12585000D02*
X8535000Y-12625000D01*
X8535000Y-12670000D02*
X8575000Y-12710000D01*
X8575000Y-12670000D02*
X8535000Y-12710000D01*
X8595000Y-3165000D02*
X8635000Y-3205000D01*
X8635000Y-3165000D02*
X8595000Y-3205000D01*
X8595000Y-3250000D02*
X8635000Y-3290000D01*
X8635000Y-3250000D02*
X8595000Y-3290000D01*
X8620000Y-12415000D02*
X8660000Y-12455000D01*
X8660000Y-12415000D02*
X8620000Y-12455000D01*
X8620000Y-12500000D02*
X8660000Y-12540000D01*
X8660000Y-12500000D02*
X8620000Y-12540000D01*
X8620000Y-12585000D02*
X8660000Y-12625000D01*
X8660000Y-12585000D02*
X8620000Y-12625000D01*
X8620000Y-12670000D02*
X8660000Y-12710000D01*
X8660000Y-12670000D02*
X8620000Y-12710000D01*
X8680000Y-3165000D02*
X8720000Y-3205000D01*
X8720000Y-3165000D02*
X8680000Y-3205000D01*
X8680000Y-3250000D02*
X8720000Y-3290000D01*
X8720000Y-3250000D02*
X8680000Y-3290000D01*
X8705000Y-12415000D02*
X8745000Y-12455000D01*
X8745000Y-12415000D02*
X8705000Y-12455000D01*
X8705000Y-12500000D02*
X8745000Y-12540000D01*
X8745000Y-12500000D02*
X8705000Y-12540000D01*
X8705000Y-12585000D02*
X8745000Y-12625000D01*
X8745000Y-12585000D02*
X8705000Y-12625000D01*
X8705000Y-12670000D02*
X8745000Y-12710000D01*
X8745000Y-12670000D02*
X8705000Y-12710000D01*
X8790000Y-12415000D02*
X8830000Y-12455000D01*
X8830000Y-12415000D02*
X8790000Y-12455000D01*
X8790000Y-12500000D02*
X8830000Y-12540000D01*
X8830000Y-12500000D02*
X8790000Y-12540000D01*
X8790000Y-12585000D02*
X8830000Y-12625000D01*
X8830000Y-12585000D02*
X8790000Y-12625000D01*
X8790000Y-12670000D02*
X8830000Y-12710000D01*
X8830000Y-12670000D02*
X8790000Y-12710000D01*
X8875000Y-12415000D02*
X8915000Y-12455000D01*
X8915000Y-12415000D02*
X8875000Y-12455000D01*
X8875000Y-12500000D02*
X8915000Y-12540000D01*
X8915000Y-12500000D02*
X8875000Y-12540000D01*
X8875000Y-12585000D02*
X8915000Y-12625000D01*
X8915000Y-12585000D02*
X8875000Y-12625000D01*
X8875000Y-12670000D02*
X8915000Y-12710000D01*
X8915000Y-12670000D02*
X8875000Y-12710000D01*
X8940000Y-14415000D02*
X8980000Y-14455000D01*
X8980000Y-14415000D02*
X8940000Y-14455000D01*
X8940000Y-14495000D02*
X8980000Y-14535000D01*
X8980000Y-14495000D02*
X8940000Y-14535000D01*
X8940000Y-14575000D02*
X8980000Y-14615000D01*
X8980000Y-14575000D02*
X8940000Y-14615000D01*
X8940000Y-14655000D02*
X8980000Y-14695000D01*
X8980000Y-14655000D02*
X8940000Y-14695000D01*
X8960000Y-12415000D02*
X9000000Y-12455000D01*
X9000000Y-12415000D02*
X8960000Y-12455000D01*
X8960000Y-12500000D02*
X9000000Y-12540000D01*
X9000000Y-12500000D02*
X8960000Y-12540000D01*
X8960000Y-12585000D02*
X9000000Y-12625000D01*
X9000000Y-12585000D02*
X8960000Y-12625000D01*
X8960000Y-12670000D02*
X9000000Y-12710000D01*
X9000000Y-12670000D02*
X8960000Y-12710000D01*
X9025000Y-14415000D02*
X9065000Y-14455000D01*
X9065000Y-14415000D02*
X9025000Y-14455000D01*
X9025000Y-14495000D02*
X9065000Y-14535000D01*
X9065000Y-14495000D02*
X9025000Y-14535000D01*
X9025000Y-14575000D02*
X9065000Y-14615000D01*
X9065000Y-14575000D02*
X9025000Y-14615000D01*
X9025000Y-14655000D02*
X9065000Y-14695000D01*
X9065000Y-14655000D02*
X9025000Y-14695000D01*
X9045000Y-12415000D02*
X9085000Y-12455000D01*
X9085000Y-12415000D02*
X9045000Y-12455000D01*
X9045000Y-12500000D02*
X9085000Y-12540000D01*
X9085000Y-12500000D02*
X9045000Y-12540000D01*
X9045000Y-12585000D02*
X9085000Y-12625000D01*
X9085000Y-12585000D02*
X9045000Y-12625000D01*
X9045000Y-12670000D02*
X9085000Y-12710000D01*
X9085000Y-12670000D02*
X9045000Y-12710000D01*
X9110000Y-14415000D02*
X9150000Y-14455000D01*
X9150000Y-14415000D02*
X9110000Y-14455000D01*
X9110000Y-14495000D02*
X9150000Y-14535000D01*
X9150000Y-14495000D02*
X9110000Y-14535000D01*
X9110000Y-14575000D02*
X9150000Y-14615000D01*
X9150000Y-14575000D02*
X9110000Y-14615000D01*
X9110000Y-14655000D02*
X9150000Y-14695000D01*
X9150000Y-14655000D02*
X9110000Y-14695000D01*
X9130000Y-12415000D02*
X9170000Y-12455000D01*
X9170000Y-12415000D02*
X9130000Y-12455000D01*
X9130000Y-12500000D02*
X9170000Y-12540000D01*
X9170000Y-12500000D02*
X9130000Y-12540000D01*
X9130000Y-12585000D02*
X9170000Y-12625000D01*
X9170000Y-12585000D02*
X9130000Y-12625000D01*
X9130000Y-12670000D02*
X9170000Y-12710000D01*
X9170000Y-12670000D02*
X9130000Y-12710000D01*
X9215000Y-12415000D02*
X9255000Y-12455000D01*
X9255000Y-12415000D02*
X9215000Y-12455000D01*
X9215000Y-12500000D02*
X9255000Y-12540000D01*
X9255000Y-12500000D02*
X9215000Y-12540000D01*
X9215000Y-12585000D02*
X9255000Y-12625000D01*
X9255000Y-12585000D02*
X9215000Y-12625000D01*
X9215000Y-12670000D02*
X9255000Y-12710000D01*
X9255000Y-12670000D02*
X9215000Y-12710000D01*
X9300000Y-12415000D02*
X9340000Y-12455000D01*
X9340000Y-12415000D02*
X9300000Y-12455000D01*
X9300000Y-12500000D02*
X9340000Y-12540000D01*
X9340000Y-12500000D02*
X9300000Y-12540000D01*
X9300000Y-12585000D02*
X9340000Y-12625000D01*
X9340000Y-12585000D02*
X9300000Y-12625000D01*
X9300000Y-12670000D02*
X9340000Y-12710000D01*
X9340000Y-12670000D02*
X9300000Y-12710000D01*
X9315000Y-14480000D02*
X9355000Y-14520000D01*
X9355000Y-14480000D02*
X9315000Y-14520000D01*
X9385000Y-12415000D02*
X9425000Y-12455000D01*
X9425000Y-12415000D02*
X9385000Y-12455000D01*
X9385000Y-12500000D02*
X9425000Y-12540000D01*
X9425000Y-12500000D02*
X9385000Y-12540000D01*
X9385000Y-12585000D02*
X9425000Y-12625000D01*
X9425000Y-12585000D02*
X9385000Y-12625000D01*
X9385000Y-12670000D02*
X9425000Y-12710000D01*
X9425000Y-12670000D02*
X9385000Y-12710000D01*
X9395000Y-14480000D02*
X9435000Y-14520000D01*
X9435000Y-14480000D02*
X9395000Y-14520000D01*
X9435000Y-14885000D02*
X9475000Y-14925000D01*
X9475000Y-14885000D02*
X9435000Y-14925000D01*
X9470000Y-12415000D02*
X9510000Y-12455000D01*
X9510000Y-12415000D02*
X9470000Y-12455000D01*
X9470000Y-12500000D02*
X9510000Y-12540000D01*
X9510000Y-12500000D02*
X9470000Y-12540000D01*
X9470000Y-12585000D02*
X9510000Y-12625000D01*
X9510000Y-12585000D02*
X9470000Y-12625000D01*
X9470000Y-12670000D02*
X9510000Y-12710000D01*
X9510000Y-12670000D02*
X9470000Y-12710000D01*
X9475000Y-14480000D02*
X9515000Y-14520000D01*
X9515000Y-14480000D02*
X9475000Y-14520000D01*
X9555000Y-12415000D02*
X9595000Y-12455000D01*
X9595000Y-12415000D02*
X9555000Y-12455000D01*
X9555000Y-12500000D02*
X9595000Y-12540000D01*
X9595000Y-12500000D02*
X9555000Y-12540000D01*
X9555000Y-12585000D02*
X9595000Y-12625000D01*
X9595000Y-12585000D02*
X9555000Y-12625000D01*
X9555000Y-12670000D02*
X9595000Y-12710000D01*
X9595000Y-12670000D02*
X9555000Y-12710000D01*
X9555000Y-14480000D02*
X9595000Y-14520000D01*
X9595000Y-14480000D02*
X9555000Y-14520000D01*
X9635000Y-14480000D02*
X9675000Y-14520000D01*
X9675000Y-14480000D02*
X9635000Y-14520000D01*
X9640000Y-12415000D02*
X9680000Y-12455000D01*
X9680000Y-12415000D02*
X9640000Y-12455000D01*
X9640000Y-12500000D02*
X9680000Y-12540000D01*
X9680000Y-12500000D02*
X9640000Y-12540000D01*
X9640000Y-12585000D02*
X9680000Y-12625000D01*
X9680000Y-12585000D02*
X9640000Y-12625000D01*
X9640000Y-12670000D02*
X9680000Y-12710000D01*
X9680000Y-12670000D02*
X9640000Y-12710000D01*
X9715000Y-14480000D02*
X9755000Y-14520000D01*
X9755000Y-14480000D02*
X9715000Y-14520000D01*
X9725000Y-12415000D02*
X9765000Y-12455000D01*
X9765000Y-12415000D02*
X9725000Y-12455000D01*
X9725000Y-12500000D02*
X9765000Y-12540000D01*
X9765000Y-12500000D02*
X9725000Y-12540000D01*
X9725000Y-12585000D02*
X9765000Y-12625000D01*
X9765000Y-12585000D02*
X9725000Y-12625000D01*
X9725000Y-12670000D02*
X9765000Y-12710000D01*
X9765000Y-12670000D02*
X9725000Y-12710000D01*
X9760000Y-5385000D02*
X9800000Y-5425000D01*
X9800000Y-5385000D02*
X9760000Y-5425000D01*
X9760000Y-5470000D02*
X9800000Y-5510000D01*
X9800000Y-5470000D02*
X9760000Y-5510000D01*
X9760000Y-5555000D02*
X9800000Y-5595000D01*
X9800000Y-5555000D02*
X9760000Y-5595000D01*
X9760000Y-5640000D02*
X9800000Y-5680000D01*
X9800000Y-5640000D02*
X9760000Y-5680000D01*
X9810000Y-12415000D02*
X9850000Y-12455000D01*
X9850000Y-12415000D02*
X9810000Y-12455000D01*
X9810000Y-12500000D02*
X9850000Y-12540000D01*
X9850000Y-12500000D02*
X9810000Y-12540000D01*
X9810000Y-12585000D02*
X9850000Y-12625000D01*
X9850000Y-12585000D02*
X9810000Y-12625000D01*
X9810000Y-12670000D02*
X9850000Y-12710000D01*
X9850000Y-12670000D02*
X9810000Y-12710000D01*
X9845000Y-5385000D02*
X9885000Y-5425000D01*
X9885000Y-5385000D02*
X9845000Y-5425000D01*
X9845000Y-5470000D02*
X9885000Y-5510000D01*
X9885000Y-5470000D02*
X9845000Y-5510000D01*
X9845000Y-5555000D02*
X9885000Y-5595000D01*
X9885000Y-5555000D02*
X9845000Y-5595000D01*
X9845000Y-5640000D02*
X9885000Y-5680000D01*
X9885000Y-5640000D02*
X9845000Y-5680000D01*
X9895000Y-12415000D02*
X9935000Y-12455000D01*
X9935000Y-12415000D02*
X9895000Y-12455000D01*
X9895000Y-12500000D02*
X9935000Y-12540000D01*
X9935000Y-12500000D02*
X9895000Y-12540000D01*
X9895000Y-12585000D02*
X9935000Y-12625000D01*
X9935000Y-12585000D02*
X9895000Y-12625000D01*
X9895000Y-12670000D02*
X9935000Y-12710000D01*
X9935000Y-12670000D02*
X9895000Y-12710000D01*
X9930000Y-5385000D02*
X9970000Y-5425000D01*
X9970000Y-5385000D02*
X9930000Y-5425000D01*
X9930000Y-5470000D02*
X9970000Y-5510000D01*
X9970000Y-5470000D02*
X9930000Y-5510000D01*
X9930000Y-5555000D02*
X9970000Y-5595000D01*
X9970000Y-5555000D02*
X9930000Y-5595000D01*
X9930000Y-5640000D02*
X9970000Y-5680000D01*
X9970000Y-5640000D02*
X9930000Y-5680000D01*
X9980000Y-12415000D02*
X10020000Y-12455000D01*
X10020000Y-12415000D02*
X9980000Y-12455000D01*
X9980000Y-12500000D02*
X10020000Y-12540000D01*
X10020000Y-12500000D02*
X9980000Y-12540000D01*
X9980000Y-12585000D02*
X10020000Y-12625000D01*
X10020000Y-12585000D02*
X9980000Y-12625000D01*
X9980000Y-12670000D02*
X10020000Y-12710000D01*
X10020000Y-12670000D02*
X9980000Y-12710000D01*
X10015000Y-5385000D02*
X10055000Y-5425000D01*
X10055000Y-5385000D02*
X10015000Y-5425000D01*
X10015000Y-5470000D02*
X10055000Y-5510000D01*
X10055000Y-5470000D02*
X10015000Y-5510000D01*
X10015000Y-5555000D02*
X10055000Y-5595000D01*
X10055000Y-5555000D02*
X10015000Y-5595000D01*
X10015000Y-5640000D02*
X10055000Y-5680000D01*
X10055000Y-5640000D02*
X10015000Y-5680000D01*
X10065000Y-12415000D02*
X10105000Y-12455000D01*
X10105000Y-12415000D02*
X10065000Y-12455000D01*
X10065000Y-12500000D02*
X10105000Y-12540000D01*
X10105000Y-12500000D02*
X10065000Y-12540000D01*
X10065000Y-12585000D02*
X10105000Y-12625000D01*
X10105000Y-12585000D02*
X10065000Y-12625000D01*
X10065000Y-12670000D02*
X10105000Y-12710000D01*
X10105000Y-12670000D02*
X10065000Y-12710000D01*
X10100000Y-5385000D02*
X10140000Y-5425000D01*
X10140000Y-5385000D02*
X10100000Y-5425000D01*
X10100000Y-5470000D02*
X10140000Y-5510000D01*
X10140000Y-5470000D02*
X10100000Y-5510000D01*
X10100000Y-5555000D02*
X10140000Y-5595000D01*
X10140000Y-5555000D02*
X10100000Y-5595000D01*
X10100000Y-5640000D02*
X10140000Y-5680000D01*
X10140000Y-5640000D02*
X10100000Y-5680000D01*
X10150000Y-12415000D02*
X10190000Y-12455000D01*
X10190000Y-12415000D02*
X10150000Y-12455000D01*
X10150000Y-12500000D02*
X10190000Y-12540000D01*
X10190000Y-12500000D02*
X10150000Y-12540000D01*
X10150000Y-12585000D02*
X10190000Y-12625000D01*
X10190000Y-12585000D02*
X10150000Y-12625000D01*
X10150000Y-12670000D02*
X10190000Y-12710000D01*
X10190000Y-12670000D02*
X10150000Y-12710000D01*
X10185000Y-5385000D02*
X10225000Y-5425000D01*
X10225000Y-5385000D02*
X10185000Y-5425000D01*
X10185000Y-5470000D02*
X10225000Y-5510000D01*
X10225000Y-5470000D02*
X10185000Y-5510000D01*
X10185000Y-5555000D02*
X10225000Y-5595000D01*
X10225000Y-5555000D02*
X10185000Y-5595000D01*
X10185000Y-5640000D02*
X10225000Y-5680000D01*
X10225000Y-5640000D02*
X10185000Y-5680000D01*
X10235000Y-12415000D02*
X10275000Y-12455000D01*
X10275000Y-12415000D02*
X10235000Y-12455000D01*
X10235000Y-12500000D02*
X10275000Y-12540000D01*
X10275000Y-12500000D02*
X10235000Y-12540000D01*
X10235000Y-12585000D02*
X10275000Y-12625000D01*
X10275000Y-12585000D02*
X10235000Y-12625000D01*
X10235000Y-12670000D02*
X10275000Y-12710000D01*
X10275000Y-12670000D02*
X10235000Y-12710000D01*
X10270000Y-5385000D02*
X10310000Y-5425000D01*
X10310000Y-5385000D02*
X10270000Y-5425000D01*
X10270000Y-5470000D02*
X10310000Y-5510000D01*
X10310000Y-5470000D02*
X10270000Y-5510000D01*
X10270000Y-5555000D02*
X10310000Y-5595000D01*
X10310000Y-5555000D02*
X10270000Y-5595000D01*
X10270000Y-5640000D02*
X10310000Y-5680000D01*
X10310000Y-5640000D02*
X10270000Y-5680000D01*
X10320000Y-12415000D02*
X10360000Y-12455000D01*
X10360000Y-12415000D02*
X10320000Y-12455000D01*
X10320000Y-12500000D02*
X10360000Y-12540000D01*
X10360000Y-12500000D02*
X10320000Y-12540000D01*
X10320000Y-12585000D02*
X10360000Y-12625000D01*
X10360000Y-12585000D02*
X10320000Y-12625000D01*
X10320000Y-12670000D02*
X10360000Y-12710000D01*
X10360000Y-12670000D02*
X10320000Y-12710000D01*
X10355000Y-5385000D02*
X10395000Y-5425000D01*
X10395000Y-5385000D02*
X10355000Y-5425000D01*
X10355000Y-5470000D02*
X10395000Y-5510000D01*
X10395000Y-5470000D02*
X10355000Y-5510000D01*
X10355000Y-5555000D02*
X10395000Y-5595000D01*
X10395000Y-5555000D02*
X10355000Y-5595000D01*
X10355000Y-5640000D02*
X10395000Y-5680000D01*
X10395000Y-5640000D02*
X10355000Y-5680000D01*
X10405000Y-12415000D02*
X10445000Y-12455000D01*
X10445000Y-12415000D02*
X10405000Y-12455000D01*
X10405000Y-12500000D02*
X10445000Y-12540000D01*
X10445000Y-12500000D02*
X10405000Y-12540000D01*
X10405000Y-12585000D02*
X10445000Y-12625000D01*
X10445000Y-12585000D02*
X10405000Y-12625000D01*
X10405000Y-12670000D02*
X10445000Y-12710000D01*
X10445000Y-12670000D02*
X10405000Y-12710000D01*
X10440000Y-5385000D02*
X10480000Y-5425000D01*
X10480000Y-5385000D02*
X10440000Y-5425000D01*
X10440000Y-5470000D02*
X10480000Y-5510000D01*
X10480000Y-5470000D02*
X10440000Y-5510000D01*
X10440000Y-5555000D02*
X10480000Y-5595000D01*
X10480000Y-5555000D02*
X10440000Y-5595000D01*
X10440000Y-5640000D02*
X10480000Y-5680000D01*
X10480000Y-5640000D02*
X10440000Y-5680000D01*
X10490000Y-12415000D02*
X10530000Y-12455000D01*
X10530000Y-12415000D02*
X10490000Y-12455000D01*
X10490000Y-12500000D02*
X10530000Y-12540000D01*
X10530000Y-12500000D02*
X10490000Y-12540000D01*
X10490000Y-12585000D02*
X10530000Y-12625000D01*
X10530000Y-12585000D02*
X10490000Y-12625000D01*
X10490000Y-12670000D02*
X10530000Y-12710000D01*
X10530000Y-12670000D02*
X10490000Y-12710000D01*
X10525000Y-5385000D02*
X10565000Y-5425000D01*
X10565000Y-5385000D02*
X10525000Y-5425000D01*
X10525000Y-5470000D02*
X10565000Y-5510000D01*
X10565000Y-5470000D02*
X10525000Y-5510000D01*
X10525000Y-5555000D02*
X10565000Y-5595000D01*
X10565000Y-5555000D02*
X10525000Y-5595000D01*
X10525000Y-5640000D02*
X10565000Y-5680000D01*
X10565000Y-5640000D02*
X10525000Y-5680000D01*
X10575000Y-12415000D02*
X10615000Y-12455000D01*
X10615000Y-12415000D02*
X10575000Y-12455000D01*
X10575000Y-12500000D02*
X10615000Y-12540000D01*
X10615000Y-12500000D02*
X10575000Y-12540000D01*
X10575000Y-12585000D02*
X10615000Y-12625000D01*
X10615000Y-12585000D02*
X10575000Y-12625000D01*
X10575000Y-12670000D02*
X10615000Y-12710000D01*
X10615000Y-12670000D02*
X10575000Y-12710000D01*
X10610000Y-5385000D02*
X10650000Y-5425000D01*
X10650000Y-5385000D02*
X10610000Y-5425000D01*
X10610000Y-5470000D02*
X10650000Y-5510000D01*
X10650000Y-5470000D02*
X10610000Y-5510000D01*
X10610000Y-5555000D02*
X10650000Y-5595000D01*
X10650000Y-5555000D02*
X10610000Y-5595000D01*
X10610000Y-5640000D02*
X10650000Y-5680000D01*
X10650000Y-5640000D02*
X10610000Y-5680000D01*
X10660000Y-12415000D02*
X10700000Y-12455000D01*
X10700000Y-12415000D02*
X10660000Y-12455000D01*
X10660000Y-12500000D02*
X10700000Y-12540000D01*
X10700000Y-12500000D02*
X10660000Y-12540000D01*
X10660000Y-12585000D02*
X10700000Y-12625000D01*
X10700000Y-12585000D02*
X10660000Y-12625000D01*
X10660000Y-12670000D02*
X10700000Y-12710000D01*
X10700000Y-12670000D02*
X10660000Y-12710000D01*
X10695000Y-5385000D02*
X10735000Y-5425000D01*
X10735000Y-5385000D02*
X10695000Y-5425000D01*
X10695000Y-5470000D02*
X10735000Y-5510000D01*
X10735000Y-5470000D02*
X10695000Y-5510000D01*
X10695000Y-5555000D02*
X10735000Y-5595000D01*
X10735000Y-5555000D02*
X10695000Y-5595000D01*
X10695000Y-5640000D02*
X10735000Y-5680000D01*
X10735000Y-5640000D02*
X10695000Y-5680000D01*
X10745000Y-12415000D02*
X10785000Y-12455000D01*
X10785000Y-12415000D02*
X10745000Y-12455000D01*
X10745000Y-12500000D02*
X10785000Y-12540000D01*
X10785000Y-12500000D02*
X10745000Y-12540000D01*
X10745000Y-12585000D02*
X10785000Y-12625000D01*
X10785000Y-12585000D02*
X10745000Y-12625000D01*
X10745000Y-12670000D02*
X10785000Y-12710000D01*
X10785000Y-12670000D02*
X10745000Y-12710000D01*
X12055000Y-14355000D02*
X12095000Y-14395000D01*
X12095000Y-14355000D02*
X12055000Y-14395000D01*
X14120000Y-2680000D02*
X14160000Y-2720000D01*
X14160000Y-2680000D02*
X14120000Y-2720000D01*
X14120000Y-2765000D02*
X14160000Y-2805000D01*
X14160000Y-2765000D02*
X14120000Y-2805000D01*
X14165000Y-12425000D02*
X14205000Y-12465000D01*
X14205000Y-12425000D02*
X14165000Y-12465000D01*
X14165000Y-12510000D02*
X14205000Y-12550000D01*
X14205000Y-12510000D02*
X14165000Y-12550000D01*
X14165000Y-12595000D02*
X14205000Y-12635000D01*
X14205000Y-12595000D02*
X14165000Y-12635000D01*
X14165000Y-12680000D02*
X14205000Y-12720000D01*
X14205000Y-12680000D02*
X14165000Y-12720000D01*
X14205000Y-2680000D02*
X14245000Y-2720000D01*
X14245000Y-2680000D02*
X14205000Y-2720000D01*
X14205000Y-2765000D02*
X14245000Y-2805000D01*
X14245000Y-2765000D02*
X14205000Y-2805000D01*
X14250000Y-12425000D02*
X14290000Y-12465000D01*
X14290000Y-12425000D02*
X14250000Y-12465000D01*
X14250000Y-12510000D02*
X14290000Y-12550000D01*
X14290000Y-12510000D02*
X14250000Y-12550000D01*
X14250000Y-12595000D02*
X14290000Y-12635000D01*
X14290000Y-12595000D02*
X14250000Y-12635000D01*
X14250000Y-12680000D02*
X14290000Y-12720000D01*
X14290000Y-12680000D02*
X14250000Y-12720000D01*
X14290000Y-2680000D02*
X14330000Y-2720000D01*
X14330000Y-2680000D02*
X14290000Y-2720000D01*
X14290000Y-2765000D02*
X14330000Y-2805000D01*
X14330000Y-2765000D02*
X14290000Y-2805000D01*
X14335000Y-12425000D02*
X14375000Y-12465000D01*
X14375000Y-12425000D02*
X14335000Y-12465000D01*
X14335000Y-12510000D02*
X14375000Y-12550000D01*
X14375000Y-12510000D02*
X14335000Y-12550000D01*
X14335000Y-12595000D02*
X14375000Y-12635000D01*
X14375000Y-12595000D02*
X14335000Y-12635000D01*
X14335000Y-12680000D02*
X14375000Y-12720000D01*
X14375000Y-12680000D02*
X14335000Y-12720000D01*
X14375000Y-2680000D02*
X14415000Y-2720000D01*
X14415000Y-2680000D02*
X14375000Y-2720000D01*
X14375000Y-2765000D02*
X14415000Y-2805000D01*
X14415000Y-2765000D02*
X14375000Y-2805000D01*
X14420000Y-12425000D02*
X14460000Y-12465000D01*
X14460000Y-12425000D02*
X14420000Y-12465000D01*
X14420000Y-12510000D02*
X14460000Y-12550000D01*
X14460000Y-12510000D02*
X14420000Y-12550000D01*
X14420000Y-12595000D02*
X14460000Y-12635000D01*
X14460000Y-12595000D02*
X14420000Y-12635000D01*
X14420000Y-12680000D02*
X14460000Y-12720000D01*
X14460000Y-12680000D02*
X14420000Y-12720000D01*
X14505000Y-12425000D02*
X14545000Y-12465000D01*
X14545000Y-12425000D02*
X14505000Y-12465000D01*
X14505000Y-12510000D02*
X14545000Y-12550000D01*
X14545000Y-12510000D02*
X14505000Y-12550000D01*
X14505000Y-12595000D02*
X14545000Y-12635000D01*
X14545000Y-12595000D02*
X14505000Y-12635000D01*
X14505000Y-12680000D02*
X14545000Y-12720000D01*
X14545000Y-12680000D02*
X14505000Y-12720000D01*
X14590000Y-12425000D02*
X14630000Y-12465000D01*
X14630000Y-12425000D02*
X14590000Y-12465000D01*
X14590000Y-12510000D02*
X14630000Y-12550000D01*
X14630000Y-12510000D02*
X14590000Y-12550000D01*
X14590000Y-12595000D02*
X14630000Y-12635000D01*
X14630000Y-12595000D02*
X14590000Y-12635000D01*
X14590000Y-12680000D02*
X14630000Y-12720000D01*
X14630000Y-12680000D02*
X14590000Y-12720000D01*
X14675000Y-12425000D02*
X14715000Y-12465000D01*
X14715000Y-12425000D02*
X14675000Y-12465000D01*
X14675000Y-12510000D02*
X14715000Y-12550000D01*
X14715000Y-12510000D02*
X14675000Y-12550000D01*
X14675000Y-12595000D02*
X14715000Y-12635000D01*
X14715000Y-12595000D02*
X14675000Y-12635000D01*
X14675000Y-12680000D02*
X14715000Y-12720000D01*
X14715000Y-12680000D02*
X14675000Y-12720000D01*
X14760000Y-12425000D02*
X14800000Y-12465000D01*
X14800000Y-12425000D02*
X14760000Y-12465000D01*
X14760000Y-12510000D02*
X14800000Y-12550000D01*
X14800000Y-12510000D02*
X14760000Y-12550000D01*
X14760000Y-12595000D02*
X14800000Y-12635000D01*
X14800000Y-12595000D02*
X14760000Y-12635000D01*
X14760000Y-12680000D02*
X14800000Y-12720000D01*
X14800000Y-12680000D02*
X14760000Y-12720000D01*
X14845000Y-12425000D02*
X14885000Y-12465000D01*
X14885000Y-12425000D02*
X14845000Y-12465000D01*
X14845000Y-12510000D02*
X14885000Y-12550000D01*
X14885000Y-12510000D02*
X14845000Y-12550000D01*
X14845000Y-12595000D02*
X14885000Y-12635000D01*
X14885000Y-12595000D02*
X14845000Y-12635000D01*
X14845000Y-12680000D02*
X14885000Y-12720000D01*
X14885000Y-12680000D02*
X14845000Y-12720000D01*
X14930000Y-12425000D02*
X14970000Y-12465000D01*
X14970000Y-12425000D02*
X14930000Y-12465000D01*
X14930000Y-12510000D02*
X14970000Y-12550000D01*
X14970000Y-12510000D02*
X14930000Y-12550000D01*
X14930000Y-12595000D02*
X14970000Y-12635000D01*
X14970000Y-12595000D02*
X14930000Y-12635000D01*
X14930000Y-12680000D02*
X14970000Y-12720000D01*
X14970000Y-12680000D02*
X14930000Y-12720000D01*
X15015000Y-12425000D02*
X15055000Y-12465000D01*
X15055000Y-12425000D02*
X15015000Y-12465000D01*
X15015000Y-12510000D02*
X15055000Y-12550000D01*
X15055000Y-12510000D02*
X15015000Y-12550000D01*
X15015000Y-12595000D02*
X15055000Y-12635000D01*
X15055000Y-12595000D02*
X15015000Y-12635000D01*
X15015000Y-12680000D02*
X15055000Y-12720000D01*
X15055000Y-12680000D02*
X15015000Y-12720000D01*
X15100000Y-12425000D02*
X15140000Y-12465000D01*
X15140000Y-12425000D02*
X15100000Y-12465000D01*
X15100000Y-12510000D02*
X15140000Y-12550000D01*
X15140000Y-12510000D02*
X15100000Y-12550000D01*
X15100000Y-12595000D02*
X15140000Y-12635000D01*
X15140000Y-12595000D02*
X15100000Y-12635000D01*
X15100000Y-12680000D02*
X15140000Y-12720000D01*
X15140000Y-12680000D02*
X15100000Y-12720000D01*
X15160000Y-5385000D02*
X15200000Y-5425000D01*
X15200000Y-5385000D02*
X15160000Y-5425000D01*
X15160000Y-5470000D02*
X15200000Y-5510000D01*
X15200000Y-5470000D02*
X15160000Y-5510000D01*
X15160000Y-5555000D02*
X15200000Y-5595000D01*
X15200000Y-5555000D02*
X15160000Y-5595000D01*
X15160000Y-5640000D02*
X15200000Y-5680000D01*
X15200000Y-5640000D02*
X15160000Y-5680000D01*
X15185000Y-12425000D02*
X15225000Y-12465000D01*
X15225000Y-12425000D02*
X15185000Y-12465000D01*
X15185000Y-12510000D02*
X15225000Y-12550000D01*
X15225000Y-12510000D02*
X15185000Y-12550000D01*
X15185000Y-12595000D02*
X15225000Y-12635000D01*
X15225000Y-12595000D02*
X15185000Y-12635000D01*
X15185000Y-12680000D02*
X15225000Y-12720000D01*
X15225000Y-12680000D02*
X15185000Y-12720000D01*
X15245000Y-5385000D02*
X15285000Y-5425000D01*
X15285000Y-5385000D02*
X15245000Y-5425000D01*
X15245000Y-5470000D02*
X15285000Y-5510000D01*
X15285000Y-5470000D02*
X15245000Y-5510000D01*
X15245000Y-5555000D02*
X15285000Y-5595000D01*
X15285000Y-5555000D02*
X15245000Y-5595000D01*
X15245000Y-5640000D02*
X15285000Y-5680000D01*
X15285000Y-5640000D02*
X15245000Y-5680000D01*
X15270000Y-12425000D02*
X15310000Y-12465000D01*
X15310000Y-12425000D02*
X15270000Y-12465000D01*
X15270000Y-12510000D02*
X15310000Y-12550000D01*
X15310000Y-12510000D02*
X15270000Y-12550000D01*
X15270000Y-12595000D02*
X15310000Y-12635000D01*
X15310000Y-12595000D02*
X15270000Y-12635000D01*
X15270000Y-12680000D02*
X15310000Y-12720000D01*
X15310000Y-12680000D02*
X15270000Y-12720000D01*
X15330000Y-5385000D02*
X15370000Y-5425000D01*
X15370000Y-5385000D02*
X15330000Y-5425000D01*
X15330000Y-5470000D02*
X15370000Y-5510000D01*
X15370000Y-5470000D02*
X15330000Y-5510000D01*
X15330000Y-5555000D02*
X15370000Y-5595000D01*
X15370000Y-5555000D02*
X15330000Y-5595000D01*
X15330000Y-5640000D02*
X15370000Y-5680000D01*
X15370000Y-5640000D02*
X15330000Y-5680000D01*
X15355000Y-12425000D02*
X15395000Y-12465000D01*
X15395000Y-12425000D02*
X15355000Y-12465000D01*
X15355000Y-12510000D02*
X15395000Y-12550000D01*
X15395000Y-12510000D02*
X15355000Y-12550000D01*
X15355000Y-12595000D02*
X15395000Y-12635000D01*
X15395000Y-12595000D02*
X15355000Y-12635000D01*
X15355000Y-12680000D02*
X15395000Y-12720000D01*
X15395000Y-12680000D02*
X15355000Y-12720000D01*
X15415000Y-5385000D02*
X15455000Y-5425000D01*
X15455000Y-5385000D02*
X15415000Y-5425000D01*
X15415000Y-5470000D02*
X15455000Y-5510000D01*
X15455000Y-5470000D02*
X15415000Y-5510000D01*
X15415000Y-5555000D02*
X15455000Y-5595000D01*
X15455000Y-5555000D02*
X15415000Y-5595000D01*
X15415000Y-5640000D02*
X15455000Y-5680000D01*
X15455000Y-5640000D02*
X15415000Y-5680000D01*
X15440000Y-12425000D02*
X15480000Y-12465000D01*
X15480000Y-12425000D02*
X15440000Y-12465000D01*
X15440000Y-12510000D02*
X15480000Y-12550000D01*
X15480000Y-12510000D02*
X15440000Y-12550000D01*
X15440000Y-12595000D02*
X15480000Y-12635000D01*
X15480000Y-12595000D02*
X15440000Y-12635000D01*
X15440000Y-12680000D02*
X15480000Y-12720000D01*
X15480000Y-12680000D02*
X15440000Y-12720000D01*
X15500000Y-5385000D02*
X15540000Y-5425000D01*
X15540000Y-5385000D02*
X15500000Y-5425000D01*
X15500000Y-5470000D02*
X15540000Y-5510000D01*
X15540000Y-5470000D02*
X15500000Y-5510000D01*
X15500000Y-5555000D02*
X15540000Y-5595000D01*
X15540000Y-5555000D02*
X15500000Y-5595000D01*
X15500000Y-5640000D02*
X15540000Y-5680000D01*
X15540000Y-5640000D02*
X15500000Y-5680000D01*
X15525000Y-12425000D02*
X15565000Y-12465000D01*
X15565000Y-12425000D02*
X15525000Y-12465000D01*
X15525000Y-12510000D02*
X15565000Y-12550000D01*
X15565000Y-12510000D02*
X15525000Y-12550000D01*
X15525000Y-12595000D02*
X15565000Y-12635000D01*
X15565000Y-12595000D02*
X15525000Y-12635000D01*
X15525000Y-12680000D02*
X15565000Y-12720000D01*
X15565000Y-12680000D02*
X15525000Y-12720000D01*
X15585000Y-5385000D02*
X15625000Y-5425000D01*
X15625000Y-5385000D02*
X15585000Y-5425000D01*
X15585000Y-5470000D02*
X15625000Y-5510000D01*
X15625000Y-5470000D02*
X15585000Y-5510000D01*
X15585000Y-5555000D02*
X15625000Y-5595000D01*
X15625000Y-5555000D02*
X15585000Y-5595000D01*
X15585000Y-5640000D02*
X15625000Y-5680000D01*
X15625000Y-5640000D02*
X15585000Y-5680000D01*
X15610000Y-12425000D02*
X15650000Y-12465000D01*
X15650000Y-12425000D02*
X15610000Y-12465000D01*
X15610000Y-12510000D02*
X15650000Y-12550000D01*
X15650000Y-12510000D02*
X15610000Y-12550000D01*
X15610000Y-12595000D02*
X15650000Y-12635000D01*
X15650000Y-12595000D02*
X15610000Y-12635000D01*
X15610000Y-12680000D02*
X15650000Y-12720000D01*
X15650000Y-12680000D02*
X15610000Y-12720000D01*
X15670000Y-5385000D02*
X15710000Y-5425000D01*
X15710000Y-5385000D02*
X15670000Y-5425000D01*
X15670000Y-5470000D02*
X15710000Y-5510000D01*
X15710000Y-5470000D02*
X15670000Y-5510000D01*
X15670000Y-5555000D02*
X15710000Y-5595000D01*
X15710000Y-5555000D02*
X15670000Y-5595000D01*
X15670000Y-5640000D02*
X15710000Y-5680000D01*
X15710000Y-5640000D02*
X15670000Y-5680000D01*
X15695000Y-12425000D02*
X15735000Y-12465000D01*
X15735000Y-12425000D02*
X15695000Y-12465000D01*
X15695000Y-12510000D02*
X15735000Y-12550000D01*
X15735000Y-12510000D02*
X15695000Y-12550000D01*
X15695000Y-12595000D02*
X15735000Y-12635000D01*
X15735000Y-12595000D02*
X15695000Y-12635000D01*
X15695000Y-12680000D02*
X15735000Y-12720000D01*
X15735000Y-12680000D02*
X15695000Y-12720000D01*
X15755000Y-5385000D02*
X15795000Y-5425000D01*
X15795000Y-5385000D02*
X15755000Y-5425000D01*
X15755000Y-5470000D02*
X15795000Y-5510000D01*
X15795000Y-5470000D02*
X15755000Y-5510000D01*
X15755000Y-5555000D02*
X15795000Y-5595000D01*
X15795000Y-5555000D02*
X15755000Y-5595000D01*
X15755000Y-5640000D02*
X15795000Y-5680000D01*
X15795000Y-5640000D02*
X15755000Y-5680000D01*
X15780000Y-12425000D02*
X15820000Y-12465000D01*
X15820000Y-12425000D02*
X15780000Y-12465000D01*
X15780000Y-12510000D02*
X15820000Y-12550000D01*
X15820000Y-12510000D02*
X15780000Y-12550000D01*
X15780000Y-12595000D02*
X15820000Y-12635000D01*
X15820000Y-12595000D02*
X15780000Y-12635000D01*
X15780000Y-12680000D02*
X15820000Y-12720000D01*
X15820000Y-12680000D02*
X15780000Y-12720000D01*
X15840000Y-5385000D02*
X15880000Y-5425000D01*
X15880000Y-5385000D02*
X15840000Y-5425000D01*
X15840000Y-5470000D02*
X15880000Y-5510000D01*
X15880000Y-5470000D02*
X15840000Y-5510000D01*
X15840000Y-5555000D02*
X15880000Y-5595000D01*
X15880000Y-5555000D02*
X15840000Y-5595000D01*
X15840000Y-5640000D02*
X15880000Y-5680000D01*
X15880000Y-5640000D02*
X15840000Y-5680000D01*
X15865000Y-12425000D02*
X15905000Y-12465000D01*
X15905000Y-12425000D02*
X15865000Y-12465000D01*
X15865000Y-12510000D02*
X15905000Y-12550000D01*
X15905000Y-12510000D02*
X15865000Y-12550000D01*
X15865000Y-12595000D02*
X15905000Y-12635000D01*
X15905000Y-12595000D02*
X15865000Y-12635000D01*
X15865000Y-12680000D02*
X15905000Y-12720000D01*
X15905000Y-12680000D02*
X15865000Y-12720000D01*
X15925000Y-5385000D02*
X15965000Y-5425000D01*
X15965000Y-5385000D02*
X15925000Y-5425000D01*
X15925000Y-5470000D02*
X15965000Y-5510000D01*
X15965000Y-5470000D02*
X15925000Y-5510000D01*
X15925000Y-5555000D02*
X15965000Y-5595000D01*
X15965000Y-5555000D02*
X15925000Y-5595000D01*
X15925000Y-5640000D02*
X15965000Y-5680000D01*
X15965000Y-5640000D02*
X15925000Y-5680000D01*
X15950000Y-12425000D02*
X15990000Y-12465000D01*
X15990000Y-12425000D02*
X15950000Y-12465000D01*
X15950000Y-12510000D02*
X15990000Y-12550000D01*
X15990000Y-12510000D02*
X15950000Y-12550000D01*
X15950000Y-12595000D02*
X15990000Y-12635000D01*
X15990000Y-12595000D02*
X15950000Y-12635000D01*
X15950000Y-12680000D02*
X15990000Y-12720000D01*
X15990000Y-12680000D02*
X15950000Y-12720000D01*
X16010000Y-5385000D02*
X16050000Y-5425000D01*
X16050000Y-5385000D02*
X16010000Y-5425000D01*
X16010000Y-5470000D02*
X16050000Y-5510000D01*
X16050000Y-5470000D02*
X16010000Y-5510000D01*
X16010000Y-5555000D02*
X16050000Y-5595000D01*
X16050000Y-5555000D02*
X16010000Y-5595000D01*
X16010000Y-5640000D02*
X16050000Y-5680000D01*
X16050000Y-5640000D02*
X16010000Y-5680000D01*
X16035000Y-12425000D02*
X16075000Y-12465000D01*
X16075000Y-12425000D02*
X16035000Y-12465000D01*
X16035000Y-12510000D02*
X16075000Y-12550000D01*
X16075000Y-12510000D02*
X16035000Y-12550000D01*
X16035000Y-12595000D02*
X16075000Y-12635000D01*
X16075000Y-12595000D02*
X16035000Y-12635000D01*
X16035000Y-12680000D02*
X16075000Y-12720000D01*
X16075000Y-12680000D02*
X16035000Y-12720000D01*
X16095000Y-5385000D02*
X16135000Y-5425000D01*
X16135000Y-5385000D02*
X16095000Y-5425000D01*
X16095000Y-5470000D02*
X16135000Y-5510000D01*
X16135000Y-5470000D02*
X16095000Y-5510000D01*
X16095000Y-5555000D02*
X16135000Y-5595000D01*
X16135000Y-5555000D02*
X16095000Y-5595000D01*
X16095000Y-5640000D02*
X16135000Y-5680000D01*
X16135000Y-5640000D02*
X16095000Y-5680000D01*
X16120000Y-12425000D02*
X16160000Y-12465000D01*
X16160000Y-12425000D02*
X16120000Y-12465000D01*
X16120000Y-12510000D02*
X16160000Y-12550000D01*
X16160000Y-12510000D02*
X16120000Y-12550000D01*
X16120000Y-12595000D02*
X16160000Y-12635000D01*
X16160000Y-12595000D02*
X16120000Y-12635000D01*
X16120000Y-12680000D02*
X16160000Y-12720000D01*
X16160000Y-12680000D02*
X16120000Y-12720000D01*
X16205000Y-12425000D02*
X16245000Y-12465000D01*
X16245000Y-12425000D02*
X16205000Y-12465000D01*
X16205000Y-12510000D02*
X16245000Y-12550000D01*
X16245000Y-12510000D02*
X16205000Y-12550000D01*
X16205000Y-12595000D02*
X16245000Y-12635000D01*
X16245000Y-12595000D02*
X16205000Y-12635000D01*
X16205000Y-12680000D02*
X16245000Y-12720000D01*
X16245000Y-12680000D02*
X16205000Y-12720000D01*
X16290000Y-12425000D02*
X16330000Y-12465000D01*
X16330000Y-12425000D02*
X16290000Y-12465000D01*
X16290000Y-12510000D02*
X16330000Y-12550000D01*
X16330000Y-12510000D02*
X16290000Y-12550000D01*
X16290000Y-12595000D02*
X16330000Y-12635000D01*
X16330000Y-12595000D02*
X16290000Y-12635000D01*
X16290000Y-12680000D02*
X16330000Y-12720000D01*
X16330000Y-12680000D02*
X16290000Y-12720000D01*
X16375000Y-12425000D02*
X16415000Y-12465000D01*
X16415000Y-12425000D02*
X16375000Y-12465000D01*
X16375000Y-12510000D02*
X16415000Y-12550000D01*
X16415000Y-12510000D02*
X16375000Y-12550000D01*
X16375000Y-12595000D02*
X16415000Y-12635000D01*
X16415000Y-12595000D02*
X16375000Y-12635000D01*
X16375000Y-12680000D02*
X16415000Y-12720000D01*
X16415000Y-12680000D02*
X16375000Y-12720000D01*
X16460000Y-12425000D02*
X16500000Y-12465000D01*
X16500000Y-12425000D02*
X16460000Y-12465000D01*
X16460000Y-12510000D02*
X16500000Y-12550000D01*
X16500000Y-12510000D02*
X16460000Y-12550000D01*
X16460000Y-12595000D02*
X16500000Y-12635000D01*
X16500000Y-12595000D02*
X16460000Y-12635000D01*
X16460000Y-12680000D02*
X16500000Y-12720000D01*
X16500000Y-12680000D02*
X16460000Y-12720000D01*
X17355000Y-14415000D02*
X17395000Y-14455000D01*
X17395000Y-14415000D02*
X17355000Y-14455000D01*
X17355000Y-14495000D02*
X17395000Y-14535000D01*
X17395000Y-14495000D02*
X17355000Y-14535000D01*
X17355000Y-14575000D02*
X17395000Y-14615000D01*
X17395000Y-14575000D02*
X17355000Y-14615000D01*
X17355000Y-14655000D02*
X17395000Y-14695000D01*
X17395000Y-14655000D02*
X17355000Y-14695000D01*
X17440000Y-14415000D02*
X17480000Y-14455000D01*
X17480000Y-14415000D02*
X17440000Y-14455000D01*
X17440000Y-14495000D02*
X17480000Y-14535000D01*
X17480000Y-14495000D02*
X17440000Y-14535000D01*
X17440000Y-14575000D02*
X17480000Y-14615000D01*
X17480000Y-14575000D02*
X17440000Y-14615000D01*
X17440000Y-14655000D02*
X17480000Y-14695000D01*
X17480000Y-14655000D02*
X17440000Y-14695000D01*
X17525000Y-14415000D02*
X17565000Y-14455000D01*
X17565000Y-14415000D02*
X17525000Y-14455000D01*
X17525000Y-14495000D02*
X17565000Y-14535000D01*
X17565000Y-14495000D02*
X17525000Y-14535000D01*
X17525000Y-14575000D02*
X17565000Y-14615000D01*
X17565000Y-14575000D02*
X17525000Y-14615000D01*
X17525000Y-14655000D02*
X17565000Y-14695000D01*
X17565000Y-14655000D02*
X17525000Y-14695000D01*
X17725000Y-14480000D02*
X17765000Y-14520000D01*
X17765000Y-14480000D02*
X17725000Y-14520000D01*
X17805000Y-14480000D02*
X17845000Y-14520000D01*
X17845000Y-14480000D02*
X17805000Y-14520000D01*
X17845000Y-14880000D02*
X17885000Y-14920000D01*
X17885000Y-14880000D02*
X17845000Y-14920000D01*
X17885000Y-14480000D02*
X17925000Y-14520000D01*
X17925000Y-14480000D02*
X17885000Y-14520000D01*
X17965000Y-14480000D02*
X18005000Y-14520000D01*
X18005000Y-14480000D02*
X17965000Y-14520000D01*
X18045000Y-14480000D02*
X18085000Y-14520000D01*
X18085000Y-14480000D02*
X18045000Y-14520000D01*
X18125000Y-14480000D02*
X18165000Y-14520000D01*
X18165000Y-14480000D02*
X18125000Y-14520000D01*
X19525000Y-2670000D02*
X19565000Y-2710000D01*
X19565000Y-2670000D02*
X19525000Y-2710000D01*
X19525000Y-2755000D02*
X19565000Y-2795000D01*
X19565000Y-2755000D02*
X19525000Y-2795000D01*
X19610000Y-2670000D02*
X19650000Y-2710000D01*
X19650000Y-2670000D02*
X19610000Y-2710000D01*
X19610000Y-2755000D02*
X19650000Y-2795000D01*
X19650000Y-2755000D02*
X19610000Y-2795000D01*
X19680000Y-12440000D02*
X19720000Y-12480000D01*
X19720000Y-12440000D02*
X19680000Y-12480000D01*
X19680000Y-12525000D02*
X19720000Y-12565000D01*
X19720000Y-12525000D02*
X19680000Y-12565000D01*
X19680000Y-12610000D02*
X19720000Y-12650000D01*
X19720000Y-12610000D02*
X19680000Y-12650000D01*
X19680000Y-12695000D02*
X19720000Y-12735000D01*
X19720000Y-12695000D02*
X19680000Y-12735000D01*
X19695000Y-2670000D02*
X19735000Y-2710000D01*
X19735000Y-2670000D02*
X19695000Y-2710000D01*
X19695000Y-2755000D02*
X19735000Y-2795000D01*
X19735000Y-2755000D02*
X19695000Y-2795000D01*
X19765000Y-12440000D02*
X19805000Y-12480000D01*
X19805000Y-12440000D02*
X19765000Y-12480000D01*
X19765000Y-12525000D02*
X19805000Y-12565000D01*
X19805000Y-12525000D02*
X19765000Y-12565000D01*
X19765000Y-12610000D02*
X19805000Y-12650000D01*
X19805000Y-12610000D02*
X19765000Y-12650000D01*
X19765000Y-12695000D02*
X19805000Y-12735000D01*
X19805000Y-12695000D02*
X19765000Y-12735000D01*
X19780000Y-2670000D02*
X19820000Y-2710000D01*
X19820000Y-2670000D02*
X19780000Y-2710000D01*
X19780000Y-2755000D02*
X19820000Y-2795000D01*
X19820000Y-2755000D02*
X19780000Y-2795000D01*
X19850000Y-12440000D02*
X19890000Y-12480000D01*
X19890000Y-12440000D02*
X19850000Y-12480000D01*
X19850000Y-12525000D02*
X19890000Y-12565000D01*
X19890000Y-12525000D02*
X19850000Y-12565000D01*
X19850000Y-12610000D02*
X19890000Y-12650000D01*
X19890000Y-12610000D02*
X19850000Y-12650000D01*
X19850000Y-12695000D02*
X19890000Y-12735000D01*
X19890000Y-12695000D02*
X19850000Y-12735000D01*
X19935000Y-12440000D02*
X19975000Y-12480000D01*
X19975000Y-12440000D02*
X19935000Y-12480000D01*
X19935000Y-12525000D02*
X19975000Y-12565000D01*
X19975000Y-12525000D02*
X19935000Y-12565000D01*
X19935000Y-12610000D02*
X19975000Y-12650000D01*
X19975000Y-12610000D02*
X19935000Y-12650000D01*
X19935000Y-12695000D02*
X19975000Y-12735000D01*
X19975000Y-12695000D02*
X19935000Y-12735000D01*
X20020000Y-12440000D02*
X20060000Y-12480000D01*
X20060000Y-12440000D02*
X20020000Y-12480000D01*
X20020000Y-12525000D02*
X20060000Y-12565000D01*
X20060000Y-12525000D02*
X20020000Y-12565000D01*
X20020000Y-12610000D02*
X20060000Y-12650000D01*
X20060000Y-12610000D02*
X20020000Y-12650000D01*
X20020000Y-12695000D02*
X20060000Y-12735000D01*
X20060000Y-12695000D02*
X20020000Y-12735000D01*
X20055000Y-14345000D02*
X20095000Y-14385000D01*
X20095000Y-14345000D02*
X20055000Y-14385000D01*
X20105000Y-12440000D02*
X20145000Y-12480000D01*
X20145000Y-12440000D02*
X20105000Y-12480000D01*
X20105000Y-12525000D02*
X20145000Y-12565000D01*
X20145000Y-12525000D02*
X20105000Y-12565000D01*
X20105000Y-12610000D02*
X20145000Y-12650000D01*
X20145000Y-12610000D02*
X20105000Y-12650000D01*
X20105000Y-12695000D02*
X20145000Y-12735000D01*
X20145000Y-12695000D02*
X20105000Y-12735000D01*
X20190000Y-12440000D02*
X20230000Y-12480000D01*
X20230000Y-12440000D02*
X20190000Y-12480000D01*
X20190000Y-12525000D02*
X20230000Y-12565000D01*
X20230000Y-12525000D02*
X20190000Y-12565000D01*
X20190000Y-12610000D02*
X20230000Y-12650000D01*
X20230000Y-12610000D02*
X20190000Y-12650000D01*
X20190000Y-12695000D02*
X20230000Y-12735000D01*
X20230000Y-12695000D02*
X20190000Y-12735000D01*
X20275000Y-12440000D02*
X20315000Y-12480000D01*
X20315000Y-12440000D02*
X20275000Y-12480000D01*
X20275000Y-12525000D02*
X20315000Y-12565000D01*
X20315000Y-12525000D02*
X20275000Y-12565000D01*
X20275000Y-12610000D02*
X20315000Y-12650000D01*
X20315000Y-12610000D02*
X20275000Y-12650000D01*
X20275000Y-12695000D02*
X20315000Y-12735000D01*
X20315000Y-12695000D02*
X20275000Y-12735000D01*
X20360000Y-12440000D02*
X20400000Y-12480000D01*
X20400000Y-12440000D02*
X20360000Y-12480000D01*
X20360000Y-12525000D02*
X20400000Y-12565000D01*
X20400000Y-12525000D02*
X20360000Y-12565000D01*
X20360000Y-12610000D02*
X20400000Y-12650000D01*
X20400000Y-12610000D02*
X20360000Y-12650000D01*
X20360000Y-12695000D02*
X20400000Y-12735000D01*
X20400000Y-12695000D02*
X20360000Y-12735000D01*
X20445000Y-12440000D02*
X20485000Y-12480000D01*
X20485000Y-12440000D02*
X20445000Y-12480000D01*
X20445000Y-12525000D02*
X20485000Y-12565000D01*
X20485000Y-12525000D02*
X20445000Y-12565000D01*
X20445000Y-12610000D02*
X20485000Y-12650000D01*
X20485000Y-12610000D02*
X20445000Y-12650000D01*
X20445000Y-12695000D02*
X20485000Y-12735000D01*
X20485000Y-12695000D02*
X20445000Y-12735000D01*
X20530000Y-12440000D02*
X20570000Y-12480000D01*
X20570000Y-12440000D02*
X20530000Y-12480000D01*
X20530000Y-12525000D02*
X20570000Y-12565000D01*
X20570000Y-12525000D02*
X20530000Y-12565000D01*
X20530000Y-12610000D02*
X20570000Y-12650000D01*
X20570000Y-12610000D02*
X20530000Y-12650000D01*
X20530000Y-12695000D02*
X20570000Y-12735000D01*
X20570000Y-12695000D02*
X20530000Y-12735000D01*
X20555000Y-5385000D02*
X20595000Y-5425000D01*
X20595000Y-5385000D02*
X20555000Y-5425000D01*
X20555000Y-5470000D02*
X20595000Y-5510000D01*
X20595000Y-5470000D02*
X20555000Y-5510000D01*
X20555000Y-5555000D02*
X20595000Y-5595000D01*
X20595000Y-5555000D02*
X20555000Y-5595000D01*
X20555000Y-5640000D02*
X20595000Y-5680000D01*
X20595000Y-5640000D02*
X20555000Y-5680000D01*
X20615000Y-12440000D02*
X20655000Y-12480000D01*
X20655000Y-12440000D02*
X20615000Y-12480000D01*
X20615000Y-12525000D02*
X20655000Y-12565000D01*
X20655000Y-12525000D02*
X20615000Y-12565000D01*
X20615000Y-12610000D02*
X20655000Y-12650000D01*
X20655000Y-12610000D02*
X20615000Y-12650000D01*
X20615000Y-12695000D02*
X20655000Y-12735000D01*
X20655000Y-12695000D02*
X20615000Y-12735000D01*
X20640000Y-5385000D02*
X20680000Y-5425000D01*
X20680000Y-5385000D02*
X20640000Y-5425000D01*
X20640000Y-5470000D02*
X20680000Y-5510000D01*
X20680000Y-5470000D02*
X20640000Y-5510000D01*
X20640000Y-5555000D02*
X20680000Y-5595000D01*
X20680000Y-5555000D02*
X20640000Y-5595000D01*
X20640000Y-5640000D02*
X20680000Y-5680000D01*
X20680000Y-5640000D02*
X20640000Y-5680000D01*
X20700000Y-12440000D02*
X20740000Y-12480000D01*
X20740000Y-12440000D02*
X20700000Y-12480000D01*
X20700000Y-12525000D02*
X20740000Y-12565000D01*
X20740000Y-12525000D02*
X20700000Y-12565000D01*
X20700000Y-12610000D02*
X20740000Y-12650000D01*
X20740000Y-12610000D02*
X20700000Y-12650000D01*
X20700000Y-12695000D02*
X20740000Y-12735000D01*
X20740000Y-12695000D02*
X20700000Y-12735000D01*
X20725000Y-5385000D02*
X20765000Y-5425000D01*
X20765000Y-5385000D02*
X20725000Y-5425000D01*
X20725000Y-5470000D02*
X20765000Y-5510000D01*
X20765000Y-5470000D02*
X20725000Y-5510000D01*
X20725000Y-5555000D02*
X20765000Y-5595000D01*
X20765000Y-5555000D02*
X20725000Y-5595000D01*
X20725000Y-5640000D02*
X20765000Y-5680000D01*
X20765000Y-5640000D02*
X20725000Y-5680000D01*
X20785000Y-12440000D02*
X20825000Y-12480000D01*
X20825000Y-12440000D02*
X20785000Y-12480000D01*
X20785000Y-12525000D02*
X20825000Y-12565000D01*
X20825000Y-12525000D02*
X20785000Y-12565000D01*
X20785000Y-12610000D02*
X20825000Y-12650000D01*
X20825000Y-12610000D02*
X20785000Y-12650000D01*
X20785000Y-12695000D02*
X20825000Y-12735000D01*
X20825000Y-12695000D02*
X20785000Y-12735000D01*
X20810000Y-5385000D02*
X20850000Y-5425000D01*
X20850000Y-5385000D02*
X20810000Y-5425000D01*
X20810000Y-5470000D02*
X20850000Y-5510000D01*
X20850000Y-5470000D02*
X20810000Y-5510000D01*
X20810000Y-5555000D02*
X20850000Y-5595000D01*
X20850000Y-5555000D02*
X20810000Y-5595000D01*
X20810000Y-5640000D02*
X20850000Y-5680000D01*
X20850000Y-5640000D02*
X20810000Y-5680000D01*
X20870000Y-12440000D02*
X20910000Y-12480000D01*
X20910000Y-12440000D02*
X20870000Y-12480000D01*
X20870000Y-12525000D02*
X20910000Y-12565000D01*
X20910000Y-12525000D02*
X20870000Y-12565000D01*
X20870000Y-12610000D02*
X20910000Y-12650000D01*
X20910000Y-12610000D02*
X20870000Y-12650000D01*
X20870000Y-12695000D02*
X20910000Y-12735000D01*
X20910000Y-12695000D02*
X20870000Y-12735000D01*
X20895000Y-5385000D02*
X20935000Y-5425000D01*
X20935000Y-5385000D02*
X20895000Y-5425000D01*
X20895000Y-5470000D02*
X20935000Y-5510000D01*
X20935000Y-5470000D02*
X20895000Y-5510000D01*
X20895000Y-5555000D02*
X20935000Y-5595000D01*
X20935000Y-5555000D02*
X20895000Y-5595000D01*
X20895000Y-5640000D02*
X20935000Y-5680000D01*
X20935000Y-5640000D02*
X20895000Y-5680000D01*
X20955000Y-12440000D02*
X20995000Y-12480000D01*
X20995000Y-12440000D02*
X20955000Y-12480000D01*
X20955000Y-12525000D02*
X20995000Y-12565000D01*
X20995000Y-12525000D02*
X20955000Y-12565000D01*
X20955000Y-12610000D02*
X20995000Y-12650000D01*
X20995000Y-12610000D02*
X20955000Y-12650000D01*
X20955000Y-12695000D02*
X20995000Y-12735000D01*
X20995000Y-12695000D02*
X20955000Y-12735000D01*
X20980000Y-5385000D02*
X21020000Y-5425000D01*
X21020000Y-5385000D02*
X20980000Y-5425000D01*
X20980000Y-5470000D02*
X21020000Y-5510000D01*
X21020000Y-5470000D02*
X20980000Y-5510000D01*
X20980000Y-5555000D02*
X21020000Y-5595000D01*
X21020000Y-5555000D02*
X20980000Y-5595000D01*
X20980000Y-5640000D02*
X21020000Y-5680000D01*
X21020000Y-5640000D02*
X20980000Y-5680000D01*
X21040000Y-12440000D02*
X21080000Y-12480000D01*
X21080000Y-12440000D02*
X21040000Y-12480000D01*
X21040000Y-12525000D02*
X21080000Y-12565000D01*
X21080000Y-12525000D02*
X21040000Y-12565000D01*
X21040000Y-12610000D02*
X21080000Y-12650000D01*
X21080000Y-12610000D02*
X21040000Y-12650000D01*
X21040000Y-12695000D02*
X21080000Y-12735000D01*
X21080000Y-12695000D02*
X21040000Y-12735000D01*
X21065000Y-5385000D02*
X21105000Y-5425000D01*
X21105000Y-5385000D02*
X21065000Y-5425000D01*
X21065000Y-5470000D02*
X21105000Y-5510000D01*
X21105000Y-5470000D02*
X21065000Y-5510000D01*
X21065000Y-5555000D02*
X21105000Y-5595000D01*
X21105000Y-5555000D02*
X21065000Y-5595000D01*
X21065000Y-5640000D02*
X21105000Y-5680000D01*
X21105000Y-5640000D02*
X21065000Y-5680000D01*
X21125000Y-12440000D02*
X21165000Y-12480000D01*
X21165000Y-12440000D02*
X21125000Y-12480000D01*
X21125000Y-12525000D02*
X21165000Y-12565000D01*
X21165000Y-12525000D02*
X21125000Y-12565000D01*
X21125000Y-12610000D02*
X21165000Y-12650000D01*
X21165000Y-12610000D02*
X21125000Y-12650000D01*
X21125000Y-12695000D02*
X21165000Y-12735000D01*
X21165000Y-12695000D02*
X21125000Y-12735000D01*
X21150000Y-5385000D02*
X21190000Y-5425000D01*
X21190000Y-5385000D02*
X21150000Y-5425000D01*
X21150000Y-5470000D02*
X21190000Y-5510000D01*
X21190000Y-5470000D02*
X21150000Y-5510000D01*
X21150000Y-5555000D02*
X21190000Y-5595000D01*
X21190000Y-5555000D02*
X21150000Y-5595000D01*
X21150000Y-5640000D02*
X21190000Y-5680000D01*
X21190000Y-5640000D02*
X21150000Y-5680000D01*
X21210000Y-12440000D02*
X21250000Y-12480000D01*
X21250000Y-12440000D02*
X21210000Y-12480000D01*
X21210000Y-12525000D02*
X21250000Y-12565000D01*
X21250000Y-12525000D02*
X21210000Y-12565000D01*
X21210000Y-12610000D02*
X21250000Y-12650000D01*
X21250000Y-12610000D02*
X21210000Y-12650000D01*
X21210000Y-12695000D02*
X21250000Y-12735000D01*
X21250000Y-12695000D02*
X21210000Y-12735000D01*
X21235000Y-5385000D02*
X21275000Y-5425000D01*
X21275000Y-5385000D02*
X21235000Y-5425000D01*
X21235000Y-5470000D02*
X21275000Y-5510000D01*
X21275000Y-5470000D02*
X21235000Y-5510000D01*
X21235000Y-5555000D02*
X21275000Y-5595000D01*
X21275000Y-5555000D02*
X21235000Y-5595000D01*
X21235000Y-5640000D02*
X21275000Y-5680000D01*
X21275000Y-5640000D02*
X21235000Y-5680000D01*
X21295000Y-12440000D02*
X21335000Y-12480000D01*
X21335000Y-12440000D02*
X21295000Y-12480000D01*
X21295000Y-12525000D02*
X21335000Y-12565000D01*
X21335000Y-12525000D02*
X21295000Y-12565000D01*
X21295000Y-12610000D02*
X21335000Y-12650000D01*
X21335000Y-12610000D02*
X21295000Y-12650000D01*
X21295000Y-12695000D02*
X21335000Y-12735000D01*
X21335000Y-12695000D02*
X21295000Y-12735000D01*
X21320000Y-5385000D02*
X21360000Y-5425000D01*
X21360000Y-5385000D02*
X21320000Y-5425000D01*
X21320000Y-5470000D02*
X21360000Y-5510000D01*
X21360000Y-5470000D02*
X21320000Y-5510000D01*
X21320000Y-5555000D02*
X21360000Y-5595000D01*
X21360000Y-5555000D02*
X21320000Y-5595000D01*
X21320000Y-5640000D02*
X21360000Y-5680000D01*
X21360000Y-5640000D02*
X21320000Y-5680000D01*
X21380000Y-12440000D02*
X21420000Y-12480000D01*
X21420000Y-12440000D02*
X21380000Y-12480000D01*
X21380000Y-12525000D02*
X21420000Y-12565000D01*
X21420000Y-12525000D02*
X21380000Y-12565000D01*
X21380000Y-12610000D02*
X21420000Y-12650000D01*
X21420000Y-12610000D02*
X21380000Y-12650000D01*
X21380000Y-12695000D02*
X21420000Y-12735000D01*
X21420000Y-12695000D02*
X21380000Y-12735000D01*
X21405000Y-5385000D02*
X21445000Y-5425000D01*
X21445000Y-5385000D02*
X21405000Y-5425000D01*
X21405000Y-5470000D02*
X21445000Y-5510000D01*
X21445000Y-5470000D02*
X21405000Y-5510000D01*
X21405000Y-5555000D02*
X21445000Y-5595000D01*
X21445000Y-5555000D02*
X21405000Y-5595000D01*
X21405000Y-5640000D02*
X21445000Y-5680000D01*
X21445000Y-5640000D02*
X21405000Y-5680000D01*
X21465000Y-12440000D02*
X21505000Y-12480000D01*
X21505000Y-12440000D02*
X21465000Y-12480000D01*
X21465000Y-12525000D02*
X21505000Y-12565000D01*
X21505000Y-12525000D02*
X21465000Y-12565000D01*
X21465000Y-12610000D02*
X21505000Y-12650000D01*
X21505000Y-12610000D02*
X21465000Y-12650000D01*
X21465000Y-12695000D02*
X21505000Y-12735000D01*
X21505000Y-12695000D02*
X21465000Y-12735000D01*
X21490000Y-5385000D02*
X21530000Y-5425000D01*
X21530000Y-5385000D02*
X21490000Y-5425000D01*
X21490000Y-5470000D02*
X21530000Y-5510000D01*
X21530000Y-5470000D02*
X21490000Y-5510000D01*
X21490000Y-5555000D02*
X21530000Y-5595000D01*
X21530000Y-5555000D02*
X21490000Y-5595000D01*
X21490000Y-5640000D02*
X21530000Y-5680000D01*
X21530000Y-5640000D02*
X21490000Y-5680000D01*
X21550000Y-12440000D02*
X21590000Y-12480000D01*
X21590000Y-12440000D02*
X21550000Y-12480000D01*
X21550000Y-12525000D02*
X21590000Y-12565000D01*
X21590000Y-12525000D02*
X21550000Y-12565000D01*
X21550000Y-12610000D02*
X21590000Y-12650000D01*
X21590000Y-12610000D02*
X21550000Y-12650000D01*
X21550000Y-12695000D02*
X21590000Y-12735000D01*
X21590000Y-12695000D02*
X21550000Y-12735000D01*
X21635000Y-12440000D02*
X21675000Y-12480000D01*
X21675000Y-12440000D02*
X21635000Y-12480000D01*
X21635000Y-12525000D02*
X21675000Y-12565000D01*
X21675000Y-12525000D02*
X21635000Y-12565000D01*
X21635000Y-12610000D02*
X21675000Y-12650000D01*
X21675000Y-12610000D02*
X21635000Y-12650000D01*
X21635000Y-12695000D02*
X21675000Y-12735000D01*
X21675000Y-12695000D02*
X21635000Y-12735000D01*
X21720000Y-12440000D02*
X21760000Y-12480000D01*
X21760000Y-12440000D02*
X21720000Y-12480000D01*
X21720000Y-12525000D02*
X21760000Y-12565000D01*
X21760000Y-12525000D02*
X21720000Y-12565000D01*
X21720000Y-12610000D02*
X21760000Y-12650000D01*
X21760000Y-12610000D02*
X21720000Y-12650000D01*
X21720000Y-12695000D02*
X21760000Y-12735000D01*
X21760000Y-12695000D02*
X21720000Y-12735000D01*
X21805000Y-12440000D02*
X21845000Y-12480000D01*
X21845000Y-12440000D02*
X21805000Y-12480000D01*
X21805000Y-12525000D02*
X21845000Y-12565000D01*
X21845000Y-12525000D02*
X21805000Y-12565000D01*
X21805000Y-12610000D02*
X21845000Y-12650000D01*
X21845000Y-12610000D02*
X21805000Y-12650000D01*
X21805000Y-12695000D02*
X21845000Y-12735000D01*
X21845000Y-12695000D02*
X21805000Y-12735000D01*
X21890000Y-12440000D02*
X21930000Y-12480000D01*
X21930000Y-12440000D02*
X21890000Y-12480000D01*
X21890000Y-12525000D02*
X21930000Y-12565000D01*
X21930000Y-12525000D02*
X21890000Y-12565000D01*
X21890000Y-12610000D02*
X21930000Y-12650000D01*
X21930000Y-12610000D02*
X21890000Y-12650000D01*
X21890000Y-12695000D02*
X21930000Y-12735000D01*
X21930000Y-12695000D02*
X21890000Y-12735000D01*
X21975000Y-12440000D02*
X22015000Y-12480000D01*
X22015000Y-12440000D02*
X21975000Y-12480000D01*
X21975000Y-12525000D02*
X22015000Y-12565000D01*
X22015000Y-12525000D02*
X21975000Y-12565000D01*
X21975000Y-12610000D02*
X22015000Y-12650000D01*
X22015000Y-12610000D02*
X21975000Y-12650000D01*
X21975000Y-12695000D02*
X22015000Y-12735000D01*
X22015000Y-12695000D02*
X21975000Y-12735000D01*
X2500000Y-7970000D02*
G75*
G03X2500000Y-7970000I-30000J0D01*
G01*
X2500000Y-8090000D02*
G75*
G03X2500000Y-8090000I-30000J0D01*
G01*
X2500000Y-8210000D02*
G75*
G03X2500000Y-8210000I-30000J0D01*
G01*
X2500000Y-8330000D02*
G75*
G03X2500000Y-8330000I-30000J0D01*
G01*
X2500000Y-8450000D02*
G75*
G03X2500000Y-8450000I-30000J0D01*
G01*
X2500000Y-8570000D02*
G75*
G03X2500000Y-8570000I-30000J0D01*
G01*
X2500000Y-8690000D02*
G75*
G03X2500000Y-8690000I-30000J0D01*
G01*
X2600000Y-8030000D02*
G75*
G03X2600000Y-8030000I-30000J0D01*
G01*
X2600000Y-8150000D02*
G75*
G03X2600000Y-8150000I-30000J0D01*
G01*
X2600000Y-8270000D02*
G75*
G03X2600000Y-8270000I-30000J0D01*
G01*
X2600000Y-8390000D02*
G75*
G03X2600000Y-8390000I-30000J0D01*
G01*
X2600000Y-8510000D02*
G75*
G03X2600000Y-8510000I-30000J0D01*
G01*
X2600000Y-8630000D02*
G75*
G03X2600000Y-8630000I-30000J0D01*
G01*
X2700000Y-7970000D02*
G75*
G03X2700000Y-7970000I-30000J0D01*
G01*
X2700000Y-8090000D02*
G75*
G03X2700000Y-8090000I-30000J0D01*
G01*
X2700000Y-8210000D02*
G75*
G03X2700000Y-8210000I-30000J0D01*
G01*
X2700000Y-8330000D02*
G75*
G03X2700000Y-8330000I-30000J0D01*
G01*
X2700000Y-8450000D02*
G75*
G03X2700000Y-8450000I-30000J0D01*
G01*
X2700000Y-8570000D02*
G75*
G03X2700000Y-8570000I-30000J0D01*
G01*
X2700000Y-8690000D02*
G75*
G03X2700000Y-8690000I-30000J0D01*
G01*
X2800000Y-8030000D02*
G75*
G03X2800000Y-8030000I-30000J0D01*
G01*
X2800000Y-8150000D02*
G75*
G03X2800000Y-8150000I-30000J0D01*
G01*
X2800000Y-8270000D02*
G75*
G03X2800000Y-8270000I-30000J0D01*
G01*
X2800000Y-8390000D02*
G75*
G03X2800000Y-8390000I-30000J0D01*
G01*
X2800000Y-8510000D02*
G75*
G03X2800000Y-8510000I-30000J0D01*
G01*
X2800000Y-8630000D02*
G75*
G03X2800000Y-8630000I-30000J0D01*
G01*
X2900000Y-7970000D02*
G75*
G03X2900000Y-7970000I-30000J0D01*
G01*
X2900000Y-8090000D02*
G75*
G03X2900000Y-8090000I-30000J0D01*
G01*
X2900000Y-8210000D02*
G75*
G03X2900000Y-8210000I-30000J0D01*
G01*
X2900000Y-8330000D02*
G75*
G03X2900000Y-8330000I-30000J0D01*
G01*
X2900000Y-8450000D02*
G75*
G03X2900000Y-8450000I-30000J0D01*
G01*
X2900000Y-8570000D02*
G75*
G03X2900000Y-8570000I-30000J0D01*
G01*
X2900000Y-8690000D02*
G75*
G03X2900000Y-8690000I-30000J0D01*
G01*
X3000000Y-8030000D02*
G75*
G03X3000000Y-8030000I-30000J0D01*
G01*
X3000000Y-8150000D02*
G75*
G03X3000000Y-8150000I-30000J0D01*
G01*
X3000000Y-8270000D02*
G75*
G03X3000000Y-8270000I-30000J0D01*
G01*
X3000000Y-8390000D02*
G75*
G03X3000000Y-8390000I-30000J0D01*
G01*
X3000000Y-8510000D02*
G75*
G03X3000000Y-8510000I-30000J0D01*
G01*
X3000000Y-8630000D02*
G75*
G03X3000000Y-8630000I-30000J0D01*
G01*
X3100000Y-7970000D02*
G75*
G03X3100000Y-7970000I-30000J0D01*
G01*
X3100000Y-8090000D02*
G75*
G03X3100000Y-8090000I-30000J0D01*
G01*
X3100000Y-8210000D02*
G75*
G03X3100000Y-8210000I-30000J0D01*
G01*
X3100000Y-8330000D02*
G75*
G03X3100000Y-8330000I-30000J0D01*
G01*
X3100000Y-8450000D02*
G75*
G03X3100000Y-8450000I-30000J0D01*
G01*
X3100000Y-8570000D02*
G75*
G03X3100000Y-8570000I-30000J0D01*
G01*
X3100000Y-8690000D02*
G75*
G03X3100000Y-8690000I-30000J0D01*
G01*
X3260000Y-9270000D02*
G75*
G03X3260000Y-9270000I-30000J0D01*
G01*
X3260000Y-9390000D02*
G75*
G03X3260000Y-9390000I-30000J0D01*
G01*
X3260000Y-9510000D02*
G75*
G03X3260000Y-9510000I-30000J0D01*
G01*
X3260000Y-9630000D02*
G75*
G03X3260000Y-9630000I-30000J0D01*
G01*
X3260000Y-9750000D02*
G75*
G03X3260000Y-9750000I-30000J0D01*
G01*
X3260000Y-9870000D02*
G75*
G03X3260000Y-9870000I-30000J0D01*
G01*
X3260000Y-9990000D02*
G75*
G03X3260000Y-9990000I-30000J0D01*
G01*
X3360000Y-9330000D02*
G75*
G03X3360000Y-9330000I-30000J0D01*
G01*
X3360000Y-9450000D02*
G75*
G03X3360000Y-9450000I-30000J0D01*
G01*
X3360000Y-9570000D02*
G75*
G03X3360000Y-9570000I-30000J0D01*
G01*
X3360000Y-9690000D02*
G75*
G03X3360000Y-9690000I-30000J0D01*
G01*
X3360000Y-9810000D02*
G75*
G03X3360000Y-9810000I-30000J0D01*
G01*
X3360000Y-9930000D02*
G75*
G03X3360000Y-9930000I-30000J0D01*
G01*
X3460000Y-9270000D02*
G75*
G03X3460000Y-9270000I-30000J0D01*
G01*
X3460000Y-9390000D02*
G75*
G03X3460000Y-9390000I-30000J0D01*
G01*
X3460000Y-9510000D02*
G75*
G03X3460000Y-9510000I-30000J0D01*
G01*
X3460000Y-9630000D02*
G75*
G03X3460000Y-9630000I-30000J0D01*
G01*
X3460000Y-9750000D02*
G75*
G03X3460000Y-9750000I-30000J0D01*
G01*
X3460000Y-9870000D02*
G75*
G03X3460000Y-9870000I-30000J0D01*
G01*
X3460000Y-9990000D02*
G75*
G03X3460000Y-9990000I-30000J0D01*
G01*
X3560000Y-9330000D02*
G75*
G03X3560000Y-9330000I-30000J0D01*
G01*
X3560000Y-9450000D02*
G75*
G03X3560000Y-9450000I-30000J0D01*
G01*
X3560000Y-9570000D02*
G75*
G03X3560000Y-9570000I-30000J0D01*
G01*
X3560000Y-9690000D02*
G75*
G03X3560000Y-9690000I-30000J0D01*
G01*
X3560000Y-9810000D02*
G75*
G03X3560000Y-9810000I-30000J0D01*
G01*
X3560000Y-9930000D02*
G75*
G03X3560000Y-9930000I-30000J0D01*
G01*
X3665000Y-9270000D02*
G75*
G03X3665000Y-9270000I-30000J0D01*
G01*
X3665000Y-9390000D02*
G75*
G03X3665000Y-9390000I-30000J0D01*
G01*
X3665000Y-9510000D02*
G75*
G03X3665000Y-9510000I-30000J0D01*
G01*
X3665000Y-9630000D02*
G75*
G03X3665000Y-9630000I-30000J0D01*
G01*
X3665000Y-9750000D02*
G75*
G03X3665000Y-9750000I-30000J0D01*
G01*
X3665000Y-9870000D02*
G75*
G03X3665000Y-9870000I-30000J0D01*
G01*
X3665000Y-9990000D02*
G75*
G03X3665000Y-9990000I-30000J0D01*
G01*
X3765000Y-9330000D02*
G75*
G03X3765000Y-9330000I-30000J0D01*
G01*
X3765000Y-9450000D02*
G75*
G03X3765000Y-9450000I-30000J0D01*
G01*
X3765000Y-9570000D02*
G75*
G03X3765000Y-9570000I-30000J0D01*
G01*
X3765000Y-9690000D02*
G75*
G03X3765000Y-9690000I-30000J0D01*
G01*
X3765000Y-9810000D02*
G75*
G03X3765000Y-9810000I-30000J0D01*
G01*
X3765000Y-9930000D02*
G75*
G03X3765000Y-9930000I-30000J0D01*
G01*
X3865000Y-9270000D02*
G75*
G03X3865000Y-9270000I-30000J0D01*
G01*
X3865000Y-9390000D02*
G75*
G03X3865000Y-9390000I-30000J0D01*
G01*
X3865000Y-9510000D02*
G75*
G03X3865000Y-9510000I-30000J0D01*
G01*
X3865000Y-9630000D02*
G75*
G03X3865000Y-9630000I-30000J0D01*
G01*
X3865000Y-9750000D02*
G75*
G03X3865000Y-9750000I-30000J0D01*
G01*
X3865000Y-9870000D02*
G75*
G03X3865000Y-9870000I-30000J0D01*
G01*
X3865000Y-9990000D02*
G75*
G03X3865000Y-9990000I-30000J0D01*
G01*
X4080000Y-8680000D02*
G75*
G03X4080000Y-8680000I-30000J0D01*
G01*
X4080000Y-8800000D02*
G75*
G03X4080000Y-8800000I-30000J0D01*
G01*
X4080000Y-8920000D02*
G75*
G03X4080000Y-8920000I-30000J0D01*
G01*
X4080000Y-9040000D02*
G75*
G03X4080000Y-9040000I-30000J0D01*
G01*
X4080000Y-9160000D02*
G75*
G03X4080000Y-9160000I-30000J0D01*
G01*
X4080000Y-9280000D02*
G75*
G03X4080000Y-9280000I-30000J0D01*
G01*
X4080000Y-9400000D02*
G75*
G03X4080000Y-9400000I-30000J0D01*
G01*
X4180000Y-8740000D02*
G75*
G03X4180000Y-8740000I-30000J0D01*
G01*
X4180000Y-8860000D02*
G75*
G03X4180000Y-8860000I-30000J0D01*
G01*
X4180000Y-8980000D02*
G75*
G03X4180000Y-8980000I-30000J0D01*
G01*
X4180000Y-9100000D02*
G75*
G03X4180000Y-9100000I-30000J0D01*
G01*
X4180000Y-9220000D02*
G75*
G03X4180000Y-9220000I-30000J0D01*
G01*
X4180000Y-9340000D02*
G75*
G03X4180000Y-9340000I-30000J0D01*
G01*
X4280000Y-8680000D02*
G75*
G03X4280000Y-8680000I-30000J0D01*
G01*
X4280000Y-8800000D02*
G75*
G03X4280000Y-8800000I-30000J0D01*
G01*
X4280000Y-8920000D02*
G75*
G03X4280000Y-8920000I-30000J0D01*
G01*
X4280000Y-9040000D02*
G75*
G03X4280000Y-9040000I-30000J0D01*
G01*
X4280000Y-9160000D02*
G75*
G03X4280000Y-9160000I-30000J0D01*
G01*
X4280000Y-9280000D02*
G75*
G03X4280000Y-9280000I-30000J0D01*
G01*
X4280000Y-9400000D02*
G75*
G03X4280000Y-9400000I-30000J0D01*
G01*
X4380000Y-8740000D02*
G75*
G03X4380000Y-8740000I-30000J0D01*
G01*
X4380000Y-8860000D02*
G75*
G03X4380000Y-8860000I-30000J0D01*
G01*
X4380000Y-8980000D02*
G75*
G03X4380000Y-8980000I-30000J0D01*
G01*
X4380000Y-9100000D02*
G75*
G03X4380000Y-9100000I-30000J0D01*
G01*
X4380000Y-9220000D02*
G75*
G03X4380000Y-9220000I-30000J0D01*
G01*
X4380000Y-9340000D02*
G75*
G03X4380000Y-9340000I-30000J0D01*
G01*
X4480000Y-8680000D02*
G75*
G03X4480000Y-8680000I-30000J0D01*
G01*
X4480000Y-8800000D02*
G75*
G03X4480000Y-8800000I-30000J0D01*
G01*
X4480000Y-8920000D02*
G75*
G03X4480000Y-8920000I-30000J0D01*
G01*
X4480000Y-9040000D02*
G75*
G03X4480000Y-9040000I-30000J0D01*
G01*
X4480000Y-9160000D02*
G75*
G03X4480000Y-9160000I-30000J0D01*
G01*
X4480000Y-9280000D02*
G75*
G03X4480000Y-9280000I-30000J0D01*
G01*
X4480000Y-9400000D02*
G75*
G03X4480000Y-9400000I-30000J0D01*
G01*
X4580000Y-8740000D02*
G75*
G03X4580000Y-8740000I-30000J0D01*
G01*
X4580000Y-8860000D02*
G75*
G03X4580000Y-8860000I-30000J0D01*
G01*
X4580000Y-8980000D02*
G75*
G03X4580000Y-8980000I-30000J0D01*
G01*
X4580000Y-9100000D02*
G75*
G03X4580000Y-9100000I-30000J0D01*
G01*
X4580000Y-9220000D02*
G75*
G03X4580000Y-9220000I-30000J0D01*
G01*
X4580000Y-9340000D02*
G75*
G03X4580000Y-9340000I-30000J0D01*
G01*
X4680000Y-8680000D02*
G75*
G03X4680000Y-8680000I-30000J0D01*
G01*
X4680000Y-8800000D02*
G75*
G03X4680000Y-8800000I-30000J0D01*
G01*
X4680000Y-8920000D02*
G75*
G03X4680000Y-8920000I-30000J0D01*
G01*
X4680000Y-9040000D02*
G75*
G03X4680000Y-9040000I-30000J0D01*
G01*
X4680000Y-9160000D02*
G75*
G03X4680000Y-9160000I-30000J0D01*
G01*
X4680000Y-9280000D02*
G75*
G03X4680000Y-9280000I-30000J0D01*
G01*
X4680000Y-9400000D02*
G75*
G03X4680000Y-9400000I-30000J0D01*
G01*
X4850000Y-9360000D02*
G75*
G03X4850000Y-9360000I-30000J0D01*
G01*
X4850000Y-9480000D02*
G75*
G03X4850000Y-9480000I-30000J0D01*
G01*
X4850000Y-9600000D02*
G75*
G03X4850000Y-9600000I-30000J0D01*
G01*
X4850000Y-9720000D02*
G75*
G03X4850000Y-9720000I-30000J0D01*
G01*
X4850000Y-9840000D02*
G75*
G03X4850000Y-9840000I-30000J0D01*
G01*
X4850000Y-9960000D02*
G75*
G03X4850000Y-9960000I-30000J0D01*
G01*
X4850000Y-10080000D02*
G75*
G03X4850000Y-10080000I-30000J0D01*
G01*
X4950000Y-9420000D02*
G75*
G03X4950000Y-9420000I-30000J0D01*
G01*
X4950000Y-9540000D02*
G75*
G03X4950000Y-9540000I-30000J0D01*
G01*
X4950000Y-9660000D02*
G75*
G03X4950000Y-9660000I-30000J0D01*
G01*
X4950000Y-9780000D02*
G75*
G03X4950000Y-9780000I-30000J0D01*
G01*
X4950000Y-9900000D02*
G75*
G03X4950000Y-9900000I-30000J0D01*
G01*
X4950000Y-10020000D02*
G75*
G03X4950000Y-10020000I-30000J0D01*
G01*
X5050000Y-9360000D02*
G75*
G03X5050000Y-9360000I-30000J0D01*
G01*
X5050000Y-9480000D02*
G75*
G03X5050000Y-9480000I-30000J0D01*
G01*
X5050000Y-9600000D02*
G75*
G03X5050000Y-9600000I-30000J0D01*
G01*
X5050000Y-9720000D02*
G75*
G03X5050000Y-9720000I-30000J0D01*
G01*
X5050000Y-9840000D02*
G75*
G03X5050000Y-9840000I-30000J0D01*
G01*
X5050000Y-9960000D02*
G75*
G03X5050000Y-9960000I-30000J0D01*
G01*
X5050000Y-10080000D02*
G75*
G03X5050000Y-10080000I-30000J0D01*
G01*
X5150000Y-9420000D02*
G75*
G03X5150000Y-9420000I-30000J0D01*
G01*
X5150000Y-9540000D02*
G75*
G03X5150000Y-9540000I-30000J0D01*
G01*
X5150000Y-9660000D02*
G75*
G03X5150000Y-9660000I-30000J0D01*
G01*
X5150000Y-9780000D02*
G75*
G03X5150000Y-9780000I-30000J0D01*
G01*
X5150000Y-9900000D02*
G75*
G03X5150000Y-9900000I-30000J0D01*
G01*
X5150000Y-10020000D02*
G75*
G03X5150000Y-10020000I-30000J0D01*
G01*
X5250000Y-9360000D02*
G75*
G03X5250000Y-9360000I-30000J0D01*
G01*
X5250000Y-9480000D02*
G75*
G03X5250000Y-9480000I-30000J0D01*
G01*
X5250000Y-9600000D02*
G75*
G03X5250000Y-9600000I-30000J0D01*
G01*
X5250000Y-9720000D02*
G75*
G03X5250000Y-9720000I-30000J0D01*
G01*
X5250000Y-9840000D02*
G75*
G03X5250000Y-9840000I-30000J0D01*
G01*
X5250000Y-9960000D02*
G75*
G03X5250000Y-9960000I-30000J0D01*
G01*
X5250000Y-10080000D02*
G75*
G03X5250000Y-10080000I-30000J0D01*
G01*
X5350000Y-9420000D02*
G75*
G03X5350000Y-9420000I-30000J0D01*
G01*
X5350000Y-9540000D02*
G75*
G03X5350000Y-9540000I-30000J0D01*
G01*
X5350000Y-9660000D02*
G75*
G03X5350000Y-9660000I-30000J0D01*
G01*
X5350000Y-9780000D02*
G75*
G03X5350000Y-9780000I-30000J0D01*
G01*
X5350000Y-9900000D02*
G75*
G03X5350000Y-9900000I-30000J0D01*
G01*
X5350000Y-10020000D02*
G75*
G03X5350000Y-10020000I-30000J0D01*
G01*
X5450000Y-9360000D02*
G75*
G03X5450000Y-9360000I-30000J0D01*
G01*
X5450000Y-9480000D02*
G75*
G03X5450000Y-9480000I-30000J0D01*
G01*
X5450000Y-9600000D02*
G75*
G03X5450000Y-9600000I-30000J0D01*
G01*
X5450000Y-9720000D02*
G75*
G03X5450000Y-9720000I-30000J0D01*
G01*
X5450000Y-9840000D02*
G75*
G03X5450000Y-9840000I-30000J0D01*
G01*
X5450000Y-9960000D02*
G75*
G03X5450000Y-9960000I-30000J0D01*
G01*
X5450000Y-10080000D02*
G75*
G03X5450000Y-10080000I-30000J0D01*
G01*
X18700000Y-7970000D02*
G75*
G03X18700000Y-7970000I-30000J0D01*
G01*
X18700000Y-8090000D02*
G75*
G03X18700000Y-8090000I-30000J0D01*
G01*
X18700000Y-8210000D02*
G75*
G03X18700000Y-8210000I-30000J0D01*
G01*
X18700000Y-8330000D02*
G75*
G03X18700000Y-8330000I-30000J0D01*
G01*
X18700000Y-8450000D02*
G75*
G03X18700000Y-8450000I-30000J0D01*
G01*
X18700000Y-8570000D02*
G75*
G03X18700000Y-8570000I-30000J0D01*
G01*
X18700000Y-8690000D02*
G75*
G03X18700000Y-8690000I-30000J0D01*
G01*
X18800000Y-8030000D02*
G75*
G03X18800000Y-8030000I-30000J0D01*
G01*
X18800000Y-8150000D02*
G75*
G03X18800000Y-8150000I-30000J0D01*
G01*
X18800000Y-8270000D02*
G75*
G03X18800000Y-8270000I-30000J0D01*
G01*
X18800000Y-8390000D02*
G75*
G03X18800000Y-8390000I-30000J0D01*
G01*
X18800000Y-8510000D02*
G75*
G03X18800000Y-8510000I-30000J0D01*
G01*
X18800000Y-8630000D02*
G75*
G03X18800000Y-8630000I-30000J0D01*
G01*
X18900000Y-7970000D02*
G75*
G03X18900000Y-7970000I-30000J0D01*
G01*
X18900000Y-8090000D02*
G75*
G03X18900000Y-8090000I-30000J0D01*
G01*
X18900000Y-8210000D02*
G75*
G03X18900000Y-8210000I-30000J0D01*
G01*
X18900000Y-8330000D02*
G75*
G03X18900000Y-8330000I-30000J0D01*
G01*
X18900000Y-8450000D02*
G75*
G03X18900000Y-8450000I-30000J0D01*
G01*
X18900000Y-8570000D02*
G75*
G03X18900000Y-8570000I-30000J0D01*
G01*
X18900000Y-8690000D02*
G75*
G03X18900000Y-8690000I-30000J0D01*
G01*
X19000000Y-8030000D02*
G75*
G03X19000000Y-8030000I-30000J0D01*
G01*
X19000000Y-8150000D02*
G75*
G03X19000000Y-8150000I-30000J0D01*
G01*
X19000000Y-8270000D02*
G75*
G03X19000000Y-8270000I-30000J0D01*
G01*
X19000000Y-8390000D02*
G75*
G03X19000000Y-8390000I-30000J0D01*
G01*
X19000000Y-8510000D02*
G75*
G03X19000000Y-8510000I-30000J0D01*
G01*
X19000000Y-8630000D02*
G75*
G03X19000000Y-8630000I-30000J0D01*
G01*
X19100000Y-7970000D02*
G75*
G03X19100000Y-7970000I-30000J0D01*
G01*
X19100000Y-8090000D02*
G75*
G03X19100000Y-8090000I-30000J0D01*
G01*
X19100000Y-8210000D02*
G75*
G03X19100000Y-8210000I-30000J0D01*
G01*
X19100000Y-8330000D02*
G75*
G03X19100000Y-8330000I-30000J0D01*
G01*
X19100000Y-8450000D02*
G75*
G03X19100000Y-8450000I-30000J0D01*
G01*
X19100000Y-8570000D02*
G75*
G03X19100000Y-8570000I-30000J0D01*
G01*
X19100000Y-8690000D02*
G75*
G03X19100000Y-8690000I-30000J0D01*
G01*
X19200000Y-8030000D02*
G75*
G03X19200000Y-8030000I-30000J0D01*
G01*
X19200000Y-8150000D02*
G75*
G03X19200000Y-8150000I-30000J0D01*
G01*
X19200000Y-8270000D02*
G75*
G03X19200000Y-8270000I-30000J0D01*
G01*
X19200000Y-8390000D02*
G75*
G03X19200000Y-8390000I-30000J0D01*
G01*
X19200000Y-8510000D02*
G75*
G03X19200000Y-8510000I-30000J0D01*
G01*
X19200000Y-8630000D02*
G75*
G03X19200000Y-8630000I-30000J0D01*
G01*
X19300000Y-7970000D02*
G75*
G03X19300000Y-7970000I-30000J0D01*
G01*
X19300000Y-8090000D02*
G75*
G03X19300000Y-8090000I-30000J0D01*
G01*
X19300000Y-8210000D02*
G75*
G03X19300000Y-8210000I-30000J0D01*
G01*
X19300000Y-8330000D02*
G75*
G03X19300000Y-8330000I-30000J0D01*
G01*
X19300000Y-8450000D02*
G75*
G03X19300000Y-8450000I-30000J0D01*
G01*
X19300000Y-8570000D02*
G75*
G03X19300000Y-8570000I-30000J0D01*
G01*
X19300000Y-8690000D02*
G75*
G03X19300000Y-8690000I-30000J0D01*
G01*
X19460000Y-9270000D02*
G75*
G03X19460000Y-9270000I-30000J0D01*
G01*
X19460000Y-9390000D02*
G75*
G03X19460000Y-9390000I-30000J0D01*
G01*
X19460000Y-9510000D02*
G75*
G03X19460000Y-9510000I-30000J0D01*
G01*
X19460000Y-9630000D02*
G75*
G03X19460000Y-9630000I-30000J0D01*
G01*
X19460000Y-9750000D02*
G75*
G03X19460000Y-9750000I-30000J0D01*
G01*
X19460000Y-9870000D02*
G75*
G03X19460000Y-9870000I-30000J0D01*
G01*
X19460000Y-9990000D02*
G75*
G03X19460000Y-9990000I-30000J0D01*
G01*
X19560000Y-9330000D02*
G75*
G03X19560000Y-9330000I-30000J0D01*
G01*
X19560000Y-9450000D02*
G75*
G03X19560000Y-9450000I-30000J0D01*
G01*
X19560000Y-9570000D02*
G75*
G03X19560000Y-9570000I-30000J0D01*
G01*
X19560000Y-9690000D02*
G75*
G03X19560000Y-9690000I-30000J0D01*
G01*
X19560000Y-9810000D02*
G75*
G03X19560000Y-9810000I-30000J0D01*
G01*
X19560000Y-9930000D02*
G75*
G03X19560000Y-9930000I-30000J0D01*
G01*
X19660000Y-9270000D02*
G75*
G03X19660000Y-9270000I-30000J0D01*
G01*
X19660000Y-9390000D02*
G75*
G03X19660000Y-9390000I-30000J0D01*
G01*
X19660000Y-9510000D02*
G75*
G03X19660000Y-9510000I-30000J0D01*
G01*
X19660000Y-9630000D02*
G75*
G03X19660000Y-9630000I-30000J0D01*
G01*
X19660000Y-9750000D02*
G75*
G03X19660000Y-9750000I-30000J0D01*
G01*
X19660000Y-9870000D02*
G75*
G03X19660000Y-9870000I-30000J0D01*
G01*
X19660000Y-9990000D02*
G75*
G03X19660000Y-9990000I-30000J0D01*
G01*
X19760000Y-9330000D02*
G75*
G03X19760000Y-9330000I-30000J0D01*
G01*
X19760000Y-9450000D02*
G75*
G03X19760000Y-9450000I-30000J0D01*
G01*
X19760000Y-9570000D02*
G75*
G03X19760000Y-9570000I-30000J0D01*
G01*
X19760000Y-9690000D02*
G75*
G03X19760000Y-9690000I-30000J0D01*
G01*
X19760000Y-9810000D02*
G75*
G03X19760000Y-9810000I-30000J0D01*
G01*
X19760000Y-9930000D02*
G75*
G03X19760000Y-9930000I-30000J0D01*
G01*
X19865000Y-9270000D02*
G75*
G03X19865000Y-9270000I-30000J0D01*
G01*
X19865000Y-9390000D02*
G75*
G03X19865000Y-9390000I-30000J0D01*
G01*
X19865000Y-9510000D02*
G75*
G03X19865000Y-9510000I-30000J0D01*
G01*
X19865000Y-9630000D02*
G75*
G03X19865000Y-9630000I-30000J0D01*
G01*
X19865000Y-9750000D02*
G75*
G03X19865000Y-9750000I-30000J0D01*
G01*
X19865000Y-9870000D02*
G75*
G03X19865000Y-9870000I-30000J0D01*
G01*
X19865000Y-9990000D02*
G75*
G03X19865000Y-9990000I-30000J0D01*
G01*
X19965000Y-9330000D02*
G75*
G03X19965000Y-9330000I-30000J0D01*
G01*
X19965000Y-9450000D02*
G75*
G03X19965000Y-9450000I-30000J0D01*
G01*
X19965000Y-9570000D02*
G75*
G03X19965000Y-9570000I-30000J0D01*
G01*
X19965000Y-9690000D02*
G75*
G03X19965000Y-9690000I-30000J0D01*
G01*
X19965000Y-9810000D02*
G75*
G03X19965000Y-9810000I-30000J0D01*
G01*
X19965000Y-9930000D02*
G75*
G03X19965000Y-9930000I-30000J0D01*
G01*
X20065000Y-9270000D02*
G75*
G03X20065000Y-9270000I-30000J0D01*
G01*
X20065000Y-9390000D02*
G75*
G03X20065000Y-9390000I-30000J0D01*
G01*
X20065000Y-9510000D02*
G75*
G03X20065000Y-9510000I-30000J0D01*
G01*
X20065000Y-9630000D02*
G75*
G03X20065000Y-9630000I-30000J0D01*
G01*
X20065000Y-9750000D02*
G75*
G03X20065000Y-9750000I-30000J0D01*
G01*
X20065000Y-9870000D02*
G75*
G03X20065000Y-9870000I-30000J0D01*
G01*
X20065000Y-9990000D02*
G75*
G03X20065000Y-9990000I-30000J0D01*
G01*
X20280000Y-8680000D02*
G75*
G03X20280000Y-8680000I-30000J0D01*
G01*
X20280000Y-8800000D02*
G75*
G03X20280000Y-8800000I-30000J0D01*
G01*
X20280000Y-8920000D02*
G75*
G03X20280000Y-8920000I-30000J0D01*
G01*
X20280000Y-9040000D02*
G75*
G03X20280000Y-9040000I-30000J0D01*
G01*
X20280000Y-9160000D02*
G75*
G03X20280000Y-9160000I-30000J0D01*
G01*
X20280000Y-9280000D02*
G75*
G03X20280000Y-9280000I-30000J0D01*
G01*
X20280000Y-9400000D02*
G75*
G03X20280000Y-9400000I-30000J0D01*
G01*
X20380000Y-8740000D02*
G75*
G03X20380000Y-8740000I-30000J0D01*
G01*
X20380000Y-8860000D02*
G75*
G03X20380000Y-8860000I-30000J0D01*
G01*
X20380000Y-8980000D02*
G75*
G03X20380000Y-8980000I-30000J0D01*
G01*
X20380000Y-9100000D02*
G75*
G03X20380000Y-9100000I-30000J0D01*
G01*
X20380000Y-9220000D02*
G75*
G03X20380000Y-9220000I-30000J0D01*
G01*
X20380000Y-9340000D02*
G75*
G03X20380000Y-9340000I-30000J0D01*
G01*
X20480000Y-8680000D02*
G75*
G03X20480000Y-8680000I-30000J0D01*
G01*
X20480000Y-8800000D02*
G75*
G03X20480000Y-8800000I-30000J0D01*
G01*
X20480000Y-8920000D02*
G75*
G03X20480000Y-8920000I-30000J0D01*
G01*
X20480000Y-9040000D02*
G75*
G03X20480000Y-9040000I-30000J0D01*
G01*
X20480000Y-9160000D02*
G75*
G03X20480000Y-9160000I-30000J0D01*
G01*
X20480000Y-9280000D02*
G75*
G03X20480000Y-9280000I-30000J0D01*
G01*
X20480000Y-9400000D02*
G75*
G03X20480000Y-9400000I-30000J0D01*
G01*
X20580000Y-8740000D02*
G75*
G03X20580000Y-8740000I-30000J0D01*
G01*
X20580000Y-8860000D02*
G75*
G03X20580000Y-8860000I-30000J0D01*
G01*
X20580000Y-8980000D02*
G75*
G03X20580000Y-8980000I-30000J0D01*
G01*
X20580000Y-9100000D02*
G75*
G03X20580000Y-9100000I-30000J0D01*
G01*
X20580000Y-9220000D02*
G75*
G03X20580000Y-9220000I-30000J0D01*
G01*
X20580000Y-9340000D02*
G75*
G03X20580000Y-9340000I-30000J0D01*
G01*
X20680000Y-8680000D02*
G75*
G03X20680000Y-8680000I-30000J0D01*
G01*
X20680000Y-8800000D02*
G75*
G03X20680000Y-8800000I-30000J0D01*
G01*
X20680000Y-8920000D02*
G75*
G03X20680000Y-8920000I-30000J0D01*
G01*
X20680000Y-9040000D02*
G75*
G03X20680000Y-9040000I-30000J0D01*
G01*
X20680000Y-9160000D02*
G75*
G03X20680000Y-9160000I-30000J0D01*
G01*
X20680000Y-9280000D02*
G75*
G03X20680000Y-9280000I-30000J0D01*
G01*
X20680000Y-9400000D02*
G75*
G03X20680000Y-9400000I-30000J0D01*
G01*
X20780000Y-8740000D02*
G75*
G03X20780000Y-8740000I-30000J0D01*
G01*
X20780000Y-8860000D02*
G75*
G03X20780000Y-8860000I-30000J0D01*
G01*
X20780000Y-8980000D02*
G75*
G03X20780000Y-8980000I-30000J0D01*
G01*
X20780000Y-9100000D02*
G75*
G03X20780000Y-9100000I-30000J0D01*
G01*
X20780000Y-9220000D02*
G75*
G03X20780000Y-9220000I-30000J0D01*
G01*
X20780000Y-9340000D02*
G75*
G03X20780000Y-9340000I-30000J0D01*
G01*
X20880000Y-8680000D02*
G75*
G03X20880000Y-8680000I-30000J0D01*
G01*
X20880000Y-8800000D02*
G75*
G03X20880000Y-8800000I-30000J0D01*
G01*
X20880000Y-8920000D02*
G75*
G03X20880000Y-8920000I-30000J0D01*
G01*
X20880000Y-9040000D02*
G75*
G03X20880000Y-9040000I-30000J0D01*
G01*
X20880000Y-9160000D02*
G75*
G03X20880000Y-9160000I-30000J0D01*
G01*
X20880000Y-9280000D02*
G75*
G03X20880000Y-9280000I-30000J0D01*
G01*
X20880000Y-9400000D02*
G75*
G03X20880000Y-9400000I-30000J0D01*
G01*
X21050000Y-9360000D02*
G75*
G03X21050000Y-9360000I-30000J0D01*
G01*
X21050000Y-9480000D02*
G75*
G03X21050000Y-9480000I-30000J0D01*
G01*
X21050000Y-9600000D02*
G75*
G03X21050000Y-9600000I-30000J0D01*
G01*
X21050000Y-9720000D02*
G75*
G03X21050000Y-9720000I-30000J0D01*
G01*
X21050000Y-9840000D02*
G75*
G03X21050000Y-9840000I-30000J0D01*
G01*
X21050000Y-9960000D02*
G75*
G03X21050000Y-9960000I-30000J0D01*
G01*
X21050000Y-10080000D02*
G75*
G03X21050000Y-10080000I-30000J0D01*
G01*
X21150000Y-9420000D02*
G75*
G03X21150000Y-9420000I-30000J0D01*
G01*
X21150000Y-9540000D02*
G75*
G03X21150000Y-9540000I-30000J0D01*
G01*
X21150000Y-9660000D02*
G75*
G03X21150000Y-9660000I-30000J0D01*
G01*
X21150000Y-9780000D02*
G75*
G03X21150000Y-9780000I-30000J0D01*
G01*
X21150000Y-9900000D02*
G75*
G03X21150000Y-9900000I-30000J0D01*
G01*
X21150000Y-10020000D02*
G75*
G03X21150000Y-10020000I-30000J0D01*
G01*
X21250000Y-9360000D02*
G75*
G03X21250000Y-9360000I-30000J0D01*
G01*
X21250000Y-9480000D02*
G75*
G03X21250000Y-9480000I-30000J0D01*
G01*
X21250000Y-9600000D02*
G75*
G03X21250000Y-9600000I-30000J0D01*
G01*
X21250000Y-9720000D02*
G75*
G03X21250000Y-9720000I-30000J0D01*
G01*
X21250000Y-9840000D02*
G75*
G03X21250000Y-9840000I-30000J0D01*
G01*
X21250000Y-9960000D02*
G75*
G03X21250000Y-9960000I-30000J0D01*
G01*
X21250000Y-10080000D02*
G75*
G03X21250000Y-10080000I-30000J0D01*
G01*
X21350000Y-9420000D02*
G75*
G03X21350000Y-9420000I-30000J0D01*
G01*
X21350000Y-9540000D02*
G75*
G03X21350000Y-9540000I-30000J0D01*
G01*
X21350000Y-9660000D02*
G75*
G03X21350000Y-9660000I-30000J0D01*
G01*
X21350000Y-9780000D02*
G75*
G03X21350000Y-9780000I-30000J0D01*
G01*
X21350000Y-9900000D02*
G75*
G03X21350000Y-9900000I-30000J0D01*
G01*
X21350000Y-10020000D02*
G75*
G03X21350000Y-10020000I-30000J0D01*
G01*
X21450000Y-9360000D02*
G75*
G03X21450000Y-9360000I-30000J0D01*
G01*
X21450000Y-9480000D02*
G75*
G03X21450000Y-9480000I-30000J0D01*
G01*
X21450000Y-9600000D02*
G75*
G03X21450000Y-9600000I-30000J0D01*
G01*
X21450000Y-9720000D02*
G75*
G03X21450000Y-9720000I-30000J0D01*
G01*
X21450000Y-9840000D02*
G75*
G03X21450000Y-9840000I-30000J0D01*
G01*
X21450000Y-9960000D02*
G75*
G03X21450000Y-9960000I-30000J0D01*
G01*
X21450000Y-10080000D02*
G75*
G03X21450000Y-10080000I-30000J0D01*
G01*
X21550000Y-9420000D02*
G75*
G03X21550000Y-9420000I-30000J0D01*
G01*
X21550000Y-9540000D02*
G75*
G03X21550000Y-9540000I-30000J0D01*
G01*
X21550000Y-9660000D02*
G75*
G03X21550000Y-9660000I-30000J0D01*
G01*
X21550000Y-9780000D02*
G75*
G03X21550000Y-9780000I-30000J0D01*
G01*
X21550000Y-9900000D02*
G75*
G03X21550000Y-9900000I-30000J0D01*
G01*
X21550000Y-10020000D02*
G75*
G03X21550000Y-10020000I-30000J0D01*
G01*
X21650000Y-9360000D02*
G75*
G03X21650000Y-9360000I-30000J0D01*
G01*
X21650000Y-9480000D02*
G75*
G03X21650000Y-9480000I-30000J0D01*
G01*
X21650000Y-9600000D02*
G75*
G03X21650000Y-9600000I-30000J0D01*
G01*
X21650000Y-9720000D02*
G75*
G03X21650000Y-9720000I-30000J0D01*
G01*
X21650000Y-9840000D02*
G75*
G03X21650000Y-9840000I-30000J0D01*
G01*
X21650000Y-9960000D02*
G75*
G03X21650000Y-9960000I-30000J0D01*
G01*
X21650000Y-10080000D02*
G75*
G03X21650000Y-10080000I-30000J0D01*
G01*
X7900000Y-7970000D02*
G75*
G03X7900000Y-7970000I-30000J0D01*
G01*
X7900000Y-8090000D02*
G75*
G03X7900000Y-8090000I-30000J0D01*
G01*
X7900000Y-8210000D02*
G75*
G03X7900000Y-8210000I-30000J0D01*
G01*
X7900000Y-8330000D02*
G75*
G03X7900000Y-8330000I-30000J0D01*
G01*
X7900000Y-8450000D02*
G75*
G03X7900000Y-8450000I-30000J0D01*
G01*
X7900000Y-8570000D02*
G75*
G03X7900000Y-8570000I-30000J0D01*
G01*
X7900000Y-8690000D02*
G75*
G03X7900000Y-8690000I-30000J0D01*
G01*
X8000000Y-8030000D02*
G75*
G03X8000000Y-8030000I-30000J0D01*
G01*
X8000000Y-8150000D02*
G75*
G03X8000000Y-8150000I-30000J0D01*
G01*
X8000000Y-8270000D02*
G75*
G03X8000000Y-8270000I-30000J0D01*
G01*
X8000000Y-8390000D02*
G75*
G03X8000000Y-8390000I-30000J0D01*
G01*
X8000000Y-8510000D02*
G75*
G03X8000000Y-8510000I-30000J0D01*
G01*
X8000000Y-8630000D02*
G75*
G03X8000000Y-8630000I-30000J0D01*
G01*
X8100000Y-7970000D02*
G75*
G03X8100000Y-7970000I-30000J0D01*
G01*
X8100000Y-8090000D02*
G75*
G03X8100000Y-8090000I-30000J0D01*
G01*
X8100000Y-8210000D02*
G75*
G03X8100000Y-8210000I-30000J0D01*
G01*
X8100000Y-8330000D02*
G75*
G03X8100000Y-8330000I-30000J0D01*
G01*
X8100000Y-8450000D02*
G75*
G03X8100000Y-8450000I-30000J0D01*
G01*
X8100000Y-8570000D02*
G75*
G03X8100000Y-8570000I-30000J0D01*
G01*
X8100000Y-8690000D02*
G75*
G03X8100000Y-8690000I-30000J0D01*
G01*
X8200000Y-8030000D02*
G75*
G03X8200000Y-8030000I-30000J0D01*
G01*
X8200000Y-8150000D02*
G75*
G03X8200000Y-8150000I-30000J0D01*
G01*
X8200000Y-8270000D02*
G75*
G03X8200000Y-8270000I-30000J0D01*
G01*
X8200000Y-8390000D02*
G75*
G03X8200000Y-8390000I-30000J0D01*
G01*
X8200000Y-8510000D02*
G75*
G03X8200000Y-8510000I-30000J0D01*
G01*
X8200000Y-8630000D02*
G75*
G03X8200000Y-8630000I-30000J0D01*
G01*
X8300000Y-7970000D02*
G75*
G03X8300000Y-7970000I-30000J0D01*
G01*
X8300000Y-8090000D02*
G75*
G03X8300000Y-8090000I-30000J0D01*
G01*
X8300000Y-8210000D02*
G75*
G03X8300000Y-8210000I-30000J0D01*
G01*
X8300000Y-8330000D02*
G75*
G03X8300000Y-8330000I-30000J0D01*
G01*
X8300000Y-8450000D02*
G75*
G03X8300000Y-8450000I-30000J0D01*
G01*
X8300000Y-8570000D02*
G75*
G03X8300000Y-8570000I-30000J0D01*
G01*
X8300000Y-8690000D02*
G75*
G03X8300000Y-8690000I-30000J0D01*
G01*
X8400000Y-8030000D02*
G75*
G03X8400000Y-8030000I-30000J0D01*
G01*
X8400000Y-8150000D02*
G75*
G03X8400000Y-8150000I-30000J0D01*
G01*
X8400000Y-8270000D02*
G75*
G03X8400000Y-8270000I-30000J0D01*
G01*
X8400000Y-8390000D02*
G75*
G03X8400000Y-8390000I-30000J0D01*
G01*
X8400000Y-8510000D02*
G75*
G03X8400000Y-8510000I-30000J0D01*
G01*
X8400000Y-8630000D02*
G75*
G03X8400000Y-8630000I-30000J0D01*
G01*
X8500000Y-7970000D02*
G75*
G03X8500000Y-7970000I-30000J0D01*
G01*
X8500000Y-8090000D02*
G75*
G03X8500000Y-8090000I-30000J0D01*
G01*
X8500000Y-8210000D02*
G75*
G03X8500000Y-8210000I-30000J0D01*
G01*
X8500000Y-8330000D02*
G75*
G03X8500000Y-8330000I-30000J0D01*
G01*
X8500000Y-8450000D02*
G75*
G03X8500000Y-8450000I-30000J0D01*
G01*
X8500000Y-8570000D02*
G75*
G03X8500000Y-8570000I-30000J0D01*
G01*
X8500000Y-8690000D02*
G75*
G03X8500000Y-8690000I-30000J0D01*
G01*
X8660000Y-9270000D02*
G75*
G03X8660000Y-9270000I-30000J0D01*
G01*
X8660000Y-9390000D02*
G75*
G03X8660000Y-9390000I-30000J0D01*
G01*
X8660000Y-9510000D02*
G75*
G03X8660000Y-9510000I-30000J0D01*
G01*
X8660000Y-9630000D02*
G75*
G03X8660000Y-9630000I-30000J0D01*
G01*
X8660000Y-9750000D02*
G75*
G03X8660000Y-9750000I-30000J0D01*
G01*
X8660000Y-9870000D02*
G75*
G03X8660000Y-9870000I-30000J0D01*
G01*
X8660000Y-9990000D02*
G75*
G03X8660000Y-9990000I-30000J0D01*
G01*
X8760000Y-9330000D02*
G75*
G03X8760000Y-9330000I-30000J0D01*
G01*
X8760000Y-9450000D02*
G75*
G03X8760000Y-9450000I-30000J0D01*
G01*
X8760000Y-9570000D02*
G75*
G03X8760000Y-9570000I-30000J0D01*
G01*
X8760000Y-9690000D02*
G75*
G03X8760000Y-9690000I-30000J0D01*
G01*
X8760000Y-9810000D02*
G75*
G03X8760000Y-9810000I-30000J0D01*
G01*
X8760000Y-9930000D02*
G75*
G03X8760000Y-9930000I-30000J0D01*
G01*
X8860000Y-9270000D02*
G75*
G03X8860000Y-9270000I-30000J0D01*
G01*
X8860000Y-9390000D02*
G75*
G03X8860000Y-9390000I-30000J0D01*
G01*
X8860000Y-9510000D02*
G75*
G03X8860000Y-9510000I-30000J0D01*
G01*
X8860000Y-9630000D02*
G75*
G03X8860000Y-9630000I-30000J0D01*
G01*
X8860000Y-9750000D02*
G75*
G03X8860000Y-9750000I-30000J0D01*
G01*
X8860000Y-9870000D02*
G75*
G03X8860000Y-9870000I-30000J0D01*
G01*
X8860000Y-9990000D02*
G75*
G03X8860000Y-9990000I-30000J0D01*
G01*
X8960000Y-9330000D02*
G75*
G03X8960000Y-9330000I-30000J0D01*
G01*
X8960000Y-9450000D02*
G75*
G03X8960000Y-9450000I-30000J0D01*
G01*
X8960000Y-9570000D02*
G75*
G03X8960000Y-9570000I-30000J0D01*
G01*
X8960000Y-9690000D02*
G75*
G03X8960000Y-9690000I-30000J0D01*
G01*
X8960000Y-9810000D02*
G75*
G03X8960000Y-9810000I-30000J0D01*
G01*
X8960000Y-9930000D02*
G75*
G03X8960000Y-9930000I-30000J0D01*
G01*
X9065000Y-9270000D02*
G75*
G03X9065000Y-9270000I-30000J0D01*
G01*
X9065000Y-9390000D02*
G75*
G03X9065000Y-9390000I-30000J0D01*
G01*
X9065000Y-9510000D02*
G75*
G03X9065000Y-9510000I-30000J0D01*
G01*
X9065000Y-9630000D02*
G75*
G03X9065000Y-9630000I-30000J0D01*
G01*
X9065000Y-9750000D02*
G75*
G03X9065000Y-9750000I-30000J0D01*
G01*
X9065000Y-9870000D02*
G75*
G03X9065000Y-9870000I-30000J0D01*
G01*
X9065000Y-9990000D02*
G75*
G03X9065000Y-9990000I-30000J0D01*
G01*
X9165000Y-9330000D02*
G75*
G03X9165000Y-9330000I-30000J0D01*
G01*
X9165000Y-9450000D02*
G75*
G03X9165000Y-9450000I-30000J0D01*
G01*
X9165000Y-9570000D02*
G75*
G03X9165000Y-9570000I-30000J0D01*
G01*
X9165000Y-9690000D02*
G75*
G03X9165000Y-9690000I-30000J0D01*
G01*
X9165000Y-9810000D02*
G75*
G03X9165000Y-9810000I-30000J0D01*
G01*
X9165000Y-9930000D02*
G75*
G03X9165000Y-9930000I-30000J0D01*
G01*
X9265000Y-9270000D02*
G75*
G03X9265000Y-9270000I-30000J0D01*
G01*
X9265000Y-9390000D02*
G75*
G03X9265000Y-9390000I-30000J0D01*
G01*
X9265000Y-9510000D02*
G75*
G03X9265000Y-9510000I-30000J0D01*
G01*
X9265000Y-9630000D02*
G75*
G03X9265000Y-9630000I-30000J0D01*
G01*
X9265000Y-9750000D02*
G75*
G03X9265000Y-9750000I-30000J0D01*
G01*
X9265000Y-9870000D02*
G75*
G03X9265000Y-9870000I-30000J0D01*
G01*
X9265000Y-9990000D02*
G75*
G03X9265000Y-9990000I-30000J0D01*
G01*
X9480000Y-8680000D02*
G75*
G03X9480000Y-8680000I-30000J0D01*
G01*
X9480000Y-8800000D02*
G75*
G03X9480000Y-8800000I-30000J0D01*
G01*
X9480000Y-8920000D02*
G75*
G03X9480000Y-8920000I-30000J0D01*
G01*
X9480000Y-9040000D02*
G75*
G03X9480000Y-9040000I-30000J0D01*
G01*
X9480000Y-9160000D02*
G75*
G03X9480000Y-9160000I-30000J0D01*
G01*
X9480000Y-9280000D02*
G75*
G03X9480000Y-9280000I-30000J0D01*
G01*
X9480000Y-9400000D02*
G75*
G03X9480000Y-9400000I-30000J0D01*
G01*
X9580000Y-8740000D02*
G75*
G03X9580000Y-8740000I-30000J0D01*
G01*
X9580000Y-8860000D02*
G75*
G03X9580000Y-8860000I-30000J0D01*
G01*
X9580000Y-8980000D02*
G75*
G03X9580000Y-8980000I-30000J0D01*
G01*
X9580000Y-9100000D02*
G75*
G03X9580000Y-9100000I-30000J0D01*
G01*
X9580000Y-9220000D02*
G75*
G03X9580000Y-9220000I-30000J0D01*
G01*
X9580000Y-9340000D02*
G75*
G03X9580000Y-9340000I-30000J0D01*
G01*
X9680000Y-8680000D02*
G75*
G03X9680000Y-8680000I-30000J0D01*
G01*
X9680000Y-8800000D02*
G75*
G03X9680000Y-8800000I-30000J0D01*
G01*
X9680000Y-8920000D02*
G75*
G03X9680000Y-8920000I-30000J0D01*
G01*
X9680000Y-9040000D02*
G75*
G03X9680000Y-9040000I-30000J0D01*
G01*
X9680000Y-9160000D02*
G75*
G03X9680000Y-9160000I-30000J0D01*
G01*
X9680000Y-9280000D02*
G75*
G03X9680000Y-9280000I-30000J0D01*
G01*
X9680000Y-9400000D02*
G75*
G03X9680000Y-9400000I-30000J0D01*
G01*
X9780000Y-8740000D02*
G75*
G03X9780000Y-8740000I-30000J0D01*
G01*
X9780000Y-8860000D02*
G75*
G03X9780000Y-8860000I-30000J0D01*
G01*
X9780000Y-8980000D02*
G75*
G03X9780000Y-8980000I-30000J0D01*
G01*
X9780000Y-9100000D02*
G75*
G03X9780000Y-9100000I-30000J0D01*
G01*
X9780000Y-9220000D02*
G75*
G03X9780000Y-9220000I-30000J0D01*
G01*
X9780000Y-9340000D02*
G75*
G03X9780000Y-9340000I-30000J0D01*
G01*
X9880000Y-8680000D02*
G75*
G03X9880000Y-8680000I-30000J0D01*
G01*
X9880000Y-8800000D02*
G75*
G03X9880000Y-8800000I-30000J0D01*
G01*
X9880000Y-8920000D02*
G75*
G03X9880000Y-8920000I-30000J0D01*
G01*
X9880000Y-9040000D02*
G75*
G03X9880000Y-9040000I-30000J0D01*
G01*
X9880000Y-9160000D02*
G75*
G03X9880000Y-9160000I-30000J0D01*
G01*
X9880000Y-9280000D02*
G75*
G03X9880000Y-9280000I-30000J0D01*
G01*
X9880000Y-9400000D02*
G75*
G03X9880000Y-9400000I-30000J0D01*
G01*
X9980000Y-8740000D02*
G75*
G03X9980000Y-8740000I-30000J0D01*
G01*
X9980000Y-8860000D02*
G75*
G03X9980000Y-8860000I-30000J0D01*
G01*
X9980000Y-8980000D02*
G75*
G03X9980000Y-8980000I-30000J0D01*
G01*
X9980000Y-9100000D02*
G75*
G03X9980000Y-9100000I-30000J0D01*
G01*
X9980000Y-9220000D02*
G75*
G03X9980000Y-9220000I-30000J0D01*
G01*
X9980000Y-9340000D02*
G75*
G03X9980000Y-9340000I-30000J0D01*
G01*
X10080000Y-8680000D02*
G75*
G03X10080000Y-8680000I-30000J0D01*
G01*
X10080000Y-8800000D02*
G75*
G03X10080000Y-8800000I-30000J0D01*
G01*
X10080000Y-8920000D02*
G75*
G03X10080000Y-8920000I-30000J0D01*
G01*
X10080000Y-9040000D02*
G75*
G03X10080000Y-9040000I-30000J0D01*
G01*
X10080000Y-9160000D02*
G75*
G03X10080000Y-9160000I-30000J0D01*
G01*
X10080000Y-9280000D02*
G75*
G03X10080000Y-9280000I-30000J0D01*
G01*
X10080000Y-9400000D02*
G75*
G03X10080000Y-9400000I-30000J0D01*
G01*
X10250000Y-9360000D02*
G75*
G03X10250000Y-9360000I-30000J0D01*
G01*
X10250000Y-9480000D02*
G75*
G03X10250000Y-9480000I-30000J0D01*
G01*
X10250000Y-9600000D02*
G75*
G03X10250000Y-9600000I-30000J0D01*
G01*
X10250000Y-9720000D02*
G75*
G03X10250000Y-9720000I-30000J0D01*
G01*
X10250000Y-9840000D02*
G75*
G03X10250000Y-9840000I-30000J0D01*
G01*
X10250000Y-9960000D02*
G75*
G03X10250000Y-9960000I-30000J0D01*
G01*
X10250000Y-10080000D02*
G75*
G03X10250000Y-10080000I-30000J0D01*
G01*
X10350000Y-9420000D02*
G75*
G03X10350000Y-9420000I-30000J0D01*
G01*
X10350000Y-9540000D02*
G75*
G03X10350000Y-9540000I-30000J0D01*
G01*
X10350000Y-9660000D02*
G75*
G03X10350000Y-9660000I-30000J0D01*
G01*
X10350000Y-9780000D02*
G75*
G03X10350000Y-9780000I-30000J0D01*
G01*
X10350000Y-9900000D02*
G75*
G03X10350000Y-9900000I-30000J0D01*
G01*
X10350000Y-10020000D02*
G75*
G03X10350000Y-10020000I-30000J0D01*
G01*
X10450000Y-9360000D02*
G75*
G03X10450000Y-9360000I-30000J0D01*
G01*
X10450000Y-9480000D02*
G75*
G03X10450000Y-9480000I-30000J0D01*
G01*
X10450000Y-9600000D02*
G75*
G03X10450000Y-9600000I-30000J0D01*
G01*
X10450000Y-9720000D02*
G75*
G03X10450000Y-9720000I-30000J0D01*
G01*
X10450000Y-9840000D02*
G75*
G03X10450000Y-9840000I-30000J0D01*
G01*
X10450000Y-9960000D02*
G75*
G03X10450000Y-9960000I-30000J0D01*
G01*
X10450000Y-10080000D02*
G75*
G03X10450000Y-10080000I-30000J0D01*
G01*
X10550000Y-9420000D02*
G75*
G03X10550000Y-9420000I-30000J0D01*
G01*
X10550000Y-9540000D02*
G75*
G03X10550000Y-9540000I-30000J0D01*
G01*
X10550000Y-9660000D02*
G75*
G03X10550000Y-9660000I-30000J0D01*
G01*
X10550000Y-9780000D02*
G75*
G03X10550000Y-9780000I-30000J0D01*
G01*
X10550000Y-9900000D02*
G75*
G03X10550000Y-9900000I-30000J0D01*
G01*
X10550000Y-10020000D02*
G75*
G03X10550000Y-10020000I-30000J0D01*
G01*
X10650000Y-9360000D02*
G75*
G03X10650000Y-9360000I-30000J0D01*
G01*
X10650000Y-9480000D02*
G75*
G03X10650000Y-9480000I-30000J0D01*
G01*
X10650000Y-9600000D02*
G75*
G03X10650000Y-9600000I-30000J0D01*
G01*
X10650000Y-9720000D02*
G75*
G03X10650000Y-9720000I-30000J0D01*
G01*
X10650000Y-9840000D02*
G75*
G03X10650000Y-9840000I-30000J0D01*
G01*
X10650000Y-9960000D02*
G75*
G03X10650000Y-9960000I-30000J0D01*
G01*
X10650000Y-10080000D02*
G75*
G03X10650000Y-10080000I-30000J0D01*
G01*
X10750000Y-9420000D02*
G75*
G03X10750000Y-9420000I-30000J0D01*
G01*
X10750000Y-9540000D02*
G75*
G03X10750000Y-9540000I-30000J0D01*
G01*
X10750000Y-9660000D02*
G75*
G03X10750000Y-9660000I-30000J0D01*
G01*
X10750000Y-9780000D02*
G75*
G03X10750000Y-9780000I-30000J0D01*
G01*
X10750000Y-9900000D02*
G75*
G03X10750000Y-9900000I-30000J0D01*
G01*
X10750000Y-10020000D02*
G75*
G03X10750000Y-10020000I-30000J0D01*
G01*
X10850000Y-9360000D02*
G75*
G03X10850000Y-9360000I-30000J0D01*
G01*
X10850000Y-9480000D02*
G75*
G03X10850000Y-9480000I-30000J0D01*
G01*
X10850000Y-9600000D02*
G75*
G03X10850000Y-9600000I-30000J0D01*
G01*
X10850000Y-9720000D02*
G75*
G03X10850000Y-9720000I-30000J0D01*
G01*
X10850000Y-9840000D02*
G75*
G03X10850000Y-9840000I-30000J0D01*
G01*
X10850000Y-9960000D02*
G75*
G03X10850000Y-9960000I-30000J0D01*
G01*
X10850000Y-10080000D02*
G75*
G03X10850000Y-10080000I-30000J0D01*
G01*
X13300000Y-7970000D02*
G75*
G03X13300000Y-7970000I-30000J0D01*
G01*
X13300000Y-8090000D02*
G75*
G03X13300000Y-8090000I-30000J0D01*
G01*
X13300000Y-8210000D02*
G75*
G03X13300000Y-8210000I-30000J0D01*
G01*
X13300000Y-8330000D02*
G75*
G03X13300000Y-8330000I-30000J0D01*
G01*
X13300000Y-8450000D02*
G75*
G03X13300000Y-8450000I-30000J0D01*
G01*
X13300000Y-8570000D02*
G75*
G03X13300000Y-8570000I-30000J0D01*
G01*
X13300000Y-8690000D02*
G75*
G03X13300000Y-8690000I-30000J0D01*
G01*
X13400000Y-8030000D02*
G75*
G03X13400000Y-8030000I-30000J0D01*
G01*
X13400000Y-8150000D02*
G75*
G03X13400000Y-8150000I-30000J0D01*
G01*
X13400000Y-8270000D02*
G75*
G03X13400000Y-8270000I-30000J0D01*
G01*
X13400000Y-8390000D02*
G75*
G03X13400000Y-8390000I-30000J0D01*
G01*
X13400000Y-8510000D02*
G75*
G03X13400000Y-8510000I-30000J0D01*
G01*
X13400000Y-8630000D02*
G75*
G03X13400000Y-8630000I-30000J0D01*
G01*
X13500000Y-7970000D02*
G75*
G03X13500000Y-7970000I-30000J0D01*
G01*
X13500000Y-8090000D02*
G75*
G03X13500000Y-8090000I-30000J0D01*
G01*
X13500000Y-8210000D02*
G75*
G03X13500000Y-8210000I-30000J0D01*
G01*
X13500000Y-8330000D02*
G75*
G03X13500000Y-8330000I-30000J0D01*
G01*
X13500000Y-8450000D02*
G75*
G03X13500000Y-8450000I-30000J0D01*
G01*
X13500000Y-8570000D02*
G75*
G03X13500000Y-8570000I-30000J0D01*
G01*
X13500000Y-8690000D02*
G75*
G03X13500000Y-8690000I-30000J0D01*
G01*
X13600000Y-8030000D02*
G75*
G03X13600000Y-8030000I-30000J0D01*
G01*
X13600000Y-8150000D02*
G75*
G03X13600000Y-8150000I-30000J0D01*
G01*
X13600000Y-8270000D02*
G75*
G03X13600000Y-8270000I-30000J0D01*
G01*
X13600000Y-8390000D02*
G75*
G03X13600000Y-8390000I-30000J0D01*
G01*
X13600000Y-8510000D02*
G75*
G03X13600000Y-8510000I-30000J0D01*
G01*
X13600000Y-8630000D02*
G75*
G03X13600000Y-8630000I-30000J0D01*
G01*
X13700000Y-7970000D02*
G75*
G03X13700000Y-7970000I-30000J0D01*
G01*
X13700000Y-8090000D02*
G75*
G03X13700000Y-8090000I-30000J0D01*
G01*
X13700000Y-8210000D02*
G75*
G03X13700000Y-8210000I-30000J0D01*
G01*
X13700000Y-8330000D02*
G75*
G03X13700000Y-8330000I-30000J0D01*
G01*
X13700000Y-8450000D02*
G75*
G03X13700000Y-8450000I-30000J0D01*
G01*
X13700000Y-8570000D02*
G75*
G03X13700000Y-8570000I-30000J0D01*
G01*
X13700000Y-8690000D02*
G75*
G03X13700000Y-8690000I-30000J0D01*
G01*
X13800000Y-8030000D02*
G75*
G03X13800000Y-8030000I-30000J0D01*
G01*
X13800000Y-8150000D02*
G75*
G03X13800000Y-8150000I-30000J0D01*
G01*
X13800000Y-8270000D02*
G75*
G03X13800000Y-8270000I-30000J0D01*
G01*
X13800000Y-8390000D02*
G75*
G03X13800000Y-8390000I-30000J0D01*
G01*
X13800000Y-8510000D02*
G75*
G03X13800000Y-8510000I-30000J0D01*
G01*
X13800000Y-8630000D02*
G75*
G03X13800000Y-8630000I-30000J0D01*
G01*
X13900000Y-7970000D02*
G75*
G03X13900000Y-7970000I-30000J0D01*
G01*
X13900000Y-8090000D02*
G75*
G03X13900000Y-8090000I-30000J0D01*
G01*
X13900000Y-8210000D02*
G75*
G03X13900000Y-8210000I-30000J0D01*
G01*
X13900000Y-8330000D02*
G75*
G03X13900000Y-8330000I-30000J0D01*
G01*
X13900000Y-8450000D02*
G75*
G03X13900000Y-8450000I-30000J0D01*
G01*
X13900000Y-8570000D02*
G75*
G03X13900000Y-8570000I-30000J0D01*
G01*
X13900000Y-8690000D02*
G75*
G03X13900000Y-8690000I-30000J0D01*
G01*
X14060000Y-9270000D02*
G75*
G03X14060000Y-9270000I-30000J0D01*
G01*
X14060000Y-9390000D02*
G75*
G03X14060000Y-9390000I-30000J0D01*
G01*
X14060000Y-9510000D02*
G75*
G03X14060000Y-9510000I-30000J0D01*
G01*
X14060000Y-9630000D02*
G75*
G03X14060000Y-9630000I-30000J0D01*
G01*
X14060000Y-9750000D02*
G75*
G03X14060000Y-9750000I-30000J0D01*
G01*
X14060000Y-9870000D02*
G75*
G03X14060000Y-9870000I-30000J0D01*
G01*
X14060000Y-9990000D02*
G75*
G03X14060000Y-9990000I-30000J0D01*
G01*
X14160000Y-9330000D02*
G75*
G03X14160000Y-9330000I-30000J0D01*
G01*
X14160000Y-9450000D02*
G75*
G03X14160000Y-9450000I-30000J0D01*
G01*
X14160000Y-9570000D02*
G75*
G03X14160000Y-9570000I-30000J0D01*
G01*
X14160000Y-9690000D02*
G75*
G03X14160000Y-9690000I-30000J0D01*
G01*
X14160000Y-9810000D02*
G75*
G03X14160000Y-9810000I-30000J0D01*
G01*
X14160000Y-9930000D02*
G75*
G03X14160000Y-9930000I-30000J0D01*
G01*
X14260000Y-9270000D02*
G75*
G03X14260000Y-9270000I-30000J0D01*
G01*
X14260000Y-9390000D02*
G75*
G03X14260000Y-9390000I-30000J0D01*
G01*
X14260000Y-9510000D02*
G75*
G03X14260000Y-9510000I-30000J0D01*
G01*
X14260000Y-9630000D02*
G75*
G03X14260000Y-9630000I-30000J0D01*
G01*
X14260000Y-9750000D02*
G75*
G03X14260000Y-9750000I-30000J0D01*
G01*
X14260000Y-9870000D02*
G75*
G03X14260000Y-9870000I-30000J0D01*
G01*
X14260000Y-9990000D02*
G75*
G03X14260000Y-9990000I-30000J0D01*
G01*
X14360000Y-9330000D02*
G75*
G03X14360000Y-9330000I-30000J0D01*
G01*
X14360000Y-9450000D02*
G75*
G03X14360000Y-9450000I-30000J0D01*
G01*
X14360000Y-9570000D02*
G75*
G03X14360000Y-9570000I-30000J0D01*
G01*
X14360000Y-9690000D02*
G75*
G03X14360000Y-9690000I-30000J0D01*
G01*
X14360000Y-9810000D02*
G75*
G03X14360000Y-9810000I-30000J0D01*
G01*
X14360000Y-9930000D02*
G75*
G03X14360000Y-9930000I-30000J0D01*
G01*
X14465000Y-9270000D02*
G75*
G03X14465000Y-9270000I-30000J0D01*
G01*
X14465000Y-9390000D02*
G75*
G03X14465000Y-9390000I-30000J0D01*
G01*
X14465000Y-9510000D02*
G75*
G03X14465000Y-9510000I-30000J0D01*
G01*
X14465000Y-9630000D02*
G75*
G03X14465000Y-9630000I-30000J0D01*
G01*
X14465000Y-9750000D02*
G75*
G03X14465000Y-9750000I-30000J0D01*
G01*
X14465000Y-9870000D02*
G75*
G03X14465000Y-9870000I-30000J0D01*
G01*
X14465000Y-9990000D02*
G75*
G03X14465000Y-9990000I-30000J0D01*
G01*
X14565000Y-9330000D02*
G75*
G03X14565000Y-9330000I-30000J0D01*
G01*
X14565000Y-9450000D02*
G75*
G03X14565000Y-9450000I-30000J0D01*
G01*
X14565000Y-9570000D02*
G75*
G03X14565000Y-9570000I-30000J0D01*
G01*
X14565000Y-9690000D02*
G75*
G03X14565000Y-9690000I-30000J0D01*
G01*
X14565000Y-9810000D02*
G75*
G03X14565000Y-9810000I-30000J0D01*
G01*
X14565000Y-9930000D02*
G75*
G03X14565000Y-9930000I-30000J0D01*
G01*
X14665000Y-9270000D02*
G75*
G03X14665000Y-9270000I-30000J0D01*
G01*
X14665000Y-9390000D02*
G75*
G03X14665000Y-9390000I-30000J0D01*
G01*
X14665000Y-9510000D02*
G75*
G03X14665000Y-9510000I-30000J0D01*
G01*
X14665000Y-9630000D02*
G75*
G03X14665000Y-9630000I-30000J0D01*
G01*
X14665000Y-9750000D02*
G75*
G03X14665000Y-9750000I-30000J0D01*
G01*
X14665000Y-9870000D02*
G75*
G03X14665000Y-9870000I-30000J0D01*
G01*
X14665000Y-9990000D02*
G75*
G03X14665000Y-9990000I-30000J0D01*
G01*
X14880000Y-8680000D02*
G75*
G03X14880000Y-8680000I-30000J0D01*
G01*
X14880000Y-8800000D02*
G75*
G03X14880000Y-8800000I-30000J0D01*
G01*
X14880000Y-8920000D02*
G75*
G03X14880000Y-8920000I-30000J0D01*
G01*
X14880000Y-9040000D02*
G75*
G03X14880000Y-9040000I-30000J0D01*
G01*
X14880000Y-9160000D02*
G75*
G03X14880000Y-9160000I-30000J0D01*
G01*
X14880000Y-9280000D02*
G75*
G03X14880000Y-9280000I-30000J0D01*
G01*
X14880000Y-9400000D02*
G75*
G03X14880000Y-9400000I-30000J0D01*
G01*
X14980000Y-8740000D02*
G75*
G03X14980000Y-8740000I-30000J0D01*
G01*
X14980000Y-8860000D02*
G75*
G03X14980000Y-8860000I-30000J0D01*
G01*
X14980000Y-8980000D02*
G75*
G03X14980000Y-8980000I-30000J0D01*
G01*
X14980000Y-9100000D02*
G75*
G03X14980000Y-9100000I-30000J0D01*
G01*
X14980000Y-9220000D02*
G75*
G03X14980000Y-9220000I-30000J0D01*
G01*
X14980000Y-9340000D02*
G75*
G03X14980000Y-9340000I-30000J0D01*
G01*
X15080000Y-8680000D02*
G75*
G03X15080000Y-8680000I-30000J0D01*
G01*
X15080000Y-8800000D02*
G75*
G03X15080000Y-8800000I-30000J0D01*
G01*
X15080000Y-8920000D02*
G75*
G03X15080000Y-8920000I-30000J0D01*
G01*
X15080000Y-9040000D02*
G75*
G03X15080000Y-9040000I-30000J0D01*
G01*
X15080000Y-9160000D02*
G75*
G03X15080000Y-9160000I-30000J0D01*
G01*
X15080000Y-9280000D02*
G75*
G03X15080000Y-9280000I-30000J0D01*
G01*
X15080000Y-9400000D02*
G75*
G03X15080000Y-9400000I-30000J0D01*
G01*
X15180000Y-8740000D02*
G75*
G03X15180000Y-8740000I-30000J0D01*
G01*
X15180000Y-8860000D02*
G75*
G03X15180000Y-8860000I-30000J0D01*
G01*
X15180000Y-8980000D02*
G75*
G03X15180000Y-8980000I-30000J0D01*
G01*
X15180000Y-9100000D02*
G75*
G03X15180000Y-9100000I-30000J0D01*
G01*
X15180000Y-9220000D02*
G75*
G03X15180000Y-9220000I-30000J0D01*
G01*
X15180000Y-9340000D02*
G75*
G03X15180000Y-9340000I-30000J0D01*
G01*
X15280000Y-8680000D02*
G75*
G03X15280000Y-8680000I-30000J0D01*
G01*
X15280000Y-8800000D02*
G75*
G03X15280000Y-8800000I-30000J0D01*
G01*
X15280000Y-8920000D02*
G75*
G03X15280000Y-8920000I-30000J0D01*
G01*
X15280000Y-9040000D02*
G75*
G03X15280000Y-9040000I-30000J0D01*
G01*
X15280000Y-9160000D02*
G75*
G03X15280000Y-9160000I-30000J0D01*
G01*
X15280000Y-9280000D02*
G75*
G03X15280000Y-9280000I-30000J0D01*
G01*
X15280000Y-9400000D02*
G75*
G03X15280000Y-9400000I-30000J0D01*
G01*
X15380000Y-8740000D02*
G75*
G03X15380000Y-8740000I-30000J0D01*
G01*
X15380000Y-8860000D02*
G75*
G03X15380000Y-8860000I-30000J0D01*
G01*
X15380000Y-8980000D02*
G75*
G03X15380000Y-8980000I-30000J0D01*
G01*
X15380000Y-9100000D02*
G75*
G03X15380000Y-9100000I-30000J0D01*
G01*
X15380000Y-9220000D02*
G75*
G03X15380000Y-9220000I-30000J0D01*
G01*
X15380000Y-9340000D02*
G75*
G03X15380000Y-9340000I-30000J0D01*
G01*
X15480000Y-8680000D02*
G75*
G03X15480000Y-8680000I-30000J0D01*
G01*
X15480000Y-8800000D02*
G75*
G03X15480000Y-8800000I-30000J0D01*
G01*
X15480000Y-8920000D02*
G75*
G03X15480000Y-8920000I-30000J0D01*
G01*
X15480000Y-9040000D02*
G75*
G03X15480000Y-9040000I-30000J0D01*
G01*
X15480000Y-9160000D02*
G75*
G03X15480000Y-9160000I-30000J0D01*
G01*
X15480000Y-9280000D02*
G75*
G03X15480000Y-9280000I-30000J0D01*
G01*
X15480000Y-9400000D02*
G75*
G03X15480000Y-9400000I-30000J0D01*
G01*
X15650000Y-9360000D02*
G75*
G03X15650000Y-9360000I-30000J0D01*
G01*
X15650000Y-9480000D02*
G75*
G03X15650000Y-9480000I-30000J0D01*
G01*
X15650000Y-9600000D02*
G75*
G03X15650000Y-9600000I-30000J0D01*
G01*
X15650000Y-9720000D02*
G75*
G03X15650000Y-9720000I-30000J0D01*
G01*
X15650000Y-9840000D02*
G75*
G03X15650000Y-9840000I-30000J0D01*
G01*
X15650000Y-9960000D02*
G75*
G03X15650000Y-9960000I-30000J0D01*
G01*
X15650000Y-10080000D02*
G75*
G03X15650000Y-10080000I-30000J0D01*
G01*
X15750000Y-9420000D02*
G75*
G03X15750000Y-9420000I-30000J0D01*
G01*
X15750000Y-9540000D02*
G75*
G03X15750000Y-9540000I-30000J0D01*
G01*
X15750000Y-9660000D02*
G75*
G03X15750000Y-9660000I-30000J0D01*
G01*
X15750000Y-9780000D02*
G75*
G03X15750000Y-9780000I-30000J0D01*
G01*
X15750000Y-9900000D02*
G75*
G03X15750000Y-9900000I-30000J0D01*
G01*
X15750000Y-10020000D02*
G75*
G03X15750000Y-10020000I-30000J0D01*
G01*
X15850000Y-9360000D02*
G75*
G03X15850000Y-9360000I-30000J0D01*
G01*
X15850000Y-9480000D02*
G75*
G03X15850000Y-9480000I-30000J0D01*
G01*
X15850000Y-9600000D02*
G75*
G03X15850000Y-9600000I-30000J0D01*
G01*
X15850000Y-9720000D02*
G75*
G03X15850000Y-9720000I-30000J0D01*
G01*
X15850000Y-9840000D02*
G75*
G03X15850000Y-9840000I-30000J0D01*
G01*
X15850000Y-9960000D02*
G75*
G03X15850000Y-9960000I-30000J0D01*
G01*
X15850000Y-10080000D02*
G75*
G03X15850000Y-10080000I-30000J0D01*
G01*
X15950000Y-9420000D02*
G75*
G03X15950000Y-9420000I-30000J0D01*
G01*
X15950000Y-9540000D02*
G75*
G03X15950000Y-9540000I-30000J0D01*
G01*
X15950000Y-9660000D02*
G75*
G03X15950000Y-9660000I-30000J0D01*
G01*
X15950000Y-9780000D02*
G75*
G03X15950000Y-9780000I-30000J0D01*
G01*
X15950000Y-9900000D02*
G75*
G03X15950000Y-9900000I-30000J0D01*
G01*
X15950000Y-10020000D02*
G75*
G03X15950000Y-10020000I-30000J0D01*
G01*
X16050000Y-9360000D02*
G75*
G03X16050000Y-9360000I-30000J0D01*
G01*
X16050000Y-9480000D02*
G75*
G03X16050000Y-9480000I-30000J0D01*
G01*
X16050000Y-9600000D02*
G75*
G03X16050000Y-9600000I-30000J0D01*
G01*
X16050000Y-9720000D02*
G75*
G03X16050000Y-9720000I-30000J0D01*
G01*
X16050000Y-9840000D02*
G75*
G03X16050000Y-9840000I-30000J0D01*
G01*
X16050000Y-9960000D02*
G75*
G03X16050000Y-9960000I-30000J0D01*
G01*
X16050000Y-10080000D02*
G75*
G03X16050000Y-10080000I-30000J0D01*
G01*
X16150000Y-9420000D02*
G75*
G03X16150000Y-9420000I-30000J0D01*
G01*
X16150000Y-9540000D02*
G75*
G03X16150000Y-9540000I-30000J0D01*
G01*
X16150000Y-9660000D02*
G75*
G03X16150000Y-9660000I-30000J0D01*
G01*
X16150000Y-9780000D02*
G75*
G03X16150000Y-9780000I-30000J0D01*
G01*
X16150000Y-9900000D02*
G75*
G03X16150000Y-9900000I-30000J0D01*
G01*
X16150000Y-10020000D02*
G75*
G03X16150000Y-10020000I-30000J0D01*
G01*
X16250000Y-9360000D02*
G75*
G03X16250000Y-9360000I-30000J0D01*
G01*
X16250000Y-9480000D02*
G75*
G03X16250000Y-9480000I-30000J0D01*
G01*
X16250000Y-9600000D02*
G75*
G03X16250000Y-9600000I-30000J0D01*
G01*
X16250000Y-9720000D02*
G75*
G03X16250000Y-9720000I-30000J0D01*
G01*
X16250000Y-9840000D02*
G75*
G03X16250000Y-9840000I-30000J0D01*
G01*
X16250000Y-9960000D02*
G75*
G03X16250000Y-9960000I-30000J0D01*
G01*
X16250000Y-10080000D02*
G75*
G03X16250000Y-10080000I-30000J0D01*
G01*
X5930000Y-3690000D02*
X5930000Y-3870000D01*
X5840000Y-3780000D02*
X6020000Y-3780000D01*
X5930000Y-4240000D02*
X5930000Y-4420000D01*
X5840000Y-4330000D02*
X6020000Y-4330000D01*
X6350000Y-3690000D02*
X6350000Y-3870000D01*
X6260000Y-3780000D02*
X6440000Y-3780000D01*
X6350000Y-4240000D02*
X6350000Y-4420000D01*
X6260000Y-4330000D02*
X6440000Y-4330000D01*
X21460000Y-13025000D02*
X21460000Y-13205000D01*
X21370000Y-13115000D02*
X21550000Y-13115000D01*
X21460000Y-13445000D02*
X21460000Y-13625000D01*
X21370000Y-13535000D02*
X21550000Y-13535000D01*
X22010000Y-13025000D02*
X22010000Y-13205000D01*
X21920000Y-13115000D02*
X22100000Y-13115000D01*
X22010000Y-13445000D02*
X22010000Y-13625000D01*
X21920000Y-13535000D02*
X22100000Y-13535000D01*
X22130000Y-3690000D02*
X22130000Y-3870000D01*
X22040000Y-3780000D02*
X22220000Y-3780000D01*
X22130000Y-4240000D02*
X22130000Y-4420000D01*
X22040000Y-4330000D02*
X22220000Y-4330000D01*
X22550000Y-3690000D02*
X22550000Y-3870000D01*
X22460000Y-3780000D02*
X22640000Y-3780000D01*
X22550000Y-4240000D02*
X22550000Y-4420000D01*
X22460000Y-4330000D02*
X22640000Y-4330000D01*
X11330000Y-3690000D02*
X11330000Y-3870000D01*
X11240000Y-3780000D02*
X11420000Y-3780000D01*
X11330000Y-4240000D02*
X11330000Y-4420000D01*
X11240000Y-4330000D02*
X11420000Y-4330000D01*
X11750000Y-3690000D02*
X11750000Y-3870000D01*
X11660000Y-3780000D02*
X11840000Y-3780000D01*
X11750000Y-4240000D02*
X11750000Y-4420000D01*
X11660000Y-4330000D02*
X11840000Y-4330000D01*
X21360000Y-13940000D02*
X21360000Y-14120000D01*
X21270000Y-14030000D02*
X21450000Y-14030000D01*
X21360000Y-14490000D02*
X21360000Y-14670000D01*
X21270000Y-14580000D02*
X21450000Y-14580000D01*
X21780000Y-13940000D02*
X21780000Y-14120000D01*
X21690000Y-14030000D02*
X21870000Y-14030000D01*
X21780000Y-14490000D02*
X21780000Y-14670000D01*
X21690000Y-14580000D02*
X21870000Y-14580000D01*
X16730000Y-3690000D02*
X16730000Y-3870000D01*
X16640000Y-3780000D02*
X16820000Y-3780000D01*
X16730000Y-4240000D02*
X16730000Y-4420000D01*
X16640000Y-4330000D02*
X16820000Y-4330000D01*
X17150000Y-3690000D02*
X17150000Y-3870000D01*
X17060000Y-3780000D02*
X17240000Y-3780000D01*
X17150000Y-4240000D02*
X17150000Y-4420000D01*
X17060000Y-4330000D02*
X17240000Y-4330000D01*
X13305000Y-13940000D02*
X13305000Y-14120000D01*
X13215000Y-14030000D02*
X13395000Y-14030000D01*
X13305000Y-14490000D02*
X13305000Y-14670000D01*
X13215000Y-14580000D02*
X13395000Y-14580000D01*
X13725000Y-13940000D02*
X13725000Y-14120000D01*
X13635000Y-14030000D02*
X13815000Y-14030000D01*
X13725000Y-14490000D02*
X13725000Y-14670000D01*
X13635000Y-14580000D02*
X13815000Y-14580000D01*
X2325460Y-12395460D02*
X2325460Y-12204540D01*
X2134540Y-12204540D01*
X2134540Y-12395460D01*
X2325460Y-12395460D01*
X4595460Y-6095460D02*
X4595460Y-5904540D01*
X4404540Y-5904540D01*
X4404540Y-6095460D01*
X4595460Y-6095460D01*
X6865460Y-12395460D02*
X6865460Y-12204540D01*
X6674540Y-12204540D01*
X6674540Y-12395460D01*
X6865460Y-12395460D01*
X18525460Y-12395460D02*
X18525460Y-12204540D01*
X18334540Y-12204540D01*
X18334540Y-12395460D01*
X18525460Y-12395460D01*
X20795460Y-6095460D02*
X20795460Y-5904540D01*
X20604540Y-5904540D01*
X20604540Y-6095460D01*
X20795460Y-6095460D01*
X23065460Y-12395460D02*
X23065460Y-12204540D01*
X22874540Y-12204540D01*
X22874540Y-12395460D01*
X23065460Y-12395460D01*
X7725460Y-12395460D02*
X7725460Y-12204540D01*
X7534540Y-12204540D01*
X7534540Y-12395460D01*
X7725460Y-12395460D01*
X9995460Y-6095460D02*
X9995460Y-5904540D01*
X9804540Y-5904540D01*
X9804540Y-6095460D01*
X9995460Y-6095460D01*
X12265460Y-12395460D02*
X12265460Y-12204540D01*
X12074540Y-12204540D01*
X12074540Y-12395460D01*
X12265460Y-12395460D01*
X13125460Y-12395460D02*
X13125460Y-12204540D01*
X12934540Y-12204540D01*
X12934540Y-12395460D01*
X13125460Y-12395460D01*
X15395460Y-6095460D02*
X15395460Y-5904540D01*
X15204540Y-5904540D01*
X15204540Y-6095460D01*
X15395460Y-6095460D01*
X17665460Y-12395460D02*
X17665460Y-12204540D01*
X17474540Y-12204540D01*
X17474540Y-12395460D01*
X17665460Y-12395460D01*
X22340000Y-3200000D02*
X22490000Y-3050000D01*
X22340000Y-2900000D01*
X22190000Y-3050000D01*
X22340000Y-3200000D01*
X11540000Y-3200000D02*
X11690000Y-3050000D01*
X11540000Y-2900000D01*
X11390000Y-3050000D01*
X11540000Y-3200000D01*
X16940000Y-3200000D02*
X17090000Y-3050000D01*
X16940000Y-2900000D01*
X16790000Y-3050000D01*
X16940000Y-3200000D01*
X13515000Y-15460000D02*
X13665000Y-15310000D01*
X13515000Y-15160000D01*
X13365000Y-15310000D01*
X13515000Y-15460000D01*
X6140000Y-3200000D02*
X6290000Y-3050000D01*
X6140000Y-2900000D01*
X5990000Y-3050000D01*
X6140000Y-3200000D01*
X22740000Y-13475000D02*
X22890000Y-13325000D01*
X22740000Y-13175000D01*
X22590000Y-13325000D01*
X22740000Y-13475000D01*
X21570000Y-15460000D02*
X21720000Y-15310000D01*
X21570000Y-15160000D01*
X21420000Y-15310000D01*
X21570000Y-15460000D01*
X12435000Y-2530000D02*
X12755000Y-2850000D01*
X12755000Y-2530000D02*
X12435000Y-2850000D01*
X12755000Y-2690000D02*
G75*
G03X12755000Y-2690000I-160000J0D01*
G01*
X1985000Y-15465000D02*
X2305000Y-15785000D01*
X2305000Y-15465000D02*
X1985000Y-15785000D01*
X2305000Y-15625000D02*
G75*
G03X2305000Y-15625000I-160000J0D01*
G01*
X12255000Y-15465000D02*
X12575000Y-15785000D01*
X12575000Y-15465000D02*
X12255000Y-15785000D01*
X12575000Y-15625000D02*
G75*
G03X12575000Y-15625000I-160000J0D01*
G01*
X1985000Y-2530000D02*
X2305000Y-2850000D01*
X2305000Y-2530000D02*
X1985000Y-2850000D01*
X2305000Y-2690000D02*
G75*
G03X2305000Y-2690000I-160000J0D01*
G01*
X21070000Y-2530000D02*
X21390000Y-2850000D01*
X21390000Y-2530000D02*
X21070000Y-2850000D01*
X21390000Y-2690000D02*
G75*
G03X21390000Y-2690000I-160000J0D01*
G01*
X22895000Y-15465000D02*
X23215000Y-15785000D01*
X23215000Y-15465000D02*
X22895000Y-15785000D01*
X23215000Y-15625000D02*
G75*
G03X23215000Y-15625000I-160000J0D01*
G01*
D12*
X2083928Y-16438214D02*
X2083928Y-16138214D01*
X2155357Y-16138214D01*
X2198214Y-16152500D01*
X2226786Y-16181071D01*
X2241071Y-16209643D01*
X2255357Y-16266786D01*
X2255357Y-16309643D01*
X2241071Y-16366786D01*
X2226786Y-16395357D01*
X2198214Y-16423929D01*
X2155357Y-16438214D01*
X2083928Y-16438214D01*
X2383928Y-16438214D02*
X2383928Y-16238214D01*
X2383928Y-16295357D02*
X2398214Y-16266786D01*
X2412500Y-16252500D01*
X2441071Y-16238214D01*
X2469643Y-16238214D01*
X2569643Y-16438214D02*
X2569643Y-16238214D01*
X2569643Y-16138214D02*
X2555357Y-16152500D01*
X2569643Y-16166786D01*
X2583928Y-16152500D01*
X2569643Y-16138214D01*
X2569643Y-16166786D01*
X2755357Y-16438214D02*
X2726786Y-16423929D01*
X2712500Y-16395357D01*
X2712500Y-16138214D01*
X2912500Y-16438214D02*
X2883928Y-16423929D01*
X2869643Y-16395357D01*
X2869643Y-16138214D01*
X3255357Y-16438214D02*
X3255357Y-16138214D01*
X3355357Y-16352500D01*
X3455357Y-16138214D01*
X3455357Y-16438214D01*
X3726786Y-16438214D02*
X3726786Y-16281071D01*
X3712500Y-16252500D01*
X3683928Y-16238214D01*
X3626786Y-16238214D01*
X3598214Y-16252500D01*
X3726786Y-16423929D02*
X3698214Y-16438214D01*
X3626786Y-16438214D01*
X3598214Y-16423929D01*
X3583928Y-16395357D01*
X3583928Y-16366786D01*
X3598214Y-16338214D01*
X3626786Y-16323929D01*
X3698214Y-16323929D01*
X3726786Y-16309643D01*
X3869643Y-16238214D02*
X3869643Y-16538214D01*
X3869643Y-16252500D02*
X3898214Y-16238214D01*
X3955357Y-16238214D01*
X3983928Y-16252500D01*
X3998214Y-16266786D01*
X4012500Y-16295357D01*
X4012500Y-16381071D01*
X3998214Y-16409643D01*
X3983928Y-16423929D01*
X3955357Y-16438214D01*
X3898214Y-16438214D01*
X3869643Y-16423929D01*
X4141071Y-16409643D02*
X4155357Y-16423929D01*
X4141071Y-16438214D01*
X4126786Y-16423929D01*
X4141071Y-16409643D01*
X4141071Y-16438214D01*
X4141071Y-16252500D02*
X4155357Y-16266786D01*
X4141071Y-16281071D01*
X4126786Y-16266786D01*
X4141071Y-16252500D01*
X4141071Y-16281071D01*
X1757500Y-16912500D02*
X1797500Y-16952500D01*
X1797500Y-16912500D02*
X1757500Y-16952500D01*
X2141071Y-16768214D02*
X2169643Y-16768214D01*
X2198214Y-16782500D01*
X2212500Y-16796786D01*
X2226786Y-16825357D01*
X2241071Y-16882500D01*
X2241071Y-16953929D01*
X2226786Y-17011072D01*
X2212500Y-17039643D01*
X2198214Y-17053929D01*
X2169643Y-17068214D01*
X2141071Y-17068214D01*
X2112500Y-17053929D01*
X2098214Y-17039643D01*
X2083928Y-17011072D01*
X2069643Y-16953929D01*
X2069643Y-16882500D01*
X2083928Y-16825357D01*
X2098214Y-16796786D01*
X2112500Y-16782500D01*
X2141071Y-16768214D01*
X2369643Y-17039643D02*
X2383928Y-17053929D01*
X2369643Y-17068214D01*
X2355357Y-17053929D01*
X2369643Y-17039643D01*
X2369643Y-17068214D01*
X2641071Y-16868214D02*
X2641071Y-17068214D01*
X2569643Y-16753929D02*
X2498214Y-16968214D01*
X2683928Y-16968214D01*
X2855357Y-16768214D02*
X2883928Y-16768214D01*
X2912500Y-16782500D01*
X2926786Y-16796786D01*
X2941071Y-16825357D01*
X2955357Y-16882500D01*
X2955357Y-16953929D01*
X2941071Y-17011072D01*
X2926786Y-17039643D01*
X2912500Y-17053929D01*
X2883928Y-17068214D01*
X2855357Y-17068214D01*
X2826786Y-17053929D01*
X2812500Y-17039643D01*
X2798214Y-17011072D01*
X2783928Y-16953929D01*
X2783928Y-16882500D01*
X2798214Y-16825357D01*
X2812500Y-16796786D01*
X2826786Y-16782500D01*
X2855357Y-16768214D01*
X3083928Y-17068214D02*
X3083928Y-16868214D01*
X3083928Y-16896786D02*
X3098214Y-16882500D01*
X3126786Y-16868214D01*
X3169643Y-16868214D01*
X3198214Y-16882500D01*
X3212500Y-16911072D01*
X3212500Y-17068214D01*
X3212500Y-16911072D02*
X3226786Y-16882500D01*
X3255357Y-16868214D01*
X3298214Y-16868214D01*
X3326786Y-16882500D01*
X3341071Y-16911072D01*
X3341071Y-17068214D01*
X3483928Y-17068214D02*
X3483928Y-16868214D01*
X3483928Y-16896786D02*
X3498214Y-16882500D01*
X3526786Y-16868214D01*
X3569643Y-16868214D01*
X3598214Y-16882500D01*
X3612500Y-16911072D01*
X3612500Y-17068214D01*
X3612500Y-16911072D02*
X3626786Y-16882500D01*
X3655357Y-16868214D01*
X3698214Y-16868214D01*
X3726786Y-16882500D01*
X3741071Y-16911072D01*
X3741071Y-17068214D01*
X4326786Y-16753929D02*
X4069643Y-17139643D01*
X4712500Y-16768214D02*
X4741071Y-16768214D01*
X4769643Y-16782500D01*
X4783928Y-16796786D01*
X4798214Y-16825357D01*
X4812500Y-16882500D01*
X4812500Y-16953929D01*
X4798214Y-17011072D01*
X4783928Y-17039643D01*
X4769643Y-17053929D01*
X4741071Y-17068214D01*
X4712500Y-17068214D01*
X4683928Y-17053929D01*
X4669643Y-17039643D01*
X4655357Y-17011072D01*
X4641071Y-16953929D01*
X4641071Y-16882500D01*
X4655357Y-16825357D01*
X4669643Y-16796786D01*
X4683928Y-16782500D01*
X4712500Y-16768214D01*
X4941071Y-17039643D02*
X4955357Y-17053929D01*
X4941071Y-17068214D01*
X4926786Y-17053929D01*
X4941071Y-17039643D01*
X4941071Y-17068214D01*
X5141071Y-16768214D02*
X5169643Y-16768214D01*
X5198214Y-16782500D01*
X5212500Y-16796786D01*
X5226786Y-16825357D01*
X5241071Y-16882500D01*
X5241071Y-16953929D01*
X5226786Y-17011072D01*
X5212500Y-17039643D01*
X5198214Y-17053929D01*
X5169643Y-17068214D01*
X5141071Y-17068214D01*
X5112500Y-17053929D01*
X5098214Y-17039643D01*
X5083928Y-17011072D01*
X5069643Y-16953929D01*
X5069643Y-16882500D01*
X5083928Y-16825357D01*
X5098214Y-16796786D01*
X5112500Y-16782500D01*
X5141071Y-16768214D01*
X5526786Y-17068214D02*
X5355357Y-17068214D01*
X5441071Y-17068214D02*
X5441071Y-16768214D01*
X5412500Y-16811072D01*
X5383928Y-16839643D01*
X5355357Y-16853929D01*
X5783928Y-16768214D02*
X5726786Y-16768214D01*
X5698214Y-16782500D01*
X5683928Y-16796786D01*
X5655357Y-16839643D01*
X5641071Y-16896786D01*
X5641071Y-17011072D01*
X5655357Y-17039643D01*
X5669643Y-17053929D01*
X5698214Y-17068214D01*
X5755357Y-17068214D01*
X5783928Y-17053929D01*
X5798214Y-17039643D01*
X5812500Y-17011072D01*
X5812500Y-16939643D01*
X5798214Y-16911072D01*
X5783928Y-16896786D01*
X5755357Y-16882500D01*
X5698214Y-16882500D01*
X5669643Y-16896786D01*
X5655357Y-16911072D01*
X5641071Y-16939643D01*
X5926786Y-16768214D02*
X5926786Y-16825357D01*
X6041071Y-16768214D02*
X6041071Y-16825357D01*
X6483928Y-17182500D02*
X6469643Y-17168214D01*
X6441071Y-17125357D01*
X6426786Y-17096786D01*
X6412500Y-17053929D01*
X6398214Y-16982500D01*
X6398214Y-16925357D01*
X6412500Y-16853929D01*
X6426786Y-16811072D01*
X6441071Y-16782500D01*
X6469643Y-16739643D01*
X6483928Y-16725357D01*
X6569643Y-16768214D02*
X6769643Y-16768214D01*
X6641071Y-17068214D01*
X7041071Y-17068214D02*
X6869643Y-17068214D01*
X6955357Y-17068214D02*
X6955357Y-16768214D01*
X6926786Y-16811072D01*
X6898214Y-16839643D01*
X6869643Y-16853929D01*
X7155357Y-16796786D02*
X7169643Y-16782500D01*
X7198214Y-16768214D01*
X7269643Y-16768214D01*
X7298214Y-16782500D01*
X7312500Y-16796786D01*
X7326786Y-16825357D01*
X7326786Y-16853929D01*
X7312500Y-16896786D01*
X7141071Y-17068214D01*
X7326786Y-17068214D01*
X7683928Y-17068214D02*
X7683928Y-16768214D01*
X7812500Y-17068214D02*
X7812500Y-16911072D01*
X7798214Y-16882500D01*
X7769643Y-16868214D01*
X7726786Y-16868214D01*
X7698214Y-16882500D01*
X7683928Y-16896786D01*
X7998214Y-17068214D02*
X7969643Y-17053929D01*
X7955357Y-17039643D01*
X7941071Y-17011072D01*
X7941071Y-16925357D01*
X7955357Y-16896786D01*
X7969643Y-16882500D01*
X7998214Y-16868214D01*
X8041071Y-16868214D01*
X8069643Y-16882500D01*
X8083928Y-16896786D01*
X8098214Y-16925357D01*
X8098214Y-17011072D01*
X8083928Y-17039643D01*
X8069643Y-17053929D01*
X8041071Y-17068214D01*
X7998214Y-17068214D01*
X8269643Y-17068214D02*
X8241071Y-17053929D01*
X8226786Y-17025357D01*
X8226786Y-16768214D01*
X8498214Y-17053929D02*
X8469643Y-17068214D01*
X8412500Y-17068214D01*
X8383928Y-17053929D01*
X8369643Y-17025357D01*
X8369643Y-16911072D01*
X8383928Y-16882500D01*
X8412500Y-16868214D01*
X8469643Y-16868214D01*
X8498214Y-16882500D01*
X8512500Y-16911072D01*
X8512500Y-16939643D01*
X8369643Y-16968214D01*
X8626786Y-17053929D02*
X8655357Y-17068214D01*
X8712500Y-17068214D01*
X8741071Y-17053929D01*
X8755357Y-17025357D01*
X8755357Y-17011072D01*
X8741071Y-16982500D01*
X8712500Y-16968214D01*
X8669643Y-16968214D01*
X8641071Y-16953929D01*
X8626786Y-16925357D01*
X8626786Y-16911072D01*
X8641071Y-16882500D01*
X8669643Y-16868214D01*
X8712500Y-16868214D01*
X8741071Y-16882500D01*
X8855357Y-17182500D02*
X8869643Y-17168214D01*
X8898214Y-17125357D01*
X8912500Y-17096786D01*
X8926786Y-17053929D01*
X8941071Y-16982500D01*
X8941071Y-16925357D01*
X8926786Y-16853929D01*
X8912500Y-16811072D01*
X8898214Y-16782500D01*
X8869643Y-16739643D01*
X8855357Y-16725357D01*
X1797500Y-17328500D02*
G75*
G03X1797500Y-17328500I-30000J0D01*
G01*
X2141071Y-17164214D02*
X2169643Y-17164214D01*
X2198214Y-17178500D01*
X2212500Y-17192786D01*
X2226786Y-17221357D01*
X2241071Y-17278500D01*
X2241071Y-17349929D01*
X2226786Y-17407072D01*
X2212500Y-17435643D01*
X2198214Y-17449929D01*
X2169643Y-17464214D01*
X2141071Y-17464214D01*
X2112500Y-17449929D01*
X2098214Y-17435643D01*
X2083928Y-17407072D01*
X2069643Y-17349929D01*
X2069643Y-17278500D01*
X2083928Y-17221357D01*
X2098214Y-17192786D01*
X2112500Y-17178500D01*
X2141071Y-17164214D01*
X2369643Y-17435643D02*
X2383928Y-17449929D01*
X2369643Y-17464214D01*
X2355357Y-17449929D01*
X2369643Y-17435643D01*
X2369643Y-17464214D01*
X2641071Y-17164214D02*
X2583928Y-17164214D01*
X2555357Y-17178500D01*
X2541071Y-17192786D01*
X2512500Y-17235643D01*
X2498214Y-17292786D01*
X2498214Y-17407072D01*
X2512500Y-17435643D01*
X2526786Y-17449929D01*
X2555357Y-17464214D01*
X2612500Y-17464214D01*
X2641071Y-17449929D01*
X2655357Y-17435643D01*
X2669643Y-17407072D01*
X2669643Y-17335643D01*
X2655357Y-17307072D01*
X2641071Y-17292786D01*
X2612500Y-17278500D01*
X2555357Y-17278500D01*
X2526786Y-17292786D01*
X2512500Y-17307072D01*
X2498214Y-17335643D01*
X2855357Y-17164214D02*
X2883928Y-17164214D01*
X2912500Y-17178500D01*
X2926786Y-17192786D01*
X2941071Y-17221357D01*
X2955357Y-17278500D01*
X2955357Y-17349929D01*
X2941071Y-17407072D01*
X2926786Y-17435643D01*
X2912500Y-17449929D01*
X2883928Y-17464214D01*
X2855357Y-17464214D01*
X2826786Y-17449929D01*
X2812500Y-17435643D01*
X2798214Y-17407072D01*
X2783928Y-17349929D01*
X2783928Y-17278500D01*
X2798214Y-17221357D01*
X2812500Y-17192786D01*
X2826786Y-17178500D01*
X2855357Y-17164214D01*
X3083928Y-17464214D02*
X3083928Y-17264214D01*
X3083928Y-17292786D02*
X3098214Y-17278500D01*
X3126786Y-17264214D01*
X3169643Y-17264214D01*
X3198214Y-17278500D01*
X3212500Y-17307072D01*
X3212500Y-17464214D01*
X3212500Y-17307072D02*
X3226786Y-17278500D01*
X3255357Y-17264214D01*
X3298214Y-17264214D01*
X3326786Y-17278500D01*
X3341071Y-17307072D01*
X3341071Y-17464214D01*
X3483928Y-17464214D02*
X3483928Y-17264214D01*
X3483928Y-17292786D02*
X3498214Y-17278500D01*
X3526786Y-17264214D01*
X3569643Y-17264214D01*
X3598214Y-17278500D01*
X3612500Y-17307072D01*
X3612500Y-17464214D01*
X3612500Y-17307072D02*
X3626786Y-17278500D01*
X3655357Y-17264214D01*
X3698214Y-17264214D01*
X3726786Y-17278500D01*
X3741071Y-17307072D01*
X3741071Y-17464214D01*
X4326786Y-17149929D02*
X4069643Y-17535643D01*
X4712500Y-17164214D02*
X4741071Y-17164214D01*
X4769643Y-17178500D01*
X4783928Y-17192786D01*
X4798214Y-17221357D01*
X4812500Y-17278500D01*
X4812500Y-17349929D01*
X4798214Y-17407072D01*
X4783928Y-17435643D01*
X4769643Y-17449929D01*
X4741071Y-17464214D01*
X4712500Y-17464214D01*
X4683928Y-17449929D01*
X4669643Y-17435643D01*
X4655357Y-17407072D01*
X4641071Y-17349929D01*
X4641071Y-17278500D01*
X4655357Y-17221357D01*
X4669643Y-17192786D01*
X4683928Y-17178500D01*
X4712500Y-17164214D01*
X4941071Y-17435643D02*
X4955357Y-17449929D01*
X4941071Y-17464214D01*
X4926786Y-17449929D01*
X4941071Y-17435643D01*
X4941071Y-17464214D01*
X5141071Y-17164214D02*
X5169643Y-17164214D01*
X5198214Y-17178500D01*
X5212500Y-17192786D01*
X5226786Y-17221357D01*
X5241071Y-17278500D01*
X5241071Y-17349929D01*
X5226786Y-17407072D01*
X5212500Y-17435643D01*
X5198214Y-17449929D01*
X5169643Y-17464214D01*
X5141071Y-17464214D01*
X5112500Y-17449929D01*
X5098214Y-17435643D01*
X5083928Y-17407072D01*
X5069643Y-17349929D01*
X5069643Y-17278500D01*
X5083928Y-17221357D01*
X5098214Y-17192786D01*
X5112500Y-17178500D01*
X5141071Y-17164214D01*
X5355357Y-17192786D02*
X5369643Y-17178500D01*
X5398214Y-17164214D01*
X5469643Y-17164214D01*
X5498214Y-17178500D01*
X5512500Y-17192786D01*
X5526786Y-17221357D01*
X5526786Y-17249929D01*
X5512500Y-17292786D01*
X5341071Y-17464214D01*
X5526786Y-17464214D01*
X5783928Y-17264214D02*
X5783928Y-17464214D01*
X5712500Y-17149929D02*
X5641071Y-17364214D01*
X5826786Y-17364214D01*
X5926786Y-17164214D02*
X5926786Y-17221357D01*
X6041071Y-17164214D02*
X6041071Y-17221357D01*
X6483928Y-17578500D02*
X6469643Y-17564214D01*
X6441071Y-17521357D01*
X6426786Y-17492786D01*
X6412500Y-17449929D01*
X6398214Y-17378500D01*
X6398214Y-17321357D01*
X6412500Y-17249929D01*
X6426786Y-17207072D01*
X6441071Y-17178500D01*
X6469643Y-17135643D01*
X6483928Y-17121357D01*
X6569643Y-17164214D02*
X6769643Y-17164214D01*
X6641071Y-17464214D01*
X6855357Y-17164214D02*
X7041071Y-17164214D01*
X6941071Y-17278500D01*
X6983928Y-17278500D01*
X7012500Y-17292786D01*
X7026786Y-17307072D01*
X7041071Y-17335643D01*
X7041071Y-17407072D01*
X7026786Y-17435643D01*
X7012500Y-17449929D01*
X6983928Y-17464214D01*
X6898214Y-17464214D01*
X6869643Y-17449929D01*
X6855357Y-17435643D01*
X7298214Y-17164214D02*
X7241071Y-17164214D01*
X7212500Y-17178500D01*
X7198214Y-17192786D01*
X7169643Y-17235643D01*
X7155357Y-17292786D01*
X7155357Y-17407072D01*
X7169643Y-17435643D01*
X7183928Y-17449929D01*
X7212500Y-17464214D01*
X7269643Y-17464214D01*
X7298214Y-17449929D01*
X7312500Y-17435643D01*
X7326786Y-17407072D01*
X7326786Y-17335643D01*
X7312500Y-17307072D01*
X7298214Y-17292786D01*
X7269643Y-17278500D01*
X7212500Y-17278500D01*
X7183928Y-17292786D01*
X7169643Y-17307072D01*
X7155357Y-17335643D01*
X7683928Y-17464214D02*
X7683928Y-17164214D01*
X7812500Y-17464214D02*
X7812500Y-17307072D01*
X7798214Y-17278500D01*
X7769643Y-17264214D01*
X7726786Y-17264214D01*
X7698214Y-17278500D01*
X7683928Y-17292786D01*
X7998214Y-17464214D02*
X7969643Y-17449929D01*
X7955357Y-17435643D01*
X7941071Y-17407072D01*
X7941071Y-17321357D01*
X7955357Y-17292786D01*
X7969643Y-17278500D01*
X7998214Y-17264214D01*
X8041071Y-17264214D01*
X8069643Y-17278500D01*
X8083928Y-17292786D01*
X8098214Y-17321357D01*
X8098214Y-17407072D01*
X8083928Y-17435643D01*
X8069643Y-17449929D01*
X8041071Y-17464214D01*
X7998214Y-17464214D01*
X8269643Y-17464214D02*
X8241071Y-17449929D01*
X8226786Y-17421357D01*
X8226786Y-17164214D01*
X8498214Y-17449929D02*
X8469643Y-17464214D01*
X8412500Y-17464214D01*
X8383928Y-17449929D01*
X8369643Y-17421357D01*
X8369643Y-17307072D01*
X8383928Y-17278500D01*
X8412500Y-17264214D01*
X8469643Y-17264214D01*
X8498214Y-17278500D01*
X8512500Y-17307072D01*
X8512500Y-17335643D01*
X8369643Y-17364214D01*
X8626786Y-17449929D02*
X8655357Y-17464214D01*
X8712500Y-17464214D01*
X8741071Y-17449929D01*
X8755357Y-17421357D01*
X8755357Y-17407072D01*
X8741071Y-17378500D01*
X8712500Y-17364214D01*
X8669643Y-17364214D01*
X8641071Y-17349929D01*
X8626786Y-17321357D01*
X8626786Y-17307072D01*
X8641071Y-17278500D01*
X8669643Y-17264214D01*
X8712500Y-17264214D01*
X8741071Y-17278500D01*
X8855357Y-17578500D02*
X8869643Y-17564214D01*
X8898214Y-17521357D01*
X8912500Y-17492786D01*
X8926786Y-17449929D01*
X8941071Y-17378500D01*
X8941071Y-17321357D01*
X8926786Y-17249929D01*
X8912500Y-17207072D01*
X8898214Y-17178500D01*
X8869643Y-17135643D01*
X8855357Y-17121357D01*
X1707500Y-17634500D02*
X1707500Y-17814500D01*
X1617500Y-17724500D02*
X1797500Y-17724500D01*
X2241071Y-17860214D02*
X2069643Y-17860214D01*
X2155357Y-17860214D02*
X2155357Y-17560214D01*
X2126786Y-17603072D01*
X2098214Y-17631643D01*
X2069643Y-17645929D01*
X2369643Y-17831643D02*
X2383928Y-17845929D01*
X2369643Y-17860214D01*
X2355357Y-17845929D01*
X2369643Y-17831643D01*
X2369643Y-17860214D01*
X2555357Y-17688786D02*
X2526786Y-17674500D01*
X2512500Y-17660214D01*
X2498214Y-17631643D01*
X2498214Y-17617357D01*
X2512500Y-17588786D01*
X2526786Y-17574500D01*
X2555357Y-17560214D01*
X2612500Y-17560214D01*
X2641071Y-17574500D01*
X2655357Y-17588786D01*
X2669643Y-17617357D01*
X2669643Y-17631643D01*
X2655357Y-17660214D01*
X2641071Y-17674500D01*
X2612500Y-17688786D01*
X2555357Y-17688786D01*
X2526786Y-17703072D01*
X2512500Y-17717357D01*
X2498214Y-17745929D01*
X2498214Y-17803072D01*
X2512500Y-17831643D01*
X2526786Y-17845929D01*
X2555357Y-17860214D01*
X2612500Y-17860214D01*
X2641071Y-17845929D01*
X2655357Y-17831643D01*
X2669643Y-17803072D01*
X2669643Y-17745929D01*
X2655357Y-17717357D01*
X2641071Y-17703072D01*
X2612500Y-17688786D01*
X2855357Y-17560214D02*
X2883928Y-17560214D01*
X2912500Y-17574500D01*
X2926786Y-17588786D01*
X2941071Y-17617357D01*
X2955357Y-17674500D01*
X2955357Y-17745929D01*
X2941071Y-17803072D01*
X2926786Y-17831643D01*
X2912500Y-17845929D01*
X2883928Y-17860214D01*
X2855357Y-17860214D01*
X2826786Y-17845929D01*
X2812500Y-17831643D01*
X2798214Y-17803072D01*
X2783928Y-17745929D01*
X2783928Y-17674500D01*
X2798214Y-17617357D01*
X2812500Y-17588786D01*
X2826786Y-17574500D01*
X2855357Y-17560214D01*
X3083928Y-17860214D02*
X3083928Y-17660214D01*
X3083928Y-17688786D02*
X3098214Y-17674500D01*
X3126786Y-17660214D01*
X3169643Y-17660214D01*
X3198214Y-17674500D01*
X3212500Y-17703072D01*
X3212500Y-17860214D01*
X3212500Y-17703072D02*
X3226786Y-17674500D01*
X3255357Y-17660214D01*
X3298214Y-17660214D01*
X3326786Y-17674500D01*
X3341071Y-17703072D01*
X3341071Y-17860214D01*
X3483928Y-17860214D02*
X3483928Y-17660214D01*
X3483928Y-17688786D02*
X3498214Y-17674500D01*
X3526786Y-17660214D01*
X3569643Y-17660214D01*
X3598214Y-17674500D01*
X3612500Y-17703072D01*
X3612500Y-17860214D01*
X3612500Y-17703072D02*
X3626786Y-17674500D01*
X3655357Y-17660214D01*
X3698214Y-17660214D01*
X3726786Y-17674500D01*
X3741071Y-17703072D01*
X3741071Y-17860214D01*
X4326786Y-17545929D02*
X4069643Y-17931643D01*
X4712500Y-17560214D02*
X4741071Y-17560214D01*
X4769643Y-17574500D01*
X4783928Y-17588786D01*
X4798214Y-17617357D01*
X4812500Y-17674500D01*
X4812500Y-17745929D01*
X4798214Y-17803072D01*
X4783928Y-17831643D01*
X4769643Y-17845929D01*
X4741071Y-17860214D01*
X4712500Y-17860214D01*
X4683928Y-17845929D01*
X4669643Y-17831643D01*
X4655357Y-17803072D01*
X4641071Y-17745929D01*
X4641071Y-17674500D01*
X4655357Y-17617357D01*
X4669643Y-17588786D01*
X4683928Y-17574500D01*
X4712500Y-17560214D01*
X4941071Y-17831643D02*
X4955357Y-17845929D01*
X4941071Y-17860214D01*
X4926786Y-17845929D01*
X4941071Y-17831643D01*
X4941071Y-17860214D01*
X5141071Y-17560214D02*
X5169643Y-17560214D01*
X5198214Y-17574500D01*
X5212500Y-17588786D01*
X5226786Y-17617357D01*
X5241071Y-17674500D01*
X5241071Y-17745929D01*
X5226786Y-17803072D01*
X5212500Y-17831643D01*
X5198214Y-17845929D01*
X5169643Y-17860214D01*
X5141071Y-17860214D01*
X5112500Y-17845929D01*
X5098214Y-17831643D01*
X5083928Y-17803072D01*
X5069643Y-17745929D01*
X5069643Y-17674500D01*
X5083928Y-17617357D01*
X5098214Y-17588786D01*
X5112500Y-17574500D01*
X5141071Y-17560214D01*
X5341071Y-17560214D02*
X5541071Y-17560214D01*
X5412500Y-17860214D01*
X5812500Y-17860214D02*
X5641071Y-17860214D01*
X5726786Y-17860214D02*
X5726786Y-17560214D01*
X5698214Y-17603072D01*
X5669643Y-17631643D01*
X5641071Y-17645929D01*
X5926786Y-17560214D02*
X5926786Y-17617357D01*
X6041071Y-17560214D02*
X6041071Y-17617357D01*
X6483928Y-17974500D02*
X6469643Y-17960214D01*
X6441071Y-17917357D01*
X6426786Y-17888786D01*
X6412500Y-17845929D01*
X6398214Y-17774500D01*
X6398214Y-17717357D01*
X6412500Y-17645929D01*
X6426786Y-17603072D01*
X6441071Y-17574500D01*
X6469643Y-17531643D01*
X6483928Y-17517357D01*
X6583928Y-17588786D02*
X6598214Y-17574500D01*
X6626786Y-17560214D01*
X6698214Y-17560214D01*
X6726786Y-17574500D01*
X6741071Y-17588786D01*
X6755357Y-17617357D01*
X6755357Y-17645929D01*
X6741071Y-17688786D01*
X6569643Y-17860214D01*
X6755357Y-17860214D01*
X6926786Y-17688786D02*
X6898214Y-17674500D01*
X6883928Y-17660214D01*
X6869643Y-17631643D01*
X6869643Y-17617357D01*
X6883928Y-17588786D01*
X6898214Y-17574500D01*
X6926786Y-17560214D01*
X6983928Y-17560214D01*
X7012500Y-17574500D01*
X7026786Y-17588786D01*
X7041071Y-17617357D01*
X7041071Y-17631643D01*
X7026786Y-17660214D01*
X7012500Y-17674500D01*
X6983928Y-17688786D01*
X6926786Y-17688786D01*
X6898214Y-17703072D01*
X6883928Y-17717357D01*
X6869643Y-17745929D01*
X6869643Y-17803072D01*
X6883928Y-17831643D01*
X6898214Y-17845929D01*
X6926786Y-17860214D01*
X6983928Y-17860214D01*
X7012500Y-17845929D01*
X7026786Y-17831643D01*
X7041071Y-17803072D01*
X7041071Y-17745929D01*
X7026786Y-17717357D01*
X7012500Y-17703072D01*
X6983928Y-17688786D01*
X7398214Y-17860214D02*
X7398214Y-17560214D01*
X7526786Y-17860214D02*
X7526786Y-17703072D01*
X7512500Y-17674500D01*
X7483928Y-17660214D01*
X7441071Y-17660214D01*
X7412500Y-17674500D01*
X7398214Y-17688786D01*
X7712500Y-17860214D02*
X7683928Y-17845929D01*
X7669643Y-17831643D01*
X7655357Y-17803072D01*
X7655357Y-17717357D01*
X7669643Y-17688786D01*
X7683928Y-17674500D01*
X7712500Y-17660214D01*
X7755357Y-17660214D01*
X7783928Y-17674500D01*
X7798214Y-17688786D01*
X7812500Y-17717357D01*
X7812500Y-17803072D01*
X7798214Y-17831643D01*
X7783928Y-17845929D01*
X7755357Y-17860214D01*
X7712500Y-17860214D01*
X7983928Y-17860214D02*
X7955357Y-17845929D01*
X7941071Y-17817357D01*
X7941071Y-17560214D01*
X8212500Y-17845929D02*
X8183928Y-17860214D01*
X8126786Y-17860214D01*
X8098214Y-17845929D01*
X8083928Y-17817357D01*
X8083928Y-17703072D01*
X8098214Y-17674500D01*
X8126786Y-17660214D01*
X8183928Y-17660214D01*
X8212500Y-17674500D01*
X8226786Y-17703072D01*
X8226786Y-17731643D01*
X8083928Y-17760214D01*
X8341071Y-17845929D02*
X8369643Y-17860214D01*
X8426786Y-17860214D01*
X8455357Y-17845929D01*
X8469643Y-17817357D01*
X8469643Y-17803072D01*
X8455357Y-17774500D01*
X8426786Y-17760214D01*
X8383928Y-17760214D01*
X8355357Y-17745929D01*
X8341071Y-17717357D01*
X8341071Y-17703072D01*
X8355357Y-17674500D01*
X8383928Y-17660214D01*
X8426786Y-17660214D01*
X8455357Y-17674500D01*
X8569643Y-17974500D02*
X8583928Y-17960214D01*
X8612500Y-17917357D01*
X8626786Y-17888786D01*
X8641071Y-17845929D01*
X8655357Y-17774500D01*
X8655357Y-17717357D01*
X8641071Y-17645929D01*
X8626786Y-17603072D01*
X8612500Y-17574500D01*
X8583928Y-17531643D01*
X8569643Y-17517357D01*
X1757960Y-18215960D02*
X1757960Y-18025040D01*
X1567040Y-18025040D01*
X1567040Y-18215960D01*
X1757960Y-18215960D01*
X2069643Y-17984786D02*
X2083928Y-17970500D01*
X2112500Y-17956214D01*
X2183928Y-17956214D01*
X2212500Y-17970500D01*
X2226786Y-17984786D01*
X2241071Y-18013357D01*
X2241071Y-18041929D01*
X2226786Y-18084786D01*
X2055357Y-18256214D01*
X2241071Y-18256214D01*
X2369643Y-18227643D02*
X2383928Y-18241929D01*
X2369643Y-18256214D01*
X2355357Y-18241929D01*
X2369643Y-18227643D01*
X2369643Y-18256214D01*
X2483928Y-17956214D02*
X2683928Y-17956214D01*
X2555357Y-18256214D01*
X2855357Y-17956214D02*
X2883928Y-17956214D01*
X2912500Y-17970500D01*
X2926786Y-17984786D01*
X2941071Y-18013357D01*
X2955357Y-18070500D01*
X2955357Y-18141929D01*
X2941071Y-18199072D01*
X2926786Y-18227643D01*
X2912500Y-18241929D01*
X2883928Y-18256214D01*
X2855357Y-18256214D01*
X2826786Y-18241929D01*
X2812500Y-18227643D01*
X2798214Y-18199072D01*
X2783928Y-18141929D01*
X2783928Y-18070500D01*
X2798214Y-18013357D01*
X2812500Y-17984786D01*
X2826786Y-17970500D01*
X2855357Y-17956214D01*
X3083928Y-18256214D02*
X3083928Y-18056214D01*
X3083928Y-18084786D02*
X3098214Y-18070500D01*
X3126786Y-18056214D01*
X3169643Y-18056214D01*
X3198214Y-18070500D01*
X3212500Y-18099072D01*
X3212500Y-18256214D01*
X3212500Y-18099072D02*
X3226786Y-18070500D01*
X3255357Y-18056214D01*
X3298214Y-18056214D01*
X3326786Y-18070500D01*
X3341071Y-18099072D01*
X3341071Y-18256214D01*
X3483928Y-18256214D02*
X3483928Y-18056214D01*
X3483928Y-18084786D02*
X3498214Y-18070500D01*
X3526786Y-18056214D01*
X3569643Y-18056214D01*
X3598214Y-18070500D01*
X3612500Y-18099072D01*
X3612500Y-18256214D01*
X3612500Y-18099072D02*
X3626786Y-18070500D01*
X3655357Y-18056214D01*
X3698214Y-18056214D01*
X3726786Y-18070500D01*
X3741071Y-18099072D01*
X3741071Y-18256214D01*
X4326786Y-17941929D02*
X4069643Y-18327643D01*
X4712500Y-17956214D02*
X4741071Y-17956214D01*
X4769643Y-17970500D01*
X4783928Y-17984786D01*
X4798214Y-18013357D01*
X4812500Y-18070500D01*
X4812500Y-18141929D01*
X4798214Y-18199072D01*
X4783928Y-18227643D01*
X4769643Y-18241929D01*
X4741071Y-18256214D01*
X4712500Y-18256214D01*
X4683928Y-18241929D01*
X4669643Y-18227643D01*
X4655357Y-18199072D01*
X4641071Y-18141929D01*
X4641071Y-18070500D01*
X4655357Y-18013357D01*
X4669643Y-17984786D01*
X4683928Y-17970500D01*
X4712500Y-17956214D01*
X4941071Y-18227643D02*
X4955357Y-18241929D01*
X4941071Y-18256214D01*
X4926786Y-18241929D01*
X4941071Y-18227643D01*
X4941071Y-18256214D01*
X5241071Y-18256214D02*
X5069643Y-18256214D01*
X5155357Y-18256214D02*
X5155357Y-17956214D01*
X5126786Y-17999072D01*
X5098214Y-18027643D01*
X5069643Y-18041929D01*
X5426786Y-17956214D02*
X5455357Y-17956214D01*
X5483928Y-17970500D01*
X5498214Y-17984786D01*
X5512500Y-18013357D01*
X5526786Y-18070500D01*
X5526786Y-18141929D01*
X5512500Y-18199072D01*
X5498214Y-18227643D01*
X5483928Y-18241929D01*
X5455357Y-18256214D01*
X5426786Y-18256214D01*
X5398214Y-18241929D01*
X5383928Y-18227643D01*
X5369643Y-18199072D01*
X5355357Y-18141929D01*
X5355357Y-18070500D01*
X5369643Y-18013357D01*
X5383928Y-17984786D01*
X5398214Y-17970500D01*
X5426786Y-17956214D01*
X5783928Y-17956214D02*
X5726786Y-17956214D01*
X5698214Y-17970500D01*
X5683928Y-17984786D01*
X5655357Y-18027643D01*
X5641071Y-18084786D01*
X5641071Y-18199072D01*
X5655357Y-18227643D01*
X5669643Y-18241929D01*
X5698214Y-18256214D01*
X5755357Y-18256214D01*
X5783928Y-18241929D01*
X5798214Y-18227643D01*
X5812500Y-18199072D01*
X5812500Y-18127643D01*
X5798214Y-18099072D01*
X5783928Y-18084786D01*
X5755357Y-18070500D01*
X5698214Y-18070500D01*
X5669643Y-18084786D01*
X5655357Y-18099072D01*
X5641071Y-18127643D01*
X5926786Y-17956214D02*
X5926786Y-18013357D01*
X6041071Y-17956214D02*
X6041071Y-18013357D01*
X6483928Y-18370500D02*
X6469643Y-18356214D01*
X6441071Y-18313357D01*
X6426786Y-18284786D01*
X6412500Y-18241929D01*
X6398214Y-18170500D01*
X6398214Y-18113357D01*
X6412500Y-18041929D01*
X6426786Y-17999072D01*
X6441071Y-17970500D01*
X6469643Y-17927643D01*
X6483928Y-17913357D01*
X6755357Y-18256214D02*
X6583928Y-18256214D01*
X6669643Y-18256214D02*
X6669643Y-17956214D01*
X6641071Y-17999072D01*
X6612500Y-18027643D01*
X6583928Y-18041929D01*
X6869643Y-17984786D02*
X6883928Y-17970500D01*
X6912500Y-17956214D01*
X6983928Y-17956214D01*
X7012500Y-17970500D01*
X7026786Y-17984786D01*
X7041071Y-18013357D01*
X7041071Y-18041929D01*
X7026786Y-18084786D01*
X6855357Y-18256214D01*
X7041071Y-18256214D01*
X7398214Y-18256214D02*
X7398214Y-17956214D01*
X7526786Y-18256214D02*
X7526786Y-18099072D01*
X7512500Y-18070500D01*
X7483928Y-18056214D01*
X7441071Y-18056214D01*
X7412500Y-18070500D01*
X7398214Y-18084786D01*
X7712500Y-18256214D02*
X7683928Y-18241929D01*
X7669643Y-18227643D01*
X7655357Y-18199072D01*
X7655357Y-18113357D01*
X7669643Y-18084786D01*
X7683928Y-18070500D01*
X7712500Y-18056214D01*
X7755357Y-18056214D01*
X7783928Y-18070500D01*
X7798214Y-18084786D01*
X7812500Y-18113357D01*
X7812500Y-18199072D01*
X7798214Y-18227643D01*
X7783928Y-18241929D01*
X7755357Y-18256214D01*
X7712500Y-18256214D01*
X7983928Y-18256214D02*
X7955357Y-18241929D01*
X7941071Y-18213357D01*
X7941071Y-17956214D01*
X8212500Y-18241929D02*
X8183928Y-18256214D01*
X8126786Y-18256214D01*
X8098214Y-18241929D01*
X8083928Y-18213357D01*
X8083928Y-18099072D01*
X8098214Y-18070500D01*
X8126786Y-18056214D01*
X8183928Y-18056214D01*
X8212500Y-18070500D01*
X8226786Y-18099072D01*
X8226786Y-18127643D01*
X8083928Y-18156214D01*
X8341071Y-18241929D02*
X8369643Y-18256214D01*
X8426786Y-18256214D01*
X8455357Y-18241929D01*
X8469643Y-18213357D01*
X8469643Y-18199072D01*
X8455357Y-18170500D01*
X8426786Y-18156214D01*
X8383928Y-18156214D01*
X8355357Y-18141929D01*
X8341071Y-18113357D01*
X8341071Y-18099072D01*
X8355357Y-18070500D01*
X8383928Y-18056214D01*
X8426786Y-18056214D01*
X8455357Y-18070500D01*
X8569643Y-18370500D02*
X8583928Y-18356214D01*
X8612500Y-18313357D01*
X8626786Y-18284786D01*
X8641071Y-18241929D01*
X8655357Y-18170500D01*
X8655357Y-18113357D01*
X8641071Y-18041929D01*
X8626786Y-17999072D01*
X8612500Y-17970500D01*
X8583928Y-17927643D01*
X8569643Y-17913357D01*
X9112500Y-18370500D02*
X9098214Y-18356214D01*
X9069643Y-18313357D01*
X9055357Y-18284786D01*
X9041071Y-18241929D01*
X9026786Y-18170500D01*
X9026786Y-18113357D01*
X9041071Y-18041929D01*
X9055357Y-17999072D01*
X9069643Y-17970500D01*
X9098214Y-17927643D01*
X9112500Y-17913357D01*
X9226786Y-18056214D02*
X9226786Y-18256214D01*
X9226786Y-18084786D02*
X9241071Y-18070500D01*
X9269643Y-18056214D01*
X9312500Y-18056214D01*
X9341071Y-18070500D01*
X9355357Y-18099072D01*
X9355357Y-18256214D01*
X9541071Y-18256214D02*
X9512500Y-18241929D01*
X9498214Y-18227643D01*
X9483928Y-18199072D01*
X9483928Y-18113357D01*
X9498214Y-18084786D01*
X9512500Y-18070500D01*
X9541071Y-18056214D01*
X9583928Y-18056214D01*
X9612500Y-18070500D01*
X9626786Y-18084786D01*
X9641071Y-18113357D01*
X9641071Y-18199072D01*
X9626786Y-18227643D01*
X9612500Y-18241929D01*
X9583928Y-18256214D01*
X9541071Y-18256214D01*
X9726786Y-18056214D02*
X9841071Y-18056214D01*
X9769643Y-17956214D02*
X9769643Y-18213357D01*
X9783928Y-18241929D01*
X9812500Y-18256214D01*
X9841071Y-18256214D01*
X10169643Y-18056214D02*
X10169643Y-18356214D01*
X10169643Y-18070500D02*
X10198214Y-18056214D01*
X10255357Y-18056214D01*
X10283928Y-18070500D01*
X10298214Y-18084786D01*
X10312500Y-18113357D01*
X10312500Y-18199072D01*
X10298214Y-18227643D01*
X10283928Y-18241929D01*
X10255357Y-18256214D01*
X10198214Y-18256214D01*
X10169643Y-18241929D01*
X10483928Y-18256214D02*
X10455357Y-18241929D01*
X10441071Y-18213357D01*
X10441071Y-17956214D01*
X10726786Y-18256214D02*
X10726786Y-18099072D01*
X10712500Y-18070500D01*
X10683928Y-18056214D01*
X10626786Y-18056214D01*
X10598214Y-18070500D01*
X10726786Y-18241929D02*
X10698214Y-18256214D01*
X10626786Y-18256214D01*
X10598214Y-18241929D01*
X10583928Y-18213357D01*
X10583928Y-18184786D01*
X10598214Y-18156214D01*
X10626786Y-18141929D01*
X10698214Y-18141929D01*
X10726786Y-18127643D01*
X10826786Y-18056214D02*
X10941071Y-18056214D01*
X10869643Y-17956214D02*
X10869643Y-18213357D01*
X10883928Y-18241929D01*
X10912500Y-18256214D01*
X10941071Y-18256214D01*
X11155357Y-18241929D02*
X11126786Y-18256214D01*
X11069643Y-18256214D01*
X11041071Y-18241929D01*
X11026786Y-18213357D01*
X11026786Y-18099072D01*
X11041071Y-18070500D01*
X11069643Y-18056214D01*
X11126786Y-18056214D01*
X11155357Y-18070500D01*
X11169643Y-18099072D01*
X11169643Y-18127643D01*
X11026786Y-18156214D01*
X11426786Y-18256214D02*
X11426786Y-17956214D01*
X11426786Y-18241929D02*
X11398214Y-18256214D01*
X11341071Y-18256214D01*
X11312500Y-18241929D01*
X11298214Y-18227643D01*
X11283928Y-18199072D01*
X11283928Y-18113357D01*
X11298214Y-18084786D01*
X11312500Y-18070500D01*
X11341071Y-18056214D01*
X11398214Y-18056214D01*
X11426786Y-18070500D01*
X11541071Y-18370500D02*
X11555357Y-18356214D01*
X11583928Y-18313357D01*
X11598214Y-18284786D01*
X11612500Y-18241929D01*
X11626786Y-18170500D01*
X11626786Y-18113357D01*
X11612500Y-18041929D01*
X11598214Y-17999072D01*
X11583928Y-17970500D01*
X11555357Y-17927643D01*
X11541071Y-17913357D01*
X1647500Y-18670500D02*
X1797500Y-18520500D01*
X1647500Y-18370500D01*
X1497500Y-18520500D01*
X1647500Y-18670500D01*
X2055357Y-18356214D02*
X2241071Y-18356214D01*
X2141071Y-18470500D01*
X2183928Y-18470500D01*
X2212500Y-18484786D01*
X2226786Y-18499072D01*
X2241071Y-18527643D01*
X2241071Y-18599072D01*
X2226786Y-18627643D01*
X2212500Y-18641929D01*
X2183928Y-18656214D01*
X2098214Y-18656214D01*
X2069643Y-18641929D01*
X2055357Y-18627643D01*
X2369643Y-18627643D02*
X2383928Y-18641929D01*
X2369643Y-18656214D01*
X2355357Y-18641929D01*
X2369643Y-18627643D01*
X2369643Y-18656214D01*
X2569643Y-18356214D02*
X2598214Y-18356214D01*
X2626786Y-18370500D01*
X2641071Y-18384786D01*
X2655357Y-18413357D01*
X2669643Y-18470500D01*
X2669643Y-18541929D01*
X2655357Y-18599072D01*
X2641071Y-18627643D01*
X2626786Y-18641929D01*
X2598214Y-18656214D01*
X2569643Y-18656214D01*
X2541071Y-18641929D01*
X2526786Y-18627643D01*
X2512500Y-18599072D01*
X2498214Y-18541929D01*
X2498214Y-18470500D01*
X2512500Y-18413357D01*
X2526786Y-18384786D01*
X2541071Y-18370500D01*
X2569643Y-18356214D01*
X2855357Y-18356214D02*
X2883928Y-18356214D01*
X2912500Y-18370500D01*
X2926786Y-18384786D01*
X2941071Y-18413357D01*
X2955357Y-18470500D01*
X2955357Y-18541929D01*
X2941071Y-18599072D01*
X2926786Y-18627643D01*
X2912500Y-18641929D01*
X2883928Y-18656214D01*
X2855357Y-18656214D01*
X2826786Y-18641929D01*
X2812500Y-18627643D01*
X2798214Y-18599072D01*
X2783928Y-18541929D01*
X2783928Y-18470500D01*
X2798214Y-18413357D01*
X2812500Y-18384786D01*
X2826786Y-18370500D01*
X2855357Y-18356214D01*
X3083928Y-18656214D02*
X3083928Y-18456214D01*
X3083928Y-18484786D02*
X3098214Y-18470500D01*
X3126786Y-18456214D01*
X3169643Y-18456214D01*
X3198214Y-18470500D01*
X3212500Y-18499072D01*
X3212500Y-18656214D01*
X3212500Y-18499072D02*
X3226786Y-18470500D01*
X3255357Y-18456214D01*
X3298214Y-18456214D01*
X3326786Y-18470500D01*
X3341071Y-18499072D01*
X3341071Y-18656214D01*
X3483928Y-18656214D02*
X3483928Y-18456214D01*
X3483928Y-18484786D02*
X3498214Y-18470500D01*
X3526786Y-18456214D01*
X3569643Y-18456214D01*
X3598214Y-18470500D01*
X3612500Y-18499072D01*
X3612500Y-18656214D01*
X3612500Y-18499072D02*
X3626786Y-18470500D01*
X3655357Y-18456214D01*
X3698214Y-18456214D01*
X3726786Y-18470500D01*
X3741071Y-18499072D01*
X3741071Y-18656214D01*
X4326786Y-18341929D02*
X4069643Y-18727643D01*
X4712500Y-18356214D02*
X4741071Y-18356214D01*
X4769643Y-18370500D01*
X4783928Y-18384786D01*
X4798214Y-18413357D01*
X4812500Y-18470500D01*
X4812500Y-18541929D01*
X4798214Y-18599072D01*
X4783928Y-18627643D01*
X4769643Y-18641929D01*
X4741071Y-18656214D01*
X4712500Y-18656214D01*
X4683928Y-18641929D01*
X4669643Y-18627643D01*
X4655357Y-18599072D01*
X4641071Y-18541929D01*
X4641071Y-18470500D01*
X4655357Y-18413357D01*
X4669643Y-18384786D01*
X4683928Y-18370500D01*
X4712500Y-18356214D01*
X4941071Y-18627643D02*
X4955357Y-18641929D01*
X4941071Y-18656214D01*
X4926786Y-18641929D01*
X4941071Y-18627643D01*
X4941071Y-18656214D01*
X5241071Y-18656214D02*
X5069643Y-18656214D01*
X5155357Y-18656214D02*
X5155357Y-18356214D01*
X5126786Y-18399072D01*
X5098214Y-18427643D01*
X5069643Y-18441929D01*
X5526786Y-18656214D02*
X5355357Y-18656214D01*
X5441071Y-18656214D02*
X5441071Y-18356214D01*
X5412500Y-18399072D01*
X5383928Y-18427643D01*
X5355357Y-18441929D01*
X5698214Y-18484786D02*
X5669643Y-18470500D01*
X5655357Y-18456214D01*
X5641071Y-18427643D01*
X5641071Y-18413357D01*
X5655357Y-18384786D01*
X5669643Y-18370500D01*
X5698214Y-18356214D01*
X5755357Y-18356214D01*
X5783928Y-18370500D01*
X5798214Y-18384786D01*
X5812500Y-18413357D01*
X5812500Y-18427643D01*
X5798214Y-18456214D01*
X5783928Y-18470500D01*
X5755357Y-18484786D01*
X5698214Y-18484786D01*
X5669643Y-18499072D01*
X5655357Y-18513357D01*
X5641071Y-18541929D01*
X5641071Y-18599072D01*
X5655357Y-18627643D01*
X5669643Y-18641929D01*
X5698214Y-18656214D01*
X5755357Y-18656214D01*
X5783928Y-18641929D01*
X5798214Y-18627643D01*
X5812500Y-18599072D01*
X5812500Y-18541929D01*
X5798214Y-18513357D01*
X5783928Y-18499072D01*
X5755357Y-18484786D01*
X5926786Y-18356214D02*
X5926786Y-18413357D01*
X6041071Y-18356214D02*
X6041071Y-18413357D01*
X6483928Y-18770500D02*
X6469643Y-18756214D01*
X6441071Y-18713357D01*
X6426786Y-18684786D01*
X6412500Y-18641929D01*
X6398214Y-18570500D01*
X6398214Y-18513357D01*
X6412500Y-18441929D01*
X6426786Y-18399072D01*
X6441071Y-18370500D01*
X6469643Y-18327643D01*
X6483928Y-18313357D01*
X6569643Y-18356214D02*
X6769643Y-18356214D01*
X6641071Y-18656214D01*
X7112500Y-18656214D02*
X7112500Y-18356214D01*
X7241071Y-18656214D02*
X7241071Y-18499072D01*
X7226786Y-18470500D01*
X7198214Y-18456214D01*
X7155357Y-18456214D01*
X7126786Y-18470500D01*
X7112500Y-18484786D01*
X7426786Y-18656214D02*
X7398214Y-18641929D01*
X7383928Y-18627643D01*
X7369643Y-18599072D01*
X7369643Y-18513357D01*
X7383928Y-18484786D01*
X7398214Y-18470500D01*
X7426786Y-18456214D01*
X7469643Y-18456214D01*
X7498214Y-18470500D01*
X7512500Y-18484786D01*
X7526786Y-18513357D01*
X7526786Y-18599072D01*
X7512500Y-18627643D01*
X7498214Y-18641929D01*
X7469643Y-18656214D01*
X7426786Y-18656214D01*
X7698214Y-18656214D02*
X7669643Y-18641929D01*
X7655357Y-18613357D01*
X7655357Y-18356214D01*
X7926786Y-18641929D02*
X7898214Y-18656214D01*
X7841071Y-18656214D01*
X7812500Y-18641929D01*
X7798214Y-18613357D01*
X7798214Y-18499072D01*
X7812500Y-18470500D01*
X7841071Y-18456214D01*
X7898214Y-18456214D01*
X7926786Y-18470500D01*
X7941071Y-18499072D01*
X7941071Y-18527643D01*
X7798214Y-18556214D01*
X8055357Y-18641929D02*
X8083928Y-18656214D01*
X8141071Y-18656214D01*
X8169643Y-18641929D01*
X8183928Y-18613357D01*
X8183928Y-18599072D01*
X8169643Y-18570500D01*
X8141071Y-18556214D01*
X8098214Y-18556214D01*
X8069643Y-18541929D01*
X8055357Y-18513357D01*
X8055357Y-18499072D01*
X8069643Y-18470500D01*
X8098214Y-18456214D01*
X8141071Y-18456214D01*
X8169643Y-18470500D01*
X8283928Y-18770500D02*
X8298214Y-18756214D01*
X8326786Y-18713357D01*
X8341071Y-18684786D01*
X8355357Y-18641929D01*
X8369643Y-18570500D01*
X8369643Y-18513357D01*
X8355357Y-18441929D01*
X8341071Y-18399072D01*
X8326786Y-18370500D01*
X8298214Y-18327643D01*
X8283928Y-18313357D01*
X8826786Y-18770500D02*
X8812500Y-18756214D01*
X8783928Y-18713357D01*
X8769643Y-18684786D01*
X8755357Y-18641929D01*
X8741071Y-18570500D01*
X8741071Y-18513357D01*
X8755357Y-18441929D01*
X8769643Y-18399072D01*
X8783928Y-18370500D01*
X8812500Y-18327643D01*
X8826786Y-18313357D01*
X8941071Y-18456214D02*
X8941071Y-18656214D01*
X8941071Y-18484786D02*
X8955357Y-18470500D01*
X8983928Y-18456214D01*
X9026786Y-18456214D01*
X9055357Y-18470500D01*
X9069643Y-18499072D01*
X9069643Y-18656214D01*
X9255357Y-18656214D02*
X9226786Y-18641929D01*
X9212500Y-18627643D01*
X9198214Y-18599072D01*
X9198214Y-18513357D01*
X9212500Y-18484786D01*
X9226786Y-18470500D01*
X9255357Y-18456214D01*
X9298214Y-18456214D01*
X9326786Y-18470500D01*
X9341071Y-18484786D01*
X9355357Y-18513357D01*
X9355357Y-18599072D01*
X9341071Y-18627643D01*
X9326786Y-18641929D01*
X9298214Y-18656214D01*
X9255357Y-18656214D01*
X9441071Y-18456214D02*
X9555357Y-18456214D01*
X9483928Y-18356214D02*
X9483928Y-18613357D01*
X9498214Y-18641929D01*
X9526786Y-18656214D01*
X9555357Y-18656214D01*
X9883928Y-18456214D02*
X9883928Y-18756214D01*
X9883928Y-18470500D02*
X9912500Y-18456214D01*
X9969643Y-18456214D01*
X9998214Y-18470500D01*
X10012500Y-18484786D01*
X10026786Y-18513357D01*
X10026786Y-18599072D01*
X10012500Y-18627643D01*
X9998214Y-18641929D01*
X9969643Y-18656214D01*
X9912500Y-18656214D01*
X9883928Y-18641929D01*
X10198214Y-18656214D02*
X10169643Y-18641929D01*
X10155357Y-18613357D01*
X10155357Y-18356214D01*
X10441071Y-18656214D02*
X10441071Y-18499072D01*
X10426786Y-18470500D01*
X10398214Y-18456214D01*
X10341071Y-18456214D01*
X10312500Y-18470500D01*
X10441071Y-18641929D02*
X10412500Y-18656214D01*
X10341071Y-18656214D01*
X10312500Y-18641929D01*
X10298214Y-18613357D01*
X10298214Y-18584786D01*
X10312500Y-18556214D01*
X10341071Y-18541929D01*
X10412500Y-18541929D01*
X10441071Y-18527643D01*
X10541071Y-18456214D02*
X10655357Y-18456214D01*
X10583928Y-18356214D02*
X10583928Y-18613357D01*
X10598214Y-18641929D01*
X10626786Y-18656214D01*
X10655357Y-18656214D01*
X10869643Y-18641929D02*
X10841071Y-18656214D01*
X10783928Y-18656214D01*
X10755357Y-18641929D01*
X10741071Y-18613357D01*
X10741071Y-18499072D01*
X10755357Y-18470500D01*
X10783928Y-18456214D01*
X10841071Y-18456214D01*
X10869643Y-18470500D01*
X10883928Y-18499072D01*
X10883928Y-18527643D01*
X10741071Y-18556214D01*
X11141071Y-18656214D02*
X11141071Y-18356214D01*
X11141071Y-18641929D02*
X11112500Y-18656214D01*
X11055357Y-18656214D01*
X11026786Y-18641929D01*
X11012500Y-18627643D01*
X10998214Y-18599072D01*
X10998214Y-18513357D01*
X11012500Y-18484786D01*
X11026786Y-18470500D01*
X11055357Y-18456214D01*
X11112500Y-18456214D01*
X11141071Y-18470500D01*
X11255357Y-18770500D02*
X11269643Y-18756214D01*
X11298214Y-18713357D01*
X11312500Y-18684786D01*
X11326786Y-18641929D01*
X11341071Y-18570500D01*
X11341071Y-18513357D01*
X11326786Y-18441929D01*
X11312500Y-18399072D01*
X11298214Y-18370500D01*
X11269643Y-18327643D01*
X11255357Y-18313357D01*
X1477500Y-18790500D02*
X1797500Y-19110500D01*
X1797500Y-18790500D02*
X1477500Y-19110500D01*
X1797500Y-18950500D02*
G75*
G03X1797500Y-18950500I-160000J0D01*
G01*
X2055357Y-18786214D02*
X2241071Y-18786214D01*
X2141071Y-18900500D01*
X2183928Y-18900500D01*
X2212500Y-18914786D01*
X2226786Y-18929072D01*
X2241071Y-18957643D01*
X2241071Y-19029072D01*
X2226786Y-19057643D01*
X2212500Y-19071929D01*
X2183928Y-19086214D01*
X2098214Y-19086214D01*
X2069643Y-19071929D01*
X2055357Y-19057643D01*
X2369643Y-19057643D02*
X2383928Y-19071929D01*
X2369643Y-19086214D01*
X2355357Y-19071929D01*
X2369643Y-19057643D01*
X2369643Y-19086214D01*
X2498214Y-18814786D02*
X2512500Y-18800500D01*
X2541071Y-18786214D01*
X2612500Y-18786214D01*
X2641071Y-18800500D01*
X2655357Y-18814786D01*
X2669643Y-18843357D01*
X2669643Y-18871929D01*
X2655357Y-18914786D01*
X2483928Y-19086214D01*
X2669643Y-19086214D01*
X2855357Y-18786214D02*
X2883928Y-18786214D01*
X2912500Y-18800500D01*
X2926786Y-18814786D01*
X2941071Y-18843357D01*
X2955357Y-18900500D01*
X2955357Y-18971929D01*
X2941071Y-19029072D01*
X2926786Y-19057643D01*
X2912500Y-19071929D01*
X2883928Y-19086214D01*
X2855357Y-19086214D01*
X2826786Y-19071929D01*
X2812500Y-19057643D01*
X2798214Y-19029072D01*
X2783928Y-18971929D01*
X2783928Y-18900500D01*
X2798214Y-18843357D01*
X2812500Y-18814786D01*
X2826786Y-18800500D01*
X2855357Y-18786214D01*
X3083928Y-19086214D02*
X3083928Y-18886214D01*
X3083928Y-18914786D02*
X3098214Y-18900500D01*
X3126786Y-18886214D01*
X3169643Y-18886214D01*
X3198214Y-18900500D01*
X3212500Y-18929072D01*
X3212500Y-19086214D01*
X3212500Y-18929072D02*
X3226786Y-18900500D01*
X3255357Y-18886214D01*
X3298214Y-18886214D01*
X3326786Y-18900500D01*
X3341071Y-18929072D01*
X3341071Y-19086214D01*
X3483928Y-19086214D02*
X3483928Y-18886214D01*
X3483928Y-18914786D02*
X3498214Y-18900500D01*
X3526786Y-18886214D01*
X3569643Y-18886214D01*
X3598214Y-18900500D01*
X3612500Y-18929072D01*
X3612500Y-19086214D01*
X3612500Y-18929072D02*
X3626786Y-18900500D01*
X3655357Y-18886214D01*
X3698214Y-18886214D01*
X3726786Y-18900500D01*
X3741071Y-18929072D01*
X3741071Y-19086214D01*
X4326786Y-18771929D02*
X4069643Y-19157643D01*
X4712500Y-18786214D02*
X4741071Y-18786214D01*
X4769643Y-18800500D01*
X4783928Y-18814786D01*
X4798214Y-18843357D01*
X4812500Y-18900500D01*
X4812500Y-18971929D01*
X4798214Y-19029072D01*
X4783928Y-19057643D01*
X4769643Y-19071929D01*
X4741071Y-19086214D01*
X4712500Y-19086214D01*
X4683928Y-19071929D01*
X4669643Y-19057643D01*
X4655357Y-19029072D01*
X4641071Y-18971929D01*
X4641071Y-18900500D01*
X4655357Y-18843357D01*
X4669643Y-18814786D01*
X4683928Y-18800500D01*
X4712500Y-18786214D01*
X4941071Y-19057643D02*
X4955357Y-19071929D01*
X4941071Y-19086214D01*
X4926786Y-19071929D01*
X4941071Y-19057643D01*
X4941071Y-19086214D01*
X5241071Y-19086214D02*
X5069643Y-19086214D01*
X5155357Y-19086214D02*
X5155357Y-18786214D01*
X5126786Y-18829072D01*
X5098214Y-18857643D01*
X5069643Y-18871929D01*
X5355357Y-18814786D02*
X5369643Y-18800500D01*
X5398214Y-18786214D01*
X5469643Y-18786214D01*
X5498214Y-18800500D01*
X5512500Y-18814786D01*
X5526786Y-18843357D01*
X5526786Y-18871929D01*
X5512500Y-18914786D01*
X5341071Y-19086214D01*
X5526786Y-19086214D01*
X5783928Y-18786214D02*
X5726786Y-18786214D01*
X5698214Y-18800500D01*
X5683928Y-18814786D01*
X5655357Y-18857643D01*
X5641071Y-18914786D01*
X5641071Y-19029072D01*
X5655357Y-19057643D01*
X5669643Y-19071929D01*
X5698214Y-19086214D01*
X5755357Y-19086214D01*
X5783928Y-19071929D01*
X5798214Y-19057643D01*
X5812500Y-19029072D01*
X5812500Y-18957643D01*
X5798214Y-18929072D01*
X5783928Y-18914786D01*
X5755357Y-18900500D01*
X5698214Y-18900500D01*
X5669643Y-18914786D01*
X5655357Y-18929072D01*
X5641071Y-18957643D01*
X5926786Y-18786214D02*
X5926786Y-18843357D01*
X6041071Y-18786214D02*
X6041071Y-18843357D01*
X6483928Y-19200500D02*
X6469643Y-19186214D01*
X6441071Y-19143357D01*
X6426786Y-19114786D01*
X6412500Y-19071929D01*
X6398214Y-19000500D01*
X6398214Y-18943357D01*
X6412500Y-18871929D01*
X6426786Y-18829072D01*
X6441071Y-18800500D01*
X6469643Y-18757643D01*
X6483928Y-18743357D01*
X6726786Y-18786214D02*
X6669643Y-18786214D01*
X6641071Y-18800500D01*
X6626786Y-18814786D01*
X6598214Y-18857643D01*
X6583928Y-18914786D01*
X6583928Y-19029072D01*
X6598214Y-19057643D01*
X6612500Y-19071929D01*
X6641071Y-19086214D01*
X6698214Y-19086214D01*
X6726786Y-19071929D01*
X6741071Y-19057643D01*
X6755357Y-19029072D01*
X6755357Y-18957643D01*
X6741071Y-18929072D01*
X6726786Y-18914786D01*
X6698214Y-18900500D01*
X6641071Y-18900500D01*
X6612500Y-18914786D01*
X6598214Y-18929072D01*
X6583928Y-18957643D01*
X7112500Y-19086214D02*
X7112500Y-18786214D01*
X7241071Y-19086214D02*
X7241071Y-18929072D01*
X7226786Y-18900500D01*
X7198214Y-18886214D01*
X7155357Y-18886214D01*
X7126786Y-18900500D01*
X7112500Y-18914786D01*
X7426786Y-19086214D02*
X7398214Y-19071929D01*
X7383928Y-19057643D01*
X7369643Y-19029072D01*
X7369643Y-18943357D01*
X7383928Y-18914786D01*
X7398214Y-18900500D01*
X7426786Y-18886214D01*
X7469643Y-18886214D01*
X7498214Y-18900500D01*
X7512500Y-18914786D01*
X7526786Y-18943357D01*
X7526786Y-19029072D01*
X7512500Y-19057643D01*
X7498214Y-19071929D01*
X7469643Y-19086214D01*
X7426786Y-19086214D01*
X7698214Y-19086214D02*
X7669643Y-19071929D01*
X7655357Y-19043357D01*
X7655357Y-18786214D01*
X7926786Y-19071929D02*
X7898214Y-19086214D01*
X7841071Y-19086214D01*
X7812500Y-19071929D01*
X7798214Y-19043357D01*
X7798214Y-18929072D01*
X7812500Y-18900500D01*
X7841071Y-18886214D01*
X7898214Y-18886214D01*
X7926786Y-18900500D01*
X7941071Y-18929072D01*
X7941071Y-18957643D01*
X7798214Y-18986214D01*
X8055357Y-19071929D02*
X8083928Y-19086214D01*
X8141071Y-19086214D01*
X8169643Y-19071929D01*
X8183928Y-19043357D01*
X8183928Y-19029072D01*
X8169643Y-19000500D01*
X8141071Y-18986214D01*
X8098214Y-18986214D01*
X8069643Y-18971929D01*
X8055357Y-18943357D01*
X8055357Y-18929072D01*
X8069643Y-18900500D01*
X8098214Y-18886214D01*
X8141071Y-18886214D01*
X8169643Y-18900500D01*
X8283928Y-19200500D02*
X8298214Y-19186214D01*
X8326786Y-19143357D01*
X8341071Y-19114786D01*
X8355357Y-19071929D01*
X8369643Y-19000500D01*
X8369643Y-18943357D01*
X8355357Y-18871929D01*
X8341071Y-18829072D01*
X8326786Y-18800500D01*
X8298214Y-18757643D01*
X8283928Y-18743357D01*
X8826786Y-19200500D02*
X8812500Y-19186214D01*
X8783928Y-19143357D01*
X8769643Y-19114786D01*
X8755357Y-19071929D01*
X8741071Y-19000500D01*
X8741071Y-18943357D01*
X8755357Y-18871929D01*
X8769643Y-18829072D01*
X8783928Y-18800500D01*
X8812500Y-18757643D01*
X8826786Y-18743357D01*
X8941071Y-18886214D02*
X8941071Y-19086214D01*
X8941071Y-18914786D02*
X8955357Y-18900500D01*
X8983928Y-18886214D01*
X9026786Y-18886214D01*
X9055357Y-18900500D01*
X9069643Y-18929072D01*
X9069643Y-19086214D01*
X9255357Y-19086214D02*
X9226786Y-19071929D01*
X9212500Y-19057643D01*
X9198214Y-19029072D01*
X9198214Y-18943357D01*
X9212500Y-18914786D01*
X9226786Y-18900500D01*
X9255357Y-18886214D01*
X9298214Y-18886214D01*
X9326786Y-18900500D01*
X9341071Y-18914786D01*
X9355357Y-18943357D01*
X9355357Y-19029072D01*
X9341071Y-19057643D01*
X9326786Y-19071929D01*
X9298214Y-19086214D01*
X9255357Y-19086214D01*
X9441071Y-18886214D02*
X9555357Y-18886214D01*
X9483928Y-18786214D02*
X9483928Y-19043357D01*
X9498214Y-19071929D01*
X9526786Y-19086214D01*
X9555357Y-19086214D01*
X9883928Y-18886214D02*
X9883928Y-19186214D01*
X9883928Y-18900500D02*
X9912500Y-18886214D01*
X9969643Y-18886214D01*
X9998214Y-18900500D01*
X10012500Y-18914786D01*
X10026786Y-18943357D01*
X10026786Y-19029072D01*
X10012500Y-19057643D01*
X9998214Y-19071929D01*
X9969643Y-19086214D01*
X9912500Y-19086214D01*
X9883928Y-19071929D01*
X10198214Y-19086214D02*
X10169643Y-19071929D01*
X10155357Y-19043357D01*
X10155357Y-18786214D01*
X10441071Y-19086214D02*
X10441071Y-18929072D01*
X10426786Y-18900500D01*
X10398214Y-18886214D01*
X10341071Y-18886214D01*
X10312500Y-18900500D01*
X10441071Y-19071929D02*
X10412500Y-19086214D01*
X10341071Y-19086214D01*
X10312500Y-19071929D01*
X10298214Y-19043357D01*
X10298214Y-19014786D01*
X10312500Y-18986214D01*
X10341071Y-18971929D01*
X10412500Y-18971929D01*
X10441071Y-18957643D01*
X10541071Y-18886214D02*
X10655357Y-18886214D01*
X10583928Y-18786214D02*
X10583928Y-19043357D01*
X10598214Y-19071929D01*
X10626786Y-19086214D01*
X10655357Y-19086214D01*
X10869643Y-19071929D02*
X10841071Y-19086214D01*
X10783928Y-19086214D01*
X10755357Y-19071929D01*
X10741071Y-19043357D01*
X10741071Y-18929072D01*
X10755357Y-18900500D01*
X10783928Y-18886214D01*
X10841071Y-18886214D01*
X10869643Y-18900500D01*
X10883928Y-18929072D01*
X10883928Y-18957643D01*
X10741071Y-18986214D01*
X11141071Y-19086214D02*
X11141071Y-18786214D01*
X11141071Y-19071929D02*
X11112500Y-19086214D01*
X11055357Y-19086214D01*
X11026786Y-19071929D01*
X11012500Y-19057643D01*
X10998214Y-19029072D01*
X10998214Y-18943357D01*
X11012500Y-18914786D01*
X11026786Y-18900500D01*
X11055357Y-18886214D01*
X11112500Y-18886214D01*
X11141071Y-18900500D01*
X11255357Y-19200500D02*
X11269643Y-19186214D01*
X11298214Y-19143357D01*
X11312500Y-19114786D01*
X11326786Y-19071929D01*
X11341071Y-19000500D01*
X11341071Y-18943357D01*
X11326786Y-18871929D01*
X11312500Y-18829072D01*
X11298214Y-18800500D01*
X11269643Y-18757643D01*
X11255357Y-18743357D01*
M02*
