G04 #@! TF.GenerationSoftware,KiCad,Pcbnew,(5.1.4)-1*
G04 #@! TF.CreationDate,2019-10-29T10:24:40+09:00*
G04 #@! TF.ProjectId,Buck_boost,4275636b-5f62-46f6-9f73-742e6b696361,rev?*
G04 #@! TF.SameCoordinates,Original*
G04 #@! TF.FileFunction,Copper,L2,Bot*
G04 #@! TF.FilePolarity,Positive*
%FSLAX46Y46*%
G04 Gerber Fmt 4.6, Leading zero omitted, Abs format (unit mm)*
G04 Created by KiCad (PCBNEW (5.1.4)-1) date 2019-10-29 10:24:40*
%MOMM*%
%LPD*%
G04 APERTURE LIST*
%ADD10C,1.200000*%
%ADD11C,3.000000*%
%ADD12C,0.800000*%
%ADD13C,0.300000*%
%ADD14C,0.254000*%
G04 APERTURE END LIST*
D10*
X175300000Y-105200000D03*
X174700000Y-104200000D03*
X175300000Y-103200000D03*
X174700000Y-102200000D03*
X175300000Y-101200000D03*
X174100000Y-101200000D03*
X173500000Y-102200000D03*
X174100000Y-103200000D03*
X174100000Y-105200000D03*
X172900000Y-105200000D03*
X171700000Y-105200000D03*
X170500000Y-105200000D03*
X169900000Y-104200000D03*
X172900000Y-101200000D03*
X171100000Y-104200000D03*
X169900000Y-102200000D03*
X170500000Y-103200000D03*
X173500000Y-104200000D03*
X172300000Y-104200000D03*
X172900000Y-103200000D03*
X171700000Y-103200000D03*
X172300000Y-102200000D03*
X171100000Y-102200000D03*
X171700000Y-101200000D03*
X170500000Y-101200000D03*
X174700000Y-100200000D03*
X173500000Y-100200000D03*
X172300000Y-100200000D03*
X171100000Y-100200000D03*
D11*
X204900000Y-114200000D03*
X208000000Y-114200000D03*
X208000000Y-111100000D03*
X204900000Y-111100000D03*
D12*
X203900000Y-107500000D03*
X204700000Y-107500000D03*
X205500000Y-107500000D03*
X206300000Y-107500000D03*
X207100000Y-107500000D03*
X207900000Y-107500000D03*
X208700000Y-107500000D03*
X204300000Y-108200000D03*
X205100000Y-108200000D03*
X205900000Y-108200000D03*
X206700000Y-108200000D03*
X207500000Y-108200000D03*
X208300000Y-108200000D03*
X209100000Y-108200000D03*
X208700000Y-108900000D03*
X207900000Y-108900000D03*
X207100000Y-108900000D03*
X206300000Y-108900000D03*
X205500000Y-108900000D03*
X204700000Y-108900000D03*
X203900000Y-108900000D03*
D10*
X169900000Y-100200000D03*
X175900000Y-100200000D03*
X176500000Y-101200000D03*
X175900000Y-102200000D03*
X175900000Y-104200000D03*
X176500000Y-103200000D03*
X176500000Y-105200000D03*
D12*
X140100000Y-119500000D03*
X140900000Y-119500000D03*
X137700000Y-120300000D03*
X138500000Y-120300000D03*
X139300000Y-120300000D03*
X140100000Y-120300000D03*
X140900000Y-120300000D03*
X137700000Y-121100000D03*
X138500000Y-121100000D03*
X139300000Y-121100000D03*
X140100000Y-121100000D03*
X140900000Y-121100000D03*
X137700000Y-121900000D03*
X138500000Y-121900000D03*
X139300000Y-121900000D03*
X140100000Y-121900000D03*
X140900000Y-121900000D03*
X141700000Y-120300000D03*
X141700000Y-121900000D03*
X141700000Y-121100000D03*
X141700000Y-119500000D03*
X137000000Y-120700000D03*
X137000000Y-119900000D03*
X137000000Y-121500000D03*
X136200000Y-121500000D03*
X136200000Y-119900000D03*
X136200000Y-120700000D03*
X142500000Y-120300000D03*
X142500000Y-121100000D03*
X134400000Y-110200000D03*
X134400000Y-111000000D03*
X134400000Y-111800000D03*
X134400000Y-112600000D03*
X133600000Y-110600000D03*
X133600000Y-111400000D03*
X133600000Y-112200000D03*
X135100000Y-109600000D03*
X135900000Y-109600000D03*
X136700000Y-109600000D03*
X136300000Y-108800000D03*
X135500000Y-108800000D03*
X133400000Y-113400000D03*
X133400000Y-114200000D03*
X133400000Y-115000000D03*
X132600000Y-114600000D03*
X132600000Y-113800000D03*
X135000000Y-113100000D03*
X135800000Y-112900000D03*
X136600000Y-112900000D03*
X138300000Y-131400000D03*
X138300000Y-130600000D03*
X138300000Y-129800000D03*
X138300000Y-129000000D03*
X139100000Y-129000000D03*
X139900000Y-129000000D03*
X140600000Y-129400000D03*
X141400000Y-129500000D03*
X142200000Y-129500000D03*
X143000000Y-129500000D03*
X139100000Y-129800000D03*
X139100000Y-130600000D03*
X139900000Y-128200000D03*
X143500000Y-128900000D03*
X143500000Y-128100000D03*
X143500000Y-127300000D03*
X144300000Y-127700000D03*
X144300000Y-128500000D03*
X142600000Y-130300000D03*
X141800000Y-130300000D03*
X141000000Y-130300000D03*
X151200000Y-111200000D03*
X152000000Y-111200000D03*
X152800000Y-111200000D03*
X153600000Y-111200000D03*
X154400000Y-111200000D03*
X154400000Y-112000000D03*
X154400000Y-112800000D03*
X154400000Y-113600000D03*
X153700000Y-114000000D03*
X152900000Y-114000000D03*
X152100000Y-114000000D03*
X151300000Y-114000000D03*
X150500000Y-114000000D03*
X150300000Y-113200000D03*
X150300000Y-112400000D03*
X149600000Y-112800000D03*
X149600000Y-113600000D03*
X149700000Y-114500000D03*
X150900000Y-114700000D03*
X151700000Y-114700000D03*
X152500000Y-114700000D03*
X153300000Y-114700000D03*
X155100000Y-112400000D03*
X155100000Y-111600000D03*
X154000000Y-110500000D03*
X153200000Y-110500000D03*
X152400000Y-110500000D03*
X152800000Y-109800000D03*
X153600000Y-109800000D03*
X154400000Y-109800000D03*
X154800000Y-110500000D03*
X151300000Y-115400000D03*
X152100000Y-115400000D03*
X150500000Y-115400000D03*
X160400000Y-121200000D03*
X160400000Y-120400000D03*
X160400000Y-119600000D03*
X159600000Y-119600000D03*
X158800000Y-119600000D03*
X158000000Y-119600000D03*
X157200000Y-119600000D03*
X156400000Y-119600000D03*
X156400000Y-120400000D03*
X156400000Y-121200000D03*
X155700000Y-120800000D03*
X155700000Y-120000000D03*
X155700000Y-119200000D03*
X156800000Y-118900000D03*
X157600000Y-118900000D03*
X158400000Y-118900000D03*
X159200000Y-118900000D03*
X160000000Y-118900000D03*
X161100000Y-120000000D03*
X161100000Y-120800000D03*
X161100000Y-119200000D03*
X155000000Y-119600000D03*
X155000000Y-120400000D03*
X155000000Y-121200000D03*
X154300000Y-120800000D03*
X154300000Y-120000000D03*
X157200000Y-118200000D03*
X156400000Y-118200000D03*
X158000000Y-118200000D03*
X158800000Y-118200000D03*
X159600000Y-118200000D03*
X160400000Y-118200000D03*
X150000000Y-127400000D03*
X150000000Y-128400000D03*
X150000000Y-129400000D03*
X150000000Y-130400000D03*
X150000000Y-131400000D03*
X150000000Y-132400000D03*
X150000000Y-133400000D03*
X150000000Y-134400000D03*
X150000000Y-135400000D03*
X150000000Y-136400000D03*
X149200000Y-136900000D03*
X149200000Y-135900000D03*
X149200000Y-134900000D03*
X149200000Y-133900000D03*
X149200000Y-132900000D03*
X149200000Y-131900000D03*
X149200000Y-130900000D03*
X149200000Y-129900000D03*
X149200000Y-128900000D03*
X149200000Y-127900000D03*
X163000000Y-140300000D03*
X163000000Y-141300000D03*
X163000000Y-142300000D03*
X163000000Y-143300000D03*
X163000000Y-144300000D03*
X159000000Y-140300000D03*
X159000000Y-141300000D03*
X159000000Y-142300000D03*
X159000000Y-143300000D03*
X159000000Y-144300000D03*
X158200000Y-143800000D03*
X158200000Y-142800000D03*
X158200000Y-141800000D03*
X158200000Y-140800000D03*
X158200000Y-139800000D03*
X163800000Y-139800000D03*
X163800000Y-140800000D03*
X163800000Y-141800000D03*
X163800000Y-142800000D03*
X163800000Y-143800000D03*
X179700000Y-144300000D03*
X178900000Y-140800000D03*
X179700000Y-139300000D03*
X184500000Y-142800000D03*
X183700000Y-142300000D03*
X183700000Y-141300000D03*
X183700000Y-140300000D03*
X183700000Y-139300000D03*
X178900000Y-141800000D03*
X179700000Y-140300000D03*
X184500000Y-139800000D03*
X184500000Y-140800000D03*
X179700000Y-143300000D03*
X178900000Y-143800000D03*
X179700000Y-141300000D03*
X179700000Y-142300000D03*
X178900000Y-142800000D03*
X183700000Y-143300000D03*
X183700000Y-144300000D03*
X184500000Y-141800000D03*
X184500000Y-143800000D03*
X178900000Y-139800000D03*
X190700000Y-139300000D03*
X195500000Y-142800000D03*
X189900000Y-140800000D03*
X194700000Y-141300000D03*
X194700000Y-140300000D03*
X190700000Y-140300000D03*
X195500000Y-139800000D03*
X189900000Y-143800000D03*
X190700000Y-141300000D03*
X195500000Y-140800000D03*
X190700000Y-143300000D03*
X190700000Y-144300000D03*
X194700000Y-139300000D03*
X189900000Y-141800000D03*
X194700000Y-142300000D03*
X195500000Y-141800000D03*
X195500000Y-143800000D03*
X189900000Y-139800000D03*
X194700000Y-143300000D03*
X194700000Y-144300000D03*
X190700000Y-142300000D03*
X189900000Y-142800000D03*
X209100000Y-145300000D03*
X209100000Y-144300000D03*
X209100000Y-143300000D03*
X208100000Y-145300000D03*
X207100000Y-145300000D03*
X206100000Y-145300000D03*
X209100000Y-142300000D03*
X208100000Y-144300000D03*
X130900000Y-145200000D03*
X130900000Y-144200000D03*
X131900000Y-145200000D03*
X132900000Y-145200000D03*
X133900000Y-145200000D03*
X130900000Y-143200000D03*
X130900000Y-142200000D03*
X131900000Y-144200000D03*
X130900000Y-94800000D03*
X131900000Y-94800000D03*
X132900000Y-94800000D03*
X133900000Y-94800000D03*
X130900000Y-95800000D03*
X130900000Y-96800000D03*
X130900000Y-97800000D03*
X131900000Y-95800000D03*
D11*
X208000000Y-118200000D03*
X208000000Y-121300000D03*
X204900000Y-121300000D03*
X204900000Y-118200000D03*
X204800000Y-128700000D03*
X207900000Y-125600000D03*
X207900000Y-128700000D03*
X204800000Y-125600000D03*
D12*
X209200000Y-94800000D03*
X209200000Y-95700000D03*
X209200000Y-96600000D03*
X209200000Y-97500000D03*
X208300000Y-94800000D03*
X207400000Y-94800000D03*
X206500000Y-94800000D03*
X208300000Y-95700000D03*
D10*
X162000000Y-128700000D03*
X160800000Y-128700000D03*
X159600000Y-128700000D03*
X158400000Y-128700000D03*
X157200000Y-128700000D03*
X157800000Y-127700000D03*
X159000000Y-127700000D03*
X160200000Y-127700000D03*
X162600000Y-127700000D03*
X161400000Y-127700000D03*
X162000000Y-126700000D03*
X162600000Y-125700000D03*
X160800000Y-126700000D03*
X159600000Y-126700000D03*
X161400000Y-125700000D03*
X162000000Y-124700000D03*
X160800000Y-124700000D03*
X160200000Y-125700000D03*
X159000000Y-125700000D03*
X158400000Y-126700000D03*
X157200000Y-126700000D03*
X157800000Y-125700000D03*
X159600000Y-124700000D03*
X158400000Y-124700000D03*
X157200000Y-124700000D03*
X157800000Y-123700000D03*
X159000000Y-123700000D03*
X160200000Y-123700000D03*
X161400000Y-123700000D03*
X162600000Y-123700000D03*
D12*
X131900000Y-122700000D03*
X170775000Y-134600000D03*
D10*
X156600000Y-123700000D03*
X156600000Y-125700000D03*
X156600000Y-127700000D03*
X156000000Y-124700000D03*
X156000000Y-126700000D03*
X156000000Y-128700000D03*
X156900000Y-111800000D03*
X157500000Y-112800000D03*
X158100000Y-111800000D03*
X159900000Y-110800000D03*
X158700000Y-110800000D03*
X159300000Y-109800000D03*
X159300000Y-111800000D03*
X158700000Y-112800000D03*
X159900000Y-112800000D03*
X160500000Y-111800000D03*
X161100000Y-112800000D03*
X162300000Y-112800000D03*
X161700000Y-111800000D03*
X157500000Y-110800000D03*
X161100000Y-110800000D03*
X162300000Y-110800000D03*
X161700000Y-109800000D03*
X160500000Y-109800000D03*
X156900000Y-109800000D03*
X158100000Y-109800000D03*
X162300000Y-108800000D03*
X161100000Y-108800000D03*
X159900000Y-108800000D03*
X158700000Y-108800000D03*
X157500000Y-108800000D03*
X161700000Y-107800000D03*
X160500000Y-107800000D03*
X159300000Y-107800000D03*
X158100000Y-107800000D03*
X156900000Y-107800000D03*
D12*
X142971232Y-113071232D03*
X167975000Y-108800000D03*
D10*
X162900000Y-107800000D03*
X163500000Y-108800000D03*
X162900000Y-109800000D03*
X163500000Y-110800000D03*
X162900000Y-111800000D03*
X163500000Y-112800000D03*
X168200000Y-121000000D03*
X167600000Y-120000000D03*
X167000000Y-121000000D03*
X166400000Y-120000000D03*
X165800000Y-121000000D03*
X165200000Y-120000000D03*
X164600000Y-121000000D03*
X163400000Y-121000000D03*
X164000000Y-120000000D03*
X162800000Y-120000000D03*
X168200000Y-119000000D03*
X167000000Y-119000000D03*
X165800000Y-119000000D03*
X164600000Y-119000000D03*
X163400000Y-119000000D03*
X162800000Y-118000000D03*
X164000000Y-118000000D03*
X165200000Y-118000000D03*
X166400000Y-118000000D03*
X167600000Y-118000000D03*
X168200000Y-117000000D03*
X167000000Y-117000000D03*
X165800000Y-117000000D03*
X164600000Y-117000000D03*
X163400000Y-117000000D03*
X167600000Y-116000000D03*
X166400000Y-116000000D03*
X165200000Y-116000000D03*
X164000000Y-116000000D03*
X162800000Y-116000000D03*
X168800000Y-116000000D03*
X169400000Y-117000000D03*
X168800000Y-118000000D03*
X169400000Y-119000000D03*
X168800000Y-120000000D03*
X169400000Y-121000000D03*
D12*
X202100000Y-134900000D03*
X202800000Y-132100000D03*
X202100000Y-135700000D03*
X201400000Y-135300000D03*
X202100000Y-131700000D03*
X201400000Y-133700000D03*
X202800000Y-133700000D03*
X201400000Y-132900000D03*
X202100000Y-132500000D03*
X202100000Y-134100000D03*
X201400000Y-132100000D03*
X202100000Y-133300000D03*
X201400000Y-136100000D03*
X202100000Y-136500000D03*
X202800000Y-136900000D03*
X201400000Y-136900000D03*
X202800000Y-136100000D03*
X201400000Y-134500000D03*
X202800000Y-135300000D03*
X202800000Y-134500000D03*
X202800000Y-132900000D03*
X131149990Y-124309210D03*
X171825000Y-134600000D03*
D11*
X208000000Y-135900000D03*
X208000000Y-132800000D03*
X204900000Y-132800000D03*
X204900000Y-135900000D03*
D12*
X142228768Y-112328768D03*
X169025000Y-108800000D03*
D13*
X171075000Y-134900000D02*
X170775000Y-134600000D01*
X171075000Y-136015900D02*
X171075000Y-134900000D01*
X131900000Y-124700000D02*
X131700000Y-124900000D01*
X131900000Y-122700000D02*
X131900000Y-124700000D01*
X131700000Y-124900000D02*
X131700000Y-127881800D01*
X141893200Y-138075000D02*
X169015900Y-138075000D01*
X131700000Y-127881800D02*
X141893200Y-138075000D01*
X169015900Y-138075000D02*
X171075000Y-136015900D01*
X168275000Y-108500000D02*
X167975000Y-108800000D01*
X168275000Y-107875000D02*
X168275000Y-108500000D01*
X166500000Y-106100000D02*
X168275000Y-107875000D01*
X142971232Y-113071232D02*
X142971232Y-112646967D01*
X149518199Y-106100000D02*
X166500000Y-106100000D01*
X142971232Y-112646967D02*
X149518199Y-106100000D01*
X131149990Y-128038912D02*
X131149990Y-124309210D01*
X141686089Y-138575011D02*
X131149990Y-128038912D01*
X169223012Y-138575010D02*
X141686089Y-138575011D01*
X171600000Y-136198022D02*
X169223012Y-138575010D01*
X171825000Y-134600000D02*
X171600000Y-134825000D01*
X171600000Y-134825000D02*
X171600000Y-136198022D01*
X168800000Y-108575000D02*
X169025000Y-108800000D01*
X168800000Y-107692878D02*
X168800000Y-108575000D01*
X166707122Y-105600000D02*
X168800000Y-107692878D01*
X142228768Y-112328768D02*
X142571232Y-112328768D01*
X149300000Y-105600000D02*
X166707122Y-105600000D01*
X142571232Y-112328768D02*
X149300000Y-105600000D01*
D14*
G36*
X209594001Y-106557060D02*
G01*
X209562285Y-106540108D01*
X209493280Y-106511525D01*
X209305687Y-106454620D01*
X209232435Y-106440050D01*
X209037345Y-106420835D01*
X209000000Y-106419000D01*
X204000000Y-106419000D01*
X203962655Y-106420835D01*
X203767565Y-106440050D01*
X203694313Y-106454620D01*
X203506720Y-106511525D01*
X203437715Y-106540108D01*
X203264828Y-106632518D01*
X203202726Y-106674013D01*
X203051189Y-106798376D01*
X202998376Y-106851189D01*
X202874013Y-107002726D01*
X202832518Y-107064828D01*
X202740108Y-107237715D01*
X202711525Y-107306720D01*
X202654620Y-107494313D01*
X202640050Y-107567565D01*
X202620835Y-107762655D01*
X202619000Y-107800000D01*
X202619000Y-115000000D01*
X202620835Y-115037345D01*
X202640050Y-115232435D01*
X202654620Y-115305687D01*
X202711525Y-115493280D01*
X202740108Y-115562285D01*
X202832518Y-115735172D01*
X202874013Y-115797274D01*
X202998376Y-115948811D01*
X203051189Y-116001624D01*
X203202726Y-116125987D01*
X203264828Y-116167482D01*
X203437715Y-116259892D01*
X203506720Y-116288475D01*
X203694313Y-116345380D01*
X203767565Y-116359950D01*
X203962655Y-116379165D01*
X204000000Y-116381000D01*
X209000000Y-116381000D01*
X209037345Y-116379165D01*
X209232435Y-116359950D01*
X209305687Y-116345380D01*
X209493280Y-116288475D01*
X209562285Y-116259892D01*
X209594001Y-116242940D01*
X209594000Y-130657060D01*
X209562285Y-130640108D01*
X209493280Y-130611525D01*
X209305687Y-130554620D01*
X209232435Y-130540050D01*
X209037345Y-130520835D01*
X209000000Y-130519000D01*
X201500000Y-130519000D01*
X201462655Y-130520835D01*
X201267565Y-130540050D01*
X201194313Y-130554620D01*
X201006720Y-130611525D01*
X200937715Y-130640108D01*
X200764828Y-130732518D01*
X200702726Y-130774013D01*
X200551189Y-130898376D01*
X200498376Y-130951189D01*
X200374013Y-131102726D01*
X200332518Y-131164828D01*
X200240108Y-131337715D01*
X200211525Y-131406720D01*
X200154620Y-131594313D01*
X200140050Y-131667565D01*
X200120835Y-131862655D01*
X200119000Y-131900000D01*
X200119000Y-136700000D01*
X200120835Y-136737345D01*
X200140050Y-136932435D01*
X200154620Y-137005687D01*
X200211525Y-137193280D01*
X200240108Y-137262285D01*
X200332518Y-137435172D01*
X200374013Y-137497274D01*
X200498376Y-137648811D01*
X200551189Y-137701624D01*
X200702726Y-137825987D01*
X200764828Y-137867482D01*
X200937715Y-137959892D01*
X201006720Y-137988475D01*
X201194313Y-138045380D01*
X201267565Y-138059950D01*
X201462655Y-138079165D01*
X201500000Y-138081000D01*
X209000000Y-138081000D01*
X209037345Y-138079165D01*
X209232435Y-138059950D01*
X209305687Y-138045380D01*
X209493280Y-137988475D01*
X209562285Y-137959892D01*
X209594000Y-137942940D01*
X209594000Y-145594000D01*
X130406000Y-145594000D01*
X130406000Y-142529511D01*
X131769000Y-142529511D01*
X131769000Y-142870489D01*
X131835521Y-143204914D01*
X131966007Y-143519936D01*
X132155444Y-143803448D01*
X132396552Y-144044556D01*
X132680064Y-144233993D01*
X132995086Y-144364479D01*
X133329511Y-144431000D01*
X133670489Y-144431000D01*
X134004914Y-144364479D01*
X134319936Y-144233993D01*
X134603448Y-144044556D01*
X134844556Y-143803448D01*
X135033993Y-143519936D01*
X135164479Y-143204914D01*
X135231000Y-142870489D01*
X135231000Y-142529511D01*
X135164479Y-142195086D01*
X135033993Y-141880064D01*
X134844556Y-141596552D01*
X134603448Y-141355444D01*
X134319936Y-141166007D01*
X134004914Y-141035521D01*
X133670489Y-140969000D01*
X133329511Y-140969000D01*
X132995086Y-141035521D01*
X132680064Y-141166007D01*
X132396552Y-141355444D01*
X132155444Y-141596552D01*
X131966007Y-141880064D01*
X131835521Y-142195086D01*
X131769000Y-142529511D01*
X130406000Y-142529511D01*
X130406000Y-124553911D01*
X130457877Y-124679152D01*
X130543348Y-124807069D01*
X130618991Y-124882712D01*
X130618990Y-128012838D01*
X130616422Y-128038912D01*
X130618990Y-128064986D01*
X130618990Y-128064995D01*
X130626673Y-128143005D01*
X130657037Y-128243099D01*
X130706344Y-128335347D01*
X130772700Y-128416202D01*
X130792965Y-128432833D01*
X141292178Y-138932047D01*
X141308800Y-138952301D01*
X141329054Y-138968923D01*
X141329059Y-138968928D01*
X141389653Y-139018657D01*
X141481901Y-139067964D01*
X141512265Y-139077175D01*
X141581996Y-139098328D01*
X141660006Y-139106011D01*
X141660014Y-139106011D01*
X141686088Y-139108579D01*
X141712162Y-139106011D01*
X169196928Y-139106009D01*
X169223012Y-139108578D01*
X169260465Y-139104889D01*
X169327106Y-139098326D01*
X169357469Y-139089115D01*
X169427199Y-139067963D01*
X169519447Y-139018656D01*
X169580041Y-138968927D01*
X169580042Y-138968926D01*
X169600302Y-138952299D01*
X169616929Y-138932039D01*
X171957036Y-136591934D01*
X171977290Y-136575312D01*
X171993912Y-136555058D01*
X171993918Y-136555052D01*
X172043646Y-136494458D01*
X172092953Y-136402210D01*
X172101835Y-136372930D01*
X172123317Y-136302116D01*
X172131000Y-136224106D01*
X172131000Y-136224096D01*
X172133568Y-136198022D01*
X172131000Y-136171948D01*
X172131000Y-135318599D01*
X172194942Y-135292113D01*
X172322859Y-135206642D01*
X172431642Y-135097859D01*
X172517113Y-134969942D01*
X172575987Y-134827809D01*
X172606000Y-134676922D01*
X172606000Y-134523078D01*
X172575987Y-134372191D01*
X172517113Y-134230058D01*
X172431642Y-134102141D01*
X172322859Y-133993358D01*
X172194942Y-133907887D01*
X172052809Y-133849013D01*
X171901922Y-133819000D01*
X171748078Y-133819000D01*
X171597191Y-133849013D01*
X171455058Y-133907887D01*
X171327141Y-133993358D01*
X171300000Y-134020499D01*
X171272859Y-133993358D01*
X171144942Y-133907887D01*
X171002809Y-133849013D01*
X170851922Y-133819000D01*
X170698078Y-133819000D01*
X170547191Y-133849013D01*
X170405058Y-133907887D01*
X170277141Y-133993358D01*
X170168358Y-134102141D01*
X170082887Y-134230058D01*
X170024013Y-134372191D01*
X169994000Y-134523078D01*
X169994000Y-134676922D01*
X170024013Y-134827809D01*
X170082887Y-134969942D01*
X170168358Y-135097859D01*
X170277141Y-135206642D01*
X170405058Y-135292113D01*
X170544001Y-135349665D01*
X170544000Y-135795953D01*
X168795954Y-137544000D01*
X142113148Y-137544000D01*
X132231000Y-127661854D01*
X132231000Y-125119947D01*
X132257029Y-125093917D01*
X132277290Y-125077290D01*
X132343646Y-124996435D01*
X132392953Y-124904188D01*
X132423317Y-124804094D01*
X132431000Y-124726084D01*
X132431000Y-124726074D01*
X132433568Y-124700000D01*
X132431000Y-124673926D01*
X132431000Y-123800000D01*
X154719000Y-123800000D01*
X154719000Y-128600000D01*
X154720835Y-128637345D01*
X154740050Y-128832435D01*
X154754620Y-128905687D01*
X154811525Y-129093280D01*
X154840108Y-129162285D01*
X154932518Y-129335172D01*
X154974013Y-129397274D01*
X155098376Y-129548811D01*
X155151189Y-129601624D01*
X155302726Y-129725987D01*
X155364828Y-129767482D01*
X155537715Y-129859892D01*
X155606720Y-129888475D01*
X155794313Y-129945380D01*
X155867565Y-129959950D01*
X156062655Y-129979165D01*
X156100000Y-129981000D01*
X162500000Y-129981000D01*
X162537345Y-129979165D01*
X162732435Y-129959950D01*
X162805687Y-129945380D01*
X162993280Y-129888475D01*
X163062285Y-129859892D01*
X163235172Y-129767482D01*
X163297274Y-129725987D01*
X163448811Y-129601624D01*
X163501624Y-129548811D01*
X163625987Y-129397274D01*
X163667482Y-129335172D01*
X163759892Y-129162285D01*
X163788475Y-129093280D01*
X163845380Y-128905687D01*
X163859950Y-128832435D01*
X163879165Y-128637345D01*
X163881000Y-128600000D01*
X163881000Y-123800000D01*
X163879165Y-123762655D01*
X163859950Y-123567565D01*
X163845380Y-123494313D01*
X163788475Y-123306720D01*
X163759892Y-123237715D01*
X163667482Y-123064828D01*
X163625987Y-123002726D01*
X163501624Y-122851189D01*
X163448811Y-122798376D01*
X163297274Y-122674013D01*
X163235172Y-122632518D01*
X163062285Y-122540108D01*
X162993280Y-122511525D01*
X162805687Y-122454620D01*
X162732435Y-122440050D01*
X162537345Y-122420835D01*
X162500000Y-122419000D01*
X156100000Y-122419000D01*
X156062655Y-122420835D01*
X155867565Y-122440050D01*
X155794313Y-122454620D01*
X155606720Y-122511525D01*
X155537715Y-122540108D01*
X155364828Y-122632518D01*
X155302726Y-122674013D01*
X155151189Y-122798376D01*
X155098376Y-122851189D01*
X154974013Y-123002726D01*
X154932518Y-123064828D01*
X154840108Y-123237715D01*
X154811525Y-123306720D01*
X154754620Y-123494313D01*
X154740050Y-123567565D01*
X154720835Y-123762655D01*
X154719000Y-123800000D01*
X132431000Y-123800000D01*
X132431000Y-123273501D01*
X132506642Y-123197859D01*
X132592113Y-123069942D01*
X132650987Y-122927809D01*
X132681000Y-122776922D01*
X132681000Y-122623078D01*
X132650987Y-122472191D01*
X132592113Y-122330058D01*
X132506642Y-122202141D01*
X132397859Y-122093358D01*
X132269942Y-122007887D01*
X132127809Y-121949013D01*
X131976922Y-121919000D01*
X131823078Y-121919000D01*
X131672191Y-121949013D01*
X131530058Y-122007887D01*
X131402141Y-122093358D01*
X131293358Y-122202141D01*
X131207887Y-122330058D01*
X131149013Y-122472191D01*
X131119000Y-122623078D01*
X131119000Y-122776922D01*
X131149013Y-122927809D01*
X131207887Y-123069942D01*
X131293358Y-123197859D01*
X131369000Y-123273501D01*
X131369000Y-123556473D01*
X131226912Y-123528210D01*
X131073068Y-123528210D01*
X130922181Y-123558223D01*
X130780048Y-123617097D01*
X130652131Y-123702568D01*
X130543348Y-123811351D01*
X130457877Y-123939268D01*
X130406000Y-124064509D01*
X130406000Y-116100000D01*
X161519000Y-116100000D01*
X161519000Y-120900000D01*
X161520835Y-120937345D01*
X161540050Y-121132435D01*
X161554620Y-121205687D01*
X161611525Y-121393280D01*
X161640108Y-121462285D01*
X161732518Y-121635172D01*
X161774013Y-121697274D01*
X161898376Y-121848811D01*
X161951189Y-121901624D01*
X162102726Y-122025987D01*
X162164828Y-122067482D01*
X162337715Y-122159892D01*
X162406720Y-122188475D01*
X162594313Y-122245380D01*
X162667565Y-122259950D01*
X162862655Y-122279165D01*
X162900000Y-122281000D01*
X169300000Y-122281000D01*
X169337345Y-122279165D01*
X169532435Y-122259950D01*
X169605687Y-122245380D01*
X169793280Y-122188475D01*
X169862285Y-122159892D01*
X170035172Y-122067482D01*
X170097274Y-122025987D01*
X170248811Y-121901624D01*
X170301624Y-121848811D01*
X170425987Y-121697274D01*
X170467482Y-121635172D01*
X170559892Y-121462285D01*
X170588475Y-121393280D01*
X170645380Y-121205687D01*
X170659950Y-121132435D01*
X170679165Y-120937345D01*
X170681000Y-120900000D01*
X170681000Y-119829511D01*
X194769000Y-119829511D01*
X194769000Y-120170489D01*
X194835521Y-120504914D01*
X194966007Y-120819936D01*
X195155444Y-121103448D01*
X195396552Y-121344556D01*
X195680064Y-121533993D01*
X195995086Y-121664479D01*
X196329511Y-121731000D01*
X196670489Y-121731000D01*
X197004914Y-121664479D01*
X197319936Y-121533993D01*
X197603448Y-121344556D01*
X197844556Y-121103448D01*
X198033993Y-120819936D01*
X198164479Y-120504914D01*
X198231000Y-120170489D01*
X198231000Y-119829511D01*
X198164479Y-119495086D01*
X198033993Y-119180064D01*
X197844556Y-118896552D01*
X197603448Y-118655444D01*
X197319936Y-118466007D01*
X197004914Y-118335521D01*
X196670489Y-118269000D01*
X196329511Y-118269000D01*
X195995086Y-118335521D01*
X195680064Y-118466007D01*
X195396552Y-118655444D01*
X195155444Y-118896552D01*
X194966007Y-119180064D01*
X194835521Y-119495086D01*
X194769000Y-119829511D01*
X170681000Y-119829511D01*
X170681000Y-116100000D01*
X170679165Y-116062655D01*
X170659950Y-115867565D01*
X170645380Y-115794313D01*
X170588475Y-115606720D01*
X170559892Y-115537715D01*
X170467482Y-115364828D01*
X170425987Y-115302726D01*
X170301624Y-115151189D01*
X170248811Y-115098376D01*
X170097274Y-114974013D01*
X170035172Y-114932518D01*
X169862285Y-114840108D01*
X169793280Y-114811525D01*
X169605687Y-114754620D01*
X169532435Y-114740050D01*
X169337345Y-114720835D01*
X169300000Y-114719000D01*
X162900000Y-114719000D01*
X162862655Y-114720835D01*
X162667565Y-114740050D01*
X162594313Y-114754620D01*
X162406720Y-114811525D01*
X162337715Y-114840108D01*
X162164828Y-114932518D01*
X162102726Y-114974013D01*
X161951189Y-115098376D01*
X161898376Y-115151189D01*
X161774013Y-115302726D01*
X161732518Y-115364828D01*
X161640108Y-115537715D01*
X161611525Y-115606720D01*
X161554620Y-115794313D01*
X161540050Y-115867565D01*
X161520835Y-116062655D01*
X161519000Y-116100000D01*
X130406000Y-116100000D01*
X130406000Y-112251846D01*
X141447768Y-112251846D01*
X141447768Y-112405690D01*
X141477781Y-112556577D01*
X141536655Y-112698710D01*
X141622126Y-112826627D01*
X141730909Y-112935410D01*
X141858826Y-113020881D01*
X142000959Y-113079755D01*
X142151846Y-113109768D01*
X142190232Y-113109768D01*
X142190232Y-113148154D01*
X142220245Y-113299041D01*
X142279119Y-113441174D01*
X142364590Y-113569091D01*
X142473373Y-113677874D01*
X142601290Y-113763345D01*
X142743423Y-113822219D01*
X142894310Y-113852232D01*
X143048154Y-113852232D01*
X143199041Y-113822219D01*
X143341174Y-113763345D01*
X143469091Y-113677874D01*
X143577874Y-113569091D01*
X143663345Y-113441174D01*
X143722219Y-113299041D01*
X143752232Y-113148154D01*
X143752232Y-112994310D01*
X143722219Y-112843423D01*
X143664666Y-112704479D01*
X149738147Y-106631000D01*
X156459704Y-106631000D01*
X156437715Y-106640108D01*
X156264828Y-106732518D01*
X156202726Y-106774013D01*
X156051189Y-106898376D01*
X155998376Y-106951189D01*
X155874013Y-107102726D01*
X155832518Y-107164828D01*
X155740108Y-107337715D01*
X155711525Y-107406720D01*
X155654620Y-107594313D01*
X155640050Y-107667565D01*
X155620835Y-107862655D01*
X155619000Y-107900000D01*
X155619000Y-112700000D01*
X155620835Y-112737345D01*
X155640050Y-112932435D01*
X155654620Y-113005687D01*
X155711525Y-113193280D01*
X155740108Y-113262285D01*
X155832518Y-113435172D01*
X155874013Y-113497274D01*
X155998376Y-113648811D01*
X156051189Y-113701624D01*
X156202726Y-113825987D01*
X156264828Y-113867482D01*
X156437715Y-113959892D01*
X156506720Y-113988475D01*
X156694313Y-114045380D01*
X156767565Y-114059950D01*
X156962655Y-114079165D01*
X157000000Y-114081000D01*
X163400000Y-114081000D01*
X163437345Y-114079165D01*
X163632435Y-114059950D01*
X163705687Y-114045380D01*
X163893280Y-113988475D01*
X163962285Y-113959892D01*
X164135172Y-113867482D01*
X164197274Y-113825987D01*
X164348811Y-113701624D01*
X164401624Y-113648811D01*
X164525987Y-113497274D01*
X164567482Y-113435172D01*
X164659892Y-113262285D01*
X164688475Y-113193280D01*
X164745380Y-113005687D01*
X164759950Y-112932435D01*
X164779165Y-112737345D01*
X164781000Y-112700000D01*
X164781000Y-107900000D01*
X164779165Y-107862655D01*
X164759950Y-107667565D01*
X164745380Y-107594313D01*
X164688475Y-107406720D01*
X164659892Y-107337715D01*
X164567482Y-107164828D01*
X164525987Y-107102726D01*
X164401624Y-106951189D01*
X164348811Y-106898376D01*
X164197274Y-106774013D01*
X164135172Y-106732518D01*
X163962285Y-106640108D01*
X163940296Y-106631000D01*
X166280054Y-106631000D01*
X167712455Y-108063401D01*
X167605058Y-108107887D01*
X167477141Y-108193358D01*
X167368358Y-108302141D01*
X167282887Y-108430058D01*
X167224013Y-108572191D01*
X167194000Y-108723078D01*
X167194000Y-108876922D01*
X167224013Y-109027809D01*
X167282887Y-109169942D01*
X167368358Y-109297859D01*
X167477141Y-109406642D01*
X167605058Y-109492113D01*
X167747191Y-109550987D01*
X167898078Y-109581000D01*
X168051922Y-109581000D01*
X168202809Y-109550987D01*
X168344942Y-109492113D01*
X168472859Y-109406642D01*
X168500000Y-109379501D01*
X168527141Y-109406642D01*
X168655058Y-109492113D01*
X168797191Y-109550987D01*
X168948078Y-109581000D01*
X169101922Y-109581000D01*
X169252809Y-109550987D01*
X169394942Y-109492113D01*
X169522859Y-109406642D01*
X169631642Y-109297859D01*
X169717113Y-109169942D01*
X169775987Y-109027809D01*
X169806000Y-108876922D01*
X169806000Y-108723078D01*
X169775987Y-108572191D01*
X169717113Y-108430058D01*
X169631642Y-108302141D01*
X169522859Y-108193358D01*
X169394942Y-108107887D01*
X169331000Y-108081401D01*
X169331000Y-107718949D01*
X169333568Y-107692877D01*
X169331000Y-107666805D01*
X169331000Y-107666794D01*
X169323317Y-107588784D01*
X169292953Y-107488690D01*
X169255703Y-107419000D01*
X169243646Y-107396442D01*
X169193917Y-107335848D01*
X169177290Y-107315588D01*
X169157030Y-107298961D01*
X167101043Y-105242975D01*
X167084412Y-105222710D01*
X167003557Y-105156354D01*
X166911310Y-105107047D01*
X166811216Y-105076683D01*
X166733206Y-105069000D01*
X166733196Y-105069000D01*
X166707122Y-105066432D01*
X166681048Y-105069000D01*
X149326074Y-105069000D01*
X149300000Y-105066432D01*
X149273926Y-105069000D01*
X149273916Y-105069000D01*
X149195906Y-105076683D01*
X149095812Y-105107047D01*
X149003564Y-105156354D01*
X148942970Y-105206083D01*
X148922710Y-105222710D01*
X148906083Y-105242970D01*
X142537679Y-111611375D01*
X142456577Y-111577781D01*
X142305690Y-111547768D01*
X142151846Y-111547768D01*
X142000959Y-111577781D01*
X141858826Y-111636655D01*
X141730909Y-111722126D01*
X141622126Y-111830909D01*
X141536655Y-111958826D01*
X141477781Y-112100959D01*
X141447768Y-112251846D01*
X130406000Y-112251846D01*
X130406000Y-100300000D01*
X168619000Y-100300000D01*
X168619000Y-105100000D01*
X168620835Y-105137345D01*
X168640050Y-105332435D01*
X168654620Y-105405687D01*
X168711525Y-105593280D01*
X168740108Y-105662285D01*
X168832518Y-105835172D01*
X168874013Y-105897274D01*
X168998376Y-106048811D01*
X169051189Y-106101624D01*
X169202726Y-106225987D01*
X169264828Y-106267482D01*
X169437715Y-106359892D01*
X169506720Y-106388475D01*
X169694313Y-106445380D01*
X169767565Y-106459950D01*
X169962655Y-106479165D01*
X170000000Y-106481000D01*
X176400000Y-106481000D01*
X176437345Y-106479165D01*
X176632435Y-106459950D01*
X176705687Y-106445380D01*
X176893280Y-106388475D01*
X176962285Y-106359892D01*
X177135172Y-106267482D01*
X177197274Y-106225987D01*
X177348811Y-106101624D01*
X177401624Y-106048811D01*
X177525987Y-105897274D01*
X177567482Y-105835172D01*
X177659892Y-105662285D01*
X177688475Y-105593280D01*
X177745380Y-105405687D01*
X177759950Y-105332435D01*
X177779165Y-105137345D01*
X177781000Y-105100000D01*
X177781000Y-100300000D01*
X177779165Y-100262655D01*
X177759950Y-100067565D01*
X177745380Y-99994313D01*
X177688475Y-99806720D01*
X177659892Y-99737715D01*
X177567482Y-99564828D01*
X177525987Y-99502726D01*
X177401624Y-99351189D01*
X177348811Y-99298376D01*
X177197274Y-99174013D01*
X177135172Y-99132518D01*
X176962285Y-99040108D01*
X176893280Y-99011525D01*
X176705687Y-98954620D01*
X176632435Y-98940050D01*
X176437345Y-98920835D01*
X176400000Y-98919000D01*
X170000000Y-98919000D01*
X169962655Y-98920835D01*
X169767565Y-98940050D01*
X169694313Y-98954620D01*
X169506720Y-99011525D01*
X169437715Y-99040108D01*
X169264828Y-99132518D01*
X169202726Y-99174013D01*
X169051189Y-99298376D01*
X168998376Y-99351189D01*
X168874013Y-99502726D01*
X168832518Y-99564828D01*
X168740108Y-99737715D01*
X168711525Y-99806720D01*
X168654620Y-99994313D01*
X168640050Y-100067565D01*
X168620835Y-100262655D01*
X168619000Y-100300000D01*
X130406000Y-100300000D01*
X130406000Y-97129511D01*
X131769000Y-97129511D01*
X131769000Y-97470489D01*
X131835521Y-97804914D01*
X131966007Y-98119936D01*
X132155444Y-98403448D01*
X132396552Y-98644556D01*
X132680064Y-98833993D01*
X132995086Y-98964479D01*
X133329511Y-99031000D01*
X133670489Y-99031000D01*
X134004914Y-98964479D01*
X134319936Y-98833993D01*
X134603448Y-98644556D01*
X134844556Y-98403448D01*
X135033993Y-98119936D01*
X135164479Y-97804914D01*
X135231000Y-97470489D01*
X135231000Y-97129511D01*
X135164479Y-96795086D01*
X135033993Y-96480064D01*
X134844556Y-96196552D01*
X134603448Y-95955444D01*
X134319936Y-95766007D01*
X134004914Y-95635521D01*
X133670489Y-95569000D01*
X133329511Y-95569000D01*
X132995086Y-95635521D01*
X132680064Y-95766007D01*
X132396552Y-95955444D01*
X132155444Y-96196552D01*
X131966007Y-96480064D01*
X131835521Y-96795086D01*
X131769000Y-97129511D01*
X130406000Y-97129511D01*
X130406000Y-94406000D01*
X209594001Y-94406000D01*
X209594001Y-106557060D01*
X209594001Y-106557060D01*
G37*
X209594001Y-106557060D02*
X209562285Y-106540108D01*
X209493280Y-106511525D01*
X209305687Y-106454620D01*
X209232435Y-106440050D01*
X209037345Y-106420835D01*
X209000000Y-106419000D01*
X204000000Y-106419000D01*
X203962655Y-106420835D01*
X203767565Y-106440050D01*
X203694313Y-106454620D01*
X203506720Y-106511525D01*
X203437715Y-106540108D01*
X203264828Y-106632518D01*
X203202726Y-106674013D01*
X203051189Y-106798376D01*
X202998376Y-106851189D01*
X202874013Y-107002726D01*
X202832518Y-107064828D01*
X202740108Y-107237715D01*
X202711525Y-107306720D01*
X202654620Y-107494313D01*
X202640050Y-107567565D01*
X202620835Y-107762655D01*
X202619000Y-107800000D01*
X202619000Y-115000000D01*
X202620835Y-115037345D01*
X202640050Y-115232435D01*
X202654620Y-115305687D01*
X202711525Y-115493280D01*
X202740108Y-115562285D01*
X202832518Y-115735172D01*
X202874013Y-115797274D01*
X202998376Y-115948811D01*
X203051189Y-116001624D01*
X203202726Y-116125987D01*
X203264828Y-116167482D01*
X203437715Y-116259892D01*
X203506720Y-116288475D01*
X203694313Y-116345380D01*
X203767565Y-116359950D01*
X203962655Y-116379165D01*
X204000000Y-116381000D01*
X209000000Y-116381000D01*
X209037345Y-116379165D01*
X209232435Y-116359950D01*
X209305687Y-116345380D01*
X209493280Y-116288475D01*
X209562285Y-116259892D01*
X209594001Y-116242940D01*
X209594000Y-130657060D01*
X209562285Y-130640108D01*
X209493280Y-130611525D01*
X209305687Y-130554620D01*
X209232435Y-130540050D01*
X209037345Y-130520835D01*
X209000000Y-130519000D01*
X201500000Y-130519000D01*
X201462655Y-130520835D01*
X201267565Y-130540050D01*
X201194313Y-130554620D01*
X201006720Y-130611525D01*
X200937715Y-130640108D01*
X200764828Y-130732518D01*
X200702726Y-130774013D01*
X200551189Y-130898376D01*
X200498376Y-130951189D01*
X200374013Y-131102726D01*
X200332518Y-131164828D01*
X200240108Y-131337715D01*
X200211525Y-131406720D01*
X200154620Y-131594313D01*
X200140050Y-131667565D01*
X200120835Y-131862655D01*
X200119000Y-131900000D01*
X200119000Y-136700000D01*
X200120835Y-136737345D01*
X200140050Y-136932435D01*
X200154620Y-137005687D01*
X200211525Y-137193280D01*
X200240108Y-137262285D01*
X200332518Y-137435172D01*
X200374013Y-137497274D01*
X200498376Y-137648811D01*
X200551189Y-137701624D01*
X200702726Y-137825987D01*
X200764828Y-137867482D01*
X200937715Y-137959892D01*
X201006720Y-137988475D01*
X201194313Y-138045380D01*
X201267565Y-138059950D01*
X201462655Y-138079165D01*
X201500000Y-138081000D01*
X209000000Y-138081000D01*
X209037345Y-138079165D01*
X209232435Y-138059950D01*
X209305687Y-138045380D01*
X209493280Y-137988475D01*
X209562285Y-137959892D01*
X209594000Y-137942940D01*
X209594000Y-145594000D01*
X130406000Y-145594000D01*
X130406000Y-142529511D01*
X131769000Y-142529511D01*
X131769000Y-142870489D01*
X131835521Y-143204914D01*
X131966007Y-143519936D01*
X132155444Y-143803448D01*
X132396552Y-144044556D01*
X132680064Y-144233993D01*
X132995086Y-144364479D01*
X133329511Y-144431000D01*
X133670489Y-144431000D01*
X134004914Y-144364479D01*
X134319936Y-144233993D01*
X134603448Y-144044556D01*
X134844556Y-143803448D01*
X135033993Y-143519936D01*
X135164479Y-143204914D01*
X135231000Y-142870489D01*
X135231000Y-142529511D01*
X135164479Y-142195086D01*
X135033993Y-141880064D01*
X134844556Y-141596552D01*
X134603448Y-141355444D01*
X134319936Y-141166007D01*
X134004914Y-141035521D01*
X133670489Y-140969000D01*
X133329511Y-140969000D01*
X132995086Y-141035521D01*
X132680064Y-141166007D01*
X132396552Y-141355444D01*
X132155444Y-141596552D01*
X131966007Y-141880064D01*
X131835521Y-142195086D01*
X131769000Y-142529511D01*
X130406000Y-142529511D01*
X130406000Y-124553911D01*
X130457877Y-124679152D01*
X130543348Y-124807069D01*
X130618991Y-124882712D01*
X130618990Y-128012838D01*
X130616422Y-128038912D01*
X130618990Y-128064986D01*
X130618990Y-128064995D01*
X130626673Y-128143005D01*
X130657037Y-128243099D01*
X130706344Y-128335347D01*
X130772700Y-128416202D01*
X130792965Y-128432833D01*
X141292178Y-138932047D01*
X141308800Y-138952301D01*
X141329054Y-138968923D01*
X141329059Y-138968928D01*
X141389653Y-139018657D01*
X141481901Y-139067964D01*
X141512265Y-139077175D01*
X141581996Y-139098328D01*
X141660006Y-139106011D01*
X141660014Y-139106011D01*
X141686088Y-139108579D01*
X141712162Y-139106011D01*
X169196928Y-139106009D01*
X169223012Y-139108578D01*
X169260465Y-139104889D01*
X169327106Y-139098326D01*
X169357469Y-139089115D01*
X169427199Y-139067963D01*
X169519447Y-139018656D01*
X169580041Y-138968927D01*
X169580042Y-138968926D01*
X169600302Y-138952299D01*
X169616929Y-138932039D01*
X171957036Y-136591934D01*
X171977290Y-136575312D01*
X171993912Y-136555058D01*
X171993918Y-136555052D01*
X172043646Y-136494458D01*
X172092953Y-136402210D01*
X172101835Y-136372930D01*
X172123317Y-136302116D01*
X172131000Y-136224106D01*
X172131000Y-136224096D01*
X172133568Y-136198022D01*
X172131000Y-136171948D01*
X172131000Y-135318599D01*
X172194942Y-135292113D01*
X172322859Y-135206642D01*
X172431642Y-135097859D01*
X172517113Y-134969942D01*
X172575987Y-134827809D01*
X172606000Y-134676922D01*
X172606000Y-134523078D01*
X172575987Y-134372191D01*
X172517113Y-134230058D01*
X172431642Y-134102141D01*
X172322859Y-133993358D01*
X172194942Y-133907887D01*
X172052809Y-133849013D01*
X171901922Y-133819000D01*
X171748078Y-133819000D01*
X171597191Y-133849013D01*
X171455058Y-133907887D01*
X171327141Y-133993358D01*
X171300000Y-134020499D01*
X171272859Y-133993358D01*
X171144942Y-133907887D01*
X171002809Y-133849013D01*
X170851922Y-133819000D01*
X170698078Y-133819000D01*
X170547191Y-133849013D01*
X170405058Y-133907887D01*
X170277141Y-133993358D01*
X170168358Y-134102141D01*
X170082887Y-134230058D01*
X170024013Y-134372191D01*
X169994000Y-134523078D01*
X169994000Y-134676922D01*
X170024013Y-134827809D01*
X170082887Y-134969942D01*
X170168358Y-135097859D01*
X170277141Y-135206642D01*
X170405058Y-135292113D01*
X170544001Y-135349665D01*
X170544000Y-135795953D01*
X168795954Y-137544000D01*
X142113148Y-137544000D01*
X132231000Y-127661854D01*
X132231000Y-125119947D01*
X132257029Y-125093917D01*
X132277290Y-125077290D01*
X132343646Y-124996435D01*
X132392953Y-124904188D01*
X132423317Y-124804094D01*
X132431000Y-124726084D01*
X132431000Y-124726074D01*
X132433568Y-124700000D01*
X132431000Y-124673926D01*
X132431000Y-123800000D01*
X154719000Y-123800000D01*
X154719000Y-128600000D01*
X154720835Y-128637345D01*
X154740050Y-128832435D01*
X154754620Y-128905687D01*
X154811525Y-129093280D01*
X154840108Y-129162285D01*
X154932518Y-129335172D01*
X154974013Y-129397274D01*
X155098376Y-129548811D01*
X155151189Y-129601624D01*
X155302726Y-129725987D01*
X155364828Y-129767482D01*
X155537715Y-129859892D01*
X155606720Y-129888475D01*
X155794313Y-129945380D01*
X155867565Y-129959950D01*
X156062655Y-129979165D01*
X156100000Y-129981000D01*
X162500000Y-129981000D01*
X162537345Y-129979165D01*
X162732435Y-129959950D01*
X162805687Y-129945380D01*
X162993280Y-129888475D01*
X163062285Y-129859892D01*
X163235172Y-129767482D01*
X163297274Y-129725987D01*
X163448811Y-129601624D01*
X163501624Y-129548811D01*
X163625987Y-129397274D01*
X163667482Y-129335172D01*
X163759892Y-129162285D01*
X163788475Y-129093280D01*
X163845380Y-128905687D01*
X163859950Y-128832435D01*
X163879165Y-128637345D01*
X163881000Y-128600000D01*
X163881000Y-123800000D01*
X163879165Y-123762655D01*
X163859950Y-123567565D01*
X163845380Y-123494313D01*
X163788475Y-123306720D01*
X163759892Y-123237715D01*
X163667482Y-123064828D01*
X163625987Y-123002726D01*
X163501624Y-122851189D01*
X163448811Y-122798376D01*
X163297274Y-122674013D01*
X163235172Y-122632518D01*
X163062285Y-122540108D01*
X162993280Y-122511525D01*
X162805687Y-122454620D01*
X162732435Y-122440050D01*
X162537345Y-122420835D01*
X162500000Y-122419000D01*
X156100000Y-122419000D01*
X156062655Y-122420835D01*
X155867565Y-122440050D01*
X155794313Y-122454620D01*
X155606720Y-122511525D01*
X155537715Y-122540108D01*
X155364828Y-122632518D01*
X155302726Y-122674013D01*
X155151189Y-122798376D01*
X155098376Y-122851189D01*
X154974013Y-123002726D01*
X154932518Y-123064828D01*
X154840108Y-123237715D01*
X154811525Y-123306720D01*
X154754620Y-123494313D01*
X154740050Y-123567565D01*
X154720835Y-123762655D01*
X154719000Y-123800000D01*
X132431000Y-123800000D01*
X132431000Y-123273501D01*
X132506642Y-123197859D01*
X132592113Y-123069942D01*
X132650987Y-122927809D01*
X132681000Y-122776922D01*
X132681000Y-122623078D01*
X132650987Y-122472191D01*
X132592113Y-122330058D01*
X132506642Y-122202141D01*
X132397859Y-122093358D01*
X132269942Y-122007887D01*
X132127809Y-121949013D01*
X131976922Y-121919000D01*
X131823078Y-121919000D01*
X131672191Y-121949013D01*
X131530058Y-122007887D01*
X131402141Y-122093358D01*
X131293358Y-122202141D01*
X131207887Y-122330058D01*
X131149013Y-122472191D01*
X131119000Y-122623078D01*
X131119000Y-122776922D01*
X131149013Y-122927809D01*
X131207887Y-123069942D01*
X131293358Y-123197859D01*
X131369000Y-123273501D01*
X131369000Y-123556473D01*
X131226912Y-123528210D01*
X131073068Y-123528210D01*
X130922181Y-123558223D01*
X130780048Y-123617097D01*
X130652131Y-123702568D01*
X130543348Y-123811351D01*
X130457877Y-123939268D01*
X130406000Y-124064509D01*
X130406000Y-116100000D01*
X161519000Y-116100000D01*
X161519000Y-120900000D01*
X161520835Y-120937345D01*
X161540050Y-121132435D01*
X161554620Y-121205687D01*
X161611525Y-121393280D01*
X161640108Y-121462285D01*
X161732518Y-121635172D01*
X161774013Y-121697274D01*
X161898376Y-121848811D01*
X161951189Y-121901624D01*
X162102726Y-122025987D01*
X162164828Y-122067482D01*
X162337715Y-122159892D01*
X162406720Y-122188475D01*
X162594313Y-122245380D01*
X162667565Y-122259950D01*
X162862655Y-122279165D01*
X162900000Y-122281000D01*
X169300000Y-122281000D01*
X169337345Y-122279165D01*
X169532435Y-122259950D01*
X169605687Y-122245380D01*
X169793280Y-122188475D01*
X169862285Y-122159892D01*
X170035172Y-122067482D01*
X170097274Y-122025987D01*
X170248811Y-121901624D01*
X170301624Y-121848811D01*
X170425987Y-121697274D01*
X170467482Y-121635172D01*
X170559892Y-121462285D01*
X170588475Y-121393280D01*
X170645380Y-121205687D01*
X170659950Y-121132435D01*
X170679165Y-120937345D01*
X170681000Y-120900000D01*
X170681000Y-119829511D01*
X194769000Y-119829511D01*
X194769000Y-120170489D01*
X194835521Y-120504914D01*
X194966007Y-120819936D01*
X195155444Y-121103448D01*
X195396552Y-121344556D01*
X195680064Y-121533993D01*
X195995086Y-121664479D01*
X196329511Y-121731000D01*
X196670489Y-121731000D01*
X197004914Y-121664479D01*
X197319936Y-121533993D01*
X197603448Y-121344556D01*
X197844556Y-121103448D01*
X198033993Y-120819936D01*
X198164479Y-120504914D01*
X198231000Y-120170489D01*
X198231000Y-119829511D01*
X198164479Y-119495086D01*
X198033993Y-119180064D01*
X197844556Y-118896552D01*
X197603448Y-118655444D01*
X197319936Y-118466007D01*
X197004914Y-118335521D01*
X196670489Y-118269000D01*
X196329511Y-118269000D01*
X195995086Y-118335521D01*
X195680064Y-118466007D01*
X195396552Y-118655444D01*
X195155444Y-118896552D01*
X194966007Y-119180064D01*
X194835521Y-119495086D01*
X194769000Y-119829511D01*
X170681000Y-119829511D01*
X170681000Y-116100000D01*
X170679165Y-116062655D01*
X170659950Y-115867565D01*
X170645380Y-115794313D01*
X170588475Y-115606720D01*
X170559892Y-115537715D01*
X170467482Y-115364828D01*
X170425987Y-115302726D01*
X170301624Y-115151189D01*
X170248811Y-115098376D01*
X170097274Y-114974013D01*
X170035172Y-114932518D01*
X169862285Y-114840108D01*
X169793280Y-114811525D01*
X169605687Y-114754620D01*
X169532435Y-114740050D01*
X169337345Y-114720835D01*
X169300000Y-114719000D01*
X162900000Y-114719000D01*
X162862655Y-114720835D01*
X162667565Y-114740050D01*
X162594313Y-114754620D01*
X162406720Y-114811525D01*
X162337715Y-114840108D01*
X162164828Y-114932518D01*
X162102726Y-114974013D01*
X161951189Y-115098376D01*
X161898376Y-115151189D01*
X161774013Y-115302726D01*
X161732518Y-115364828D01*
X161640108Y-115537715D01*
X161611525Y-115606720D01*
X161554620Y-115794313D01*
X161540050Y-115867565D01*
X161520835Y-116062655D01*
X161519000Y-116100000D01*
X130406000Y-116100000D01*
X130406000Y-112251846D01*
X141447768Y-112251846D01*
X141447768Y-112405690D01*
X141477781Y-112556577D01*
X141536655Y-112698710D01*
X141622126Y-112826627D01*
X141730909Y-112935410D01*
X141858826Y-113020881D01*
X142000959Y-113079755D01*
X142151846Y-113109768D01*
X142190232Y-113109768D01*
X142190232Y-113148154D01*
X142220245Y-113299041D01*
X142279119Y-113441174D01*
X142364590Y-113569091D01*
X142473373Y-113677874D01*
X142601290Y-113763345D01*
X142743423Y-113822219D01*
X142894310Y-113852232D01*
X143048154Y-113852232D01*
X143199041Y-113822219D01*
X143341174Y-113763345D01*
X143469091Y-113677874D01*
X143577874Y-113569091D01*
X143663345Y-113441174D01*
X143722219Y-113299041D01*
X143752232Y-113148154D01*
X143752232Y-112994310D01*
X143722219Y-112843423D01*
X143664666Y-112704479D01*
X149738147Y-106631000D01*
X156459704Y-106631000D01*
X156437715Y-106640108D01*
X156264828Y-106732518D01*
X156202726Y-106774013D01*
X156051189Y-106898376D01*
X155998376Y-106951189D01*
X155874013Y-107102726D01*
X155832518Y-107164828D01*
X155740108Y-107337715D01*
X155711525Y-107406720D01*
X155654620Y-107594313D01*
X155640050Y-107667565D01*
X155620835Y-107862655D01*
X155619000Y-107900000D01*
X155619000Y-112700000D01*
X155620835Y-112737345D01*
X155640050Y-112932435D01*
X155654620Y-113005687D01*
X155711525Y-113193280D01*
X155740108Y-113262285D01*
X155832518Y-113435172D01*
X155874013Y-113497274D01*
X155998376Y-113648811D01*
X156051189Y-113701624D01*
X156202726Y-113825987D01*
X156264828Y-113867482D01*
X156437715Y-113959892D01*
X156506720Y-113988475D01*
X156694313Y-114045380D01*
X156767565Y-114059950D01*
X156962655Y-114079165D01*
X157000000Y-114081000D01*
X163400000Y-114081000D01*
X163437345Y-114079165D01*
X163632435Y-114059950D01*
X163705687Y-114045380D01*
X163893280Y-113988475D01*
X163962285Y-113959892D01*
X164135172Y-113867482D01*
X164197274Y-113825987D01*
X164348811Y-113701624D01*
X164401624Y-113648811D01*
X164525987Y-113497274D01*
X164567482Y-113435172D01*
X164659892Y-113262285D01*
X164688475Y-113193280D01*
X164745380Y-113005687D01*
X164759950Y-112932435D01*
X164779165Y-112737345D01*
X164781000Y-112700000D01*
X164781000Y-107900000D01*
X164779165Y-107862655D01*
X164759950Y-107667565D01*
X164745380Y-107594313D01*
X164688475Y-107406720D01*
X164659892Y-107337715D01*
X164567482Y-107164828D01*
X164525987Y-107102726D01*
X164401624Y-106951189D01*
X164348811Y-106898376D01*
X164197274Y-106774013D01*
X164135172Y-106732518D01*
X163962285Y-106640108D01*
X163940296Y-106631000D01*
X166280054Y-106631000D01*
X167712455Y-108063401D01*
X167605058Y-108107887D01*
X167477141Y-108193358D01*
X167368358Y-108302141D01*
X167282887Y-108430058D01*
X167224013Y-108572191D01*
X167194000Y-108723078D01*
X167194000Y-108876922D01*
X167224013Y-109027809D01*
X167282887Y-109169942D01*
X167368358Y-109297859D01*
X167477141Y-109406642D01*
X167605058Y-109492113D01*
X167747191Y-109550987D01*
X167898078Y-109581000D01*
X168051922Y-109581000D01*
X168202809Y-109550987D01*
X168344942Y-109492113D01*
X168472859Y-109406642D01*
X168500000Y-109379501D01*
X168527141Y-109406642D01*
X168655058Y-109492113D01*
X168797191Y-109550987D01*
X168948078Y-109581000D01*
X169101922Y-109581000D01*
X169252809Y-109550987D01*
X169394942Y-109492113D01*
X169522859Y-109406642D01*
X169631642Y-109297859D01*
X169717113Y-109169942D01*
X169775987Y-109027809D01*
X169806000Y-108876922D01*
X169806000Y-108723078D01*
X169775987Y-108572191D01*
X169717113Y-108430058D01*
X169631642Y-108302141D01*
X169522859Y-108193358D01*
X169394942Y-108107887D01*
X169331000Y-108081401D01*
X169331000Y-107718949D01*
X169333568Y-107692877D01*
X169331000Y-107666805D01*
X169331000Y-107666794D01*
X169323317Y-107588784D01*
X169292953Y-107488690D01*
X169255703Y-107419000D01*
X169243646Y-107396442D01*
X169193917Y-107335848D01*
X169177290Y-107315588D01*
X169157030Y-107298961D01*
X167101043Y-105242975D01*
X167084412Y-105222710D01*
X167003557Y-105156354D01*
X166911310Y-105107047D01*
X166811216Y-105076683D01*
X166733206Y-105069000D01*
X166733196Y-105069000D01*
X166707122Y-105066432D01*
X166681048Y-105069000D01*
X149326074Y-105069000D01*
X149300000Y-105066432D01*
X149273926Y-105069000D01*
X149273916Y-105069000D01*
X149195906Y-105076683D01*
X149095812Y-105107047D01*
X149003564Y-105156354D01*
X148942970Y-105206083D01*
X148922710Y-105222710D01*
X148906083Y-105242970D01*
X142537679Y-111611375D01*
X142456577Y-111577781D01*
X142305690Y-111547768D01*
X142151846Y-111547768D01*
X142000959Y-111577781D01*
X141858826Y-111636655D01*
X141730909Y-111722126D01*
X141622126Y-111830909D01*
X141536655Y-111958826D01*
X141477781Y-112100959D01*
X141447768Y-112251846D01*
X130406000Y-112251846D01*
X130406000Y-100300000D01*
X168619000Y-100300000D01*
X168619000Y-105100000D01*
X168620835Y-105137345D01*
X168640050Y-105332435D01*
X168654620Y-105405687D01*
X168711525Y-105593280D01*
X168740108Y-105662285D01*
X168832518Y-105835172D01*
X168874013Y-105897274D01*
X168998376Y-106048811D01*
X169051189Y-106101624D01*
X169202726Y-106225987D01*
X169264828Y-106267482D01*
X169437715Y-106359892D01*
X169506720Y-106388475D01*
X169694313Y-106445380D01*
X169767565Y-106459950D01*
X169962655Y-106479165D01*
X170000000Y-106481000D01*
X176400000Y-106481000D01*
X176437345Y-106479165D01*
X176632435Y-106459950D01*
X176705687Y-106445380D01*
X176893280Y-106388475D01*
X176962285Y-106359892D01*
X177135172Y-106267482D01*
X177197274Y-106225987D01*
X177348811Y-106101624D01*
X177401624Y-106048811D01*
X177525987Y-105897274D01*
X177567482Y-105835172D01*
X177659892Y-105662285D01*
X177688475Y-105593280D01*
X177745380Y-105405687D01*
X177759950Y-105332435D01*
X177779165Y-105137345D01*
X177781000Y-105100000D01*
X177781000Y-100300000D01*
X177779165Y-100262655D01*
X177759950Y-100067565D01*
X177745380Y-99994313D01*
X177688475Y-99806720D01*
X177659892Y-99737715D01*
X177567482Y-99564828D01*
X177525987Y-99502726D01*
X177401624Y-99351189D01*
X177348811Y-99298376D01*
X177197274Y-99174013D01*
X177135172Y-99132518D01*
X176962285Y-99040108D01*
X176893280Y-99011525D01*
X176705687Y-98954620D01*
X176632435Y-98940050D01*
X176437345Y-98920835D01*
X176400000Y-98919000D01*
X170000000Y-98919000D01*
X169962655Y-98920835D01*
X169767565Y-98940050D01*
X169694313Y-98954620D01*
X169506720Y-99011525D01*
X169437715Y-99040108D01*
X169264828Y-99132518D01*
X169202726Y-99174013D01*
X169051189Y-99298376D01*
X168998376Y-99351189D01*
X168874013Y-99502726D01*
X168832518Y-99564828D01*
X168740108Y-99737715D01*
X168711525Y-99806720D01*
X168654620Y-99994313D01*
X168640050Y-100067565D01*
X168620835Y-100262655D01*
X168619000Y-100300000D01*
X130406000Y-100300000D01*
X130406000Y-97129511D01*
X131769000Y-97129511D01*
X131769000Y-97470489D01*
X131835521Y-97804914D01*
X131966007Y-98119936D01*
X132155444Y-98403448D01*
X132396552Y-98644556D01*
X132680064Y-98833993D01*
X132995086Y-98964479D01*
X133329511Y-99031000D01*
X133670489Y-99031000D01*
X134004914Y-98964479D01*
X134319936Y-98833993D01*
X134603448Y-98644556D01*
X134844556Y-98403448D01*
X135033993Y-98119936D01*
X135164479Y-97804914D01*
X135231000Y-97470489D01*
X135231000Y-97129511D01*
X135164479Y-96795086D01*
X135033993Y-96480064D01*
X134844556Y-96196552D01*
X134603448Y-95955444D01*
X134319936Y-95766007D01*
X134004914Y-95635521D01*
X133670489Y-95569000D01*
X133329511Y-95569000D01*
X132995086Y-95635521D01*
X132680064Y-95766007D01*
X132396552Y-95955444D01*
X132155444Y-96196552D01*
X131966007Y-96480064D01*
X131835521Y-96795086D01*
X131769000Y-97129511D01*
X130406000Y-97129511D01*
X130406000Y-94406000D01*
X209594001Y-94406000D01*
X209594001Y-106557060D01*
G36*
X209170189Y-106944376D02*
G01*
X209333850Y-106994022D01*
X209484672Y-107074638D01*
X209594001Y-107164362D01*
X209594001Y-115635638D01*
X209484672Y-115725362D01*
X209333850Y-115805978D01*
X209170189Y-115855624D01*
X208993766Y-115873000D01*
X204006234Y-115873000D01*
X203829811Y-115855624D01*
X203666150Y-115805978D01*
X203515328Y-115725362D01*
X203383130Y-115616870D01*
X203274638Y-115484672D01*
X203194022Y-115333850D01*
X203144376Y-115170189D01*
X203127000Y-114993766D01*
X203127000Y-107806234D01*
X203144376Y-107629811D01*
X203194022Y-107466150D01*
X203274638Y-107315328D01*
X203383130Y-107183130D01*
X203515328Y-107074638D01*
X203666150Y-106994022D01*
X203829811Y-106944376D01*
X204006234Y-106927000D01*
X208993766Y-106927000D01*
X209170189Y-106944376D01*
X209170189Y-106944376D01*
G37*
X209170189Y-106944376D02*
X209333850Y-106994022D01*
X209484672Y-107074638D01*
X209594001Y-107164362D01*
X209594001Y-115635638D01*
X209484672Y-115725362D01*
X209333850Y-115805978D01*
X209170189Y-115855624D01*
X208993766Y-115873000D01*
X204006234Y-115873000D01*
X203829811Y-115855624D01*
X203666150Y-115805978D01*
X203515328Y-115725362D01*
X203383130Y-115616870D01*
X203274638Y-115484672D01*
X203194022Y-115333850D01*
X203144376Y-115170189D01*
X203127000Y-114993766D01*
X203127000Y-107806234D01*
X203144376Y-107629811D01*
X203194022Y-107466150D01*
X203274638Y-107315328D01*
X203383130Y-107183130D01*
X203515328Y-107074638D01*
X203666150Y-106994022D01*
X203829811Y-106944376D01*
X204006234Y-106927000D01*
X208993766Y-106927000D01*
X209170189Y-106944376D01*
G36*
X209170189Y-131044376D02*
G01*
X209333850Y-131094022D01*
X209484672Y-131174638D01*
X209594000Y-131264361D01*
X209594000Y-137335639D01*
X209484672Y-137425362D01*
X209333850Y-137505978D01*
X209170189Y-137555624D01*
X208993766Y-137573000D01*
X201506234Y-137573000D01*
X201329811Y-137555624D01*
X201166150Y-137505978D01*
X201015328Y-137425362D01*
X200883130Y-137316870D01*
X200774638Y-137184672D01*
X200694022Y-137033850D01*
X200644376Y-136870189D01*
X200627000Y-136693766D01*
X200627000Y-131906234D01*
X200644376Y-131729811D01*
X200694022Y-131566150D01*
X200774638Y-131415328D01*
X200883130Y-131283130D01*
X201015328Y-131174638D01*
X201166150Y-131094022D01*
X201329811Y-131044376D01*
X201506234Y-131027000D01*
X208993766Y-131027000D01*
X209170189Y-131044376D01*
X209170189Y-131044376D01*
G37*
X209170189Y-131044376D02*
X209333850Y-131094022D01*
X209484672Y-131174638D01*
X209594000Y-131264361D01*
X209594000Y-137335639D01*
X209484672Y-137425362D01*
X209333850Y-137505978D01*
X209170189Y-137555624D01*
X208993766Y-137573000D01*
X201506234Y-137573000D01*
X201329811Y-137555624D01*
X201166150Y-137505978D01*
X201015328Y-137425362D01*
X200883130Y-137316870D01*
X200774638Y-137184672D01*
X200694022Y-137033850D01*
X200644376Y-136870189D01*
X200627000Y-136693766D01*
X200627000Y-131906234D01*
X200644376Y-131729811D01*
X200694022Y-131566150D01*
X200774638Y-131415328D01*
X200883130Y-131283130D01*
X201015328Y-131174638D01*
X201166150Y-131094022D01*
X201329811Y-131044376D01*
X201506234Y-131027000D01*
X208993766Y-131027000D01*
X209170189Y-131044376D01*
G36*
X163570189Y-107044376D02*
G01*
X163733850Y-107094022D01*
X163884672Y-107174638D01*
X164016870Y-107283130D01*
X164125362Y-107415328D01*
X164205978Y-107566150D01*
X164255624Y-107729811D01*
X164273000Y-107906234D01*
X164273000Y-112693766D01*
X164255624Y-112870189D01*
X164205978Y-113033850D01*
X164125362Y-113184672D01*
X164016870Y-113316870D01*
X163884672Y-113425362D01*
X163733850Y-113505978D01*
X163570189Y-113555624D01*
X163393766Y-113573000D01*
X157006234Y-113573000D01*
X156829811Y-113555624D01*
X156666150Y-113505978D01*
X156515328Y-113425362D01*
X156383130Y-113316870D01*
X156274638Y-113184672D01*
X156194022Y-113033850D01*
X156144376Y-112870189D01*
X156127000Y-112693766D01*
X156127000Y-107906234D01*
X156144376Y-107729811D01*
X156194022Y-107566150D01*
X156274638Y-107415328D01*
X156383130Y-107283130D01*
X156515328Y-107174638D01*
X156666150Y-107094022D01*
X156829811Y-107044376D01*
X157006234Y-107027000D01*
X163393766Y-107027000D01*
X163570189Y-107044376D01*
X163570189Y-107044376D01*
G37*
X163570189Y-107044376D02*
X163733850Y-107094022D01*
X163884672Y-107174638D01*
X164016870Y-107283130D01*
X164125362Y-107415328D01*
X164205978Y-107566150D01*
X164255624Y-107729811D01*
X164273000Y-107906234D01*
X164273000Y-112693766D01*
X164255624Y-112870189D01*
X164205978Y-113033850D01*
X164125362Y-113184672D01*
X164016870Y-113316870D01*
X163884672Y-113425362D01*
X163733850Y-113505978D01*
X163570189Y-113555624D01*
X163393766Y-113573000D01*
X157006234Y-113573000D01*
X156829811Y-113555624D01*
X156666150Y-113505978D01*
X156515328Y-113425362D01*
X156383130Y-113316870D01*
X156274638Y-113184672D01*
X156194022Y-113033850D01*
X156144376Y-112870189D01*
X156127000Y-112693766D01*
X156127000Y-107906234D01*
X156144376Y-107729811D01*
X156194022Y-107566150D01*
X156274638Y-107415328D01*
X156383130Y-107283130D01*
X156515328Y-107174638D01*
X156666150Y-107094022D01*
X156829811Y-107044376D01*
X157006234Y-107027000D01*
X163393766Y-107027000D01*
X163570189Y-107044376D01*
G36*
X169470189Y-115244376D02*
G01*
X169633850Y-115294022D01*
X169784672Y-115374638D01*
X169916870Y-115483130D01*
X170025362Y-115615328D01*
X170105978Y-115766150D01*
X170155624Y-115929811D01*
X170173000Y-116106234D01*
X170173000Y-120893766D01*
X170155624Y-121070189D01*
X170105978Y-121233850D01*
X170025362Y-121384672D01*
X169916870Y-121516870D01*
X169784672Y-121625362D01*
X169633850Y-121705978D01*
X169470189Y-121755624D01*
X169293766Y-121773000D01*
X162906234Y-121773000D01*
X162729811Y-121755624D01*
X162566150Y-121705978D01*
X162415328Y-121625362D01*
X162283130Y-121516870D01*
X162174638Y-121384672D01*
X162094022Y-121233850D01*
X162044376Y-121070189D01*
X162027000Y-120893766D01*
X162027000Y-116106234D01*
X162044376Y-115929811D01*
X162094022Y-115766150D01*
X162174638Y-115615328D01*
X162283130Y-115483130D01*
X162415328Y-115374638D01*
X162566150Y-115294022D01*
X162729811Y-115244376D01*
X162906234Y-115227000D01*
X169293766Y-115227000D01*
X169470189Y-115244376D01*
X169470189Y-115244376D01*
G37*
X169470189Y-115244376D02*
X169633850Y-115294022D01*
X169784672Y-115374638D01*
X169916870Y-115483130D01*
X170025362Y-115615328D01*
X170105978Y-115766150D01*
X170155624Y-115929811D01*
X170173000Y-116106234D01*
X170173000Y-120893766D01*
X170155624Y-121070189D01*
X170105978Y-121233850D01*
X170025362Y-121384672D01*
X169916870Y-121516870D01*
X169784672Y-121625362D01*
X169633850Y-121705978D01*
X169470189Y-121755624D01*
X169293766Y-121773000D01*
X162906234Y-121773000D01*
X162729811Y-121755624D01*
X162566150Y-121705978D01*
X162415328Y-121625362D01*
X162283130Y-121516870D01*
X162174638Y-121384672D01*
X162094022Y-121233850D01*
X162044376Y-121070189D01*
X162027000Y-120893766D01*
X162027000Y-116106234D01*
X162044376Y-115929811D01*
X162094022Y-115766150D01*
X162174638Y-115615328D01*
X162283130Y-115483130D01*
X162415328Y-115374638D01*
X162566150Y-115294022D01*
X162729811Y-115244376D01*
X162906234Y-115227000D01*
X169293766Y-115227000D01*
X169470189Y-115244376D01*
G36*
X162670189Y-122944376D02*
G01*
X162833850Y-122994022D01*
X162984672Y-123074638D01*
X163116870Y-123183130D01*
X163225362Y-123315328D01*
X163305978Y-123466150D01*
X163355624Y-123629811D01*
X163373000Y-123806234D01*
X163373000Y-128593766D01*
X163355624Y-128770189D01*
X163305978Y-128933850D01*
X163225362Y-129084672D01*
X163116870Y-129216870D01*
X162984672Y-129325362D01*
X162833850Y-129405978D01*
X162670189Y-129455624D01*
X162493766Y-129473000D01*
X156106234Y-129473000D01*
X155929811Y-129455624D01*
X155766150Y-129405978D01*
X155615328Y-129325362D01*
X155483130Y-129216870D01*
X155374638Y-129084672D01*
X155294022Y-128933850D01*
X155244376Y-128770189D01*
X155227000Y-128593766D01*
X155227000Y-123806234D01*
X155244376Y-123629811D01*
X155294022Y-123466150D01*
X155374638Y-123315328D01*
X155483130Y-123183130D01*
X155615328Y-123074638D01*
X155766150Y-122994022D01*
X155929811Y-122944376D01*
X156106234Y-122927000D01*
X162493766Y-122927000D01*
X162670189Y-122944376D01*
X162670189Y-122944376D01*
G37*
X162670189Y-122944376D02*
X162833850Y-122994022D01*
X162984672Y-123074638D01*
X163116870Y-123183130D01*
X163225362Y-123315328D01*
X163305978Y-123466150D01*
X163355624Y-123629811D01*
X163373000Y-123806234D01*
X163373000Y-128593766D01*
X163355624Y-128770189D01*
X163305978Y-128933850D01*
X163225362Y-129084672D01*
X163116870Y-129216870D01*
X162984672Y-129325362D01*
X162833850Y-129405978D01*
X162670189Y-129455624D01*
X162493766Y-129473000D01*
X156106234Y-129473000D01*
X155929811Y-129455624D01*
X155766150Y-129405978D01*
X155615328Y-129325362D01*
X155483130Y-129216870D01*
X155374638Y-129084672D01*
X155294022Y-128933850D01*
X155244376Y-128770189D01*
X155227000Y-128593766D01*
X155227000Y-123806234D01*
X155244376Y-123629811D01*
X155294022Y-123466150D01*
X155374638Y-123315328D01*
X155483130Y-123183130D01*
X155615328Y-123074638D01*
X155766150Y-122994022D01*
X155929811Y-122944376D01*
X156106234Y-122927000D01*
X162493766Y-122927000D01*
X162670189Y-122944376D01*
G36*
X176570189Y-99444376D02*
G01*
X176733850Y-99494022D01*
X176884672Y-99574638D01*
X177016870Y-99683130D01*
X177125362Y-99815328D01*
X177205978Y-99966150D01*
X177255624Y-100129811D01*
X177273000Y-100306234D01*
X177273000Y-105093766D01*
X177255624Y-105270189D01*
X177205978Y-105433850D01*
X177125362Y-105584672D01*
X177016870Y-105716870D01*
X176884672Y-105825362D01*
X176733850Y-105905978D01*
X176570189Y-105955624D01*
X176393766Y-105973000D01*
X170006234Y-105973000D01*
X169829811Y-105955624D01*
X169666150Y-105905978D01*
X169515328Y-105825362D01*
X169383130Y-105716870D01*
X169274638Y-105584672D01*
X169194022Y-105433850D01*
X169144376Y-105270189D01*
X169127000Y-105093766D01*
X169127000Y-100306234D01*
X169144376Y-100129811D01*
X169194022Y-99966150D01*
X169274638Y-99815328D01*
X169383130Y-99683130D01*
X169515328Y-99574638D01*
X169666150Y-99494022D01*
X169829811Y-99444376D01*
X170006234Y-99427000D01*
X176393766Y-99427000D01*
X176570189Y-99444376D01*
X176570189Y-99444376D01*
G37*
X176570189Y-99444376D02*
X176733850Y-99494022D01*
X176884672Y-99574638D01*
X177016870Y-99683130D01*
X177125362Y-99815328D01*
X177205978Y-99966150D01*
X177255624Y-100129811D01*
X177273000Y-100306234D01*
X177273000Y-105093766D01*
X177255624Y-105270189D01*
X177205978Y-105433850D01*
X177125362Y-105584672D01*
X177016870Y-105716870D01*
X176884672Y-105825362D01*
X176733850Y-105905978D01*
X176570189Y-105955624D01*
X176393766Y-105973000D01*
X170006234Y-105973000D01*
X169829811Y-105955624D01*
X169666150Y-105905978D01*
X169515328Y-105825362D01*
X169383130Y-105716870D01*
X169274638Y-105584672D01*
X169194022Y-105433850D01*
X169144376Y-105270189D01*
X169127000Y-105093766D01*
X169127000Y-100306234D01*
X169144376Y-100129811D01*
X169194022Y-99966150D01*
X169274638Y-99815328D01*
X169383130Y-99683130D01*
X169515328Y-99574638D01*
X169666150Y-99494022D01*
X169829811Y-99444376D01*
X170006234Y-99427000D01*
X176393766Y-99427000D01*
X176570189Y-99444376D01*
M02*
