%FSLAX45Y45*%
G04 Gerber Fmt 4.5, Leading zero omitted, Abs format (unit mm)*
G04 Created by KiCad (PCBNEW (5.1.4)-1) date 2019-10-29 10:47:53*
%MOMM*%
%LPD*%
G04 APERTURE LIST*
%ADD10C,0.050000*%
%ADD11C,0.200000*%
%ADD12C,0.300000*%
G04 APERTURE END LIST*
D10*
X21000000Y-14600000D02*
X21000000Y-9400000D01*
X20000000Y-14600000D02*
X21000000Y-14600000D01*
X13000000Y-14600000D02*
X20000000Y-14600000D01*
X13000000Y-9400000D02*
X13000000Y-14600000D01*
X21000000Y-9400000D02*
X13000000Y-9400000D01*
D11*
X13070000Y-9460000D02*
X13110000Y-9500000D01*
X13110000Y-9460000D02*
X13070000Y-9500000D01*
X13070000Y-9560000D02*
X13110000Y-9600000D01*
X13110000Y-9560000D02*
X13070000Y-9600000D01*
X13070000Y-9660000D02*
X13110000Y-9700000D01*
X13110000Y-9660000D02*
X13070000Y-9700000D01*
X13070000Y-9760000D02*
X13110000Y-9800000D01*
X13110000Y-9760000D02*
X13070000Y-9800000D01*
X13070000Y-14200000D02*
X13110000Y-14240000D01*
X13110000Y-14200000D02*
X13070000Y-14240000D01*
X13070000Y-14300000D02*
X13110000Y-14340000D01*
X13110000Y-14300000D02*
X13070000Y-14340000D01*
X13070000Y-14400000D02*
X13110000Y-14440000D01*
X13110000Y-14400000D02*
X13070000Y-14440000D01*
X13070000Y-14500000D02*
X13110000Y-14540000D01*
X13110000Y-14500000D02*
X13070000Y-14540000D01*
X13094999Y-12410921D02*
X13134999Y-12450921D01*
X13134999Y-12410921D02*
X13094999Y-12450921D01*
X13170000Y-9460000D02*
X13210000Y-9500000D01*
X13210000Y-9460000D02*
X13170000Y-9500000D01*
X13170000Y-9560000D02*
X13210000Y-9600000D01*
X13210000Y-9560000D02*
X13170000Y-9600000D01*
X13170000Y-12250000D02*
X13210000Y-12290000D01*
X13210000Y-12250000D02*
X13170000Y-12290000D01*
X13170000Y-14400000D02*
X13210000Y-14440000D01*
X13210000Y-14400000D02*
X13170000Y-14440000D01*
X13170000Y-14500000D02*
X13210000Y-14540000D01*
X13210000Y-14500000D02*
X13170000Y-14540000D01*
X13240000Y-11360000D02*
X13280000Y-11400000D01*
X13280000Y-11360000D02*
X13240000Y-11400000D01*
X13240000Y-11440000D02*
X13280000Y-11480000D01*
X13280000Y-11440000D02*
X13240000Y-11480000D01*
X13270000Y-9460000D02*
X13310000Y-9500000D01*
X13310000Y-9460000D02*
X13270000Y-9500000D01*
X13270000Y-14500000D02*
X13310000Y-14540000D01*
X13310000Y-14500000D02*
X13270000Y-14540000D01*
X13320000Y-11320000D02*
X13360000Y-11360000D01*
X13360000Y-11320000D02*
X13320000Y-11360000D01*
X13320000Y-11400000D02*
X13360000Y-11440000D01*
X13360000Y-11400000D02*
X13320000Y-11440000D01*
X13320000Y-11480000D02*
X13360000Y-11520000D01*
X13360000Y-11480000D02*
X13320000Y-11520000D01*
X13340000Y-11040000D02*
X13380000Y-11080000D01*
X13380000Y-11040000D02*
X13340000Y-11080000D01*
X13340000Y-11120000D02*
X13380000Y-11160000D01*
X13380000Y-11120000D02*
X13340000Y-11160000D01*
X13340000Y-11200000D02*
X13380000Y-11240000D01*
X13380000Y-11200000D02*
X13340000Y-11240000D01*
X13370000Y-9460000D02*
X13410000Y-9500000D01*
X13410000Y-9460000D02*
X13370000Y-9500000D01*
X13370000Y-14500000D02*
X13410000Y-14540000D01*
X13410000Y-14500000D02*
X13370000Y-14540000D01*
X13420000Y-11000000D02*
X13460000Y-11040000D01*
X13460000Y-11000000D02*
X13420000Y-11040000D01*
X13420000Y-11080000D02*
X13460000Y-11120000D01*
X13460000Y-11080000D02*
X13420000Y-11120000D01*
X13420000Y-11160000D02*
X13460000Y-11200000D01*
X13460000Y-11160000D02*
X13420000Y-11200000D01*
X13420000Y-11240000D02*
X13460000Y-11280000D01*
X13460000Y-11240000D02*
X13420000Y-11280000D01*
X13480000Y-11290000D02*
X13520000Y-11330000D01*
X13520000Y-11290000D02*
X13480000Y-11330000D01*
X13490000Y-10940000D02*
X13530000Y-10980000D01*
X13530000Y-10940000D02*
X13490000Y-10980000D01*
X13530000Y-10860000D02*
X13570000Y-10900000D01*
X13570000Y-10860000D02*
X13530000Y-10900000D01*
X13560000Y-11270000D02*
X13600000Y-11310000D01*
X13600000Y-11270000D02*
X13560000Y-11310000D01*
X13570000Y-10940000D02*
X13610000Y-10980000D01*
X13610000Y-10940000D02*
X13570000Y-10980000D01*
X13600000Y-11970000D02*
X13640000Y-12010000D01*
X13640000Y-11970000D02*
X13600000Y-12010000D01*
X13600000Y-12050000D02*
X13640000Y-12090000D01*
X13640000Y-12050000D02*
X13600000Y-12090000D01*
X13600000Y-12130000D02*
X13640000Y-12170000D01*
X13640000Y-12130000D02*
X13600000Y-12170000D01*
X13610000Y-10860000D02*
X13650000Y-10900000D01*
X13650000Y-10860000D02*
X13610000Y-10900000D01*
X13640000Y-11270000D02*
X13680000Y-11310000D01*
X13680000Y-11270000D02*
X13640000Y-11310000D01*
X13650000Y-10940000D02*
X13690000Y-10980000D01*
X13690000Y-10940000D02*
X13650000Y-10980000D01*
X13680000Y-11970000D02*
X13720000Y-12010000D01*
X13720000Y-11970000D02*
X13680000Y-12010000D01*
X13680000Y-12050000D02*
X13720000Y-12090000D01*
X13720000Y-12050000D02*
X13680000Y-12090000D01*
X13680000Y-12130000D02*
X13720000Y-12170000D01*
X13720000Y-12130000D02*
X13680000Y-12170000D01*
X13750000Y-12010000D02*
X13790000Y-12050000D01*
X13790000Y-12010000D02*
X13750000Y-12050000D01*
X13750000Y-12090000D02*
X13790000Y-12130000D01*
X13790000Y-12090000D02*
X13750000Y-12130000D01*
X13750000Y-12170000D02*
X13790000Y-12210000D01*
X13790000Y-12170000D02*
X13750000Y-12210000D01*
X13810000Y-12880000D02*
X13850000Y-12920000D01*
X13850000Y-12880000D02*
X13810000Y-12920000D01*
X13810000Y-12960000D02*
X13850000Y-13000000D01*
X13850000Y-12960000D02*
X13810000Y-13000000D01*
X13810000Y-13040000D02*
X13850000Y-13080000D01*
X13850000Y-13040000D02*
X13810000Y-13080000D01*
X13810000Y-13120000D02*
X13850000Y-13160000D01*
X13850000Y-13120000D02*
X13810000Y-13160000D01*
X13830000Y-12010000D02*
X13870000Y-12050000D01*
X13870000Y-12010000D02*
X13830000Y-12050000D01*
X13830000Y-12090000D02*
X13870000Y-12130000D01*
X13870000Y-12090000D02*
X13830000Y-12130000D01*
X13830000Y-12170000D02*
X13870000Y-12210000D01*
X13870000Y-12170000D02*
X13830000Y-12210000D01*
X13890000Y-12880000D02*
X13930000Y-12920000D01*
X13930000Y-12880000D02*
X13890000Y-12920000D01*
X13890000Y-12960000D02*
X13930000Y-13000000D01*
X13930000Y-12960000D02*
X13890000Y-13000000D01*
X13890000Y-13040000D02*
X13930000Y-13080000D01*
X13930000Y-13040000D02*
X13890000Y-13080000D01*
X13910000Y-12010000D02*
X13950000Y-12050000D01*
X13950000Y-12010000D02*
X13910000Y-12050000D01*
X13910000Y-12090000D02*
X13950000Y-12130000D01*
X13950000Y-12090000D02*
X13910000Y-12130000D01*
X13910000Y-12170000D02*
X13950000Y-12210000D01*
X13950000Y-12170000D02*
X13910000Y-12210000D01*
X13970000Y-12800000D02*
X14010000Y-12840000D01*
X14010000Y-12800000D02*
X13970000Y-12840000D01*
X13970000Y-12880000D02*
X14010000Y-12920000D01*
X14010000Y-12880000D02*
X13970000Y-12920000D01*
X13990000Y-11930000D02*
X14030000Y-11970000D01*
X14030000Y-11930000D02*
X13990000Y-11970000D01*
X13990000Y-12010000D02*
X14030000Y-12050000D01*
X14030000Y-12010000D02*
X13990000Y-12050000D01*
X13990000Y-12090000D02*
X14030000Y-12130000D01*
X14030000Y-12090000D02*
X13990000Y-12130000D01*
X13990000Y-12170000D02*
X14030000Y-12210000D01*
X14030000Y-12170000D02*
X13990000Y-12210000D01*
X14040000Y-12920000D02*
X14080000Y-12960000D01*
X14080000Y-12920000D02*
X14040000Y-12960000D01*
X14070000Y-11930000D02*
X14110000Y-11970000D01*
X14110000Y-11930000D02*
X14070000Y-11970000D01*
X14070000Y-12010000D02*
X14110000Y-12050000D01*
X14110000Y-12010000D02*
X14070000Y-12050000D01*
X14070000Y-12090000D02*
X14110000Y-12130000D01*
X14110000Y-12090000D02*
X14070000Y-12130000D01*
X14070000Y-12170000D02*
X14110000Y-12210000D01*
X14110000Y-12170000D02*
X14070000Y-12210000D01*
X14080000Y-13010000D02*
X14120000Y-13050000D01*
X14120000Y-13010000D02*
X14080000Y-13050000D01*
X14120000Y-12930000D02*
X14160000Y-12970000D01*
X14160000Y-12930000D02*
X14120000Y-12970000D01*
X14150000Y-11930000D02*
X14190000Y-11970000D01*
X14190000Y-11930000D02*
X14150000Y-11970000D01*
X14150000Y-12010000D02*
X14190000Y-12050000D01*
X14190000Y-12010000D02*
X14150000Y-12050000D01*
X14150000Y-12090000D02*
X14190000Y-12130000D01*
X14190000Y-12090000D02*
X14150000Y-12130000D01*
X14150000Y-12170000D02*
X14190000Y-12210000D01*
X14190000Y-12170000D02*
X14150000Y-12210000D01*
X14160000Y-13010000D02*
X14200000Y-13050000D01*
X14200000Y-13010000D02*
X14160000Y-13050000D01*
X14200000Y-12930000D02*
X14240000Y-12970000D01*
X14240000Y-12930000D02*
X14200000Y-12970000D01*
X14202877Y-11212877D02*
X14242877Y-11252877D01*
X14242877Y-11212877D02*
X14202877Y-11252877D01*
X14230000Y-12010000D02*
X14270000Y-12050000D01*
X14270000Y-12010000D02*
X14230000Y-12050000D01*
X14230000Y-12090000D02*
X14270000Y-12130000D01*
X14270000Y-12090000D02*
X14230000Y-12130000D01*
X14240000Y-13010000D02*
X14280000Y-13050000D01*
X14280000Y-13010000D02*
X14240000Y-13050000D01*
X14277123Y-11287123D02*
X14317123Y-11327123D01*
X14317123Y-11287123D02*
X14277123Y-11327123D01*
X14280000Y-12930000D02*
X14320000Y-12970000D01*
X14320000Y-12930000D02*
X14280000Y-12970000D01*
X14330000Y-12710000D02*
X14370000Y-12750000D01*
X14370000Y-12710000D02*
X14330000Y-12750000D01*
X14330000Y-12790000D02*
X14370000Y-12830000D01*
X14370000Y-12790000D02*
X14330000Y-12830000D01*
X14330000Y-12870000D02*
X14370000Y-12910000D01*
X14370000Y-12870000D02*
X14330000Y-12910000D01*
X14410000Y-12750000D02*
X14450000Y-12790000D01*
X14450000Y-12750000D02*
X14410000Y-12790000D01*
X14410000Y-12830000D02*
X14450000Y-12870000D01*
X14450000Y-12830000D02*
X14410000Y-12870000D01*
X14900000Y-12770000D02*
X14940000Y-12810000D01*
X14940000Y-12770000D02*
X14900000Y-12810000D01*
X14900000Y-12870000D02*
X14940000Y-12910000D01*
X14940000Y-12870000D02*
X14900000Y-12910000D01*
X14900000Y-12970000D02*
X14940000Y-13010000D01*
X14940000Y-12970000D02*
X14900000Y-13010000D01*
X14900000Y-13070000D02*
X14940000Y-13110000D01*
X14940000Y-13070000D02*
X14900000Y-13110000D01*
X14900000Y-13170000D02*
X14940000Y-13210000D01*
X14940000Y-13170000D02*
X14900000Y-13210000D01*
X14900000Y-13270000D02*
X14940000Y-13310000D01*
X14940000Y-13270000D02*
X14900000Y-13310000D01*
X14900000Y-13370000D02*
X14940000Y-13410000D01*
X14940000Y-13370000D02*
X14900000Y-13410000D01*
X14900000Y-13470000D02*
X14940000Y-13510000D01*
X14940000Y-13470000D02*
X14900000Y-13510000D01*
X14900000Y-13570000D02*
X14940000Y-13610000D01*
X14940000Y-13570000D02*
X14900000Y-13610000D01*
X14900000Y-13670000D02*
X14940000Y-13710000D01*
X14940000Y-13670000D02*
X14900000Y-13710000D01*
X14940000Y-11260000D02*
X14980000Y-11300000D01*
X14980000Y-11260000D02*
X14940000Y-11300000D01*
X14940000Y-11340000D02*
X14980000Y-11380000D01*
X14980000Y-11340000D02*
X14940000Y-11380000D01*
X14950000Y-11430000D02*
X14990000Y-11470000D01*
X14990000Y-11430000D02*
X14950000Y-11470000D01*
X14980000Y-12720000D02*
X15020000Y-12760000D01*
X15020000Y-12720000D02*
X14980000Y-12760000D01*
X14980000Y-12820000D02*
X15020000Y-12860000D01*
X15020000Y-12820000D02*
X14980000Y-12860000D01*
X14980000Y-12920000D02*
X15020000Y-12960000D01*
X15020000Y-12920000D02*
X14980000Y-12960000D01*
X14980000Y-13020000D02*
X15020000Y-13060000D01*
X15020000Y-13020000D02*
X14980000Y-13060000D01*
X14980000Y-13120000D02*
X15020000Y-13160000D01*
X15020000Y-13120000D02*
X14980000Y-13160000D01*
X14980000Y-13220000D02*
X15020000Y-13260000D01*
X15020000Y-13220000D02*
X14980000Y-13260000D01*
X14980000Y-13320000D02*
X15020000Y-13360000D01*
X15020000Y-13320000D02*
X14980000Y-13360000D01*
X14980000Y-13420000D02*
X15020000Y-13460000D01*
X15020000Y-13420000D02*
X14980000Y-13460000D01*
X14980000Y-13520000D02*
X15020000Y-13560000D01*
X15020000Y-13520000D02*
X14980000Y-13560000D01*
X14980000Y-13620000D02*
X15020000Y-13660000D01*
X15020000Y-13620000D02*
X14980000Y-13660000D01*
X15010000Y-11220000D02*
X15050000Y-11260000D01*
X15050000Y-11220000D02*
X15010000Y-11260000D01*
X15010000Y-11300000D02*
X15050000Y-11340000D01*
X15050000Y-11300000D02*
X15010000Y-11340000D01*
X15030000Y-11380000D02*
X15070000Y-11420000D01*
X15070000Y-11380000D02*
X15030000Y-11420000D01*
X15030000Y-11520000D02*
X15070000Y-11560000D01*
X15070000Y-11520000D02*
X15030000Y-11560000D01*
X15070000Y-11450000D02*
X15110000Y-11490000D01*
X15110000Y-11450000D02*
X15070000Y-11490000D01*
X15100000Y-11100000D02*
X15140000Y-11140000D01*
X15140000Y-11100000D02*
X15100000Y-11140000D01*
X15110000Y-11380000D02*
X15150000Y-11420000D01*
X15150000Y-11380000D02*
X15110000Y-11420000D01*
X15110000Y-11520000D02*
X15150000Y-11560000D01*
X15150000Y-11520000D02*
X15110000Y-11560000D01*
X15150000Y-11450000D02*
X15190000Y-11490000D01*
X15190000Y-11450000D02*
X15150000Y-11490000D01*
X15180000Y-11100000D02*
X15220000Y-11140000D01*
X15220000Y-11100000D02*
X15180000Y-11140000D01*
X15190000Y-11380000D02*
X15230000Y-11420000D01*
X15230000Y-11380000D02*
X15190000Y-11420000D01*
X15190000Y-11520000D02*
X15230000Y-11560000D01*
X15230000Y-11520000D02*
X15190000Y-11560000D01*
X15220000Y-11030000D02*
X15260000Y-11070000D01*
X15260000Y-11030000D02*
X15220000Y-11070000D01*
X15230000Y-11450000D02*
X15270000Y-11490000D01*
X15270000Y-11450000D02*
X15230000Y-11490000D01*
X15260000Y-10960000D02*
X15300000Y-11000000D01*
X15300000Y-10960000D02*
X15260000Y-11000000D01*
X15260000Y-11100000D02*
X15300000Y-11140000D01*
X15300000Y-11100000D02*
X15260000Y-11140000D01*
X15270000Y-11380000D02*
X15310000Y-11420000D01*
X15310000Y-11380000D02*
X15270000Y-11420000D01*
X15300000Y-11030000D02*
X15340000Y-11070000D01*
X15340000Y-11030000D02*
X15300000Y-11070000D01*
X15310000Y-11450000D02*
X15350000Y-11490000D01*
X15350000Y-11450000D02*
X15310000Y-11490000D01*
X15340000Y-10960000D02*
X15380000Y-11000000D01*
X15380000Y-10960000D02*
X15340000Y-11000000D01*
X15340000Y-11100000D02*
X15380000Y-11140000D01*
X15380000Y-11100000D02*
X15340000Y-11140000D01*
X15350000Y-11380000D02*
X15390000Y-11420000D01*
X15390000Y-11380000D02*
X15350000Y-11420000D01*
X15380000Y-11030000D02*
X15420000Y-11070000D01*
X15420000Y-11030000D02*
X15380000Y-11070000D01*
X15410000Y-11980000D02*
X15450000Y-12020000D01*
X15450000Y-11980000D02*
X15410000Y-12020000D01*
X15410000Y-12060000D02*
X15450000Y-12100000D01*
X15450000Y-12060000D02*
X15410000Y-12100000D01*
X15420000Y-10960000D02*
X15460000Y-11000000D01*
X15460000Y-10960000D02*
X15420000Y-11000000D01*
X15420000Y-11100000D02*
X15460000Y-11140000D01*
X15460000Y-11100000D02*
X15420000Y-11140000D01*
X15420000Y-11180000D02*
X15460000Y-11220000D01*
X15460000Y-11180000D02*
X15420000Y-11220000D01*
X15420000Y-11260000D02*
X15460000Y-11300000D01*
X15460000Y-11260000D02*
X15420000Y-11300000D01*
X15420000Y-11340000D02*
X15460000Y-11380000D01*
X15460000Y-11340000D02*
X15420000Y-11380000D01*
X15460000Y-11030000D02*
X15500000Y-11070000D01*
X15500000Y-11030000D02*
X15460000Y-11070000D01*
X15480000Y-11940000D02*
X15520000Y-11980000D01*
X15520000Y-11940000D02*
X15480000Y-11980000D01*
X15480000Y-12020000D02*
X15520000Y-12060000D01*
X15520000Y-12020000D02*
X15480000Y-12060000D01*
X15480000Y-12100000D02*
X15520000Y-12140000D01*
X15520000Y-12100000D02*
X15480000Y-12140000D01*
X15490000Y-11140000D02*
X15530000Y-11180000D01*
X15530000Y-11140000D02*
X15490000Y-11180000D01*
X15490000Y-11220000D02*
X15530000Y-11260000D01*
X15530000Y-11220000D02*
X15490000Y-11260000D01*
X15550000Y-11900000D02*
X15590000Y-11940000D01*
X15590000Y-11900000D02*
X15550000Y-11940000D01*
X15550000Y-11980000D02*
X15590000Y-12020000D01*
X15590000Y-11980000D02*
X15550000Y-12020000D01*
X15550000Y-12060000D02*
X15590000Y-12100000D01*
X15590000Y-12060000D02*
X15550000Y-12100000D01*
X15620000Y-11800000D02*
X15660000Y-11840000D01*
X15660000Y-11800000D02*
X15620000Y-11840000D01*
X15620000Y-11940000D02*
X15660000Y-11980000D01*
X15660000Y-11940000D02*
X15620000Y-11980000D01*
X15620000Y-12020000D02*
X15660000Y-12060000D01*
X15660000Y-12020000D02*
X15620000Y-12060000D01*
X15620000Y-12100000D02*
X15660000Y-12140000D01*
X15660000Y-12100000D02*
X15620000Y-12140000D01*
X15660000Y-11870000D02*
X15700000Y-11910000D01*
X15700000Y-11870000D02*
X15660000Y-11910000D01*
X15700000Y-11800000D02*
X15740000Y-11840000D01*
X15740000Y-11800000D02*
X15700000Y-11840000D01*
X15700000Y-11940000D02*
X15740000Y-11980000D01*
X15740000Y-11940000D02*
X15700000Y-11980000D01*
X15740000Y-11870000D02*
X15780000Y-11910000D01*
X15780000Y-11870000D02*
X15740000Y-11910000D01*
X15780000Y-11800000D02*
X15820000Y-11840000D01*
X15820000Y-11800000D02*
X15780000Y-11840000D01*
X15780000Y-11940000D02*
X15820000Y-11980000D01*
X15820000Y-11940000D02*
X15780000Y-11980000D01*
X15800000Y-13960000D02*
X15840000Y-14000000D01*
X15840000Y-13960000D02*
X15800000Y-14000000D01*
X15800000Y-14060000D02*
X15840000Y-14100000D01*
X15840000Y-14060000D02*
X15800000Y-14100000D01*
X15800000Y-14160000D02*
X15840000Y-14200000D01*
X15840000Y-14160000D02*
X15800000Y-14200000D01*
X15800000Y-14260000D02*
X15840000Y-14300000D01*
X15840000Y-14260000D02*
X15800000Y-14300000D01*
X15800000Y-14360000D02*
X15840000Y-14400000D01*
X15840000Y-14360000D02*
X15800000Y-14400000D01*
X15820000Y-11870000D02*
X15860000Y-11910000D01*
X15860000Y-11870000D02*
X15820000Y-11910000D01*
X15860000Y-11800000D02*
X15900000Y-11840000D01*
X15900000Y-11800000D02*
X15860000Y-11840000D01*
X15860000Y-11940000D02*
X15900000Y-11980000D01*
X15900000Y-11940000D02*
X15860000Y-11980000D01*
X15880000Y-14010000D02*
X15920000Y-14050000D01*
X15920000Y-14010000D02*
X15880000Y-14050000D01*
X15880000Y-14110000D02*
X15920000Y-14150000D01*
X15920000Y-14110000D02*
X15880000Y-14150000D01*
X15880000Y-14210000D02*
X15920000Y-14250000D01*
X15920000Y-14210000D02*
X15880000Y-14250000D01*
X15880000Y-14310000D02*
X15920000Y-14350000D01*
X15920000Y-14310000D02*
X15880000Y-14350000D01*
X15880000Y-14410000D02*
X15920000Y-14450000D01*
X15920000Y-14410000D02*
X15880000Y-14450000D01*
X15900000Y-11870000D02*
X15940000Y-11910000D01*
X15940000Y-11870000D02*
X15900000Y-11910000D01*
X15940000Y-11800000D02*
X15980000Y-11840000D01*
X15980000Y-11800000D02*
X15940000Y-11840000D01*
X15940000Y-11940000D02*
X15980000Y-11980000D01*
X15980000Y-11940000D02*
X15940000Y-11980000D01*
X15980000Y-11870000D02*
X16020000Y-11910000D01*
X16020000Y-11870000D02*
X15980000Y-11910000D01*
X16020000Y-11800000D02*
X16060000Y-11840000D01*
X16060000Y-11800000D02*
X16020000Y-11840000D01*
X16020000Y-11940000D02*
X16060000Y-11980000D01*
X16060000Y-11940000D02*
X16020000Y-11980000D01*
X16020000Y-12020000D02*
X16060000Y-12060000D01*
X16060000Y-12020000D02*
X16020000Y-12060000D01*
X16020000Y-12100000D02*
X16060000Y-12140000D01*
X16060000Y-12100000D02*
X16020000Y-12140000D01*
X16090000Y-11900000D02*
X16130000Y-11940000D01*
X16130000Y-11900000D02*
X16090000Y-11940000D01*
X16090000Y-11980000D02*
X16130000Y-12020000D01*
X16130000Y-11980000D02*
X16090000Y-12020000D01*
X16090000Y-12060000D02*
X16130000Y-12100000D01*
X16130000Y-12060000D02*
X16090000Y-12100000D01*
X16280000Y-14010000D02*
X16320000Y-14050000D01*
X16320000Y-14010000D02*
X16280000Y-14050000D01*
X16280000Y-14110000D02*
X16320000Y-14150000D01*
X16320000Y-14110000D02*
X16280000Y-14150000D01*
X16280000Y-14210000D02*
X16320000Y-14250000D01*
X16320000Y-14210000D02*
X16280000Y-14250000D01*
X16280000Y-14310000D02*
X16320000Y-14350000D01*
X16320000Y-14310000D02*
X16280000Y-14350000D01*
X16280000Y-14410000D02*
X16320000Y-14450000D01*
X16320000Y-14410000D02*
X16280000Y-14450000D01*
X16360000Y-13960000D02*
X16400000Y-14000000D01*
X16400000Y-13960000D02*
X16360000Y-14000000D01*
X16360000Y-14060000D02*
X16400000Y-14100000D01*
X16400000Y-14060000D02*
X16360000Y-14100000D01*
X16360000Y-14160000D02*
X16400000Y-14200000D01*
X16400000Y-14160000D02*
X16360000Y-14200000D01*
X16360000Y-14260000D02*
X16400000Y-14300000D01*
X16400000Y-14260000D02*
X16360000Y-14300000D01*
X16360000Y-14360000D02*
X16400000Y-14400000D01*
X16400000Y-14360000D02*
X16360000Y-14400000D01*
X16777500Y-10860000D02*
X16817500Y-10900000D01*
X16817500Y-10860000D02*
X16777500Y-10900000D01*
X16882500Y-10860000D02*
X16922500Y-10900000D01*
X16922500Y-10860000D02*
X16882500Y-10900000D01*
X17057500Y-13440000D02*
X17097500Y-13480000D01*
X17097500Y-13440000D02*
X17057500Y-13480000D01*
X17162500Y-13440000D02*
X17202500Y-13480000D01*
X17202500Y-13440000D02*
X17162500Y-13480000D01*
X17870000Y-13960000D02*
X17910000Y-14000000D01*
X17910000Y-13960000D02*
X17870000Y-14000000D01*
X17870000Y-14060000D02*
X17910000Y-14100000D01*
X17910000Y-14060000D02*
X17870000Y-14100000D01*
X17870000Y-14160000D02*
X17910000Y-14200000D01*
X17910000Y-14160000D02*
X17870000Y-14200000D01*
X17870000Y-14260000D02*
X17910000Y-14300000D01*
X17910000Y-14260000D02*
X17870000Y-14300000D01*
X17870000Y-14360000D02*
X17910000Y-14400000D01*
X17910000Y-14360000D02*
X17870000Y-14400000D01*
X17950000Y-13910000D02*
X17990000Y-13950000D01*
X17990000Y-13910000D02*
X17950000Y-13950000D01*
X17950000Y-14010000D02*
X17990000Y-14050000D01*
X17990000Y-14010000D02*
X17950000Y-14050000D01*
X17950000Y-14110000D02*
X17990000Y-14150000D01*
X17990000Y-14110000D02*
X17950000Y-14150000D01*
X17950000Y-14210000D02*
X17990000Y-14250000D01*
X17990000Y-14210000D02*
X17950000Y-14250000D01*
X17950000Y-14310000D02*
X17990000Y-14350000D01*
X17990000Y-14310000D02*
X17950000Y-14350000D01*
X17950000Y-14410000D02*
X17990000Y-14450000D01*
X17990000Y-14410000D02*
X17950000Y-14450000D01*
X18350000Y-13910000D02*
X18390000Y-13950000D01*
X18390000Y-13910000D02*
X18350000Y-13950000D01*
X18350000Y-14010000D02*
X18390000Y-14050000D01*
X18390000Y-14010000D02*
X18350000Y-14050000D01*
X18350000Y-14110000D02*
X18390000Y-14150000D01*
X18390000Y-14110000D02*
X18350000Y-14150000D01*
X18350000Y-14210000D02*
X18390000Y-14250000D01*
X18390000Y-14210000D02*
X18350000Y-14250000D01*
X18350000Y-14310000D02*
X18390000Y-14350000D01*
X18390000Y-14310000D02*
X18350000Y-14350000D01*
X18350000Y-14410000D02*
X18390000Y-14450000D01*
X18390000Y-14410000D02*
X18350000Y-14450000D01*
X18430000Y-13960000D02*
X18470000Y-14000000D01*
X18470000Y-13960000D02*
X18430000Y-14000000D01*
X18430000Y-14060000D02*
X18470000Y-14100000D01*
X18470000Y-14060000D02*
X18430000Y-14100000D01*
X18430000Y-14160000D02*
X18470000Y-14200000D01*
X18470000Y-14160000D02*
X18430000Y-14200000D01*
X18430000Y-14260000D02*
X18470000Y-14300000D01*
X18470000Y-14260000D02*
X18430000Y-14300000D01*
X18430000Y-14360000D02*
X18470000Y-14400000D01*
X18470000Y-14360000D02*
X18430000Y-14400000D01*
X18970000Y-13960000D02*
X19010000Y-14000000D01*
X19010000Y-13960000D02*
X18970000Y-14000000D01*
X18970000Y-14060000D02*
X19010000Y-14100000D01*
X19010000Y-14060000D02*
X18970000Y-14100000D01*
X18970000Y-14160000D02*
X19010000Y-14200000D01*
X19010000Y-14160000D02*
X18970000Y-14200000D01*
X18970000Y-14260000D02*
X19010000Y-14300000D01*
X19010000Y-14260000D02*
X18970000Y-14300000D01*
X18970000Y-14360000D02*
X19010000Y-14400000D01*
X19010000Y-14360000D02*
X18970000Y-14400000D01*
X19050000Y-13910000D02*
X19090000Y-13950000D01*
X19090000Y-13910000D02*
X19050000Y-13950000D01*
X19050000Y-14010000D02*
X19090000Y-14050000D01*
X19090000Y-14010000D02*
X19050000Y-14050000D01*
X19050000Y-14110000D02*
X19090000Y-14150000D01*
X19090000Y-14110000D02*
X19050000Y-14150000D01*
X19050000Y-14210000D02*
X19090000Y-14250000D01*
X19090000Y-14210000D02*
X19050000Y-14250000D01*
X19050000Y-14310000D02*
X19090000Y-14350000D01*
X19090000Y-14310000D02*
X19050000Y-14350000D01*
X19050000Y-14410000D02*
X19090000Y-14450000D01*
X19090000Y-14410000D02*
X19050000Y-14450000D01*
X19450000Y-13910000D02*
X19490000Y-13950000D01*
X19490000Y-13910000D02*
X19450000Y-13950000D01*
X19450000Y-14010000D02*
X19490000Y-14050000D01*
X19490000Y-14010000D02*
X19450000Y-14050000D01*
X19450000Y-14110000D02*
X19490000Y-14150000D01*
X19490000Y-14110000D02*
X19450000Y-14150000D01*
X19450000Y-14210000D02*
X19490000Y-14250000D01*
X19490000Y-14210000D02*
X19450000Y-14250000D01*
X19450000Y-14310000D02*
X19490000Y-14350000D01*
X19490000Y-14310000D02*
X19450000Y-14350000D01*
X19450000Y-14410000D02*
X19490000Y-14450000D01*
X19490000Y-14410000D02*
X19450000Y-14450000D01*
X19530000Y-13960000D02*
X19570000Y-14000000D01*
X19570000Y-13960000D02*
X19530000Y-14000000D01*
X19530000Y-14060000D02*
X19570000Y-14100000D01*
X19570000Y-14060000D02*
X19530000Y-14100000D01*
X19530000Y-14160000D02*
X19570000Y-14200000D01*
X19570000Y-14160000D02*
X19530000Y-14200000D01*
X19530000Y-14260000D02*
X19570000Y-14300000D01*
X19570000Y-14260000D02*
X19530000Y-14300000D01*
X19530000Y-14360000D02*
X19570000Y-14400000D01*
X19570000Y-14360000D02*
X19530000Y-14400000D01*
X20120000Y-13190000D02*
X20160000Y-13230000D01*
X20160000Y-13190000D02*
X20120000Y-13230000D01*
X20120000Y-13270000D02*
X20160000Y-13310000D01*
X20160000Y-13270000D02*
X20120000Y-13310000D01*
X20120000Y-13350000D02*
X20160000Y-13390000D01*
X20160000Y-13350000D02*
X20120000Y-13390000D01*
X20120000Y-13430000D02*
X20160000Y-13470000D01*
X20160000Y-13430000D02*
X20120000Y-13470000D01*
X20120000Y-13510000D02*
X20160000Y-13550000D01*
X20160000Y-13510000D02*
X20120000Y-13550000D01*
X20120000Y-13590000D02*
X20160000Y-13630000D01*
X20160000Y-13590000D02*
X20120000Y-13630000D01*
X20120000Y-13670000D02*
X20160000Y-13710000D01*
X20160000Y-13670000D02*
X20120000Y-13710000D01*
X20190000Y-13150000D02*
X20230000Y-13190000D01*
X20230000Y-13150000D02*
X20190000Y-13190000D01*
X20190000Y-13230000D02*
X20230000Y-13270000D01*
X20230000Y-13230000D02*
X20190000Y-13270000D01*
X20190000Y-13310000D02*
X20230000Y-13350000D01*
X20230000Y-13310000D02*
X20190000Y-13350000D01*
X20190000Y-13390000D02*
X20230000Y-13430000D01*
X20230000Y-13390000D02*
X20190000Y-13430000D01*
X20190000Y-13470000D02*
X20230000Y-13510000D01*
X20230000Y-13470000D02*
X20190000Y-13510000D01*
X20190000Y-13550000D02*
X20230000Y-13590000D01*
X20230000Y-13550000D02*
X20190000Y-13590000D01*
X20190000Y-13630000D02*
X20230000Y-13670000D01*
X20230000Y-13630000D02*
X20190000Y-13670000D01*
X20260000Y-13190000D02*
X20300000Y-13230000D01*
X20300000Y-13190000D02*
X20260000Y-13230000D01*
X20260000Y-13270000D02*
X20300000Y-13310000D01*
X20300000Y-13270000D02*
X20260000Y-13310000D01*
X20260000Y-13350000D02*
X20300000Y-13390000D01*
X20300000Y-13350000D02*
X20260000Y-13390000D01*
X20260000Y-13430000D02*
X20300000Y-13470000D01*
X20300000Y-13430000D02*
X20260000Y-13470000D01*
X20260000Y-13510000D02*
X20300000Y-13550000D01*
X20300000Y-13510000D02*
X20260000Y-13550000D01*
X20260000Y-13590000D02*
X20300000Y-13630000D01*
X20300000Y-13590000D02*
X20260000Y-13630000D01*
X20260000Y-13670000D02*
X20300000Y-13710000D01*
X20300000Y-13670000D02*
X20260000Y-13710000D01*
X20370000Y-10730000D02*
X20410000Y-10770000D01*
X20410000Y-10730000D02*
X20370000Y-10770000D01*
X20370000Y-10870000D02*
X20410000Y-10910000D01*
X20410000Y-10870000D02*
X20370000Y-10910000D01*
X20410000Y-10800000D02*
X20450000Y-10840000D01*
X20450000Y-10800000D02*
X20410000Y-10840000D01*
X20450000Y-10730000D02*
X20490000Y-10770000D01*
X20490000Y-10730000D02*
X20450000Y-10770000D01*
X20450000Y-10870000D02*
X20490000Y-10910000D01*
X20490000Y-10870000D02*
X20450000Y-10910000D01*
X20490000Y-10800000D02*
X20530000Y-10840000D01*
X20530000Y-10800000D02*
X20490000Y-10840000D01*
X20530000Y-10730000D02*
X20570000Y-10770000D01*
X20570000Y-10730000D02*
X20530000Y-10770000D01*
X20530000Y-10870000D02*
X20570000Y-10910000D01*
X20570000Y-10870000D02*
X20530000Y-10910000D01*
X20570000Y-10800000D02*
X20610000Y-10840000D01*
X20610000Y-10800000D02*
X20570000Y-10840000D01*
X20590000Y-14510000D02*
X20630000Y-14550000D01*
X20630000Y-14510000D02*
X20590000Y-14550000D01*
X20610000Y-10730000D02*
X20650000Y-10770000D01*
X20650000Y-10730000D02*
X20610000Y-10770000D01*
X20610000Y-10870000D02*
X20650000Y-10910000D01*
X20650000Y-10870000D02*
X20610000Y-10910000D01*
X20630000Y-9460000D02*
X20670000Y-9500000D01*
X20670000Y-9460000D02*
X20630000Y-9500000D01*
X20650000Y-10800000D02*
X20690000Y-10840000D01*
X20690000Y-10800000D02*
X20650000Y-10840000D01*
X20690000Y-10730000D02*
X20730000Y-10770000D01*
X20730000Y-10730000D02*
X20690000Y-10770000D01*
X20690000Y-10870000D02*
X20730000Y-10910000D01*
X20730000Y-10870000D02*
X20690000Y-10910000D01*
X20690000Y-14510000D02*
X20730000Y-14550000D01*
X20730000Y-14510000D02*
X20690000Y-14550000D01*
X20720000Y-9460000D02*
X20760000Y-9500000D01*
X20760000Y-9460000D02*
X20720000Y-9500000D01*
X20730000Y-10800000D02*
X20770000Y-10840000D01*
X20770000Y-10800000D02*
X20730000Y-10840000D01*
X20770000Y-10730000D02*
X20810000Y-10770000D01*
X20810000Y-10730000D02*
X20770000Y-10770000D01*
X20770000Y-10870000D02*
X20810000Y-10910000D01*
X20810000Y-10870000D02*
X20770000Y-10910000D01*
X20790000Y-14410000D02*
X20830000Y-14450000D01*
X20830000Y-14410000D02*
X20790000Y-14450000D01*
X20790000Y-14510000D02*
X20830000Y-14550000D01*
X20830000Y-14510000D02*
X20790000Y-14550000D01*
X20810000Y-9460000D02*
X20850000Y-9500000D01*
X20850000Y-9460000D02*
X20810000Y-9500000D01*
X20810000Y-9550000D02*
X20850000Y-9590000D01*
X20850000Y-9550000D02*
X20810000Y-9590000D01*
X20810000Y-10800000D02*
X20850000Y-10840000D01*
X20850000Y-10800000D02*
X20810000Y-10840000D01*
X20850000Y-10730000D02*
X20890000Y-10770000D01*
X20890000Y-10730000D02*
X20850000Y-10770000D01*
X20850000Y-10870000D02*
X20890000Y-10910000D01*
X20890000Y-10870000D02*
X20850000Y-10910000D01*
X20890000Y-10800000D02*
X20930000Y-10840000D01*
X20930000Y-10800000D02*
X20890000Y-10840000D01*
X20890000Y-14210000D02*
X20930000Y-14250000D01*
X20930000Y-14210000D02*
X20890000Y-14250000D01*
X20890000Y-14310000D02*
X20930000Y-14350000D01*
X20930000Y-14310000D02*
X20890000Y-14350000D01*
X20890000Y-14410000D02*
X20930000Y-14450000D01*
X20930000Y-14410000D02*
X20890000Y-14450000D01*
X20890000Y-14510000D02*
X20930000Y-14550000D01*
X20930000Y-14510000D02*
X20890000Y-14550000D01*
X20900000Y-9460000D02*
X20940000Y-9500000D01*
X20940000Y-9460000D02*
X20900000Y-9500000D01*
X20900000Y-9550000D02*
X20940000Y-9590000D01*
X20940000Y-9550000D02*
X20900000Y-9590000D01*
X20900000Y-9640000D02*
X20940000Y-9680000D01*
X20940000Y-9640000D02*
X20900000Y-9680000D01*
X20900000Y-9730000D02*
X20940000Y-9770000D01*
X20940000Y-9730000D02*
X20900000Y-9770000D01*
X15630000Y-12470000D02*
G75*
G03X15630000Y-12470000I-30000J0D01*
G01*
X15630000Y-12670000D02*
G75*
G03X15630000Y-12670000I-30000J0D01*
G01*
X15630000Y-12870000D02*
G75*
G03X15630000Y-12870000I-30000J0D01*
G01*
X15690000Y-12370000D02*
G75*
G03X15690000Y-12370000I-30000J0D01*
G01*
X15690000Y-12570000D02*
G75*
G03X15690000Y-12570000I-30000J0D01*
G01*
X15690000Y-12770000D02*
G75*
G03X15690000Y-12770000I-30000J0D01*
G01*
X15720000Y-10780000D02*
G75*
G03X15720000Y-10780000I-30000J0D01*
G01*
X15720000Y-10980000D02*
G75*
G03X15720000Y-10980000I-30000J0D01*
G01*
X15720000Y-11180000D02*
G75*
G03X15720000Y-11180000I-30000J0D01*
G01*
X15750000Y-12470000D02*
G75*
G03X15750000Y-12470000I-30000J0D01*
G01*
X15750000Y-12670000D02*
G75*
G03X15750000Y-12670000I-30000J0D01*
G01*
X15750000Y-12870000D02*
G75*
G03X15750000Y-12870000I-30000J0D01*
G01*
X15780000Y-10880000D02*
G75*
G03X15780000Y-10880000I-30000J0D01*
G01*
X15780000Y-11080000D02*
G75*
G03X15780000Y-11080000I-30000J0D01*
G01*
X15780000Y-11280000D02*
G75*
G03X15780000Y-11280000I-30000J0D01*
G01*
X15810000Y-12370000D02*
G75*
G03X15810000Y-12370000I-30000J0D01*
G01*
X15810000Y-12570000D02*
G75*
G03X15810000Y-12570000I-30000J0D01*
G01*
X15810000Y-12770000D02*
G75*
G03X15810000Y-12770000I-30000J0D01*
G01*
X15840000Y-10780000D02*
G75*
G03X15840000Y-10780000I-30000J0D01*
G01*
X15840000Y-10980000D02*
G75*
G03X15840000Y-10980000I-30000J0D01*
G01*
X15840000Y-11180000D02*
G75*
G03X15840000Y-11180000I-30000J0D01*
G01*
X15870000Y-12470000D02*
G75*
G03X15870000Y-12470000I-30000J0D01*
G01*
X15870000Y-12670000D02*
G75*
G03X15870000Y-12670000I-30000J0D01*
G01*
X15870000Y-12870000D02*
G75*
G03X15870000Y-12870000I-30000J0D01*
G01*
X15900000Y-10880000D02*
G75*
G03X15900000Y-10880000I-30000J0D01*
G01*
X15900000Y-11080000D02*
G75*
G03X15900000Y-11080000I-30000J0D01*
G01*
X15900000Y-11280000D02*
G75*
G03X15900000Y-11280000I-30000J0D01*
G01*
X15930000Y-12370000D02*
G75*
G03X15930000Y-12370000I-30000J0D01*
G01*
X15930000Y-12570000D02*
G75*
G03X15930000Y-12570000I-30000J0D01*
G01*
X15930000Y-12770000D02*
G75*
G03X15930000Y-12770000I-30000J0D01*
G01*
X15960000Y-10780000D02*
G75*
G03X15960000Y-10780000I-30000J0D01*
G01*
X15960000Y-10980000D02*
G75*
G03X15960000Y-10980000I-30000J0D01*
G01*
X15960000Y-11180000D02*
G75*
G03X15960000Y-11180000I-30000J0D01*
G01*
X15990000Y-12470000D02*
G75*
G03X15990000Y-12470000I-30000J0D01*
G01*
X15990000Y-12670000D02*
G75*
G03X15990000Y-12670000I-30000J0D01*
G01*
X15990000Y-12870000D02*
G75*
G03X15990000Y-12870000I-30000J0D01*
G01*
X16020000Y-10880000D02*
G75*
G03X16020000Y-10880000I-30000J0D01*
G01*
X16020000Y-11080000D02*
G75*
G03X16020000Y-11080000I-30000J0D01*
G01*
X16020000Y-11280000D02*
G75*
G03X16020000Y-11280000I-30000J0D01*
G01*
X16050000Y-12370000D02*
G75*
G03X16050000Y-12370000I-30000J0D01*
G01*
X16050000Y-12570000D02*
G75*
G03X16050000Y-12570000I-30000J0D01*
G01*
X16050000Y-12770000D02*
G75*
G03X16050000Y-12770000I-30000J0D01*
G01*
X16080000Y-10780000D02*
G75*
G03X16080000Y-10780000I-30000J0D01*
G01*
X16080000Y-10980000D02*
G75*
G03X16080000Y-10980000I-30000J0D01*
G01*
X16080000Y-11180000D02*
G75*
G03X16080000Y-11180000I-30000J0D01*
G01*
X16110000Y-12470000D02*
G75*
G03X16110000Y-12470000I-30000J0D01*
G01*
X16110000Y-12670000D02*
G75*
G03X16110000Y-12670000I-30000J0D01*
G01*
X16110000Y-12870000D02*
G75*
G03X16110000Y-12870000I-30000J0D01*
G01*
X16140000Y-10880000D02*
G75*
G03X16140000Y-10880000I-30000J0D01*
G01*
X16140000Y-11080000D02*
G75*
G03X16140000Y-11080000I-30000J0D01*
G01*
X16140000Y-11280000D02*
G75*
G03X16140000Y-11280000I-30000J0D01*
G01*
X16170000Y-12370000D02*
G75*
G03X16170000Y-12370000I-30000J0D01*
G01*
X16170000Y-12570000D02*
G75*
G03X16170000Y-12570000I-30000J0D01*
G01*
X16170000Y-12770000D02*
G75*
G03X16170000Y-12770000I-30000J0D01*
G01*
X16200000Y-10780000D02*
G75*
G03X16200000Y-10780000I-30000J0D01*
G01*
X16200000Y-10980000D02*
G75*
G03X16200000Y-10980000I-30000J0D01*
G01*
X16200000Y-11180000D02*
G75*
G03X16200000Y-11180000I-30000J0D01*
G01*
X16230000Y-12470000D02*
G75*
G03X16230000Y-12470000I-30000J0D01*
G01*
X16230000Y-12670000D02*
G75*
G03X16230000Y-12670000I-30000J0D01*
G01*
X16230000Y-12870000D02*
G75*
G03X16230000Y-12870000I-30000J0D01*
G01*
X16260000Y-10880000D02*
G75*
G03X16260000Y-10880000I-30000J0D01*
G01*
X16260000Y-11080000D02*
G75*
G03X16260000Y-11080000I-30000J0D01*
G01*
X16260000Y-11280000D02*
G75*
G03X16260000Y-11280000I-30000J0D01*
G01*
X16290000Y-12370000D02*
G75*
G03X16290000Y-12370000I-30000J0D01*
G01*
X16290000Y-12570000D02*
G75*
G03X16290000Y-12570000I-30000J0D01*
G01*
X16290000Y-12770000D02*
G75*
G03X16290000Y-12770000I-30000J0D01*
G01*
X16310000Y-11600000D02*
G75*
G03X16310000Y-11600000I-30000J0D01*
G01*
X16310000Y-11800000D02*
G75*
G03X16310000Y-11800000I-30000J0D01*
G01*
X16310000Y-12000000D02*
G75*
G03X16310000Y-12000000I-30000J0D01*
G01*
X16320000Y-10780000D02*
G75*
G03X16320000Y-10780000I-30000J0D01*
G01*
X16320000Y-10980000D02*
G75*
G03X16320000Y-10980000I-30000J0D01*
G01*
X16320000Y-11180000D02*
G75*
G03X16320000Y-11180000I-30000J0D01*
G01*
X16370000Y-11700000D02*
G75*
G03X16370000Y-11700000I-30000J0D01*
G01*
X16370000Y-11900000D02*
G75*
G03X16370000Y-11900000I-30000J0D01*
G01*
X16370000Y-12100000D02*
G75*
G03X16370000Y-12100000I-30000J0D01*
G01*
X16380000Y-10880000D02*
G75*
G03X16380000Y-10880000I-30000J0D01*
G01*
X16380000Y-11080000D02*
G75*
G03X16380000Y-11080000I-30000J0D01*
G01*
X16380000Y-11280000D02*
G75*
G03X16380000Y-11280000I-30000J0D01*
G01*
X16430000Y-11600000D02*
G75*
G03X16430000Y-11600000I-30000J0D01*
G01*
X16430000Y-11800000D02*
G75*
G03X16430000Y-11800000I-30000J0D01*
G01*
X16430000Y-12000000D02*
G75*
G03X16430000Y-12000000I-30000J0D01*
G01*
X16490000Y-11700000D02*
G75*
G03X16490000Y-11700000I-30000J0D01*
G01*
X16490000Y-11900000D02*
G75*
G03X16490000Y-11900000I-30000J0D01*
G01*
X16490000Y-12100000D02*
G75*
G03X16490000Y-12100000I-30000J0D01*
G01*
X16550000Y-11600000D02*
G75*
G03X16550000Y-11600000I-30000J0D01*
G01*
X16550000Y-11800000D02*
G75*
G03X16550000Y-11800000I-30000J0D01*
G01*
X16550000Y-12000000D02*
G75*
G03X16550000Y-12000000I-30000J0D01*
G01*
X16610000Y-11700000D02*
G75*
G03X16610000Y-11700000I-30000J0D01*
G01*
X16610000Y-11900000D02*
G75*
G03X16610000Y-11900000I-30000J0D01*
G01*
X16610000Y-12100000D02*
G75*
G03X16610000Y-12100000I-30000J0D01*
G01*
X16670000Y-11600000D02*
G75*
G03X16670000Y-11600000I-30000J0D01*
G01*
X16670000Y-11800000D02*
G75*
G03X16670000Y-11800000I-30000J0D01*
G01*
X16670000Y-12000000D02*
G75*
G03X16670000Y-12000000I-30000J0D01*
G01*
X16730000Y-11700000D02*
G75*
G03X16730000Y-11700000I-30000J0D01*
G01*
X16730000Y-11900000D02*
G75*
G03X16730000Y-11900000I-30000J0D01*
G01*
X16730000Y-12100000D02*
G75*
G03X16730000Y-12100000I-30000J0D01*
G01*
X16790000Y-11600000D02*
G75*
G03X16790000Y-11600000I-30000J0D01*
G01*
X16790000Y-11800000D02*
G75*
G03X16790000Y-11800000I-30000J0D01*
G01*
X16790000Y-12000000D02*
G75*
G03X16790000Y-12000000I-30000J0D01*
G01*
X16850000Y-11700000D02*
G75*
G03X16850000Y-11700000I-30000J0D01*
G01*
X16850000Y-11900000D02*
G75*
G03X16850000Y-11900000I-30000J0D01*
G01*
X16850000Y-12100000D02*
G75*
G03X16850000Y-12100000I-30000J0D01*
G01*
X16910000Y-11600000D02*
G75*
G03X16910000Y-11600000I-30000J0D01*
G01*
X16910000Y-11800000D02*
G75*
G03X16910000Y-11800000I-30000J0D01*
G01*
X16910000Y-12000000D02*
G75*
G03X16910000Y-12000000I-30000J0D01*
G01*
X16970000Y-11700000D02*
G75*
G03X16970000Y-11700000I-30000J0D01*
G01*
X16970000Y-11900000D02*
G75*
G03X16970000Y-11900000I-30000J0D01*
G01*
X16970000Y-12100000D02*
G75*
G03X16970000Y-12100000I-30000J0D01*
G01*
X17020000Y-10020000D02*
G75*
G03X17020000Y-10020000I-30000J0D01*
G01*
X17020000Y-10220000D02*
G75*
G03X17020000Y-10220000I-30000J0D01*
G01*
X17020000Y-10420000D02*
G75*
G03X17020000Y-10420000I-30000J0D01*
G01*
X17080000Y-10120000D02*
G75*
G03X17080000Y-10120000I-30000J0D01*
G01*
X17080000Y-10320000D02*
G75*
G03X17080000Y-10320000I-30000J0D01*
G01*
X17080000Y-10520000D02*
G75*
G03X17080000Y-10520000I-30000J0D01*
G01*
X17140000Y-10020000D02*
G75*
G03X17140000Y-10020000I-30000J0D01*
G01*
X17140000Y-10220000D02*
G75*
G03X17140000Y-10220000I-30000J0D01*
G01*
X17140000Y-10420000D02*
G75*
G03X17140000Y-10420000I-30000J0D01*
G01*
X17200000Y-10120000D02*
G75*
G03X17200000Y-10120000I-30000J0D01*
G01*
X17200000Y-10320000D02*
G75*
G03X17200000Y-10320000I-30000J0D01*
G01*
X17200000Y-10520000D02*
G75*
G03X17200000Y-10520000I-30000J0D01*
G01*
X17260000Y-10020000D02*
G75*
G03X17260000Y-10020000I-30000J0D01*
G01*
X17260000Y-10220000D02*
G75*
G03X17260000Y-10220000I-30000J0D01*
G01*
X17260000Y-10420000D02*
G75*
G03X17260000Y-10420000I-30000J0D01*
G01*
X17320000Y-10120000D02*
G75*
G03X17320000Y-10120000I-30000J0D01*
G01*
X17320000Y-10320000D02*
G75*
G03X17320000Y-10320000I-30000J0D01*
G01*
X17320000Y-10520000D02*
G75*
G03X17320000Y-10520000I-30000J0D01*
G01*
X17380000Y-10020000D02*
G75*
G03X17380000Y-10020000I-30000J0D01*
G01*
X17380000Y-10220000D02*
G75*
G03X17380000Y-10220000I-30000J0D01*
G01*
X17380000Y-10420000D02*
G75*
G03X17380000Y-10420000I-30000J0D01*
G01*
X17440000Y-10120000D02*
G75*
G03X17440000Y-10120000I-30000J0D01*
G01*
X17440000Y-10320000D02*
G75*
G03X17440000Y-10320000I-30000J0D01*
G01*
X17440000Y-10520000D02*
G75*
G03X17440000Y-10520000I-30000J0D01*
G01*
X17500000Y-10020000D02*
G75*
G03X17500000Y-10020000I-30000J0D01*
G01*
X17500000Y-10220000D02*
G75*
G03X17500000Y-10220000I-30000J0D01*
G01*
X17500000Y-10420000D02*
G75*
G03X17500000Y-10420000I-30000J0D01*
G01*
X17560000Y-10120000D02*
G75*
G03X17560000Y-10120000I-30000J0D01*
G01*
X17560000Y-10320000D02*
G75*
G03X17560000Y-10320000I-30000J0D01*
G01*
X17560000Y-10520000D02*
G75*
G03X17560000Y-10520000I-30000J0D01*
G01*
X17620000Y-10020000D02*
G75*
G03X17620000Y-10020000I-30000J0D01*
G01*
X17620000Y-10220000D02*
G75*
G03X17620000Y-10220000I-30000J0D01*
G01*
X17620000Y-10420000D02*
G75*
G03X17620000Y-10420000I-30000J0D01*
G01*
X17680000Y-10120000D02*
G75*
G03X17680000Y-10120000I-30000J0D01*
G01*
X17680000Y-10320000D02*
G75*
G03X17680000Y-10320000I-30000J0D01*
G01*
X17680000Y-10520000D02*
G75*
G03X17680000Y-10520000I-30000J0D01*
G01*
X20480000Y-12460000D02*
X20480000Y-12660000D01*
X20380000Y-12560000D02*
X20580000Y-12560000D01*
X20480000Y-12770000D02*
X20480000Y-12970000D01*
X20380000Y-12870000D02*
X20580000Y-12870000D01*
X20490000Y-11010000D02*
X20490000Y-11210000D01*
X20390000Y-11110000D02*
X20590000Y-11110000D01*
X20490000Y-11320000D02*
X20490000Y-11520000D01*
X20390000Y-11420000D02*
X20590000Y-11420000D01*
X20490000Y-11720000D02*
X20490000Y-11920000D01*
X20390000Y-11820000D02*
X20590000Y-11820000D01*
X20490000Y-12030000D02*
X20490000Y-12230000D01*
X20390000Y-12130000D02*
X20590000Y-12130000D01*
X20490000Y-13180000D02*
X20490000Y-13380000D01*
X20390000Y-13280000D02*
X20590000Y-13280000D01*
X20490000Y-13490000D02*
X20490000Y-13690000D01*
X20390000Y-13590000D02*
X20590000Y-13590000D01*
X20790000Y-12460000D02*
X20790000Y-12660000D01*
X20690000Y-12560000D02*
X20890000Y-12560000D01*
X20790000Y-12770000D02*
X20790000Y-12970000D01*
X20690000Y-12870000D02*
X20890000Y-12870000D01*
X20800000Y-11010000D02*
X20800000Y-11210000D01*
X20700000Y-11110000D02*
X20900000Y-11110000D01*
X20800000Y-11320000D02*
X20800000Y-11520000D01*
X20700000Y-11420000D02*
X20900000Y-11420000D01*
X20800000Y-11720000D02*
X20800000Y-11920000D01*
X20700000Y-11820000D02*
X20900000Y-11820000D01*
X20800000Y-12030000D02*
X20800000Y-12230000D01*
X20700000Y-12130000D02*
X20900000Y-12130000D01*
X20800000Y-13180000D02*
X20800000Y-13380000D01*
X20700000Y-13280000D02*
X20900000Y-13280000D01*
X20800000Y-13490000D02*
X20800000Y-13690000D01*
X20700000Y-13590000D02*
X20900000Y-13590000D01*
X13445460Y-9825460D02*
X13445460Y-9634540D01*
X13254540Y-9634540D01*
X13254540Y-9825460D01*
X13445460Y-9825460D01*
X13445460Y-14365460D02*
X13445460Y-14174540D01*
X13254540Y-14174540D01*
X13254540Y-14365460D01*
X13445460Y-14365460D01*
X19745460Y-12095460D02*
X19745460Y-11904540D01*
X19554540Y-11904540D01*
X19554540Y-12095460D01*
X19745460Y-12095460D01*
D12*
X13283928Y-15068214D02*
X13283928Y-14768214D01*
X13355357Y-14768214D01*
X13398214Y-14782500D01*
X13426786Y-14811071D01*
X13441071Y-14839643D01*
X13455357Y-14896786D01*
X13455357Y-14939643D01*
X13441071Y-14996786D01*
X13426786Y-15025357D01*
X13398214Y-15053929D01*
X13355357Y-15068214D01*
X13283928Y-15068214D01*
X13583928Y-15068214D02*
X13583928Y-14868214D01*
X13583928Y-14925357D02*
X13598214Y-14896786D01*
X13612500Y-14882500D01*
X13641071Y-14868214D01*
X13669643Y-14868214D01*
X13769643Y-15068214D02*
X13769643Y-14868214D01*
X13769643Y-14768214D02*
X13755357Y-14782500D01*
X13769643Y-14796786D01*
X13783928Y-14782500D01*
X13769643Y-14768214D01*
X13769643Y-14796786D01*
X13955357Y-15068214D02*
X13926786Y-15053929D01*
X13912500Y-15025357D01*
X13912500Y-14768214D01*
X14112500Y-15068214D02*
X14083928Y-15053929D01*
X14069643Y-15025357D01*
X14069643Y-14768214D01*
X14455357Y-15068214D02*
X14455357Y-14768214D01*
X14555357Y-14982500D01*
X14655357Y-14768214D01*
X14655357Y-15068214D01*
X14926786Y-15068214D02*
X14926786Y-14911071D01*
X14912500Y-14882500D01*
X14883928Y-14868214D01*
X14826786Y-14868214D01*
X14798214Y-14882500D01*
X14926786Y-15053929D02*
X14898214Y-15068214D01*
X14826786Y-15068214D01*
X14798214Y-15053929D01*
X14783928Y-15025357D01*
X14783928Y-14996786D01*
X14798214Y-14968214D01*
X14826786Y-14953929D01*
X14898214Y-14953929D01*
X14926786Y-14939643D01*
X15069643Y-14868214D02*
X15069643Y-15168214D01*
X15069643Y-14882500D02*
X15098214Y-14868214D01*
X15155357Y-14868214D01*
X15183928Y-14882500D01*
X15198214Y-14896786D01*
X15212500Y-14925357D01*
X15212500Y-15011071D01*
X15198214Y-15039643D01*
X15183928Y-15053929D01*
X15155357Y-15068214D01*
X15098214Y-15068214D01*
X15069643Y-15053929D01*
X15341071Y-15039643D02*
X15355357Y-15053929D01*
X15341071Y-15068214D01*
X15326786Y-15053929D01*
X15341071Y-15039643D01*
X15341071Y-15068214D01*
X15341071Y-14882500D02*
X15355357Y-14896786D01*
X15341071Y-14911071D01*
X15326786Y-14896786D01*
X15341071Y-14882500D01*
X15341071Y-14911071D01*
X12957500Y-15542500D02*
X12997500Y-15582500D01*
X12997500Y-15542500D02*
X12957500Y-15582500D01*
X13341071Y-15398214D02*
X13369643Y-15398214D01*
X13398214Y-15412500D01*
X13412500Y-15426786D01*
X13426786Y-15455357D01*
X13441071Y-15512500D01*
X13441071Y-15583929D01*
X13426786Y-15641071D01*
X13412500Y-15669643D01*
X13398214Y-15683929D01*
X13369643Y-15698214D01*
X13341071Y-15698214D01*
X13312500Y-15683929D01*
X13298214Y-15669643D01*
X13283928Y-15641071D01*
X13269643Y-15583929D01*
X13269643Y-15512500D01*
X13283928Y-15455357D01*
X13298214Y-15426786D01*
X13312500Y-15412500D01*
X13341071Y-15398214D01*
X13569643Y-15669643D02*
X13583928Y-15683929D01*
X13569643Y-15698214D01*
X13555357Y-15683929D01*
X13569643Y-15669643D01*
X13569643Y-15698214D01*
X13841071Y-15498214D02*
X13841071Y-15698214D01*
X13769643Y-15383929D02*
X13698214Y-15598214D01*
X13883928Y-15598214D01*
X14055357Y-15398214D02*
X14083928Y-15398214D01*
X14112500Y-15412500D01*
X14126786Y-15426786D01*
X14141071Y-15455357D01*
X14155357Y-15512500D01*
X14155357Y-15583929D01*
X14141071Y-15641071D01*
X14126786Y-15669643D01*
X14112500Y-15683929D01*
X14083928Y-15698214D01*
X14055357Y-15698214D01*
X14026786Y-15683929D01*
X14012500Y-15669643D01*
X13998214Y-15641071D01*
X13983928Y-15583929D01*
X13983928Y-15512500D01*
X13998214Y-15455357D01*
X14012500Y-15426786D01*
X14026786Y-15412500D01*
X14055357Y-15398214D01*
X14283928Y-15698214D02*
X14283928Y-15498214D01*
X14283928Y-15526786D02*
X14298214Y-15512500D01*
X14326786Y-15498214D01*
X14369643Y-15498214D01*
X14398214Y-15512500D01*
X14412500Y-15541071D01*
X14412500Y-15698214D01*
X14412500Y-15541071D02*
X14426786Y-15512500D01*
X14455357Y-15498214D01*
X14498214Y-15498214D01*
X14526786Y-15512500D01*
X14541071Y-15541071D01*
X14541071Y-15698214D01*
X14683928Y-15698214D02*
X14683928Y-15498214D01*
X14683928Y-15526786D02*
X14698214Y-15512500D01*
X14726786Y-15498214D01*
X14769643Y-15498214D01*
X14798214Y-15512500D01*
X14812500Y-15541071D01*
X14812500Y-15698214D01*
X14812500Y-15541071D02*
X14826786Y-15512500D01*
X14855357Y-15498214D01*
X14898214Y-15498214D01*
X14926786Y-15512500D01*
X14941071Y-15541071D01*
X14941071Y-15698214D01*
X15526786Y-15383929D02*
X15269643Y-15769643D01*
X15912500Y-15398214D02*
X15941071Y-15398214D01*
X15969643Y-15412500D01*
X15983928Y-15426786D01*
X15998214Y-15455357D01*
X16012500Y-15512500D01*
X16012500Y-15583929D01*
X15998214Y-15641071D01*
X15983928Y-15669643D01*
X15969643Y-15683929D01*
X15941071Y-15698214D01*
X15912500Y-15698214D01*
X15883928Y-15683929D01*
X15869643Y-15669643D01*
X15855357Y-15641071D01*
X15841071Y-15583929D01*
X15841071Y-15512500D01*
X15855357Y-15455357D01*
X15869643Y-15426786D01*
X15883928Y-15412500D01*
X15912500Y-15398214D01*
X16141071Y-15669643D02*
X16155357Y-15683929D01*
X16141071Y-15698214D01*
X16126786Y-15683929D01*
X16141071Y-15669643D01*
X16141071Y-15698214D01*
X16341071Y-15398214D02*
X16369643Y-15398214D01*
X16398214Y-15412500D01*
X16412500Y-15426786D01*
X16426786Y-15455357D01*
X16441071Y-15512500D01*
X16441071Y-15583929D01*
X16426786Y-15641071D01*
X16412500Y-15669643D01*
X16398214Y-15683929D01*
X16369643Y-15698214D01*
X16341071Y-15698214D01*
X16312500Y-15683929D01*
X16298214Y-15669643D01*
X16283928Y-15641071D01*
X16269643Y-15583929D01*
X16269643Y-15512500D01*
X16283928Y-15455357D01*
X16298214Y-15426786D01*
X16312500Y-15412500D01*
X16341071Y-15398214D01*
X16726786Y-15698214D02*
X16555357Y-15698214D01*
X16641071Y-15698214D02*
X16641071Y-15398214D01*
X16612500Y-15441071D01*
X16583928Y-15469643D01*
X16555357Y-15483929D01*
X16983928Y-15398214D02*
X16926786Y-15398214D01*
X16898214Y-15412500D01*
X16883928Y-15426786D01*
X16855357Y-15469643D01*
X16841071Y-15526786D01*
X16841071Y-15641071D01*
X16855357Y-15669643D01*
X16869643Y-15683929D01*
X16898214Y-15698214D01*
X16955357Y-15698214D01*
X16983928Y-15683929D01*
X16998214Y-15669643D01*
X17012500Y-15641071D01*
X17012500Y-15569643D01*
X16998214Y-15541071D01*
X16983928Y-15526786D01*
X16955357Y-15512500D01*
X16898214Y-15512500D01*
X16869643Y-15526786D01*
X16855357Y-15541071D01*
X16841071Y-15569643D01*
X17126786Y-15398214D02*
X17126786Y-15455357D01*
X17241071Y-15398214D02*
X17241071Y-15455357D01*
X17683928Y-15812500D02*
X17669643Y-15798214D01*
X17641071Y-15755357D01*
X17626786Y-15726786D01*
X17612500Y-15683929D01*
X17598214Y-15612500D01*
X17598214Y-15555357D01*
X17612500Y-15483929D01*
X17626786Y-15441071D01*
X17641071Y-15412500D01*
X17669643Y-15369643D01*
X17683928Y-15355357D01*
X17769643Y-15398214D02*
X17955357Y-15398214D01*
X17855357Y-15512500D01*
X17898214Y-15512500D01*
X17926786Y-15526786D01*
X17941071Y-15541071D01*
X17955357Y-15569643D01*
X17955357Y-15641071D01*
X17941071Y-15669643D01*
X17926786Y-15683929D01*
X17898214Y-15698214D01*
X17812500Y-15698214D01*
X17783928Y-15683929D01*
X17769643Y-15669643D01*
X18141071Y-15398214D02*
X18169643Y-15398214D01*
X18198214Y-15412500D01*
X18212500Y-15426786D01*
X18226786Y-15455357D01*
X18241071Y-15512500D01*
X18241071Y-15583929D01*
X18226786Y-15641071D01*
X18212500Y-15669643D01*
X18198214Y-15683929D01*
X18169643Y-15698214D01*
X18141071Y-15698214D01*
X18112500Y-15683929D01*
X18098214Y-15669643D01*
X18083928Y-15641071D01*
X18069643Y-15583929D01*
X18069643Y-15512500D01*
X18083928Y-15455357D01*
X18098214Y-15426786D01*
X18112500Y-15412500D01*
X18141071Y-15398214D01*
X18355357Y-15426786D02*
X18369643Y-15412500D01*
X18398214Y-15398214D01*
X18469643Y-15398214D01*
X18498214Y-15412500D01*
X18512500Y-15426786D01*
X18526786Y-15455357D01*
X18526786Y-15483929D01*
X18512500Y-15526786D01*
X18341071Y-15698214D01*
X18526786Y-15698214D01*
X18883928Y-15698214D02*
X18883928Y-15398214D01*
X19012500Y-15698214D02*
X19012500Y-15541071D01*
X18998214Y-15512500D01*
X18969643Y-15498214D01*
X18926786Y-15498214D01*
X18898214Y-15512500D01*
X18883928Y-15526786D01*
X19198214Y-15698214D02*
X19169643Y-15683929D01*
X19155357Y-15669643D01*
X19141071Y-15641071D01*
X19141071Y-15555357D01*
X19155357Y-15526786D01*
X19169643Y-15512500D01*
X19198214Y-15498214D01*
X19241071Y-15498214D01*
X19269643Y-15512500D01*
X19283928Y-15526786D01*
X19298214Y-15555357D01*
X19298214Y-15641071D01*
X19283928Y-15669643D01*
X19269643Y-15683929D01*
X19241071Y-15698214D01*
X19198214Y-15698214D01*
X19469643Y-15698214D02*
X19441071Y-15683929D01*
X19426786Y-15655357D01*
X19426786Y-15398214D01*
X19698214Y-15683929D02*
X19669643Y-15698214D01*
X19612500Y-15698214D01*
X19583928Y-15683929D01*
X19569643Y-15655357D01*
X19569643Y-15541071D01*
X19583928Y-15512500D01*
X19612500Y-15498214D01*
X19669643Y-15498214D01*
X19698214Y-15512500D01*
X19712500Y-15541071D01*
X19712500Y-15569643D01*
X19569643Y-15598214D01*
X19826786Y-15683929D02*
X19855357Y-15698214D01*
X19912500Y-15698214D01*
X19941071Y-15683929D01*
X19955357Y-15655357D01*
X19955357Y-15641071D01*
X19941071Y-15612500D01*
X19912500Y-15598214D01*
X19869643Y-15598214D01*
X19841071Y-15583929D01*
X19826786Y-15555357D01*
X19826786Y-15541071D01*
X19841071Y-15512500D01*
X19869643Y-15498214D01*
X19912500Y-15498214D01*
X19941071Y-15512500D01*
X20055357Y-15812500D02*
X20069643Y-15798214D01*
X20098214Y-15755357D01*
X20112500Y-15726786D01*
X20126786Y-15683929D01*
X20141071Y-15612500D01*
X20141071Y-15555357D01*
X20126786Y-15483929D01*
X20112500Y-15441071D01*
X20098214Y-15412500D01*
X20069643Y-15369643D01*
X20055357Y-15355357D01*
X12997500Y-15958500D02*
G75*
G03X12997500Y-15958500I-30000J0D01*
G01*
X13341071Y-15794214D02*
X13369643Y-15794214D01*
X13398214Y-15808500D01*
X13412500Y-15822786D01*
X13426786Y-15851357D01*
X13441071Y-15908500D01*
X13441071Y-15979929D01*
X13426786Y-16037071D01*
X13412500Y-16065643D01*
X13398214Y-16079929D01*
X13369643Y-16094214D01*
X13341071Y-16094214D01*
X13312500Y-16079929D01*
X13298214Y-16065643D01*
X13283928Y-16037071D01*
X13269643Y-15979929D01*
X13269643Y-15908500D01*
X13283928Y-15851357D01*
X13298214Y-15822786D01*
X13312500Y-15808500D01*
X13341071Y-15794214D01*
X13569643Y-16065643D02*
X13583928Y-16079929D01*
X13569643Y-16094214D01*
X13555357Y-16079929D01*
X13569643Y-16065643D01*
X13569643Y-16094214D01*
X13841071Y-15794214D02*
X13783928Y-15794214D01*
X13755357Y-15808500D01*
X13741071Y-15822786D01*
X13712500Y-15865643D01*
X13698214Y-15922786D01*
X13698214Y-16037071D01*
X13712500Y-16065643D01*
X13726786Y-16079929D01*
X13755357Y-16094214D01*
X13812500Y-16094214D01*
X13841071Y-16079929D01*
X13855357Y-16065643D01*
X13869643Y-16037071D01*
X13869643Y-15965643D01*
X13855357Y-15937071D01*
X13841071Y-15922786D01*
X13812500Y-15908500D01*
X13755357Y-15908500D01*
X13726786Y-15922786D01*
X13712500Y-15937071D01*
X13698214Y-15965643D01*
X14055357Y-15794214D02*
X14083928Y-15794214D01*
X14112500Y-15808500D01*
X14126786Y-15822786D01*
X14141071Y-15851357D01*
X14155357Y-15908500D01*
X14155357Y-15979929D01*
X14141071Y-16037071D01*
X14126786Y-16065643D01*
X14112500Y-16079929D01*
X14083928Y-16094214D01*
X14055357Y-16094214D01*
X14026786Y-16079929D01*
X14012500Y-16065643D01*
X13998214Y-16037071D01*
X13983928Y-15979929D01*
X13983928Y-15908500D01*
X13998214Y-15851357D01*
X14012500Y-15822786D01*
X14026786Y-15808500D01*
X14055357Y-15794214D01*
X14283928Y-16094214D02*
X14283928Y-15894214D01*
X14283928Y-15922786D02*
X14298214Y-15908500D01*
X14326786Y-15894214D01*
X14369643Y-15894214D01*
X14398214Y-15908500D01*
X14412500Y-15937071D01*
X14412500Y-16094214D01*
X14412500Y-15937071D02*
X14426786Y-15908500D01*
X14455357Y-15894214D01*
X14498214Y-15894214D01*
X14526786Y-15908500D01*
X14541071Y-15937071D01*
X14541071Y-16094214D01*
X14683928Y-16094214D02*
X14683928Y-15894214D01*
X14683928Y-15922786D02*
X14698214Y-15908500D01*
X14726786Y-15894214D01*
X14769643Y-15894214D01*
X14798214Y-15908500D01*
X14812500Y-15937071D01*
X14812500Y-16094214D01*
X14812500Y-15937071D02*
X14826786Y-15908500D01*
X14855357Y-15894214D01*
X14898214Y-15894214D01*
X14926786Y-15908500D01*
X14941071Y-15937071D01*
X14941071Y-16094214D01*
X15526786Y-15779929D02*
X15269643Y-16165643D01*
X15912500Y-15794214D02*
X15941071Y-15794214D01*
X15969643Y-15808500D01*
X15983928Y-15822786D01*
X15998214Y-15851357D01*
X16012500Y-15908500D01*
X16012500Y-15979929D01*
X15998214Y-16037071D01*
X15983928Y-16065643D01*
X15969643Y-16079929D01*
X15941071Y-16094214D01*
X15912500Y-16094214D01*
X15883928Y-16079929D01*
X15869643Y-16065643D01*
X15855357Y-16037071D01*
X15841071Y-15979929D01*
X15841071Y-15908500D01*
X15855357Y-15851357D01*
X15869643Y-15822786D01*
X15883928Y-15808500D01*
X15912500Y-15794214D01*
X16141071Y-16065643D02*
X16155357Y-16079929D01*
X16141071Y-16094214D01*
X16126786Y-16079929D01*
X16141071Y-16065643D01*
X16141071Y-16094214D01*
X16341071Y-15794214D02*
X16369643Y-15794214D01*
X16398214Y-15808500D01*
X16412500Y-15822786D01*
X16426786Y-15851357D01*
X16441071Y-15908500D01*
X16441071Y-15979929D01*
X16426786Y-16037071D01*
X16412500Y-16065643D01*
X16398214Y-16079929D01*
X16369643Y-16094214D01*
X16341071Y-16094214D01*
X16312500Y-16079929D01*
X16298214Y-16065643D01*
X16283928Y-16037071D01*
X16269643Y-15979929D01*
X16269643Y-15908500D01*
X16283928Y-15851357D01*
X16298214Y-15822786D01*
X16312500Y-15808500D01*
X16341071Y-15794214D01*
X16555357Y-15822786D02*
X16569643Y-15808500D01*
X16598214Y-15794214D01*
X16669643Y-15794214D01*
X16698214Y-15808500D01*
X16712500Y-15822786D01*
X16726786Y-15851357D01*
X16726786Y-15879929D01*
X16712500Y-15922786D01*
X16541071Y-16094214D01*
X16726786Y-16094214D01*
X16983928Y-15894214D02*
X16983928Y-16094214D01*
X16912500Y-15779929D02*
X16841071Y-15994214D01*
X17026786Y-15994214D01*
X17126786Y-15794214D02*
X17126786Y-15851357D01*
X17241071Y-15794214D02*
X17241071Y-15851357D01*
X17683928Y-16208500D02*
X17669643Y-16194214D01*
X17641071Y-16151357D01*
X17626786Y-16122786D01*
X17612500Y-16079929D01*
X17598214Y-16008500D01*
X17598214Y-15951357D01*
X17612500Y-15879929D01*
X17626786Y-15837071D01*
X17641071Y-15808500D01*
X17669643Y-15765643D01*
X17683928Y-15751357D01*
X17955357Y-16094214D02*
X17783928Y-16094214D01*
X17869643Y-16094214D02*
X17869643Y-15794214D01*
X17841071Y-15837071D01*
X17812500Y-15865643D01*
X17783928Y-15879929D01*
X18212500Y-15894214D02*
X18212500Y-16094214D01*
X18141071Y-15779929D02*
X18069643Y-15994214D01*
X18255357Y-15994214D01*
X18498214Y-15894214D02*
X18498214Y-16094214D01*
X18426786Y-15779929D02*
X18355357Y-15994214D01*
X18541071Y-15994214D01*
X18883928Y-16094214D02*
X18883928Y-15794214D01*
X19012500Y-16094214D02*
X19012500Y-15937071D01*
X18998214Y-15908500D01*
X18969643Y-15894214D01*
X18926786Y-15894214D01*
X18898214Y-15908500D01*
X18883928Y-15922786D01*
X19198214Y-16094214D02*
X19169643Y-16079929D01*
X19155357Y-16065643D01*
X19141071Y-16037071D01*
X19141071Y-15951357D01*
X19155357Y-15922786D01*
X19169643Y-15908500D01*
X19198214Y-15894214D01*
X19241071Y-15894214D01*
X19269643Y-15908500D01*
X19283928Y-15922786D01*
X19298214Y-15951357D01*
X19298214Y-16037071D01*
X19283928Y-16065643D01*
X19269643Y-16079929D01*
X19241071Y-16094214D01*
X19198214Y-16094214D01*
X19469643Y-16094214D02*
X19441071Y-16079929D01*
X19426786Y-16051357D01*
X19426786Y-15794214D01*
X19698214Y-16079929D02*
X19669643Y-16094214D01*
X19612500Y-16094214D01*
X19583928Y-16079929D01*
X19569643Y-16051357D01*
X19569643Y-15937071D01*
X19583928Y-15908500D01*
X19612500Y-15894214D01*
X19669643Y-15894214D01*
X19698214Y-15908500D01*
X19712500Y-15937071D01*
X19712500Y-15965643D01*
X19569643Y-15994214D01*
X19826786Y-16079929D02*
X19855357Y-16094214D01*
X19912500Y-16094214D01*
X19941071Y-16079929D01*
X19955357Y-16051357D01*
X19955357Y-16037071D01*
X19941071Y-16008500D01*
X19912500Y-15994214D01*
X19869643Y-15994214D01*
X19841071Y-15979929D01*
X19826786Y-15951357D01*
X19826786Y-15937071D01*
X19841071Y-15908500D01*
X19869643Y-15894214D01*
X19912500Y-15894214D01*
X19941071Y-15908500D01*
X20055357Y-16208500D02*
X20069643Y-16194214D01*
X20098214Y-16151357D01*
X20112500Y-16122786D01*
X20126786Y-16079929D01*
X20141071Y-16008500D01*
X20141071Y-15951357D01*
X20126786Y-15879929D01*
X20112500Y-15837071D01*
X20098214Y-15808500D01*
X20069643Y-15765643D01*
X20055357Y-15751357D01*
X12897500Y-16254500D02*
X12897500Y-16454500D01*
X12797500Y-16354500D02*
X12997500Y-16354500D01*
X13269643Y-16218786D02*
X13283928Y-16204500D01*
X13312500Y-16190214D01*
X13383928Y-16190214D01*
X13412500Y-16204500D01*
X13426786Y-16218786D01*
X13441071Y-16247357D01*
X13441071Y-16275929D01*
X13426786Y-16318786D01*
X13255357Y-16490214D01*
X13441071Y-16490214D01*
X13569643Y-16461643D02*
X13583928Y-16475929D01*
X13569643Y-16490214D01*
X13555357Y-16475929D01*
X13569643Y-16461643D01*
X13569643Y-16490214D01*
X13769643Y-16190214D02*
X13798214Y-16190214D01*
X13826786Y-16204500D01*
X13841071Y-16218786D01*
X13855357Y-16247357D01*
X13869643Y-16304500D01*
X13869643Y-16375929D01*
X13855357Y-16433071D01*
X13841071Y-16461643D01*
X13826786Y-16475929D01*
X13798214Y-16490214D01*
X13769643Y-16490214D01*
X13741071Y-16475929D01*
X13726786Y-16461643D01*
X13712500Y-16433071D01*
X13698214Y-16375929D01*
X13698214Y-16304500D01*
X13712500Y-16247357D01*
X13726786Y-16218786D01*
X13741071Y-16204500D01*
X13769643Y-16190214D01*
X14055357Y-16190214D02*
X14083928Y-16190214D01*
X14112500Y-16204500D01*
X14126786Y-16218786D01*
X14141071Y-16247357D01*
X14155357Y-16304500D01*
X14155357Y-16375929D01*
X14141071Y-16433071D01*
X14126786Y-16461643D01*
X14112500Y-16475929D01*
X14083928Y-16490214D01*
X14055357Y-16490214D01*
X14026786Y-16475929D01*
X14012500Y-16461643D01*
X13998214Y-16433071D01*
X13983928Y-16375929D01*
X13983928Y-16304500D01*
X13998214Y-16247357D01*
X14012500Y-16218786D01*
X14026786Y-16204500D01*
X14055357Y-16190214D01*
X14283928Y-16490214D02*
X14283928Y-16290214D01*
X14283928Y-16318786D02*
X14298214Y-16304500D01*
X14326786Y-16290214D01*
X14369643Y-16290214D01*
X14398214Y-16304500D01*
X14412500Y-16333071D01*
X14412500Y-16490214D01*
X14412500Y-16333071D02*
X14426786Y-16304500D01*
X14455357Y-16290214D01*
X14498214Y-16290214D01*
X14526786Y-16304500D01*
X14541071Y-16333071D01*
X14541071Y-16490214D01*
X14683928Y-16490214D02*
X14683928Y-16290214D01*
X14683928Y-16318786D02*
X14698214Y-16304500D01*
X14726786Y-16290214D01*
X14769643Y-16290214D01*
X14798214Y-16304500D01*
X14812500Y-16333071D01*
X14812500Y-16490214D01*
X14812500Y-16333071D02*
X14826786Y-16304500D01*
X14855357Y-16290214D01*
X14898214Y-16290214D01*
X14926786Y-16304500D01*
X14941071Y-16333071D01*
X14941071Y-16490214D01*
X15526786Y-16175929D02*
X15269643Y-16561643D01*
X15912500Y-16190214D02*
X15941071Y-16190214D01*
X15969643Y-16204500D01*
X15983928Y-16218786D01*
X15998214Y-16247357D01*
X16012500Y-16304500D01*
X16012500Y-16375929D01*
X15998214Y-16433071D01*
X15983928Y-16461643D01*
X15969643Y-16475929D01*
X15941071Y-16490214D01*
X15912500Y-16490214D01*
X15883928Y-16475929D01*
X15869643Y-16461643D01*
X15855357Y-16433071D01*
X15841071Y-16375929D01*
X15841071Y-16304500D01*
X15855357Y-16247357D01*
X15869643Y-16218786D01*
X15883928Y-16204500D01*
X15912500Y-16190214D01*
X16141071Y-16461643D02*
X16155357Y-16475929D01*
X16141071Y-16490214D01*
X16126786Y-16475929D01*
X16141071Y-16461643D01*
X16141071Y-16490214D01*
X16341071Y-16190214D02*
X16369643Y-16190214D01*
X16398214Y-16204500D01*
X16412500Y-16218786D01*
X16426786Y-16247357D01*
X16441071Y-16304500D01*
X16441071Y-16375929D01*
X16426786Y-16433071D01*
X16412500Y-16461643D01*
X16398214Y-16475929D01*
X16369643Y-16490214D01*
X16341071Y-16490214D01*
X16312500Y-16475929D01*
X16298214Y-16461643D01*
X16283928Y-16433071D01*
X16269643Y-16375929D01*
X16269643Y-16304500D01*
X16283928Y-16247357D01*
X16298214Y-16218786D01*
X16312500Y-16204500D01*
X16341071Y-16190214D01*
X16541071Y-16190214D02*
X16741071Y-16190214D01*
X16612500Y-16490214D01*
X16869643Y-16490214D02*
X16926786Y-16490214D01*
X16955357Y-16475929D01*
X16969643Y-16461643D01*
X16998214Y-16418786D01*
X17012500Y-16361643D01*
X17012500Y-16247357D01*
X16998214Y-16218786D01*
X16983928Y-16204500D01*
X16955357Y-16190214D01*
X16898214Y-16190214D01*
X16869643Y-16204500D01*
X16855357Y-16218786D01*
X16841071Y-16247357D01*
X16841071Y-16318786D01*
X16855357Y-16347357D01*
X16869643Y-16361643D01*
X16898214Y-16375929D01*
X16955357Y-16375929D01*
X16983928Y-16361643D01*
X16998214Y-16347357D01*
X17012500Y-16318786D01*
X17126786Y-16190214D02*
X17126786Y-16247357D01*
X17241071Y-16190214D02*
X17241071Y-16247357D01*
X17683928Y-16604500D02*
X17669643Y-16590214D01*
X17641071Y-16547357D01*
X17626786Y-16518786D01*
X17612500Y-16475929D01*
X17598214Y-16404500D01*
X17598214Y-16347357D01*
X17612500Y-16275929D01*
X17626786Y-16233071D01*
X17641071Y-16204500D01*
X17669643Y-16161643D01*
X17683928Y-16147357D01*
X17955357Y-16490214D02*
X17783928Y-16490214D01*
X17869643Y-16490214D02*
X17869643Y-16190214D01*
X17841071Y-16233071D01*
X17812500Y-16261643D01*
X17783928Y-16275929D01*
X18212500Y-16190214D02*
X18155357Y-16190214D01*
X18126786Y-16204500D01*
X18112500Y-16218786D01*
X18083928Y-16261643D01*
X18069643Y-16318786D01*
X18069643Y-16433071D01*
X18083928Y-16461643D01*
X18098214Y-16475929D01*
X18126786Y-16490214D01*
X18183928Y-16490214D01*
X18212500Y-16475929D01*
X18226786Y-16461643D01*
X18241071Y-16433071D01*
X18241071Y-16361643D01*
X18226786Y-16333071D01*
X18212500Y-16318786D01*
X18183928Y-16304500D01*
X18126786Y-16304500D01*
X18098214Y-16318786D01*
X18083928Y-16333071D01*
X18069643Y-16361643D01*
X18598214Y-16490214D02*
X18598214Y-16190214D01*
X18726786Y-16490214D02*
X18726786Y-16333071D01*
X18712500Y-16304500D01*
X18683928Y-16290214D01*
X18641071Y-16290214D01*
X18612500Y-16304500D01*
X18598214Y-16318786D01*
X18912500Y-16490214D02*
X18883928Y-16475929D01*
X18869643Y-16461643D01*
X18855357Y-16433071D01*
X18855357Y-16347357D01*
X18869643Y-16318786D01*
X18883928Y-16304500D01*
X18912500Y-16290214D01*
X18955357Y-16290214D01*
X18983928Y-16304500D01*
X18998214Y-16318786D01*
X19012500Y-16347357D01*
X19012500Y-16433071D01*
X18998214Y-16461643D01*
X18983928Y-16475929D01*
X18955357Y-16490214D01*
X18912500Y-16490214D01*
X19183928Y-16490214D02*
X19155357Y-16475929D01*
X19141071Y-16447357D01*
X19141071Y-16190214D01*
X19412500Y-16475929D02*
X19383928Y-16490214D01*
X19326786Y-16490214D01*
X19298214Y-16475929D01*
X19283928Y-16447357D01*
X19283928Y-16333071D01*
X19298214Y-16304500D01*
X19326786Y-16290214D01*
X19383928Y-16290214D01*
X19412500Y-16304500D01*
X19426786Y-16333071D01*
X19426786Y-16361643D01*
X19283928Y-16390214D01*
X19541071Y-16475929D02*
X19569643Y-16490214D01*
X19626786Y-16490214D01*
X19655357Y-16475929D01*
X19669643Y-16447357D01*
X19669643Y-16433071D01*
X19655357Y-16404500D01*
X19626786Y-16390214D01*
X19583928Y-16390214D01*
X19555357Y-16375929D01*
X19541071Y-16347357D01*
X19541071Y-16333071D01*
X19555357Y-16304500D01*
X19583928Y-16290214D01*
X19626786Y-16290214D01*
X19655357Y-16304500D01*
X19769643Y-16604500D02*
X19783928Y-16590214D01*
X19812500Y-16547357D01*
X19826786Y-16518786D01*
X19841071Y-16475929D01*
X19855357Y-16404500D01*
X19855357Y-16347357D01*
X19841071Y-16275929D01*
X19826786Y-16233071D01*
X19812500Y-16204500D01*
X19783928Y-16161643D01*
X19769643Y-16147357D01*
X12957960Y-16845960D02*
X12957960Y-16655040D01*
X12767040Y-16655040D01*
X12767040Y-16845960D01*
X12957960Y-16845960D01*
X13269643Y-16614786D02*
X13283928Y-16600500D01*
X13312500Y-16586214D01*
X13383928Y-16586214D01*
X13412500Y-16600500D01*
X13426786Y-16614786D01*
X13441071Y-16643357D01*
X13441071Y-16671929D01*
X13426786Y-16714786D01*
X13255357Y-16886214D01*
X13441071Y-16886214D01*
X13569643Y-16857643D02*
X13583928Y-16871929D01*
X13569643Y-16886214D01*
X13555357Y-16871929D01*
X13569643Y-16857643D01*
X13569643Y-16886214D01*
X13683928Y-16586214D02*
X13883928Y-16586214D01*
X13755357Y-16886214D01*
X14055357Y-16586214D02*
X14083928Y-16586214D01*
X14112500Y-16600500D01*
X14126786Y-16614786D01*
X14141071Y-16643357D01*
X14155357Y-16700500D01*
X14155357Y-16771929D01*
X14141071Y-16829072D01*
X14126786Y-16857643D01*
X14112500Y-16871929D01*
X14083928Y-16886214D01*
X14055357Y-16886214D01*
X14026786Y-16871929D01*
X14012500Y-16857643D01*
X13998214Y-16829072D01*
X13983928Y-16771929D01*
X13983928Y-16700500D01*
X13998214Y-16643357D01*
X14012500Y-16614786D01*
X14026786Y-16600500D01*
X14055357Y-16586214D01*
X14283928Y-16886214D02*
X14283928Y-16686214D01*
X14283928Y-16714786D02*
X14298214Y-16700500D01*
X14326786Y-16686214D01*
X14369643Y-16686214D01*
X14398214Y-16700500D01*
X14412500Y-16729071D01*
X14412500Y-16886214D01*
X14412500Y-16729071D02*
X14426786Y-16700500D01*
X14455357Y-16686214D01*
X14498214Y-16686214D01*
X14526786Y-16700500D01*
X14541071Y-16729071D01*
X14541071Y-16886214D01*
X14683928Y-16886214D02*
X14683928Y-16686214D01*
X14683928Y-16714786D02*
X14698214Y-16700500D01*
X14726786Y-16686214D01*
X14769643Y-16686214D01*
X14798214Y-16700500D01*
X14812500Y-16729071D01*
X14812500Y-16886214D01*
X14812500Y-16729071D02*
X14826786Y-16700500D01*
X14855357Y-16686214D01*
X14898214Y-16686214D01*
X14926786Y-16700500D01*
X14941071Y-16729071D01*
X14941071Y-16886214D01*
X15526786Y-16571929D02*
X15269643Y-16957643D01*
X15912500Y-16586214D02*
X15941071Y-16586214D01*
X15969643Y-16600500D01*
X15983928Y-16614786D01*
X15998214Y-16643357D01*
X16012500Y-16700500D01*
X16012500Y-16771929D01*
X15998214Y-16829072D01*
X15983928Y-16857643D01*
X15969643Y-16871929D01*
X15941071Y-16886214D01*
X15912500Y-16886214D01*
X15883928Y-16871929D01*
X15869643Y-16857643D01*
X15855357Y-16829072D01*
X15841071Y-16771929D01*
X15841071Y-16700500D01*
X15855357Y-16643357D01*
X15869643Y-16614786D01*
X15883928Y-16600500D01*
X15912500Y-16586214D01*
X16141071Y-16857643D02*
X16155357Y-16871929D01*
X16141071Y-16886214D01*
X16126786Y-16871929D01*
X16141071Y-16857643D01*
X16141071Y-16886214D01*
X16441071Y-16886214D02*
X16269643Y-16886214D01*
X16355357Y-16886214D02*
X16355357Y-16586214D01*
X16326786Y-16629071D01*
X16298214Y-16657643D01*
X16269643Y-16671929D01*
X16626786Y-16586214D02*
X16655357Y-16586214D01*
X16683928Y-16600500D01*
X16698214Y-16614786D01*
X16712500Y-16643357D01*
X16726786Y-16700500D01*
X16726786Y-16771929D01*
X16712500Y-16829072D01*
X16698214Y-16857643D01*
X16683928Y-16871929D01*
X16655357Y-16886214D01*
X16626786Y-16886214D01*
X16598214Y-16871929D01*
X16583928Y-16857643D01*
X16569643Y-16829072D01*
X16555357Y-16771929D01*
X16555357Y-16700500D01*
X16569643Y-16643357D01*
X16583928Y-16614786D01*
X16598214Y-16600500D01*
X16626786Y-16586214D01*
X16983928Y-16586214D02*
X16926786Y-16586214D01*
X16898214Y-16600500D01*
X16883928Y-16614786D01*
X16855357Y-16657643D01*
X16841071Y-16714786D01*
X16841071Y-16829072D01*
X16855357Y-16857643D01*
X16869643Y-16871929D01*
X16898214Y-16886214D01*
X16955357Y-16886214D01*
X16983928Y-16871929D01*
X16998214Y-16857643D01*
X17012500Y-16829072D01*
X17012500Y-16757643D01*
X16998214Y-16729071D01*
X16983928Y-16714786D01*
X16955357Y-16700500D01*
X16898214Y-16700500D01*
X16869643Y-16714786D01*
X16855357Y-16729071D01*
X16841071Y-16757643D01*
X17126786Y-16586214D02*
X17126786Y-16643357D01*
X17241071Y-16586214D02*
X17241071Y-16643357D01*
X17683928Y-17000500D02*
X17669643Y-16986214D01*
X17641071Y-16943357D01*
X17626786Y-16914786D01*
X17612500Y-16871929D01*
X17598214Y-16800500D01*
X17598214Y-16743357D01*
X17612500Y-16671929D01*
X17626786Y-16629071D01*
X17641071Y-16600500D01*
X17669643Y-16557643D01*
X17683928Y-16543357D01*
X17769643Y-16586214D02*
X17955357Y-16586214D01*
X17855357Y-16700500D01*
X17898214Y-16700500D01*
X17926786Y-16714786D01*
X17941071Y-16729071D01*
X17955357Y-16757643D01*
X17955357Y-16829072D01*
X17941071Y-16857643D01*
X17926786Y-16871929D01*
X17898214Y-16886214D01*
X17812500Y-16886214D01*
X17783928Y-16871929D01*
X17769643Y-16857643D01*
X18312500Y-16886214D02*
X18312500Y-16586214D01*
X18441071Y-16886214D02*
X18441071Y-16729071D01*
X18426786Y-16700500D01*
X18398214Y-16686214D01*
X18355357Y-16686214D01*
X18326786Y-16700500D01*
X18312500Y-16714786D01*
X18626786Y-16886214D02*
X18598214Y-16871929D01*
X18583928Y-16857643D01*
X18569643Y-16829072D01*
X18569643Y-16743357D01*
X18583928Y-16714786D01*
X18598214Y-16700500D01*
X18626786Y-16686214D01*
X18669643Y-16686214D01*
X18698214Y-16700500D01*
X18712500Y-16714786D01*
X18726786Y-16743357D01*
X18726786Y-16829072D01*
X18712500Y-16857643D01*
X18698214Y-16871929D01*
X18669643Y-16886214D01*
X18626786Y-16886214D01*
X18898214Y-16886214D02*
X18869643Y-16871929D01*
X18855357Y-16843357D01*
X18855357Y-16586214D01*
X19126786Y-16871929D02*
X19098214Y-16886214D01*
X19041071Y-16886214D01*
X19012500Y-16871929D01*
X18998214Y-16843357D01*
X18998214Y-16729071D01*
X19012500Y-16700500D01*
X19041071Y-16686214D01*
X19098214Y-16686214D01*
X19126786Y-16700500D01*
X19141071Y-16729071D01*
X19141071Y-16757643D01*
X18998214Y-16786214D01*
X19255357Y-16871929D02*
X19283928Y-16886214D01*
X19341071Y-16886214D01*
X19369643Y-16871929D01*
X19383928Y-16843357D01*
X19383928Y-16829072D01*
X19369643Y-16800500D01*
X19341071Y-16786214D01*
X19298214Y-16786214D01*
X19269643Y-16771929D01*
X19255357Y-16743357D01*
X19255357Y-16729071D01*
X19269643Y-16700500D01*
X19298214Y-16686214D01*
X19341071Y-16686214D01*
X19369643Y-16700500D01*
X19483928Y-17000500D02*
X19498214Y-16986214D01*
X19526786Y-16943357D01*
X19541071Y-16914786D01*
X19555357Y-16871929D01*
X19569643Y-16800500D01*
X19569643Y-16743357D01*
X19555357Y-16671929D01*
X19541071Y-16629071D01*
X19526786Y-16600500D01*
X19498214Y-16557643D01*
X19483928Y-16543357D01*
X20026786Y-17000500D02*
X20012500Y-16986214D01*
X19983928Y-16943357D01*
X19969643Y-16914786D01*
X19955357Y-16871929D01*
X19941071Y-16800500D01*
X19941071Y-16743357D01*
X19955357Y-16671929D01*
X19969643Y-16629071D01*
X19983928Y-16600500D01*
X20012500Y-16557643D01*
X20026786Y-16543357D01*
X20141071Y-16686214D02*
X20141071Y-16886214D01*
X20141071Y-16714786D02*
X20155357Y-16700500D01*
X20183928Y-16686214D01*
X20226786Y-16686214D01*
X20255357Y-16700500D01*
X20269643Y-16729071D01*
X20269643Y-16886214D01*
X20455357Y-16886214D02*
X20426786Y-16871929D01*
X20412500Y-16857643D01*
X20398214Y-16829072D01*
X20398214Y-16743357D01*
X20412500Y-16714786D01*
X20426786Y-16700500D01*
X20455357Y-16686214D01*
X20498214Y-16686214D01*
X20526786Y-16700500D01*
X20541071Y-16714786D01*
X20555357Y-16743357D01*
X20555357Y-16829072D01*
X20541071Y-16857643D01*
X20526786Y-16871929D01*
X20498214Y-16886214D01*
X20455357Y-16886214D01*
X20641071Y-16686214D02*
X20755357Y-16686214D01*
X20683928Y-16586214D02*
X20683928Y-16843357D01*
X20698214Y-16871929D01*
X20726786Y-16886214D01*
X20755357Y-16886214D01*
X21083928Y-16686214D02*
X21083928Y-16986214D01*
X21083928Y-16700500D02*
X21112500Y-16686214D01*
X21169643Y-16686214D01*
X21198214Y-16700500D01*
X21212500Y-16714786D01*
X21226786Y-16743357D01*
X21226786Y-16829072D01*
X21212500Y-16857643D01*
X21198214Y-16871929D01*
X21169643Y-16886214D01*
X21112500Y-16886214D01*
X21083928Y-16871929D01*
X21398214Y-16886214D02*
X21369643Y-16871929D01*
X21355357Y-16843357D01*
X21355357Y-16586214D01*
X21641071Y-16886214D02*
X21641071Y-16729071D01*
X21626786Y-16700500D01*
X21598214Y-16686214D01*
X21541071Y-16686214D01*
X21512500Y-16700500D01*
X21641071Y-16871929D02*
X21612500Y-16886214D01*
X21541071Y-16886214D01*
X21512500Y-16871929D01*
X21498214Y-16843357D01*
X21498214Y-16814786D01*
X21512500Y-16786214D01*
X21541071Y-16771929D01*
X21612500Y-16771929D01*
X21641071Y-16757643D01*
X21741071Y-16686214D02*
X21855357Y-16686214D01*
X21783928Y-16586214D02*
X21783928Y-16843357D01*
X21798214Y-16871929D01*
X21826786Y-16886214D01*
X21855357Y-16886214D01*
X22069643Y-16871929D02*
X22041071Y-16886214D01*
X21983928Y-16886214D01*
X21955357Y-16871929D01*
X21941071Y-16843357D01*
X21941071Y-16729071D01*
X21955357Y-16700500D01*
X21983928Y-16686214D01*
X22041071Y-16686214D01*
X22069643Y-16700500D01*
X22083928Y-16729071D01*
X22083928Y-16757643D01*
X21941071Y-16786214D01*
X22341071Y-16886214D02*
X22341071Y-16586214D01*
X22341071Y-16871929D02*
X22312500Y-16886214D01*
X22255357Y-16886214D01*
X22226786Y-16871929D01*
X22212500Y-16857643D01*
X22198214Y-16829072D01*
X22198214Y-16743357D01*
X22212500Y-16714786D01*
X22226786Y-16700500D01*
X22255357Y-16686214D01*
X22312500Y-16686214D01*
X22341071Y-16700500D01*
X22455357Y-17000500D02*
X22469643Y-16986214D01*
X22498214Y-16943357D01*
X22512500Y-16914786D01*
X22526786Y-16871929D01*
X22541071Y-16800500D01*
X22541071Y-16743357D01*
X22526786Y-16671929D01*
X22512500Y-16629071D01*
X22498214Y-16600500D01*
X22469643Y-16557643D01*
X22455357Y-16543357D01*
M02*
