G04 #@! TF.GenerationSoftware,KiCad,Pcbnew,5.1.4-e60b266~84~ubuntu18.04.1*
G04 #@! TF.CreationDate,2019-10-13T11:52:52+02:00*
G04 #@! TF.ProjectId,High_power__DC_DC_board,48696768-5f70-46f7-9765-725f5f44435f,rev?*
G04 #@! TF.SameCoordinates,Original*
G04 #@! TF.FileFunction,Copper,L2,Bot*
G04 #@! TF.FilePolarity,Positive*
%FSLAX46Y46*%
G04 Gerber Fmt 4.6, Leading zero omitted, Abs format (unit mm)*
G04 Created by KiCad (PCBNEW 5.1.4-e60b266~84~ubuntu18.04.1) date 2019-10-13 11:52:52*
%MOMM*%
%LPD*%
G04 APERTURE LIST*
%ADD10C,3.000000*%
%ADD11C,1.200000*%
%ADD12R,15.000000X25.000000*%
%ADD13R,15.000000X30.000000*%
%ADD14R,7.300000X30.000000*%
%ADD15C,0.800000*%
%ADD16C,0.500000*%
%ADD17C,0.254000*%
G04 APERTURE END LIST*
D10*
X220100000Y-131150000D03*
X220100000Y-135350000D03*
X214600000Y-131150000D03*
X214600000Y-135350000D03*
X137250000Y-145800000D03*
X133050000Y-145800000D03*
X137250000Y-140300000D03*
X133050000Y-140300000D03*
X59300000Y-37800000D03*
X63500000Y-37800000D03*
X59300000Y-43300000D03*
X63500000Y-43300000D03*
X113300000Y-37800000D03*
X117500000Y-37800000D03*
X113300000Y-43300000D03*
X117500000Y-43300000D03*
X221300000Y-37800000D03*
X225500000Y-37800000D03*
X221300000Y-43300000D03*
X225500000Y-43300000D03*
X167300000Y-37800000D03*
X171500000Y-37800000D03*
X167300000Y-43300000D03*
X171500000Y-43300000D03*
D11*
X108200000Y-97200000D03*
X108200000Y-98400000D03*
X108200000Y-99600000D03*
X108200000Y-100800000D03*
X108200000Y-93600000D03*
X108200000Y-94800000D03*
X108200000Y-96000000D03*
X106200000Y-93600000D03*
X106200000Y-94800000D03*
X106200000Y-96000000D03*
X106200000Y-97200000D03*
X106200000Y-98400000D03*
X106200000Y-99600000D03*
X106200000Y-100800000D03*
X107200000Y-97800000D03*
X107200000Y-99000000D03*
X107200000Y-96600000D03*
X107200000Y-95400000D03*
X107200000Y-94200000D03*
X107200000Y-100200000D03*
X105200000Y-94200000D03*
X105200000Y-95400000D03*
X105200000Y-96600000D03*
X105200000Y-97800000D03*
X105200000Y-99000000D03*
X105200000Y-100200000D03*
X104200000Y-93600000D03*
X104200000Y-94800000D03*
X104200000Y-96000000D03*
X104200000Y-97200000D03*
X104200000Y-98400000D03*
X104200000Y-99600000D03*
X104200000Y-100800000D03*
X103200000Y-94200000D03*
X103200000Y-95400000D03*
X103200000Y-96600000D03*
X103200000Y-97800000D03*
X103200000Y-99000000D03*
X103200000Y-100200000D03*
X102200000Y-93600000D03*
X102200000Y-94800000D03*
X102200000Y-96000000D03*
X102200000Y-97200000D03*
X102200000Y-98400000D03*
X102200000Y-99600000D03*
X100500000Y-90400000D03*
X100500000Y-91600000D03*
X100500000Y-92800000D03*
X100500000Y-94000000D03*
X100500000Y-86800000D03*
X100500000Y-88000000D03*
X100500000Y-89200000D03*
X98500000Y-88000000D03*
X98500000Y-89200000D03*
X98500000Y-90400000D03*
X98500000Y-91600000D03*
X98500000Y-92800000D03*
X99500000Y-93400000D03*
X98500000Y-94000000D03*
X99500000Y-87400000D03*
X99500000Y-88600000D03*
X99500000Y-89800000D03*
X99500000Y-91000000D03*
X99500000Y-92200000D03*
X98500000Y-86800000D03*
X97500000Y-92200000D03*
X97500000Y-91000000D03*
X97500000Y-89800000D03*
X97500000Y-88600000D03*
X97500000Y-87400000D03*
X96500000Y-86800000D03*
X96500000Y-88000000D03*
X96500000Y-89200000D03*
X96500000Y-90400000D03*
X96500000Y-91600000D03*
X96500000Y-92800000D03*
X97500000Y-93400000D03*
X96500000Y-94000000D03*
X95500000Y-93400000D03*
X95500000Y-92200000D03*
X95500000Y-91000000D03*
X95500000Y-89800000D03*
X95500000Y-88600000D03*
X95500000Y-87400000D03*
X94500000Y-86800000D03*
X94500000Y-88000000D03*
X94500000Y-89200000D03*
X94500000Y-90400000D03*
X94500000Y-91600000D03*
X94500000Y-92800000D03*
X92350000Y-97500000D03*
X92350000Y-98700000D03*
X92350000Y-99900000D03*
X92350000Y-93900000D03*
X92350000Y-95100000D03*
X92350000Y-92700000D03*
X92350000Y-96300000D03*
X91350000Y-96900000D03*
X91350000Y-95700000D03*
X91350000Y-94500000D03*
X91350000Y-93300000D03*
X90350000Y-97500000D03*
X90350000Y-98700000D03*
X90350000Y-99900000D03*
X90350000Y-93900000D03*
X91350000Y-99300000D03*
X90350000Y-95100000D03*
X91350000Y-98100000D03*
X90350000Y-92700000D03*
X90350000Y-96300000D03*
X89300000Y-99300000D03*
X88300000Y-92700000D03*
X88300000Y-93900000D03*
X88300000Y-95100000D03*
X88300000Y-96300000D03*
X89300000Y-98100000D03*
X89300000Y-96900000D03*
X89300000Y-95700000D03*
X89300000Y-94500000D03*
X89300000Y-93300000D03*
X88300000Y-97500000D03*
X88300000Y-98700000D03*
X88300000Y-99900000D03*
X87300000Y-99300000D03*
X87300000Y-98100000D03*
X87300000Y-96900000D03*
X87300000Y-95700000D03*
X87300000Y-94500000D03*
X87300000Y-93300000D03*
X86300000Y-92700000D03*
X86300000Y-93900000D03*
X86300000Y-95100000D03*
X86300000Y-96300000D03*
X86300000Y-97500000D03*
X86300000Y-98700000D03*
X84700000Y-80900000D03*
X84700000Y-82100000D03*
X84700000Y-83300000D03*
X84700000Y-84500000D03*
X83700000Y-86300000D03*
X83700000Y-82700000D03*
X84700000Y-86900000D03*
X84700000Y-85700000D03*
X84700000Y-79700000D03*
X83700000Y-80300000D03*
X83700000Y-85100000D03*
X83700000Y-83900000D03*
X83700000Y-81500000D03*
X82700000Y-79700000D03*
X82700000Y-80900000D03*
X82700000Y-82100000D03*
X82700000Y-83300000D03*
X82700000Y-84500000D03*
X82700000Y-85700000D03*
X82700000Y-86900000D03*
X81700000Y-86300000D03*
X81700000Y-85100000D03*
X81700000Y-83900000D03*
X81700000Y-82700000D03*
X81700000Y-81500000D03*
X81700000Y-80300000D03*
X80700000Y-79700000D03*
X80700000Y-80900000D03*
X80700000Y-82100000D03*
X80700000Y-83300000D03*
X80700000Y-84500000D03*
X80700000Y-85700000D03*
X80700000Y-86900000D03*
X79700000Y-86300000D03*
X79700000Y-85100000D03*
X79700000Y-83900000D03*
X79700000Y-82700000D03*
X79700000Y-81500000D03*
X79700000Y-80300000D03*
X78700000Y-79700000D03*
X78700000Y-80900000D03*
X78700000Y-82100000D03*
X78700000Y-83300000D03*
X78700000Y-84500000D03*
X78700000Y-85700000D03*
D12*
X101150000Y-76500000D03*
D13*
X109000000Y-105800000D03*
D14*
X97300000Y-90800000D03*
D13*
X85500000Y-105500000D03*
X80600000Y-74000000D03*
D11*
X102200000Y-100800000D03*
X94500000Y-94000000D03*
X86300000Y-99900000D03*
X78700000Y-86900000D03*
X54200000Y-97200000D03*
X54200000Y-98400000D03*
X54200000Y-99600000D03*
X54200000Y-100800000D03*
X54200000Y-93600000D03*
X54200000Y-94800000D03*
X54200000Y-96000000D03*
X52200000Y-93600000D03*
X52200000Y-94800000D03*
X52200000Y-96000000D03*
X52200000Y-97200000D03*
X52200000Y-98400000D03*
X52200000Y-99600000D03*
X52200000Y-100800000D03*
X53200000Y-97800000D03*
X53200000Y-99000000D03*
X53200000Y-96600000D03*
X53200000Y-95400000D03*
X53200000Y-94200000D03*
X53200000Y-100200000D03*
X51200000Y-94200000D03*
X51200000Y-95400000D03*
X51200000Y-96600000D03*
X51200000Y-97800000D03*
X51200000Y-99000000D03*
X51200000Y-100200000D03*
X50200000Y-93600000D03*
X50200000Y-94800000D03*
X50200000Y-96000000D03*
X50200000Y-97200000D03*
X50200000Y-98400000D03*
X50200000Y-99600000D03*
X50200000Y-100800000D03*
X49200000Y-94200000D03*
X49200000Y-95400000D03*
X49200000Y-96600000D03*
X49200000Y-97800000D03*
X49200000Y-99000000D03*
X49200000Y-100200000D03*
X48200000Y-93600000D03*
X48200000Y-94800000D03*
X48200000Y-96000000D03*
X48200000Y-97200000D03*
X48200000Y-98400000D03*
X48200000Y-99600000D03*
X46500000Y-90400000D03*
X46500000Y-91600000D03*
X46500000Y-92800000D03*
X46500000Y-94000000D03*
X46500000Y-86800000D03*
X46500000Y-88000000D03*
X46500000Y-89200000D03*
X44500000Y-88000000D03*
X44500000Y-89200000D03*
X44500000Y-90400000D03*
X44500000Y-91600000D03*
X44500000Y-92800000D03*
X45500000Y-93400000D03*
X44500000Y-94000000D03*
X45500000Y-87400000D03*
X45500000Y-88600000D03*
X45500000Y-89800000D03*
X45500000Y-91000000D03*
X45500000Y-92200000D03*
X44500000Y-86800000D03*
X43500000Y-92200000D03*
X43500000Y-91000000D03*
X43500000Y-89800000D03*
X43500000Y-88600000D03*
X43500000Y-87400000D03*
X42500000Y-86800000D03*
X42500000Y-88000000D03*
X42500000Y-89200000D03*
X42500000Y-90400000D03*
X42500000Y-91600000D03*
X42500000Y-92800000D03*
X43500000Y-93400000D03*
X42500000Y-94000000D03*
X41500000Y-93400000D03*
X41500000Y-92200000D03*
X41500000Y-91000000D03*
X41500000Y-89800000D03*
X41500000Y-88600000D03*
X41500000Y-87400000D03*
X40500000Y-86800000D03*
X40500000Y-88000000D03*
X40500000Y-89200000D03*
X40500000Y-90400000D03*
X40500000Y-91600000D03*
X40500000Y-92800000D03*
X38350000Y-97500000D03*
X38350000Y-98700000D03*
X38350000Y-99900000D03*
X38350000Y-93900000D03*
X38350000Y-95100000D03*
X38350000Y-92700000D03*
X38350000Y-96300000D03*
X37350000Y-96900000D03*
X37350000Y-95700000D03*
X37350000Y-94500000D03*
X37350000Y-93300000D03*
X36350000Y-97500000D03*
X36350000Y-98700000D03*
X36350000Y-99900000D03*
X36350000Y-93900000D03*
X37350000Y-99300000D03*
X36350000Y-95100000D03*
X37350000Y-98100000D03*
X36350000Y-92700000D03*
X36350000Y-96300000D03*
X35300000Y-99300000D03*
X34300000Y-92700000D03*
X34300000Y-93900000D03*
X34300000Y-95100000D03*
X34300000Y-96300000D03*
X35300000Y-98100000D03*
X35300000Y-96900000D03*
X35300000Y-95700000D03*
X35300000Y-94500000D03*
X35300000Y-93300000D03*
X34300000Y-97500000D03*
X34300000Y-98700000D03*
X34300000Y-99900000D03*
X33300000Y-99300000D03*
X33300000Y-98100000D03*
X33300000Y-96900000D03*
X33300000Y-95700000D03*
X33300000Y-94500000D03*
X33300000Y-93300000D03*
X32300000Y-92700000D03*
X32300000Y-93900000D03*
X32300000Y-95100000D03*
X32300000Y-96300000D03*
X32300000Y-97500000D03*
X32300000Y-98700000D03*
X30700000Y-80900000D03*
X30700000Y-82100000D03*
X30700000Y-83300000D03*
X30700000Y-84500000D03*
X29700000Y-86300000D03*
X29700000Y-82700000D03*
X30700000Y-86900000D03*
X30700000Y-85700000D03*
X30700000Y-79700000D03*
X29700000Y-80300000D03*
X29700000Y-85100000D03*
X29700000Y-83900000D03*
X29700000Y-81500000D03*
X28700000Y-79700000D03*
X28700000Y-80900000D03*
X28700000Y-82100000D03*
X28700000Y-83300000D03*
X28700000Y-84500000D03*
X28700000Y-85700000D03*
X28700000Y-86900000D03*
X27700000Y-86300000D03*
X27700000Y-85100000D03*
X27700000Y-83900000D03*
X27700000Y-82700000D03*
X27700000Y-81500000D03*
X27700000Y-80300000D03*
X26700000Y-79700000D03*
X26700000Y-80900000D03*
X26700000Y-82100000D03*
X26700000Y-83300000D03*
X26700000Y-84500000D03*
X26700000Y-85700000D03*
X26700000Y-86900000D03*
X25700000Y-86300000D03*
X25700000Y-85100000D03*
X25700000Y-83900000D03*
X25700000Y-82700000D03*
X25700000Y-81500000D03*
X25700000Y-80300000D03*
X24700000Y-79700000D03*
X24700000Y-80900000D03*
X24700000Y-82100000D03*
X24700000Y-83300000D03*
X24700000Y-84500000D03*
X24700000Y-85700000D03*
D12*
X47150000Y-76500000D03*
D13*
X55000000Y-105800000D03*
D14*
X43300000Y-90800000D03*
D13*
X31500000Y-105500000D03*
X26600000Y-74000000D03*
D11*
X48200000Y-100800000D03*
X40500000Y-94000000D03*
X32300000Y-99900000D03*
X24700000Y-86900000D03*
D10*
X217800000Y-145800000D03*
X213600000Y-145800000D03*
X217800000Y-140300000D03*
X213600000Y-140300000D03*
D11*
X216200000Y-97200000D03*
X216200000Y-98400000D03*
X216200000Y-99600000D03*
X216200000Y-100800000D03*
X216200000Y-93600000D03*
X216200000Y-94800000D03*
X216200000Y-96000000D03*
X214200000Y-93600000D03*
X214200000Y-94800000D03*
X214200000Y-96000000D03*
X214200000Y-97200000D03*
X214200000Y-98400000D03*
X214200000Y-99600000D03*
X214200000Y-100800000D03*
X215200000Y-97800000D03*
X215200000Y-99000000D03*
X215200000Y-96600000D03*
X215200000Y-95400000D03*
X215200000Y-94200000D03*
X215200000Y-100200000D03*
X213200000Y-94200000D03*
X213200000Y-95400000D03*
X213200000Y-96600000D03*
X213200000Y-97800000D03*
X213200000Y-99000000D03*
X213200000Y-100200000D03*
X212200000Y-93600000D03*
X212200000Y-94800000D03*
X212200000Y-96000000D03*
X212200000Y-97200000D03*
X212200000Y-98400000D03*
X212200000Y-99600000D03*
X212200000Y-100800000D03*
X211200000Y-94200000D03*
X211200000Y-95400000D03*
X211200000Y-96600000D03*
X211200000Y-97800000D03*
X211200000Y-99000000D03*
X211200000Y-100200000D03*
X210200000Y-93600000D03*
X210200000Y-94800000D03*
X210200000Y-96000000D03*
X210200000Y-97200000D03*
X210200000Y-98400000D03*
X210200000Y-99600000D03*
X208500000Y-90400000D03*
X208500000Y-91600000D03*
X208500000Y-92800000D03*
X208500000Y-94000000D03*
X208500000Y-86800000D03*
X208500000Y-88000000D03*
X208500000Y-89200000D03*
X206500000Y-88000000D03*
X206500000Y-89200000D03*
X206500000Y-90400000D03*
X206500000Y-91600000D03*
X206500000Y-92800000D03*
X207500000Y-93400000D03*
X206500000Y-94000000D03*
X207500000Y-87400000D03*
X207500000Y-88600000D03*
X207500000Y-89800000D03*
X207500000Y-91000000D03*
X207500000Y-92200000D03*
X206500000Y-86800000D03*
X205500000Y-92200000D03*
X205500000Y-91000000D03*
X205500000Y-89800000D03*
X205500000Y-88600000D03*
X205500000Y-87400000D03*
X204500000Y-86800000D03*
X204500000Y-88000000D03*
X204500000Y-89200000D03*
X204500000Y-90400000D03*
X204500000Y-91600000D03*
X204500000Y-92800000D03*
X205500000Y-93400000D03*
X204500000Y-94000000D03*
X203500000Y-93400000D03*
X203500000Y-92200000D03*
X203500000Y-91000000D03*
X203500000Y-89800000D03*
X203500000Y-88600000D03*
X203500000Y-87400000D03*
X202500000Y-86800000D03*
X202500000Y-88000000D03*
X202500000Y-89200000D03*
X202500000Y-90400000D03*
X202500000Y-91600000D03*
X202500000Y-92800000D03*
X200350000Y-97500000D03*
X200350000Y-98700000D03*
X200350000Y-99900000D03*
X200350000Y-93900000D03*
X200350000Y-95100000D03*
X200350000Y-92700000D03*
X200350000Y-96300000D03*
X199350000Y-96900000D03*
X199350000Y-95700000D03*
X199350000Y-94500000D03*
X199350000Y-93300000D03*
X198350000Y-97500000D03*
X198350000Y-98700000D03*
X198350000Y-99900000D03*
X198350000Y-93900000D03*
X199350000Y-99300000D03*
X198350000Y-95100000D03*
X199350000Y-98100000D03*
X198350000Y-92700000D03*
X198350000Y-96300000D03*
X197300000Y-99300000D03*
X196300000Y-92700000D03*
X196300000Y-93900000D03*
X196300000Y-95100000D03*
X196300000Y-96300000D03*
X197300000Y-98100000D03*
X197300000Y-96900000D03*
X197300000Y-95700000D03*
X197300000Y-94500000D03*
X197300000Y-93300000D03*
X196300000Y-97500000D03*
X196300000Y-98700000D03*
X196300000Y-99900000D03*
X195300000Y-99300000D03*
X195300000Y-98100000D03*
X195300000Y-96900000D03*
X195300000Y-95700000D03*
X195300000Y-94500000D03*
X195300000Y-93300000D03*
X194300000Y-92700000D03*
X194300000Y-93900000D03*
X194300000Y-95100000D03*
X194300000Y-96300000D03*
X194300000Y-97500000D03*
X194300000Y-98700000D03*
X192700000Y-80900000D03*
X192700000Y-82100000D03*
X192700000Y-83300000D03*
X192700000Y-84500000D03*
X191700000Y-86300000D03*
X191700000Y-82700000D03*
X192700000Y-86900000D03*
X192700000Y-85700000D03*
X192700000Y-79700000D03*
X191700000Y-80300000D03*
X191700000Y-85100000D03*
X191700000Y-83900000D03*
X191700000Y-81500000D03*
X190700000Y-79700000D03*
X190700000Y-80900000D03*
X190700000Y-82100000D03*
X190700000Y-83300000D03*
X190700000Y-84500000D03*
X190700000Y-85700000D03*
X190700000Y-86900000D03*
X189700000Y-86300000D03*
X189700000Y-85100000D03*
X189700000Y-83900000D03*
X189700000Y-82700000D03*
X189700000Y-81500000D03*
X189700000Y-80300000D03*
X188700000Y-79700000D03*
X188700000Y-80900000D03*
X188700000Y-82100000D03*
X188700000Y-83300000D03*
X188700000Y-84500000D03*
X188700000Y-85700000D03*
X188700000Y-86900000D03*
X187700000Y-86300000D03*
X187700000Y-85100000D03*
X187700000Y-83900000D03*
X187700000Y-82700000D03*
X187700000Y-81500000D03*
X187700000Y-80300000D03*
X186700000Y-79700000D03*
X186700000Y-80900000D03*
X186700000Y-82100000D03*
X186700000Y-83300000D03*
X186700000Y-84500000D03*
X186700000Y-85700000D03*
D12*
X209150000Y-76500000D03*
D13*
X217000000Y-105800000D03*
D14*
X205300000Y-90800000D03*
D13*
X193500000Y-105500000D03*
X188600000Y-74000000D03*
D11*
X210200000Y-100800000D03*
X202500000Y-94000000D03*
X194300000Y-99900000D03*
X186700000Y-86900000D03*
X162200000Y-97200000D03*
X162200000Y-98400000D03*
X162200000Y-99600000D03*
X162200000Y-100800000D03*
X162200000Y-93600000D03*
X162200000Y-94800000D03*
X162200000Y-96000000D03*
X160200000Y-93600000D03*
X160200000Y-94800000D03*
X160200000Y-96000000D03*
X160200000Y-97200000D03*
X160200000Y-98400000D03*
X160200000Y-99600000D03*
X160200000Y-100800000D03*
X161200000Y-97800000D03*
X161200000Y-99000000D03*
X161200000Y-96600000D03*
X161200000Y-95400000D03*
X161200000Y-94200000D03*
X161200000Y-100200000D03*
X159200000Y-94200000D03*
X159200000Y-95400000D03*
X159200000Y-96600000D03*
X159200000Y-97800000D03*
X159200000Y-99000000D03*
X159200000Y-100200000D03*
X158200000Y-93600000D03*
X158200000Y-94800000D03*
X158200000Y-96000000D03*
X158200000Y-97200000D03*
X158200000Y-98400000D03*
X158200000Y-99600000D03*
X158200000Y-100800000D03*
X157200000Y-94200000D03*
X157200000Y-95400000D03*
X157200000Y-96600000D03*
X157200000Y-97800000D03*
X157200000Y-99000000D03*
X157200000Y-100200000D03*
X156200000Y-93600000D03*
X156200000Y-94800000D03*
X156200000Y-96000000D03*
X156200000Y-97200000D03*
X156200000Y-98400000D03*
X156200000Y-99600000D03*
X154500000Y-90400000D03*
X154500000Y-91600000D03*
X154500000Y-92800000D03*
X154500000Y-94000000D03*
X154500000Y-86800000D03*
X154500000Y-88000000D03*
X154500000Y-89200000D03*
X152500000Y-88000000D03*
X152500000Y-89200000D03*
X152500000Y-90400000D03*
X152500000Y-91600000D03*
X152500000Y-92800000D03*
X153500000Y-93400000D03*
X152500000Y-94000000D03*
X153500000Y-87400000D03*
X153500000Y-88600000D03*
X153500000Y-89800000D03*
X153500000Y-91000000D03*
X153500000Y-92200000D03*
X152500000Y-86800000D03*
X151500000Y-92200000D03*
X151500000Y-91000000D03*
X151500000Y-89800000D03*
X151500000Y-88600000D03*
X151500000Y-87400000D03*
X150500000Y-86800000D03*
X150500000Y-88000000D03*
X150500000Y-89200000D03*
X150500000Y-90400000D03*
X150500000Y-91600000D03*
X150500000Y-92800000D03*
X151500000Y-93400000D03*
X150500000Y-94000000D03*
X149500000Y-93400000D03*
X149500000Y-92200000D03*
X149500000Y-91000000D03*
X149500000Y-89800000D03*
X149500000Y-88600000D03*
X149500000Y-87400000D03*
X148500000Y-86800000D03*
X148500000Y-88000000D03*
X148500000Y-89200000D03*
X148500000Y-90400000D03*
X148500000Y-91600000D03*
X148500000Y-92800000D03*
X146350000Y-97500000D03*
X146350000Y-98700000D03*
X146350000Y-99900000D03*
X146350000Y-93900000D03*
X146350000Y-95100000D03*
X146350000Y-92700000D03*
X146350000Y-96300000D03*
X145350000Y-96900000D03*
X145350000Y-95700000D03*
X145350000Y-94500000D03*
X145350000Y-93300000D03*
X144350000Y-97500000D03*
X144350000Y-98700000D03*
X144350000Y-99900000D03*
X144350000Y-93900000D03*
X145350000Y-99300000D03*
X144350000Y-95100000D03*
X145350000Y-98100000D03*
X144350000Y-92700000D03*
X144350000Y-96300000D03*
X143300000Y-99300000D03*
X142300000Y-92700000D03*
X142300000Y-93900000D03*
X142300000Y-95100000D03*
X142300000Y-96300000D03*
X143300000Y-98100000D03*
X143300000Y-96900000D03*
X143300000Y-95700000D03*
X143300000Y-94500000D03*
X143300000Y-93300000D03*
X142300000Y-97500000D03*
X142300000Y-98700000D03*
X142300000Y-99900000D03*
X141300000Y-99300000D03*
X141300000Y-98100000D03*
X141300000Y-96900000D03*
X141300000Y-95700000D03*
X141300000Y-94500000D03*
X141300000Y-93300000D03*
X140300000Y-92700000D03*
X140300000Y-93900000D03*
X140300000Y-95100000D03*
X140300000Y-96300000D03*
X140300000Y-97500000D03*
X140300000Y-98700000D03*
X138700000Y-80900000D03*
X138700000Y-82100000D03*
X138700000Y-83300000D03*
X138700000Y-84500000D03*
X137700000Y-86300000D03*
X137700000Y-82700000D03*
X138700000Y-86900000D03*
X138700000Y-85700000D03*
X138700000Y-79700000D03*
X137700000Y-80300000D03*
X137700000Y-85100000D03*
X137700000Y-83900000D03*
X137700000Y-81500000D03*
X136700000Y-79700000D03*
X136700000Y-80900000D03*
X136700000Y-82100000D03*
X136700000Y-83300000D03*
X136700000Y-84500000D03*
X136700000Y-85700000D03*
X136700000Y-86900000D03*
X135700000Y-86300000D03*
X135700000Y-85100000D03*
X135700000Y-83900000D03*
X135700000Y-82700000D03*
X135700000Y-81500000D03*
X135700000Y-80300000D03*
X134700000Y-79700000D03*
X134700000Y-80900000D03*
X134700000Y-82100000D03*
X134700000Y-83300000D03*
X134700000Y-84500000D03*
X134700000Y-85700000D03*
X134700000Y-86900000D03*
X133700000Y-86300000D03*
X133700000Y-85100000D03*
X133700000Y-83900000D03*
X133700000Y-82700000D03*
X133700000Y-81500000D03*
X133700000Y-80300000D03*
X132700000Y-79700000D03*
X132700000Y-80900000D03*
X132700000Y-82100000D03*
X132700000Y-83300000D03*
X132700000Y-84500000D03*
X132700000Y-85700000D03*
D12*
X155150000Y-76500000D03*
D13*
X163000000Y-105800000D03*
D14*
X151300000Y-90800000D03*
D13*
X139500000Y-105500000D03*
X134600000Y-74000000D03*
D11*
X156200000Y-100800000D03*
X148500000Y-94000000D03*
X140300000Y-99900000D03*
X132700000Y-86900000D03*
D15*
X174600000Y-145150000D03*
X174600000Y-145950000D03*
X175450000Y-145950000D03*
X175450000Y-145150000D03*
X175450000Y-146750000D03*
X174600000Y-146750000D03*
X173750000Y-146750000D03*
X173750000Y-145950000D03*
X173750000Y-145150000D03*
X175450000Y-144350000D03*
X174600000Y-144350000D03*
X173750000Y-144350000D03*
X93350000Y-145000000D03*
X94150000Y-145000000D03*
X96550000Y-145000000D03*
X95750000Y-145000000D03*
X94950000Y-145000000D03*
X179850000Y-145000000D03*
X179050000Y-145000000D03*
X177450000Y-145000000D03*
X180650000Y-145000000D03*
X178250000Y-145000000D03*
X198000000Y-27750000D03*
X197150000Y-27750000D03*
X196300000Y-27750000D03*
X195450000Y-27750000D03*
X195450000Y-26900000D03*
X196300000Y-26900000D03*
X197150000Y-26900000D03*
X198000000Y-26900000D03*
X143950000Y-27850000D03*
X143950000Y-27000000D03*
X141400000Y-27850000D03*
X143100000Y-27000000D03*
X142250000Y-27850000D03*
X142250000Y-27000000D03*
X143100000Y-27850000D03*
X141400000Y-27000000D03*
X84450000Y-33200000D03*
X87000000Y-32700000D03*
X86150000Y-32700000D03*
X84450000Y-34050000D03*
X87000000Y-31850000D03*
X85300000Y-34050000D03*
X86150000Y-31850000D03*
X85300000Y-33200000D03*
X32100000Y-31900000D03*
X32950000Y-32750000D03*
X32950000Y-31900000D03*
X31250000Y-34100000D03*
X31250000Y-33250000D03*
X32100000Y-32750000D03*
X30400000Y-34100000D03*
X30400000Y-33250000D03*
X181450000Y-145000000D03*
X97350000Y-145000000D03*
X84700000Y-126050000D03*
X97450000Y-126050000D03*
X98300000Y-125200000D03*
X99150000Y-125200000D03*
X88100000Y-126900000D03*
X89800000Y-124350000D03*
X86400000Y-126900000D03*
X107650000Y-124350000D03*
X92350000Y-126050000D03*
X98300000Y-126900000D03*
X94050000Y-126900000D03*
X84700000Y-125200000D03*
X94050000Y-124350000D03*
X97450000Y-125200000D03*
X100850000Y-124350000D03*
X97450000Y-126900000D03*
X104250000Y-126900000D03*
X88950000Y-124350000D03*
X107650000Y-126900000D03*
X100850000Y-126050000D03*
X104250000Y-126050000D03*
X87250000Y-126900000D03*
X100000000Y-126900000D03*
X85550000Y-126050000D03*
X88950000Y-126900000D03*
X99150000Y-126900000D03*
X94900000Y-126900000D03*
X86400000Y-124350000D03*
X96600000Y-125200000D03*
X94900000Y-125200000D03*
X103400000Y-124350000D03*
X92350000Y-126900000D03*
X105100000Y-126900000D03*
X106800000Y-126900000D03*
X105950000Y-125200000D03*
X89800000Y-125200000D03*
X93200000Y-126050000D03*
X84700000Y-124350000D03*
X105950000Y-126050000D03*
X95750000Y-126050000D03*
X105950000Y-124350000D03*
X88100000Y-126050000D03*
X95750000Y-124350000D03*
X94050000Y-126050000D03*
X93200000Y-124350000D03*
X100000000Y-126050000D03*
X86400000Y-126050000D03*
X93200000Y-126900000D03*
X91500000Y-125200000D03*
X105100000Y-126050000D03*
X94900000Y-124350000D03*
X90650000Y-126050000D03*
X100850000Y-126900000D03*
X96600000Y-124350000D03*
X96600000Y-126900000D03*
X107650000Y-125200000D03*
X100000000Y-124350000D03*
X102550000Y-126900000D03*
X104250000Y-124350000D03*
X100850000Y-125200000D03*
X91500000Y-124350000D03*
X91500000Y-126050000D03*
X95750000Y-126900000D03*
X85550000Y-126900000D03*
X94900000Y-126050000D03*
X107650000Y-126050000D03*
X106800000Y-126050000D03*
X100000000Y-125200000D03*
X86400000Y-125200000D03*
X97450000Y-124350000D03*
X105950000Y-126900000D03*
X88100000Y-124350000D03*
X102550000Y-125200000D03*
X90650000Y-125200000D03*
X106800000Y-124350000D03*
X101700000Y-124350000D03*
X99150000Y-126050000D03*
X98300000Y-126050000D03*
X98300000Y-124350000D03*
X89800000Y-126900000D03*
X101700000Y-126900000D03*
X90650000Y-126900000D03*
X103400000Y-126900000D03*
X99150000Y-124350000D03*
X102550000Y-124350000D03*
X88950000Y-126050000D03*
X106800000Y-125200000D03*
X101700000Y-125200000D03*
X90650000Y-124350000D03*
X91500000Y-126900000D03*
X89800000Y-126050000D03*
X94050000Y-125200000D03*
X88950000Y-125200000D03*
X102550000Y-126050000D03*
X95750000Y-125200000D03*
X104250000Y-125200000D03*
X87250000Y-125200000D03*
X92350000Y-125200000D03*
X103400000Y-125200000D03*
X87250000Y-124350000D03*
X92350000Y-124350000D03*
X88100000Y-125200000D03*
X101700000Y-126050000D03*
X84700000Y-126900000D03*
X103400000Y-126050000D03*
X85550000Y-124350000D03*
X87250000Y-126050000D03*
X85550000Y-125200000D03*
X105100000Y-125200000D03*
X93200000Y-125200000D03*
X105100000Y-124350000D03*
X96600000Y-126050000D03*
X215100000Y-55750000D03*
X214250000Y-55750000D03*
X212550000Y-54050000D03*
X210850000Y-54050000D03*
X211700000Y-54050000D03*
X215100000Y-54050000D03*
X208300000Y-56600000D03*
X212550000Y-55750000D03*
X208300000Y-54050000D03*
X209150000Y-55750000D03*
X214250000Y-54050000D03*
X210000000Y-56600000D03*
X211700000Y-55750000D03*
X214250000Y-56600000D03*
X206600000Y-54900000D03*
X215100000Y-54900000D03*
X205750000Y-55750000D03*
X206600000Y-56600000D03*
X207450000Y-56600000D03*
X205750000Y-54900000D03*
X213400000Y-54050000D03*
X207450000Y-54050000D03*
X209150000Y-56600000D03*
X211700000Y-56600000D03*
X208300000Y-54900000D03*
X207450000Y-55750000D03*
X210850000Y-55750000D03*
X209150000Y-54050000D03*
X210000000Y-54900000D03*
X206600000Y-54050000D03*
X207450000Y-54900000D03*
X211700000Y-54900000D03*
X206600000Y-55750000D03*
X213400000Y-54900000D03*
X209150000Y-54900000D03*
X205750000Y-56600000D03*
X214250000Y-54900000D03*
X212550000Y-54900000D03*
X208300000Y-55750000D03*
X210850000Y-56600000D03*
X210000000Y-54050000D03*
X210850000Y-54900000D03*
X212550000Y-56600000D03*
X213400000Y-55750000D03*
X213400000Y-56600000D03*
X215100000Y-56600000D03*
X210000000Y-55750000D03*
X205750000Y-54050000D03*
X161150000Y-54900000D03*
X161150000Y-55750000D03*
X160300000Y-54050000D03*
X158600000Y-55750000D03*
X156900000Y-54050000D03*
X158600000Y-56600000D03*
X159450000Y-55750000D03*
X155200000Y-54900000D03*
X158600000Y-54050000D03*
X151800000Y-54900000D03*
X160300000Y-56600000D03*
X155200000Y-55750000D03*
X152650000Y-55750000D03*
X157750000Y-54900000D03*
X156050000Y-56600000D03*
X154350000Y-54050000D03*
X153500000Y-54050000D03*
X156050000Y-54900000D03*
X155200000Y-56600000D03*
X154350000Y-54900000D03*
X159450000Y-56600000D03*
X161150000Y-56600000D03*
X153500000Y-56600000D03*
X157750000Y-55750000D03*
X152650000Y-56600000D03*
X158600000Y-54900000D03*
X154350000Y-55750000D03*
X156900000Y-55750000D03*
X155200000Y-54050000D03*
X153500000Y-55750000D03*
X156050000Y-55750000D03*
X151800000Y-54050000D03*
X156050000Y-54050000D03*
X156900000Y-54900000D03*
X159450000Y-54050000D03*
X154350000Y-56600000D03*
X151800000Y-55750000D03*
X159450000Y-54900000D03*
X156900000Y-56600000D03*
X161150000Y-54050000D03*
X151800000Y-56600000D03*
X157750000Y-54050000D03*
X160300000Y-55750000D03*
X152650000Y-54050000D03*
X160300000Y-54900000D03*
X153500000Y-54900000D03*
X152650000Y-54900000D03*
X157750000Y-56600000D03*
X105450000Y-54900000D03*
X102900000Y-56600000D03*
X100350000Y-54050000D03*
X99500000Y-54050000D03*
X102050000Y-54900000D03*
X101200000Y-56600000D03*
X101200000Y-54900000D03*
X104600000Y-54050000D03*
X107150000Y-56600000D03*
X99500000Y-56600000D03*
X107150000Y-55750000D03*
X107150000Y-54900000D03*
X99500000Y-54900000D03*
X98650000Y-54900000D03*
X103750000Y-55750000D03*
X98650000Y-56600000D03*
X101200000Y-55750000D03*
X98650000Y-55750000D03*
X103750000Y-54050000D03*
X106300000Y-55750000D03*
X104600000Y-56600000D03*
X97800000Y-54050000D03*
X102050000Y-54050000D03*
X106300000Y-54050000D03*
X100350000Y-56600000D03*
X97800000Y-55750000D03*
X102900000Y-54050000D03*
X102900000Y-54900000D03*
X105450000Y-54050000D03*
X99500000Y-55750000D03*
X102050000Y-55750000D03*
X102900000Y-55750000D03*
X101200000Y-54050000D03*
X104600000Y-55750000D03*
X98650000Y-54050000D03*
X106300000Y-54900000D03*
X100350000Y-54900000D03*
X105450000Y-56600000D03*
X103750000Y-56600000D03*
X104600000Y-54900000D03*
X100350000Y-55750000D03*
X105450000Y-55750000D03*
X107150000Y-54050000D03*
X97800000Y-56600000D03*
X103750000Y-54900000D03*
X102050000Y-56600000D03*
X97800000Y-54900000D03*
X106300000Y-56600000D03*
X53150000Y-56600000D03*
X45500000Y-55750000D03*
X47200000Y-54900000D03*
X44650000Y-54900000D03*
X44650000Y-55750000D03*
X53150000Y-55750000D03*
X51450000Y-54900000D03*
X52300000Y-55750000D03*
X45500000Y-54050000D03*
X52300000Y-56600000D03*
X46350000Y-56600000D03*
X43800000Y-55750000D03*
X46350000Y-54050000D03*
X48900000Y-55750000D03*
X47200000Y-54050000D03*
X49750000Y-54050000D03*
X48050000Y-55750000D03*
X53150000Y-54900000D03*
X48050000Y-54050000D03*
X52300000Y-54050000D03*
X51450000Y-56600000D03*
X49750000Y-56600000D03*
X51450000Y-55750000D03*
X53150000Y-54050000D03*
X47200000Y-55750000D03*
X45500000Y-54900000D03*
X45500000Y-56600000D03*
X51450000Y-54050000D03*
X48900000Y-54050000D03*
X48900000Y-54900000D03*
X48050000Y-54900000D03*
X50600000Y-56600000D03*
X50600000Y-54900000D03*
X46350000Y-55750000D03*
X47200000Y-56600000D03*
X48050000Y-56600000D03*
X43800000Y-54900000D03*
X48900000Y-56600000D03*
X43800000Y-54050000D03*
X50600000Y-55750000D03*
X44650000Y-54050000D03*
X49750000Y-55750000D03*
X50600000Y-54050000D03*
X52300000Y-54900000D03*
X46350000Y-54900000D03*
X44650000Y-56600000D03*
X43800000Y-56600000D03*
X49750000Y-54900000D03*
X164800000Y-127000000D03*
X161400000Y-127000000D03*
X145250000Y-125300000D03*
X152050000Y-127000000D03*
X154600000Y-125300000D03*
X155450000Y-127000000D03*
X151200000Y-125300000D03*
X146950000Y-126150000D03*
X143550000Y-124450000D03*
X160550000Y-125300000D03*
X152050000Y-125300000D03*
X164800000Y-124450000D03*
X141850000Y-124450000D03*
X156300000Y-124450000D03*
X158850000Y-124450000D03*
X157150000Y-127000000D03*
X147800000Y-126150000D03*
X158850000Y-125300000D03*
X147800000Y-127000000D03*
X152050000Y-126150000D03*
X163950000Y-126150000D03*
X163100000Y-125300000D03*
X149500000Y-126150000D03*
X150350000Y-127000000D03*
X144400000Y-125300000D03*
X141850000Y-126150000D03*
X142700000Y-125300000D03*
X150350000Y-126150000D03*
X142700000Y-127000000D03*
X151200000Y-124450000D03*
X148650000Y-127000000D03*
X145250000Y-126150000D03*
X158850000Y-127000000D03*
X142700000Y-124450000D03*
X152900000Y-124450000D03*
X146100000Y-127000000D03*
X145250000Y-124450000D03*
X150350000Y-124450000D03*
X149500000Y-127000000D03*
X160550000Y-127000000D03*
X153750000Y-124450000D03*
X153750000Y-127000000D03*
X141850000Y-127000000D03*
X146100000Y-125300000D03*
X159700000Y-124450000D03*
X152050000Y-124450000D03*
X158000000Y-127000000D03*
X161400000Y-124450000D03*
X146100000Y-124450000D03*
X162250000Y-124450000D03*
X145250000Y-127000000D03*
X146950000Y-127000000D03*
X144400000Y-124450000D03*
X142700000Y-126150000D03*
X155450000Y-124450000D03*
X158850000Y-126150000D03*
X153750000Y-126150000D03*
X151200000Y-127000000D03*
X162250000Y-125300000D03*
X164800000Y-126150000D03*
X163950000Y-125300000D03*
X156300000Y-126150000D03*
X155450000Y-125300000D03*
X146100000Y-126150000D03*
X154600000Y-126150000D03*
X156300000Y-125300000D03*
X157150000Y-124450000D03*
X157150000Y-126150000D03*
X163950000Y-127000000D03*
X143550000Y-126150000D03*
X152900000Y-126150000D03*
X161400000Y-126150000D03*
X144400000Y-126150000D03*
X155450000Y-126150000D03*
X159700000Y-126150000D03*
X153750000Y-125300000D03*
X147800000Y-125300000D03*
X158000000Y-124450000D03*
X159700000Y-125300000D03*
X152900000Y-127000000D03*
X149500000Y-125300000D03*
X152900000Y-125300000D03*
X163100000Y-126150000D03*
X159700000Y-127000000D03*
X161400000Y-125300000D03*
X147800000Y-124450000D03*
X151200000Y-126150000D03*
X148650000Y-126150000D03*
X149500000Y-124450000D03*
X162250000Y-126150000D03*
X164800000Y-125300000D03*
X150350000Y-125300000D03*
X148650000Y-125300000D03*
X163950000Y-124450000D03*
X141850000Y-125300000D03*
X158000000Y-126150000D03*
X156300000Y-127000000D03*
X158000000Y-125300000D03*
X163100000Y-124450000D03*
X146950000Y-125300000D03*
X148650000Y-124450000D03*
X157150000Y-125300000D03*
X160550000Y-124450000D03*
X143550000Y-127000000D03*
X143550000Y-125300000D03*
X154600000Y-124450000D03*
X146950000Y-124450000D03*
X144400000Y-127000000D03*
X163100000Y-127000000D03*
X154600000Y-127000000D03*
X160550000Y-126150000D03*
X162250000Y-127000000D03*
X217400000Y-127150000D03*
X215700000Y-126300000D03*
X209750000Y-127150000D03*
X218250000Y-127150000D03*
X199550000Y-127150000D03*
X202100000Y-124600000D03*
X209750000Y-124600000D03*
X198700000Y-125450000D03*
X198700000Y-127150000D03*
X215700000Y-124600000D03*
X212300000Y-125450000D03*
X203800000Y-124600000D03*
X202100000Y-125450000D03*
X218250000Y-124600000D03*
X213150000Y-125450000D03*
X211450000Y-127150000D03*
X213150000Y-126300000D03*
X197000000Y-125450000D03*
X219100000Y-124600000D03*
X203800000Y-125450000D03*
X205500000Y-125450000D03*
X219950000Y-125450000D03*
X217400000Y-126300000D03*
X204650000Y-124600000D03*
X203800000Y-126300000D03*
X206350000Y-126300000D03*
X202950000Y-124600000D03*
X216550000Y-125450000D03*
X214850000Y-127150000D03*
X218250000Y-126300000D03*
X208050000Y-125450000D03*
X204650000Y-125450000D03*
X208050000Y-127150000D03*
X214850000Y-125450000D03*
X213150000Y-124600000D03*
X202950000Y-125450000D03*
X208900000Y-125450000D03*
X214850000Y-126300000D03*
X210600000Y-126300000D03*
X199550000Y-126300000D03*
X216550000Y-126300000D03*
X208050000Y-126300000D03*
X198700000Y-126300000D03*
X219100000Y-127150000D03*
X212300000Y-126300000D03*
X212300000Y-124600000D03*
X211450000Y-125450000D03*
X209750000Y-126300000D03*
X201250000Y-126300000D03*
X210600000Y-125450000D03*
X211450000Y-126300000D03*
X219100000Y-125450000D03*
X219950000Y-126300000D03*
X217400000Y-125450000D03*
X206350000Y-127150000D03*
X208900000Y-126300000D03*
X214000000Y-126300000D03*
X210600000Y-124600000D03*
X197850000Y-126300000D03*
X199550000Y-124600000D03*
X202100000Y-127150000D03*
X200400000Y-127150000D03*
X217400000Y-124600000D03*
X201250000Y-124600000D03*
X216550000Y-124600000D03*
X213150000Y-127150000D03*
X207200000Y-124600000D03*
X214850000Y-124600000D03*
X201250000Y-125450000D03*
X197000000Y-127150000D03*
X208900000Y-127150000D03*
X208900000Y-124600000D03*
X215700000Y-127150000D03*
X204650000Y-127150000D03*
X205500000Y-124600000D03*
X200400000Y-124600000D03*
X201250000Y-127150000D03*
X208050000Y-124600000D03*
X197850000Y-124600000D03*
X214000000Y-127150000D03*
X200400000Y-126300000D03*
X203800000Y-127150000D03*
X206350000Y-124600000D03*
X197850000Y-127150000D03*
X205500000Y-126300000D03*
X197850000Y-125450000D03*
X197000000Y-126300000D03*
X199550000Y-125450000D03*
X205500000Y-127150000D03*
X204650000Y-126300000D03*
X218250000Y-125450000D03*
X219100000Y-126300000D03*
X207200000Y-126300000D03*
X202950000Y-127150000D03*
X214000000Y-125450000D03*
X202950000Y-126300000D03*
X212300000Y-127150000D03*
X214000000Y-124600000D03*
X211450000Y-124600000D03*
X197000000Y-124600000D03*
X219950000Y-124600000D03*
X207200000Y-125450000D03*
X215700000Y-125450000D03*
X198700000Y-124600000D03*
X202100000Y-126300000D03*
X206350000Y-125450000D03*
X210600000Y-127150000D03*
X209750000Y-125450000D03*
X207200000Y-127150000D03*
X200400000Y-125450000D03*
X216550000Y-127150000D03*
X219950000Y-127150000D03*
X34750000Y-125100000D03*
X47500000Y-126800000D03*
X33050000Y-125950000D03*
X41550000Y-126800000D03*
X53450000Y-125100000D03*
X50900000Y-126800000D03*
X42400000Y-126800000D03*
X39850000Y-124250000D03*
X42400000Y-124250000D03*
X56000000Y-124250000D03*
X33050000Y-124250000D03*
X48350000Y-126800000D03*
X34750000Y-126800000D03*
X41550000Y-124250000D03*
X40700000Y-125100000D03*
X47500000Y-125950000D03*
X46650000Y-124250000D03*
X42400000Y-125100000D03*
X52600000Y-125100000D03*
X44100000Y-125100000D03*
X51750000Y-124250000D03*
X37300000Y-124250000D03*
X44950000Y-125950000D03*
X55150000Y-126800000D03*
X49200000Y-125100000D03*
X33900000Y-125100000D03*
X33050000Y-126800000D03*
X36450000Y-125950000D03*
X44950000Y-124250000D03*
X54300000Y-125100000D03*
X40700000Y-126800000D03*
X54300000Y-126800000D03*
X50900000Y-125100000D03*
X50050000Y-124250000D03*
X52600000Y-124250000D03*
X39850000Y-125950000D03*
X43250000Y-125950000D03*
X55150000Y-125950000D03*
X33900000Y-124250000D03*
X39850000Y-125100000D03*
X53450000Y-125950000D03*
X50050000Y-125950000D03*
X45800000Y-125950000D03*
X49200000Y-126800000D03*
X43250000Y-126800000D03*
X44100000Y-126800000D03*
X46650000Y-125100000D03*
X47500000Y-125100000D03*
X56000000Y-125100000D03*
X48350000Y-125100000D03*
X55150000Y-125100000D03*
X39000000Y-124250000D03*
X38150000Y-125950000D03*
X51750000Y-125100000D03*
X37300000Y-125950000D03*
X36450000Y-125100000D03*
X41550000Y-125950000D03*
X39850000Y-126800000D03*
X38150000Y-126800000D03*
X50050000Y-125100000D03*
X39000000Y-126800000D03*
X50900000Y-125950000D03*
X56000000Y-125950000D03*
X39000000Y-125100000D03*
X46650000Y-125950000D03*
X46650000Y-126800000D03*
X45800000Y-126800000D03*
X52600000Y-125950000D03*
X33050000Y-125100000D03*
X33900000Y-126800000D03*
X53450000Y-126800000D03*
X42400000Y-125950000D03*
X53450000Y-124250000D03*
X45800000Y-125100000D03*
X45800000Y-124250000D03*
X38150000Y-125100000D03*
X47500000Y-124250000D03*
X43250000Y-125100000D03*
X35600000Y-124250000D03*
X36450000Y-124250000D03*
X36450000Y-126800000D03*
X38150000Y-124250000D03*
X39000000Y-125950000D03*
X54300000Y-124250000D03*
X34750000Y-125950000D03*
X43250000Y-124250000D03*
X44100000Y-124250000D03*
X50050000Y-126800000D03*
X51750000Y-126800000D03*
X50900000Y-124250000D03*
X48350000Y-125950000D03*
X35600000Y-126800000D03*
X54300000Y-125950000D03*
X48350000Y-124250000D03*
X40700000Y-124250000D03*
X40700000Y-125950000D03*
X44950000Y-126800000D03*
X44100000Y-125950000D03*
X33900000Y-125950000D03*
X51750000Y-125950000D03*
X35600000Y-125100000D03*
X37300000Y-125100000D03*
X44950000Y-125100000D03*
X37300000Y-126800000D03*
X41550000Y-125100000D03*
X35600000Y-125950000D03*
X49200000Y-125950000D03*
X56000000Y-126800000D03*
X34750000Y-124250000D03*
X49200000Y-124250000D03*
X52600000Y-126800000D03*
X55150000Y-124250000D03*
X89600000Y-145150000D03*
X89600000Y-144350000D03*
X90450000Y-144350000D03*
X91300000Y-146750000D03*
X89600000Y-146750000D03*
X91300000Y-144350000D03*
X91300000Y-145950000D03*
X91300000Y-145150000D03*
X90450000Y-145150000D03*
X90450000Y-146750000D03*
X90450000Y-145950000D03*
X89600000Y-145950000D03*
X94550000Y-149050000D03*
X120750000Y-143750000D03*
X200750000Y-143650000D03*
X178649996Y-149000000D03*
D16*
X115450000Y-149050000D02*
X120750000Y-143750000D01*
X94550000Y-149050000D02*
X115450000Y-149050000D01*
X195400000Y-149000000D02*
X178649996Y-149000000D01*
X200750000Y-143650000D02*
X195400000Y-149000000D01*
D17*
G36*
X233548001Y-159248000D02*
G01*
X18452000Y-159248000D01*
X18452000Y-156050358D01*
X19423000Y-156050358D01*
X19423000Y-156449642D01*
X19500896Y-156841254D01*
X19653696Y-157210145D01*
X19875526Y-157542137D01*
X20157863Y-157824474D01*
X20489855Y-158046304D01*
X20858746Y-158199104D01*
X21250358Y-158277000D01*
X21649642Y-158277000D01*
X22041254Y-158199104D01*
X22410145Y-158046304D01*
X22742137Y-157824474D01*
X23024474Y-157542137D01*
X23246304Y-157210145D01*
X23399104Y-156841254D01*
X23477000Y-156449642D01*
X23477000Y-156050358D01*
X122123000Y-156050358D01*
X122123000Y-156449642D01*
X122200896Y-156841254D01*
X122353696Y-157210145D01*
X122575526Y-157542137D01*
X122857863Y-157824474D01*
X123189855Y-158046304D01*
X123558746Y-158199104D01*
X123950358Y-158277000D01*
X124349642Y-158277000D01*
X124741254Y-158199104D01*
X125110145Y-158046304D01*
X125442137Y-157824474D01*
X125724474Y-157542137D01*
X125946304Y-157210145D01*
X126099104Y-156841254D01*
X126177000Y-156449642D01*
X126177000Y-156050358D01*
X228523000Y-156050358D01*
X228523000Y-156449642D01*
X228600896Y-156841254D01*
X228753696Y-157210145D01*
X228975526Y-157542137D01*
X229257863Y-157824474D01*
X229589855Y-158046304D01*
X229958746Y-158199104D01*
X230350358Y-158277000D01*
X230749642Y-158277000D01*
X231141254Y-158199104D01*
X231510145Y-158046304D01*
X231842137Y-157824474D01*
X232124474Y-157542137D01*
X232346304Y-157210145D01*
X232499104Y-156841254D01*
X232577000Y-156449642D01*
X232577000Y-156050358D01*
X232499104Y-155658746D01*
X232346304Y-155289855D01*
X232124474Y-154957863D01*
X231842137Y-154675526D01*
X231510145Y-154453696D01*
X231141254Y-154300896D01*
X230749642Y-154223000D01*
X230350358Y-154223000D01*
X229958746Y-154300896D01*
X229589855Y-154453696D01*
X229257863Y-154675526D01*
X228975526Y-154957863D01*
X228753696Y-155289855D01*
X228600896Y-155658746D01*
X228523000Y-156050358D01*
X126177000Y-156050358D01*
X126099104Y-155658746D01*
X125946304Y-155289855D01*
X125724474Y-154957863D01*
X125442137Y-154675526D01*
X125110145Y-154453696D01*
X124741254Y-154300896D01*
X124349642Y-154223000D01*
X123950358Y-154223000D01*
X123558746Y-154300896D01*
X123189855Y-154453696D01*
X122857863Y-154675526D01*
X122575526Y-154957863D01*
X122353696Y-155289855D01*
X122200896Y-155658746D01*
X122123000Y-156050358D01*
X23477000Y-156050358D01*
X23399104Y-155658746D01*
X23246304Y-155289855D01*
X23024474Y-154957863D01*
X22742137Y-154675526D01*
X22410145Y-154453696D01*
X22041254Y-154300896D01*
X21649642Y-154223000D01*
X21250358Y-154223000D01*
X20858746Y-154300896D01*
X20489855Y-154453696D01*
X20157863Y-154675526D01*
X19875526Y-154957863D01*
X19653696Y-155289855D01*
X19500896Y-155658746D01*
X19423000Y-156050358D01*
X18452000Y-156050358D01*
X18452000Y-152910207D01*
X133223000Y-152910207D01*
X133223000Y-153289793D01*
X133297053Y-153662085D01*
X133442315Y-154012777D01*
X133653201Y-154328391D01*
X133921609Y-154596799D01*
X134237223Y-154807685D01*
X134587915Y-154952947D01*
X134960207Y-155027000D01*
X135339793Y-155027000D01*
X135712085Y-154952947D01*
X136062777Y-154807685D01*
X136378391Y-154596799D01*
X136646799Y-154328391D01*
X136857685Y-154012777D01*
X137002947Y-153662085D01*
X137077000Y-153289793D01*
X137077000Y-152910207D01*
X213773000Y-152910207D01*
X213773000Y-153289793D01*
X213847053Y-153662085D01*
X213992315Y-154012777D01*
X214203201Y-154328391D01*
X214471609Y-154596799D01*
X214787223Y-154807685D01*
X215137915Y-154952947D01*
X215510207Y-155027000D01*
X215889793Y-155027000D01*
X216262085Y-154952947D01*
X216612777Y-154807685D01*
X216928391Y-154596799D01*
X217196799Y-154328391D01*
X217407685Y-154012777D01*
X217552947Y-153662085D01*
X217627000Y-153289793D01*
X217627000Y-152910207D01*
X217552947Y-152537915D01*
X217407685Y-152187223D01*
X217196799Y-151871609D01*
X216928391Y-151603201D01*
X216612777Y-151392315D01*
X216262085Y-151247053D01*
X215889793Y-151173000D01*
X215510207Y-151173000D01*
X215137915Y-151247053D01*
X214787223Y-151392315D01*
X214471609Y-151603201D01*
X214203201Y-151871609D01*
X213992315Y-152187223D01*
X213847053Y-152537915D01*
X213773000Y-152910207D01*
X137077000Y-152910207D01*
X137002947Y-152537915D01*
X136857685Y-152187223D01*
X136646799Y-151871609D01*
X136378391Y-151603201D01*
X136062777Y-151392315D01*
X135712085Y-151247053D01*
X135339793Y-151173000D01*
X134960207Y-151173000D01*
X134587915Y-151247053D01*
X134237223Y-151392315D01*
X133921609Y-151603201D01*
X133653201Y-151871609D01*
X133442315Y-152187223D01*
X133297053Y-152537915D01*
X133223000Y-152910207D01*
X18452000Y-152910207D01*
X18452000Y-148968548D01*
X93723000Y-148968548D01*
X93723000Y-149131452D01*
X93754782Y-149291227D01*
X93817123Y-149441731D01*
X93907628Y-149577181D01*
X94022819Y-149692372D01*
X94158269Y-149782877D01*
X94308773Y-149845218D01*
X94468548Y-149877000D01*
X94631452Y-149877000D01*
X94791227Y-149845218D01*
X94941731Y-149782877D01*
X95025357Y-149727000D01*
X115416755Y-149727000D01*
X115450000Y-149730274D01*
X115483245Y-149727000D01*
X115483252Y-149727000D01*
X115582715Y-149717204D01*
X115710330Y-149678492D01*
X115827941Y-149615628D01*
X115931027Y-149531027D01*
X115952226Y-149505196D01*
X116538874Y-148918548D01*
X177822996Y-148918548D01*
X177822996Y-149081452D01*
X177854778Y-149241227D01*
X177917119Y-149391731D01*
X178007624Y-149527181D01*
X178122815Y-149642372D01*
X178258265Y-149732877D01*
X178408769Y-149795218D01*
X178568544Y-149827000D01*
X178731448Y-149827000D01*
X178891223Y-149795218D01*
X179041727Y-149732877D01*
X179125353Y-149677000D01*
X195366755Y-149677000D01*
X195400000Y-149680274D01*
X195433245Y-149677000D01*
X195433252Y-149677000D01*
X195532715Y-149667204D01*
X195660330Y-149628492D01*
X195777941Y-149565628D01*
X195881027Y-149481027D01*
X195902226Y-149455196D01*
X199747215Y-145610207D01*
X215873000Y-145610207D01*
X215873000Y-145989793D01*
X215947053Y-146362085D01*
X216092315Y-146712777D01*
X216303201Y-147028391D01*
X216571609Y-147296799D01*
X216887223Y-147507685D01*
X217237915Y-147652947D01*
X217610207Y-147727000D01*
X217989793Y-147727000D01*
X218362085Y-147652947D01*
X218712777Y-147507685D01*
X219028391Y-147296799D01*
X219296799Y-147028391D01*
X219507685Y-146712777D01*
X219652947Y-146362085D01*
X219727000Y-145989793D01*
X219727000Y-145610207D01*
X219652947Y-145237915D01*
X219507685Y-144887223D01*
X219296799Y-144571609D01*
X219028391Y-144303201D01*
X218712777Y-144092315D01*
X218362085Y-143947053D01*
X217989793Y-143873000D01*
X217610207Y-143873000D01*
X217237915Y-143947053D01*
X216887223Y-144092315D01*
X216571609Y-144303201D01*
X216303201Y-144571609D01*
X216092315Y-144887223D01*
X215947053Y-145237915D01*
X215873000Y-145610207D01*
X199747215Y-145610207D01*
X200892583Y-144464840D01*
X200991227Y-144445218D01*
X201141731Y-144382877D01*
X201277181Y-144292372D01*
X201392372Y-144177181D01*
X201482877Y-144041731D01*
X201545218Y-143891227D01*
X201577000Y-143731452D01*
X201577000Y-143568548D01*
X201545218Y-143408773D01*
X201482877Y-143258269D01*
X201392372Y-143122819D01*
X201277181Y-143007628D01*
X201141731Y-142917123D01*
X200991227Y-142854782D01*
X200831452Y-142823000D01*
X200668548Y-142823000D01*
X200508773Y-142854782D01*
X200358269Y-142917123D01*
X200222819Y-143007628D01*
X200107628Y-143122819D01*
X200017123Y-143258269D01*
X199954782Y-143408773D01*
X199935160Y-143507417D01*
X195119578Y-148323000D01*
X179125353Y-148323000D01*
X179041727Y-148267123D01*
X178891223Y-148204782D01*
X178731448Y-148173000D01*
X178568544Y-148173000D01*
X178408769Y-148204782D01*
X178258265Y-148267123D01*
X178122815Y-148357628D01*
X178007624Y-148472819D01*
X177917119Y-148608269D01*
X177854778Y-148758773D01*
X177822996Y-148918548D01*
X116538874Y-148918548D01*
X119847215Y-145610207D01*
X135323000Y-145610207D01*
X135323000Y-145989793D01*
X135397053Y-146362085D01*
X135542315Y-146712777D01*
X135753201Y-147028391D01*
X136021609Y-147296799D01*
X136337223Y-147507685D01*
X136687915Y-147652947D01*
X137060207Y-147727000D01*
X137439793Y-147727000D01*
X137812085Y-147652947D01*
X138162777Y-147507685D01*
X138478391Y-147296799D01*
X138746799Y-147028391D01*
X138957685Y-146712777D01*
X139102947Y-146362085D01*
X139177000Y-145989793D01*
X139177000Y-145610207D01*
X139102947Y-145237915D01*
X138957685Y-144887223D01*
X138746799Y-144571609D01*
X138478391Y-144303201D01*
X138162777Y-144092315D01*
X137812085Y-143947053D01*
X137439793Y-143873000D01*
X137060207Y-143873000D01*
X136687915Y-143947053D01*
X136337223Y-144092315D01*
X136021609Y-144303201D01*
X135753201Y-144571609D01*
X135542315Y-144887223D01*
X135397053Y-145237915D01*
X135323000Y-145610207D01*
X119847215Y-145610207D01*
X120892583Y-144564840D01*
X120991227Y-144545218D01*
X121141731Y-144482877D01*
X121277181Y-144392372D01*
X121392372Y-144277181D01*
X121482877Y-144141731D01*
X121545218Y-143991227D01*
X121577000Y-143831452D01*
X121577000Y-143668548D01*
X121545218Y-143508773D01*
X121482877Y-143358269D01*
X121392372Y-143222819D01*
X121277181Y-143107628D01*
X121141731Y-143017123D01*
X120991227Y-142954782D01*
X120831452Y-142923000D01*
X120668548Y-142923000D01*
X120508773Y-142954782D01*
X120358269Y-143017123D01*
X120222819Y-143107628D01*
X120107628Y-143222819D01*
X120017123Y-143358269D01*
X119954782Y-143508773D01*
X119935160Y-143607417D01*
X115169578Y-148373000D01*
X95025357Y-148373000D01*
X94941731Y-148317123D01*
X94791227Y-148254782D01*
X94631452Y-148223000D01*
X94468548Y-148223000D01*
X94308773Y-148254782D01*
X94158269Y-148317123D01*
X94022819Y-148407628D01*
X93907628Y-148522819D01*
X93817123Y-148658269D01*
X93754782Y-148808773D01*
X93723000Y-148968548D01*
X18452000Y-148968548D01*
X18452000Y-140110207D01*
X135323000Y-140110207D01*
X135323000Y-140489793D01*
X135397053Y-140862085D01*
X135542315Y-141212777D01*
X135753201Y-141528391D01*
X136021609Y-141796799D01*
X136337223Y-142007685D01*
X136687915Y-142152947D01*
X137060207Y-142227000D01*
X137439793Y-142227000D01*
X137812085Y-142152947D01*
X138162777Y-142007685D01*
X138478391Y-141796799D01*
X138746799Y-141528391D01*
X138957685Y-141212777D01*
X139102947Y-140862085D01*
X139177000Y-140489793D01*
X139177000Y-140110207D01*
X215873000Y-140110207D01*
X215873000Y-140489793D01*
X215947053Y-140862085D01*
X216092315Y-141212777D01*
X216303201Y-141528391D01*
X216571609Y-141796799D01*
X216887223Y-142007685D01*
X217237915Y-142152947D01*
X217610207Y-142227000D01*
X217989793Y-142227000D01*
X218362085Y-142152947D01*
X218712777Y-142007685D01*
X219028391Y-141796799D01*
X219296799Y-141528391D01*
X219507685Y-141212777D01*
X219652947Y-140862085D01*
X219727000Y-140489793D01*
X219727000Y-140110207D01*
X219652947Y-139737915D01*
X219507685Y-139387223D01*
X219296799Y-139071609D01*
X219028391Y-138803201D01*
X218712777Y-138592315D01*
X218362085Y-138447053D01*
X217989793Y-138373000D01*
X217610207Y-138373000D01*
X217237915Y-138447053D01*
X216887223Y-138592315D01*
X216571609Y-138803201D01*
X216303201Y-139071609D01*
X216092315Y-139387223D01*
X215947053Y-139737915D01*
X215873000Y-140110207D01*
X139177000Y-140110207D01*
X139102947Y-139737915D01*
X138957685Y-139387223D01*
X138746799Y-139071609D01*
X138478391Y-138803201D01*
X138162777Y-138592315D01*
X137812085Y-138447053D01*
X137439793Y-138373000D01*
X137060207Y-138373000D01*
X136687915Y-138447053D01*
X136337223Y-138592315D01*
X136021609Y-138803201D01*
X135753201Y-139071609D01*
X135542315Y-139387223D01*
X135397053Y-139737915D01*
X135323000Y-140110207D01*
X18452000Y-140110207D01*
X18452000Y-130960207D01*
X212673000Y-130960207D01*
X212673000Y-131339793D01*
X212747053Y-131712085D01*
X212892315Y-132062777D01*
X213103201Y-132378391D01*
X213371609Y-132646799D01*
X213687223Y-132857685D01*
X214037915Y-133002947D01*
X214410207Y-133077000D01*
X214789793Y-133077000D01*
X215162085Y-133002947D01*
X215512777Y-132857685D01*
X215828391Y-132646799D01*
X216096799Y-132378391D01*
X216307685Y-132062777D01*
X216452947Y-131712085D01*
X216527000Y-131339793D01*
X216527000Y-130960207D01*
X218173000Y-130960207D01*
X218173000Y-131339793D01*
X218247053Y-131712085D01*
X218392315Y-132062777D01*
X218603201Y-132378391D01*
X218871609Y-132646799D01*
X219187223Y-132857685D01*
X219537915Y-133002947D01*
X219910207Y-133077000D01*
X220289793Y-133077000D01*
X220374217Y-133060207D01*
X225473000Y-133060207D01*
X225473000Y-133439793D01*
X225547053Y-133812085D01*
X225692315Y-134162777D01*
X225903201Y-134478391D01*
X226171609Y-134746799D01*
X226487223Y-134957685D01*
X226837915Y-135102947D01*
X227210207Y-135177000D01*
X227589793Y-135177000D01*
X227962085Y-135102947D01*
X228312777Y-134957685D01*
X228628391Y-134746799D01*
X228896799Y-134478391D01*
X229107685Y-134162777D01*
X229252947Y-133812085D01*
X229327000Y-133439793D01*
X229327000Y-133060207D01*
X229252947Y-132687915D01*
X229107685Y-132337223D01*
X228896799Y-132021609D01*
X228628391Y-131753201D01*
X228312777Y-131542315D01*
X227962085Y-131397053D01*
X227589793Y-131323000D01*
X227210207Y-131323000D01*
X226837915Y-131397053D01*
X226487223Y-131542315D01*
X226171609Y-131753201D01*
X225903201Y-132021609D01*
X225692315Y-132337223D01*
X225547053Y-132687915D01*
X225473000Y-133060207D01*
X220374217Y-133060207D01*
X220662085Y-133002947D01*
X221012777Y-132857685D01*
X221328391Y-132646799D01*
X221596799Y-132378391D01*
X221807685Y-132062777D01*
X221952947Y-131712085D01*
X222027000Y-131339793D01*
X222027000Y-130960207D01*
X221952947Y-130587915D01*
X221807685Y-130237223D01*
X221596799Y-129921609D01*
X221328391Y-129653201D01*
X221012777Y-129442315D01*
X220662085Y-129297053D01*
X220289793Y-129223000D01*
X219910207Y-129223000D01*
X219537915Y-129297053D01*
X219187223Y-129442315D01*
X218871609Y-129653201D01*
X218603201Y-129921609D01*
X218392315Y-130237223D01*
X218247053Y-130587915D01*
X218173000Y-130960207D01*
X216527000Y-130960207D01*
X216452947Y-130587915D01*
X216307685Y-130237223D01*
X216096799Y-129921609D01*
X215828391Y-129653201D01*
X215512777Y-129442315D01*
X215162085Y-129297053D01*
X214789793Y-129223000D01*
X214410207Y-129223000D01*
X214037915Y-129297053D01*
X213687223Y-129442315D01*
X213371609Y-129653201D01*
X213103201Y-129921609D01*
X212892315Y-130237223D01*
X212747053Y-130587915D01*
X212673000Y-130960207D01*
X18452000Y-130960207D01*
X18452000Y-122824981D01*
X20523000Y-122824981D01*
X20523000Y-123175019D01*
X20591289Y-123518332D01*
X20725243Y-123841725D01*
X20919714Y-124132771D01*
X21167229Y-124380286D01*
X21458275Y-124574757D01*
X21781668Y-124708711D01*
X22124981Y-124777000D01*
X22475019Y-124777000D01*
X22818332Y-124708711D01*
X23141725Y-124574757D01*
X23432771Y-124380286D01*
X23680286Y-124132771D01*
X23874757Y-123841725D01*
X24008711Y-123518332D01*
X24077000Y-123175019D01*
X24077000Y-122824981D01*
X24075041Y-122815132D01*
X65823000Y-122815132D01*
X65823000Y-123184868D01*
X65895132Y-123547501D01*
X66036624Y-123889093D01*
X66242039Y-124196518D01*
X66503482Y-124457961D01*
X66810907Y-124663376D01*
X67152499Y-124804868D01*
X67515132Y-124877000D01*
X67884868Y-124877000D01*
X68247501Y-124804868D01*
X68589093Y-124663376D01*
X68896518Y-124457961D01*
X69157961Y-124196518D01*
X69363376Y-123889093D01*
X69504868Y-123547501D01*
X69577000Y-123184868D01*
X69577000Y-122815132D01*
X74423000Y-122815132D01*
X74423000Y-123184868D01*
X74495132Y-123547501D01*
X74636624Y-123889093D01*
X74842039Y-124196518D01*
X75103482Y-124457961D01*
X75410907Y-124663376D01*
X75752499Y-124804868D01*
X76115132Y-124877000D01*
X76484868Y-124877000D01*
X76847501Y-124804868D01*
X77189093Y-124663376D01*
X77496518Y-124457961D01*
X77757961Y-124196518D01*
X77963376Y-123889093D01*
X78104868Y-123547501D01*
X78177000Y-123184868D01*
X78177000Y-122815132D01*
X119823000Y-122815132D01*
X119823000Y-123184868D01*
X119895132Y-123547501D01*
X120036624Y-123889093D01*
X120242039Y-124196518D01*
X120503482Y-124457961D01*
X120810907Y-124663376D01*
X121152499Y-124804868D01*
X121515132Y-124877000D01*
X121884868Y-124877000D01*
X122247501Y-124804868D01*
X122589093Y-124663376D01*
X122896518Y-124457961D01*
X123157961Y-124196518D01*
X123363376Y-123889093D01*
X123504868Y-123547501D01*
X123577000Y-123184868D01*
X123577000Y-122815132D01*
X128423000Y-122815132D01*
X128423000Y-123184868D01*
X128495132Y-123547501D01*
X128636624Y-123889093D01*
X128842039Y-124196518D01*
X129103482Y-124457961D01*
X129410907Y-124663376D01*
X129752499Y-124804868D01*
X130115132Y-124877000D01*
X130484868Y-124877000D01*
X130847501Y-124804868D01*
X131189093Y-124663376D01*
X131496518Y-124457961D01*
X131757961Y-124196518D01*
X131963376Y-123889093D01*
X132104868Y-123547501D01*
X132177000Y-123184868D01*
X132177000Y-122815132D01*
X173823000Y-122815132D01*
X173823000Y-123184868D01*
X173895132Y-123547501D01*
X174036624Y-123889093D01*
X174242039Y-124196518D01*
X174503482Y-124457961D01*
X174810907Y-124663376D01*
X175152499Y-124804868D01*
X175515132Y-124877000D01*
X175884868Y-124877000D01*
X176247501Y-124804868D01*
X176589093Y-124663376D01*
X176896518Y-124457961D01*
X177157961Y-124196518D01*
X177363376Y-123889093D01*
X177504868Y-123547501D01*
X177577000Y-123184868D01*
X177577000Y-122815132D01*
X182423000Y-122815132D01*
X182423000Y-123184868D01*
X182495132Y-123547501D01*
X182636624Y-123889093D01*
X182842039Y-124196518D01*
X183103482Y-124457961D01*
X183410907Y-124663376D01*
X183752499Y-124804868D01*
X184115132Y-124877000D01*
X184484868Y-124877000D01*
X184847501Y-124804868D01*
X185189093Y-124663376D01*
X185496518Y-124457961D01*
X185757961Y-124196518D01*
X185963376Y-123889093D01*
X186104868Y-123547501D01*
X186177000Y-123184868D01*
X186177000Y-122824981D01*
X227923000Y-122824981D01*
X227923000Y-123175019D01*
X227991289Y-123518332D01*
X228125243Y-123841725D01*
X228319714Y-124132771D01*
X228567229Y-124380286D01*
X228858275Y-124574757D01*
X229181668Y-124708711D01*
X229524981Y-124777000D01*
X229875019Y-124777000D01*
X230218332Y-124708711D01*
X230541725Y-124574757D01*
X230832771Y-124380286D01*
X231080286Y-124132771D01*
X231274757Y-123841725D01*
X231408711Y-123518332D01*
X231477000Y-123175019D01*
X231477000Y-122824981D01*
X231408711Y-122481668D01*
X231274757Y-122158275D01*
X231080286Y-121867229D01*
X230832771Y-121619714D01*
X230541725Y-121425243D01*
X230218332Y-121291289D01*
X229875019Y-121223000D01*
X229524981Y-121223000D01*
X229181668Y-121291289D01*
X228858275Y-121425243D01*
X228567229Y-121619714D01*
X228319714Y-121867229D01*
X228125243Y-122158275D01*
X227991289Y-122481668D01*
X227923000Y-122824981D01*
X186177000Y-122824981D01*
X186177000Y-122815132D01*
X186104868Y-122452499D01*
X185963376Y-122110907D01*
X185757961Y-121803482D01*
X185496518Y-121542039D01*
X185189093Y-121336624D01*
X184847501Y-121195132D01*
X184484868Y-121123000D01*
X184115132Y-121123000D01*
X183752499Y-121195132D01*
X183410907Y-121336624D01*
X183103482Y-121542039D01*
X182842039Y-121803482D01*
X182636624Y-122110907D01*
X182495132Y-122452499D01*
X182423000Y-122815132D01*
X177577000Y-122815132D01*
X177504868Y-122452499D01*
X177363376Y-122110907D01*
X177157961Y-121803482D01*
X176896518Y-121542039D01*
X176589093Y-121336624D01*
X176247501Y-121195132D01*
X175884868Y-121123000D01*
X175515132Y-121123000D01*
X175152499Y-121195132D01*
X174810907Y-121336624D01*
X174503482Y-121542039D01*
X174242039Y-121803482D01*
X174036624Y-122110907D01*
X173895132Y-122452499D01*
X173823000Y-122815132D01*
X132177000Y-122815132D01*
X132104868Y-122452499D01*
X131963376Y-122110907D01*
X131757961Y-121803482D01*
X131496518Y-121542039D01*
X131189093Y-121336624D01*
X130847501Y-121195132D01*
X130484868Y-121123000D01*
X130115132Y-121123000D01*
X129752499Y-121195132D01*
X129410907Y-121336624D01*
X129103482Y-121542039D01*
X128842039Y-121803482D01*
X128636624Y-122110907D01*
X128495132Y-122452499D01*
X128423000Y-122815132D01*
X123577000Y-122815132D01*
X123504868Y-122452499D01*
X123363376Y-122110907D01*
X123157961Y-121803482D01*
X122896518Y-121542039D01*
X122589093Y-121336624D01*
X122247501Y-121195132D01*
X121884868Y-121123000D01*
X121515132Y-121123000D01*
X121152499Y-121195132D01*
X120810907Y-121336624D01*
X120503482Y-121542039D01*
X120242039Y-121803482D01*
X120036624Y-122110907D01*
X119895132Y-122452499D01*
X119823000Y-122815132D01*
X78177000Y-122815132D01*
X78104868Y-122452499D01*
X77963376Y-122110907D01*
X77757961Y-121803482D01*
X77496518Y-121542039D01*
X77189093Y-121336624D01*
X76847501Y-121195132D01*
X76484868Y-121123000D01*
X76115132Y-121123000D01*
X75752499Y-121195132D01*
X75410907Y-121336624D01*
X75103482Y-121542039D01*
X74842039Y-121803482D01*
X74636624Y-122110907D01*
X74495132Y-122452499D01*
X74423000Y-122815132D01*
X69577000Y-122815132D01*
X69504868Y-122452499D01*
X69363376Y-122110907D01*
X69157961Y-121803482D01*
X68896518Y-121542039D01*
X68589093Y-121336624D01*
X68247501Y-121195132D01*
X67884868Y-121123000D01*
X67515132Y-121123000D01*
X67152499Y-121195132D01*
X66810907Y-121336624D01*
X66503482Y-121542039D01*
X66242039Y-121803482D01*
X66036624Y-122110907D01*
X65895132Y-122452499D01*
X65823000Y-122815132D01*
X24075041Y-122815132D01*
X24008711Y-122481668D01*
X23874757Y-122158275D01*
X23680286Y-121867229D01*
X23432771Y-121619714D01*
X23141725Y-121425243D01*
X22818332Y-121291289D01*
X22475019Y-121223000D01*
X22124981Y-121223000D01*
X21781668Y-121291289D01*
X21458275Y-121425243D01*
X21167229Y-121619714D01*
X20919714Y-121867229D01*
X20725243Y-122158275D01*
X20591289Y-122481668D01*
X20523000Y-122824981D01*
X18452000Y-122824981D01*
X18452000Y-90500000D01*
X23570934Y-90500000D01*
X23570934Y-120500000D01*
X23579178Y-120583707D01*
X23603595Y-120664196D01*
X23643245Y-120738376D01*
X23696605Y-120803395D01*
X23761624Y-120856755D01*
X23835804Y-120896405D01*
X23916293Y-120920822D01*
X24000000Y-120929066D01*
X39000000Y-120929066D01*
X39083707Y-120920822D01*
X39164196Y-120896405D01*
X39238376Y-120856755D01*
X39303395Y-120803395D01*
X39356755Y-120738376D01*
X39396405Y-120664196D01*
X39420822Y-120583707D01*
X39429066Y-120500000D01*
X39429066Y-106166078D01*
X39485804Y-106196405D01*
X39566293Y-106220822D01*
X39650000Y-106229066D01*
X46950000Y-106229066D01*
X47033707Y-106220822D01*
X47070934Y-106209529D01*
X47070934Y-120800000D01*
X47079178Y-120883707D01*
X47103595Y-120964196D01*
X47143245Y-121038376D01*
X47196605Y-121103395D01*
X47261624Y-121156755D01*
X47335804Y-121196405D01*
X47416293Y-121220822D01*
X47500000Y-121229066D01*
X62500000Y-121229066D01*
X62583707Y-121220822D01*
X62664196Y-121196405D01*
X62738376Y-121156755D01*
X62803395Y-121103395D01*
X62856755Y-121038376D01*
X62896405Y-120964196D01*
X62920822Y-120883707D01*
X62929066Y-120800000D01*
X62929066Y-90800000D01*
X62920822Y-90716293D01*
X62896405Y-90635804D01*
X62856755Y-90561624D01*
X62806182Y-90500000D01*
X77570934Y-90500000D01*
X77570934Y-120500000D01*
X77579178Y-120583707D01*
X77603595Y-120664196D01*
X77643245Y-120738376D01*
X77696605Y-120803395D01*
X77761624Y-120856755D01*
X77835804Y-120896405D01*
X77916293Y-120920822D01*
X78000000Y-120929066D01*
X93000000Y-120929066D01*
X93083707Y-120920822D01*
X93164196Y-120896405D01*
X93238376Y-120856755D01*
X93303395Y-120803395D01*
X93356755Y-120738376D01*
X93396405Y-120664196D01*
X93420822Y-120583707D01*
X93429066Y-120500000D01*
X93429066Y-106166078D01*
X93485804Y-106196405D01*
X93566293Y-106220822D01*
X93650000Y-106229066D01*
X100950000Y-106229066D01*
X101033707Y-106220822D01*
X101070934Y-106209529D01*
X101070934Y-120800000D01*
X101079178Y-120883707D01*
X101103595Y-120964196D01*
X101143245Y-121038376D01*
X101196605Y-121103395D01*
X101261624Y-121156755D01*
X101335804Y-121196405D01*
X101416293Y-121220822D01*
X101500000Y-121229066D01*
X116500000Y-121229066D01*
X116583707Y-121220822D01*
X116664196Y-121196405D01*
X116738376Y-121156755D01*
X116803395Y-121103395D01*
X116856755Y-121038376D01*
X116896405Y-120964196D01*
X116920822Y-120883707D01*
X116929066Y-120800000D01*
X116929066Y-90800000D01*
X116920822Y-90716293D01*
X116896405Y-90635804D01*
X116856755Y-90561624D01*
X116806182Y-90500000D01*
X131570934Y-90500000D01*
X131570934Y-120500000D01*
X131579178Y-120583707D01*
X131603595Y-120664196D01*
X131643245Y-120738376D01*
X131696605Y-120803395D01*
X131761624Y-120856755D01*
X131835804Y-120896405D01*
X131916293Y-120920822D01*
X132000000Y-120929066D01*
X147000000Y-120929066D01*
X147083707Y-120920822D01*
X147164196Y-120896405D01*
X147238376Y-120856755D01*
X147303395Y-120803395D01*
X147356755Y-120738376D01*
X147396405Y-120664196D01*
X147420822Y-120583707D01*
X147429066Y-120500000D01*
X147429066Y-106166078D01*
X147485804Y-106196405D01*
X147566293Y-106220822D01*
X147650000Y-106229066D01*
X154950000Y-106229066D01*
X155033707Y-106220822D01*
X155070934Y-106209529D01*
X155070934Y-120800000D01*
X155079178Y-120883707D01*
X155103595Y-120964196D01*
X155143245Y-121038376D01*
X155196605Y-121103395D01*
X155261624Y-121156755D01*
X155335804Y-121196405D01*
X155416293Y-121220822D01*
X155500000Y-121229066D01*
X170500000Y-121229066D01*
X170583707Y-121220822D01*
X170664196Y-121196405D01*
X170738376Y-121156755D01*
X170803395Y-121103395D01*
X170856755Y-121038376D01*
X170896405Y-120964196D01*
X170920822Y-120883707D01*
X170929066Y-120800000D01*
X170929066Y-90800000D01*
X170920822Y-90716293D01*
X170896405Y-90635804D01*
X170856755Y-90561624D01*
X170806182Y-90500000D01*
X185570934Y-90500000D01*
X185570934Y-120500000D01*
X185579178Y-120583707D01*
X185603595Y-120664196D01*
X185643245Y-120738376D01*
X185696605Y-120803395D01*
X185761624Y-120856755D01*
X185835804Y-120896405D01*
X185916293Y-120920822D01*
X186000000Y-120929066D01*
X201000000Y-120929066D01*
X201083707Y-120920822D01*
X201164196Y-120896405D01*
X201238376Y-120856755D01*
X201303395Y-120803395D01*
X201356755Y-120738376D01*
X201396405Y-120664196D01*
X201420822Y-120583707D01*
X201429066Y-120500000D01*
X201429066Y-106166078D01*
X201485804Y-106196405D01*
X201566293Y-106220822D01*
X201650000Y-106229066D01*
X208950000Y-106229066D01*
X209033707Y-106220822D01*
X209070934Y-106209529D01*
X209070934Y-120800000D01*
X209079178Y-120883707D01*
X209103595Y-120964196D01*
X209143245Y-121038376D01*
X209196605Y-121103395D01*
X209261624Y-121156755D01*
X209335804Y-121196405D01*
X209416293Y-121220822D01*
X209500000Y-121229066D01*
X224500000Y-121229066D01*
X224583707Y-121220822D01*
X224664196Y-121196405D01*
X224738376Y-121156755D01*
X224803395Y-121103395D01*
X224856755Y-121038376D01*
X224896405Y-120964196D01*
X224920822Y-120883707D01*
X224929066Y-120800000D01*
X224929066Y-90800000D01*
X224920822Y-90716293D01*
X224896405Y-90635804D01*
X224856755Y-90561624D01*
X224803395Y-90496605D01*
X224738376Y-90443245D01*
X224664196Y-90403595D01*
X224583707Y-90379178D01*
X224500000Y-90370934D01*
X209527000Y-90370934D01*
X209527000Y-90298849D01*
X209487533Y-90100435D01*
X209410115Y-89913533D01*
X209379066Y-89867065D01*
X209379066Y-89732935D01*
X209410115Y-89686467D01*
X209487533Y-89499565D01*
X209501556Y-89429066D01*
X216650000Y-89429066D01*
X216733707Y-89420822D01*
X216814196Y-89396405D01*
X216888376Y-89356755D01*
X216953395Y-89303395D01*
X217006755Y-89238376D01*
X217046405Y-89164196D01*
X217070822Y-89083707D01*
X217079066Y-89000000D01*
X217079066Y-64000000D01*
X217070822Y-63916293D01*
X217046405Y-63835804D01*
X217006755Y-63761624D01*
X216953395Y-63696605D01*
X216888376Y-63643245D01*
X216814196Y-63603595D01*
X216733707Y-63579178D01*
X216650000Y-63570934D01*
X201650000Y-63570934D01*
X201566293Y-63579178D01*
X201485804Y-63603595D01*
X201411624Y-63643245D01*
X201346605Y-63696605D01*
X201293245Y-63761624D01*
X201253595Y-63835804D01*
X201229178Y-63916293D01*
X201220934Y-64000000D01*
X201220934Y-90133922D01*
X201164196Y-90103595D01*
X201083707Y-90079178D01*
X201000000Y-90070934D01*
X186000000Y-90070934D01*
X185916293Y-90079178D01*
X185835804Y-90103595D01*
X185761624Y-90143245D01*
X185696605Y-90196605D01*
X185643245Y-90261624D01*
X185603595Y-90335804D01*
X185579178Y-90416293D01*
X185570934Y-90500000D01*
X170806182Y-90500000D01*
X170803395Y-90496605D01*
X170738376Y-90443245D01*
X170664196Y-90403595D01*
X170583707Y-90379178D01*
X170500000Y-90370934D01*
X155527000Y-90370934D01*
X155527000Y-90298849D01*
X155487533Y-90100435D01*
X155410115Y-89913533D01*
X155379066Y-89867065D01*
X155379066Y-89732935D01*
X155410115Y-89686467D01*
X155487533Y-89499565D01*
X155501556Y-89429066D01*
X162650000Y-89429066D01*
X162733707Y-89420822D01*
X162814196Y-89396405D01*
X162888376Y-89356755D01*
X162953395Y-89303395D01*
X163006755Y-89238376D01*
X163046405Y-89164196D01*
X163070822Y-89083707D01*
X163079066Y-89000000D01*
X163079066Y-64000000D01*
X163070822Y-63916293D01*
X163046405Y-63835804D01*
X163006755Y-63761624D01*
X162953395Y-63696605D01*
X162888376Y-63643245D01*
X162814196Y-63603595D01*
X162733707Y-63579178D01*
X162650000Y-63570934D01*
X147650000Y-63570934D01*
X147566293Y-63579178D01*
X147485804Y-63603595D01*
X147411624Y-63643245D01*
X147346605Y-63696605D01*
X147293245Y-63761624D01*
X147253595Y-63835804D01*
X147229178Y-63916293D01*
X147220934Y-64000000D01*
X147220934Y-90133922D01*
X147164196Y-90103595D01*
X147083707Y-90079178D01*
X147000000Y-90070934D01*
X132000000Y-90070934D01*
X131916293Y-90079178D01*
X131835804Y-90103595D01*
X131761624Y-90143245D01*
X131696605Y-90196605D01*
X131643245Y-90261624D01*
X131603595Y-90335804D01*
X131579178Y-90416293D01*
X131570934Y-90500000D01*
X116806182Y-90500000D01*
X116803395Y-90496605D01*
X116738376Y-90443245D01*
X116664196Y-90403595D01*
X116583707Y-90379178D01*
X116500000Y-90370934D01*
X101527000Y-90370934D01*
X101527000Y-90298849D01*
X101487533Y-90100435D01*
X101410115Y-89913533D01*
X101379066Y-89867065D01*
X101379066Y-89732935D01*
X101410115Y-89686467D01*
X101487533Y-89499565D01*
X101501556Y-89429066D01*
X108650000Y-89429066D01*
X108733707Y-89420822D01*
X108814196Y-89396405D01*
X108888376Y-89356755D01*
X108953395Y-89303395D01*
X109006755Y-89238376D01*
X109046405Y-89164196D01*
X109070822Y-89083707D01*
X109079066Y-89000000D01*
X109079066Y-64000000D01*
X109070822Y-63916293D01*
X109046405Y-63835804D01*
X109006755Y-63761624D01*
X108953395Y-63696605D01*
X108888376Y-63643245D01*
X108814196Y-63603595D01*
X108733707Y-63579178D01*
X108650000Y-63570934D01*
X93650000Y-63570934D01*
X93566293Y-63579178D01*
X93485804Y-63603595D01*
X93411624Y-63643245D01*
X93346605Y-63696605D01*
X93293245Y-63761624D01*
X93253595Y-63835804D01*
X93229178Y-63916293D01*
X93220934Y-64000000D01*
X93220934Y-90133922D01*
X93164196Y-90103595D01*
X93083707Y-90079178D01*
X93000000Y-90070934D01*
X78000000Y-90070934D01*
X77916293Y-90079178D01*
X77835804Y-90103595D01*
X77761624Y-90143245D01*
X77696605Y-90196605D01*
X77643245Y-90261624D01*
X77603595Y-90335804D01*
X77579178Y-90416293D01*
X77570934Y-90500000D01*
X62806182Y-90500000D01*
X62803395Y-90496605D01*
X62738376Y-90443245D01*
X62664196Y-90403595D01*
X62583707Y-90379178D01*
X62500000Y-90370934D01*
X47527000Y-90370934D01*
X47527000Y-90298849D01*
X47487533Y-90100435D01*
X47410115Y-89913533D01*
X47379066Y-89867065D01*
X47379066Y-89732935D01*
X47410115Y-89686467D01*
X47487533Y-89499565D01*
X47501556Y-89429066D01*
X54650000Y-89429066D01*
X54733707Y-89420822D01*
X54814196Y-89396405D01*
X54888376Y-89356755D01*
X54953395Y-89303395D01*
X55006755Y-89238376D01*
X55046405Y-89164196D01*
X55070822Y-89083707D01*
X55079066Y-89000000D01*
X55079066Y-64000000D01*
X55070822Y-63916293D01*
X55046405Y-63835804D01*
X55006755Y-63761624D01*
X54953395Y-63696605D01*
X54888376Y-63643245D01*
X54814196Y-63603595D01*
X54733707Y-63579178D01*
X54650000Y-63570934D01*
X39650000Y-63570934D01*
X39566293Y-63579178D01*
X39485804Y-63603595D01*
X39411624Y-63643245D01*
X39346605Y-63696605D01*
X39293245Y-63761624D01*
X39253595Y-63835804D01*
X39229178Y-63916293D01*
X39220934Y-64000000D01*
X39220934Y-90133922D01*
X39164196Y-90103595D01*
X39083707Y-90079178D01*
X39000000Y-90070934D01*
X24000000Y-90070934D01*
X23916293Y-90079178D01*
X23835804Y-90103595D01*
X23761624Y-90143245D01*
X23696605Y-90196605D01*
X23643245Y-90261624D01*
X23603595Y-90335804D01*
X23579178Y-90416293D01*
X23570934Y-90500000D01*
X18452000Y-90500000D01*
X18452000Y-59000000D01*
X18670934Y-59000000D01*
X18670934Y-89000000D01*
X18679178Y-89083707D01*
X18703595Y-89164196D01*
X18743245Y-89238376D01*
X18796605Y-89303395D01*
X18861624Y-89356755D01*
X18935804Y-89396405D01*
X19016293Y-89420822D01*
X19100000Y-89429066D01*
X34100000Y-89429066D01*
X34183707Y-89420822D01*
X34264196Y-89396405D01*
X34338376Y-89356755D01*
X34403395Y-89303395D01*
X34456755Y-89238376D01*
X34496405Y-89164196D01*
X34520822Y-89083707D01*
X34529066Y-89000000D01*
X34529066Y-59824981D01*
X43223000Y-59824981D01*
X43223000Y-60175019D01*
X43291289Y-60518332D01*
X43425243Y-60841725D01*
X43619714Y-61132771D01*
X43867229Y-61380286D01*
X44158275Y-61574757D01*
X44481668Y-61708711D01*
X44824981Y-61777000D01*
X45175019Y-61777000D01*
X45518332Y-61708711D01*
X45841725Y-61574757D01*
X46132771Y-61380286D01*
X46380286Y-61132771D01*
X46574757Y-60841725D01*
X46708711Y-60518332D01*
X46777000Y-60175019D01*
X46777000Y-59824981D01*
X46708711Y-59481668D01*
X46574757Y-59158275D01*
X46469001Y-59000000D01*
X72670934Y-59000000D01*
X72670934Y-89000000D01*
X72679178Y-89083707D01*
X72703595Y-89164196D01*
X72743245Y-89238376D01*
X72796605Y-89303395D01*
X72861624Y-89356755D01*
X72935804Y-89396405D01*
X73016293Y-89420822D01*
X73100000Y-89429066D01*
X88100000Y-89429066D01*
X88183707Y-89420822D01*
X88264196Y-89396405D01*
X88338376Y-89356755D01*
X88403395Y-89303395D01*
X88456755Y-89238376D01*
X88496405Y-89164196D01*
X88520822Y-89083707D01*
X88529066Y-89000000D01*
X88529066Y-59824981D01*
X97223000Y-59824981D01*
X97223000Y-60175019D01*
X97291289Y-60518332D01*
X97425243Y-60841725D01*
X97619714Y-61132771D01*
X97867229Y-61380286D01*
X98158275Y-61574757D01*
X98481668Y-61708711D01*
X98824981Y-61777000D01*
X99175019Y-61777000D01*
X99518332Y-61708711D01*
X99841725Y-61574757D01*
X100132771Y-61380286D01*
X100380286Y-61132771D01*
X100574757Y-60841725D01*
X100708711Y-60518332D01*
X100777000Y-60175019D01*
X100777000Y-59824981D01*
X100708711Y-59481668D01*
X100574757Y-59158275D01*
X100469001Y-59000000D01*
X126670934Y-59000000D01*
X126670934Y-89000000D01*
X126679178Y-89083707D01*
X126703595Y-89164196D01*
X126743245Y-89238376D01*
X126796605Y-89303395D01*
X126861624Y-89356755D01*
X126935804Y-89396405D01*
X127016293Y-89420822D01*
X127100000Y-89429066D01*
X142100000Y-89429066D01*
X142183707Y-89420822D01*
X142264196Y-89396405D01*
X142338376Y-89356755D01*
X142403395Y-89303395D01*
X142456755Y-89238376D01*
X142496405Y-89164196D01*
X142520822Y-89083707D01*
X142529066Y-89000000D01*
X142529066Y-59824981D01*
X151223000Y-59824981D01*
X151223000Y-60175019D01*
X151291289Y-60518332D01*
X151425243Y-60841725D01*
X151619714Y-61132771D01*
X151867229Y-61380286D01*
X152158275Y-61574757D01*
X152481668Y-61708711D01*
X152824981Y-61777000D01*
X153175019Y-61777000D01*
X153518332Y-61708711D01*
X153841725Y-61574757D01*
X154132771Y-61380286D01*
X154380286Y-61132771D01*
X154574757Y-60841725D01*
X154708711Y-60518332D01*
X154777000Y-60175019D01*
X154777000Y-59824981D01*
X154708711Y-59481668D01*
X154574757Y-59158275D01*
X154469001Y-59000000D01*
X180670934Y-59000000D01*
X180670934Y-89000000D01*
X180679178Y-89083707D01*
X180703595Y-89164196D01*
X180743245Y-89238376D01*
X180796605Y-89303395D01*
X180861624Y-89356755D01*
X180935804Y-89396405D01*
X181016293Y-89420822D01*
X181100000Y-89429066D01*
X196100000Y-89429066D01*
X196183707Y-89420822D01*
X196264196Y-89396405D01*
X196338376Y-89356755D01*
X196403395Y-89303395D01*
X196456755Y-89238376D01*
X196496405Y-89164196D01*
X196520822Y-89083707D01*
X196529066Y-89000000D01*
X196529066Y-59824981D01*
X205223000Y-59824981D01*
X205223000Y-60175019D01*
X205291289Y-60518332D01*
X205425243Y-60841725D01*
X205619714Y-61132771D01*
X205867229Y-61380286D01*
X206158275Y-61574757D01*
X206481668Y-61708711D01*
X206824981Y-61777000D01*
X207175019Y-61777000D01*
X207518332Y-61708711D01*
X207841725Y-61574757D01*
X208132771Y-61380286D01*
X208380286Y-61132771D01*
X208574757Y-60841725D01*
X208708711Y-60518332D01*
X208777000Y-60175019D01*
X208777000Y-59824981D01*
X208708711Y-59481668D01*
X208574757Y-59158275D01*
X208380286Y-58867229D01*
X208132771Y-58619714D01*
X207841725Y-58425243D01*
X207518332Y-58291289D01*
X207175019Y-58223000D01*
X206824981Y-58223000D01*
X206481668Y-58291289D01*
X206158275Y-58425243D01*
X205867229Y-58619714D01*
X205619714Y-58867229D01*
X205425243Y-59158275D01*
X205291289Y-59481668D01*
X205223000Y-59824981D01*
X196529066Y-59824981D01*
X196529066Y-59000000D01*
X196520822Y-58916293D01*
X196496405Y-58835804D01*
X196456755Y-58761624D01*
X196403395Y-58696605D01*
X196338376Y-58643245D01*
X196264196Y-58603595D01*
X196183707Y-58579178D01*
X196100000Y-58570934D01*
X181100000Y-58570934D01*
X181016293Y-58579178D01*
X180935804Y-58603595D01*
X180861624Y-58643245D01*
X180796605Y-58696605D01*
X180743245Y-58761624D01*
X180703595Y-58835804D01*
X180679178Y-58916293D01*
X180670934Y-59000000D01*
X154469001Y-59000000D01*
X154380286Y-58867229D01*
X154132771Y-58619714D01*
X153841725Y-58425243D01*
X153518332Y-58291289D01*
X153175019Y-58223000D01*
X152824981Y-58223000D01*
X152481668Y-58291289D01*
X152158275Y-58425243D01*
X151867229Y-58619714D01*
X151619714Y-58867229D01*
X151425243Y-59158275D01*
X151291289Y-59481668D01*
X151223000Y-59824981D01*
X142529066Y-59824981D01*
X142529066Y-59000000D01*
X142520822Y-58916293D01*
X142496405Y-58835804D01*
X142456755Y-58761624D01*
X142403395Y-58696605D01*
X142338376Y-58643245D01*
X142264196Y-58603595D01*
X142183707Y-58579178D01*
X142100000Y-58570934D01*
X127100000Y-58570934D01*
X127016293Y-58579178D01*
X126935804Y-58603595D01*
X126861624Y-58643245D01*
X126796605Y-58696605D01*
X126743245Y-58761624D01*
X126703595Y-58835804D01*
X126679178Y-58916293D01*
X126670934Y-59000000D01*
X100469001Y-59000000D01*
X100380286Y-58867229D01*
X100132771Y-58619714D01*
X99841725Y-58425243D01*
X99518332Y-58291289D01*
X99175019Y-58223000D01*
X98824981Y-58223000D01*
X98481668Y-58291289D01*
X98158275Y-58425243D01*
X97867229Y-58619714D01*
X97619714Y-58867229D01*
X97425243Y-59158275D01*
X97291289Y-59481668D01*
X97223000Y-59824981D01*
X88529066Y-59824981D01*
X88529066Y-59000000D01*
X88520822Y-58916293D01*
X88496405Y-58835804D01*
X88456755Y-58761624D01*
X88403395Y-58696605D01*
X88338376Y-58643245D01*
X88264196Y-58603595D01*
X88183707Y-58579178D01*
X88100000Y-58570934D01*
X73100000Y-58570934D01*
X73016293Y-58579178D01*
X72935804Y-58603595D01*
X72861624Y-58643245D01*
X72796605Y-58696605D01*
X72743245Y-58761624D01*
X72703595Y-58835804D01*
X72679178Y-58916293D01*
X72670934Y-59000000D01*
X46469001Y-59000000D01*
X46380286Y-58867229D01*
X46132771Y-58619714D01*
X45841725Y-58425243D01*
X45518332Y-58291289D01*
X45175019Y-58223000D01*
X44824981Y-58223000D01*
X44481668Y-58291289D01*
X44158275Y-58425243D01*
X43867229Y-58619714D01*
X43619714Y-58867229D01*
X43425243Y-59158275D01*
X43291289Y-59481668D01*
X43223000Y-59824981D01*
X34529066Y-59824981D01*
X34529066Y-59000000D01*
X34520822Y-58916293D01*
X34496405Y-58835804D01*
X34456755Y-58761624D01*
X34403395Y-58696605D01*
X34338376Y-58643245D01*
X34264196Y-58603595D01*
X34183707Y-58579178D01*
X34100000Y-58570934D01*
X19100000Y-58570934D01*
X19016293Y-58579178D01*
X18935804Y-58603595D01*
X18861624Y-58643245D01*
X18796605Y-58696605D01*
X18743245Y-58761624D01*
X18703595Y-58835804D01*
X18679178Y-58916293D01*
X18670934Y-59000000D01*
X18452000Y-59000000D01*
X18452000Y-43110207D01*
X57373000Y-43110207D01*
X57373000Y-43489793D01*
X57447053Y-43862085D01*
X57592315Y-44212777D01*
X57803201Y-44528391D01*
X58071609Y-44796799D01*
X58387223Y-45007685D01*
X58737915Y-45152947D01*
X59110207Y-45227000D01*
X59489793Y-45227000D01*
X59862085Y-45152947D01*
X60212777Y-45007685D01*
X60528391Y-44796799D01*
X60796799Y-44528391D01*
X61007685Y-44212777D01*
X61152947Y-43862085D01*
X61227000Y-43489793D01*
X61227000Y-43110207D01*
X111373000Y-43110207D01*
X111373000Y-43489793D01*
X111447053Y-43862085D01*
X111592315Y-44212777D01*
X111803201Y-44528391D01*
X112071609Y-44796799D01*
X112387223Y-45007685D01*
X112737915Y-45152947D01*
X113110207Y-45227000D01*
X113489793Y-45227000D01*
X113862085Y-45152947D01*
X114212777Y-45007685D01*
X114528391Y-44796799D01*
X114796799Y-44528391D01*
X115007685Y-44212777D01*
X115152947Y-43862085D01*
X115227000Y-43489793D01*
X115227000Y-43110207D01*
X165373000Y-43110207D01*
X165373000Y-43489793D01*
X165447053Y-43862085D01*
X165592315Y-44212777D01*
X165803201Y-44528391D01*
X166071609Y-44796799D01*
X166387223Y-45007685D01*
X166737915Y-45152947D01*
X167110207Y-45227000D01*
X167489793Y-45227000D01*
X167862085Y-45152947D01*
X168212777Y-45007685D01*
X168528391Y-44796799D01*
X168796799Y-44528391D01*
X169007685Y-44212777D01*
X169152947Y-43862085D01*
X169227000Y-43489793D01*
X169227000Y-43110207D01*
X219373000Y-43110207D01*
X219373000Y-43489793D01*
X219447053Y-43862085D01*
X219592315Y-44212777D01*
X219803201Y-44528391D01*
X220071609Y-44796799D01*
X220387223Y-45007685D01*
X220737915Y-45152947D01*
X221110207Y-45227000D01*
X221489793Y-45227000D01*
X221862085Y-45152947D01*
X222212777Y-45007685D01*
X222528391Y-44796799D01*
X222796799Y-44528391D01*
X223007685Y-44212777D01*
X223152947Y-43862085D01*
X223227000Y-43489793D01*
X223227000Y-43110207D01*
X223152947Y-42737915D01*
X223007685Y-42387223D01*
X222796799Y-42071609D01*
X222528391Y-41803201D01*
X222212777Y-41592315D01*
X221862085Y-41447053D01*
X221489793Y-41373000D01*
X221110207Y-41373000D01*
X220737915Y-41447053D01*
X220387223Y-41592315D01*
X220071609Y-41803201D01*
X219803201Y-42071609D01*
X219592315Y-42387223D01*
X219447053Y-42737915D01*
X219373000Y-43110207D01*
X169227000Y-43110207D01*
X169152947Y-42737915D01*
X169007685Y-42387223D01*
X168796799Y-42071609D01*
X168528391Y-41803201D01*
X168212777Y-41592315D01*
X167862085Y-41447053D01*
X167489793Y-41373000D01*
X167110207Y-41373000D01*
X166737915Y-41447053D01*
X166387223Y-41592315D01*
X166071609Y-41803201D01*
X165803201Y-42071609D01*
X165592315Y-42387223D01*
X165447053Y-42737915D01*
X165373000Y-43110207D01*
X115227000Y-43110207D01*
X115152947Y-42737915D01*
X115007685Y-42387223D01*
X114796799Y-42071609D01*
X114528391Y-41803201D01*
X114212777Y-41592315D01*
X113862085Y-41447053D01*
X113489793Y-41373000D01*
X113110207Y-41373000D01*
X112737915Y-41447053D01*
X112387223Y-41592315D01*
X112071609Y-41803201D01*
X111803201Y-42071609D01*
X111592315Y-42387223D01*
X111447053Y-42737915D01*
X111373000Y-43110207D01*
X61227000Y-43110207D01*
X61152947Y-42737915D01*
X61007685Y-42387223D01*
X60796799Y-42071609D01*
X60528391Y-41803201D01*
X60212777Y-41592315D01*
X59862085Y-41447053D01*
X59489793Y-41373000D01*
X59110207Y-41373000D01*
X58737915Y-41447053D01*
X58387223Y-41592315D01*
X58071609Y-41803201D01*
X57803201Y-42071609D01*
X57592315Y-42387223D01*
X57447053Y-42737915D01*
X57373000Y-43110207D01*
X18452000Y-43110207D01*
X18452000Y-37610207D01*
X57373000Y-37610207D01*
X57373000Y-37989793D01*
X57447053Y-38362085D01*
X57592315Y-38712777D01*
X57803201Y-39028391D01*
X58071609Y-39296799D01*
X58387223Y-39507685D01*
X58737915Y-39652947D01*
X59110207Y-39727000D01*
X59489793Y-39727000D01*
X59862085Y-39652947D01*
X60212777Y-39507685D01*
X60528391Y-39296799D01*
X60796799Y-39028391D01*
X61007685Y-38712777D01*
X61152947Y-38362085D01*
X61227000Y-37989793D01*
X61227000Y-37610207D01*
X111373000Y-37610207D01*
X111373000Y-37989793D01*
X111447053Y-38362085D01*
X111592315Y-38712777D01*
X111803201Y-39028391D01*
X112071609Y-39296799D01*
X112387223Y-39507685D01*
X112737915Y-39652947D01*
X113110207Y-39727000D01*
X113489793Y-39727000D01*
X113862085Y-39652947D01*
X114212777Y-39507685D01*
X114528391Y-39296799D01*
X114796799Y-39028391D01*
X115007685Y-38712777D01*
X115152947Y-38362085D01*
X115227000Y-37989793D01*
X115227000Y-37610207D01*
X165373000Y-37610207D01*
X165373000Y-37989793D01*
X165447053Y-38362085D01*
X165592315Y-38712777D01*
X165803201Y-39028391D01*
X166071609Y-39296799D01*
X166387223Y-39507685D01*
X166737915Y-39652947D01*
X167110207Y-39727000D01*
X167489793Y-39727000D01*
X167862085Y-39652947D01*
X168212777Y-39507685D01*
X168528391Y-39296799D01*
X168796799Y-39028391D01*
X169007685Y-38712777D01*
X169152947Y-38362085D01*
X169227000Y-37989793D01*
X169227000Y-37610207D01*
X219373000Y-37610207D01*
X219373000Y-37989793D01*
X219447053Y-38362085D01*
X219592315Y-38712777D01*
X219803201Y-39028391D01*
X220071609Y-39296799D01*
X220387223Y-39507685D01*
X220737915Y-39652947D01*
X221110207Y-39727000D01*
X221489793Y-39727000D01*
X221862085Y-39652947D01*
X222212777Y-39507685D01*
X222528391Y-39296799D01*
X222796799Y-39028391D01*
X223007685Y-38712777D01*
X223152947Y-38362085D01*
X223227000Y-37989793D01*
X223227000Y-37610207D01*
X223152947Y-37237915D01*
X223007685Y-36887223D01*
X222796799Y-36571609D01*
X222528391Y-36303201D01*
X222212777Y-36092315D01*
X221862085Y-35947053D01*
X221489793Y-35873000D01*
X221110207Y-35873000D01*
X220737915Y-35947053D01*
X220387223Y-36092315D01*
X220071609Y-36303201D01*
X219803201Y-36571609D01*
X219592315Y-36887223D01*
X219447053Y-37237915D01*
X219373000Y-37610207D01*
X169227000Y-37610207D01*
X169152947Y-37237915D01*
X169007685Y-36887223D01*
X168796799Y-36571609D01*
X168528391Y-36303201D01*
X168212777Y-36092315D01*
X167862085Y-35947053D01*
X167489793Y-35873000D01*
X167110207Y-35873000D01*
X166737915Y-35947053D01*
X166387223Y-36092315D01*
X166071609Y-36303201D01*
X165803201Y-36571609D01*
X165592315Y-36887223D01*
X165447053Y-37237915D01*
X165373000Y-37610207D01*
X115227000Y-37610207D01*
X115152947Y-37237915D01*
X115007685Y-36887223D01*
X114796799Y-36571609D01*
X114528391Y-36303201D01*
X114212777Y-36092315D01*
X113862085Y-35947053D01*
X113489793Y-35873000D01*
X113110207Y-35873000D01*
X112737915Y-35947053D01*
X112387223Y-36092315D01*
X112071609Y-36303201D01*
X111803201Y-36571609D01*
X111592315Y-36887223D01*
X111447053Y-37237915D01*
X111373000Y-37610207D01*
X61227000Y-37610207D01*
X61152947Y-37237915D01*
X61007685Y-36887223D01*
X60796799Y-36571609D01*
X60528391Y-36303201D01*
X60212777Y-36092315D01*
X59862085Y-35947053D01*
X59489793Y-35873000D01*
X59110207Y-35873000D01*
X58737915Y-35947053D01*
X58387223Y-36092315D01*
X58071609Y-36303201D01*
X57803201Y-36571609D01*
X57592315Y-36887223D01*
X57447053Y-37237915D01*
X57373000Y-37610207D01*
X18452000Y-37610207D01*
X18452000Y-30310207D01*
X59473000Y-30310207D01*
X59473000Y-30689793D01*
X59547053Y-31062085D01*
X59692315Y-31412777D01*
X59903201Y-31728391D01*
X60171609Y-31996799D01*
X60487223Y-32207685D01*
X60837915Y-32352947D01*
X61210207Y-32427000D01*
X61589793Y-32427000D01*
X61962085Y-32352947D01*
X62312777Y-32207685D01*
X62628391Y-31996799D01*
X62896799Y-31728391D01*
X63107685Y-31412777D01*
X63252947Y-31062085D01*
X63327000Y-30689793D01*
X63327000Y-30310207D01*
X113473000Y-30310207D01*
X113473000Y-30689793D01*
X113547053Y-31062085D01*
X113692315Y-31412777D01*
X113903201Y-31728391D01*
X114171609Y-31996799D01*
X114487223Y-32207685D01*
X114837915Y-32352947D01*
X115210207Y-32427000D01*
X115589793Y-32427000D01*
X115962085Y-32352947D01*
X116312777Y-32207685D01*
X116628391Y-31996799D01*
X116896799Y-31728391D01*
X117107685Y-31412777D01*
X117252947Y-31062085D01*
X117327000Y-30689793D01*
X117327000Y-30310207D01*
X167473000Y-30310207D01*
X167473000Y-30689793D01*
X167547053Y-31062085D01*
X167692315Y-31412777D01*
X167903201Y-31728391D01*
X168171609Y-31996799D01*
X168487223Y-32207685D01*
X168837915Y-32352947D01*
X169210207Y-32427000D01*
X169589793Y-32427000D01*
X169962085Y-32352947D01*
X170312777Y-32207685D01*
X170628391Y-31996799D01*
X170896799Y-31728391D01*
X171107685Y-31412777D01*
X171252947Y-31062085D01*
X171327000Y-30689793D01*
X171327000Y-30310207D01*
X221473000Y-30310207D01*
X221473000Y-30689793D01*
X221547053Y-31062085D01*
X221692315Y-31412777D01*
X221903201Y-31728391D01*
X222171609Y-31996799D01*
X222487223Y-32207685D01*
X222837915Y-32352947D01*
X223210207Y-32427000D01*
X223589793Y-32427000D01*
X223962085Y-32352947D01*
X224312777Y-32207685D01*
X224628391Y-31996799D01*
X224896799Y-31728391D01*
X225107685Y-31412777D01*
X225252947Y-31062085D01*
X225327000Y-30689793D01*
X225327000Y-30310207D01*
X225252947Y-29937915D01*
X225107685Y-29587223D01*
X224896799Y-29271609D01*
X224628391Y-29003201D01*
X224312777Y-28792315D01*
X223962085Y-28647053D01*
X223589793Y-28573000D01*
X223210207Y-28573000D01*
X222837915Y-28647053D01*
X222487223Y-28792315D01*
X222171609Y-29003201D01*
X221903201Y-29271609D01*
X221692315Y-29587223D01*
X221547053Y-29937915D01*
X221473000Y-30310207D01*
X171327000Y-30310207D01*
X171252947Y-29937915D01*
X171107685Y-29587223D01*
X170896799Y-29271609D01*
X170628391Y-29003201D01*
X170312777Y-28792315D01*
X169962085Y-28647053D01*
X169589793Y-28573000D01*
X169210207Y-28573000D01*
X168837915Y-28647053D01*
X168487223Y-28792315D01*
X168171609Y-29003201D01*
X167903201Y-29271609D01*
X167692315Y-29587223D01*
X167547053Y-29937915D01*
X167473000Y-30310207D01*
X117327000Y-30310207D01*
X117252947Y-29937915D01*
X117107685Y-29587223D01*
X116896799Y-29271609D01*
X116628391Y-29003201D01*
X116312777Y-28792315D01*
X115962085Y-28647053D01*
X115589793Y-28573000D01*
X115210207Y-28573000D01*
X114837915Y-28647053D01*
X114487223Y-28792315D01*
X114171609Y-29003201D01*
X113903201Y-29271609D01*
X113692315Y-29587223D01*
X113547053Y-29937915D01*
X113473000Y-30310207D01*
X63327000Y-30310207D01*
X63252947Y-29937915D01*
X63107685Y-29587223D01*
X62896799Y-29271609D01*
X62628391Y-29003201D01*
X62312777Y-28792315D01*
X61962085Y-28647053D01*
X61589793Y-28573000D01*
X61210207Y-28573000D01*
X60837915Y-28647053D01*
X60487223Y-28792315D01*
X60171609Y-29003201D01*
X59903201Y-29271609D01*
X59692315Y-29587223D01*
X59547053Y-29937915D01*
X59473000Y-30310207D01*
X18452000Y-30310207D01*
X18452000Y-26700358D01*
X19423000Y-26700358D01*
X19423000Y-27099642D01*
X19500896Y-27491254D01*
X19653696Y-27860145D01*
X19875526Y-28192137D01*
X20157863Y-28474474D01*
X20489855Y-28696304D01*
X20858746Y-28849104D01*
X21250358Y-28927000D01*
X21649642Y-28927000D01*
X22041254Y-28849104D01*
X22410145Y-28696304D01*
X22742137Y-28474474D01*
X23024474Y-28192137D01*
X23246304Y-27860145D01*
X23399104Y-27491254D01*
X23477000Y-27099642D01*
X23477000Y-26700358D01*
X123923000Y-26700358D01*
X123923000Y-27099642D01*
X124000896Y-27491254D01*
X124153696Y-27860145D01*
X124375526Y-28192137D01*
X124657863Y-28474474D01*
X124989855Y-28696304D01*
X125358746Y-28849104D01*
X125750358Y-28927000D01*
X126149642Y-28927000D01*
X126541254Y-28849104D01*
X126910145Y-28696304D01*
X127242137Y-28474474D01*
X127524474Y-28192137D01*
X127746304Y-27860145D01*
X127899104Y-27491254D01*
X127977000Y-27099642D01*
X127977000Y-26700358D01*
X210273000Y-26700358D01*
X210273000Y-27099642D01*
X210350896Y-27491254D01*
X210503696Y-27860145D01*
X210725526Y-28192137D01*
X211007863Y-28474474D01*
X211339855Y-28696304D01*
X211708746Y-28849104D01*
X212100358Y-28927000D01*
X212499642Y-28927000D01*
X212891254Y-28849104D01*
X213260145Y-28696304D01*
X213592137Y-28474474D01*
X213874474Y-28192137D01*
X214096304Y-27860145D01*
X214249104Y-27491254D01*
X214327000Y-27099642D01*
X214327000Y-26700358D01*
X214249104Y-26308746D01*
X214096304Y-25939855D01*
X213874474Y-25607863D01*
X213592137Y-25325526D01*
X213260145Y-25103696D01*
X212891254Y-24950896D01*
X212499642Y-24873000D01*
X212100358Y-24873000D01*
X211708746Y-24950896D01*
X211339855Y-25103696D01*
X211007863Y-25325526D01*
X210725526Y-25607863D01*
X210503696Y-25939855D01*
X210350896Y-26308746D01*
X210273000Y-26700358D01*
X127977000Y-26700358D01*
X127899104Y-26308746D01*
X127746304Y-25939855D01*
X127524474Y-25607863D01*
X127242137Y-25325526D01*
X126910145Y-25103696D01*
X126541254Y-24950896D01*
X126149642Y-24873000D01*
X125750358Y-24873000D01*
X125358746Y-24950896D01*
X124989855Y-25103696D01*
X124657863Y-25325526D01*
X124375526Y-25607863D01*
X124153696Y-25939855D01*
X124000896Y-26308746D01*
X123923000Y-26700358D01*
X23477000Y-26700358D01*
X23399104Y-26308746D01*
X23246304Y-25939855D01*
X23024474Y-25607863D01*
X22742137Y-25325526D01*
X22410145Y-25103696D01*
X22041254Y-24950896D01*
X21649642Y-24873000D01*
X21250358Y-24873000D01*
X20858746Y-24950896D01*
X20489855Y-25103696D01*
X20157863Y-25325526D01*
X19875526Y-25607863D01*
X19653696Y-25939855D01*
X19500896Y-26308746D01*
X19423000Y-26700358D01*
X18452000Y-26700358D01*
X18452000Y-23902000D01*
X233548000Y-23902000D01*
X233548001Y-159248000D01*
X233548001Y-159248000D01*
G37*
X233548001Y-159248000D02*
X18452000Y-159248000D01*
X18452000Y-156050358D01*
X19423000Y-156050358D01*
X19423000Y-156449642D01*
X19500896Y-156841254D01*
X19653696Y-157210145D01*
X19875526Y-157542137D01*
X20157863Y-157824474D01*
X20489855Y-158046304D01*
X20858746Y-158199104D01*
X21250358Y-158277000D01*
X21649642Y-158277000D01*
X22041254Y-158199104D01*
X22410145Y-158046304D01*
X22742137Y-157824474D01*
X23024474Y-157542137D01*
X23246304Y-157210145D01*
X23399104Y-156841254D01*
X23477000Y-156449642D01*
X23477000Y-156050358D01*
X122123000Y-156050358D01*
X122123000Y-156449642D01*
X122200896Y-156841254D01*
X122353696Y-157210145D01*
X122575526Y-157542137D01*
X122857863Y-157824474D01*
X123189855Y-158046304D01*
X123558746Y-158199104D01*
X123950358Y-158277000D01*
X124349642Y-158277000D01*
X124741254Y-158199104D01*
X125110145Y-158046304D01*
X125442137Y-157824474D01*
X125724474Y-157542137D01*
X125946304Y-157210145D01*
X126099104Y-156841254D01*
X126177000Y-156449642D01*
X126177000Y-156050358D01*
X228523000Y-156050358D01*
X228523000Y-156449642D01*
X228600896Y-156841254D01*
X228753696Y-157210145D01*
X228975526Y-157542137D01*
X229257863Y-157824474D01*
X229589855Y-158046304D01*
X229958746Y-158199104D01*
X230350358Y-158277000D01*
X230749642Y-158277000D01*
X231141254Y-158199104D01*
X231510145Y-158046304D01*
X231842137Y-157824474D01*
X232124474Y-157542137D01*
X232346304Y-157210145D01*
X232499104Y-156841254D01*
X232577000Y-156449642D01*
X232577000Y-156050358D01*
X232499104Y-155658746D01*
X232346304Y-155289855D01*
X232124474Y-154957863D01*
X231842137Y-154675526D01*
X231510145Y-154453696D01*
X231141254Y-154300896D01*
X230749642Y-154223000D01*
X230350358Y-154223000D01*
X229958746Y-154300896D01*
X229589855Y-154453696D01*
X229257863Y-154675526D01*
X228975526Y-154957863D01*
X228753696Y-155289855D01*
X228600896Y-155658746D01*
X228523000Y-156050358D01*
X126177000Y-156050358D01*
X126099104Y-155658746D01*
X125946304Y-155289855D01*
X125724474Y-154957863D01*
X125442137Y-154675526D01*
X125110145Y-154453696D01*
X124741254Y-154300896D01*
X124349642Y-154223000D01*
X123950358Y-154223000D01*
X123558746Y-154300896D01*
X123189855Y-154453696D01*
X122857863Y-154675526D01*
X122575526Y-154957863D01*
X122353696Y-155289855D01*
X122200896Y-155658746D01*
X122123000Y-156050358D01*
X23477000Y-156050358D01*
X23399104Y-155658746D01*
X23246304Y-155289855D01*
X23024474Y-154957863D01*
X22742137Y-154675526D01*
X22410145Y-154453696D01*
X22041254Y-154300896D01*
X21649642Y-154223000D01*
X21250358Y-154223000D01*
X20858746Y-154300896D01*
X20489855Y-154453696D01*
X20157863Y-154675526D01*
X19875526Y-154957863D01*
X19653696Y-155289855D01*
X19500896Y-155658746D01*
X19423000Y-156050358D01*
X18452000Y-156050358D01*
X18452000Y-152910207D01*
X133223000Y-152910207D01*
X133223000Y-153289793D01*
X133297053Y-153662085D01*
X133442315Y-154012777D01*
X133653201Y-154328391D01*
X133921609Y-154596799D01*
X134237223Y-154807685D01*
X134587915Y-154952947D01*
X134960207Y-155027000D01*
X135339793Y-155027000D01*
X135712085Y-154952947D01*
X136062777Y-154807685D01*
X136378391Y-154596799D01*
X136646799Y-154328391D01*
X136857685Y-154012777D01*
X137002947Y-153662085D01*
X137077000Y-153289793D01*
X137077000Y-152910207D01*
X213773000Y-152910207D01*
X213773000Y-153289793D01*
X213847053Y-153662085D01*
X213992315Y-154012777D01*
X214203201Y-154328391D01*
X214471609Y-154596799D01*
X214787223Y-154807685D01*
X215137915Y-154952947D01*
X215510207Y-155027000D01*
X215889793Y-155027000D01*
X216262085Y-154952947D01*
X216612777Y-154807685D01*
X216928391Y-154596799D01*
X217196799Y-154328391D01*
X217407685Y-154012777D01*
X217552947Y-153662085D01*
X217627000Y-153289793D01*
X217627000Y-152910207D01*
X217552947Y-152537915D01*
X217407685Y-152187223D01*
X217196799Y-151871609D01*
X216928391Y-151603201D01*
X216612777Y-151392315D01*
X216262085Y-151247053D01*
X215889793Y-151173000D01*
X215510207Y-151173000D01*
X215137915Y-151247053D01*
X214787223Y-151392315D01*
X214471609Y-151603201D01*
X214203201Y-151871609D01*
X213992315Y-152187223D01*
X213847053Y-152537915D01*
X213773000Y-152910207D01*
X137077000Y-152910207D01*
X137002947Y-152537915D01*
X136857685Y-152187223D01*
X136646799Y-151871609D01*
X136378391Y-151603201D01*
X136062777Y-151392315D01*
X135712085Y-151247053D01*
X135339793Y-151173000D01*
X134960207Y-151173000D01*
X134587915Y-151247053D01*
X134237223Y-151392315D01*
X133921609Y-151603201D01*
X133653201Y-151871609D01*
X133442315Y-152187223D01*
X133297053Y-152537915D01*
X133223000Y-152910207D01*
X18452000Y-152910207D01*
X18452000Y-148968548D01*
X93723000Y-148968548D01*
X93723000Y-149131452D01*
X93754782Y-149291227D01*
X93817123Y-149441731D01*
X93907628Y-149577181D01*
X94022819Y-149692372D01*
X94158269Y-149782877D01*
X94308773Y-149845218D01*
X94468548Y-149877000D01*
X94631452Y-149877000D01*
X94791227Y-149845218D01*
X94941731Y-149782877D01*
X95025357Y-149727000D01*
X115416755Y-149727000D01*
X115450000Y-149730274D01*
X115483245Y-149727000D01*
X115483252Y-149727000D01*
X115582715Y-149717204D01*
X115710330Y-149678492D01*
X115827941Y-149615628D01*
X115931027Y-149531027D01*
X115952226Y-149505196D01*
X116538874Y-148918548D01*
X177822996Y-148918548D01*
X177822996Y-149081452D01*
X177854778Y-149241227D01*
X177917119Y-149391731D01*
X178007624Y-149527181D01*
X178122815Y-149642372D01*
X178258265Y-149732877D01*
X178408769Y-149795218D01*
X178568544Y-149827000D01*
X178731448Y-149827000D01*
X178891223Y-149795218D01*
X179041727Y-149732877D01*
X179125353Y-149677000D01*
X195366755Y-149677000D01*
X195400000Y-149680274D01*
X195433245Y-149677000D01*
X195433252Y-149677000D01*
X195532715Y-149667204D01*
X195660330Y-149628492D01*
X195777941Y-149565628D01*
X195881027Y-149481027D01*
X195902226Y-149455196D01*
X199747215Y-145610207D01*
X215873000Y-145610207D01*
X215873000Y-145989793D01*
X215947053Y-146362085D01*
X216092315Y-146712777D01*
X216303201Y-147028391D01*
X216571609Y-147296799D01*
X216887223Y-147507685D01*
X217237915Y-147652947D01*
X217610207Y-147727000D01*
X217989793Y-147727000D01*
X218362085Y-147652947D01*
X218712777Y-147507685D01*
X219028391Y-147296799D01*
X219296799Y-147028391D01*
X219507685Y-146712777D01*
X219652947Y-146362085D01*
X219727000Y-145989793D01*
X219727000Y-145610207D01*
X219652947Y-145237915D01*
X219507685Y-144887223D01*
X219296799Y-144571609D01*
X219028391Y-144303201D01*
X218712777Y-144092315D01*
X218362085Y-143947053D01*
X217989793Y-143873000D01*
X217610207Y-143873000D01*
X217237915Y-143947053D01*
X216887223Y-144092315D01*
X216571609Y-144303201D01*
X216303201Y-144571609D01*
X216092315Y-144887223D01*
X215947053Y-145237915D01*
X215873000Y-145610207D01*
X199747215Y-145610207D01*
X200892583Y-144464840D01*
X200991227Y-144445218D01*
X201141731Y-144382877D01*
X201277181Y-144292372D01*
X201392372Y-144177181D01*
X201482877Y-144041731D01*
X201545218Y-143891227D01*
X201577000Y-143731452D01*
X201577000Y-143568548D01*
X201545218Y-143408773D01*
X201482877Y-143258269D01*
X201392372Y-143122819D01*
X201277181Y-143007628D01*
X201141731Y-142917123D01*
X200991227Y-142854782D01*
X200831452Y-142823000D01*
X200668548Y-142823000D01*
X200508773Y-142854782D01*
X200358269Y-142917123D01*
X200222819Y-143007628D01*
X200107628Y-143122819D01*
X200017123Y-143258269D01*
X199954782Y-143408773D01*
X199935160Y-143507417D01*
X195119578Y-148323000D01*
X179125353Y-148323000D01*
X179041727Y-148267123D01*
X178891223Y-148204782D01*
X178731448Y-148173000D01*
X178568544Y-148173000D01*
X178408769Y-148204782D01*
X178258265Y-148267123D01*
X178122815Y-148357628D01*
X178007624Y-148472819D01*
X177917119Y-148608269D01*
X177854778Y-148758773D01*
X177822996Y-148918548D01*
X116538874Y-148918548D01*
X119847215Y-145610207D01*
X135323000Y-145610207D01*
X135323000Y-145989793D01*
X135397053Y-146362085D01*
X135542315Y-146712777D01*
X135753201Y-147028391D01*
X136021609Y-147296799D01*
X136337223Y-147507685D01*
X136687915Y-147652947D01*
X137060207Y-147727000D01*
X137439793Y-147727000D01*
X137812085Y-147652947D01*
X138162777Y-147507685D01*
X138478391Y-147296799D01*
X138746799Y-147028391D01*
X138957685Y-146712777D01*
X139102947Y-146362085D01*
X139177000Y-145989793D01*
X139177000Y-145610207D01*
X139102947Y-145237915D01*
X138957685Y-144887223D01*
X138746799Y-144571609D01*
X138478391Y-144303201D01*
X138162777Y-144092315D01*
X137812085Y-143947053D01*
X137439793Y-143873000D01*
X137060207Y-143873000D01*
X136687915Y-143947053D01*
X136337223Y-144092315D01*
X136021609Y-144303201D01*
X135753201Y-144571609D01*
X135542315Y-144887223D01*
X135397053Y-145237915D01*
X135323000Y-145610207D01*
X119847215Y-145610207D01*
X120892583Y-144564840D01*
X120991227Y-144545218D01*
X121141731Y-144482877D01*
X121277181Y-144392372D01*
X121392372Y-144277181D01*
X121482877Y-144141731D01*
X121545218Y-143991227D01*
X121577000Y-143831452D01*
X121577000Y-143668548D01*
X121545218Y-143508773D01*
X121482877Y-143358269D01*
X121392372Y-143222819D01*
X121277181Y-143107628D01*
X121141731Y-143017123D01*
X120991227Y-142954782D01*
X120831452Y-142923000D01*
X120668548Y-142923000D01*
X120508773Y-142954782D01*
X120358269Y-143017123D01*
X120222819Y-143107628D01*
X120107628Y-143222819D01*
X120017123Y-143358269D01*
X119954782Y-143508773D01*
X119935160Y-143607417D01*
X115169578Y-148373000D01*
X95025357Y-148373000D01*
X94941731Y-148317123D01*
X94791227Y-148254782D01*
X94631452Y-148223000D01*
X94468548Y-148223000D01*
X94308773Y-148254782D01*
X94158269Y-148317123D01*
X94022819Y-148407628D01*
X93907628Y-148522819D01*
X93817123Y-148658269D01*
X93754782Y-148808773D01*
X93723000Y-148968548D01*
X18452000Y-148968548D01*
X18452000Y-140110207D01*
X135323000Y-140110207D01*
X135323000Y-140489793D01*
X135397053Y-140862085D01*
X135542315Y-141212777D01*
X135753201Y-141528391D01*
X136021609Y-141796799D01*
X136337223Y-142007685D01*
X136687915Y-142152947D01*
X137060207Y-142227000D01*
X137439793Y-142227000D01*
X137812085Y-142152947D01*
X138162777Y-142007685D01*
X138478391Y-141796799D01*
X138746799Y-141528391D01*
X138957685Y-141212777D01*
X139102947Y-140862085D01*
X139177000Y-140489793D01*
X139177000Y-140110207D01*
X215873000Y-140110207D01*
X215873000Y-140489793D01*
X215947053Y-140862085D01*
X216092315Y-141212777D01*
X216303201Y-141528391D01*
X216571609Y-141796799D01*
X216887223Y-142007685D01*
X217237915Y-142152947D01*
X217610207Y-142227000D01*
X217989793Y-142227000D01*
X218362085Y-142152947D01*
X218712777Y-142007685D01*
X219028391Y-141796799D01*
X219296799Y-141528391D01*
X219507685Y-141212777D01*
X219652947Y-140862085D01*
X219727000Y-140489793D01*
X219727000Y-140110207D01*
X219652947Y-139737915D01*
X219507685Y-139387223D01*
X219296799Y-139071609D01*
X219028391Y-138803201D01*
X218712777Y-138592315D01*
X218362085Y-138447053D01*
X217989793Y-138373000D01*
X217610207Y-138373000D01*
X217237915Y-138447053D01*
X216887223Y-138592315D01*
X216571609Y-138803201D01*
X216303201Y-139071609D01*
X216092315Y-139387223D01*
X215947053Y-139737915D01*
X215873000Y-140110207D01*
X139177000Y-140110207D01*
X139102947Y-139737915D01*
X138957685Y-139387223D01*
X138746799Y-139071609D01*
X138478391Y-138803201D01*
X138162777Y-138592315D01*
X137812085Y-138447053D01*
X137439793Y-138373000D01*
X137060207Y-138373000D01*
X136687915Y-138447053D01*
X136337223Y-138592315D01*
X136021609Y-138803201D01*
X135753201Y-139071609D01*
X135542315Y-139387223D01*
X135397053Y-139737915D01*
X135323000Y-140110207D01*
X18452000Y-140110207D01*
X18452000Y-130960207D01*
X212673000Y-130960207D01*
X212673000Y-131339793D01*
X212747053Y-131712085D01*
X212892315Y-132062777D01*
X213103201Y-132378391D01*
X213371609Y-132646799D01*
X213687223Y-132857685D01*
X214037915Y-133002947D01*
X214410207Y-133077000D01*
X214789793Y-133077000D01*
X215162085Y-133002947D01*
X215512777Y-132857685D01*
X215828391Y-132646799D01*
X216096799Y-132378391D01*
X216307685Y-132062777D01*
X216452947Y-131712085D01*
X216527000Y-131339793D01*
X216527000Y-130960207D01*
X218173000Y-130960207D01*
X218173000Y-131339793D01*
X218247053Y-131712085D01*
X218392315Y-132062777D01*
X218603201Y-132378391D01*
X218871609Y-132646799D01*
X219187223Y-132857685D01*
X219537915Y-133002947D01*
X219910207Y-133077000D01*
X220289793Y-133077000D01*
X220374217Y-133060207D01*
X225473000Y-133060207D01*
X225473000Y-133439793D01*
X225547053Y-133812085D01*
X225692315Y-134162777D01*
X225903201Y-134478391D01*
X226171609Y-134746799D01*
X226487223Y-134957685D01*
X226837915Y-135102947D01*
X227210207Y-135177000D01*
X227589793Y-135177000D01*
X227962085Y-135102947D01*
X228312777Y-134957685D01*
X228628391Y-134746799D01*
X228896799Y-134478391D01*
X229107685Y-134162777D01*
X229252947Y-133812085D01*
X229327000Y-133439793D01*
X229327000Y-133060207D01*
X229252947Y-132687915D01*
X229107685Y-132337223D01*
X228896799Y-132021609D01*
X228628391Y-131753201D01*
X228312777Y-131542315D01*
X227962085Y-131397053D01*
X227589793Y-131323000D01*
X227210207Y-131323000D01*
X226837915Y-131397053D01*
X226487223Y-131542315D01*
X226171609Y-131753201D01*
X225903201Y-132021609D01*
X225692315Y-132337223D01*
X225547053Y-132687915D01*
X225473000Y-133060207D01*
X220374217Y-133060207D01*
X220662085Y-133002947D01*
X221012777Y-132857685D01*
X221328391Y-132646799D01*
X221596799Y-132378391D01*
X221807685Y-132062777D01*
X221952947Y-131712085D01*
X222027000Y-131339793D01*
X222027000Y-130960207D01*
X221952947Y-130587915D01*
X221807685Y-130237223D01*
X221596799Y-129921609D01*
X221328391Y-129653201D01*
X221012777Y-129442315D01*
X220662085Y-129297053D01*
X220289793Y-129223000D01*
X219910207Y-129223000D01*
X219537915Y-129297053D01*
X219187223Y-129442315D01*
X218871609Y-129653201D01*
X218603201Y-129921609D01*
X218392315Y-130237223D01*
X218247053Y-130587915D01*
X218173000Y-130960207D01*
X216527000Y-130960207D01*
X216452947Y-130587915D01*
X216307685Y-130237223D01*
X216096799Y-129921609D01*
X215828391Y-129653201D01*
X215512777Y-129442315D01*
X215162085Y-129297053D01*
X214789793Y-129223000D01*
X214410207Y-129223000D01*
X214037915Y-129297053D01*
X213687223Y-129442315D01*
X213371609Y-129653201D01*
X213103201Y-129921609D01*
X212892315Y-130237223D01*
X212747053Y-130587915D01*
X212673000Y-130960207D01*
X18452000Y-130960207D01*
X18452000Y-122824981D01*
X20523000Y-122824981D01*
X20523000Y-123175019D01*
X20591289Y-123518332D01*
X20725243Y-123841725D01*
X20919714Y-124132771D01*
X21167229Y-124380286D01*
X21458275Y-124574757D01*
X21781668Y-124708711D01*
X22124981Y-124777000D01*
X22475019Y-124777000D01*
X22818332Y-124708711D01*
X23141725Y-124574757D01*
X23432771Y-124380286D01*
X23680286Y-124132771D01*
X23874757Y-123841725D01*
X24008711Y-123518332D01*
X24077000Y-123175019D01*
X24077000Y-122824981D01*
X24075041Y-122815132D01*
X65823000Y-122815132D01*
X65823000Y-123184868D01*
X65895132Y-123547501D01*
X66036624Y-123889093D01*
X66242039Y-124196518D01*
X66503482Y-124457961D01*
X66810907Y-124663376D01*
X67152499Y-124804868D01*
X67515132Y-124877000D01*
X67884868Y-124877000D01*
X68247501Y-124804868D01*
X68589093Y-124663376D01*
X68896518Y-124457961D01*
X69157961Y-124196518D01*
X69363376Y-123889093D01*
X69504868Y-123547501D01*
X69577000Y-123184868D01*
X69577000Y-122815132D01*
X74423000Y-122815132D01*
X74423000Y-123184868D01*
X74495132Y-123547501D01*
X74636624Y-123889093D01*
X74842039Y-124196518D01*
X75103482Y-124457961D01*
X75410907Y-124663376D01*
X75752499Y-124804868D01*
X76115132Y-124877000D01*
X76484868Y-124877000D01*
X76847501Y-124804868D01*
X77189093Y-124663376D01*
X77496518Y-124457961D01*
X77757961Y-124196518D01*
X77963376Y-123889093D01*
X78104868Y-123547501D01*
X78177000Y-123184868D01*
X78177000Y-122815132D01*
X119823000Y-122815132D01*
X119823000Y-123184868D01*
X119895132Y-123547501D01*
X120036624Y-123889093D01*
X120242039Y-124196518D01*
X120503482Y-124457961D01*
X120810907Y-124663376D01*
X121152499Y-124804868D01*
X121515132Y-124877000D01*
X121884868Y-124877000D01*
X122247501Y-124804868D01*
X122589093Y-124663376D01*
X122896518Y-124457961D01*
X123157961Y-124196518D01*
X123363376Y-123889093D01*
X123504868Y-123547501D01*
X123577000Y-123184868D01*
X123577000Y-122815132D01*
X128423000Y-122815132D01*
X128423000Y-123184868D01*
X128495132Y-123547501D01*
X128636624Y-123889093D01*
X128842039Y-124196518D01*
X129103482Y-124457961D01*
X129410907Y-124663376D01*
X129752499Y-124804868D01*
X130115132Y-124877000D01*
X130484868Y-124877000D01*
X130847501Y-124804868D01*
X131189093Y-124663376D01*
X131496518Y-124457961D01*
X131757961Y-124196518D01*
X131963376Y-123889093D01*
X132104868Y-123547501D01*
X132177000Y-123184868D01*
X132177000Y-122815132D01*
X173823000Y-122815132D01*
X173823000Y-123184868D01*
X173895132Y-123547501D01*
X174036624Y-123889093D01*
X174242039Y-124196518D01*
X174503482Y-124457961D01*
X174810907Y-124663376D01*
X175152499Y-124804868D01*
X175515132Y-124877000D01*
X175884868Y-124877000D01*
X176247501Y-124804868D01*
X176589093Y-124663376D01*
X176896518Y-124457961D01*
X177157961Y-124196518D01*
X177363376Y-123889093D01*
X177504868Y-123547501D01*
X177577000Y-123184868D01*
X177577000Y-122815132D01*
X182423000Y-122815132D01*
X182423000Y-123184868D01*
X182495132Y-123547501D01*
X182636624Y-123889093D01*
X182842039Y-124196518D01*
X183103482Y-124457961D01*
X183410907Y-124663376D01*
X183752499Y-124804868D01*
X184115132Y-124877000D01*
X184484868Y-124877000D01*
X184847501Y-124804868D01*
X185189093Y-124663376D01*
X185496518Y-124457961D01*
X185757961Y-124196518D01*
X185963376Y-123889093D01*
X186104868Y-123547501D01*
X186177000Y-123184868D01*
X186177000Y-122824981D01*
X227923000Y-122824981D01*
X227923000Y-123175019D01*
X227991289Y-123518332D01*
X228125243Y-123841725D01*
X228319714Y-124132771D01*
X228567229Y-124380286D01*
X228858275Y-124574757D01*
X229181668Y-124708711D01*
X229524981Y-124777000D01*
X229875019Y-124777000D01*
X230218332Y-124708711D01*
X230541725Y-124574757D01*
X230832771Y-124380286D01*
X231080286Y-124132771D01*
X231274757Y-123841725D01*
X231408711Y-123518332D01*
X231477000Y-123175019D01*
X231477000Y-122824981D01*
X231408711Y-122481668D01*
X231274757Y-122158275D01*
X231080286Y-121867229D01*
X230832771Y-121619714D01*
X230541725Y-121425243D01*
X230218332Y-121291289D01*
X229875019Y-121223000D01*
X229524981Y-121223000D01*
X229181668Y-121291289D01*
X228858275Y-121425243D01*
X228567229Y-121619714D01*
X228319714Y-121867229D01*
X228125243Y-122158275D01*
X227991289Y-122481668D01*
X227923000Y-122824981D01*
X186177000Y-122824981D01*
X186177000Y-122815132D01*
X186104868Y-122452499D01*
X185963376Y-122110907D01*
X185757961Y-121803482D01*
X185496518Y-121542039D01*
X185189093Y-121336624D01*
X184847501Y-121195132D01*
X184484868Y-121123000D01*
X184115132Y-121123000D01*
X183752499Y-121195132D01*
X183410907Y-121336624D01*
X183103482Y-121542039D01*
X182842039Y-121803482D01*
X182636624Y-122110907D01*
X182495132Y-122452499D01*
X182423000Y-122815132D01*
X177577000Y-122815132D01*
X177504868Y-122452499D01*
X177363376Y-122110907D01*
X177157961Y-121803482D01*
X176896518Y-121542039D01*
X176589093Y-121336624D01*
X176247501Y-121195132D01*
X175884868Y-121123000D01*
X175515132Y-121123000D01*
X175152499Y-121195132D01*
X174810907Y-121336624D01*
X174503482Y-121542039D01*
X174242039Y-121803482D01*
X174036624Y-122110907D01*
X173895132Y-122452499D01*
X173823000Y-122815132D01*
X132177000Y-122815132D01*
X132104868Y-122452499D01*
X131963376Y-122110907D01*
X131757961Y-121803482D01*
X131496518Y-121542039D01*
X131189093Y-121336624D01*
X130847501Y-121195132D01*
X130484868Y-121123000D01*
X130115132Y-121123000D01*
X129752499Y-121195132D01*
X129410907Y-121336624D01*
X129103482Y-121542039D01*
X128842039Y-121803482D01*
X128636624Y-122110907D01*
X128495132Y-122452499D01*
X128423000Y-122815132D01*
X123577000Y-122815132D01*
X123504868Y-122452499D01*
X123363376Y-122110907D01*
X123157961Y-121803482D01*
X122896518Y-121542039D01*
X122589093Y-121336624D01*
X122247501Y-121195132D01*
X121884868Y-121123000D01*
X121515132Y-121123000D01*
X121152499Y-121195132D01*
X120810907Y-121336624D01*
X120503482Y-121542039D01*
X120242039Y-121803482D01*
X120036624Y-122110907D01*
X119895132Y-122452499D01*
X119823000Y-122815132D01*
X78177000Y-122815132D01*
X78104868Y-122452499D01*
X77963376Y-122110907D01*
X77757961Y-121803482D01*
X77496518Y-121542039D01*
X77189093Y-121336624D01*
X76847501Y-121195132D01*
X76484868Y-121123000D01*
X76115132Y-121123000D01*
X75752499Y-121195132D01*
X75410907Y-121336624D01*
X75103482Y-121542039D01*
X74842039Y-121803482D01*
X74636624Y-122110907D01*
X74495132Y-122452499D01*
X74423000Y-122815132D01*
X69577000Y-122815132D01*
X69504868Y-122452499D01*
X69363376Y-122110907D01*
X69157961Y-121803482D01*
X68896518Y-121542039D01*
X68589093Y-121336624D01*
X68247501Y-121195132D01*
X67884868Y-121123000D01*
X67515132Y-121123000D01*
X67152499Y-121195132D01*
X66810907Y-121336624D01*
X66503482Y-121542039D01*
X66242039Y-121803482D01*
X66036624Y-122110907D01*
X65895132Y-122452499D01*
X65823000Y-122815132D01*
X24075041Y-122815132D01*
X24008711Y-122481668D01*
X23874757Y-122158275D01*
X23680286Y-121867229D01*
X23432771Y-121619714D01*
X23141725Y-121425243D01*
X22818332Y-121291289D01*
X22475019Y-121223000D01*
X22124981Y-121223000D01*
X21781668Y-121291289D01*
X21458275Y-121425243D01*
X21167229Y-121619714D01*
X20919714Y-121867229D01*
X20725243Y-122158275D01*
X20591289Y-122481668D01*
X20523000Y-122824981D01*
X18452000Y-122824981D01*
X18452000Y-90500000D01*
X23570934Y-90500000D01*
X23570934Y-120500000D01*
X23579178Y-120583707D01*
X23603595Y-120664196D01*
X23643245Y-120738376D01*
X23696605Y-120803395D01*
X23761624Y-120856755D01*
X23835804Y-120896405D01*
X23916293Y-120920822D01*
X24000000Y-120929066D01*
X39000000Y-120929066D01*
X39083707Y-120920822D01*
X39164196Y-120896405D01*
X39238376Y-120856755D01*
X39303395Y-120803395D01*
X39356755Y-120738376D01*
X39396405Y-120664196D01*
X39420822Y-120583707D01*
X39429066Y-120500000D01*
X39429066Y-106166078D01*
X39485804Y-106196405D01*
X39566293Y-106220822D01*
X39650000Y-106229066D01*
X46950000Y-106229066D01*
X47033707Y-106220822D01*
X47070934Y-106209529D01*
X47070934Y-120800000D01*
X47079178Y-120883707D01*
X47103595Y-120964196D01*
X47143245Y-121038376D01*
X47196605Y-121103395D01*
X47261624Y-121156755D01*
X47335804Y-121196405D01*
X47416293Y-121220822D01*
X47500000Y-121229066D01*
X62500000Y-121229066D01*
X62583707Y-121220822D01*
X62664196Y-121196405D01*
X62738376Y-121156755D01*
X62803395Y-121103395D01*
X62856755Y-121038376D01*
X62896405Y-120964196D01*
X62920822Y-120883707D01*
X62929066Y-120800000D01*
X62929066Y-90800000D01*
X62920822Y-90716293D01*
X62896405Y-90635804D01*
X62856755Y-90561624D01*
X62806182Y-90500000D01*
X77570934Y-90500000D01*
X77570934Y-120500000D01*
X77579178Y-120583707D01*
X77603595Y-120664196D01*
X77643245Y-120738376D01*
X77696605Y-120803395D01*
X77761624Y-120856755D01*
X77835804Y-120896405D01*
X77916293Y-120920822D01*
X78000000Y-120929066D01*
X93000000Y-120929066D01*
X93083707Y-120920822D01*
X93164196Y-120896405D01*
X93238376Y-120856755D01*
X93303395Y-120803395D01*
X93356755Y-120738376D01*
X93396405Y-120664196D01*
X93420822Y-120583707D01*
X93429066Y-120500000D01*
X93429066Y-106166078D01*
X93485804Y-106196405D01*
X93566293Y-106220822D01*
X93650000Y-106229066D01*
X100950000Y-106229066D01*
X101033707Y-106220822D01*
X101070934Y-106209529D01*
X101070934Y-120800000D01*
X101079178Y-120883707D01*
X101103595Y-120964196D01*
X101143245Y-121038376D01*
X101196605Y-121103395D01*
X101261624Y-121156755D01*
X101335804Y-121196405D01*
X101416293Y-121220822D01*
X101500000Y-121229066D01*
X116500000Y-121229066D01*
X116583707Y-121220822D01*
X116664196Y-121196405D01*
X116738376Y-121156755D01*
X116803395Y-121103395D01*
X116856755Y-121038376D01*
X116896405Y-120964196D01*
X116920822Y-120883707D01*
X116929066Y-120800000D01*
X116929066Y-90800000D01*
X116920822Y-90716293D01*
X116896405Y-90635804D01*
X116856755Y-90561624D01*
X116806182Y-90500000D01*
X131570934Y-90500000D01*
X131570934Y-120500000D01*
X131579178Y-120583707D01*
X131603595Y-120664196D01*
X131643245Y-120738376D01*
X131696605Y-120803395D01*
X131761624Y-120856755D01*
X131835804Y-120896405D01*
X131916293Y-120920822D01*
X132000000Y-120929066D01*
X147000000Y-120929066D01*
X147083707Y-120920822D01*
X147164196Y-120896405D01*
X147238376Y-120856755D01*
X147303395Y-120803395D01*
X147356755Y-120738376D01*
X147396405Y-120664196D01*
X147420822Y-120583707D01*
X147429066Y-120500000D01*
X147429066Y-106166078D01*
X147485804Y-106196405D01*
X147566293Y-106220822D01*
X147650000Y-106229066D01*
X154950000Y-106229066D01*
X155033707Y-106220822D01*
X155070934Y-106209529D01*
X155070934Y-120800000D01*
X155079178Y-120883707D01*
X155103595Y-120964196D01*
X155143245Y-121038376D01*
X155196605Y-121103395D01*
X155261624Y-121156755D01*
X155335804Y-121196405D01*
X155416293Y-121220822D01*
X155500000Y-121229066D01*
X170500000Y-121229066D01*
X170583707Y-121220822D01*
X170664196Y-121196405D01*
X170738376Y-121156755D01*
X170803395Y-121103395D01*
X170856755Y-121038376D01*
X170896405Y-120964196D01*
X170920822Y-120883707D01*
X170929066Y-120800000D01*
X170929066Y-90800000D01*
X170920822Y-90716293D01*
X170896405Y-90635804D01*
X170856755Y-90561624D01*
X170806182Y-90500000D01*
X185570934Y-90500000D01*
X185570934Y-120500000D01*
X185579178Y-120583707D01*
X185603595Y-120664196D01*
X185643245Y-120738376D01*
X185696605Y-120803395D01*
X185761624Y-120856755D01*
X185835804Y-120896405D01*
X185916293Y-120920822D01*
X186000000Y-120929066D01*
X201000000Y-120929066D01*
X201083707Y-120920822D01*
X201164196Y-120896405D01*
X201238376Y-120856755D01*
X201303395Y-120803395D01*
X201356755Y-120738376D01*
X201396405Y-120664196D01*
X201420822Y-120583707D01*
X201429066Y-120500000D01*
X201429066Y-106166078D01*
X201485804Y-106196405D01*
X201566293Y-106220822D01*
X201650000Y-106229066D01*
X208950000Y-106229066D01*
X209033707Y-106220822D01*
X209070934Y-106209529D01*
X209070934Y-120800000D01*
X209079178Y-120883707D01*
X209103595Y-120964196D01*
X209143245Y-121038376D01*
X209196605Y-121103395D01*
X209261624Y-121156755D01*
X209335804Y-121196405D01*
X209416293Y-121220822D01*
X209500000Y-121229066D01*
X224500000Y-121229066D01*
X224583707Y-121220822D01*
X224664196Y-121196405D01*
X224738376Y-121156755D01*
X224803395Y-121103395D01*
X224856755Y-121038376D01*
X224896405Y-120964196D01*
X224920822Y-120883707D01*
X224929066Y-120800000D01*
X224929066Y-90800000D01*
X224920822Y-90716293D01*
X224896405Y-90635804D01*
X224856755Y-90561624D01*
X224803395Y-90496605D01*
X224738376Y-90443245D01*
X224664196Y-90403595D01*
X224583707Y-90379178D01*
X224500000Y-90370934D01*
X209527000Y-90370934D01*
X209527000Y-90298849D01*
X209487533Y-90100435D01*
X209410115Y-89913533D01*
X209379066Y-89867065D01*
X209379066Y-89732935D01*
X209410115Y-89686467D01*
X209487533Y-89499565D01*
X209501556Y-89429066D01*
X216650000Y-89429066D01*
X216733707Y-89420822D01*
X216814196Y-89396405D01*
X216888376Y-89356755D01*
X216953395Y-89303395D01*
X217006755Y-89238376D01*
X217046405Y-89164196D01*
X217070822Y-89083707D01*
X217079066Y-89000000D01*
X217079066Y-64000000D01*
X217070822Y-63916293D01*
X217046405Y-63835804D01*
X217006755Y-63761624D01*
X216953395Y-63696605D01*
X216888376Y-63643245D01*
X216814196Y-63603595D01*
X216733707Y-63579178D01*
X216650000Y-63570934D01*
X201650000Y-63570934D01*
X201566293Y-63579178D01*
X201485804Y-63603595D01*
X201411624Y-63643245D01*
X201346605Y-63696605D01*
X201293245Y-63761624D01*
X201253595Y-63835804D01*
X201229178Y-63916293D01*
X201220934Y-64000000D01*
X201220934Y-90133922D01*
X201164196Y-90103595D01*
X201083707Y-90079178D01*
X201000000Y-90070934D01*
X186000000Y-90070934D01*
X185916293Y-90079178D01*
X185835804Y-90103595D01*
X185761624Y-90143245D01*
X185696605Y-90196605D01*
X185643245Y-90261624D01*
X185603595Y-90335804D01*
X185579178Y-90416293D01*
X185570934Y-90500000D01*
X170806182Y-90500000D01*
X170803395Y-90496605D01*
X170738376Y-90443245D01*
X170664196Y-90403595D01*
X170583707Y-90379178D01*
X170500000Y-90370934D01*
X155527000Y-90370934D01*
X155527000Y-90298849D01*
X155487533Y-90100435D01*
X155410115Y-89913533D01*
X155379066Y-89867065D01*
X155379066Y-89732935D01*
X155410115Y-89686467D01*
X155487533Y-89499565D01*
X155501556Y-89429066D01*
X162650000Y-89429066D01*
X162733707Y-89420822D01*
X162814196Y-89396405D01*
X162888376Y-89356755D01*
X162953395Y-89303395D01*
X163006755Y-89238376D01*
X163046405Y-89164196D01*
X163070822Y-89083707D01*
X163079066Y-89000000D01*
X163079066Y-64000000D01*
X163070822Y-63916293D01*
X163046405Y-63835804D01*
X163006755Y-63761624D01*
X162953395Y-63696605D01*
X162888376Y-63643245D01*
X162814196Y-63603595D01*
X162733707Y-63579178D01*
X162650000Y-63570934D01*
X147650000Y-63570934D01*
X147566293Y-63579178D01*
X147485804Y-63603595D01*
X147411624Y-63643245D01*
X147346605Y-63696605D01*
X147293245Y-63761624D01*
X147253595Y-63835804D01*
X147229178Y-63916293D01*
X147220934Y-64000000D01*
X147220934Y-90133922D01*
X147164196Y-90103595D01*
X147083707Y-90079178D01*
X147000000Y-90070934D01*
X132000000Y-90070934D01*
X131916293Y-90079178D01*
X131835804Y-90103595D01*
X131761624Y-90143245D01*
X131696605Y-90196605D01*
X131643245Y-90261624D01*
X131603595Y-90335804D01*
X131579178Y-90416293D01*
X131570934Y-90500000D01*
X116806182Y-90500000D01*
X116803395Y-90496605D01*
X116738376Y-90443245D01*
X116664196Y-90403595D01*
X116583707Y-90379178D01*
X116500000Y-90370934D01*
X101527000Y-90370934D01*
X101527000Y-90298849D01*
X101487533Y-90100435D01*
X101410115Y-89913533D01*
X101379066Y-89867065D01*
X101379066Y-89732935D01*
X101410115Y-89686467D01*
X101487533Y-89499565D01*
X101501556Y-89429066D01*
X108650000Y-89429066D01*
X108733707Y-89420822D01*
X108814196Y-89396405D01*
X108888376Y-89356755D01*
X108953395Y-89303395D01*
X109006755Y-89238376D01*
X109046405Y-89164196D01*
X109070822Y-89083707D01*
X109079066Y-89000000D01*
X109079066Y-64000000D01*
X109070822Y-63916293D01*
X109046405Y-63835804D01*
X109006755Y-63761624D01*
X108953395Y-63696605D01*
X108888376Y-63643245D01*
X108814196Y-63603595D01*
X108733707Y-63579178D01*
X108650000Y-63570934D01*
X93650000Y-63570934D01*
X93566293Y-63579178D01*
X93485804Y-63603595D01*
X93411624Y-63643245D01*
X93346605Y-63696605D01*
X93293245Y-63761624D01*
X93253595Y-63835804D01*
X93229178Y-63916293D01*
X93220934Y-64000000D01*
X93220934Y-90133922D01*
X93164196Y-90103595D01*
X93083707Y-90079178D01*
X93000000Y-90070934D01*
X78000000Y-90070934D01*
X77916293Y-90079178D01*
X77835804Y-90103595D01*
X77761624Y-90143245D01*
X77696605Y-90196605D01*
X77643245Y-90261624D01*
X77603595Y-90335804D01*
X77579178Y-90416293D01*
X77570934Y-90500000D01*
X62806182Y-90500000D01*
X62803395Y-90496605D01*
X62738376Y-90443245D01*
X62664196Y-90403595D01*
X62583707Y-90379178D01*
X62500000Y-90370934D01*
X47527000Y-90370934D01*
X47527000Y-90298849D01*
X47487533Y-90100435D01*
X47410115Y-89913533D01*
X47379066Y-89867065D01*
X47379066Y-89732935D01*
X47410115Y-89686467D01*
X47487533Y-89499565D01*
X47501556Y-89429066D01*
X54650000Y-89429066D01*
X54733707Y-89420822D01*
X54814196Y-89396405D01*
X54888376Y-89356755D01*
X54953395Y-89303395D01*
X55006755Y-89238376D01*
X55046405Y-89164196D01*
X55070822Y-89083707D01*
X55079066Y-89000000D01*
X55079066Y-64000000D01*
X55070822Y-63916293D01*
X55046405Y-63835804D01*
X55006755Y-63761624D01*
X54953395Y-63696605D01*
X54888376Y-63643245D01*
X54814196Y-63603595D01*
X54733707Y-63579178D01*
X54650000Y-63570934D01*
X39650000Y-63570934D01*
X39566293Y-63579178D01*
X39485804Y-63603595D01*
X39411624Y-63643245D01*
X39346605Y-63696605D01*
X39293245Y-63761624D01*
X39253595Y-63835804D01*
X39229178Y-63916293D01*
X39220934Y-64000000D01*
X39220934Y-90133922D01*
X39164196Y-90103595D01*
X39083707Y-90079178D01*
X39000000Y-90070934D01*
X24000000Y-90070934D01*
X23916293Y-90079178D01*
X23835804Y-90103595D01*
X23761624Y-90143245D01*
X23696605Y-90196605D01*
X23643245Y-90261624D01*
X23603595Y-90335804D01*
X23579178Y-90416293D01*
X23570934Y-90500000D01*
X18452000Y-90500000D01*
X18452000Y-59000000D01*
X18670934Y-59000000D01*
X18670934Y-89000000D01*
X18679178Y-89083707D01*
X18703595Y-89164196D01*
X18743245Y-89238376D01*
X18796605Y-89303395D01*
X18861624Y-89356755D01*
X18935804Y-89396405D01*
X19016293Y-89420822D01*
X19100000Y-89429066D01*
X34100000Y-89429066D01*
X34183707Y-89420822D01*
X34264196Y-89396405D01*
X34338376Y-89356755D01*
X34403395Y-89303395D01*
X34456755Y-89238376D01*
X34496405Y-89164196D01*
X34520822Y-89083707D01*
X34529066Y-89000000D01*
X34529066Y-59824981D01*
X43223000Y-59824981D01*
X43223000Y-60175019D01*
X43291289Y-60518332D01*
X43425243Y-60841725D01*
X43619714Y-61132771D01*
X43867229Y-61380286D01*
X44158275Y-61574757D01*
X44481668Y-61708711D01*
X44824981Y-61777000D01*
X45175019Y-61777000D01*
X45518332Y-61708711D01*
X45841725Y-61574757D01*
X46132771Y-61380286D01*
X46380286Y-61132771D01*
X46574757Y-60841725D01*
X46708711Y-60518332D01*
X46777000Y-60175019D01*
X46777000Y-59824981D01*
X46708711Y-59481668D01*
X46574757Y-59158275D01*
X46469001Y-59000000D01*
X72670934Y-59000000D01*
X72670934Y-89000000D01*
X72679178Y-89083707D01*
X72703595Y-89164196D01*
X72743245Y-89238376D01*
X72796605Y-89303395D01*
X72861624Y-89356755D01*
X72935804Y-89396405D01*
X73016293Y-89420822D01*
X73100000Y-89429066D01*
X88100000Y-89429066D01*
X88183707Y-89420822D01*
X88264196Y-89396405D01*
X88338376Y-89356755D01*
X88403395Y-89303395D01*
X88456755Y-89238376D01*
X88496405Y-89164196D01*
X88520822Y-89083707D01*
X88529066Y-89000000D01*
X88529066Y-59824981D01*
X97223000Y-59824981D01*
X97223000Y-60175019D01*
X97291289Y-60518332D01*
X97425243Y-60841725D01*
X97619714Y-61132771D01*
X97867229Y-61380286D01*
X98158275Y-61574757D01*
X98481668Y-61708711D01*
X98824981Y-61777000D01*
X99175019Y-61777000D01*
X99518332Y-61708711D01*
X99841725Y-61574757D01*
X100132771Y-61380286D01*
X100380286Y-61132771D01*
X100574757Y-60841725D01*
X100708711Y-60518332D01*
X100777000Y-60175019D01*
X100777000Y-59824981D01*
X100708711Y-59481668D01*
X100574757Y-59158275D01*
X100469001Y-59000000D01*
X126670934Y-59000000D01*
X126670934Y-89000000D01*
X126679178Y-89083707D01*
X126703595Y-89164196D01*
X126743245Y-89238376D01*
X126796605Y-89303395D01*
X126861624Y-89356755D01*
X126935804Y-89396405D01*
X127016293Y-89420822D01*
X127100000Y-89429066D01*
X142100000Y-89429066D01*
X142183707Y-89420822D01*
X142264196Y-89396405D01*
X142338376Y-89356755D01*
X142403395Y-89303395D01*
X142456755Y-89238376D01*
X142496405Y-89164196D01*
X142520822Y-89083707D01*
X142529066Y-89000000D01*
X142529066Y-59824981D01*
X151223000Y-59824981D01*
X151223000Y-60175019D01*
X151291289Y-60518332D01*
X151425243Y-60841725D01*
X151619714Y-61132771D01*
X151867229Y-61380286D01*
X152158275Y-61574757D01*
X152481668Y-61708711D01*
X152824981Y-61777000D01*
X153175019Y-61777000D01*
X153518332Y-61708711D01*
X153841725Y-61574757D01*
X154132771Y-61380286D01*
X154380286Y-61132771D01*
X154574757Y-60841725D01*
X154708711Y-60518332D01*
X154777000Y-60175019D01*
X154777000Y-59824981D01*
X154708711Y-59481668D01*
X154574757Y-59158275D01*
X154469001Y-59000000D01*
X180670934Y-59000000D01*
X180670934Y-89000000D01*
X180679178Y-89083707D01*
X180703595Y-89164196D01*
X180743245Y-89238376D01*
X180796605Y-89303395D01*
X180861624Y-89356755D01*
X180935804Y-89396405D01*
X181016293Y-89420822D01*
X181100000Y-89429066D01*
X196100000Y-89429066D01*
X196183707Y-89420822D01*
X196264196Y-89396405D01*
X196338376Y-89356755D01*
X196403395Y-89303395D01*
X196456755Y-89238376D01*
X196496405Y-89164196D01*
X196520822Y-89083707D01*
X196529066Y-89000000D01*
X196529066Y-59824981D01*
X205223000Y-59824981D01*
X205223000Y-60175019D01*
X205291289Y-60518332D01*
X205425243Y-60841725D01*
X205619714Y-61132771D01*
X205867229Y-61380286D01*
X206158275Y-61574757D01*
X206481668Y-61708711D01*
X206824981Y-61777000D01*
X207175019Y-61777000D01*
X207518332Y-61708711D01*
X207841725Y-61574757D01*
X208132771Y-61380286D01*
X208380286Y-61132771D01*
X208574757Y-60841725D01*
X208708711Y-60518332D01*
X208777000Y-60175019D01*
X208777000Y-59824981D01*
X208708711Y-59481668D01*
X208574757Y-59158275D01*
X208380286Y-58867229D01*
X208132771Y-58619714D01*
X207841725Y-58425243D01*
X207518332Y-58291289D01*
X207175019Y-58223000D01*
X206824981Y-58223000D01*
X206481668Y-58291289D01*
X206158275Y-58425243D01*
X205867229Y-58619714D01*
X205619714Y-58867229D01*
X205425243Y-59158275D01*
X205291289Y-59481668D01*
X205223000Y-59824981D01*
X196529066Y-59824981D01*
X196529066Y-59000000D01*
X196520822Y-58916293D01*
X196496405Y-58835804D01*
X196456755Y-58761624D01*
X196403395Y-58696605D01*
X196338376Y-58643245D01*
X196264196Y-58603595D01*
X196183707Y-58579178D01*
X196100000Y-58570934D01*
X181100000Y-58570934D01*
X181016293Y-58579178D01*
X180935804Y-58603595D01*
X180861624Y-58643245D01*
X180796605Y-58696605D01*
X180743245Y-58761624D01*
X180703595Y-58835804D01*
X180679178Y-58916293D01*
X180670934Y-59000000D01*
X154469001Y-59000000D01*
X154380286Y-58867229D01*
X154132771Y-58619714D01*
X153841725Y-58425243D01*
X153518332Y-58291289D01*
X153175019Y-58223000D01*
X152824981Y-58223000D01*
X152481668Y-58291289D01*
X152158275Y-58425243D01*
X151867229Y-58619714D01*
X151619714Y-58867229D01*
X151425243Y-59158275D01*
X151291289Y-59481668D01*
X151223000Y-59824981D01*
X142529066Y-59824981D01*
X142529066Y-59000000D01*
X142520822Y-58916293D01*
X142496405Y-58835804D01*
X142456755Y-58761624D01*
X142403395Y-58696605D01*
X142338376Y-58643245D01*
X142264196Y-58603595D01*
X142183707Y-58579178D01*
X142100000Y-58570934D01*
X127100000Y-58570934D01*
X127016293Y-58579178D01*
X126935804Y-58603595D01*
X126861624Y-58643245D01*
X126796605Y-58696605D01*
X126743245Y-58761624D01*
X126703595Y-58835804D01*
X126679178Y-58916293D01*
X126670934Y-59000000D01*
X100469001Y-59000000D01*
X100380286Y-58867229D01*
X100132771Y-58619714D01*
X99841725Y-58425243D01*
X99518332Y-58291289D01*
X99175019Y-58223000D01*
X98824981Y-58223000D01*
X98481668Y-58291289D01*
X98158275Y-58425243D01*
X97867229Y-58619714D01*
X97619714Y-58867229D01*
X97425243Y-59158275D01*
X97291289Y-59481668D01*
X97223000Y-59824981D01*
X88529066Y-59824981D01*
X88529066Y-59000000D01*
X88520822Y-58916293D01*
X88496405Y-58835804D01*
X88456755Y-58761624D01*
X88403395Y-58696605D01*
X88338376Y-58643245D01*
X88264196Y-58603595D01*
X88183707Y-58579178D01*
X88100000Y-58570934D01*
X73100000Y-58570934D01*
X73016293Y-58579178D01*
X72935804Y-58603595D01*
X72861624Y-58643245D01*
X72796605Y-58696605D01*
X72743245Y-58761624D01*
X72703595Y-58835804D01*
X72679178Y-58916293D01*
X72670934Y-59000000D01*
X46469001Y-59000000D01*
X46380286Y-58867229D01*
X46132771Y-58619714D01*
X45841725Y-58425243D01*
X45518332Y-58291289D01*
X45175019Y-58223000D01*
X44824981Y-58223000D01*
X44481668Y-58291289D01*
X44158275Y-58425243D01*
X43867229Y-58619714D01*
X43619714Y-58867229D01*
X43425243Y-59158275D01*
X43291289Y-59481668D01*
X43223000Y-59824981D01*
X34529066Y-59824981D01*
X34529066Y-59000000D01*
X34520822Y-58916293D01*
X34496405Y-58835804D01*
X34456755Y-58761624D01*
X34403395Y-58696605D01*
X34338376Y-58643245D01*
X34264196Y-58603595D01*
X34183707Y-58579178D01*
X34100000Y-58570934D01*
X19100000Y-58570934D01*
X19016293Y-58579178D01*
X18935804Y-58603595D01*
X18861624Y-58643245D01*
X18796605Y-58696605D01*
X18743245Y-58761624D01*
X18703595Y-58835804D01*
X18679178Y-58916293D01*
X18670934Y-59000000D01*
X18452000Y-59000000D01*
X18452000Y-43110207D01*
X57373000Y-43110207D01*
X57373000Y-43489793D01*
X57447053Y-43862085D01*
X57592315Y-44212777D01*
X57803201Y-44528391D01*
X58071609Y-44796799D01*
X58387223Y-45007685D01*
X58737915Y-45152947D01*
X59110207Y-45227000D01*
X59489793Y-45227000D01*
X59862085Y-45152947D01*
X60212777Y-45007685D01*
X60528391Y-44796799D01*
X60796799Y-44528391D01*
X61007685Y-44212777D01*
X61152947Y-43862085D01*
X61227000Y-43489793D01*
X61227000Y-43110207D01*
X111373000Y-43110207D01*
X111373000Y-43489793D01*
X111447053Y-43862085D01*
X111592315Y-44212777D01*
X111803201Y-44528391D01*
X112071609Y-44796799D01*
X112387223Y-45007685D01*
X112737915Y-45152947D01*
X113110207Y-45227000D01*
X113489793Y-45227000D01*
X113862085Y-45152947D01*
X114212777Y-45007685D01*
X114528391Y-44796799D01*
X114796799Y-44528391D01*
X115007685Y-44212777D01*
X115152947Y-43862085D01*
X115227000Y-43489793D01*
X115227000Y-43110207D01*
X165373000Y-43110207D01*
X165373000Y-43489793D01*
X165447053Y-43862085D01*
X165592315Y-44212777D01*
X165803201Y-44528391D01*
X166071609Y-44796799D01*
X166387223Y-45007685D01*
X166737915Y-45152947D01*
X167110207Y-45227000D01*
X167489793Y-45227000D01*
X167862085Y-45152947D01*
X168212777Y-45007685D01*
X168528391Y-44796799D01*
X168796799Y-44528391D01*
X169007685Y-44212777D01*
X169152947Y-43862085D01*
X169227000Y-43489793D01*
X169227000Y-43110207D01*
X219373000Y-43110207D01*
X219373000Y-43489793D01*
X219447053Y-43862085D01*
X219592315Y-44212777D01*
X219803201Y-44528391D01*
X220071609Y-44796799D01*
X220387223Y-45007685D01*
X220737915Y-45152947D01*
X221110207Y-45227000D01*
X221489793Y-45227000D01*
X221862085Y-45152947D01*
X222212777Y-45007685D01*
X222528391Y-44796799D01*
X222796799Y-44528391D01*
X223007685Y-44212777D01*
X223152947Y-43862085D01*
X223227000Y-43489793D01*
X223227000Y-43110207D01*
X223152947Y-42737915D01*
X223007685Y-42387223D01*
X222796799Y-42071609D01*
X222528391Y-41803201D01*
X222212777Y-41592315D01*
X221862085Y-41447053D01*
X221489793Y-41373000D01*
X221110207Y-41373000D01*
X220737915Y-41447053D01*
X220387223Y-41592315D01*
X220071609Y-41803201D01*
X219803201Y-42071609D01*
X219592315Y-42387223D01*
X219447053Y-42737915D01*
X219373000Y-43110207D01*
X169227000Y-43110207D01*
X169152947Y-42737915D01*
X169007685Y-42387223D01*
X168796799Y-42071609D01*
X168528391Y-41803201D01*
X168212777Y-41592315D01*
X167862085Y-41447053D01*
X167489793Y-41373000D01*
X167110207Y-41373000D01*
X166737915Y-41447053D01*
X166387223Y-41592315D01*
X166071609Y-41803201D01*
X165803201Y-42071609D01*
X165592315Y-42387223D01*
X165447053Y-42737915D01*
X165373000Y-43110207D01*
X115227000Y-43110207D01*
X115152947Y-42737915D01*
X115007685Y-42387223D01*
X114796799Y-42071609D01*
X114528391Y-41803201D01*
X114212777Y-41592315D01*
X113862085Y-41447053D01*
X113489793Y-41373000D01*
X113110207Y-41373000D01*
X112737915Y-41447053D01*
X112387223Y-41592315D01*
X112071609Y-41803201D01*
X111803201Y-42071609D01*
X111592315Y-42387223D01*
X111447053Y-42737915D01*
X111373000Y-43110207D01*
X61227000Y-43110207D01*
X61152947Y-42737915D01*
X61007685Y-42387223D01*
X60796799Y-42071609D01*
X60528391Y-41803201D01*
X60212777Y-41592315D01*
X59862085Y-41447053D01*
X59489793Y-41373000D01*
X59110207Y-41373000D01*
X58737915Y-41447053D01*
X58387223Y-41592315D01*
X58071609Y-41803201D01*
X57803201Y-42071609D01*
X57592315Y-42387223D01*
X57447053Y-42737915D01*
X57373000Y-43110207D01*
X18452000Y-43110207D01*
X18452000Y-37610207D01*
X57373000Y-37610207D01*
X57373000Y-37989793D01*
X57447053Y-38362085D01*
X57592315Y-38712777D01*
X57803201Y-39028391D01*
X58071609Y-39296799D01*
X58387223Y-39507685D01*
X58737915Y-39652947D01*
X59110207Y-39727000D01*
X59489793Y-39727000D01*
X59862085Y-39652947D01*
X60212777Y-39507685D01*
X60528391Y-39296799D01*
X60796799Y-39028391D01*
X61007685Y-38712777D01*
X61152947Y-38362085D01*
X61227000Y-37989793D01*
X61227000Y-37610207D01*
X111373000Y-37610207D01*
X111373000Y-37989793D01*
X111447053Y-38362085D01*
X111592315Y-38712777D01*
X111803201Y-39028391D01*
X112071609Y-39296799D01*
X112387223Y-39507685D01*
X112737915Y-39652947D01*
X113110207Y-39727000D01*
X113489793Y-39727000D01*
X113862085Y-39652947D01*
X114212777Y-39507685D01*
X114528391Y-39296799D01*
X114796799Y-39028391D01*
X115007685Y-38712777D01*
X115152947Y-38362085D01*
X115227000Y-37989793D01*
X115227000Y-37610207D01*
X165373000Y-37610207D01*
X165373000Y-37989793D01*
X165447053Y-38362085D01*
X165592315Y-38712777D01*
X165803201Y-39028391D01*
X166071609Y-39296799D01*
X166387223Y-39507685D01*
X166737915Y-39652947D01*
X167110207Y-39727000D01*
X167489793Y-39727000D01*
X167862085Y-39652947D01*
X168212777Y-39507685D01*
X168528391Y-39296799D01*
X168796799Y-39028391D01*
X169007685Y-38712777D01*
X169152947Y-38362085D01*
X169227000Y-37989793D01*
X169227000Y-37610207D01*
X219373000Y-37610207D01*
X219373000Y-37989793D01*
X219447053Y-38362085D01*
X219592315Y-38712777D01*
X219803201Y-39028391D01*
X220071609Y-39296799D01*
X220387223Y-39507685D01*
X220737915Y-39652947D01*
X221110207Y-39727000D01*
X221489793Y-39727000D01*
X221862085Y-39652947D01*
X222212777Y-39507685D01*
X222528391Y-39296799D01*
X222796799Y-39028391D01*
X223007685Y-38712777D01*
X223152947Y-38362085D01*
X223227000Y-37989793D01*
X223227000Y-37610207D01*
X223152947Y-37237915D01*
X223007685Y-36887223D01*
X222796799Y-36571609D01*
X222528391Y-36303201D01*
X222212777Y-36092315D01*
X221862085Y-35947053D01*
X221489793Y-35873000D01*
X221110207Y-35873000D01*
X220737915Y-35947053D01*
X220387223Y-36092315D01*
X220071609Y-36303201D01*
X219803201Y-36571609D01*
X219592315Y-36887223D01*
X219447053Y-37237915D01*
X219373000Y-37610207D01*
X169227000Y-37610207D01*
X169152947Y-37237915D01*
X169007685Y-36887223D01*
X168796799Y-36571609D01*
X168528391Y-36303201D01*
X168212777Y-36092315D01*
X167862085Y-35947053D01*
X167489793Y-35873000D01*
X167110207Y-35873000D01*
X166737915Y-35947053D01*
X166387223Y-36092315D01*
X166071609Y-36303201D01*
X165803201Y-36571609D01*
X165592315Y-36887223D01*
X165447053Y-37237915D01*
X165373000Y-37610207D01*
X115227000Y-37610207D01*
X115152947Y-37237915D01*
X115007685Y-36887223D01*
X114796799Y-36571609D01*
X114528391Y-36303201D01*
X114212777Y-36092315D01*
X113862085Y-35947053D01*
X113489793Y-35873000D01*
X113110207Y-35873000D01*
X112737915Y-35947053D01*
X112387223Y-36092315D01*
X112071609Y-36303201D01*
X111803201Y-36571609D01*
X111592315Y-36887223D01*
X111447053Y-37237915D01*
X111373000Y-37610207D01*
X61227000Y-37610207D01*
X61152947Y-37237915D01*
X61007685Y-36887223D01*
X60796799Y-36571609D01*
X60528391Y-36303201D01*
X60212777Y-36092315D01*
X59862085Y-35947053D01*
X59489793Y-35873000D01*
X59110207Y-35873000D01*
X58737915Y-35947053D01*
X58387223Y-36092315D01*
X58071609Y-36303201D01*
X57803201Y-36571609D01*
X57592315Y-36887223D01*
X57447053Y-37237915D01*
X57373000Y-37610207D01*
X18452000Y-37610207D01*
X18452000Y-30310207D01*
X59473000Y-30310207D01*
X59473000Y-30689793D01*
X59547053Y-31062085D01*
X59692315Y-31412777D01*
X59903201Y-31728391D01*
X60171609Y-31996799D01*
X60487223Y-32207685D01*
X60837915Y-32352947D01*
X61210207Y-32427000D01*
X61589793Y-32427000D01*
X61962085Y-32352947D01*
X62312777Y-32207685D01*
X62628391Y-31996799D01*
X62896799Y-31728391D01*
X63107685Y-31412777D01*
X63252947Y-31062085D01*
X63327000Y-30689793D01*
X63327000Y-30310207D01*
X113473000Y-30310207D01*
X113473000Y-30689793D01*
X113547053Y-31062085D01*
X113692315Y-31412777D01*
X113903201Y-31728391D01*
X114171609Y-31996799D01*
X114487223Y-32207685D01*
X114837915Y-32352947D01*
X115210207Y-32427000D01*
X115589793Y-32427000D01*
X115962085Y-32352947D01*
X116312777Y-32207685D01*
X116628391Y-31996799D01*
X116896799Y-31728391D01*
X117107685Y-31412777D01*
X117252947Y-31062085D01*
X117327000Y-30689793D01*
X117327000Y-30310207D01*
X167473000Y-30310207D01*
X167473000Y-30689793D01*
X167547053Y-31062085D01*
X167692315Y-31412777D01*
X167903201Y-31728391D01*
X168171609Y-31996799D01*
X168487223Y-32207685D01*
X168837915Y-32352947D01*
X169210207Y-32427000D01*
X169589793Y-32427000D01*
X169962085Y-32352947D01*
X170312777Y-32207685D01*
X170628391Y-31996799D01*
X170896799Y-31728391D01*
X171107685Y-31412777D01*
X171252947Y-31062085D01*
X171327000Y-30689793D01*
X171327000Y-30310207D01*
X221473000Y-30310207D01*
X221473000Y-30689793D01*
X221547053Y-31062085D01*
X221692315Y-31412777D01*
X221903201Y-31728391D01*
X222171609Y-31996799D01*
X222487223Y-32207685D01*
X222837915Y-32352947D01*
X223210207Y-32427000D01*
X223589793Y-32427000D01*
X223962085Y-32352947D01*
X224312777Y-32207685D01*
X224628391Y-31996799D01*
X224896799Y-31728391D01*
X225107685Y-31412777D01*
X225252947Y-31062085D01*
X225327000Y-30689793D01*
X225327000Y-30310207D01*
X225252947Y-29937915D01*
X225107685Y-29587223D01*
X224896799Y-29271609D01*
X224628391Y-29003201D01*
X224312777Y-28792315D01*
X223962085Y-28647053D01*
X223589793Y-28573000D01*
X223210207Y-28573000D01*
X222837915Y-28647053D01*
X222487223Y-28792315D01*
X222171609Y-29003201D01*
X221903201Y-29271609D01*
X221692315Y-29587223D01*
X221547053Y-29937915D01*
X221473000Y-30310207D01*
X171327000Y-30310207D01*
X171252947Y-29937915D01*
X171107685Y-29587223D01*
X170896799Y-29271609D01*
X170628391Y-29003201D01*
X170312777Y-28792315D01*
X169962085Y-28647053D01*
X169589793Y-28573000D01*
X169210207Y-28573000D01*
X168837915Y-28647053D01*
X168487223Y-28792315D01*
X168171609Y-29003201D01*
X167903201Y-29271609D01*
X167692315Y-29587223D01*
X167547053Y-29937915D01*
X167473000Y-30310207D01*
X117327000Y-30310207D01*
X117252947Y-29937915D01*
X117107685Y-29587223D01*
X116896799Y-29271609D01*
X116628391Y-29003201D01*
X116312777Y-28792315D01*
X115962085Y-28647053D01*
X115589793Y-28573000D01*
X115210207Y-28573000D01*
X114837915Y-28647053D01*
X114487223Y-28792315D01*
X114171609Y-29003201D01*
X113903201Y-29271609D01*
X113692315Y-29587223D01*
X113547053Y-29937915D01*
X113473000Y-30310207D01*
X63327000Y-30310207D01*
X63252947Y-29937915D01*
X63107685Y-29587223D01*
X62896799Y-29271609D01*
X62628391Y-29003201D01*
X62312777Y-28792315D01*
X61962085Y-28647053D01*
X61589793Y-28573000D01*
X61210207Y-28573000D01*
X60837915Y-28647053D01*
X60487223Y-28792315D01*
X60171609Y-29003201D01*
X59903201Y-29271609D01*
X59692315Y-29587223D01*
X59547053Y-29937915D01*
X59473000Y-30310207D01*
X18452000Y-30310207D01*
X18452000Y-26700358D01*
X19423000Y-26700358D01*
X19423000Y-27099642D01*
X19500896Y-27491254D01*
X19653696Y-27860145D01*
X19875526Y-28192137D01*
X20157863Y-28474474D01*
X20489855Y-28696304D01*
X20858746Y-28849104D01*
X21250358Y-28927000D01*
X21649642Y-28927000D01*
X22041254Y-28849104D01*
X22410145Y-28696304D01*
X22742137Y-28474474D01*
X23024474Y-28192137D01*
X23246304Y-27860145D01*
X23399104Y-27491254D01*
X23477000Y-27099642D01*
X23477000Y-26700358D01*
X123923000Y-26700358D01*
X123923000Y-27099642D01*
X124000896Y-27491254D01*
X124153696Y-27860145D01*
X124375526Y-28192137D01*
X124657863Y-28474474D01*
X124989855Y-28696304D01*
X125358746Y-28849104D01*
X125750358Y-28927000D01*
X126149642Y-28927000D01*
X126541254Y-28849104D01*
X126910145Y-28696304D01*
X127242137Y-28474474D01*
X127524474Y-28192137D01*
X127746304Y-27860145D01*
X127899104Y-27491254D01*
X127977000Y-27099642D01*
X127977000Y-26700358D01*
X210273000Y-26700358D01*
X210273000Y-27099642D01*
X210350896Y-27491254D01*
X210503696Y-27860145D01*
X210725526Y-28192137D01*
X211007863Y-28474474D01*
X211339855Y-28696304D01*
X211708746Y-28849104D01*
X212100358Y-28927000D01*
X212499642Y-28927000D01*
X212891254Y-28849104D01*
X213260145Y-28696304D01*
X213592137Y-28474474D01*
X213874474Y-28192137D01*
X214096304Y-27860145D01*
X214249104Y-27491254D01*
X214327000Y-27099642D01*
X214327000Y-26700358D01*
X214249104Y-26308746D01*
X214096304Y-25939855D01*
X213874474Y-25607863D01*
X213592137Y-25325526D01*
X213260145Y-25103696D01*
X212891254Y-24950896D01*
X212499642Y-24873000D01*
X212100358Y-24873000D01*
X211708746Y-24950896D01*
X211339855Y-25103696D01*
X211007863Y-25325526D01*
X210725526Y-25607863D01*
X210503696Y-25939855D01*
X210350896Y-26308746D01*
X210273000Y-26700358D01*
X127977000Y-26700358D01*
X127899104Y-26308746D01*
X127746304Y-25939855D01*
X127524474Y-25607863D01*
X127242137Y-25325526D01*
X126910145Y-25103696D01*
X126541254Y-24950896D01*
X126149642Y-24873000D01*
X125750358Y-24873000D01*
X125358746Y-24950896D01*
X124989855Y-25103696D01*
X124657863Y-25325526D01*
X124375526Y-25607863D01*
X124153696Y-25939855D01*
X124000896Y-26308746D01*
X123923000Y-26700358D01*
X23477000Y-26700358D01*
X23399104Y-26308746D01*
X23246304Y-25939855D01*
X23024474Y-25607863D01*
X22742137Y-25325526D01*
X22410145Y-25103696D01*
X22041254Y-24950896D01*
X21649642Y-24873000D01*
X21250358Y-24873000D01*
X20858746Y-24950896D01*
X20489855Y-25103696D01*
X20157863Y-25325526D01*
X19875526Y-25607863D01*
X19653696Y-25939855D01*
X19500896Y-26308746D01*
X19423000Y-26700358D01*
X18452000Y-26700358D01*
X18452000Y-23902000D01*
X233548000Y-23902000D01*
X233548001Y-159248000D01*
M02*
