M48
; DRILL file {KiCad 5.1.4-e60b266~84~ubuntu18.04.1} date dim. 13 oct. 2019 11:52:51 CEST
; FORMAT={-:-/ absolute / metric / decimal}
; #@! TF.CreationDate,2019-10-13T11:52:51+02:00
; #@! TF.GenerationSoftware,Kicad,Pcbnew,5.1.4-e60b266~84~ubuntu18.04.1
; #@! TF.FileFunction,NonPlated,1,2,NPTH
FMAT,2
METRIC
T1C2.700
T2C3.000
T3C3.200
%
G90
G05
T1
X22.3Y-123.0
X45.0Y-60.0
X67.7Y-123.0
X76.3Y-123.0
X99.0Y-60.0
X121.7Y-123.0
X130.3Y-123.0
X153.0Y-60.0
X175.7Y-123.0
X184.3Y-123.0
X207.0Y-60.0
X229.7Y-123.0
T2
X169.4Y-30.5
X61.4Y-30.5
X115.4Y-30.5
X223.4Y-30.5
X135.15Y-153.1
X227.4Y-133.25
X215.7Y-153.1
T3
X125.95Y-26.9
X230.55Y-156.25
X21.45Y-156.25
X124.15Y-156.25
X21.45Y-26.9
X212.3Y-26.9
T0
M30
