M48
; DRILL file {KiCad 5.1.4-e60b266~84~ubuntu18.04.1} date dim. 13 oct. 2019 11:52:51 CEST
; FORMAT={-:-/ absolute / metric / decimal}
; #@! TF.CreationDate,2019-10-13T11:52:51+02:00
; #@! TF.GenerationSoftware,Kicad,Pcbnew,5.1.4-e60b266~84~ubuntu18.04.1
; #@! TF.FileFunction,Plated,1,2,PTH
FMAT,2
METRIC
T1C0.400
T2C0.600
T3C1.800
%
G90
G05
T1
X30.4Y-33.25
X30.4Y-34.1
X31.25Y-33.25
X31.25Y-34.1
X32.1Y-31.9
X32.1Y-32.75
X32.95Y-31.9
X32.95Y-32.75
X33.05Y-124.25
X33.05Y-125.1
X33.05Y-125.95
X33.05Y-126.8
X33.9Y-124.25
X33.9Y-125.1
X33.9Y-125.95
X33.9Y-126.8
X34.75Y-124.25
X34.75Y-125.1
X34.75Y-125.95
X34.75Y-126.8
X35.6Y-124.25
X35.6Y-125.1
X35.6Y-125.95
X35.6Y-126.8
X36.45Y-124.25
X36.45Y-125.1
X36.45Y-125.95
X36.45Y-126.8
X37.3Y-124.25
X37.3Y-125.1
X37.3Y-125.95
X37.3Y-126.8
X38.15Y-124.25
X38.15Y-125.1
X38.15Y-125.95
X38.15Y-126.8
X39.0Y-124.25
X39.0Y-125.1
X39.0Y-125.95
X39.0Y-126.8
X39.85Y-124.25
X39.85Y-125.1
X39.85Y-125.95
X39.85Y-126.8
X40.7Y-124.25
X40.7Y-125.1
X40.7Y-125.95
X40.7Y-126.8
X41.55Y-124.25
X41.55Y-125.1
X41.55Y-125.95
X41.55Y-126.8
X42.4Y-124.25
X42.4Y-125.1
X42.4Y-125.95
X42.4Y-126.8
X43.25Y-124.25
X43.25Y-125.1
X43.25Y-125.95
X43.25Y-126.8
X43.8Y-54.05
X43.8Y-54.9
X43.8Y-55.75
X43.8Y-56.6
X44.1Y-124.25
X44.1Y-125.1
X44.1Y-125.95
X44.1Y-126.8
X44.65Y-54.05
X44.65Y-54.9
X44.65Y-55.75
X44.65Y-56.6
X44.95Y-124.25
X44.95Y-125.1
X44.95Y-125.95
X44.95Y-126.8
X45.5Y-54.05
X45.5Y-54.9
X45.5Y-55.75
X45.5Y-56.6
X45.8Y-124.25
X45.8Y-125.1
X45.8Y-125.95
X45.8Y-126.8
X46.35Y-54.05
X46.35Y-54.9
X46.35Y-55.75
X46.35Y-56.6
X46.65Y-124.25
X46.65Y-125.1
X46.65Y-125.95
X46.65Y-126.8
X47.2Y-54.05
X47.2Y-54.9
X47.2Y-55.75
X47.2Y-56.6
X47.5Y-124.25
X47.5Y-125.1
X47.5Y-125.95
X47.5Y-126.8
X48.05Y-54.05
X48.05Y-54.9
X48.05Y-55.75
X48.05Y-56.6
X48.35Y-124.25
X48.35Y-125.1
X48.35Y-125.95
X48.35Y-126.8
X48.9Y-54.05
X48.9Y-54.9
X48.9Y-55.75
X48.9Y-56.6
X49.2Y-124.25
X49.2Y-125.1
X49.2Y-125.95
X49.2Y-126.8
X49.75Y-54.05
X49.75Y-54.9
X49.75Y-55.75
X49.75Y-56.6
X50.05Y-124.25
X50.05Y-125.1
X50.05Y-125.95
X50.05Y-126.8
X50.6Y-54.05
X50.6Y-54.9
X50.6Y-55.75
X50.6Y-56.6
X50.9Y-124.25
X50.9Y-125.1
X50.9Y-125.95
X50.9Y-126.8
X51.45Y-54.05
X51.45Y-54.9
X51.45Y-55.75
X51.45Y-56.6
X51.75Y-124.25
X51.75Y-125.1
X51.75Y-125.95
X51.75Y-126.8
X52.3Y-54.05
X52.3Y-54.9
X52.3Y-55.75
X52.3Y-56.6
X52.6Y-124.25
X52.6Y-125.1
X52.6Y-125.95
X52.6Y-126.8
X53.15Y-54.05
X53.15Y-54.9
X53.15Y-55.75
X53.15Y-56.6
X53.45Y-124.25
X53.45Y-125.1
X53.45Y-125.95
X53.45Y-126.8
X54.3Y-124.25
X54.3Y-125.1
X54.3Y-125.95
X54.3Y-126.8
X55.15Y-124.25
X55.15Y-125.1
X55.15Y-125.95
X55.15Y-126.8
X56.0Y-124.25
X56.0Y-125.1
X56.0Y-125.95
X56.0Y-126.8
X84.45Y-33.2
X84.45Y-34.05
X84.7Y-124.35
X84.7Y-125.2
X84.7Y-126.05
X84.7Y-126.9
X85.3Y-33.2
X85.3Y-34.05
X85.55Y-124.35
X85.55Y-125.2
X85.55Y-126.05
X85.55Y-126.9
X86.15Y-31.85
X86.15Y-32.7
X86.4Y-124.35
X86.4Y-125.2
X86.4Y-126.05
X86.4Y-126.9
X87.0Y-31.85
X87.0Y-32.7
X87.25Y-124.35
X87.25Y-125.2
X87.25Y-126.05
X87.25Y-126.9
X88.1Y-124.35
X88.1Y-125.2
X88.1Y-126.05
X88.1Y-126.9
X88.95Y-124.35
X88.95Y-125.2
X88.95Y-126.05
X88.95Y-126.9
X89.6Y-144.35
X89.6Y-145.15
X89.6Y-145.95
X89.6Y-146.75
X89.8Y-124.35
X89.8Y-125.2
X89.8Y-126.05
X89.8Y-126.9
X90.45Y-144.35
X90.45Y-145.15
X90.45Y-145.95
X90.45Y-146.75
X90.65Y-124.35
X90.65Y-125.2
X90.65Y-126.05
X90.65Y-126.9
X91.3Y-144.35
X91.3Y-145.15
X91.3Y-145.95
X91.3Y-146.75
X91.5Y-124.35
X91.5Y-125.2
X91.5Y-126.05
X91.5Y-126.9
X92.35Y-124.35
X92.35Y-125.2
X92.35Y-126.05
X92.35Y-126.9
X93.2Y-124.35
X93.2Y-125.2
X93.2Y-126.05
X93.2Y-126.9
X93.35Y-145.0
X94.05Y-124.35
X94.05Y-125.2
X94.05Y-126.05
X94.05Y-126.9
X94.15Y-145.0
X94.55Y-149.05
X94.9Y-124.35
X94.9Y-125.2
X94.9Y-126.05
X94.9Y-126.9
X94.95Y-145.0
X95.75Y-124.35
X95.75Y-125.2
X95.75Y-126.05
X95.75Y-126.9
X95.75Y-145.0
X96.55Y-145.0
X96.6Y-124.35
X96.6Y-125.2
X96.6Y-126.05
X96.6Y-126.9
X97.35Y-145.0
X97.45Y-124.35
X97.45Y-125.2
X97.45Y-126.05
X97.45Y-126.9
X97.8Y-54.05
X97.8Y-54.9
X97.8Y-55.75
X97.8Y-56.6
X98.3Y-124.35
X98.3Y-125.2
X98.3Y-126.05
X98.3Y-126.9
X98.65Y-54.05
X98.65Y-54.9
X98.65Y-55.75
X98.65Y-56.6
X99.15Y-124.35
X99.15Y-125.2
X99.15Y-126.05
X99.15Y-126.9
X99.5Y-54.05
X99.5Y-54.9
X99.5Y-55.75
X99.5Y-56.6
X100.0Y-124.35
X100.0Y-125.2
X100.0Y-126.05
X100.0Y-126.9
X100.35Y-54.05
X100.35Y-54.9
X100.35Y-55.75
X100.35Y-56.6
X100.85Y-124.35
X100.85Y-125.2
X100.85Y-126.05
X100.85Y-126.9
X101.2Y-54.05
X101.2Y-54.9
X101.2Y-55.75
X101.2Y-56.6
X101.7Y-124.35
X101.7Y-125.2
X101.7Y-126.05
X101.7Y-126.9
X102.05Y-54.05
X102.05Y-54.9
X102.05Y-55.75
X102.05Y-56.6
X102.55Y-124.35
X102.55Y-125.2
X102.55Y-126.05
X102.55Y-126.9
X102.9Y-54.05
X102.9Y-54.9
X102.9Y-55.75
X102.9Y-56.6
X103.4Y-124.35
X103.4Y-125.2
X103.4Y-126.05
X103.4Y-126.9
X103.75Y-54.05
X103.75Y-54.9
X103.75Y-55.75
X103.75Y-56.6
X104.25Y-124.35
X104.25Y-125.2
X104.25Y-126.05
X104.25Y-126.9
X104.6Y-54.05
X104.6Y-54.9
X104.6Y-55.75
X104.6Y-56.6
X105.1Y-124.35
X105.1Y-125.2
X105.1Y-126.05
X105.1Y-126.9
X105.45Y-54.05
X105.45Y-54.9
X105.45Y-55.75
X105.45Y-56.6
X105.95Y-124.35
X105.95Y-125.2
X105.95Y-126.05
X105.95Y-126.9
X106.3Y-54.05
X106.3Y-54.9
X106.3Y-55.75
X106.3Y-56.6
X106.8Y-124.35
X106.8Y-125.2
X106.8Y-126.05
X106.8Y-126.9
X107.15Y-54.05
X107.15Y-54.9
X107.15Y-55.75
X107.15Y-56.6
X107.65Y-124.35
X107.65Y-125.2
X107.65Y-126.05
X107.65Y-126.9
X120.75Y-143.75
X141.4Y-27.0
X141.4Y-27.85
X141.85Y-124.45
X141.85Y-125.3
X141.85Y-126.15
X141.85Y-127.0
X142.25Y-27.0
X142.25Y-27.85
X142.7Y-124.45
X142.7Y-125.3
X142.7Y-126.15
X142.7Y-127.0
X143.1Y-27.0
X143.1Y-27.85
X143.55Y-124.45
X143.55Y-125.3
X143.55Y-126.15
X143.55Y-127.0
X143.95Y-27.0
X143.95Y-27.85
X144.4Y-124.45
X144.4Y-125.3
X144.4Y-126.15
X144.4Y-127.0
X145.25Y-124.45
X145.25Y-125.3
X145.25Y-126.15
X145.25Y-127.0
X146.1Y-124.45
X146.1Y-125.3
X146.1Y-126.15
X146.1Y-127.0
X146.95Y-124.45
X146.95Y-125.3
X146.95Y-126.15
X146.95Y-127.0
X147.8Y-124.45
X147.8Y-125.3
X147.8Y-126.15
X147.8Y-127.0
X148.65Y-124.45
X148.65Y-125.3
X148.65Y-126.15
X148.65Y-127.0
X149.5Y-124.45
X149.5Y-125.3
X149.5Y-126.15
X149.5Y-127.0
X150.35Y-124.45
X150.35Y-125.3
X150.35Y-126.15
X150.35Y-127.0
X151.2Y-124.45
X151.2Y-125.3
X151.2Y-126.15
X151.2Y-127.0
X151.8Y-54.05
X151.8Y-54.9
X151.8Y-55.75
X151.8Y-56.6
X152.05Y-124.45
X152.05Y-125.3
X152.05Y-126.15
X152.05Y-127.0
X152.65Y-54.05
X152.65Y-54.9
X152.65Y-55.75
X152.65Y-56.6
X152.9Y-124.45
X152.9Y-125.3
X152.9Y-126.15
X152.9Y-127.0
X153.5Y-54.05
X153.5Y-54.9
X153.5Y-55.75
X153.5Y-56.6
X153.75Y-124.45
X153.75Y-125.3
X153.75Y-126.15
X153.75Y-127.0
X154.35Y-54.05
X154.35Y-54.9
X154.35Y-55.75
X154.35Y-56.6
X154.6Y-124.45
X154.6Y-125.3
X154.6Y-126.15
X154.6Y-127.0
X155.2Y-54.05
X155.2Y-54.9
X155.2Y-55.75
X155.2Y-56.6
X155.45Y-124.45
X155.45Y-125.3
X155.45Y-126.15
X155.45Y-127.0
X156.05Y-54.05
X156.05Y-54.9
X156.05Y-55.75
X156.05Y-56.6
X156.3Y-124.45
X156.3Y-125.3
X156.3Y-126.15
X156.3Y-127.0
X156.9Y-54.05
X156.9Y-54.9
X156.9Y-55.75
X156.9Y-56.6
X157.15Y-124.45
X157.15Y-125.3
X157.15Y-126.15
X157.15Y-127.0
X157.75Y-54.05
X157.75Y-54.9
X157.75Y-55.75
X157.75Y-56.6
X158.0Y-124.45
X158.0Y-125.3
X158.0Y-126.15
X158.0Y-127.0
X158.6Y-54.05
X158.6Y-54.9
X158.6Y-55.75
X158.6Y-56.6
X158.85Y-124.45
X158.85Y-125.3
X158.85Y-126.15
X158.85Y-127.0
X159.45Y-54.05
X159.45Y-54.9
X159.45Y-55.75
X159.45Y-56.6
X159.7Y-124.45
X159.7Y-125.3
X159.7Y-126.15
X159.7Y-127.0
X160.3Y-54.05
X160.3Y-54.9
X160.3Y-55.75
X160.3Y-56.6
X160.55Y-124.45
X160.55Y-125.3
X160.55Y-126.15
X160.55Y-127.0
X161.15Y-54.05
X161.15Y-54.9
X161.15Y-55.75
X161.15Y-56.6
X161.4Y-124.45
X161.4Y-125.3
X161.4Y-126.15
X161.4Y-127.0
X162.25Y-124.45
X162.25Y-125.3
X162.25Y-126.15
X162.25Y-127.0
X163.1Y-124.45
X163.1Y-125.3
X163.1Y-126.15
X163.1Y-127.0
X163.95Y-124.45
X163.95Y-125.3
X163.95Y-126.15
X163.95Y-127.0
X164.8Y-124.45
X164.8Y-125.3
X164.8Y-126.15
X164.8Y-127.0
X173.75Y-144.35
X173.75Y-145.15
X173.75Y-145.95
X173.75Y-146.75
X174.6Y-144.35
X174.6Y-145.15
X174.6Y-145.95
X174.6Y-146.75
X175.45Y-144.35
X175.45Y-145.15
X175.45Y-145.95
X175.45Y-146.75
X177.45Y-145.0
X178.25Y-145.0
X178.65Y-149.0
X179.05Y-145.0
X179.85Y-145.0
X180.65Y-145.0
X181.45Y-145.0
X195.45Y-26.9
X195.45Y-27.75
X196.3Y-26.9
X196.3Y-27.75
X197.0Y-124.6
X197.0Y-125.45
X197.0Y-126.3
X197.0Y-127.15
X197.15Y-26.9
X197.15Y-27.75
X197.85Y-124.6
X197.85Y-125.45
X197.85Y-126.3
X197.85Y-127.15
X198.0Y-26.9
X198.0Y-27.75
X198.7Y-124.6
X198.7Y-125.45
X198.7Y-126.3
X198.7Y-127.15
X199.55Y-124.6
X199.55Y-125.45
X199.55Y-126.3
X199.55Y-127.15
X200.4Y-124.6
X200.4Y-125.45
X200.4Y-126.3
X200.4Y-127.15
X200.75Y-143.65
X201.25Y-124.6
X201.25Y-125.45
X201.25Y-126.3
X201.25Y-127.15
X202.1Y-124.6
X202.1Y-125.45
X202.1Y-126.3
X202.1Y-127.15
X202.95Y-124.6
X202.95Y-125.45
X202.95Y-126.3
X202.95Y-127.15
X203.8Y-124.6
X203.8Y-125.45
X203.8Y-126.3
X203.8Y-127.15
X204.65Y-124.6
X204.65Y-125.45
X204.65Y-126.3
X204.65Y-127.15
X205.5Y-124.6
X205.5Y-125.45
X205.5Y-126.3
X205.5Y-127.15
X205.75Y-54.05
X205.75Y-54.9
X205.75Y-55.75
X205.75Y-56.6
X206.35Y-124.6
X206.35Y-125.45
X206.35Y-126.3
X206.35Y-127.15
X206.6Y-54.05
X206.6Y-54.9
X206.6Y-55.75
X206.6Y-56.6
X207.2Y-124.6
X207.2Y-125.45
X207.2Y-126.3
X207.2Y-127.15
X207.45Y-54.05
X207.45Y-54.9
X207.45Y-55.75
X207.45Y-56.6
X208.05Y-124.6
X208.05Y-125.45
X208.05Y-126.3
X208.05Y-127.15
X208.3Y-54.05
X208.3Y-54.9
X208.3Y-55.75
X208.3Y-56.6
X208.9Y-124.6
X208.9Y-125.45
X208.9Y-126.3
X208.9Y-127.15
X209.15Y-54.05
X209.15Y-54.9
X209.15Y-55.75
X209.15Y-56.6
X209.75Y-124.6
X209.75Y-125.45
X209.75Y-126.3
X209.75Y-127.15
X210.0Y-54.05
X210.0Y-54.9
X210.0Y-55.75
X210.0Y-56.6
X210.6Y-124.6
X210.6Y-125.45
X210.6Y-126.3
X210.6Y-127.15
X210.85Y-54.05
X210.85Y-54.9
X210.85Y-55.75
X210.85Y-56.6
X211.45Y-124.6
X211.45Y-125.45
X211.45Y-126.3
X211.45Y-127.15
X211.7Y-54.05
X211.7Y-54.9
X211.7Y-55.75
X211.7Y-56.6
X212.3Y-124.6
X212.3Y-125.45
X212.3Y-126.3
X212.3Y-127.15
X212.55Y-54.05
X212.55Y-54.9
X212.55Y-55.75
X212.55Y-56.6
X213.15Y-124.6
X213.15Y-125.45
X213.15Y-126.3
X213.15Y-127.15
X213.4Y-54.05
X213.4Y-54.9
X213.4Y-55.75
X213.4Y-56.6
X214.0Y-124.6
X214.0Y-125.45
X214.0Y-126.3
X214.0Y-127.15
X214.25Y-54.05
X214.25Y-54.9
X214.25Y-55.75
X214.25Y-56.6
X214.85Y-124.6
X214.85Y-125.45
X214.85Y-126.3
X214.85Y-127.15
X215.1Y-54.05
X215.1Y-54.9
X215.1Y-55.75
X215.1Y-56.6
X215.7Y-124.6
X215.7Y-125.45
X215.7Y-126.3
X215.7Y-127.15
X216.55Y-124.6
X216.55Y-125.45
X216.55Y-126.3
X216.55Y-127.15
X217.4Y-124.6
X217.4Y-125.45
X217.4Y-126.3
X217.4Y-127.15
X218.25Y-124.6
X218.25Y-125.45
X218.25Y-126.3
X218.25Y-127.15
X219.1Y-124.6
X219.1Y-125.45
X219.1Y-126.3
X219.1Y-127.15
X219.95Y-124.6
X219.95Y-125.45
X219.95Y-126.3
X219.95Y-127.15
T2
X24.7Y-79.7
X24.7Y-80.9
X24.7Y-82.1
X24.7Y-83.3
X24.7Y-84.5
X24.7Y-85.7
X24.7Y-86.9
X25.7Y-80.3
X25.7Y-81.5
X25.7Y-82.7
X25.7Y-83.9
X25.7Y-85.1
X25.7Y-86.3
X26.7Y-79.7
X26.7Y-80.9
X26.7Y-82.1
X26.7Y-83.3
X26.7Y-84.5
X26.7Y-85.7
X26.7Y-86.9
X27.7Y-80.3
X27.7Y-81.5
X27.7Y-82.7
X27.7Y-83.9
X27.7Y-85.1
X27.7Y-86.3
X28.7Y-79.7
X28.7Y-80.9
X28.7Y-82.1
X28.7Y-83.3
X28.7Y-84.5
X28.7Y-85.7
X28.7Y-86.9
X29.7Y-80.3
X29.7Y-81.5
X29.7Y-82.7
X29.7Y-83.9
X29.7Y-85.1
X29.7Y-86.3
X30.7Y-79.7
X30.7Y-80.9
X30.7Y-82.1
X30.7Y-83.3
X30.7Y-84.5
X30.7Y-85.7
X30.7Y-86.9
X32.3Y-92.7
X32.3Y-93.9
X32.3Y-95.1
X32.3Y-96.3
X32.3Y-97.5
X32.3Y-98.7
X32.3Y-99.9
X33.3Y-93.3
X33.3Y-94.5
X33.3Y-95.7
X33.3Y-96.9
X33.3Y-98.1
X33.3Y-99.3
X34.3Y-92.7
X34.3Y-93.9
X34.3Y-95.1
X34.3Y-96.3
X34.3Y-97.5
X34.3Y-98.7
X34.3Y-99.9
X35.3Y-93.3
X35.3Y-94.5
X35.3Y-95.7
X35.3Y-96.9
X35.3Y-98.1
X35.3Y-99.3
X36.35Y-92.7
X36.35Y-93.9
X36.35Y-95.1
X36.35Y-96.3
X36.35Y-97.5
X36.35Y-98.7
X36.35Y-99.9
X37.35Y-93.3
X37.35Y-94.5
X37.35Y-95.7
X37.35Y-96.9
X37.35Y-98.1
X37.35Y-99.3
X38.35Y-92.7
X38.35Y-93.9
X38.35Y-95.1
X38.35Y-96.3
X38.35Y-97.5
X38.35Y-98.7
X38.35Y-99.9
X40.5Y-86.8
X40.5Y-88.0
X40.5Y-89.2
X40.5Y-90.4
X40.5Y-91.6
X40.5Y-92.8
X40.5Y-94.0
X41.5Y-87.4
X41.5Y-88.6
X41.5Y-89.8
X41.5Y-91.0
X41.5Y-92.2
X41.5Y-93.4
X42.5Y-86.8
X42.5Y-88.0
X42.5Y-89.2
X42.5Y-90.4
X42.5Y-91.6
X42.5Y-92.8
X42.5Y-94.0
X43.5Y-87.4
X43.5Y-88.6
X43.5Y-89.8
X43.5Y-91.0
X43.5Y-92.2
X43.5Y-93.4
X44.5Y-86.8
X44.5Y-88.0
X44.5Y-89.2
X44.5Y-90.4
X44.5Y-91.6
X44.5Y-92.8
X44.5Y-94.0
X45.5Y-87.4
X45.5Y-88.6
X45.5Y-89.8
X45.5Y-91.0
X45.5Y-92.2
X45.5Y-93.4
X46.5Y-86.8
X46.5Y-88.0
X46.5Y-89.2
X46.5Y-90.4
X46.5Y-91.6
X46.5Y-92.8
X46.5Y-94.0
X48.2Y-93.6
X48.2Y-94.8
X48.2Y-96.0
X48.2Y-97.2
X48.2Y-98.4
X48.2Y-99.6
X48.2Y-100.8
X49.2Y-94.2
X49.2Y-95.4
X49.2Y-96.6
X49.2Y-97.8
X49.2Y-99.0
X49.2Y-100.2
X50.2Y-93.6
X50.2Y-94.8
X50.2Y-96.0
X50.2Y-97.2
X50.2Y-98.4
X50.2Y-99.6
X50.2Y-100.8
X51.2Y-94.2
X51.2Y-95.4
X51.2Y-96.6
X51.2Y-97.8
X51.2Y-99.0
X51.2Y-100.2
X52.2Y-93.6
X52.2Y-94.8
X52.2Y-96.0
X52.2Y-97.2
X52.2Y-98.4
X52.2Y-99.6
X52.2Y-100.8
X53.2Y-94.2
X53.2Y-95.4
X53.2Y-96.6
X53.2Y-97.8
X53.2Y-99.0
X53.2Y-100.2
X54.2Y-93.6
X54.2Y-94.8
X54.2Y-96.0
X54.2Y-97.2
X54.2Y-98.4
X54.2Y-99.6
X54.2Y-100.8
X78.7Y-79.7
X78.7Y-80.9
X78.7Y-82.1
X78.7Y-83.3
X78.7Y-84.5
X78.7Y-85.7
X78.7Y-86.9
X79.7Y-80.3
X79.7Y-81.5
X79.7Y-82.7
X79.7Y-83.9
X79.7Y-85.1
X79.7Y-86.3
X80.7Y-79.7
X80.7Y-80.9
X80.7Y-82.1
X80.7Y-83.3
X80.7Y-84.5
X80.7Y-85.7
X80.7Y-86.9
X81.7Y-80.3
X81.7Y-81.5
X81.7Y-82.7
X81.7Y-83.9
X81.7Y-85.1
X81.7Y-86.3
X82.7Y-79.7
X82.7Y-80.9
X82.7Y-82.1
X82.7Y-83.3
X82.7Y-84.5
X82.7Y-85.7
X82.7Y-86.9
X83.7Y-80.3
X83.7Y-81.5
X83.7Y-82.7
X83.7Y-83.9
X83.7Y-85.1
X83.7Y-86.3
X84.7Y-79.7
X84.7Y-80.9
X84.7Y-82.1
X84.7Y-83.3
X84.7Y-84.5
X84.7Y-85.7
X84.7Y-86.9
X86.3Y-92.7
X86.3Y-93.9
X86.3Y-95.1
X86.3Y-96.3
X86.3Y-97.5
X86.3Y-98.7
X86.3Y-99.9
X87.3Y-93.3
X87.3Y-94.5
X87.3Y-95.7
X87.3Y-96.9
X87.3Y-98.1
X87.3Y-99.3
X88.3Y-92.7
X88.3Y-93.9
X88.3Y-95.1
X88.3Y-96.3
X88.3Y-97.5
X88.3Y-98.7
X88.3Y-99.9
X89.3Y-93.3
X89.3Y-94.5
X89.3Y-95.7
X89.3Y-96.9
X89.3Y-98.1
X89.3Y-99.3
X90.35Y-92.7
X90.35Y-93.9
X90.35Y-95.1
X90.35Y-96.3
X90.35Y-97.5
X90.35Y-98.7
X90.35Y-99.9
X91.35Y-93.3
X91.35Y-94.5
X91.35Y-95.7
X91.35Y-96.9
X91.35Y-98.1
X91.35Y-99.3
X92.35Y-92.7
X92.35Y-93.9
X92.35Y-95.1
X92.35Y-96.3
X92.35Y-97.5
X92.35Y-98.7
X92.35Y-99.9
X94.5Y-86.8
X94.5Y-88.0
X94.5Y-89.2
X94.5Y-90.4
X94.5Y-91.6
X94.5Y-92.8
X94.5Y-94.0
X95.5Y-87.4
X95.5Y-88.6
X95.5Y-89.8
X95.5Y-91.0
X95.5Y-92.2
X95.5Y-93.4
X96.5Y-86.8
X96.5Y-88.0
X96.5Y-89.2
X96.5Y-90.4
X96.5Y-91.6
X96.5Y-92.8
X96.5Y-94.0
X97.5Y-87.4
X97.5Y-88.6
X97.5Y-89.8
X97.5Y-91.0
X97.5Y-92.2
X97.5Y-93.4
X98.5Y-86.8
X98.5Y-88.0
X98.5Y-89.2
X98.5Y-90.4
X98.5Y-91.6
X98.5Y-92.8
X98.5Y-94.0
X99.5Y-87.4
X99.5Y-88.6
X99.5Y-89.8
X99.5Y-91.0
X99.5Y-92.2
X99.5Y-93.4
X100.5Y-86.8
X100.5Y-88.0
X100.5Y-89.2
X100.5Y-90.4
X100.5Y-91.6
X100.5Y-92.8
X100.5Y-94.0
X102.2Y-93.6
X102.2Y-94.8
X102.2Y-96.0
X102.2Y-97.2
X102.2Y-98.4
X102.2Y-99.6
X102.2Y-100.8
X103.2Y-94.2
X103.2Y-95.4
X103.2Y-96.6
X103.2Y-97.8
X103.2Y-99.0
X103.2Y-100.2
X104.2Y-93.6
X104.2Y-94.8
X104.2Y-96.0
X104.2Y-97.2
X104.2Y-98.4
X104.2Y-99.6
X104.2Y-100.8
X105.2Y-94.2
X105.2Y-95.4
X105.2Y-96.6
X105.2Y-97.8
X105.2Y-99.0
X105.2Y-100.2
X106.2Y-93.6
X106.2Y-94.8
X106.2Y-96.0
X106.2Y-97.2
X106.2Y-98.4
X106.2Y-99.6
X106.2Y-100.8
X107.2Y-94.2
X107.2Y-95.4
X107.2Y-96.6
X107.2Y-97.8
X107.2Y-99.0
X107.2Y-100.2
X108.2Y-93.6
X108.2Y-94.8
X108.2Y-96.0
X108.2Y-97.2
X108.2Y-98.4
X108.2Y-99.6
X108.2Y-100.8
X132.7Y-79.7
X132.7Y-80.9
X132.7Y-82.1
X132.7Y-83.3
X132.7Y-84.5
X132.7Y-85.7
X132.7Y-86.9
X133.7Y-80.3
X133.7Y-81.5
X133.7Y-82.7
X133.7Y-83.9
X133.7Y-85.1
X133.7Y-86.3
X134.7Y-79.7
X134.7Y-80.9
X134.7Y-82.1
X134.7Y-83.3
X134.7Y-84.5
X134.7Y-85.7
X134.7Y-86.9
X135.7Y-80.3
X135.7Y-81.5
X135.7Y-82.7
X135.7Y-83.9
X135.7Y-85.1
X135.7Y-86.3
X136.7Y-79.7
X136.7Y-80.9
X136.7Y-82.1
X136.7Y-83.3
X136.7Y-84.5
X136.7Y-85.7
X136.7Y-86.9
X137.7Y-80.3
X137.7Y-81.5
X137.7Y-82.7
X137.7Y-83.9
X137.7Y-85.1
X137.7Y-86.3
X138.7Y-79.7
X138.7Y-80.9
X138.7Y-82.1
X138.7Y-83.3
X138.7Y-84.5
X138.7Y-85.7
X138.7Y-86.9
X140.3Y-92.7
X140.3Y-93.9
X140.3Y-95.1
X140.3Y-96.3
X140.3Y-97.5
X140.3Y-98.7
X140.3Y-99.9
X141.3Y-93.3
X141.3Y-94.5
X141.3Y-95.7
X141.3Y-96.9
X141.3Y-98.1
X141.3Y-99.3
X142.3Y-92.7
X142.3Y-93.9
X142.3Y-95.1
X142.3Y-96.3
X142.3Y-97.5
X142.3Y-98.7
X142.3Y-99.9
X143.3Y-93.3
X143.3Y-94.5
X143.3Y-95.7
X143.3Y-96.9
X143.3Y-98.1
X143.3Y-99.3
X144.35Y-92.7
X144.35Y-93.9
X144.35Y-95.1
X144.35Y-96.3
X144.35Y-97.5
X144.35Y-98.7
X144.35Y-99.9
X145.35Y-93.3
X145.35Y-94.5
X145.35Y-95.7
X145.35Y-96.9
X145.35Y-98.1
X145.35Y-99.3
X146.35Y-92.7
X146.35Y-93.9
X146.35Y-95.1
X146.35Y-96.3
X146.35Y-97.5
X146.35Y-98.7
X146.35Y-99.9
X148.5Y-86.8
X148.5Y-88.0
X148.5Y-89.2
X148.5Y-90.4
X148.5Y-91.6
X148.5Y-92.8
X148.5Y-94.0
X149.5Y-87.4
X149.5Y-88.6
X149.5Y-89.8
X149.5Y-91.0
X149.5Y-92.2
X149.5Y-93.4
X150.5Y-86.8
X150.5Y-88.0
X150.5Y-89.2
X150.5Y-90.4
X150.5Y-91.6
X150.5Y-92.8
X150.5Y-94.0
X151.5Y-87.4
X151.5Y-88.6
X151.5Y-89.8
X151.5Y-91.0
X151.5Y-92.2
X151.5Y-93.4
X152.5Y-86.8
X152.5Y-88.0
X152.5Y-89.2
X152.5Y-90.4
X152.5Y-91.6
X152.5Y-92.8
X152.5Y-94.0
X153.5Y-87.4
X153.5Y-88.6
X153.5Y-89.8
X153.5Y-91.0
X153.5Y-92.2
X153.5Y-93.4
X154.5Y-86.8
X154.5Y-88.0
X154.5Y-89.2
X154.5Y-90.4
X154.5Y-91.6
X154.5Y-92.8
X154.5Y-94.0
X156.2Y-93.6
X156.2Y-94.8
X156.2Y-96.0
X156.2Y-97.2
X156.2Y-98.4
X156.2Y-99.6
X156.2Y-100.8
X157.2Y-94.2
X157.2Y-95.4
X157.2Y-96.6
X157.2Y-97.8
X157.2Y-99.0
X157.2Y-100.2
X158.2Y-93.6
X158.2Y-94.8
X158.2Y-96.0
X158.2Y-97.2
X158.2Y-98.4
X158.2Y-99.6
X158.2Y-100.8
X159.2Y-94.2
X159.2Y-95.4
X159.2Y-96.6
X159.2Y-97.8
X159.2Y-99.0
X159.2Y-100.2
X160.2Y-93.6
X160.2Y-94.8
X160.2Y-96.0
X160.2Y-97.2
X160.2Y-98.4
X160.2Y-99.6
X160.2Y-100.8
X161.2Y-94.2
X161.2Y-95.4
X161.2Y-96.6
X161.2Y-97.8
X161.2Y-99.0
X161.2Y-100.2
X162.2Y-93.6
X162.2Y-94.8
X162.2Y-96.0
X162.2Y-97.2
X162.2Y-98.4
X162.2Y-99.6
X162.2Y-100.8
X186.7Y-79.7
X186.7Y-80.9
X186.7Y-82.1
X186.7Y-83.3
X186.7Y-84.5
X186.7Y-85.7
X186.7Y-86.9
X187.7Y-80.3
X187.7Y-81.5
X187.7Y-82.7
X187.7Y-83.9
X187.7Y-85.1
X187.7Y-86.3
X188.7Y-79.7
X188.7Y-80.9
X188.7Y-82.1
X188.7Y-83.3
X188.7Y-84.5
X188.7Y-85.7
X188.7Y-86.9
X189.7Y-80.3
X189.7Y-81.5
X189.7Y-82.7
X189.7Y-83.9
X189.7Y-85.1
X189.7Y-86.3
X190.7Y-79.7
X190.7Y-80.9
X190.7Y-82.1
X190.7Y-83.3
X190.7Y-84.5
X190.7Y-85.7
X190.7Y-86.9
X191.7Y-80.3
X191.7Y-81.5
X191.7Y-82.7
X191.7Y-83.9
X191.7Y-85.1
X191.7Y-86.3
X192.7Y-79.7
X192.7Y-80.9
X192.7Y-82.1
X192.7Y-83.3
X192.7Y-84.5
X192.7Y-85.7
X192.7Y-86.9
X194.3Y-92.7
X194.3Y-93.9
X194.3Y-95.1
X194.3Y-96.3
X194.3Y-97.5
X194.3Y-98.7
X194.3Y-99.9
X195.3Y-93.3
X195.3Y-94.5
X195.3Y-95.7
X195.3Y-96.9
X195.3Y-98.1
X195.3Y-99.3
X196.3Y-92.7
X196.3Y-93.9
X196.3Y-95.1
X196.3Y-96.3
X196.3Y-97.5
X196.3Y-98.7
X196.3Y-99.9
X197.3Y-93.3
X197.3Y-94.5
X197.3Y-95.7
X197.3Y-96.9
X197.3Y-98.1
X197.3Y-99.3
X198.35Y-92.7
X198.35Y-93.9
X198.35Y-95.1
X198.35Y-96.3
X198.35Y-97.5
X198.35Y-98.7
X198.35Y-99.9
X199.35Y-93.3
X199.35Y-94.5
X199.35Y-95.7
X199.35Y-96.9
X199.35Y-98.1
X199.35Y-99.3
X200.35Y-92.7
X200.35Y-93.9
X200.35Y-95.1
X200.35Y-96.3
X200.35Y-97.5
X200.35Y-98.7
X200.35Y-99.9
X202.5Y-86.8
X202.5Y-88.0
X202.5Y-89.2
X202.5Y-90.4
X202.5Y-91.6
X202.5Y-92.8
X202.5Y-94.0
X203.5Y-87.4
X203.5Y-88.6
X203.5Y-89.8
X203.5Y-91.0
X203.5Y-92.2
X203.5Y-93.4
X204.5Y-86.8
X204.5Y-88.0
X204.5Y-89.2
X204.5Y-90.4
X204.5Y-91.6
X204.5Y-92.8
X204.5Y-94.0
X205.5Y-87.4
X205.5Y-88.6
X205.5Y-89.8
X205.5Y-91.0
X205.5Y-92.2
X205.5Y-93.4
X206.5Y-86.8
X206.5Y-88.0
X206.5Y-89.2
X206.5Y-90.4
X206.5Y-91.6
X206.5Y-92.8
X206.5Y-94.0
X207.5Y-87.4
X207.5Y-88.6
X207.5Y-89.8
X207.5Y-91.0
X207.5Y-92.2
X207.5Y-93.4
X208.5Y-86.8
X208.5Y-88.0
X208.5Y-89.2
X208.5Y-90.4
X208.5Y-91.6
X208.5Y-92.8
X208.5Y-94.0
X210.2Y-93.6
X210.2Y-94.8
X210.2Y-96.0
X210.2Y-97.2
X210.2Y-98.4
X210.2Y-99.6
X210.2Y-100.8
X211.2Y-94.2
X211.2Y-95.4
X211.2Y-96.6
X211.2Y-97.8
X211.2Y-99.0
X211.2Y-100.2
X212.2Y-93.6
X212.2Y-94.8
X212.2Y-96.0
X212.2Y-97.2
X212.2Y-98.4
X212.2Y-99.6
X212.2Y-100.8
X213.2Y-94.2
X213.2Y-95.4
X213.2Y-96.6
X213.2Y-97.8
X213.2Y-99.0
X213.2Y-100.2
X214.2Y-93.6
X214.2Y-94.8
X214.2Y-96.0
X214.2Y-97.2
X214.2Y-98.4
X214.2Y-99.6
X214.2Y-100.8
X215.2Y-94.2
X215.2Y-95.4
X215.2Y-96.6
X215.2Y-97.8
X215.2Y-99.0
X215.2Y-100.2
X216.2Y-93.6
X216.2Y-94.8
X216.2Y-96.0
X216.2Y-97.2
X216.2Y-98.4
X216.2Y-99.6
X216.2Y-100.8
T3
X133.05Y-140.3
X133.05Y-145.8
X137.25Y-140.3
X137.25Y-145.8
X167.3Y-37.8
X167.3Y-43.3
X171.5Y-37.8
X171.5Y-43.3
X214.6Y-131.15
X214.6Y-135.35
X220.1Y-131.15
X220.1Y-135.35
X59.3Y-37.8
X59.3Y-43.3
X63.5Y-37.8
X63.5Y-43.3
X113.3Y-37.8
X113.3Y-43.3
X117.5Y-37.8
X117.5Y-43.3
X213.6Y-140.3
X213.6Y-145.8
X217.8Y-140.3
X217.8Y-145.8
X221.3Y-37.8
X221.3Y-43.3
X225.5Y-37.8
X225.5Y-43.3
T0
M30
